<svg xmlns="http://www.w3.org/2000/svg" viewBox="0 0 512 512" style="height: 512px; width: 512px;"><defs><linearGradient x1="0" x2="1" y1="0" y2="1" id="delapouite-thumb-up-gradient-1"><stop offset="0%" stop-color="#d0021b" stop-opacity="1"></stop><stop offset="100%" stop-color="#fa95a1" stop-opacity="1"></stop></linearGradient><radialGradient id="delapouite-thumb-up-gradient-2"><stop offset="0%" stop-color="#f8e71c" stop-opacity="1"></stop><stop offset="100%" stop-color="#f5a623" stop-opacity="1"></stop></radialGradient><linearGradient id="delapouite-thumb-up-gradient-3" x1="0" x2="1" y1="0" y2="1"><stop offset="0%" stop-color="#f8e71c" stop-opacity="1"></stop><stop offset="100%" stop-color="#f5a623" stop-opacity="1"></stop></linearGradient><linearGradient id="delapouite-thumb-up-gradient-4" x1="0" x2="1" y1="0" y2="1"><stop offset="0%" stop-color="#f8e71c" stop-opacity="1"></stop><stop offset="100%" stop-color="#f5a623" stop-opacity="1"></stop></linearGradient><linearGradient x1="0" x2="1" y1="0" y2="1" id="delapouite-thumb-up-gradient-5"><stop offset="0%" stop-color="#f8e71c" stop-opacity="1"></stop><stop offset="100%" stop-color="#f5a623" stop-opacity="1"></stop></linearGradient><linearGradient x1="0" x2="1" y1="0" y2="1" id="delapouite-thumb-up-gradient-6"><stop offset="0%" stop-color="#9b9b9b" stop-opacity="1"></stop><stop offset="100%" stop-color="#4a4a4a" stop-opacity="1"></stop></linearGradient><linearGradient id="delapouite-thumb-up-gradient-7"><stop offset="0%" stop-color="#4a4a4a" stop-opacity="1"></stop><stop offset="100%" stop-color="#9b9b9b" stop-opacity="1"></stop></linearGradient><linearGradient x1="0" x2="0" y1="0" y2="1" id="delapouite-thumb-up-gradient-8"><stop offset="0%" stop-color="#9013fe" stop-opacity="1"></stop><stop offset="100%" stop-color="#bd10e0" stop-opacity="1"></stop></linearGradient><linearGradient x1="0" x2="1" y1="0" y2="1" id="delapouite-thumb-up-gradient-9"><stop offset="0%" stop-color="#f8e71c" stop-opacity="1"></stop><stop offset="100%" stop-color="#f5a623" stop-opacity="1"></stop></linearGradient><linearGradient x1="0" x2="0" y1="0" y2="1" id="delapouite-thumb-up-gradient-10"><stop offset="0%" stop-color="#bd10e0" stop-opacity="1"></stop><stop offset="100%" stop-color="#fc88fc" stop-opacity="1"></stop></linearGradient><linearGradient x1="0" x2="1" y1="0" y2="1" id="delapouite-thumb-up-gradient-11"><stop offset="0%" stop-color="#f8e71c" stop-opacity="1"></stop><stop offset="100%" stop-color="#f5a623" stop-opacity="1"></stop></linearGradient><linearGradient x1="0" x2="0" y1="0" y2="1" id="delapouite-thumb-up-gradient-12"><stop offset="0%" stop-color="#ffffff" stop-opacity="1"></stop><stop offset="100%" stop-color="#c9c9c9" stop-opacity="1"></stop></linearGradient><linearGradient id="delapouite-thumb-up-gradient-13"><stop offset="0%" stop-color="#d0021b" stop-opacity="1"></stop><stop offset="100%" stop-color="#e6001b" stop-opacity="1"></stop></linearGradient><linearGradient x1="0" x2="0" y1="0" y2="1" id="delapouite-thumb-up-gradient-14"><stop offset="0%" stop-color="#ffffff" stop-opacity="1"></stop><stop offset="100%" stop-color="#c9c9c9" stop-opacity="1"></stop></linearGradient><linearGradient id="delapouite-thumb-up-gradient-15"><stop offset="0%" stop-color="#d0021b" stop-opacity="1"></stop><stop offset="100%" stop-color="#e6001b" stop-opacity="1"></stop></linearGradient><linearGradient x1="0" x2="0" y1="0" y2="1" id="delapouite-thumb-up-gradient-16"><stop offset="0%" stop-color="#345f02" stop-opacity="1"></stop><stop offset="100%" stop-color="#6e9d37" stop-opacity="1"></stop></linearGradient><linearGradient x1="0" x2="0" y1="0" y2="1" id="delapouite-thumb-up-gradient-17"><stop offset="0%" stop-color="#345f02" stop-opacity="1"></stop><stop offset="100%" stop-color="#6e9d37" stop-opacity="1"></stop></linearGradient><linearGradient x1="0" x2="0" y1="0" y2="1" id="delapouite-thumb-up-gradient-18"><stop offset="0%" stop-color="#345f02" stop-opacity="1"></stop><stop offset="100%" stop-color="#6e9d37" stop-opacity="1"></stop></linearGradient><linearGradient x1="0" x2="0" y1="0" y2="1" id="delapouite-thumb-up-gradient-19"><stop offset="0%" stop-color="#345f02" stop-opacity="1"></stop><stop offset="100%" stop-color="#6e9d37" stop-opacity="1"></stop></linearGradient><linearGradient x1="0" x2="0" y1="0" y2="1" id="delapouite-thumb-up-gradient-20"><stop offset="0%" stop-color="#345f02" stop-opacity="1"></stop><stop offset="100%" stop-color="#6e9d37" stop-opacity="1"></stop></linearGradient><radialGradient id="delapouite-thumb-up-gradient-21"><stop offset="0%" stop-color="#f8e71c" stop-opacity="1"></stop><stop offset="100%" stop-color="#f5a623" stop-opacity="1"></stop></radialGradient><radialGradient id="delapouite-thumb-up-gradient-22"><stop offset="0%" stop-color="#f8e71c" stop-opacity="1"></stop><stop offset="100%" stop-color="#f5a623" stop-opacity="1"></stop></radialGradient><radialGradient id="delapouite-thumb-up-gradient-23"><stop offset="0%" stop-color="#f8e71c" stop-opacity="1"></stop><stop offset="100%" stop-color="#f5a623" stop-opacity="1"></stop></radialGradient><radialGradient id="delapouite-thumb-up-gradient-24"><stop offset="0%" stop-color="#f8e71c" stop-opacity="1"></stop><stop offset="100%" stop-color="#f5a623" stop-opacity="1"></stop></radialGradient><radialGradient id="delapouite-thumb-up-gradient-25"><stop offset="0%" stop-color="#8b7500" stop-opacity="1"></stop><stop offset="100%" stop-color="#c4a504" stop-opacity="1"></stop></radialGradient><radialGradient id="delapouite-thumb-up-gradient-26"><stop offset="0%" stop-color="#8b7500" stop-opacity="1"></stop><stop offset="100%" stop-color="#c4a504" stop-opacity="1"></stop></radialGradient><radialGradient id="delapouite-thumb-up-gradient-27"><stop offset="0%" stop-color="#f8e71c" stop-opacity="1"></stop><stop offset="100%" stop-color="#f5a623" stop-opacity="1"></stop></radialGradient><radialGradient id="delapouite-thumb-up-gradient-28"><stop offset="0%" stop-color="#f8e71c" stop-opacity="1"></stop><stop offset="100%" stop-color="#f5a623" stop-opacity="1"></stop></radialGradient><radialGradient id="delapouite-thumb-up-gradient-29"><stop offset="0%" stop-color="#f8e71c" stop-opacity="1"></stop><stop offset="100%" stop-color="#f5a623" stop-opacity="1"></stop></radialGradient><radialGradient id="delapouite-thumb-up-gradient-30"><stop offset="0%" stop-color="#f8e71c" stop-opacity="1"></stop><stop offset="100%" stop-color="#f5a623" stop-opacity="1"></stop></radialGradient><radialGradient id="delapouite-thumb-up-gradient-31"><stop offset="0%" stop-color="#8b7500" stop-opacity="1"></stop><stop offset="100%" stop-color="#c4a504" stop-opacity="1"></stop></radialGradient><radialGradient id="delapouite-thumb-up-gradient-32"><stop offset="0%" stop-color="#f8e71c" stop-opacity="1"></stop><stop offset="100%" stop-color="#f5a623" stop-opacity="1"></stop></radialGradient><radialGradient id="delapouite-thumb-up-gradient-33"><stop offset="0%" stop-color="#8b7500" stop-opacity="1"></stop><stop offset="100%" stop-color="#c4a504" stop-opacity="1"></stop></radialGradient><radialGradient id="delapouite-thumb-up-gradient-34"><stop offset="0%" stop-color="#f8e71c" stop-opacity="1"></stop><stop offset="100%" stop-color="#f5a623" stop-opacity="1"></stop></radialGradient><radialGradient id="delapouite-thumb-up-gradient-35"><stop offset="0%" stop-color="#f8e71c" stop-opacity="1"></stop><stop offset="100%" stop-color="#f5a623" stop-opacity="1"></stop></radialGradient><radialGradient id="delapouite-thumb-up-gradient-36"><stop offset="0%" stop-color="#f8e71c" stop-opacity="1"></stop><stop offset="100%" stop-color="#f5a623" stop-opacity="1"></stop></radialGradient><radialGradient id="delapouite-thumb-up-gradient-37"><stop offset="0%" stop-color="#f8e71c" stop-opacity="1"></stop><stop offset="100%" stop-color="#f5a623" stop-opacity="1"></stop></radialGradient><linearGradient x1="0" x2="1" y1="0" y2="1" id="delapouite-thumb-up-gradient-38"><stop offset="0%" stop-color="#8b7500" stop-opacity="1"></stop><stop offset="100%" stop-color="#c4a504" stop-opacity="1"></stop></linearGradient><linearGradient x1="0" x2="1" y1="0" y2="1" id="delapouite-thumb-up-gradient-39"><stop offset="0%" stop-color="#8b7500" stop-opacity="1"></stop><stop offset="100%" stop-color="#c4a504" stop-opacity="1"></stop></linearGradient><linearGradient x1="0" x2="1" y1="0" y2="1" id="delapouite-thumb-up-gradient-40"><stop offset="0%" stop-color="#8b7500" stop-opacity="1"></stop><stop offset="100%" stop-color="#c4a504" stop-opacity="1"></stop></linearGradient><linearGradient x1="0" x2="1" y1="0" y2="1" id="delapouite-thumb-up-gradient-41"><stop offset="0%" stop-color="#8b7500" stop-opacity="1"></stop><stop offset="100%" stop-color="#c4a504" stop-opacity="1"></stop></linearGradient><linearGradient x1="0" x2="1" y1="0" y2="1" id="delapouite-thumb-up-gradient-42"><stop offset="0%" stop-color="#8b7500" stop-opacity="1"></stop><stop offset="100%" stop-color="#c4a504" stop-opacity="1"></stop></linearGradient><linearGradient x1="0" x2="1" y1="0" y2="1" id="delapouite-thumb-up-gradient-43"><stop offset="0%" stop-color="#8b7500" stop-opacity="1"></stop><stop offset="100%" stop-color="#c4a504" stop-opacity="1"></stop></linearGradient><linearGradient x1="0" x2="1" y1="0" y2="1" id="delapouite-thumb-up-gradient-44"><stop offset="0%" stop-color="#8b7500" stop-opacity="1"></stop><stop offset="100%" stop-color="#c4a504" stop-opacity="1"></stop></linearGradient><linearGradient x1="0" x2="1" y1="0" y2="1" id="delapouite-thumb-up-gradient-45"><stop offset="0%" stop-color="#8b7500" stop-opacity="1"></stop><stop offset="100%" stop-color="#c4a504" stop-opacity="1"></stop></linearGradient><linearGradient x1="0" x2="1" y1="0" y2="1" id="delapouite-thumb-up-gradient-46"><stop offset="0%" stop-color="#8b7500" stop-opacity="1"></stop><stop offset="100%" stop-color="#c4a504" stop-opacity="1"></stop></linearGradient></defs><g class="" transform="translate(0,0)" style=""><g><path d="M302.344 28.514C299.958 29.868 298.01 32.011 296.071 35.696C293.736 40.134 291.791 46.532 290.131 53.986C286.815 68.896 284.621 87.814 278.033 105.246L277.493 106.676L276.511 107.846C223.203 171.436 184.441 206.206 157.497 256.663L155.037 261.268L149.817 261.418C149.817 261.418 139.187 261.74 127.21 263.878C115.232 266.015 83.985 267.194 81.078 270.895C67.748 287.865 57.598 316.655 56.006 341.355C54.414 366.052 59.878 390.341 72.682 406.923C73.54 408.033 102.212 411.493 110.902 412.225C119.595 412.955 127.422 412.387 127.422 412.387L133.502 411.93L136.18 417.41C151.01 447.735 197.636 468.005 247.117 483.466C251.501 483.714 259.079 481.646 267.969 477.171C248.151 469.601 232.599 463.141 215.469 454.084L211.046 451.746L210.699 446.756C209.803 433.942 216.371 423.483 224.309 416.5C226.849 414.263 229.549 412.284 232.294 410.462C230.754 409.777 229.22 409.082 227.674 408.409L222.976 406.359L222.341 401.273C220.589 387.233 224.907 373.376 234.005 363.545C235.857 361.545 237.937 359.735 240.195 358.14L239.965 358.04L239.527 352.73C238.214 336.902 248.247 323.29 259.822 313.71C261.952 311.946 264.169 310.27 266.445 308.725L265.535 306.577C261.045 295.969 263.199 284.792 268.545 276.762C273.895 268.732 281.902 263.105 290.465 259.972L290.697 259.886L290.933 259.813C307.589 254.735 323.549 258.806 338.689 262.843C353.829 266.879 368.531 271.063 383.829 269.766C393.115 285.268 391.924 282.289 394.319 286.942L385.353 287.702C365.936 289.349 348.873 284.187 334.053 280.235C319.343 276.315 307.221 273.779 296.437 276.971C291.305 278.904 286.227 282.686 283.529 286.741C281.379 289.967 280.469 292.921 281.191 296.491C302.959 305.759 319.565 315.838 338.231 321.289C357.913 327.035 380.721 328.349 417.556 318.254C423.414 315.412 429.171 310.576 432.57 305.308C436.073 299.881 437.207 294.662 435.44 289.308C429.025 269.878 420.238 252.624 402.412 240.793C362.257 224.09 336.454 223.961 301.137 227.457C300.51 222.242 300.7 216.813 301.159 209.367C303.225 194.214 310.004 175.523 317.904 154.271C327.696 127.929 339.596 99.114 348.32 75.379C346.278 55.589 340.702 44.509 333.276 38.079C325.981 31.764 315.716 29.025 302.344 28.515Z" class="" fill="url(#delapouite-thumb-up-gradient-2)" stroke="#000000" stroke-opacity="1" stroke-width="2"></path><path d="M287.814 319.212C283.294 320.312 276.862 322.972 271.301 327.575C264.538 333.175 259.631 340.563 258.033 346.565C282.611 358.045 301.123 369.509 332.663 379.651L399.583 375.857C411.579 371.657 419.363 367.334 423.653 363.66C428.073 359.87 428.945 357.366 429.103 354.89C429.368 350.74 425.273 343.78 419.223 336.46C381.709 346.295 355.303 345.022 333.189 338.565C316.562 333.71 302.665 326.34 287.814 319.212Z" class="" fill="url(#delapouite-thumb-up-gradient-3)" stroke="#000000" stroke-opacity="1" stroke-width="2"></path><path d="M262.416 368.622C256.036 368.817 251.129 371.545 247.216 375.772C242.946 380.388 240.363 387.099 240.126 394.262C263.439 404.636 285.206 415.397 314.816 424.669L371.356 423.574C393.218 422.671 399.146 413.784 400.274 405.72C400.874 401.44 399.781 397.216 397.564 394L330.294 397.815L328.724 397.319C300.114 388.284 281.668 378.224 262.459 368.621L262.415 368.621Z" class="selected" fill="url(#delapouite-thumb-up-gradient-4)" stroke="#000000" stroke-opacity="1" stroke-width="2"></path><path d="M252.456 419.559C246.316 422.891 240.403 426.312 236.198 430.011C232.193 433.534 229.794 436.681 228.961 440.701C246.357 449.526 262.894 456.064 286.347 464.863L332.857 466.459C340.872 463.032 345.657 459.769 347.937 457.349C350.377 454.759 350.574 453.552 350.54 451.476C350.505 449.356 349.196 446.063 347.54 442.039L312.137 442.724L310.752 442.297C287.874 435.227 269.592 427.307 252.457 419.557Z" class="" fill="url(#delapouite-thumb-up-gradient-5)" stroke="#000000" stroke-opacity="1" stroke-width="2"></path></g></g></svg>