<svg xmlns="http://www.w3.org/2000/svg" viewBox="0 0 512 512" style="height: 512px; width: 512px;"><defs><linearGradient x1="0" x2="1" y1="0" y2="1" id="lorc-pumpkin-mask-gradient-1"><stop offset="0%" stop-color="#ffe0af" stop-opacity="1"></stop><stop offset="100%" stop-color="#faf5ed" stop-opacity="1"></stop></linearGradient><radialGradient id="lorc-pumpkin-mask-gradient-2"><stop offset="0%" stop-color="#f8e71c" stop-opacity="1"></stop><stop offset="100%" stop-color="#f5a623" stop-opacity="1"></stop></radialGradient><linearGradient x1="0" x2="1" y1="0" y2="1" id="lorc-pumpkin-mask-gradient-3"><stop offset="0%" stop-color="#d0021b" stop-opacity="1"></stop><stop offset="100%" stop-color="#000000" stop-opacity="1"></stop></linearGradient><linearGradient x1="0" x2="1" y1="1" y2="0" id="lorc-pumpkin-mask-gradient-4"><stop offset="0%" stop-color="#000000" stop-opacity="1"></stop><stop offset="100%" stop-color="#d0021b" stop-opacity="1"></stop></linearGradient><linearGradient id="lorc-pumpkin-mask-gradient-5" x1="0" x2="0" y1="0" y2="1"><stop offset="0%" stop-color="#d0021b" stop-opacity="1"></stop><stop offset="100%" stop-color="#000000" stop-opacity="1"></stop></linearGradient><linearGradient x1="0" x2="1" y1="0" y2="1" id="lorc-pumpkin-mask-gradient-6"><stop offset="0%" stop-color="#48baff" stop-opacity="1"></stop><stop offset="100%" stop-color="#c4f8ee" stop-opacity="1"></stop></linearGradient><linearGradient id="lorc-pumpkin-mask-gradient-7"><stop offset="0%" stop-color="#b5e4db" stop-opacity="1"></stop><stop offset="100%" stop-color="#42aae9" stop-opacity="1"></stop></linearGradient><linearGradient id="lorc-pumpkin-mask-gradient-8"><stop offset="0%" stop-color="#42aae9" stop-opacity="1"></stop><stop offset="100%" stop-color="#b5e4db" stop-opacity="1"></stop></linearGradient><linearGradient x1="0" x2="0" y1="0" y2="1" id="lorc-pumpkin-mask-gradient-9"><stop offset="0%" stop-color="#c4f8ee" stop-opacity="1"></stop><stop offset="100%" stop-color="#ffffff" stop-opacity="1"></stop></linearGradient><linearGradient x1="0" x2="0" y1="0" y2="1" id="lorc-pumpkin-mask-gradient-10"><stop offset="0%" stop-color="#c4f8ee" stop-opacity="1"></stop><stop offset="100%" stop-color="#ffffff" stop-opacity="1"></stop></linearGradient></defs><g class="" transform="translate(0,0)" style=""><g transform="translate(512, 0) scale(-1, 1) rotate(0, 256, 256) skewX(0) skewY(0)"><path d="M256.156 16.875C207.202 124.332 127.758 97.775 116.844 53.845C59.024 96.271 21.314 164.518 21.314 241.405C21.312 369.982 126.242 474.345 255.531 474.345C384.821 474.345 489.751 369.982 489.751 241.405C489.751 165.127 452.478 97.558 395.438 55.062C384.168 97.13 317.172 122.555 256.158 16.875Z" class="" fill="url(#lorc-pumpkin-mask-gradient-2)" stroke="#000000" stroke-opacity="1" stroke-width="2"></path><path d="M134.686 134.53C144.214 134.428 154.836 136.553 165.186 141.03C190.666 152.054 204.784 173.304 196.686 188.5C188.591 203.696 161.356 207.085 135.876 196.063C110.396 185.04 96.309 163.759 104.406 148.563C109.214 139.54 120.764 134.683 134.686 134.531Z" class="" fill="url(#lorc-pumpkin-mask-gradient-3)" stroke="#000000" stroke-opacity="1" stroke-width="2"></path><path d="M383.656 135.72C398.563 135.354 411.096 140.252 416.156 149.75C424.253 164.946 410.136 186.196 384.656 197.22C359.176 208.24 331.972 204.852 323.876 189.656C315.778 174.46 329.864 153.21 355.344 142.186C364.899 138.054 374.712 135.936 383.656 135.719Z" class="" fill="url(#lorc-pumpkin-mask-gradient-4)" stroke="#000000" stroke-opacity="1" stroke-width="2"></path><path d="M151.75 228.562L205 316.719L259.5 239.219L299.938 319.779L365.344 229.843L400.156 299.093L473.531 236.249C472.323 292.472 435.281 369.886 389.751 401.593L366.407 333.563L310.282 426.749L253.815 337.093L183.721 420.687L130.471 328.967L113.064 393.311C66.697 353.131 44.054 293.361 46.157 234.718L100.314 302.904L151.751 228.56Z" class="selected" fill="url(#lorc-pumpkin-mask-gradient-5)" stroke="#000000" stroke-opacity="1" stroke-width="2"></path></g></g></svg>