<svg xmlns="http://www.w3.org/2000/svg" viewBox="0 0 512 512" style="height: 512px; width: 512px;"><defs><linearGradient x1="0" x2="1" y1="0" y2="1" id="lorc-hazard-sign-gradient-1"><stop offset="0%" stop-color="#d0021b" stop-opacity="1"></stop><stop offset="100%" stop-color="#fa95a1" stop-opacity="1"></stop></linearGradient><linearGradient x1="0" x2="1" y1="0" y2="1" id="lorc-hazard-sign-gradient-2"><stop offset="0%" stop-color="#48baff" stop-opacity="1"></stop><stop offset="100%" stop-color="#4a90e2" stop-opacity="1"></stop></linearGradient><radialGradient id="lorc-hazard-sign-gradient-4"><stop offset="0%" stop-color="#f8e71c" stop-opacity="1"></stop><stop offset="100%" stop-color="#f5a623" stop-opacity="1"></stop></radialGradient><linearGradient x1="0" x2="1" y1="0" y2="1" id="lorc-hazard-sign-gradient-6"><stop offset="0%" stop-color="#9b9b9b" stop-opacity="1"></stop><stop offset="100%" stop-color="#4a4a4a" stop-opacity="1"></stop></linearGradient><linearGradient x1="0" x2="0" y1="0" y2="1" id="lorc-hazard-sign-gradient-7"><stop offset="0%" stop-color="#9b9b9b" stop-opacity="1"></stop><stop offset="100%" stop-color="#4a4a4a" stop-opacity="1"></stop></linearGradient><linearGradient x1="0" x2="0" y1="0" y2="1" id="lorc-hazard-sign-gradient-8"><stop offset="0%" stop-color="#9013fe" stop-opacity="1"></stop><stop offset="100%" stop-color="#bd10e0" stop-opacity="1"></stop></linearGradient><linearGradient x1="0" x2="1" y1="0" y2="1" id="lorc-hazard-sign-gradient-9"><stop offset="0%" stop-color="#f8e71c" stop-opacity="1"></stop><stop offset="100%" stop-color="#f5a623" stop-opacity="1"></stop></linearGradient><linearGradient x1="0" x2="0" y1="0" y2="1" id="lorc-hazard-sign-gradient-10"><stop offset="0%" stop-color="#bd10e0" stop-opacity="1"></stop><stop offset="100%" stop-color="#fc88fc" stop-opacity="1"></stop></linearGradient><linearGradient x1="0" x2="1" y1="0" y2="1" id="lorc-hazard-sign-gradient-11"><stop offset="0%" stop-color="#f8e71c" stop-opacity="1"></stop><stop offset="100%" stop-color="#f5a623" stop-opacity="1"></stop></linearGradient><linearGradient x1="0" x2="0" y1="0" y2="1" id="lorc-hazard-sign-gradient-12"><stop offset="0%" stop-color="#ffffff" stop-opacity="1"></stop><stop offset="100%" stop-color="#c9c9c9" stop-opacity="1"></stop></linearGradient><linearGradient id="lorc-hazard-sign-gradient-13"><stop offset="0%" stop-color="#d0021b" stop-opacity="1"></stop><stop offset="100%" stop-color="#e6001b" stop-opacity="1"></stop></linearGradient><linearGradient x1="0" x2="0" y1="0" y2="1" id="lorc-hazard-sign-gradient-14"><stop offset="0%" stop-color="#ffffff" stop-opacity="1"></stop><stop offset="100%" stop-color="#c9c9c9" stop-opacity="1"></stop></linearGradient><linearGradient id="lorc-hazard-sign-gradient-15"><stop offset="0%" stop-color="#d0021b" stop-opacity="1"></stop><stop offset="100%" stop-color="#e6001b" stop-opacity="1"></stop></linearGradient><linearGradient x1="0" x2="0" y1="0" y2="1" id="lorc-hazard-sign-gradient-16"><stop offset="0%" stop-color="#345f02" stop-opacity="1"></stop><stop offset="100%" stop-color="#6e9d37" stop-opacity="1"></stop></linearGradient><linearGradient x1="0" x2="0" y1="0" y2="1" id="lorc-hazard-sign-gradient-17"><stop offset="0%" stop-color="#345f02" stop-opacity="1"></stop><stop offset="100%" stop-color="#6e9d37" stop-opacity="1"></stop></linearGradient><linearGradient x1="0" x2="0" y1="0" y2="1" id="lorc-hazard-sign-gradient-18"><stop offset="0%" stop-color="#345f02" stop-opacity="1"></stop><stop offset="100%" stop-color="#6e9d37" stop-opacity="1"></stop></linearGradient><linearGradient x1="0" x2="0" y1="0" y2="1" id="lorc-hazard-sign-gradient-19"><stop offset="0%" stop-color="#345f02" stop-opacity="1"></stop><stop offset="100%" stop-color="#6e9d37" stop-opacity="1"></stop></linearGradient><linearGradient x1="0" x2="0" y1="0" y2="1" id="lorc-hazard-sign-gradient-20"><stop offset="0%" stop-color="#345f02" stop-opacity="1"></stop><stop offset="100%" stop-color="#6e9d37" stop-opacity="1"></stop></linearGradient><radialGradient id="lorc-hazard-sign-gradient-21"><stop offset="0%" stop-color="#f8e71c" stop-opacity="1"></stop><stop offset="100%" stop-color="#f5a623" stop-opacity="1"></stop></radialGradient><radialGradient id="lorc-hazard-sign-gradient-22"><stop offset="0%" stop-color="#f8e71c" stop-opacity="1"></stop><stop offset="100%" stop-color="#f5a623" stop-opacity="1"></stop></radialGradient><radialGradient id="lorc-hazard-sign-gradient-23"><stop offset="0%" stop-color="#f8e71c" stop-opacity="1"></stop><stop offset="100%" stop-color="#f5a623" stop-opacity="1"></stop></radialGradient><radialGradient id="lorc-hazard-sign-gradient-24"><stop offset="0%" stop-color="#f8e71c" stop-opacity="1"></stop><stop offset="100%" stop-color="#f5a623" stop-opacity="1"></stop></radialGradient><radialGradient id="lorc-hazard-sign-gradient-25"><stop offset="0%" stop-color="#8b7500" stop-opacity="1"></stop><stop offset="100%" stop-color="#c4a504" stop-opacity="1"></stop></radialGradient><radialGradient id="lorc-hazard-sign-gradient-26"><stop offset="0%" stop-color="#8b7500" stop-opacity="1"></stop><stop offset="100%" stop-color="#c4a504" stop-opacity="1"></stop></radialGradient><radialGradient id="lorc-hazard-sign-gradient-27"><stop offset="0%" stop-color="#f8e71c" stop-opacity="1"></stop><stop offset="100%" stop-color="#f5a623" stop-opacity="1"></stop></radialGradient><radialGradient id="lorc-hazard-sign-gradient-28"><stop offset="0%" stop-color="#f8e71c" stop-opacity="1"></stop><stop offset="100%" stop-color="#f5a623" stop-opacity="1"></stop></radialGradient><radialGradient id="lorc-hazard-sign-gradient-29"><stop offset="0%" stop-color="#f8e71c" stop-opacity="1"></stop><stop offset="100%" stop-color="#f5a623" stop-opacity="1"></stop></radialGradient><radialGradient id="lorc-hazard-sign-gradient-30"><stop offset="0%" stop-color="#f8e71c" stop-opacity="1"></stop><stop offset="100%" stop-color="#f5a623" stop-opacity="1"></stop></radialGradient><radialGradient id="lorc-hazard-sign-gradient-31"><stop offset="0%" stop-color="#8b7500" stop-opacity="1"></stop><stop offset="100%" stop-color="#c4a504" stop-opacity="1"></stop></radialGradient><radialGradient id="lorc-hazard-sign-gradient-32"><stop offset="0%" stop-color="#f8e71c" stop-opacity="1"></stop><stop offset="100%" stop-color="#f5a623" stop-opacity="1"></stop></radialGradient><radialGradient id="lorc-hazard-sign-gradient-33"><stop offset="0%" stop-color="#8b7500" stop-opacity="1"></stop><stop offset="100%" stop-color="#c4a504" stop-opacity="1"></stop></radialGradient><radialGradient id="lorc-hazard-sign-gradient-34"><stop offset="0%" stop-color="#f8e71c" stop-opacity="1"></stop><stop offset="100%" stop-color="#f5a623" stop-opacity="1"></stop></radialGradient><radialGradient id="lorc-hazard-sign-gradient-35"><stop offset="0%" stop-color="#f8e71c" stop-opacity="1"></stop><stop offset="100%" stop-color="#f5a623" stop-opacity="1"></stop></radialGradient><radialGradient id="lorc-hazard-sign-gradient-36"><stop offset="0%" stop-color="#f8e71c" stop-opacity="1"></stop><stop offset="100%" stop-color="#f5a623" stop-opacity="1"></stop></radialGradient><radialGradient id="lorc-hazard-sign-gradient-37"><stop offset="0%" stop-color="#f8e71c" stop-opacity="1"></stop><stop offset="100%" stop-color="#f5a623" stop-opacity="1"></stop></radialGradient><linearGradient x1="0" x2="1" y1="0" y2="1" id="lorc-hazard-sign-gradient-38"><stop offset="0%" stop-color="#8b7500" stop-opacity="1"></stop><stop offset="100%" stop-color="#c4a504" stop-opacity="1"></stop></linearGradient><linearGradient x1="0" x2="1" y1="0" y2="1" id="lorc-hazard-sign-gradient-39"><stop offset="0%" stop-color="#8b7500" stop-opacity="1"></stop><stop offset="100%" stop-color="#c4a504" stop-opacity="1"></stop></linearGradient><linearGradient x1="0" x2="1" y1="0" y2="1" id="lorc-hazard-sign-gradient-40"><stop offset="0%" stop-color="#8b7500" stop-opacity="1"></stop><stop offset="100%" stop-color="#c4a504" stop-opacity="1"></stop></linearGradient><linearGradient x1="0" x2="1" y1="0" y2="1" id="lorc-hazard-sign-gradient-41"><stop offset="0%" stop-color="#8b7500" stop-opacity="1"></stop><stop offset="100%" stop-color="#c4a504" stop-opacity="1"></stop></linearGradient><linearGradient x1="0" x2="1" y1="0" y2="1" id="lorc-hazard-sign-gradient-42"><stop offset="0%" stop-color="#8b7500" stop-opacity="1"></stop><stop offset="100%" stop-color="#c4a504" stop-opacity="1"></stop></linearGradient><linearGradient x1="0" x2="1" y1="0" y2="1" id="lorc-hazard-sign-gradient-43"><stop offset="0%" stop-color="#8b7500" stop-opacity="1"></stop><stop offset="100%" stop-color="#c4a504" stop-opacity="1"></stop></linearGradient><linearGradient x1="0" x2="1" y1="0" y2="1" id="lorc-hazard-sign-gradient-44"><stop offset="0%" stop-color="#8b7500" stop-opacity="1"></stop><stop offset="100%" stop-color="#c4a504" stop-opacity="1"></stop></linearGradient><linearGradient x1="0" x2="1" y1="0" y2="1" id="lorc-hazard-sign-gradient-45"><stop offset="0%" stop-color="#8b7500" stop-opacity="1"></stop><stop offset="100%" stop-color="#c4a504" stop-opacity="1"></stop></linearGradient><linearGradient x1="0" x2="1" y1="0" y2="1" id="lorc-hazard-sign-gradient-46"><stop offset="0%" stop-color="#8b7500" stop-opacity="1"></stop><stop offset="100%" stop-color="#c4a504" stop-opacity="1"></stop></linearGradient></defs><g class="" transform="translate(0,0)" style=""><g><path d="M254.97 34.75C224.49 34.583 195.95 56.87 175.438 96.906C175.363 97.052 175.262 97.166 175.188 97.312L43.063 326.783L42.843 327.126C18.5 365.413 13.377 401.515 28.47 428.03C43.55 454.528 77.097 468.156 121.97 465.938L387.063 465.938C431.95 468.165 465.508 454.534 480.593 428.031C495.683 401.521 490.549 365.436 466.218 327.157L465.998 326.782L335.28 98.064C335.22 97.944 335.156 97.839 335.094 97.72C314.146 57.457 285.468 34.917 254.969 34.75Z" class="selected" fill="url(#lorc-hazard-sign-gradient-2)" stroke="#000000" stroke-opacity="1" stroke-width="2"></path><path d="M255.03 53.594C268.606 53.724 281.483 60.524 293.156 71.937C304.762 83.284 315.71 99.39 326.562 120.281C326.625 120.403 326.687 120.505 326.75 120.626L441.97 322.189C442.003 322.242 442.028 322.291 442.062 322.345L442.187 322.565C455.107 342.839 463.582 360.625 467.469 376.532C471.379 392.542 470.532 407.18 463.624 418.94C456.716 430.7 444.402 438.473 428.844 442.846C413.4 447.186 394.336 448.502 371.436 447.346L137.625 447.346C112.78 448.604 92.895 447.026 77.22 442.221C61.44 437.381 49.54 428.771 43.5 416.531C37.46 404.294 37.638 389.734 42 374.095C46.333 358.56 54.815 341.487 66.875 322.565L67.095 322.188L183.562 120C183.642 119.843 183.732 119.72 183.812 119.562C194.51 98.644 205.32 82.6 216.875 71.376C228.517 60.069 241.455 53.463 255.031 53.596Z" class="" fill="#000000" fill-opacity="1" stroke="#000000" stroke-opacity="1" stroke-width="2"></path><path d="M302.687 115.687L274.157 339.719L232.313 339.719L204.438 120.5C203.034 123.056 201.628 125.705 200.218 128.47L200.125 128.688L200 128.906L83.062 331.876L82.969 332.063L82.843 332.25C71.28 350.346 63.598 366.226 60 379.125C56.402 392.025 56.892 401.447 60.25 408.25C63.608 415.053 70.175 420.53 82.72 424.375C95.262 428.22 113.39 429.922 137.125 428.688L137.375 428.656L371.688 428.656L371.938 428.686C393.788 429.824 411.246 428.406 423.813 424.876C436.379 421.343 443.635 416.049 447.5 409.469C451.365 402.889 452.478 393.924 449.313 380.969C446.147 368.011 438.581 351.595 426.219 332.249L426.093 332.061L425.968 331.843L310.31 129.563L310.217 129.405L310.153 129.218C307.653 124.39 305.163 119.892 302.683 115.686Z" class="" fill="url(#lorc-hazard-sign-gradient-4)" stroke="#000000" stroke-opacity="1" stroke-width="2"></path><path d="M231.28 361.875L275.187 361.875L275.187 405.781L231.28 405.781L231.28 361.876Z" class="" fill="#000000" stroke="#000000" stroke-opacity="1" stroke-width="2" fill-opacity="1"></path></g></g></svg>