<svg xmlns="http://www.w3.org/2000/svg" viewBox="0 0 512 512" style="height: 512px; width: 512px;"><defs><linearGradient x1="0" x2="1" y1="0" y2="1" id="delapouite-spy-gradient-1"><stop offset="0%" stop-color="#d0021b" stop-opacity="1"></stop><stop offset="100%" stop-color="#fa95a1" stop-opacity="1"></stop></linearGradient><linearGradient x1="0" x2="1" y1="1" y2="0" id="delapouite-spy-gradient-2"><stop offset="0%" stop-color="#4a4a4a" stop-opacity="1"></stop><stop offset="100%" stop-color="#9b9b9b" stop-opacity="1"></stop></linearGradient><linearGradient x1="0" x2="1" y1="0" y2="1" id="delapouite-spy-gradient-3"><stop offset="0%" stop-color="#b87333" stop-opacity="1"></stop><stop offset="100%" stop-color="#ff7b00" stop-opacity="1"></stop></linearGradient><linearGradient x1="0" x2="1" y1="0" y2="1" id="delapouite-spy-gradient-4"><stop offset="0%" stop-color="#4a4a4a" stop-opacity="1"></stop><stop offset="100%" stop-color="#9b9b9b" stop-opacity="1"></stop></linearGradient><radialGradient id="delapouite-spy-gradient-5"><stop offset="0%" stop-color="#f8e71c" stop-opacity="1"></stop><stop offset="100%" stop-color="#f5a623" stop-opacity="1"></stop></radialGradient><linearGradient id="delapouite-spy-gradient-6"><stop offset="0%" stop-color="#9b9b9b" stop-opacity="1"></stop><stop offset="100%" stop-color="#4a4a4a" stop-opacity="1"></stop></linearGradient><linearGradient id="delapouite-spy-gradient-7"><stop offset="0%" stop-color="#4a4a4a" stop-opacity="1"></stop><stop offset="100%" stop-color="#9b9b9b" stop-opacity="1"></stop></linearGradient><linearGradient x1="0" x2="0" y1="0" y2="1" id="delapouite-spy-gradient-8"><stop offset="0%" stop-color="#9013fe" stop-opacity="1"></stop><stop offset="100%" stop-color="#bd10e0" stop-opacity="1"></stop></linearGradient><linearGradient x1="0" x2="1" y1="0" y2="1" id="delapouite-spy-gradient-9"><stop offset="0%" stop-color="#f8e71c" stop-opacity="1"></stop><stop offset="100%" stop-color="#f5a623" stop-opacity="1"></stop></linearGradient><linearGradient x1="0" x2="0" y1="0" y2="1" id="delapouite-spy-gradient-10"><stop offset="0%" stop-color="#bd10e0" stop-opacity="1"></stop><stop offset="100%" stop-color="#fc88fc" stop-opacity="1"></stop></linearGradient><linearGradient x1="0" x2="1" y1="0" y2="1" id="delapouite-spy-gradient-11"><stop offset="0%" stop-color="#f8e71c" stop-opacity="1"></stop><stop offset="100%" stop-color="#f5a623" stop-opacity="1"></stop></linearGradient><linearGradient x1="0" x2="0" y1="0" y2="1" id="delapouite-spy-gradient-12"><stop offset="0%" stop-color="#ffffff" stop-opacity="1"></stop><stop offset="100%" stop-color="#c9c9c9" stop-opacity="1"></stop></linearGradient><linearGradient id="delapouite-spy-gradient-13"><stop offset="0%" stop-color="#d0021b" stop-opacity="1"></stop><stop offset="100%" stop-color="#e6001b" stop-opacity="1"></stop></linearGradient><linearGradient x1="0" x2="0" y1="0" y2="1" id="delapouite-spy-gradient-14"><stop offset="0%" stop-color="#ffffff" stop-opacity="1"></stop><stop offset="100%" stop-color="#c9c9c9" stop-opacity="1"></stop></linearGradient><linearGradient id="delapouite-spy-gradient-15"><stop offset="0%" stop-color="#d0021b" stop-opacity="1"></stop><stop offset="100%" stop-color="#e6001b" stop-opacity="1"></stop></linearGradient><linearGradient x1="0" x2="0" y1="0" y2="1" id="delapouite-spy-gradient-16"><stop offset="0%" stop-color="#345f02" stop-opacity="1"></stop><stop offset="100%" stop-color="#6e9d37" stop-opacity="1"></stop></linearGradient><linearGradient x1="0" x2="0" y1="0" y2="1" id="delapouite-spy-gradient-17"><stop offset="0%" stop-color="#345f02" stop-opacity="1"></stop><stop offset="100%" stop-color="#6e9d37" stop-opacity="1"></stop></linearGradient><linearGradient x1="0" x2="0" y1="0" y2="1" id="delapouite-spy-gradient-18"><stop offset="0%" stop-color="#345f02" stop-opacity="1"></stop><stop offset="100%" stop-color="#6e9d37" stop-opacity="1"></stop></linearGradient><linearGradient x1="0" x2="0" y1="0" y2="1" id="delapouite-spy-gradient-19"><stop offset="0%" stop-color="#345f02" stop-opacity="1"></stop><stop offset="100%" stop-color="#6e9d37" stop-opacity="1"></stop></linearGradient><linearGradient x1="0" x2="0" y1="0" y2="1" id="delapouite-spy-gradient-20"><stop offset="0%" stop-color="#345f02" stop-opacity="1"></stop><stop offset="100%" stop-color="#6e9d37" stop-opacity="1"></stop></linearGradient><radialGradient id="delapouite-spy-gradient-21"><stop offset="0%" stop-color="#f8e71c" stop-opacity="1"></stop><stop offset="100%" stop-color="#f5a623" stop-opacity="1"></stop></radialGradient><radialGradient id="delapouite-spy-gradient-22"><stop offset="0%" stop-color="#f8e71c" stop-opacity="1"></stop><stop offset="100%" stop-color="#f5a623" stop-opacity="1"></stop></radialGradient><radialGradient id="delapouite-spy-gradient-23"><stop offset="0%" stop-color="#f8e71c" stop-opacity="1"></stop><stop offset="100%" stop-color="#f5a623" stop-opacity="1"></stop></radialGradient><radialGradient id="delapouite-spy-gradient-24"><stop offset="0%" stop-color="#f8e71c" stop-opacity="1"></stop><stop offset="100%" stop-color="#f5a623" stop-opacity="1"></stop></radialGradient><radialGradient id="delapouite-spy-gradient-25"><stop offset="0%" stop-color="#8b7500" stop-opacity="1"></stop><stop offset="100%" stop-color="#c4a504" stop-opacity="1"></stop></radialGradient><radialGradient id="delapouite-spy-gradient-26"><stop offset="0%" stop-color="#8b7500" stop-opacity="1"></stop><stop offset="100%" stop-color="#c4a504" stop-opacity="1"></stop></radialGradient><radialGradient id="delapouite-spy-gradient-27"><stop offset="0%" stop-color="#f8e71c" stop-opacity="1"></stop><stop offset="100%" stop-color="#f5a623" stop-opacity="1"></stop></radialGradient><radialGradient id="delapouite-spy-gradient-28"><stop offset="0%" stop-color="#f8e71c" stop-opacity="1"></stop><stop offset="100%" stop-color="#f5a623" stop-opacity="1"></stop></radialGradient><radialGradient id="delapouite-spy-gradient-29"><stop offset="0%" stop-color="#f8e71c" stop-opacity="1"></stop><stop offset="100%" stop-color="#f5a623" stop-opacity="1"></stop></radialGradient><radialGradient id="delapouite-spy-gradient-30"><stop offset="0%" stop-color="#f8e71c" stop-opacity="1"></stop><stop offset="100%" stop-color="#f5a623" stop-opacity="1"></stop></radialGradient><radialGradient id="delapouite-spy-gradient-31"><stop offset="0%" stop-color="#8b7500" stop-opacity="1"></stop><stop offset="100%" stop-color="#c4a504" stop-opacity="1"></stop></radialGradient><radialGradient id="delapouite-spy-gradient-32"><stop offset="0%" stop-color="#f8e71c" stop-opacity="1"></stop><stop offset="100%" stop-color="#f5a623" stop-opacity="1"></stop></radialGradient><radialGradient id="delapouite-spy-gradient-33"><stop offset="0%" stop-color="#8b7500" stop-opacity="1"></stop><stop offset="100%" stop-color="#c4a504" stop-opacity="1"></stop></radialGradient><radialGradient id="delapouite-spy-gradient-34"><stop offset="0%" stop-color="#f8e71c" stop-opacity="1"></stop><stop offset="100%" stop-color="#f5a623" stop-opacity="1"></stop></radialGradient><radialGradient id="delapouite-spy-gradient-35"><stop offset="0%" stop-color="#f8e71c" stop-opacity="1"></stop><stop offset="100%" stop-color="#f5a623" stop-opacity="1"></stop></radialGradient><radialGradient id="delapouite-spy-gradient-36"><stop offset="0%" stop-color="#f8e71c" stop-opacity="1"></stop><stop offset="100%" stop-color="#f5a623" stop-opacity="1"></stop></radialGradient><radialGradient id="delapouite-spy-gradient-37"><stop offset="0%" stop-color="#f8e71c" stop-opacity="1"></stop><stop offset="100%" stop-color="#f5a623" stop-opacity="1"></stop></radialGradient><linearGradient x1="0" x2="1" y1="0" y2="1" id="delapouite-spy-gradient-38"><stop offset="0%" stop-color="#8b7500" stop-opacity="1"></stop><stop offset="100%" stop-color="#c4a504" stop-opacity="1"></stop></linearGradient><linearGradient x1="0" x2="1" y1="0" y2="1" id="delapouite-spy-gradient-39"><stop offset="0%" stop-color="#8b7500" stop-opacity="1"></stop><stop offset="100%" stop-color="#c4a504" stop-opacity="1"></stop></linearGradient><linearGradient x1="0" x2="1" y1="0" y2="1" id="delapouite-spy-gradient-40"><stop offset="0%" stop-color="#8b7500" stop-opacity="1"></stop><stop offset="100%" stop-color="#c4a504" stop-opacity="1"></stop></linearGradient><linearGradient x1="0" x2="1" y1="0" y2="1" id="delapouite-spy-gradient-41"><stop offset="0%" stop-color="#8b7500" stop-opacity="1"></stop><stop offset="100%" stop-color="#c4a504" stop-opacity="1"></stop></linearGradient><linearGradient x1="0" x2="1" y1="0" y2="1" id="delapouite-spy-gradient-42"><stop offset="0%" stop-color="#8b7500" stop-opacity="1"></stop><stop offset="100%" stop-color="#c4a504" stop-opacity="1"></stop></linearGradient><linearGradient x1="0" x2="1" y1="0" y2="1" id="delapouite-spy-gradient-43"><stop offset="0%" stop-color="#8b7500" stop-opacity="1"></stop><stop offset="100%" stop-color="#c4a504" stop-opacity="1"></stop></linearGradient><linearGradient x1="0" x2="1" y1="0" y2="1" id="delapouite-spy-gradient-44"><stop offset="0%" stop-color="#8b7500" stop-opacity="1"></stop><stop offset="100%" stop-color="#c4a504" stop-opacity="1"></stop></linearGradient><linearGradient x1="0" x2="1" y1="0" y2="1" id="delapouite-spy-gradient-45"><stop offset="0%" stop-color="#8b7500" stop-opacity="1"></stop><stop offset="100%" stop-color="#c4a504" stop-opacity="1"></stop></linearGradient><linearGradient x1="0" x2="1" y1="0" y2="1" id="delapouite-spy-gradient-46"><stop offset="0%" stop-color="#8b7500" stop-opacity="1"></stop><stop offset="100%" stop-color="#c4a504" stop-opacity="1"></stop></linearGradient></defs><g class="" transform="translate(0,0)" style=""><g><path d="M218 19C217 19 215.24 19.52 212.498 22.107C209.756 24.696 206.492 29.128 203.307 34.867C196.937 46.345 190.78 62.9 185.641 80.52C181.311 95.364 177.731 110.977 175.025 125.121C229.376 149.14 282.624 149.14 336.975 125.121C334.269 110.977 330.689 95.364 326.359 80.52C321.22 62.9 315.064 46.345 308.693 34.867C305.508 29.128 302.243 24.696 299.502 22.107C296.76 19.52 295 19 294 19C287.5 19 284.908 20.375 283.178 21.85C281.448 23.324 280.158 25.66 278.82 29.19C277.482 32.72 276.423 37.214 273.27 41.973C270.116 46.73 263.367 51 256 51C248.567 51 241.76 46.805 238.545 42.012C235.331 37.218 234.285 32.677 232.969 29.131C231.653 25.585 230.394 23.264 228.715 21.816C227.035 20.37 224.5 19 218 19Z" class="" fill="url(#delapouite-spy-gradient-2)" stroke="#000000" stroke-opacity="1" stroke-width="2"></path><path d="M171.889 143.334C170.479 152.612 169.593 160.494 169.319 165.936C175.929 171.023 187.055 175.943 201.061 179.238C217.18 183.031 236.6 185 256 185C275.4 185 294.82 183.031 310.94 179.238C324.945 175.943 336.07 171.023 342.682 165.936C342.407 160.493 341.521 152.612 340.112 143.334C284.355 166.666 227.645 166.666 171.889 143.334Z" class="" fill="url(#delapouite-spy-gradient-3)" stroke="#000000" stroke-opacity="1" stroke-width="2"></path><path d="M151.945 155.1C132.739 158.46 115.239 162.485 100.027 166.73C80.148 172.278 64.122 178.219 53.482 183.3C48.162 185.842 44.17 188.215 41.988 189.87C41.618 190.15 41.741 190.176 41.543 190.416C41.876 191.093 42.363 191.872 43.273 192.895C45.246 195.111 48.837 197.887 53.9 200.639C64.027 206.143 79.844 211.597 99.625 216.145C139.187 225.24 194.703 231 256 231C317.297 231 372.813 225.24 412.375 216.145C432.155 211.597 447.973 206.143 458.1 200.639C463.163 197.887 466.753 195.111 468.727 192.895C469.637 191.872 470.124 191.093 470.457 190.416C470.259 190.176 470.382 190.15 470.012 189.869C467.83 188.215 463.838 185.842 458.518 183.301C447.878 178.219 431.852 172.278 411.973 166.731C396.761 162.485 379.261 158.459 360.055 155.1C360.663 160.887 361 165.966 361 170L361 173.729L358.363 176.363C348.242 186.485 332.941 192.554 315.061 196.762C297.18 200.969 276.6 203 256 203C235.4 203 214.82 200.969 196.94 196.762C179.059 192.554 163.758 186.485 153.637 176.363L151 173.73L151 170C151 165.966 151.337 160.887 151.945 155.1Z" class="" fill="url(#delapouite-spy-gradient-4)" stroke="#000000" stroke-opacity="1" stroke-width="2"></path><path d="M153.039 243.305C154.558 308.17 200.64 359 256 359C311.36 359 357.442 308.17 358.96 243.305C352.541 244.059 346.112 244.73 339.676 245.318C338.346 250.57 332.792 270.566 324 276C310.39 284.412 289.994 283.756 276 276C268.014 271.574 261.135 256.804 257.936 248.988C257.288 248.99 256.649 249 256 249C255.35 249 254.712 248.99 254.064 248.988C250.864 256.804 243.986 271.574 236 276C222.006 283.756 201.61 284.412 188 276C179.208 270.566 173.654 250.57 172.324 245.318C165.887 244.73 159.458 244.059 153.039 243.305Z" class="" fill="url(#delapouite-spy-gradient-5)" stroke="#000000" stroke-opacity="1" stroke-width="2"></path><path d="M137.4 267.209C89.968 280.439 60.157 299.462 23.854 328.291C66.429 332.733 91.34 349.609 125.119 377.01L142.047 390.742L120.361 392.953C106.698 394.346 91.915 401.575 81.061 410.253C75.136 414.991 70.883 420.313 68.104 424.609C112.784 430.473 141.567 434.695 166.115 444.756C184.718 452.38 200.925 463.646 219.852 480.537L225.156 456.961C223.318 447.227 221.022 437.077 218.277 426.661C213.157 419.431 208.579 411.795 205.141 404.654C201.612 397.326 199 391 199 384C199 380.717 199.936 377.604 201.428 374.867C199.221 369.203 196.906 363.581 194.486 358.004C165.403 338.506 144.269 305.645 137.4 267.209Z" class="" fill="url(#delapouite-spy-gradient-6)" stroke="#000000" stroke-opacity="1" stroke-width="2"></path><path d="M374.6 267.209C367.73 305.645 346.597 338.506 317.514 358.004C315.094 363.58 312.779 369.201 310.572 374.865C312.065 377.602 313 380.716 313 384C313 391 310.388 397.326 306.86 404.654C303.42 411.796 298.841 419.434 293.72 426.664C290.942 437.211 288.621 447.484 286.771 457.33L291.911 480.75C310.941 463.74 327.204 452.412 345.885 444.756C370.433 434.696 399.215 430.473 443.896 424.609C441.116 420.312 436.864 414.991 430.939 410.254C420.085 401.575 405.302 394.346 391.639 392.954L369.953 390.742L386.881 377.01C420.66 349.61 445.571 332.733 488.146 328.291C451.843 299.462 422.032 280.44 374.6 267.209Z" class="selected" fill="url(#delapouite-spy-gradient-7)" stroke="#000000" stroke-opacity="1" stroke-width="2"></path><path d="M256 377C248 377 236.408 377.098 227.766 378.826C223.445 379.69 219.966 381.048 218.373 382.15C216.781 383.253 217 383 217 384C217 385 218.388 390.674 221.36 396.846C224.331 403.018 228.607 410.166 233.324 416.77C238.041 423.374 243.249 429.469 247.789 433.576C251.864 437.263 255.631 438.697 256 438.953C256.37 438.697 260.136 437.263 264.21 433.576C268.75 429.469 273.959 423.374 278.676 416.77C283.393 410.165 287.669 403.018 290.641 396.846C293.612 390.674 295 385 295 384C295 383 295.22 383.253 293.627 382.15C292.034 381.048 288.555 379.69 284.234 378.826C275.592 377.098 264 377 256 377Z" class="" fill="url(#delapouite-spy-gradient-8)" stroke="#000000" stroke-opacity="1" stroke-width="2"></path><path d="M256 438.953C255.958 438.983 255.949 439 256 439C256.051 439 256.042 438.982 256 438.953Z" class="" fill="url(#delapouite-spy-gradient-9)" stroke="#000000" stroke-opacity="1" stroke-width="2"></path><path d="M244.352 453.654L235.047 495L276.607 495L267.549 453.715C264.162 455.71 260.449 457 256 457C251.508 457 247.765 455.684 244.352 453.654Z" class="" fill="url(#delapouite-spy-gradient-10)" stroke="#000000" stroke-opacity="1" stroke-width="2"></path></g></g></svg>