<svg xmlns="http://www.w3.org/2000/svg" viewBox="0 0 512 512" style="height: 512px; width: 512px;"><defs><radialGradient id="gradient-2"><stop offset="0%" stop-color="#ffe0af" stop-opacity="1"></stop><stop offset="100%" stop-color="#fff5e2" stop-opacity="1"></stop></radialGradient><radialGradient id="gradient-3"><stop offset="0%" stop-color="#d0021b" stop-opacity="1"></stop><stop offset="100%" stop-color="#ff001f" stop-opacity="1"></stop></radialGradient><radialGradient id="gradient-4"><stop offset="0%" stop-color="#d0021b" stop-opacity="1"></stop><stop offset="100%" stop-color="#ff001f" stop-opacity="1"></stop></radialGradient><radialGradient id="gradient-5"><stop offset="0%" stop-color="#cd7f32" stop-opacity="1"></stop><stop offset="100%" stop-color="#d2b100" stop-opacity="1"></stop></radialGradient><radialGradient id="gradient-6"><stop offset="0%" stop-color="#cd7f32" stop-opacity="1"></stop><stop offset="100%" stop-color="#d2b100" stop-opacity="1"></stop></radialGradient><radialGradient id="gradient-7"><stop offset="0%" stop-color="#d0021b" stop-opacity="1"></stop><stop offset="100%" stop-color="#4a4a4a" stop-opacity="1"></stop></radialGradient><radialGradient id="gradient-8"><stop offset="0%" stop-color="#d0021b" stop-opacity="1"></stop><stop offset="100%" stop-color="#4a4a4a" stop-opacity="1"></stop></radialGradient><radialGradient id="gradient-9"><stop offset="0%" stop-color="#d0021b" stop-opacity="1"></stop><stop offset="100%" stop-color="#4a4a4a" stop-opacity="1"></stop></radialGradient><radialGradient id="gradient-10"><stop offset="0%" stop-color="#b57204" stop-opacity="1"></stop><stop offset="100%" stop-color="#8b572a" stop-opacity="1"></stop></radialGradient><radialGradient id="gradient-11"><stop offset="0%" stop-color="#b57204" stop-opacity="1"></stop><stop offset="100%" stop-color="#8b572a" stop-opacity="1"></stop></radialGradient><radialGradient id="gradient-12"><stop offset="0%" stop-color="#b57204" stop-opacity="1"></stop><stop offset="100%" stop-color="#8b572a" stop-opacity="1"></stop></radialGradient><radialGradient id="gradient-13"><stop offset="0%" stop-color="#b57204" stop-opacity="1"></stop><stop offset="100%" stop-color="#8b572a" stop-opacity="1"></stop></radialGradient><radialGradient id="gradient-15"><stop offset="0%" stop-color="#f5a623" stop-opacity="1"></stop><stop offset="100%" stop-color="#f8e71c" stop-opacity="1"></stop></radialGradient><radialGradient id="gradient-16"><stop offset="0%" stop-color="#ba6f00" stop-opacity="1"></stop><stop offset="100%" stop-color="#825819" stop-opacity="1"></stop></radialGradient></defs><g class="" transform="translate(-9,0)" style="touch-action: none;"><g><path d="M260.656 18.47C202.762 18.47 157.969 55.078 157.969 97.47C157.969 117.527 167.987 136.29 184.687 150.5L184.687 204.188L207.967 204.188L207.967 148.813L226.655 148.813L226.655 204.188L251 204.188L251 148.813L269.688 148.813L269.688 204.188L293.438 204.188L293.438 148.813L312.125 148.813L312.125 204.188L335.469 204.188L335.469 151.438C352.845 137.118 363.343 117.975 363.343 97.468C363.343 55.082 318.549 18.468 260.655 18.468Z" class="selected" fill="url(#gradient-2)" stroke="#000000" stroke-opacity="1" stroke-width="3"></path><path d="M218.219 68.47C235.363 68.47 249.062 82.136 249.062 99.28C249.062 116.42 235.362 130.125 218.218 130.125C201.073 130.125 187.373 116.421 187.373 99.281C187.373 82.141 201.073 68.471 218.217 68.471Z" class="" fill="url(#gradient-3)" stroke="#000000" stroke-opacity="1" stroke-width="3"></path><path d="M300.843 68.47C317.988 68.47 331.655 82.136 331.655 99.28C331.655 116.42 317.987 130.125 300.843 130.125C283.7 130.125 270 116.42 270 99.28C270 82.14 283.7 68.47 300.844 68.47Z" class="" fill="url(#gradient-4)" stroke="#000000" stroke-opacity="1" stroke-width="3"></path><path d="M142.188 119C93.368 154.525 61.625 212.098 61.625 277.094C61.625 332.161 84.412 381.894 121.063 417.406C125.406 403.756 135.171 392.468 147.813 386.126C120.271 358.329 103.25 320.099 103.25 277.876C103.25 228.229 126.78 184.084 163.28 155.969C153.294 145.222 145.967 132.704 142.187 118.999Z" class="" fill="url(#gradient-5)" stroke="#000000" stroke-opacity="1" stroke-width="3"></path><path d="M377.75 123.438C373.238 136.796 365.34 148.904 354.875 159.218C389.06 187.422 410.845 230.093 410.845 277.875C410.845 320.505 393.488 359.078 365.469 386.938C377.879 393.691 387.304 405.298 391.186 419.156C428.898 383.54 452.436 333.066 452.436 277.094C452.436 214.742 423.223 159.216 377.749 123.438Z" class="" fill="url(#gradient-6)" stroke="#000000" stroke-opacity="1" stroke-width="3"></path><path d="M171.312 399.25C152.409 399.25 137.282 414.38 137.282 433.28C137.282 452.182 152.408 467.313 171.312 467.313C190.217 467.313 205.344 452.183 205.344 433.281C205.344 414.378 190.217 399.251 171.314 399.251Z" class="" fill="url(#gradient-7)" stroke="#000000" stroke-opacity="1" stroke-width="3"></path><path d="M340.406 399.25C321.503 399.25 306.376 414.38 306.376 433.28C306.376 452.182 321.502 467.313 340.406 467.313C359.311 467.313 374.436 452.183 374.436 433.281C374.438 414.378 359.311 399.251 340.406 399.251Z" class="" fill="url(#gradient-8)" stroke="#000000" stroke-opacity="1" stroke-width="3"></path><path d="M257.186 425.406C238.284 425.406 223.156 440.536 223.156 459.436C223.156 478.338 238.283 493.469 257.186 493.469C276.092 493.469 291.188 478.337 291.188 459.436C291.188 440.532 276.092 425.406 257.188 425.406Z" class="" fill="url(#gradient-9)" stroke="#000000" stroke-opacity="1" stroke-width="3"></path></g></g></svg>