<svg xmlns="http://www.w3.org/2000/svg" viewBox="0 0 512 512" style="height: 512px; width: 512px;"><defs><linearGradient x1="0" x2="1" y1="0" y2="1" id="lorc-water-splash-gradient-1"><stop offset="0%" stop-color="#d0021b" stop-opacity="1"></stop><stop offset="100%" stop-color="#fa95a1" stop-opacity="1"></stop></linearGradient><radialGradient id="lorc-water-splash-gradient-2"><stop offset="0%" stop-color="#f5a623" stop-opacity="1"></stop><stop offset="100%" stop-color="#b57204" stop-opacity="1"></stop></radialGradient><linearGradient x1="0" x2="1" y1="0" y2="1" id="lorc-water-splash-gradient-3"><stop offset="0%" stop-color="#f5a623" stop-opacity="1"></stop><stop offset="100%" stop-color="#b57204" stop-opacity="1"></stop></linearGradient><radialGradient id="lorc-water-splash-gradient-4"><stop offset="0%" stop-color="#b57204" stop-opacity="1"></stop><stop offset="100%" stop-color="#8b572a" stop-opacity="1"></stop></radialGradient><radialGradient id="lorc-water-splash-gradient-5"><stop offset="0%" stop-color="#f5a623" stop-opacity="1"></stop><stop offset="100%" stop-color="#b57204" stop-opacity="1"></stop></radialGradient><radialGradient id="lorc-water-splash-gradient-6"><stop offset="0%" stop-color="#f5a623" stop-opacity="1"></stop><stop offset="100%" stop-color="#492403" stop-opacity="1"></stop></radialGradient><linearGradient x1="0" x2="0" y1="0" y2="1" id="lorc-water-splash-gradient-7"><stop offset="0%" stop-color="#8b572a" stop-opacity="1"></stop><stop offset="100%" stop-color="#b57204" stop-opacity="1"></stop></linearGradient><linearGradient x1="0" x2="0" y1="0" y2="1" id="lorc-water-splash-gradient-8"><stop offset="0%" stop-color="#f8e71c" stop-opacity="1"></stop><stop offset="100%" stop-color="#f5a623" stop-opacity="1"></stop></linearGradient><radialGradient id="lorc-water-splash-gradient-9"><stop offset="0%" stop-color="#f8e71c" stop-opacity="1"></stop><stop offset="100%" stop-color="#f5a623" stop-opacity="1"></stop></radialGradient><radialGradient id="lorc-water-splash-gradient-17"><stop offset="0%" stop-color="#ffe0af" stop-opacity="1"></stop><stop offset="100%" stop-color="#e2c093" stop-opacity="1"></stop></radialGradient><radialGradient id="lorc-water-splash-gradient-18"><stop offset="0%" stop-color="#d0021b" stop-opacity="1"></stop><stop offset="100%" stop-color="#a50215" stop-opacity="1"></stop></radialGradient><radialGradient id="lorc-water-splash-gradient-19"><stop offset="0%" stop-color="#ffe0af" stop-opacity="1"></stop><stop offset="100%" stop-color="#e2c093" stop-opacity="1"></stop></radialGradient><radialGradient id="lorc-water-splash-gradient-20"><stop offset="0%" stop-color="#ffe0af" stop-opacity="1"></stop><stop offset="100%" stop-color="#e2c093" stop-opacity="1"></stop></radialGradient><radialGradient id="lorc-water-splash-gradient-22"><stop offset="0%" stop-color="#fc88fc" stop-opacity="1"></stop><stop offset="100%" stop-color="#bd10e0" stop-opacity="1"></stop></radialGradient><radialGradient id="lorc-water-splash-gradient-25"><stop offset="0%" stop-color="#9b9b9b" stop-opacity="1"></stop><stop offset="100%" stop-color="#4a4a4a" stop-opacity="1"></stop></radialGradient><radialGradient id="lorc-water-splash-gradient-26"><stop offset="0%" stop-color="#9b9b9b" stop-opacity="1"></stop><stop offset="100%" stop-color="#4a4a4a" stop-opacity="1"></stop></radialGradient><radialGradient id="lorc-water-splash-gradient-27"><stop offset="0%" stop-color="#9b9b9b" stop-opacity="1"></stop><stop offset="100%" stop-color="#4a4a4a" stop-opacity="1"></stop></radialGradient><radialGradient id="lorc-water-splash-gradient-28"><stop offset="0%" stop-color="#9b9b9b" stop-opacity="1"></stop><stop offset="100%" stop-color="#4a4a4a" stop-opacity="1"></stop></radialGradient><radialGradient id="lorc-water-splash-gradient-29"><stop offset="0%" stop-color="#9b9b9b" stop-opacity="1"></stop><stop offset="100%" stop-color="#4a4a4a" stop-opacity="1"></stop></radialGradient><radialGradient id="lorc-water-splash-gradient-30"><stop offset="0%" stop-color="#9b9b9b" stop-opacity="1"></stop><stop offset="100%" stop-color="#4a4a4a" stop-opacity="1"></stop></radialGradient><radialGradient id="lorc-water-splash-gradient-31"><stop offset="0%" stop-color="#9b9b9b" stop-opacity="1"></stop><stop offset="100%" stop-color="#4a4a4a" stop-opacity="1"></stop></radialGradient><radialGradient id="lorc-water-splash-gradient-32"><stop offset="0%" stop-color="#9b9b9b" stop-opacity="1"></stop><stop offset="100%" stop-color="#4a4a4a" stop-opacity="1"></stop></radialGradient><radialGradient id="lorc-water-splash-gradient-33"><stop offset="0%" stop-color="#9b9b9b" stop-opacity="1"></stop><stop offset="100%" stop-color="#4a4a4a" stop-opacity="1"></stop></radialGradient><radialGradient id="lorc-water-splash-gradient-34"><stop offset="0%" stop-color="#9b9b9b" stop-opacity="1"></stop><stop offset="100%" stop-color="#4a4a4a" stop-opacity="1"></stop></radialGradient><radialGradient id="lorc-water-splash-gradient-35"><stop offset="0%" stop-color="#9b9b9b" stop-opacity="1"></stop><stop offset="100%" stop-color="#4a4a4a" stop-opacity="1"></stop></radialGradient><radialGradient id="lorc-water-splash-gradient-36"><stop offset="0%" stop-color="#9b9b9b" stop-opacity="1"></stop><stop offset="100%" stop-color="#4a4a4a" stop-opacity="1"></stop></radialGradient><radialGradient id="lorc-water-splash-gradient-37"><stop offset="0%" stop-color="#9b9b9b" stop-opacity="1"></stop><stop offset="100%" stop-color="#4a4a4a" stop-opacity="1"></stop></radialGradient></defs><g class="" transform="translate(0,0)" style=""><g><path d="M163.53 21.28C159.268 21.322 155.128 22.598 151.594 25.062C136.984 35.25 129.86 66.567 162.624 95.032C161.75 117.887 204.41 122.022 187.469 88.375C202.844 43.657 182.004 21.105 163.529 21.281Z" class="" fill="url(#lorc-water-splash-gradient-2)" stroke="#000000" stroke-opacity="1" stroke-width="2"></path><path d="M418.78 30.844C412.587 30.852 405.783 33.728 402 39.469C378.85 74.591 403.875 92.485 427.875 54.405C437.738 38.755 429.105 30.83 418.781 30.843Z" class="" fill="url(#lorc-water-splash-gradient-3)" stroke="#000000" stroke-opacity="1" stroke-width="2"></path><path d="M377.063 94.312C313.643 151.195 266.033 232.747 129.375 175.25C147.953 228.742 122.607 246.34 98.062 251.53C89.216 245.426 80.559 237.337 72.688 227.25L53.406 202.53L56.031 233.78C61.165 295.345 83.607 340.834 120.813 370.156C158.02 399.478 208.959 412.376 270.063 412.376C365.451 412.376 451.833 351.471 483.626 264.376L488.97 249.719L473.562 251.905C468.222 252.662 464.022 252.449 460.75 251.625L492.438 191.468C478.114 197.603 463.083 205.061 448.468 211.718C450.198 198.394 454.218 181.578 461.188 161.436L471.5 131.561L446.594 151C421.131 170.87 393.754 194.613 366.814 214.25C357.866 196.388 359.188 160.175 377.062 94.312Z" class="" fill="url(#lorc-water-splash-gradient-4)" stroke="#000000" stroke-opacity="1" stroke-width="2"></path><path d="M33.188 139.906C24.31 139.899 15.176 151.372 17.5 162.594C23.656 192.322 53.294 183.784 46.344 154.844C43.751 144.049 38.514 139.91 33.187 139.906Z" class="" fill="url(#lorc-water-splash-gradient-5)" stroke="#000000" stroke-opacity="1" stroke-width="2"></path><path d="M434.531 184.812C428.318 208.944 426.856 227.846 430.595 242.656C433.168 252.849 438.853 261.361 447.157 266.156C451.247 268.516 455.737 269.959 460.532 270.626C430.632 291.329 387.01 277.236 407.002 223.906C321.814 338.551 233.295 350.242 204.846 263.031C190.233 349.661 99.518 330.493 79.096 260.689C101.106 278.989 126.394 287.513 149.752 282.939C165.405 279.873 179.729 270.545 190.002 255.501C195.992 246.731 200.624 236.037 203.815 223.501C216.823 245.233 231.817 259.303 248.627 266.595C271.547 276.537 296.354 273.208 320.315 263.375C359.521 247.289 398.672 214.231 434.533 184.813Z" class="selected" fill="url(#lorc-water-splash-gradient-6)" stroke="#000000" stroke-opacity="1" stroke-width="2"></path><path d="M428.531 364.5C439.927 372.138 446.626 380.712 446.626 389.625C446.626 422.397 361.056 449.188 256.251 449.188C151.447 449.188 66.438 422.398 66.438 389.625C66.438 380.98 72.608 372.525 83.376 365.095C43.576 378.393 18.532 396.315 18.532 415.905C18.532 456.925 125.079 490.063 256.252 490.063C387.425 490.063 493.94 456.926 493.94 415.906C493.94 396.113 469.048 377.868 428.533 364.5Z" class="" fill="url(#lorc-water-splash-gradient-7)" stroke="#000000" stroke-opacity="1" stroke-width="2"></path></g></g></svg>