<svg xmlns="http://www.w3.org/2000/svg" viewBox="0 0 512 512" style="height: 512px; width: 512px;"><defs><radialGradient id="gradient-2"><stop offset="0%" stop-color="#f8e71c" stop-opacity="1"></stop><stop offset="100%" stop-color="#f5a623" stop-opacity="1"></stop></radialGradient><radialGradient id="gradient-3"><stop offset="0%" stop-color="#b57204" stop-opacity="1"></stop><stop offset="100%" stop-color="#8b572a" stop-opacity="1"></stop></radialGradient><radialGradient id="gradient-4"><stop offset="0%" stop-color="#b57204" stop-opacity="1"></stop><stop offset="100%" stop-color="#8b572a" stop-opacity="1"></stop></radialGradient><radialGradient id="gradient-5"><stop offset="0%" stop-color="#c9c9c9" stop-opacity="1"></stop><stop offset="100%" stop-color="#9b9b9b" stop-opacity="1"></stop></radialGradient><radialGradient id="gradient-7"><stop offset="0%" stop-color="#c9c9c9" stop-opacity="1"></stop><stop offset="100%" stop-color="#9b9b9b" stop-opacity="1"></stop></radialGradient><radialGradient id="gradient-8"><stop offset="0%" stop-color="#f8e71c" stop-opacity="1"></stop><stop offset="100%" stop-color="#f5a623" stop-opacity="1"></stop></radialGradient><radialGradient id="gradient-9"><stop offset="0%" stop-color="#f8e71c" stop-opacity="1"></stop><stop offset="100%" stop-color="#f5a623" stop-opacity="1"></stop></radialGradient><radialGradient id="gradient-10"><stop offset="0%" stop-color="#c9c9c9" stop-opacity="1"></stop><stop offset="100%" stop-color="#9b9b9b" stop-opacity="1"></stop></radialGradient><radialGradient id="gradient-11"><stop offset="0%" stop-color="#b57204" stop-opacity="1"></stop><stop offset="100%" stop-color="#8b572a" stop-opacity="1"></stop></radialGradient><radialGradient id="gradient-12"><stop offset="0%" stop-color="#b57204" stop-opacity="1"></stop><stop offset="100%" stop-color="#8b572a" stop-opacity="1"></stop></radialGradient><radialGradient id="gradient-13"><stop offset="0%" stop-color="#b57204" stop-opacity="1"></stop><stop offset="100%" stop-color="#8b572a" stop-opacity="1"></stop></radialGradient><radialGradient id="gradient-14"><stop offset="0%" stop-color="#b57204" stop-opacity="1"></stop><stop offset="100%" stop-color="#8b572a" stop-opacity="1"></stop></radialGradient><radialGradient id="gradient-15"><stop offset="0%" stop-color="#b57204" stop-opacity="1"></stop><stop offset="100%" stop-color="#8b572a" stop-opacity="1"></stop></radialGradient><radialGradient id="gradient-16"><stop offset="0%" stop-color="#b57204" stop-opacity="1"></stop><stop offset="100%" stop-color="#8b572a" stop-opacity="1"></stop></radialGradient><radialGradient id="gradient-17"><stop offset="0%" stop-color="#b57204" stop-opacity="1"></stop><stop offset="100%" stop-color="#8b572a" stop-opacity="1"></stop></radialGradient><radialGradient id="gradient-18"><stop offset="0%" stop-color="#c9c9c9" stop-opacity="1"></stop><stop offset="100%" stop-color="#9b9b9b" stop-opacity="1"></stop></radialGradient><radialGradient id="gradient-19"><stop offset="0%" stop-color="#f8e71c" stop-opacity="1"></stop><stop offset="100%" stop-color="#f5a623" stop-opacity="1"></stop></radialGradient><radialGradient id="gradient-20"><stop offset="0%" stop-color="#f8e71c" stop-opacity="1"></stop><stop offset="100%" stop-color="#f5a623" stop-opacity="1"></stop></radialGradient><radialGradient id="gradient-21"><stop offset="0%" stop-color="#f8e71c" stop-opacity="1"></stop><stop offset="100%" stop-color="#f5a623" stop-opacity="1"></stop></radialGradient><radialGradient id="gradient-22"><stop offset="0%" stop-color="#f8e71c" stop-opacity="1"></stop><stop offset="100%" stop-color="#f5a623" stop-opacity="1"></stop></radialGradient><radialGradient id="gradient-23"><stop offset="0%" stop-color="#f8e71c" stop-opacity="1"></stop><stop offset="100%" stop-color="#f5a623" stop-opacity="1"></stop></radialGradient><radialGradient id="gradient-24"><stop offset="0%" stop-color="#f8e71c" stop-opacity="1"></stop><stop offset="100%" stop-color="#f5a623" stop-opacity="1"></stop></radialGradient><radialGradient id="gradient-25"><stop offset="0%" stop-color="#f8e71c" stop-opacity="1"></stop><stop offset="100%" stop-color="#f5a623" stop-opacity="1"></stop></radialGradient><radialGradient id="gradient-26"><stop offset="0%" stop-color="#f8e71c" stop-opacity="1"></stop><stop offset="100%" stop-color="#f5a623" stop-opacity="1"></stop></radialGradient><radialGradient id="gradient-27"><stop offset="0%" stop-color="#f8e71c" stop-opacity="1"></stop><stop offset="100%" stop-color="#f5a623" stop-opacity="1"></stop></radialGradient><radialGradient id="gradient-28"><stop offset="0%" stop-color="#f8e71c" stop-opacity="1"></stop><stop offset="100%" stop-color="#f5a623" stop-opacity="1"></stop></radialGradient><radialGradient id="gradient-29"><stop offset="0%" stop-color="#f8e71c" stop-opacity="1"></stop><stop offset="100%" stop-color="#f5a623" stop-opacity="1"></stop></radialGradient><radialGradient id="gradient-30"><stop offset="0%" stop-color="#f8e71c" stop-opacity="1"></stop><stop offset="100%" stop-color="#f5a623" stop-opacity="1"></stop></radialGradient><radialGradient id="gradient-31"><stop offset="0%" stop-color="#f8e71c" stop-opacity="1"></stop><stop offset="100%" stop-color="#f5a623" stop-opacity="1"></stop></radialGradient><radialGradient id="gradient-32"><stop offset="0%" stop-color="#f8e71c" stop-opacity="1"></stop><stop offset="100%" stop-color="#f5a623" stop-opacity="1"></stop></radialGradient><radialGradient id="gradient-33"><stop offset="0%" stop-color="#7ed321" stop-opacity="1"></stop><stop offset="100%" stop-color="#417505" stop-opacity="1"></stop></radialGradient><radialGradient id="gradient-34"><stop offset="0%" stop-color="#f8e71c" stop-opacity="1"></stop><stop offset="100%" stop-color="#f5a623" stop-opacity="1"></stop></radialGradient><radialGradient id="gradient-35"><stop offset="0%" stop-color="#f8e71c" stop-opacity="1"></stop><stop offset="100%" stop-color="#f5a623" stop-opacity="1"></stop></radialGradient><radialGradient id="gradient-36"><stop offset="0%" stop-color="#f8e71c" stop-opacity="1"></stop><stop offset="100%" stop-color="#f5a623" stop-opacity="1"></stop></radialGradient></defs><g class="" transform="translate(-4,2)" style="touch-action: none;"><g><path d="M201 49L201 79L311 79L311 49L201 49Z" class="" fill="url(#gradient-2)" stroke="#000000" stroke-opacity="1" stroke-width="3"></path><path d="M183 55.41C152.4 58.19 128.5 75 112.7 96.71C96.84 118.6 88.46 145.2 87.19 169.5C89.76 168 92.76 167 96 167C99.41 167 102.6 168.1 105.2 169.8C106.5 149.1 114 125.6 127.3 107.3C140.4 89.24 158.6 76.08 183 73.48L183 55.41Z" class="" fill="url(#gradient-3)" stroke="#000000" stroke-opacity="1" stroke-width="3"></path><path d="M329 55.41L329 73.48C353.4 76.08 371.6 89.24 384.7 107.3C398 125.6 405.5 149.1 406.8 169.8C409.4 168.1 412.6 167 416 167C419.2 167 422.2 168 424.8 169.5C423.5 145.2 415.2 118.5 399.3 96.71C383.5 75 359.6 58.19 329 55.41Z" class="" fill="url(#gradient-4)" stroke="#000000" stroke-opacity="1" stroke-width="3"></path><path d="M256 137C212.5 137 173.2 142.4 145.4 150.7C131.6 154.8 120.6 159.8 113.8 164.7C110.5 167 108.3 169.1 107 171C107.5 171.4 107.9 171.8 108.4 172.2C110.5 174.2 112.2 176.5 113.6 179C126 171.6 140.8 165.9 157.1 161.3C186.6 153 221.3 149 256 149C290.7 149 325.4 153 354.9 161.3C371.2 165.9 386 171.6 398.4 179C399.8 176.5 401.5 174.2 403.6 172.2C404.1 171.8 404.5 171.4 405 171C403.7 169.1 401.5 167 398.2 164.7C391.4 159.8 380.4 154.8 366.6 150.7C338.8 142.4 299.5 137 256 137Z" class="" fill="url(#gradient-5)" stroke="#000000" stroke-opacity="1" stroke-width="3"></path><path d="M256 167C222.7 167 189.4 171 161.9 178.7C147.7 182.7 135.1 187.8 124.9 193.6C130.7 196.3 137.6 199 145.4 201.3C173.2 209.6 212.5 215 256 215C299.5 215 338.8 209.6 366.6 201.3C374.4 199 381.3 196.3 387.1 193.6C376.9 187.8 364.3 182.7 350.1 178.7C322.6 171 289.3 167 256 167Z" class="selected" fill="#ffe0af" fill-opacity="0"></path><path d="M96 185.3L96.03 185.3L96 185.3Z" class="" fill="url(#gradient-7)" stroke="#000000" stroke-opacity="1" stroke-width="3"></path><path d="M96 185.3C95.94 185.3 95.93 185.3 95.93 185.4C95.21 186 93.99 187.7 92.89 190.1C90.7 195 89 202.8 89 211.5C89 220.2 90.7 228 92.86 232.9C93.96 235.3 95.18 237 95.9 237.6L96 237.7C96.1 237.7 96.1 237.7 96.1 237.6C96.82 237 98.04 235.3 99.14 232.9C101.3 228 103 220.2 103 211.5C103 202.8 101.3 195 99.14 190.1C98.04 187.7 96.82 186 96.1 185.4L96 185.3Z" class="" fill="url(#gradient-8)" stroke="#000000" stroke-opacity="1" stroke-width="3"></path><path d="M416 185.3L415.9 185.4C415.2 186 414 187.7 412.9 190.1C410.7 195 409 202.8 409 211.5C409 220.2 410.7 228 412.9 232.9C414 235.3 415.2 237 415.9 237.6L416 237.7L416.1 237.6C416.8 237 418 235.3 419.1 232.9C421.3 228 423 220.2 423 211.5C423 202.8 421.3 195 419.1 190.1C418 187.7 416.8 186 416.1 185.4L416 185.3Z" class="" fill="url(#gradient-9)" stroke="#000000" stroke-opacity="1" stroke-width="3"></path><path d="M121 211.6C121 217.1 120.5 222.4 119.5 227.3C152.2 242.3 204.2 251 256 251C307.8 251 359.8 242.3 392.5 227.3C391.5 222.4 391 217.1 391 211.6C385.2 214.1 378.8 216.5 371.7 218.6C341.6 227.6 300.9 233 256 233C211.1 233 170.4 227.6 140.3 218.6C133.2 216.5 126.8 214.1 121 211.6Z" class="" fill="url(#gradient-10)" stroke="#000000" stroke-opacity="1" stroke-width="3"></path><path d="M113.4 244.5C112.8 245.4 112.2 246.4 111.6 247.2L129.3 398.2C136 401.2 142.9 403.9 150 406.3L136.1 253.2C128.1 250.7 120.4 247.7 113.4 244.5Z" class="" fill="url(#gradient-11)" stroke="#000000" stroke-opacity="1" stroke-width="3"></path><path d="M398.6 244.5C391.8 247.6 384.4 250.5 376.5 253L366.3 361.4C375.4 360.1 381.5 356.1 388.3 350.9L400.5 247.2C399.8 246.4 399.2 245.4 398.6 244.5Z" class="" fill="url(#gradient-12)" stroke="#000000" stroke-opacity="1" stroke-width="3"></path><path d="M357.9 258.2C343.7 261.7 328.4 264.2 312.5 266L305.2 419.2C318.2 417.3 331 414.7 343.4 411.4L357.9 258.2Z" class="" fill="url(#gradient-13)" stroke="#000000" stroke-opacity="1" stroke-width="3"></path><path d="M154.7 258.4L159.4 310.1C173.9 315.7 197.6 319.1 215 318.7L215 267.4C193.8 265.8 173.4 262.8 154.7 258.4Z" class="" fill="url(#gradient-14)" stroke="#000000" stroke-opacity="1" stroke-width="3"></path><path d="M294.4 267.6C281.8 268.6 268.9 269 256 269C248.3 269 240.6 268.8 233 268.5L233 422.2C251.1 423.3 269.2 423 287.1 421.3L294.4 267.6Z" class="" fill="url(#gradient-15)" stroke="#000000" stroke-opacity="1" stroke-width="3"></path><path d="M161.3 330.1L168.7 411.9C183.8 416 199.3 418.9 215 420.7L215 336.8C198.2 337.5 178.2 335.5 161.3 330.1Z" class="" fill="url(#gradient-16)" stroke="#000000" stroke-opacity="1" stroke-width="3"></path><path d="M385.6 373.7C379.6 376.7 372.7 379 364.5 379.7L362 405.8C369.1 403.4 376 400.8 382.7 398L385.6 373.7Z" class="" fill="url(#gradient-17)" stroke="#000000" stroke-opacity="1" stroke-width="3"></path><path d="M380.3 418.4C305 447.4 210.5 449.9 131.7 418.7L136.6 460.4C143.1 468.5 158.5 476.9 179.3 482.3C201.3 488 228.6 491 256 491C283.4 491 310.7 488 332.7 482.3C353.5 476.9 368.9 468.5 375.4 460.4L375.8 457C374 458.497 371.875 459.298 369.7 459.3C363.696 459.314 358.818 453.361 358.8 446C358.818 438.639 363.696 432.686 369.7 432.7C372.944 432.685 376.024 434.445 378.1 437.5L380.3 418.4Z" class="" fill="url(#gradient-18)" stroke="#000000" stroke-opacity="1" stroke-width="3"></path><path d="M153.8 435.8C159.804 435.786 164.682 441.739 164.7 449.1C164.682 456.461 159.804 462.414 153.8 462.4C147.796 462.414 142.918 456.461 142.9 449.1C142.918 441.739 147.796 435.786 153.8 435.8Z" class="" fill="url(#gradient-19)" stroke="#000000" stroke-opacity="1" stroke-width="3"></path><path d="M321.3 447.1C327.304 447.086 332.182 453.039 332.2 460.4C332.182 467.761 327.304 473.714 321.3 473.7C315.296 473.714 310.418 467.761 310.4 460.4C310.418 453.039 315.296 447.086 321.3 447.1Z" class="" fill="url(#gradient-20)" stroke="#000000" stroke-opacity="1" stroke-width="3"></path><path d="M198.1 447.8C204.104 447.786 208.982 453.739 209 461.1C208.982 468.461 204.104 474.414 198.1 474.4C192.096 474.414 187.218 468.461 187.2 461.1C187.218 453.739 192.096 447.786 198.1 447.8Z" class="" fill="url(#gradient-21)" stroke="#000000" stroke-opacity="1" stroke-width="3"></path><path d="M261.3 452.7C267.304 452.686 272.182 458.639 272.2 466C272.182 473.361 267.304 479.314 261.3 479.3C255.296 479.314 250.418 473.361 250.4 466C250.418 458.639 255.296 452.686 261.3 452.7Z" class="" fill="url(#gradient-22)" stroke="#000000" stroke-opacity="1" stroke-width="3"></path></g></g></svg>