<svg xmlns="http://www.w3.org/2000/svg" viewBox="0 0 512 512" style="height: 512px; width: 512px;"><defs><radialGradient id="delapouite-stone-pile-gradient-2"><stop offset="0%" stop-color="#af5b46" stop-opacity="1"></stop><stop offset="100%" stop-color="#964733" stop-opacity="1"></stop></radialGradient><radialGradient id="delapouite-stone-pile-gradient-3"><stop offset="0%" stop-color="#af5b46" stop-opacity="1"></stop><stop offset="100%" stop-color="#964733" stop-opacity="1"></stop></radialGradient><linearGradient x1="0" x2="1" y1="1" y2="0" id="delapouite-stone-pile-gradient-4"><stop offset="0%" stop-color="#df765c" stop-opacity="1"></stop><stop offset="100%" stop-color="#a33a1f" stop-opacity="1"></stop></linearGradient><radialGradient id="delapouite-stone-pile-gradient-5"><stop offset="0%" stop-color="#af5b46" stop-opacity="1"></stop><stop offset="100%" stop-color="#964733" stop-opacity="1"></stop></radialGradient><linearGradient x1="0" x2="1" y1="0" y2="1" id="delapouite-stone-pile-gradient-6"><stop offset="0%" stop-color="#af5b46" stop-opacity="1"></stop><stop offset="100%" stop-color="#964733" stop-opacity="1"></stop></linearGradient><radialGradient id="delapouite-stone-pile-gradient-7"><stop offset="0%" stop-color="#af5b46" stop-opacity="1"></stop><stop offset="100%" stop-color="#964733" stop-opacity="1"></stop></radialGradient><linearGradient x1="0" x2="0" y1="0" y2="1" id="delapouite-stone-pile-gradient-8"><stop offset="0%" stop-color="#af5b46" stop-opacity="1"></stop><stop offset="100%" stop-color="#964733" stop-opacity="1"></stop></linearGradient><linearGradient x1="0" x2="1" y1="1" y2="0" id="delapouite-stone-pile-gradient-9"><stop offset="0%" stop-color="#df765c" stop-opacity="1"></stop><stop offset="100%" stop-color="#a33a1f" stop-opacity="1"></stop></linearGradient><linearGradient id="delapouite-stone-pile-gradient-10"><stop offset="0%" stop-color="#af5b46" stop-opacity="1"></stop><stop offset="100%" stop-color="#964733" stop-opacity="1"></stop></linearGradient><radialGradient id="delapouite-stone-pile-gradient-11"><stop offset="0%" stop-color="#48baff" stop-opacity="1"></stop><stop offset="100%" stop-color="#4a90e2" stop-opacity="1"></stop></radialGradient><radialGradient id="delapouite-stone-pile-gradient-12"><stop offset="0%" stop-color="#48baff" stop-opacity="1"></stop><stop offset="100%" stop-color="#4a90e2" stop-opacity="1"></stop></radialGradient><radialGradient id="delapouite-stone-pile-gradient-13"><stop offset="0%" stop-color="#48baff" stop-opacity="1"></stop><stop offset="100%" stop-color="#4a90e2" stop-opacity="1"></stop></radialGradient><radialGradient id="delapouite-stone-pile-gradient-14"><stop offset="0%" stop-color="#48baff" stop-opacity="1"></stop><stop offset="100%" stop-color="#4a90e2" stop-opacity="1"></stop></radialGradient><radialGradient id="delapouite-stone-pile-gradient-15"><stop offset="0%" stop-color="#48baff" stop-opacity="1"></stop><stop offset="100%" stop-color="#4a90e2" stop-opacity="1"></stop></radialGradient><radialGradient id="delapouite-stone-pile-gradient-16"><stop offset="0%" stop-color="#48baff" stop-opacity="1"></stop><stop offset="100%" stop-color="#4a90e2" stop-opacity="1"></stop></radialGradient></defs><g class="" transform="translate(0,0)" style=""><g transform="translate(0, 0) scale(1, 1) rotate(-375, 256, 256) skewX(0) skewY(0)"><path d="M317.727 108.904L222.535 205.496L195.605 292.311L213.145 329.034L233.562 338.321L266.744 283.239L278.041 279.629L339.791 306.479L360.051 293.481L364.521 249.781L375.941 303.415L365.319 317.577L369.091 319.217L374.329 325.717L381.161 360.06L437.138 293.285L451.118 293.515L473.515 322.09L464.062 269.846L434.01 166.81L317.73 108.904Z" class="" fill="url(#delapouite-stone-pile-gradient-2)" stroke="#010000" stroke-opacity="1" stroke-width="2"></path><path d="M123.61 120.896L94.08 173L89.477 200.62L115.457 192.178L127.161 199.555L127.245 200.189L155.54 260.054L169.313 255.511L180.253 260.179L184.175 268.389L203.692 205.472L202.618 172.136L162.468 171.614L132.736 147.834L166.796 158.722L209.286 150.995L235.32 166.875L271.602 130.06C268.825 128.88 265.987 127.704 263.022 126.54L183.442 136.666L179.914 136.416L123.607 120.896Z" class="" fill="url(#delapouite-stone-pile-gradient-3)" stroke="#000000" stroke-opacity="1" stroke-width="2"></path><path d="M372.94 157.318L419.998 223.338L422.105 285.848L396.822 226.15L331.5 165.746L372.94 157.318Z" class="" fill="url(#delapouite-stone-pile-gradient-4)" stroke="#000000" stroke-opacity="1" stroke-width="2"></path><path d="M110.74 212.638L46.506 233.514L29.796 312.066L80.59 317.648L81.186 310.508L118.848 273.801L110.74 212.641Z" class="" fill="url(#delapouite-stone-pile-gradient-5)" stroke="#000000" stroke-opacity="1" stroke-width="2"></path><path d="M167.428 275.088L130.988 287.104L99.344 317.944L121.932 348.811L179.258 350.551L195.758 334.391L167.428 275.089Z" class="" fill="url(#delapouite-stone-pile-gradient-6)" stroke="#000000" stroke-opacity="1" stroke-width="2"></path><path d="M278.094 299.278L233.787 372.824L233.754 429.964L331.018 442.18L375.26 422.652L357.594 333.846L278.094 299.279Z" class="" fill="url(#delapouite-stone-pile-gradient-7)" stroke="#000000" stroke-opacity="1" stroke-width="2"></path><path d="M443.8 313.36L396.957 369.236L397.244 371.01L462.391 384.897L488.171 369.971L443.801 313.358Z" class="" fill="url(#delapouite-stone-pile-gradient-8)" stroke="#000000" stroke-opacity="1" stroke-width="2"></path><path d="M305.418 329.25L344.648 352.092L358.058 402.75L331.238 426.588L286.223 424.035L324.785 395.793L327.268 356.563L305.418 329.251Z" class="selected" fill="url(#delapouite-stone-pile-gradient-9)" stroke="#000000" stroke-opacity="1" stroke-width="2"></path><path d="M67.048 383.088L58.278 411.598L71.43 460.096L162.467 448.186L163.787 421.768L101.205 389.773L67.049 383.089Z" class="" fill="url(#delapouite-stone-pile-gradient-10)" stroke="#000000" stroke-opacity="1" stroke-width="2"></path></g></g></svg>