<svg xmlns="http://www.w3.org/2000/svg" viewBox="0 0 512 512" style="height: 512px; width: 512px;"><defs><linearGradient x1="0" x2="1" y1="0" y2="1" id="lorc-saphir-gradient-1"><stop offset="0%" stop-color="#4a90e2" stop-opacity="1"></stop><stop offset="100%" stop-color="#011f43" stop-opacity="1"></stop></linearGradient><linearGradient x1="0" x2="1" y1="0" y2="1" id="lorc-saphir-gradient-2"><stop offset="0%" stop-color="#f8e71c" stop-opacity="1"></stop><stop offset="100%" stop-color="#d0021b" stop-opacity="1"></stop></linearGradient><linearGradient x1="0" x2="1" y1="0" y2="1" id="lorc-saphir-gradient-3"><stop offset="0%" stop-color="#f8e71c" stop-opacity="1"></stop><stop offset="100%" stop-color="#d0021b" stop-opacity="1"></stop></linearGradient><linearGradient x1="0" x2="1" y1="1" y2="0" id="lorc-saphir-gradient-4"><stop offset="0%" stop-color="#000000" stop-opacity="1"></stop><stop offset="100%" stop-color="#d0021b" stop-opacity="1"></stop></linearGradient><linearGradient x1="0" x2="0" y1="0" y2="1" id="lorc-saphir-gradient-5"><stop offset="0%" stop-color="#d0021b" stop-opacity="1"></stop><stop offset="100%" stop-color="#000000" stop-opacity="1"></stop></linearGradient><linearGradient x1="0" x2="1" y1="0" y2="1" id="lorc-saphir-gradient-6"><stop offset="0%" stop-color="#48baff" stop-opacity="1"></stop><stop offset="100%" stop-color="#c4f8ee" stop-opacity="1"></stop></linearGradient><linearGradient id="lorc-saphir-gradient-7"><stop offset="0%" stop-color="#b5e4db" stop-opacity="1"></stop><stop offset="100%" stop-color="#42aae9" stop-opacity="1"></stop></linearGradient><linearGradient id="lorc-saphir-gradient-8"><stop offset="0%" stop-color="#42aae9" stop-opacity="1"></stop><stop offset="100%" stop-color="#b5e4db" stop-opacity="1"></stop></linearGradient><linearGradient x1="0" x2="0" y1="0" y2="1" id="lorc-saphir-gradient-9"><stop offset="0%" stop-color="#c4f8ee" stop-opacity="1"></stop><stop offset="100%" stop-color="#ffffff" stop-opacity="1"></stop></linearGradient><linearGradient x1="0" x2="0" y1="0" y2="1" id="lorc-saphir-gradient-10"><stop offset="0%" stop-color="#c4f8ee" stop-opacity="1"></stop><stop offset="100%" stop-color="#ffffff" stop-opacity="1"></stop></linearGradient></defs><g class="" transform="translate(0,0)" style=""><path d="M413.47 20.25l-11.47 4L84.97 134.72 78.437 137l.406 6.875L97.78 478.47l.69 12.124 11.468-4 317.03-110.47 6.5-2.28-.374-6.906-18.938-334.563-.687-12.125zm-31.533 30.375l-43.375 64.75-180.75 63.375-36.78-24.53c74.22 12.515 196.82-52.49 257.124-102.282l3.78-1.313zm16.032 19.688l15.78 279.125-49.313-32.875-4.187-76.47c18.567-45.422 32.45-114.342 37.72-169.78zm-63.44 67.75l9.69 176.187-166.876 58.5-2.78-50.47c48.082 9.04 83.113-8.624 104.342-38.25-27.814-3.42-46.384-30.984-43.094-60.28 3.174-28.257 24.982-51.253 51.72-52.313 1.782-.07 3.615-.035 5.437.094 2.458.176 4.837.56 7.155 1.095-1.355-6.985-3.194-13.86-5.5-20.563l39.906-14zM117.78 174.5l29.657 19.78 10.47 190.814-43.407 64.812-.188-3.656c24.146-101.32 36.74-217.525 3.47-271.75zm172.095 22.625c-13.068-.123-26.546 12.068-28.5 29.47-2.017 17.96 8.33 31.076 21.78 32.03 13.452.954 27.765-11.444 29.783-29.406 2.017-17.963-8.363-31.08-21.813-32.032-.42-.03-.828-.06-1.25-.063zm64.156 134.97l49.283 32.874-254.938 88.81c48.305-26.555 103.147-64.172 135.594-97.124l70.06-24.562z" fill="url(#lorc-saphir-gradient-1)" stroke="#000000" stroke-opacity="1" stroke-width="2" transform="translate(0, 0) scale(1, 1) rotate(15, 256, 256) skewX(0) skewY(0)"></path></g></svg>