<svg xmlns="http://www.w3.org/2000/svg" viewBox="0 0 512 512" style="height: 512px; width: 512px;"><defs><linearGradient x1="0" x2="1" y1="0" y2="1" id="delapouite-rupee-gradient-1"><stop offset="0%" stop-color="#d0021b" stop-opacity="1"></stop><stop offset="100%" stop-color="#870514" stop-opacity="1"></stop></linearGradient><linearGradient x1="0" x2="1" y1="0" y2="1" id="delapouite-rupee-gradient-2"><stop offset="0%" stop-color="#f8e71c" stop-opacity="1"></stop><stop offset="100%" stop-color="#d0021b" stop-opacity="1"></stop></linearGradient><linearGradient x1="0" x2="1" y1="0" y2="1" id="delapouite-rupee-gradient-3"><stop offset="0%" stop-color="#f8e71c" stop-opacity="1"></stop><stop offset="100%" stop-color="#d0021b" stop-opacity="1"></stop></linearGradient><linearGradient x1="0" x2="1" y1="1" y2="0" id="delapouite-rupee-gradient-4"><stop offset="0%" stop-color="#000000" stop-opacity="1"></stop><stop offset="100%" stop-color="#d0021b" stop-opacity="1"></stop></linearGradient><linearGradient x1="0" x2="0" y1="0" y2="1" id="delapouite-rupee-gradient-5"><stop offset="0%" stop-color="#d0021b" stop-opacity="1"></stop><stop offset="100%" stop-color="#000000" stop-opacity="1"></stop></linearGradient><linearGradient x1="0" x2="1" y1="0" y2="1" id="delapouite-rupee-gradient-6"><stop offset="0%" stop-color="#48baff" stop-opacity="1"></stop><stop offset="100%" stop-color="#c4f8ee" stop-opacity="1"></stop></linearGradient><linearGradient id="delapouite-rupee-gradient-7"><stop offset="0%" stop-color="#b5e4db" stop-opacity="1"></stop><stop offset="100%" stop-color="#42aae9" stop-opacity="1"></stop></linearGradient><linearGradient id="delapouite-rupee-gradient-8"><stop offset="0%" stop-color="#42aae9" stop-opacity="1"></stop><stop offset="100%" stop-color="#b5e4db" stop-opacity="1"></stop></linearGradient><linearGradient x1="0" x2="0" y1="0" y2="1" id="delapouite-rupee-gradient-9"><stop offset="0%" stop-color="#c4f8ee" stop-opacity="1"></stop><stop offset="100%" stop-color="#ffffff" stop-opacity="1"></stop></linearGradient><linearGradient x1="0" x2="0" y1="0" y2="1" id="delapouite-rupee-gradient-10"><stop offset="0%" stop-color="#c4f8ee" stop-opacity="1"></stop><stop offset="100%" stop-color="#ffffff" stop-opacity="1"></stop></linearGradient></defs><g class="" transform="translate(0,0)" style=""><path d="M247 25.076L107.053 130.004l64.996 32.486L247 106.297v-81.22zm18 0v81.22l74.95 56.194 65-32.488L265 25.076zm9.277 22.307l36.63 26.437c-25.125-4.207-29.74 9.2-37.348 28.8l.717-55.237zm-37.79 3.926l-.274 33.362c-22.052 1.182-56.787 14.423-107.893 43.99L236.488 51.31zM256 122.044l-74 55.48v156.948l74 55.482 74-55.482V177.527l-74-55.482zm4.215 17.67c-37.503 33.84-60.642 164.833-63.65 199.094l-.35-151.095 64-48zM99 146.1v219.8l65-32.488V178.588L99 146.1zm314 0l-65 32.488v154.824l65 32.488V146.1zm-301.352 23.31l40.473 20.83c-46.28 38.757-30.79 122.693-41.876 162.572l1.404-183.402zm60.4 180.1l-64.995 32.486L247 486.924v-81.22l-74.95-56.194zm167.903 0L265 405.703v81.22l139.947-104.927-64.996-32.486zm-169.415 17.172c-19.594 16.282-16.745 24.365 4.477 54.412l-44.246-38.018 39.77-16.394z" fill="url(#delapouite-rupee-gradient-1)" stroke="#000000" stroke-opacity="1" stroke-width="2" transform="translate(51.2, 51.2) scale(0.8, 0.8) rotate(15, 256, 256) skewX(0) skewY(0)"></path></g></svg>