<svg xmlns="http://www.w3.org/2000/svg" viewBox="0 0 512 512" style="height: 512px; width: 512px;"><defs><linearGradient x1="0" x2="1" y1="1" y2="0" id="delapouite-beer-bottle-gradient-2"><stop offset="0%" stop-color="#417505" stop-opacity="1"></stop><stop offset="100%" stop-color="#b8e986" stop-opacity="1"></stop></linearGradient><linearGradient id="delapouite-beer-bottle-gradient-3"><stop offset="0%" stop-color="#8ac055" stop-opacity="1"></stop><stop offset="100%" stop-color="#97cb67" stop-opacity="1"></stop></linearGradient><radialGradient id="delapouite-beer-bottle-gradient-4"><stop offset="0%" stop-color="#b57204" stop-opacity="1"></stop><stop offset="100%" stop-color="#8b572a" stop-opacity="1"></stop></radialGradient><radialGradient id="delapouite-beer-bottle-gradient-5"><stop offset="0%" stop-color="#f8e71c" stop-opacity="1"></stop><stop offset="100%" stop-color="#f5a623" stop-opacity="1"></stop></radialGradient><radialGradient id="delapouite-beer-bottle-gradient-6"><stop offset="0%" stop-color="#b8e986" stop-opacity="1"></stop><stop offset="100%" stop-color="#7ed321" stop-opacity="1"></stop></radialGradient><radialGradient id="delapouite-beer-bottle-gradient-7"><stop offset="0%" stop-color="#d0021b" stop-opacity="1"></stop><stop offset="100%" stop-color="#9a1220" stop-opacity="1"></stop></radialGradient><radialGradient id="delapouite-beer-bottle-gradient-8"><stop offset="0%" stop-color="#f8e71c" stop-opacity="1"></stop><stop offset="100%" stop-color="#f5a623" stop-opacity="1"></stop></radialGradient><radialGradient id="delapouite-beer-bottle-gradient-9"><stop offset="0%" stop-color="#8b572a" stop-opacity="1"></stop><stop offset="100%" stop-color="#78491e" stop-opacity="1"></stop></radialGradient><radialGradient id="delapouite-beer-bottle-gradient-10"><stop offset="0%" stop-color="#48baff" stop-opacity="1"></stop><stop offset="100%" stop-color="#4a90e2" stop-opacity="1"></stop></radialGradient><radialGradient id="delapouite-beer-bottle-gradient-11"><stop offset="0%" stop-color="#48baff" stop-opacity="1"></stop><stop offset="100%" stop-color="#4a90e2" stop-opacity="1"></stop></radialGradient><radialGradient id="delapouite-beer-bottle-gradient-12"><stop offset="0%" stop-color="#48baff" stop-opacity="1"></stop><stop offset="100%" stop-color="#4a90e2" stop-opacity="1"></stop></radialGradient><radialGradient id="delapouite-beer-bottle-gradient-13"><stop offset="0%" stop-color="#48baff" stop-opacity="1"></stop><stop offset="100%" stop-color="#4a90e2" stop-opacity="1"></stop></radialGradient><radialGradient id="delapouite-beer-bottle-gradient-14"><stop offset="0%" stop-color="#48baff" stop-opacity="1"></stop><stop offset="100%" stop-color="#4a90e2" stop-opacity="1"></stop></radialGradient><radialGradient id="delapouite-beer-bottle-gradient-15"><stop offset="0%" stop-color="#48baff" stop-opacity="1"></stop><stop offset="100%" stop-color="#4a90e2" stop-opacity="1"></stop></radialGradient><radialGradient id="delapouite-beer-bottle-gradient-16"><stop offset="0%" stop-color="#48baff" stop-opacity="1"></stop><stop offset="100%" stop-color="#4a90e2" stop-opacity="1"></stop></radialGradient></defs><g class="" transform="translate(0,0)" style=""><g><path d="M200 23L200 41L221.895 41L207.585 164.303C193.112 172.447 181.623 180.717 173.405 189.568C164.385 199.28 159 210.138 159 221.538L159 445.54C159 456.94 164.042 467.417 171.348 475.334C178.653 483.251 188.556 489 199.698 489L312 489C323.23 489 333.24 483.28 340.596 475.355C347.953 467.432 353 456.94 353 445.54L353 221.54C353 210.138 347.614 199.28 338.596 189.568C330.376 180.718 318.888 172.448 304.416 164.303L290.106 41L312 41L312 23L200 23Z" class="" fill="url(#delapouite-beer-bottle-gradient-2)" stroke="#010000" stroke-opacity="1" stroke-width="5"></path><path d="M240.016 41L271.984 41L280.078 110.727C277.75 109.757 275.098 109.154 272 109.154C261.658 109.154 254.938 115.579 249.85 119.926C244.76 124.272 243.868 127.061 240 126.386C235.315 125.566 233.553 119.942 231.43 114.976L240.016 41Z" class="selected" fill="url(#delapouite-beer-bottle-gradient-3)"></path><path d="M271.266 127.113C271.501 127.116 271.746 127.129 272 127.153C277.087 127.661 279.665 133.116 283.2 137.629L284.412 148.067C283.221 143.653 279.467 140.617 275.199 140.614C269.897 140.614 265.599 145.242 265.599 150.952C265.599 156.662 269.897 161.29 275.199 161.29C280.378 161.284 284.62 156.855 284.784 151.28L287.601 175.545L291.731 177.77C307.181 186.088 318.421 194.297 325.403 201.816C332.385 209.336 334.999 215.709 334.999 221.539L334.999 264.229L309.431 264.229C297.602 237.6 277.525 221.559 256 221.54C234.48 221.567 214.41 237.607 202.584 264.23L177 264.23L177 221.54C177 215.71 179.614 209.336 186.596 201.816C193.578 194.296 204.819 186.088 220.268 177.77L224.398 175.545L228.445 140.689C231.535 142.852 235.325 144.384 240 144.384C250.237 144.384 256.543 137.881 261.54 133.612C266.226 129.61 267.736 127.078 271.266 127.112Z" class="" fill="url(#delapouite-beer-bottle-gradient-4)"></path><path d="M256 166.4C250.698 166.4 246.4 171.028 246.4 176.738C246.4 182.448 250.698 187.076 256 187.076C261.302 187.076 265.6 182.448 265.6 176.738C265.6 171.028 261.302 166.4 256 166.4Z" class="" fill="url(#delapouite-beer-bottle-gradient-5)"></path><path d="M275.2 181.97C269.898 181.97 265.601 186.598 265.6 192.307C265.6 198.017 269.898 202.645 275.2 202.645C280.502 202.645 284.8 198.017 284.8 192.307C284.8 186.597 280.502 181.969 275.2 181.969Z" class="" fill="url(#delapouite-beer-bottle-gradient-6)"></path><path d="M256 247C269.42 247 279.9 256.857 286.578 269.445C288.54 273.143 290.241 277.171 291.676 281.461L336 281.461L336 299.461L295.844 299.461C296.601 304.861 297 310.499 297 316.311C297 328.665 295.225 340.255 291.94 350.386L336 350.386L336 368.386L283.465 368.386C276.825 378.373 267.495 385.616 256 385.616C244.504 385.616 235.175 378.373 228.535 368.386L176 368.386L176 350.386L220.06 350.386C216.775 340.256 215 328.666 215 316.31C215 310.498 215.4 304.86 216.156 299.46L176 299.46L176 281.46L220.324 281.46C221.759 277.17 223.46 273.143 225.422 269.445C232.102 256.857 242.58 247 256 247Z" class="" fill="url(#delapouite-beer-bottle-gradient-7)"></path><path d="M256 265C251.747 265 246.225 268.644 241.322 277.883C236.42 287.123 233 300.946 233 316.309C233 331.671 236.42 345.492 241.322 354.731C246.225 363.971 251.747 367.614 256 367.614C260.253 367.614 265.775 363.971 270.678 354.731C275.58 345.491 279 331.671 279 316.308C279 300.944 275.58 287.12 270.678 277.881C265.775 268.643 260.253 265 256 265Z" class="" fill="url(#delapouite-beer-bottle-gradient-8)"></path><path d="M177 385.615L212.47 385.615C224.289 401.935 239.84 411.031 256 411.075C272.175 411.046 287.743 401.95 299.572 385.615L335 385.615L335 445.539C335 451.369 332.047 458.106 327.404 463.106C322.761 468.106 316.769 470.999 312 470.999L199.697 470.999C195.142 470.999 189.195 468.132 184.577 463.126C179.957 458.12 177 451.368 177 445.538L177 385.613Z" class="" fill="url(#delapouite-beer-bottle-gradient-9)"></path></g></g></svg>