<svg xmlns="http://www.w3.org/2000/svg" viewBox="0 0 512 512" style="height: 512px; width: 512px;"><defs><radialGradient id="gradient-2"><stop offset="0%" stop-color="#ffffff" stop-opacity="1"></stop><stop offset="100%" stop-color="#feeeee" stop-opacity="1"></stop></radialGradient><radialGradient id="gradient-3"><stop offset="0%" stop-color="#d0021b" stop-opacity="1"></stop><stop offset="100%" stop-color="#ff001f" stop-opacity="1"></stop></radialGradient><radialGradient id="gradient-4"><stop offset="0%" stop-color="#feeeee" stop-opacity="1"></stop><stop offset="100%" stop-color="#f5c7c7" stop-opacity="1"></stop></radialGradient><radialGradient id="gradient-5"><stop offset="0%" stop-color="#ffffff" stop-opacity="1"></stop><stop offset="100%" stop-color="#feeeee" stop-opacity="1"></stop></radialGradient><radialGradient id="gradient-6"><stop offset="0%" stop-color="#8b572a" stop-opacity="1"></stop><stop offset="100%" stop-color="#b57204" stop-opacity="1"></stop></radialGradient><radialGradient id="gradient-7"><stop offset="0%" stop-color="#feeeee" stop-opacity="1"></stop><stop offset="100%" stop-color="#febcbc" stop-opacity="1"></stop></radialGradient><radialGradient id="gradient-8"><stop offset="0%" stop-color="#8b572a" stop-opacity="1"></stop><stop offset="100%" stop-color="#b57204" stop-opacity="1"></stop></radialGradient><radialGradient id="gradient-9"><stop offset="0%" stop-color="#f8e71c" stop-opacity="1"></stop><stop offset="100%" stop-color="#f5a623" stop-opacity="1"></stop></radialGradient><radialGradient id="gradient-10"><stop offset="0%" stop-color="#8b572a" stop-opacity="1"></stop><stop offset="100%" stop-color="#b57204" stop-opacity="1"></stop></radialGradient><radialGradient id="gradient-11"><stop offset="0%" stop-color="#417505" stop-opacity="1"></stop><stop offset="100%" stop-color="#7ed321" stop-opacity="1"></stop></radialGradient><radialGradient id="gradient-12"><stop offset="0%" stop-color="#d0021b" stop-opacity="1"></stop><stop offset="100%" stop-color="#ff001e" stop-opacity="1"></stop></radialGradient><radialGradient id="gradient-13"><stop offset="0%" stop-color="#ffe0af" stop-opacity="1"></stop><stop offset="100%" stop-color="#d3ae72" stop-opacity="1"></stop></radialGradient><radialGradient id="gradient-14"><stop offset="0%" stop-color="#f8e71c" stop-opacity="1"></stop><stop offset="100%" stop-color="#f5a623" stop-opacity="1"></stop></radialGradient><radialGradient id="gradient-15"><stop offset="0%" stop-color="#f8e71c" stop-opacity="1"></stop><stop offset="100%" stop-color="#f5a623" stop-opacity="1"></stop></radialGradient><radialGradient id="gradient-16"><stop offset="0%" stop-color="#7ed321" stop-opacity="1"></stop><stop offset="100%" stop-color="#417505" stop-opacity="1"></stop></radialGradient><radialGradient id="gradient-17"><stop offset="0%" stop-color="#f8e71c" stop-opacity="1"></stop><stop offset="100%" stop-color="#f5a623" stop-opacity="1"></stop></radialGradient><radialGradient id="gradient-18"><stop offset="0%" stop-color="#f8e71c" stop-opacity="1"></stop><stop offset="100%" stop-color="#f5a623" stop-opacity="1"></stop></radialGradient><radialGradient id="gradient-19"><stop offset="0%" stop-color="#f8e71c" stop-opacity="1"></stop><stop offset="100%" stop-color="#f5a623" stop-opacity="1"></stop></radialGradient><radialGradient id="gradient-20"><stop offset="0%" stop-color="#f8e71c" stop-opacity="1"></stop><stop offset="100%" stop-color="#f5a623" stop-opacity="1"></stop></radialGradient><radialGradient id="gradient-21"><stop offset="0%" stop-color="#f8e71c" stop-opacity="1"></stop><stop offset="100%" stop-color="#f5a623" stop-opacity="1"></stop></radialGradient><radialGradient id="gradient-22"><stop offset="0%" stop-color="#f8e71c" stop-opacity="1"></stop><stop offset="100%" stop-color="#f5a623" stop-opacity="1"></stop></radialGradient><radialGradient id="gradient-23"><stop offset="0%" stop-color="#f8e71c" stop-opacity="1"></stop><stop offset="100%" stop-color="#f5a623" stop-opacity="1"></stop></radialGradient><radialGradient id="gradient-24"><stop offset="0%" stop-color="#f8e71c" stop-opacity="1"></stop><stop offset="100%" stop-color="#f5a623" stop-opacity="1"></stop></radialGradient><radialGradient id="gradient-25"><stop offset="0%" stop-color="#f8e71c" stop-opacity="1"></stop><stop offset="100%" stop-color="#f5a623" stop-opacity="1"></stop></radialGradient><radialGradient id="gradient-26"><stop offset="0%" stop-color="#f8e71c" stop-opacity="1"></stop><stop offset="100%" stop-color="#f5a623" stop-opacity="1"></stop></radialGradient><radialGradient id="gradient-27"><stop offset="0%" stop-color="#f8e71c" stop-opacity="1"></stop><stop offset="100%" stop-color="#f5a623" stop-opacity="1"></stop></radialGradient><radialGradient id="gradient-28"><stop offset="0%" stop-color="#f8e71c" stop-opacity="1"></stop><stop offset="100%" stop-color="#f5a623" stop-opacity="1"></stop></radialGradient><radialGradient id="gradient-29"><stop offset="0%" stop-color="#f8e71c" stop-opacity="1"></stop><stop offset="100%" stop-color="#f5a623" stop-opacity="1"></stop></radialGradient><radialGradient id="gradient-30"><stop offset="0%" stop-color="#f8e71c" stop-opacity="1"></stop><stop offset="100%" stop-color="#f5a623" stop-opacity="1"></stop></radialGradient><radialGradient id="gradient-31"><stop offset="0%" stop-color="#f8e71c" stop-opacity="1"></stop><stop offset="100%" stop-color="#f5a623" stop-opacity="1"></stop></radialGradient><radialGradient id="gradient-32"><stop offset="0%" stop-color="#f8e71c" stop-opacity="1"></stop><stop offset="100%" stop-color="#f5a623" stop-opacity="1"></stop></radialGradient><radialGradient id="gradient-33"><stop offset="0%" stop-color="#7ed321" stop-opacity="1"></stop><stop offset="100%" stop-color="#417505" stop-opacity="1"></stop></radialGradient><radialGradient id="gradient-34"><stop offset="0%" stop-color="#f8e71c" stop-opacity="1"></stop><stop offset="100%" stop-color="#f5a623" stop-opacity="1"></stop></radialGradient><radialGradient id="gradient-35"><stop offset="0%" stop-color="#f8e71c" stop-opacity="1"></stop><stop offset="100%" stop-color="#f5a623" stop-opacity="1"></stop></radialGradient><radialGradient id="gradient-36"><stop offset="0%" stop-color="#f8e71c" stop-opacity="1"></stop><stop offset="100%" stop-color="#f5a623" stop-opacity="1"></stop></radialGradient></defs><g class="" transform="translate(-9,0)" style="touch-action: none;"><g><path d="M224.375 19.5C223.748 19.505 223.125 19.535 222.5 19.563C199.584 20.567 182.595 36.299 177.437 54.656C172.641 71.726 176.969 90.646 199.125 104.563C174.341 109.645 154.543 128.76 148.5 153.187L28.22 266.125L372.97 217.437C368.284 205.772 365.537 192.883 365.25 179.562C352.877 183.057 339.813 181.382 329.562 174.719C317.079 166.604 310.246 150.324 314.406 131.749C303.406 127.884 294.092 120.611 285.469 111.593C282.799 113.526 279.872 115.315 276.593 117.063C271.689 119.673 266.145 122.059 260.187 124.093C254.772 118.31 248.327 113.51 241.155 109.968C243.171 109.566 245.175 109.091 247.155 108.561C254.875 106.491 262.148 103.576 267.811 100.561C273.475 97.545 277.531 94.071 278.468 92.811L285.498 83.373L293.123 92.373C304.983 106.415 314.81 114.143 327.529 115.903L339.749 117.593L334.811 128.903C327.463 145.725 332.091 154.053 339.749 159.029C347.406 164.007 359.916 164.309 369.687 156.999L387.405 143.719L384.561 165.687C380.331 198.167 395.944 230.625 416.405 243.562C426.635 250.03 437.465 252.02 449.185 248.092C460.909 244.165 474.109 233.682 486.718 212.687C508.403 176.574 471.592 134.712 439.342 146.062L426.592 150.562L426.904 137.03C427.816 99.714 392.57 69.208 352.56 78L344.123 79.844L341.593 71.594C337.603 58.564 329.393 49.899 320.403 46.344C311.415 42.788 301.553 43.641 291.248 51.969L283.278 58.405L277.592 49.875C264.252 29.87 243.812 19.34 224.374 19.5Z" class="" fill="url(#gradient-2)" stroke="#000000" stroke-opacity="1" stroke-width="3"></path><path d="M212.28 121.906C213.846 121.906 215.382 121.978 216.906 122.126C208.726 125.922 203.062 134.199 203.062 143.812C203.062 157.016 213.765 167.719 226.969 167.719C240.172 167.719 250.874 157.015 250.874 143.812C250.874 143.166 250.83 142.538 250.78 141.905C256.13 149.537 259.28 158.825 259.28 168.905C259.28 175.051 258.09 180.912 255.97 186.28C229.382 205.357 202.805 206.308 176.22 199.125C169.385 190.968 165.28 180.445 165.28 168.905C165.28 142.842 186.217 121.905 212.28 121.905Z" class="" fill="url(#gradient-3)" stroke="#000000" stroke-opacity="1" stroke-width="3"></path><path d="M382.125 235.062L19.97 286.156L19.97 302.75L394.406 249.906C389.851 245.526 385.736 240.534 382.126 235.062Z" class="" fill="url(#gradient-4)" stroke="#000000" stroke-opacity="1" stroke-width="3"></path><path d="M479.281 251.437C473.051 256.934 466.603 261.075 460.001 263.937L459.251 433.062L470.876 431.875L479.282 431.031L479.282 251.44Z" class="" fill="url(#gradient-5)" stroke="#000000" stroke-opacity="1" stroke-width="3"></path><path d="M418.721 265.344L19.97 321.656L19.97 374.406L50.813 357.25L55.406 354.687L59.969 357.312C76.444 366.695 88.424 368.262 100.124 365.125C111.824 361.987 124.054 353.232 137.999 339.25L141.874 335.375L147.154 336.875C171.167 343.681 185.209 346.387 196.218 344.5C207.226 342.613 217.462 336.097 234.436 320.72L240.716 315.03L246.966 320.72C254.72 327.75 258.259 328.42 259.436 328.375C260.612 328.33 262.686 327.133 267.373 324.031C272.061 320.931 279.226 316.781 288.903 316.376C297.189 316.03 306.957 318.416 318.873 324.064C327.247 316.502 333.887 311.474 342.623 310.47C351.215 309.48 358.438 312.728 367.529 317.562C374.253 312.195 381.031 309.179 387.562 308.406C395.822 307.428 402.772 309.526 408.562 311.156C414.352 312.786 419.076 314.036 423.874 313.719C428.53 313.409 433.774 311.824 441.124 306.219L441.28 268.561C433.5 269.071 425.87 267.893 418.72 265.343Z" class="" fill="url(#gradient-6)" stroke="#000000" stroke-opacity="1" stroke-width="3"></path><path d="M391.188 326.874C390.702 326.887 390.22 326.914 389.751 326.969C386.001 327.412 381.831 329.012 375.438 335.436L370.532 340.374L364.377 337.061C352.48 330.645 347.221 328.746 344.752 329.031C342.282 329.314 337.364 332.331 326.846 342.061L321.94 346.593L316.065 343.437C303.029 336.417 294.849 334.847 289.69 335.062C284.53 335.277 281.69 336.945 277.69 339.592C273.688 342.24 268.44 346.745 260.158 347.062C253.823 347.302 247.613 344.792 240.846 339.812C226.018 352.562 213.636 360.462 199.376 362.905C184.378 365.475 168.769 362.195 147.19 356.218C133.61 369.242 120.217 379.096 104.97 383.185C89.602 387.308 73.023 384.932 55.47 376.029L19.97 395.779L19.97 413.469C51.83 398.939 83.43 399.434 115.814 407.969C126.766 392.969 140.431 382.871 157.627 380.186C174.737 377.516 194.343 381.956 218.157 391.874C222.541 382.448 227.917 375.942 234.689 372.218C243.489 367.378 252.696 368.091 260.533 369.185C276.209 371.375 287.883 375.78 303.723 362.748L307.973 359.248L313.097 361.278C336.454 370.488 363.707 372.525 386.722 353.778L392.532 349.061L398.408 353.686C413.676 365.672 428.028 364.953 440.908 355.592L441.033 328.092C435.478 330.697 430.125 332.04 425.097 332.372C416.457 332.945 409.262 330.775 403.503 329.154C398.463 327.736 394.593 326.791 391.19 326.874Z" class="selected" fill="url(#gradient-7)" stroke="#000000" stroke-opacity="1" stroke-width="3"></path><path d="M392.908 372.5C366.518 390.567 335.913 388.928 311.064 380.313C290.877 393.989 270.608 389.453 257.97 387.688C251.177 386.738 246.954 386.815 243.72 388.594C240.483 390.374 236.33 394.804 232.188 407.064L228.875 416.874L219.437 412.594C192.847 400.484 173.93 396.528 160.5 398.624C147.07 400.722 137.566 408.157 127.687 423.656L123.907 429.594L117.157 427.594C82.107 417.224 52.507 416.491 19.969 434.344L19.969 477.719L30.249 476.686L440.562 434.968L440.812 376.528C425.77 382.598 408.487 381.963 392.905 372.498Z" class="" fill="url(#gradient-8)" stroke="#000000" stroke-opacity="1" stroke-width="3"></path></g></g></svg>