<svg xmlns="http://www.w3.org/2000/svg" viewBox="0 0 512 512" style="height: 512px; width: 512px;"><defs><linearGradient x1="0" x2="1" y1="0" y2="1" id="delapouite-spiral-lollipop-gradient-1"><stop offset="0%" stop-color="#ffe0af" stop-opacity="1"></stop><stop offset="100%" stop-color="#faf5ed" stop-opacity="1"></stop></linearGradient><radialGradient id="delapouite-spiral-lollipop-gradient-2"><stop offset="0%" stop-color="#b2d4e9" stop-opacity="1"></stop><stop offset="100%" stop-color="#4a90e2" stop-opacity="1"></stop></radialGradient><linearGradient x1="0" x2="1" y1="1" y2="0" id="delapouite-spiral-lollipop-gradient-3"><stop offset="0%" stop-color="#b57204" stop-opacity="1"></stop><stop offset="100%" stop-color="#8b572a" stop-opacity="1"></stop></linearGradient><linearGradient x1="0" x2="1" y1="0" y2="1" id="delapouite-spiral-lollipop-gradient-4"><stop offset="0%" stop-color="#c4f8ee" stop-opacity="1"></stop><stop offset="100%" stop-color="#ffffff" stop-opacity="1"></stop></linearGradient><linearGradient x1="0" x2="1" y1="1" y2="0" id="delapouite-spiral-lollipop-gradient-5"><stop offset="0%" stop-color="#c4f8ee" stop-opacity="1"></stop><stop offset="100%" stop-color="#48baff" stop-opacity="1"></stop></linearGradient><linearGradient x1="0" x2="1" y1="0" y2="1" id="delapouite-spiral-lollipop-gradient-6"><stop offset="0%" stop-color="#48baff" stop-opacity="1"></stop><stop offset="100%" stop-color="#c4f8ee" stop-opacity="1"></stop></linearGradient><linearGradient id="delapouite-spiral-lollipop-gradient-7"><stop offset="0%" stop-color="#b5e4db" stop-opacity="1"></stop><stop offset="100%" stop-color="#42aae9" stop-opacity="1"></stop></linearGradient><linearGradient id="delapouite-spiral-lollipop-gradient-8"><stop offset="0%" stop-color="#42aae9" stop-opacity="1"></stop><stop offset="100%" stop-color="#b5e4db" stop-opacity="1"></stop></linearGradient><linearGradient x1="0" x2="0" y1="0" y2="1" id="delapouite-spiral-lollipop-gradient-9"><stop offset="0%" stop-color="#c4f8ee" stop-opacity="1"></stop><stop offset="100%" stop-color="#ffffff" stop-opacity="1"></stop></linearGradient><linearGradient x1="0" x2="0" y1="0" y2="1" id="delapouite-spiral-lollipop-gradient-10"><stop offset="0%" stop-color="#c4f8ee" stop-opacity="1"></stop><stop offset="100%" stop-color="#ffffff" stop-opacity="1"></stop></linearGradient></defs><g class="" transform="translate(0,0)" style=""><g><path d="M327 34C243.5 34 176 101.5 176 185C176 268.5 243.5 336 327 336C348.2 336 368.3 331.7 386.6 323.8C420.5 299.5 443.1 258.7 445.5 214.8C449.4 144 399.2 78.57 332.7 74.51C273.6 71.05 219.1 119.8 216.3 184.2C213.7 240.6 254 292.6 307 294.9C352.9 296.9 394.9 258.7 396.2 208.8C397.2 166.9 366.8 128.3 327.2 127.7C295 127.3 265.3 154.7 265.5 190.1C265.7 217.5 286.3 242.9 312.3 241.9C331.2 241 348.5 224.2 346.8 203.7C346.2 197 343.2 190.3 338.7 185.8C334.2 181.5 329.1 179.3 323.1 180.5C320.6 181.1 316.8 183.6 315.1 186C312.8 189.5 327.5 194.9 327.2 199C326.8 203.3 324.2 207.9 320.4 210.2C316.5 212.2 312.9 211.6 310.2 210.8C304.9 209.2 301.2 206.7 298.3 200.4C294.4 191.3 296.6 181.3 301.4 174.6C305.9 168.1 312.5 163.9 319.8 162.2C331.5 159.8 342.7 164.5 350.4 172C358.1 179.7 363.2 190.5 364.2 201.8C366.8 234.1 341 259.3 313.1 260.3C276.5 262 248.6 227.6 248.2 190.1C247.8 143.6 285.9 108.4 327.4 109C377.4 109.6 414.9 157.4 413.6 209.4C411.9 270.1 361.3 315.8 306.5 313.6C243.3 310.9 195.9 249.8 199 183.4C202 112.7 257.6 58.87 321 55.82C325.1 55.62 329.5 55.62 333.8 55.82C410.2 60.49 467.3 135 462.8 216.1C461.7 236.7 456.7 256.6 448.4 274.8C467 249.7 478 218.7 478 185C478 101.5 410.5 34 327 34Z" class="selected" fill="url(#delapouite-spiral-lollipop-gradient-2)" stroke="#000000" stroke-opacity="1" stroke-width="2"></path><path d="M192.8 287.6L44.73 448L44.6 448.2C37.66 455.1 34.81 461.4 34.15 466.1C33.49 470.7 34.72 473.6 36.6 475.4C38.48 477.3 41.34 478.6 45.97 477.9C50.58 477.2 56.92 474.4 63.85 467.5L213.3 310C205.8 303.1 199 295.7 192.8 287.6Z" class="" fill="url(#delapouite-spiral-lollipop-gradient-3)" stroke="#000000" stroke-opacity="1" stroke-width="2"></path></g></g></svg>