<svg xmlns="http://www.w3.org/2000/svg" viewBox="0 0 512 512" style="height: 512px; width: 512px;"><defs><linearGradient x1="0" x2="1" y1="0" y2="1" id="delapouite-cabbage-gradient-1"><stop offset="0%" stop-color="#d0021b" stop-opacity="1"></stop><stop offset="100%" stop-color="#fa95a1" stop-opacity="1"></stop></linearGradient><linearGradient x1="0" x2="1" y1="0" y2="1" id="delapouite-cabbage-gradient-2"><stop offset="0%" stop-color="#67b622" stop-opacity="1"></stop><stop offset="100%" stop-color="#d4c72b" stop-opacity="1"></stop></linearGradient><linearGradient x1="0" x2="1" y1="1" y2="0" id="delapouite-cabbage-gradient-3"><stop offset="0%" stop-color="#f5a623" stop-opacity="1"></stop><stop offset="100%" stop-color="#5da104" stop-opacity="1"></stop></linearGradient><radialGradient id="delapouite-cabbage-gradient-4"><stop offset="0%" stop-color="#99e500" stop-opacity="1"></stop><stop offset="100%" stop-color="#c4d321" stop-opacity="1"></stop></radialGradient><radialGradient id="delapouite-cabbage-gradient-5"><stop offset="0%" stop-color="#b1f523" stop-opacity="1"></stop><stop offset="100%" stop-color="#79a104" stop-opacity="1"></stop></radialGradient><radialGradient id="delapouite-cabbage-gradient-6"><stop offset="0%" stop-color="#c6f523" stop-opacity="1"></stop><stop offset="100%" stop-color="#73a104" stop-opacity="1"></stop></radialGradient><linearGradient x1="0" x2="1" y1="0" y2="1" id="delapouite-cabbage-gradient-7"><stop offset="0%" stop-color="#b1f523" stop-opacity="1"></stop><stop offset="100%" stop-color="#b8f81c" stop-opacity="1"></stop></linearGradient><linearGradient x1="0" x2="1" y1="0" y2="1" id="delapouite-cabbage-gradient-8"><stop offset="0%" stop-color="#c6f523" stop-opacity="1"></stop><stop offset="100%" stop-color="#a1f81c" stop-opacity="1"></stop></linearGradient><linearGradient x1="0" x2="1" y1="0" y2="1" id="delapouite-cabbage-gradient-9"><stop offset="0%" stop-color="#4a4a4a" stop-opacity="1"></stop><stop offset="100%" stop-color="#9b9b9b" stop-opacity="1"></stop></linearGradient><linearGradient x1="0" x2="1" y1="0" y2="1" id="delapouite-cabbage-gradient-10"><stop offset="0%" stop-color="#9b9b9b" stop-opacity="1"></stop><stop offset="100%" stop-color="#c9c9c9" stop-opacity="1"></stop></linearGradient><linearGradient x1="0" x2="1" y1="0" y2="1" id="delapouite-cabbage-gradient-11"><stop offset="0%" stop-color="#4a4a4a" stop-opacity="1"></stop><stop offset="100%" stop-color="#9b9b9b" stop-opacity="1"></stop></linearGradient><linearGradient x1="0" x2="0" y1="0" y2="1" id="delapouite-cabbage-gradient-12"><stop offset="0%" stop-color="#ffffff" stop-opacity="1"></stop><stop offset="100%" stop-color="#ffdee2" stop-opacity="1"></stop></linearGradient><linearGradient x1="0" x2="0" y1="0" y2="1" id="delapouite-cabbage-gradient-13"><stop offset="0%" stop-color="#ffffff" stop-opacity="1"></stop><stop offset="100%" stop-color="#ffdee2" stop-opacity="1"></stop></linearGradient><radialGradient id="delapouite-cabbage-gradient-14"><stop offset="0%" stop-color="#f8e71c" stop-opacity="1"></stop><stop offset="100%" stop-color="#f5a623" stop-opacity="1"></stop></radialGradient><radialGradient id="delapouite-cabbage-gradient-15"><stop offset="0%" stop-color="#f8e71c" stop-opacity="1"></stop><stop offset="100%" stop-color="#f5a623" stop-opacity="1"></stop></radialGradient><radialGradient id="delapouite-cabbage-gradient-16"><stop offset="0%" stop-color="#f8e71c" stop-opacity="1"></stop><stop offset="100%" stop-color="#f5a623" stop-opacity="1"></stop></radialGradient><radialGradient id="delapouite-cabbage-gradient-17"><stop offset="0%" stop-color="#f8e71c" stop-opacity="1"></stop><stop offset="100%" stop-color="#f5a623" stop-opacity="1"></stop></radialGradient><radialGradient id="delapouite-cabbage-gradient-18"><stop offset="0%" stop-color="#f8e71c" stop-opacity="1"></stop><stop offset="100%" stop-color="#f5a623" stop-opacity="1"></stop></radialGradient><radialGradient id="delapouite-cabbage-gradient-19"><stop offset="0%" stop-color="#f8e71c" stop-opacity="1"></stop><stop offset="100%" stop-color="#f5a623" stop-opacity="1"></stop></radialGradient><radialGradient id="delapouite-cabbage-gradient-20"><stop offset="0%" stop-color="#f8e71c" stop-opacity="1"></stop><stop offset="100%" stop-color="#f5a623" stop-opacity="1"></stop></radialGradient><radialGradient id="delapouite-cabbage-gradient-21"><stop offset="0%" stop-color="#f8e71c" stop-opacity="1"></stop><stop offset="100%" stop-color="#f5a623" stop-opacity="1"></stop></radialGradient><radialGradient id="delapouite-cabbage-gradient-22"><stop offset="0%" stop-color="#f8e71c" stop-opacity="1"></stop><stop offset="100%" stop-color="#f5a623" stop-opacity="1"></stop></radialGradient><radialGradient id="delapouite-cabbage-gradient-23"><stop offset="0%" stop-color="#f8e71c" stop-opacity="1"></stop><stop offset="100%" stop-color="#f5a623" stop-opacity="1"></stop></radialGradient><radialGradient id="delapouite-cabbage-gradient-24"><stop offset="0%" stop-color="#f8e71c" stop-opacity="1"></stop><stop offset="100%" stop-color="#f5a623" stop-opacity="1"></stop></radialGradient><radialGradient id="delapouite-cabbage-gradient-25"><stop offset="0%" stop-color="#8b7500" stop-opacity="1"></stop><stop offset="100%" stop-color="#c4a504" stop-opacity="1"></stop></radialGradient><radialGradient id="delapouite-cabbage-gradient-26"><stop offset="0%" stop-color="#8b7500" stop-opacity="1"></stop><stop offset="100%" stop-color="#c4a504" stop-opacity="1"></stop></radialGradient><radialGradient id="delapouite-cabbage-gradient-27"><stop offset="0%" stop-color="#f8e71c" stop-opacity="1"></stop><stop offset="100%" stop-color="#f5a623" stop-opacity="1"></stop></radialGradient><radialGradient id="delapouite-cabbage-gradient-28"><stop offset="0%" stop-color="#f8e71c" stop-opacity="1"></stop><stop offset="100%" stop-color="#f5a623" stop-opacity="1"></stop></radialGradient><radialGradient id="delapouite-cabbage-gradient-29"><stop offset="0%" stop-color="#f8e71c" stop-opacity="1"></stop><stop offset="100%" stop-color="#f5a623" stop-opacity="1"></stop></radialGradient><radialGradient id="delapouite-cabbage-gradient-30"><stop offset="0%" stop-color="#f8e71c" stop-opacity="1"></stop><stop offset="100%" stop-color="#f5a623" stop-opacity="1"></stop></radialGradient><radialGradient id="delapouite-cabbage-gradient-31"><stop offset="0%" stop-color="#8b7500" stop-opacity="1"></stop><stop offset="100%" stop-color="#c4a504" stop-opacity="1"></stop></radialGradient><radialGradient id="delapouite-cabbage-gradient-32"><stop offset="0%" stop-color="#f8e71c" stop-opacity="1"></stop><stop offset="100%" stop-color="#f5a623" stop-opacity="1"></stop></radialGradient><radialGradient id="delapouite-cabbage-gradient-33"><stop offset="0%" stop-color="#8b7500" stop-opacity="1"></stop><stop offset="100%" stop-color="#c4a504" stop-opacity="1"></stop></radialGradient><radialGradient id="delapouite-cabbage-gradient-34"><stop offset="0%" stop-color="#f8e71c" stop-opacity="1"></stop><stop offset="100%" stop-color="#f5a623" stop-opacity="1"></stop></radialGradient><radialGradient id="delapouite-cabbage-gradient-35"><stop offset="0%" stop-color="#f8e71c" stop-opacity="1"></stop><stop offset="100%" stop-color="#f5a623" stop-opacity="1"></stop></radialGradient><radialGradient id="delapouite-cabbage-gradient-36"><stop offset="0%" stop-color="#f8e71c" stop-opacity="1"></stop><stop offset="100%" stop-color="#f5a623" stop-opacity="1"></stop></radialGradient><radialGradient id="delapouite-cabbage-gradient-37"><stop offset="0%" stop-color="#f8e71c" stop-opacity="1"></stop><stop offset="100%" stop-color="#f5a623" stop-opacity="1"></stop></radialGradient><linearGradient x1="0" x2="1" y1="0" y2="1" id="delapouite-cabbage-gradient-38"><stop offset="0%" stop-color="#8b7500" stop-opacity="1"></stop><stop offset="100%" stop-color="#c4a504" stop-opacity="1"></stop></linearGradient><linearGradient x1="0" x2="1" y1="0" y2="1" id="delapouite-cabbage-gradient-39"><stop offset="0%" stop-color="#8b7500" stop-opacity="1"></stop><stop offset="100%" stop-color="#c4a504" stop-opacity="1"></stop></linearGradient><linearGradient x1="0" x2="1" y1="0" y2="1" id="delapouite-cabbage-gradient-40"><stop offset="0%" stop-color="#8b7500" stop-opacity="1"></stop><stop offset="100%" stop-color="#c4a504" stop-opacity="1"></stop></linearGradient><linearGradient x1="0" x2="1" y1="0" y2="1" id="delapouite-cabbage-gradient-41"><stop offset="0%" stop-color="#8b7500" stop-opacity="1"></stop><stop offset="100%" stop-color="#c4a504" stop-opacity="1"></stop></linearGradient><linearGradient x1="0" x2="1" y1="0" y2="1" id="delapouite-cabbage-gradient-42"><stop offset="0%" stop-color="#8b7500" stop-opacity="1"></stop><stop offset="100%" stop-color="#c4a504" stop-opacity="1"></stop></linearGradient><linearGradient x1="0" x2="1" y1="0" y2="1" id="delapouite-cabbage-gradient-43"><stop offset="0%" stop-color="#8b7500" stop-opacity="1"></stop><stop offset="100%" stop-color="#c4a504" stop-opacity="1"></stop></linearGradient><linearGradient x1="0" x2="1" y1="0" y2="1" id="delapouite-cabbage-gradient-44"><stop offset="0%" stop-color="#8b7500" stop-opacity="1"></stop><stop offset="100%" stop-color="#c4a504" stop-opacity="1"></stop></linearGradient><linearGradient x1="0" x2="1" y1="0" y2="1" id="delapouite-cabbage-gradient-45"><stop offset="0%" stop-color="#8b7500" stop-opacity="1"></stop><stop offset="100%" stop-color="#c4a504" stop-opacity="1"></stop></linearGradient><linearGradient x1="0" x2="1" y1="0" y2="1" id="delapouite-cabbage-gradient-46"><stop offset="0%" stop-color="#8b7500" stop-opacity="1"></stop><stop offset="100%" stop-color="#c4a504" stop-opacity="1"></stop></linearGradient></defs><g class="" transform="translate(0,0)" style=""><g><path d="M199.6 20.38C198 20.28 197 20.81 195 22.71C192.6 24.89 189.7 28.97 186.7 33.74C180.7 43.28 174.1 56.86 159.2 60.47C145.4 63.81 134 56.53 124.8 51.49C115.6 46.45 109.1 43.71 104.4 45.3C100.1 46.82 96.88 51.86 93 60.21C89.11 68.56 85.24 79.47 75.06 86.66C66.71 92.56 57.7 92.17 51.13 92.72C47.85 93 45.11 93.4 43.43 93.96C41.75 94.52 41.29 94.9 40.78 95.64C33.44 106.5 32.83 129.3 35.9 152.1L41.93 154.2C47.74 156.3 53.19 159.1 58.26 162.4C85.37 126 129.1 102.5 175.9 91.84C181.7 82.41 189.7 70.2 199.2 57.91C205.7 49.54 212.8 41.18 220.5 33.69C213.6 25.84 206.5 21.22 200.3 20.44C200 20.44 199.8 20.34 199.6 20.34Z" class="" fill="url(#delapouite-cabbage-gradient-2)" stroke="#000000" stroke-opacity="1" stroke-width="2"></path><path d="M270.9 25.46C263 25.36 253.6 29.53 243.8 37.15C233.3 45.29 222.7 56.98 213.5 68.92C208.3 75.63 203.8 81.86 200.1 87.48C211.9 85.9 223.8 85.09 235.5 85.1C251.5 85.1 267.2 86.62 282.1 89.61C323.1 97.83 366 118.7 400.6 148C408.1 154.3 415.3 161.1 421.9 168.2C423.9 167 425.9 165.8 427.9 164.8C433.1 162.3 438.9 160.7 444.7 160.4C450.6 160.1 456.6 161.1 462.3 163.7C465.9 165.4 469.3 167.4 472.5 169.6C474 155.6 474.5 141.3 473 129.1C471.5 116.3 467.6 106.5 461.9 101.1C461.3 100.7 461.2 100.5 458.8 100.8C456.3 101.1 452.4 102.4 448.1 104C443.8 105.6 439 107.5 433.6 108.3C428.2 109.1 421.2 108.5 415.8 104C409.9 99.13 407.8 91.71 407.6 85.5C407.4 79.28 408.5 73.42 409.4 68.03C410.3 62.65 411 57.74 410.8 54.55C410.6 51.36 410.2 50.69 409.1 49.85C404 46.13 399 45.63 391.6 47.13C384.3 48.64 375.3 52.61 365.9 57.13C356.4 61.66 346.4 66.7 335.9 69.84C325.4 73.02 313.9 74.28 302.8 69.84C295.9 67.05 291.5 61.52 288.5 56.13C285.5 50.75 283.6 45.13 281.8 40.14C279.9 35.16 278.1 30.83 276.4 28.41C274.7 26 274.1 25.67 272.5 25.53C272 25.53 271.5 25.43 270.9 25.43Z" class="selected" fill="url(#delapouite-cabbage-gradient-3)" stroke="#000000" stroke-opacity="1" stroke-width="2"></path><path d="M235.8 103.3C174 103.7 106.1 128.3 72.33 173.7C84.05 185.1 92.6 199.4 97.36 213.7C101 224.8 96.76 234.8 93.82 243.5C90.87 252.3 89.14 260 89.91 262.9C90.64 265.6 92.6 268.1 96.4 271C100.2 273.9 105.6 276.8 111.5 279.8C123.1 285.7 137.7 291.6 143.3 306.3C145.7 312.5 146.1 319 145.7 325.5C148.4 325.2 151.2 324.9 154.1 324.8C155.1 324.8 156.2 324.7 157.2 324.7C170.3 324.7 185.5 327.2 203.5 333.2C198.7 311 196.3 287.8 196.5 264.2C183.9 256.6 171.9 251.6 160.9 250.4C148.9 249.1 138 251.8 126.4 261L115.2 247C128.2 236.6 142.5 232 156.7 232.2C158.8 232.2 160.8 232.3 162.8 232.5C174.5 233.7 185.9 237.9 197.2 243.8C198.5 222.8 201.8 201.5 206.8 180.3C196.7 173.1 188.6 169.4 181 168.6C172.5 167.7 163.4 170.1 150.4 177.7L141.2 162.3C154.3 154.5 166.2 150.4 177.9 150.5C179.6 150.5 181.2 150.6 182.9 150.7C192.9 151.8 202.2 155.8 211.7 161.9C213.9 154.1 216.4 146.4 219.1 138.7L236.1 144.7C230.8 159.6 226.5 174.6 223.1 189.6C231.4 186.9 239.7 185.6 248.1 185.3C249.4 185.3 250.7 185.2 252 185.2C271.4 185.4 290.7 191.3 309.5 199.6L302.1 216C272.5 202.8 245.4 197.6 219 210.7C215.6 231 214.1 251.1 214.3 270.8C225.6 264.9 237.6 261.8 250.3 261.1C252 261 253.7 261 255.5 261L257.2 261C273.5 261.2 290.7 265.2 308.2 272.3L301.4 288.9C267 274.9 239 274.6 215.3 291.1C217.4 317.8 223 343.4 232.3 367.4C244 354.7 258.1 345 275.4 340.3C283 338.2 291.2 337 299.9 336.9L303.7 336.9C319.3 337.3 336.6 340.8 356 347.8C360.9 337.7 362.6 325.4 363.2 311.5C364 293.3 362.7 273 367.2 253.6L367.2 253.5C371.9 233.8 383.9 208.2 400.1 188.4C402.6 185.3 405.3 182.4 408 179.6C402.1 173.4 395.7 167.4 389 161.7C356.7 134.5 316.2 114.8 278.5 107.2C265 104.5 250.5 103.2 235.8 103.3Z" class="" fill="url(#delapouite-cabbage-gradient-4)" stroke="#000000" stroke-opacity="1" stroke-width="2"></path><path d="M43.49 174.6C30.11 206.8 21.63 258.8 24.94 309.8C28.52 365.1 45.79 418.7 80.87 446.6C104.9 465.6 149.1 478.9 188.4 477.7C192.7 477.5 196.9 477.2 201.1 476.8C202.4 474.6 203.7 472.1 205 469.4C154.8 467.1 118.5 446.8 93.99 422.2C67.59 395.8 54.52 364.9 49.64 345.4L67.1 341C71.21 357.5 83.23 385.9 106.8 409.5C129.8 432.5 163.4 451.4 213.4 451.6C217.6 442.3 222.1 432.5 227.2 423.1L227.1 423C214.5 413.4 204.5 403.8 195.3 400.3C187.1 397.2 176.2 399.4 164.3 401.7C158.4 402.9 152.3 404.1 145.9 403.7C139.5 403.3 132.3 400.8 127.2 395.1L127.1 395C121.5 388.6 120.1 380.4 120.1 372.6C120.2 364.9 121.6 356.9 123.1 349.2C126.2 333.6 128.6 318.3 126.5 312.7C124.6 307.6 115.2 301.8 103.3 295.8C97.35 292.8 91.1 289.6 85.49 285.4C79.87 281.1 74.64 275.3 72.53 267.5C69.52 256.4 73.83 246.5 76.75 237.8C79.67 229.1 81.08 221.7 80.28 219.3C74.52 202.1 60.92 184 43.49 174.6Z" class="" fill="url(#delapouite-cabbage-gradient-5)" stroke="#000000" stroke-opacity="1" stroke-width="2"></path><path d="M445.5 178.2C442.4 178.3 439.3 179.3 435.8 181C428.8 184.4 421.1 191.2 414.1 199.8C400 217 388.5 241.5 384.8 257.7C381.1 273.5 382 292.8 381.2 312.3C380.3 331.7 377.6 352 364 368.3C350.1 384.8 329.4 388.6 310.4 391.7C291.5 394.8 273.9 397.4 262.5 406.3C250.2 415.9 238.7 439.7 228.8 461.3C226 467.4 223.3 473.2 220.5 478.7C278 462.2 326.9 438.2 363.5 404.6C403.4 367.9 429 319.8 435.7 255L453.7 256.8C446.5 325.4 418.6 378.4 375.7 417.9C339.6 451.1 293.2 474.8 239.9 491.6C321.2 492.7 385 463.4 428.2 409L428.3 409C452.3 378.8 476.2 327.4 484.6 280.7C488.8 257.4 489.1 235.2 484.3 217.7C479.6 200.2 470.6 187.5 454.7 180.1C451.9 178.8 449.3 178.2 446.7 178.2Z" class="" fill="url(#delapouite-cabbage-gradient-6)" stroke="#000000" stroke-opacity="1" stroke-width="2"></path><path d="M158.2 342.7C152.4 342.7 147.2 343.3 142.7 344.3L142.6 344.3C142 347.1 141.3 349.9 140.8 352.7C139.3 360.2 138.1 367.3 138.1 372.7C138.1 378.2 139.2 381.4 140.6 383.1C142.3 384.9 143.7 385.5 147 385.7C150.3 385.9 155.2 385.2 160.9 384.1C172.2 381.8 186.8 377.9 201.7 383.5C211.7 387.2 219.8 393.7 227.5 400.1C219.8 385.3 213.6 369.8 208.8 353.7L208.6 354.2C187.5 346 171.1 342.8 158.2 342.7Z" class="" fill="url(#delapouite-cabbage-gradient-7)" stroke="#000000" stroke-opacity="1" stroke-width="2"></path><path d="M300.1 355C292.8 355.1 286.2 356 280.2 357.7C263.9 362.2 251.2 371.8 240.3 385.6C242.1 389.4 244.1 393.1 246.1 396.8C247.8 395.2 249.6 393.6 251.5 392.1C268.1 379.1 289.1 377 307.6 374C322.1 371.6 334.6 368.9 343.6 362.6C328.3 357.6 314.9 355.2 303.2 355L300.1 355Z" class="" fill="url(#delapouite-cabbage-gradient-8)" stroke="#000000" stroke-opacity="1" stroke-width="2"></path></g></g></svg>