<svg xmlns="http://www.w3.org/2000/svg" viewBox="0 0 512 512" style="height: 512px; width: 512px;"><defs><radialGradient id="delapouite-coffee-beans-gradient-1"><stop offset="0%" stop-color="#8b572a" stop-opacity="1"></stop><stop offset="100%" stop-color="#b57204" stop-opacity="1"></stop></radialGradient><radialGradient id="delapouite-coffee-beans-gradient-2"><stop offset="0%" stop-color="#7ed321" stop-opacity="1"></stop><stop offset="100%" stop-color="#417505" stop-opacity="1"></stop></radialGradient><radialGradient id="delapouite-coffee-beans-gradient-3"><stop offset="0%" stop-color="#8b572a" stop-opacity="1"></stop><stop offset="100%" stop-color="#b57204" stop-opacity="1"></stop></radialGradient><radialGradient id="delapouite-coffee-beans-gradient-4"><stop offset="0%" stop-color="#f8e71c" stop-opacity="1"></stop><stop offset="100%" stop-color="#f5a623" stop-opacity="1"></stop></radialGradient><radialGradient id="delapouite-coffee-beans-gradient-5"><stop offset="0%" stop-color="#b57204" stop-opacity="1"></stop><stop offset="100%" stop-color="#512907" stop-opacity="1"></stop></radialGradient><radialGradient id="delapouite-coffee-beans-gradient-6"><stop offset="0%" stop-color="#f8e71c" stop-opacity="1"></stop><stop offset="100%" stop-color="#f5a623" stop-opacity="1"></stop></radialGradient><radialGradient id="delapouite-coffee-beans-gradient-7"><stop offset="0%" stop-color="#48baff" stop-opacity="1"></stop><stop offset="100%" stop-color="#4a90e2" stop-opacity="1"></stop></radialGradient><radialGradient id="delapouite-coffee-beans-gradient-8"><stop offset="0%" stop-color="#8b572a" stop-opacity="1"></stop><stop offset="100%" stop-color="#532b09" stop-opacity="1"></stop></radialGradient><radialGradient id="delapouite-coffee-beans-gradient-9"><stop offset="0%" stop-color="#f8e71c" stop-opacity="1"></stop><stop offset="100%" stop-color="#f5a623" stop-opacity="1"></stop></radialGradient><radialGradient id="delapouite-coffee-beans-gradient-18"><stop offset="0%" stop-color="#d0021b" stop-opacity="1"></stop><stop offset="100%" stop-color="#a50215" stop-opacity="1"></stop></radialGradient><radialGradient id="delapouite-coffee-beans-gradient-19"><stop offset="0%" stop-color="#48baff" stop-opacity="1"></stop><stop offset="100%" stop-color="#4a90e2" stop-opacity="1"></stop></radialGradient><radialGradient id="delapouite-coffee-beans-gradient-22"><stop offset="0%" stop-color="#fc88fc" stop-opacity="1"></stop><stop offset="100%" stop-color="#bd10e0" stop-opacity="1"></stop></radialGradient><radialGradient id="delapouite-coffee-beans-gradient-25"><stop offset="0%" stop-color="#9b9b9b" stop-opacity="1"></stop><stop offset="100%" stop-color="#4a4a4a" stop-opacity="1"></stop></radialGradient><radialGradient id="delapouite-coffee-beans-gradient-26"><stop offset="0%" stop-color="#9b9b9b" stop-opacity="1"></stop><stop offset="100%" stop-color="#4a4a4a" stop-opacity="1"></stop></radialGradient><radialGradient id="delapouite-coffee-beans-gradient-27"><stop offset="0%" stop-color="#9b9b9b" stop-opacity="1"></stop><stop offset="100%" stop-color="#4a4a4a" stop-opacity="1"></stop></radialGradient><radialGradient id="delapouite-coffee-beans-gradient-28"><stop offset="0%" stop-color="#9b9b9b" stop-opacity="1"></stop><stop offset="100%" stop-color="#4a4a4a" stop-opacity="1"></stop></radialGradient><radialGradient id="delapouite-coffee-beans-gradient-29"><stop offset="0%" stop-color="#9b9b9b" stop-opacity="1"></stop><stop offset="100%" stop-color="#4a4a4a" stop-opacity="1"></stop></radialGradient><radialGradient id="delapouite-coffee-beans-gradient-30"><stop offset="0%" stop-color="#9b9b9b" stop-opacity="1"></stop><stop offset="100%" stop-color="#4a4a4a" stop-opacity="1"></stop></radialGradient><radialGradient id="delapouite-coffee-beans-gradient-31"><stop offset="0%" stop-color="#9b9b9b" stop-opacity="1"></stop><stop offset="100%" stop-color="#4a4a4a" stop-opacity="1"></stop></radialGradient><radialGradient id="delapouite-coffee-beans-gradient-32"><stop offset="0%" stop-color="#9b9b9b" stop-opacity="1"></stop><stop offset="100%" stop-color="#4a4a4a" stop-opacity="1"></stop></radialGradient><radialGradient id="delapouite-coffee-beans-gradient-33"><stop offset="0%" stop-color="#9b9b9b" stop-opacity="1"></stop><stop offset="100%" stop-color="#4a4a4a" stop-opacity="1"></stop></radialGradient><radialGradient id="delapouite-coffee-beans-gradient-34"><stop offset="0%" stop-color="#9b9b9b" stop-opacity="1"></stop><stop offset="100%" stop-color="#4a4a4a" stop-opacity="1"></stop></radialGradient><radialGradient id="delapouite-coffee-beans-gradient-35"><stop offset="0%" stop-color="#9b9b9b" stop-opacity="1"></stop><stop offset="100%" stop-color="#4a4a4a" stop-opacity="1"></stop></radialGradient><radialGradient id="delapouite-coffee-beans-gradient-36"><stop offset="0%" stop-color="#9b9b9b" stop-opacity="1"></stop><stop offset="100%" stop-color="#4a4a4a" stop-opacity="1"></stop></radialGradient><radialGradient id="delapouite-coffee-beans-gradient-37"><stop offset="0%" stop-color="#9b9b9b" stop-opacity="1"></stop><stop offset="100%" stop-color="#4a4a4a" stop-opacity="1"></stop></radialGradient></defs><g class="" transform="translate(0,0)" style=""><g><path d="M203.043 26.648C194.15 26.71 185.371 27.974 176.85 30.521C168.396 33.051 160.608 36.718 153.54 41.388C161.262 61.01 180.975 85.918 203.81 107.181C227.652 129.383 254.99 148.246 272.645 156.753L272.852 156.853L273.055 156.956C289.279 165.291 300.765 178.409 307.395 192.88C311.665 202.198 314.152 211.958 315.602 221.88C328.602 211.74 342.306 203.62 356.238 197.727C355.178 179.417 351.15 160.217 343.814 140.992C328.428 100.672 301.554 68.212 271.119 48.416C249.244 34.188 225.769 26.49 203.042 26.648Z" class="" fill="url(#delapouite-coffee-beans-gradient-2)" stroke="#000000" stroke-opacity="1" stroke-width="2"></path><path d="M126.635 68.953C121.522 76.887 117.329 85.733 114.143 95.34C103.503 127.414 104.366 167.648 119.753 207.97C129.065 232.373 142.59 253.89 158.563 271.47C174.299 276.178 189.863 283.452 204.483 293.322C215.779 300.949 225.845 309.679 234.568 319.174C237.415 319.866 240.263 320.456 243.108 320.92C248.528 306.782 255.563 292.716 264.232 279.07C269.585 270.646 275.348 262.716 281.442 255.313C281.514 250.121 281.472 245.09 281.225 240.287C280.555 227.297 278.475 216.187 274.665 207.873C270.857 199.559 265.895 193.751 256.605 188.979L257.015 189.181C234.137 178.156 205.568 158.009 179.275 133.526C158.375 114.066 138.987 92.268 126.635 68.952Z" class="selected" fill="url(#delapouite-coffee-beans-gradient-3)" stroke="#000000" stroke-opacity="1" stroke-width="2"></path><path d="M406.387 204.678C392.88 204.788 378.591 207.925 364.135 213.926C333.295 226.728 302.329 252.676 279.425 288.723C267.708 307.165 259.288 326.393 254.053 345.246C274.603 379.724 279.65 419.328 264.846 452.588C267.263 456.032 269.926 459.245 272.832 462.201C294.476 443.527 319.42 428.058 337.148 412.173C346.838 403.493 354.175 394.898 358.252 386.713C362.329 378.526 363.732 371.016 361.612 360.79L361.488 360.195L361.406 359.595C353.353 301.301 367.481 267.043 388.07 246.085C404.626 229.235 421.106 220.36 432.475 208.643C424.261 205.913 415.503 204.603 406.387 204.678Z" class="" fill="url(#delapouite-coffee-beans-gradient-4)" stroke="#000000" stroke-opacity="1" stroke-width="2"></path><path d="M463.133 228.631C446.503 249.301 426 258.848 413.75 271.317C399.674 285.645 389.957 302.892 397.035 354.421C400.443 371.941 397.448 388.767 390.477 402.763C383.38 417.01 372.767 428.595 361.172 438.985C343.559 454.767 323.242 468.281 306.246 481.465C325.521 486.472 347.466 484.049 369.811 474.772C400.651 461.972 431.619 436.022 454.521 399.975C477.426 363.927 487.761 324.868 486.249 291.512C485.093 266.002 477.214 244.144 463.134 228.632Z" class="" fill="url(#delapouite-coffee-beans-gradient-5)" stroke="#000000" stroke-opacity="1" stroke-width="2"></path><path d="M397.035 354.421C396.975 354.106 396.927 353.793 396.861 353.478L397.069 354.671C397.059 354.586 397.049 354.506 397.036 354.421Z" class="" fill="url(#delapouite-coffee-beans-gradient-6)" stroke="#000000" stroke-opacity="1" stroke-width="2"></path><path d="M116.812 282.997C98.429 282.831 81.112 286.862 66.537 294.804C66.637 294.807 66.724 294.814 66.824 294.817C75.454 295.122 86.288 294.104 98.762 295.807C111.235 297.511 125.847 303.175 136.916 315.7C147.986 328.224 155.576 345.98 160.863 371.48L160.988 372.074L161.07 372.676C163.523 390.468 174.856 400.761 194.504 410.398C211.268 418.621 232.791 424.493 253.221 430.471C262.371 389.471 240.661 339.465 194.411 308.241C169.473 291.405 142.137 283.226 116.814 282.997Z" class="" fill="url(#delapouite-coffee-beans-gradient-7)" stroke="#000000" stroke-opacity="1" stroke-width="2"></path><path d="M35.734 324.444C10.464 367.974 30.73 431.849 85.84 469.056C140.065 505.666 205.626 501.332 237.18 463.356C218.744 458.102 197.844 452.136 178.65 442.722C153.9 430.582 130.31 410.182 125.55 378.5C121.017 356.8 114.96 345.22 109.94 339.54C104.9 333.833 100.97 332.445 93.89 331.48C86.81 330.512 77.08 331.203 65.557 330.797C56.577 330.481 46.041 329.192 35.734 324.445Z" class="" fill="url(#delapouite-coffee-beans-gradient-8)" stroke="#000000" stroke-opacity="1" stroke-width="2"></path><path d="M125.551 378.499C125.573 378.599 125.595 378.691 125.616 378.792L125.409 377.596C125.451 377.9 125.506 378.196 125.552 378.5Z" class="" fill="url(#delapouite-coffee-beans-gradient-9)" stroke="#000000" stroke-opacity="1" stroke-width="2"></path></g></g></svg>