<svg xmlns="http://www.w3.org/2000/svg" viewBox="0 0 512 512" style="height: 512px; width: 512px;"><defs><radialGradient id="gradient-2"><stop offset="0%" stop-color="#417505" stop-opacity="1"></stop><stop offset="100%" stop-color="#7ed321" stop-opacity="1"></stop></radialGradient><radialGradient id="gradient-3"><stop offset="0%" stop-color="#f9ba52" stop-opacity="1"></stop><stop offset="100%" stop-color="#ff9f01" stop-opacity="1"></stop></radialGradient><radialGradient id="gradient-5"><stop offset="0%" stop-color="#ffe0af" stop-opacity="1"></stop><stop offset="100%" stop-color="#fff5e2" stop-opacity="1"></stop></radialGradient><radialGradient id="gradient-6"><stop offset="0%" stop-color="#ff8796" stop-opacity="1"></stop><stop offset="100%" stop-color="#ff425b" stop-opacity="1"></stop></radialGradient><radialGradient id="gradient-7"><stop offset="0%" stop-color="#c9c9c9" stop-opacity="1"></stop><stop offset="100%" stop-color="#9b9b9b" stop-opacity="1"></stop></radialGradient><radialGradient id="gradient-8"><stop offset="0%" stop-color="#ffe0af" stop-opacity="1"></stop><stop offset="100%" stop-color="#b3905a" stop-opacity="1"></stop></radialGradient><radialGradient id="gradient-9"><stop offset="0%" stop-color="#f8e71c" stop-opacity="1"></stop><stop offset="100%" stop-color="#f5a623" stop-opacity="1"></stop></radialGradient><radialGradient id="gradient-10"><stop offset="0%" stop-color="#8b572a" stop-opacity="1"></stop><stop offset="100%" stop-color="#b57204" stop-opacity="1"></stop></radialGradient><radialGradient id="gradient-11"><stop offset="0%" stop-color="#417505" stop-opacity="1"></stop><stop offset="100%" stop-color="#7ed321" stop-opacity="1"></stop></radialGradient><radialGradient id="gradient-12"><stop offset="0%" stop-color="#d0021b" stop-opacity="1"></stop><stop offset="100%" stop-color="#ff001e" stop-opacity="1"></stop></radialGradient><radialGradient id="gradient-13"><stop offset="0%" stop-color="#ffe0af" stop-opacity="1"></stop><stop offset="100%" stop-color="#d3ae72" stop-opacity="1"></stop></radialGradient><radialGradient id="gradient-14"><stop offset="0%" stop-color="#f8e71c" stop-opacity="1"></stop><stop offset="100%" stop-color="#f5a623" stop-opacity="1"></stop></radialGradient><radialGradient id="gradient-15"><stop offset="0%" stop-color="#f8e71c" stop-opacity="1"></stop><stop offset="100%" stop-color="#f5a623" stop-opacity="1"></stop></radialGradient><radialGradient id="gradient-16"><stop offset="0%" stop-color="#7ed321" stop-opacity="1"></stop><stop offset="100%" stop-color="#417505" stop-opacity="1"></stop></radialGradient><radialGradient id="gradient-17"><stop offset="0%" stop-color="#f8e71c" stop-opacity="1"></stop><stop offset="100%" stop-color="#f5a623" stop-opacity="1"></stop></radialGradient><radialGradient id="gradient-18"><stop offset="0%" stop-color="#f8e71c" stop-opacity="1"></stop><stop offset="100%" stop-color="#f5a623" stop-opacity="1"></stop></radialGradient><radialGradient id="gradient-19"><stop offset="0%" stop-color="#f8e71c" stop-opacity="1"></stop><stop offset="100%" stop-color="#f5a623" stop-opacity="1"></stop></radialGradient><radialGradient id="gradient-20"><stop offset="0%" stop-color="#f8e71c" stop-opacity="1"></stop><stop offset="100%" stop-color="#f5a623" stop-opacity="1"></stop></radialGradient><radialGradient id="gradient-21"><stop offset="0%" stop-color="#f8e71c" stop-opacity="1"></stop><stop offset="100%" stop-color="#f5a623" stop-opacity="1"></stop></radialGradient><radialGradient id="gradient-22"><stop offset="0%" stop-color="#f8e71c" stop-opacity="1"></stop><stop offset="100%" stop-color="#f5a623" stop-opacity="1"></stop></radialGradient><radialGradient id="gradient-23"><stop offset="0%" stop-color="#f8e71c" stop-opacity="1"></stop><stop offset="100%" stop-color="#f5a623" stop-opacity="1"></stop></radialGradient><radialGradient id="gradient-24"><stop offset="0%" stop-color="#f8e71c" stop-opacity="1"></stop><stop offset="100%" stop-color="#f5a623" stop-opacity="1"></stop></radialGradient><radialGradient id="gradient-25"><stop offset="0%" stop-color="#f8e71c" stop-opacity="1"></stop><stop offset="100%" stop-color="#f5a623" stop-opacity="1"></stop></radialGradient><radialGradient id="gradient-26"><stop offset="0%" stop-color="#f8e71c" stop-opacity="1"></stop><stop offset="100%" stop-color="#f5a623" stop-opacity="1"></stop></radialGradient><radialGradient id="gradient-27"><stop offset="0%" stop-color="#f8e71c" stop-opacity="1"></stop><stop offset="100%" stop-color="#f5a623" stop-opacity="1"></stop></radialGradient><radialGradient id="gradient-28"><stop offset="0%" stop-color="#f8e71c" stop-opacity="1"></stop><stop offset="100%" stop-color="#f5a623" stop-opacity="1"></stop></radialGradient><radialGradient id="gradient-29"><stop offset="0%" stop-color="#f8e71c" stop-opacity="1"></stop><stop offset="100%" stop-color="#f5a623" stop-opacity="1"></stop></radialGradient><radialGradient id="gradient-30"><stop offset="0%" stop-color="#f8e71c" stop-opacity="1"></stop><stop offset="100%" stop-color="#f5a623" stop-opacity="1"></stop></radialGradient><radialGradient id="gradient-31"><stop offset="0%" stop-color="#f8e71c" stop-opacity="1"></stop><stop offset="100%" stop-color="#f5a623" stop-opacity="1"></stop></radialGradient><radialGradient id="gradient-32"><stop offset="0%" stop-color="#f8e71c" stop-opacity="1"></stop><stop offset="100%" stop-color="#f5a623" stop-opacity="1"></stop></radialGradient><radialGradient id="gradient-33"><stop offset="0%" stop-color="#7ed321" stop-opacity="1"></stop><stop offset="100%" stop-color="#417505" stop-opacity="1"></stop></radialGradient><radialGradient id="gradient-34"><stop offset="0%" stop-color="#f8e71c" stop-opacity="1"></stop><stop offset="100%" stop-color="#f5a623" stop-opacity="1"></stop></radialGradient><radialGradient id="gradient-35"><stop offset="0%" stop-color="#f8e71c" stop-opacity="1"></stop><stop offset="100%" stop-color="#f5a623" stop-opacity="1"></stop></radialGradient><radialGradient id="gradient-36"><stop offset="0%" stop-color="#f8e71c" stop-opacity="1"></stop><stop offset="100%" stop-color="#f5a623" stop-opacity="1"></stop></radialGradient></defs><g class="" transform="translate(-9,-1)" style="touch-action: none;"><g><path d="M228.063 16.72C227.22 16.77 226.389 16.938 225.593 17.22C209.517 22.845 198.043 27.99 189.438 39.03C182.961 47.343 178.454 57.884 173.375 73.437C162.062 61.145 146.643 50.951 129.5 42.625C105.683 31.057 78.417 23.165 53.344 19.845C46.477 18.928 41.192 25.788 43.831 32.194C44.497 33.811 45.62 35.199 47.062 36.188C68.747 51.122 87.587 65.456 100.469 79.875C110.433 91.03 116.679 101.885 118.905 113.405C86.015 109.7 56.155 116.875 19.499 136.655C13.376 139.898 13.06 148.552 18.93 152.233C20.627 153.297 22.631 153.765 24.624 153.562C58.976 150.297 94.108 149.754 121.187 154.187C134.727 156.404 146.194 159.91 154.405 164.437C157.573 166.184 160.225 168.007 162.405 169.969C167.77 161.839 174.438 154.331 181.843 147.749C194.933 136.112 210.635 127.111 226.873 123.655C215.547 105.415 212.735 93.425 214.03 82.155C215.618 68.342 224.597 53.262 236.594 29.811C239.756 23.647 235.06 16.371 228.14 16.714C228.115 16.715 228.089 16.717 228.064 16.718Z" class="selected" fill="url(#gradient-2)" stroke="#000000" stroke-opacity="1" stroke-width="3"></path><path d="M241.969 140.156C241.442 140.153 240.907 140.172 240.374 140.186C225.449 140.614 207.859 148.704 193.78 161.219C177.692 175.519 166.803 195.036 167 211.219C167.39 243.394 185.688 278.989 214.344 313.343C242.999 347.697 281.644 380.653 320.719 408.063C359.792 435.469 399.379 457.379 429.499 469.999C444.559 476.309 457.356 480.274 465.812 481.499C469.77 482.073 472.609 481.947 473.999 481.687C474.064 480.889 474.152 479.85 474.062 478.467C473.857 475.354 473.248 470.963 472.218 465.717C470.158 455.227 466.446 441.163 461.248 424.905C450.851 392.389 434.498 351.005 413.56 309.968C400 283.388 384.475 256.952 367.467 233.154C353.274 250.471 355.433 251.139 317.747 269.874L310.622 255.561C350.052 235.961 340.844 240.314 357.685 219.967C351.45 211.901 345.035 204.227 338.465 197.06C335.187 193.482 331.875 190.02 328.528 186.716C304.412 220.098 284.035 228.09 252.092 241.84L244.967 225.31C277.93 211.12 292.552 206.988 315.185 174.496C293.245 155.836 270.128 143.532 246.591 140.466C245.086 140.269 243.544 140.162 241.966 140.152Z" class="" fill="url(#gradient-3)" stroke="#000000" stroke-opacity="1" stroke-width="3"></path></g></g></svg>