<svg xmlns="http://www.w3.org/2000/svg" viewBox="0 0 512 512" style="height: 512px; width: 512px;"><defs><radialGradient id="gradient-2"><stop offset="0%" stop-color="#ffe0af" stop-opacity="1"></stop><stop offset="100%" stop-color="#d3ae72" stop-opacity="1"></stop></radialGradient><linearGradient x1="0" x2="1" y1="0" y2="1" id="gradient-3"><stop offset="0%" stop-color="#9b9b9b" stop-opacity="1"></stop><stop offset="100%" stop-color="#9b9b9b" stop-opacity="1"></stop></linearGradient><radialGradient id="gradient-4"><stop offset="0%" stop-color="#9b9b9b" stop-opacity="1"></stop><stop offset="100%" stop-color="#c9c9c9" stop-opacity="1"></stop></radialGradient><radialGradient id="gradient-5"><stop offset="0%" stop-color="#9b9b9b" stop-opacity="1"></stop><stop offset="100%" stop-color="#c9c9c9" stop-opacity="1"></stop></radialGradient><radialGradient id="gradient-6"><stop offset="0%" stop-color="#9b9b9b" stop-opacity="1"></stop><stop offset="100%" stop-color="#c9c9c9" stop-opacity="1"></stop></radialGradient><radialGradient id="gradient-7"><stop offset="0%" stop-color="#9b9b9b" stop-opacity="1"></stop><stop offset="100%" stop-color="#c9c9c9" stop-opacity="1"></stop></radialGradient><radialGradient id="gradient-8"><stop offset="0%" stop-color="#9b9b9b" stop-opacity="1"></stop><stop offset="100%" stop-color="#c9c9c9" stop-opacity="1"></stop></radialGradient><radialGradient id="gradient-9"><stop offset="0%" stop-color="#f8e71c" stop-opacity="1"></stop><stop offset="100%" stop-color="#f5a623" stop-opacity="1"></stop></radialGradient><radialGradient id="gradient-10"><stop offset="0%" stop-color="#8b572a" stop-opacity="1"></stop><stop offset="100%" stop-color="#b57204" stop-opacity="1"></stop></radialGradient><radialGradient id="gradient-11"><stop offset="0%" stop-color="#417505" stop-opacity="1"></stop><stop offset="100%" stop-color="#7ed321" stop-opacity="1"></stop></radialGradient><radialGradient id="gradient-12"><stop offset="0%" stop-color="#d0021b" stop-opacity="1"></stop><stop offset="100%" stop-color="#ff001e" stop-opacity="1"></stop></radialGradient><radialGradient id="gradient-13"><stop offset="0%" stop-color="#ffe0af" stop-opacity="1"></stop><stop offset="100%" stop-color="#d3ae72" stop-opacity="1"></stop></radialGradient><radialGradient id="gradient-14"><stop offset="0%" stop-color="#f8e71c" stop-opacity="1"></stop><stop offset="100%" stop-color="#f5a623" stop-opacity="1"></stop></radialGradient><radialGradient id="gradient-15"><stop offset="0%" stop-color="#f8e71c" stop-opacity="1"></stop><stop offset="100%" stop-color="#f5a623" stop-opacity="1"></stop></radialGradient><radialGradient id="gradient-16"><stop offset="0%" stop-color="#7ed321" stop-opacity="1"></stop><stop offset="100%" stop-color="#417505" stop-opacity="1"></stop></radialGradient><radialGradient id="gradient-17"><stop offset="0%" stop-color="#f8e71c" stop-opacity="1"></stop><stop offset="100%" stop-color="#f5a623" stop-opacity="1"></stop></radialGradient><radialGradient id="gradient-18"><stop offset="0%" stop-color="#f8e71c" stop-opacity="1"></stop><stop offset="100%" stop-color="#f5a623" stop-opacity="1"></stop></radialGradient><radialGradient id="gradient-19"><stop offset="0%" stop-color="#f8e71c" stop-opacity="1"></stop><stop offset="100%" stop-color="#f5a623" stop-opacity="1"></stop></radialGradient><radialGradient id="gradient-20"><stop offset="0%" stop-color="#f8e71c" stop-opacity="1"></stop><stop offset="100%" stop-color="#f5a623" stop-opacity="1"></stop></radialGradient><radialGradient id="gradient-21"><stop offset="0%" stop-color="#f8e71c" stop-opacity="1"></stop><stop offset="100%" stop-color="#f5a623" stop-opacity="1"></stop></radialGradient><radialGradient id="gradient-22"><stop offset="0%" stop-color="#f8e71c" stop-opacity="1"></stop><stop offset="100%" stop-color="#f5a623" stop-opacity="1"></stop></radialGradient><radialGradient id="gradient-23"><stop offset="0%" stop-color="#f8e71c" stop-opacity="1"></stop><stop offset="100%" stop-color="#f5a623" stop-opacity="1"></stop></radialGradient><radialGradient id="gradient-24"><stop offset="0%" stop-color="#f8e71c" stop-opacity="1"></stop><stop offset="100%" stop-color="#f5a623" stop-opacity="1"></stop></radialGradient><radialGradient id="gradient-25"><stop offset="0%" stop-color="#f8e71c" stop-opacity="1"></stop><stop offset="100%" stop-color="#f5a623" stop-opacity="1"></stop></radialGradient><radialGradient id="gradient-26"><stop offset="0%" stop-color="#f8e71c" stop-opacity="1"></stop><stop offset="100%" stop-color="#f5a623" stop-opacity="1"></stop></radialGradient><radialGradient id="gradient-27"><stop offset="0%" stop-color="#f8e71c" stop-opacity="1"></stop><stop offset="100%" stop-color="#f5a623" stop-opacity="1"></stop></radialGradient><radialGradient id="gradient-28"><stop offset="0%" stop-color="#f8e71c" stop-opacity="1"></stop><stop offset="100%" stop-color="#f5a623" stop-opacity="1"></stop></radialGradient><radialGradient id="gradient-29"><stop offset="0%" stop-color="#f8e71c" stop-opacity="1"></stop><stop offset="100%" stop-color="#f5a623" stop-opacity="1"></stop></radialGradient><radialGradient id="gradient-30"><stop offset="0%" stop-color="#f8e71c" stop-opacity="1"></stop><stop offset="100%" stop-color="#f5a623" stop-opacity="1"></stop></radialGradient><radialGradient id="gradient-31"><stop offset="0%" stop-color="#f8e71c" stop-opacity="1"></stop><stop offset="100%" stop-color="#f5a623" stop-opacity="1"></stop></radialGradient><radialGradient id="gradient-32"><stop offset="0%" stop-color="#f8e71c" stop-opacity="1"></stop><stop offset="100%" stop-color="#f5a623" stop-opacity="1"></stop></radialGradient><radialGradient id="gradient-33"><stop offset="0%" stop-color="#7ed321" stop-opacity="1"></stop><stop offset="100%" stop-color="#417505" stop-opacity="1"></stop></radialGradient><radialGradient id="gradient-34"><stop offset="0%" stop-color="#f8e71c" stop-opacity="1"></stop><stop offset="100%" stop-color="#f5a623" stop-opacity="1"></stop></radialGradient><radialGradient id="gradient-35"><stop offset="0%" stop-color="#f8e71c" stop-opacity="1"></stop><stop offset="100%" stop-color="#f5a623" stop-opacity="1"></stop></radialGradient><radialGradient id="gradient-36"><stop offset="0%" stop-color="#f8e71c" stop-opacity="1"></stop><stop offset="100%" stop-color="#f5a623" stop-opacity="1"></stop></radialGradient></defs><g class="" transform="translate(-9,0)" style="touch-action: none;"><g><path d="M250.97 29.357C144.413 29.147 39.164 82.097 47.49 193.41C186.4 204.81 324.2 202.303 461.664 194.072C472.244 86.382 360.911 29.574 250.971 29.357Z" class="" fill="url(#gradient-2)" stroke="#000000" stroke-opacity="1" stroke-width="3"></path><path d="M310.846 53.353C322.011 53.353 331.062 57.821 331.062 63.333C331.062 68.846 322.011 73.314 310.846 73.314C299.68 73.314 290.629 68.846 290.629 63.334C290.629 57.821 299.68 53.354 310.846 53.354Z" class="selected" fill="url(#gradient-3)" stroke="#000000" stroke-opacity="1" stroke-width="3"></path><path d="M198.994 73.183C210.159 73.183 219.211 77.652 219.211 83.163C219.211 88.676 210.159 93.144 198.994 93.144C187.829 93.144 178.778 88.676 178.777 83.164C178.777 77.652 187.829 73.184 198.994 73.184Z" class="" fill="url(#gradient-4)" stroke="#000000" stroke-opacity="1" stroke-width="3"></path><path d="M377.051 107.203C388.216 107.203 397.267 111.671 397.268 117.183C397.268 122.695 388.216 127.163 377.051 127.163C365.886 127.163 356.834 122.695 356.834 117.183C356.834 111.671 365.886 107.203 377.051 107.203Z" class="" fill="url(#gradient-5)" stroke="#000000" stroke-opacity="1" stroke-width="3"></path><path d="M103.461 128.738C114.626 128.738 123.677 133.206 123.678 138.718C123.678 144.231 114.626 148.698 103.461 148.698C92.296 148.698 83.244 144.231 83.244 138.718C83.244 133.206 92.296 128.738 103.461 128.738Z" class="" fill="url(#gradient-6)" stroke="#000000" stroke-opacity="1" stroke-width="3"></path><path d="M417.231 158.781C428.396 158.781 437.447 163.249 437.447 168.761C437.447 174.273 428.396 178.741 417.23 178.741C406.065 178.741 397.014 174.273 397.014 168.761C397.014 163.249 406.065 158.781 417.23 158.781Z" class="" fill="url(#gradient-7)" stroke="#000000" stroke-opacity="1" stroke-width="3"></path><path d="M279.321 166.826C290.487 166.826 299.539 171.296 299.537 176.808C299.537 182.32 290.486 186.788 279.32 186.788C268.155 186.788 259.104 182.32 259.104 176.808C259.102 171.295 268.154 166.826 279.32 166.826Z" class="" fill="url(#gradient-8)" stroke="#000000" stroke-opacity="1" stroke-width="3"></path><path d="M57.618 212.339C38.654 212.744 48.59 236.824 72.001 236.912C200.555 247.12 308.674 246.598 444.118 234.492C460.214 231.784 469.33 221.405 454.942 212.523C323.363 220.193 191.132 222.568 57.618 212.339Z" class="" fill="url(#gradient-9)" stroke="#000000" stroke-opacity="1" stroke-width="3"></path><path d="M460.642 252.951C329.418 266.551 183.048 263.476 70.577 254.855C23.594 248.629 22.702 301.64 53.563 307.164C199.743 321.827 325.389 317.899 468.7 306.634C493.707 305.49 483.254 251.306 460.642 252.951Z" class="" fill="url(#gradient-10)" stroke="#000000" stroke-opacity="1" stroke-width="3"></path><path d="M20.986 366.679L36.318 376.113C42.66 367.697 54.194 344.063 69.637 343.921C88.759 343.747 91.982 383.223 111.617 383.024C134.224 382.796 149.445 351.476 164.064 352.142C186.154 353.15 190.397 388.042 207.621 388.07C231.71 388.11 239.06 351.68 254.426 352.736C275.884 354.211 287.672 381.01 305.305 381.914C324.309 382.888 335.959 348.887 348.57 349.166C365.18 349.532 376.88 381.626 402.81 382.359C418.155 382.793 432.504 344.948 439.815 345.544C454.232 346.718 466.364 366.092 475.9 380.379L491.014 370.603C478.985 354.387 460.897 326.175 438.456 326.586C417.549 326.968 412.508 364.7 400.354 364.529C377.074 364.201 366.598 332.365 347.756 331.183C328.4 329.969 317.281 364.819 304.403 363.951C285.449 362.674 277.1 334.791 254.928 334.034C235.308 333.364 220.807 371.703 208.135 370.078C189.996 367.752 187.909 333.7 164.818 332.242C145.708 331.035 127.256 362.846 114.504 362.241C96.979 361.408 89.261 322.017 69.094 322.255C47.268 322.513 29.949 352.595 20.986 366.679Z" class="" fill="url(#gradient-11)" stroke="#000000" stroke-opacity="1" stroke-width="3"></path><path d="M68.539 402.853C60.197 403.539 50.341 407.104 46.689 415.277C44.237 421.939 65.862 423.835 67.803 423.972C196.418 432.076 322.157 432.232 457.603 422.627C466.828 421.972 471.538 419.48 472.855 418.213C475.979 410.005 449.687 404.278 447.037 404.209C262.027 403.031 167.78 406.418 68.539 402.853Z" class="" fill="url(#gradient-12)" stroke="#000000" stroke-opacity="1" stroke-width="3"></path><path d="M464.094 440.045C337.308 447.002 180.914 449.429 55.971 440.752L56.492 479.422C192.409 484.039 332.139 483.412 463.15 479.334Z" class="" fill="url(#gradient-13)" stroke="#000000" stroke-opacity="1" stroke-width="3"></path></g></g></svg>