<svg xmlns="http://www.w3.org/2000/svg" viewBox="0 0 512 512" style="height: 512px; width: 512px;"><defs><radialGradient id="gradient-2"><stop offset="0%" stop-color="#c48900" stop-opacity="1"></stop><stop offset="100%" stop-color="#e17600" stop-opacity="1"></stop></radialGradient><radialGradient id="gradient-3"><stop offset="0%" stop-color="#916500" stop-opacity="1"></stop><stop offset="100%" stop-color="#984f01" stop-opacity="1"></stop></radialGradient><linearGradient x1="0" x2="1" y1="0" y2="1" id="gradient-4"><stop offset="0%" stop-color="#000000" stop-opacity="1"></stop><stop offset="100%" stop-color="#d0021b" stop-opacity="1"></stop></linearGradient><radialGradient id="gradient-9"><stop offset="0%" stop-color="#9b9b9b" stop-opacity="1"></stop><stop offset="100%" stop-color="#000000" stop-opacity="1"></stop></radialGradient><radialGradient id="gradient-10"><stop offset="0%" stop-color="#9b9b9b" stop-opacity="1"></stop><stop offset="100%" stop-color="#c9c9c9" stop-opacity="1"></stop></radialGradient><radialGradient id="gradient-11"><stop offset="0%" stop-color="#9b9b9b" stop-opacity="1"></stop><stop offset="100%" stop-color="#c9c9c9" stop-opacity="1"></stop></radialGradient><radialGradient id="gradient-12"><stop offset="0%" stop-color="#9b9b9b" stop-opacity="1"></stop><stop offset="100%" stop-color="#c9c9c9" stop-opacity="1"></stop></radialGradient><radialGradient id="gradient-13"><stop offset="0%" stop-color="#ffffff" stop-opacity="1"></stop><stop offset="100%" stop-color="#4a4a4a" stop-opacity="1"></stop></radialGradient><radialGradient id="gradient-14"><stop offset="0%" stop-color="#417505" stop-opacity="1"></stop><stop offset="100%" stop-color="#7ed321" stop-opacity="1"></stop></radialGradient><radialGradient id="gradient-15"><stop offset="0%" stop-color="#f8e71c" stop-opacity="1"></stop><stop offset="100%" stop-color="#f5a623" stop-opacity="1"></stop></radialGradient><radialGradient id="gradient-16"><stop offset="0%" stop-color="#7ed321" stop-opacity="1"></stop><stop offset="100%" stop-color="#417505" stop-opacity="1"></stop></radialGradient><radialGradient id="gradient-17"><stop offset="0%" stop-color="#f8e71c" stop-opacity="1"></stop><stop offset="100%" stop-color="#f5a623" stop-opacity="1"></stop></radialGradient><radialGradient id="gradient-18"><stop offset="0%" stop-color="#f8e71c" stop-opacity="1"></stop><stop offset="100%" stop-color="#f5a623" stop-opacity="1"></stop></radialGradient><radialGradient id="gradient-19"><stop offset="0%" stop-color="#f8e71c" stop-opacity="1"></stop><stop offset="100%" stop-color="#f5a623" stop-opacity="1"></stop></radialGradient><radialGradient id="gradient-20"><stop offset="0%" stop-color="#f8e71c" stop-opacity="1"></stop><stop offset="100%" stop-color="#f5a623" stop-opacity="1"></stop></radialGradient><radialGradient id="gradient-21"><stop offset="0%" stop-color="#f8e71c" stop-opacity="1"></stop><stop offset="100%" stop-color="#f5a623" stop-opacity="1"></stop></radialGradient><radialGradient id="gradient-22"><stop offset="0%" stop-color="#f8e71c" stop-opacity="1"></stop><stop offset="100%" stop-color="#f5a623" stop-opacity="1"></stop></radialGradient><radialGradient id="gradient-23"><stop offset="0%" stop-color="#f8e71c" stop-opacity="1"></stop><stop offset="100%" stop-color="#f5a623" stop-opacity="1"></stop></radialGradient><radialGradient id="gradient-24"><stop offset="0%" stop-color="#f8e71c" stop-opacity="1"></stop><stop offset="100%" stop-color="#f5a623" stop-opacity="1"></stop></radialGradient><radialGradient id="gradient-25"><stop offset="0%" stop-color="#f8e71c" stop-opacity="1"></stop><stop offset="100%" stop-color="#f5a623" stop-opacity="1"></stop></radialGradient><radialGradient id="gradient-26"><stop offset="0%" stop-color="#f8e71c" stop-opacity="1"></stop><stop offset="100%" stop-color="#f5a623" stop-opacity="1"></stop></radialGradient><radialGradient id="gradient-27"><stop offset="0%" stop-color="#f8e71c" stop-opacity="1"></stop><stop offset="100%" stop-color="#f5a623" stop-opacity="1"></stop></radialGradient><radialGradient id="gradient-28"><stop offset="0%" stop-color="#f8e71c" stop-opacity="1"></stop><stop offset="100%" stop-color="#f5a623" stop-opacity="1"></stop></radialGradient><radialGradient id="gradient-29"><stop offset="0%" stop-color="#f8e71c" stop-opacity="1"></stop><stop offset="100%" stop-color="#f5a623" stop-opacity="1"></stop></radialGradient><radialGradient id="gradient-30"><stop offset="0%" stop-color="#f8e71c" stop-opacity="1"></stop><stop offset="100%" stop-color="#f5a623" stop-opacity="1"></stop></radialGradient><radialGradient id="gradient-31"><stop offset="0%" stop-color="#f8e71c" stop-opacity="1"></stop><stop offset="100%" stop-color="#f5a623" stop-opacity="1"></stop></radialGradient><radialGradient id="gradient-32"><stop offset="0%" stop-color="#f8e71c" stop-opacity="1"></stop><stop offset="100%" stop-color="#f5a623" stop-opacity="1"></stop></radialGradient><radialGradient id="gradient-33"><stop offset="0%" stop-color="#7ed321" stop-opacity="1"></stop><stop offset="100%" stop-color="#417505" stop-opacity="1"></stop></radialGradient><radialGradient id="gradient-34"><stop offset="0%" stop-color="#f8e71c" stop-opacity="1"></stop><stop offset="100%" stop-color="#f5a623" stop-opacity="1"></stop></radialGradient><radialGradient id="gradient-35"><stop offset="0%" stop-color="#f8e71c" stop-opacity="1"></stop><stop offset="100%" stop-color="#f5a623" stop-opacity="1"></stop></radialGradient><radialGradient id="gradient-36"><stop offset="0%" stop-color="#f8e71c" stop-opacity="1"></stop><stop offset="100%" stop-color="#f5a623" stop-opacity="1"></stop></radialGradient></defs><g class="" transform="translate(-1,0)" style="touch-action: none;"><g><path d="M256.03 76.47C243.698 76.172 232.617 82.65 232.97 98.938L18.655 273L18.937 279.938L18.937 458.936L30.405 456.25L186.311 419.687L191.749 437.375L221.469 434.031L218.062 412.221L287.374 395.971L296.218 406.221L318.06 407.845L317.123 389.001L439.061 360.376L439.061 360.406C440.421 360.206 441.728 359.886 442.998 359.47C443.02 359.46 443.038 359.445 443.061 359.437L463.873 354.562L471.093 352.875L471.093 345.687L489.623 198.281C498.513 181.168 483.128 151.828 450.903 158.157C455.655 138.247 411.92 130.021 398.873 140.907C402.136 122.705 361.488 99.192 346.967 119.72C351.599 96.962 300.961 78.853 288.122 99.375C285.712 85.922 270.052 76.807 256.028 76.469Z" class="" fill="url(#gradient-2)" stroke="#000000" stroke-opacity="1" stroke-width="3"></path><path d="M245.75 116.125C248.086 118.935 253.192 121.667 259.156 122.969C265.12 124.269 271.778 124.099 275.531 123.124L284.471 120.811L286.907 129.749C289.117 137.952 293.759 141.079 301.345 142.719C308.931 144.359 319.113 143.059 327.189 139.843L337.564 135.687L339.814 146.624C340.814 151.51 347.204 157.716 356.157 160.937C365.111 164.157 375.307 163.667 379.687 160.937L390.97 153.905L393.75 166.905C394.977 172.657 398.284 176.635 403.406 179.499C408.529 182.363 415.486 183.711 422.469 182.874L424.719 201.437C414.084 202.711 403.335 200.874 394.279 195.812C388.222 192.424 383.094 187.284 379.529 180.968C369.892 183.368 359.364 181.954 349.843 178.528C340.063 175.011 330.58 168.994 325.249 160.06C316.315 162.348 306.689 162.974 297.405 160.967C287.359 158.794 277.609 152.529 272.093 142.435C266.653 142.84 260.938 142.472 255.187 141.215C246.477 139.315 237.617 135.567 231.374 128.06L245.749 116.122Z" class="" fill="url(#gradient-3)" stroke="#000000" stroke-opacity="1" stroke-width="3"></path><path d="M434.78 232.28L434.875 232.625C436.515 232.24 436.821 232.325 438.531 233.719C440.243 235.109 442.671 238.335 444.751 243.062C448.809 252.282 451.661 266.688 452.407 281.562L452.407 297.562C451.903 307.744 450.447 317.436 448.095 325.092C446.352 330.764 444.113 335.282 441.939 338.03C440.423 339.947 439.162 340.95 437.939 341.47L37.625 435.374L37.625 307.312C170.243 272.812 302.635 244.592 434.781 232.282Z" class="" fill="url(#gradient-4)" stroke="#000000" stroke-opacity="1" stroke-width="3"></path><path d="M362.53 409.375L336.094 412.438L350.656 433.75L375.626 429.312L362.531 409.375Z" class="selected" fill="#f5a623" stroke="#000000" stroke-opacity="1" stroke-width="3" fill-opacity="1"></path><path d="M299.75 434.405L267.75 439.625L278.906 452.563L300.781 454.188L299.751 434.406Z" class="" fill="#f5a623" stroke="#000000" stroke-opacity="1" stroke-width="3" fill-opacity="1"></path><path d="M142.5 463.905L140.875 478.813L163.345 481.75L171.781 466.437L142.501 463.907Z" class="" fill="#f5a623" fill-opacity="1" stroke="#000000" stroke-opacity="1" stroke-width="3"></path><path d="M249.906 468.625L225.594 471.781L227.344 487.939L259.031 485.189L249.907 468.626Z" class="" fill="#f5a623" stroke="#000000" stroke-opacity="1" stroke-width="3" fill-opacity="1"></path></g></g></svg>