<svg xmlns="http://www.w3.org/2000/svg" viewBox="0 0 512 512" style="height: 512px; width: 512px;"><defs><linearGradient x1="0" x2="1" y1="0" y2="1" id="delapouite-stairs-cake-gradient-1"><stop offset="0%" stop-color="#d0021b" stop-opacity="1"></stop><stop offset="100%" stop-color="#fa95a1" stop-opacity="1"></stop></linearGradient><linearGradient x1="0" x2="1" y1="0" y2="1" id="delapouite-stairs-cake-gradient-2"><stop offset="0%" stop-color="#fc88fc" stop-opacity="1"></stop><stop offset="100%" stop-color="#9013fe" stop-opacity="1"></stop></linearGradient><linearGradient x1="0" x2="0" y1="0" y2="1" id="delapouite-stairs-cake-gradient-3"><stop offset="0%" stop-color="#8b572a" stop-opacity="1"></stop><stop offset="100%" stop-color="#b57204" stop-opacity="1"></stop></linearGradient><radialGradient id="delapouite-stairs-cake-gradient-4"><stop offset="0%" stop-color="#fc88fc" stop-opacity="1"></stop><stop offset="100%" stop-color="#bd10e0" stop-opacity="1"></stop></radialGradient><linearGradient x1="0" x2="0" y1="0" y2="1" id="delapouite-stairs-cake-gradient-5"><stop offset="0%" stop-color="#b57204" stop-opacity="1"></stop><stop offset="100%" stop-color="#f5a623" stop-opacity="1"></stop></linearGradient><linearGradient x1="0" x2="1" y1="0" y2="1" id="delapouite-stairs-cake-gradient-6"><stop offset="0%" stop-color="#fc88fc" stop-opacity="1"></stop><stop offset="100%" stop-color="#bd10e0" stop-opacity="1"></stop></linearGradient><linearGradient x1="0" x2="0" y1="0" y2="1" id="delapouite-stairs-cake-gradient-7"><stop offset="0%" stop-color="#fc88fc" stop-opacity="1"></stop><stop offset="100%" stop-color="#bd10e0" stop-opacity="1"></stop></linearGradient><linearGradient x1="0" x2="0" y1="0" y2="1" id="delapouite-stairs-cake-gradient-8"><stop offset="0%" stop-color="#fc88fc" stop-opacity="1"></stop><stop offset="100%" stop-color="#bd10e0" stop-opacity="1"></stop></linearGradient><linearGradient x1="0" x2="1" y1="0" y2="1" id="delapouite-stairs-cake-gradient-9"><stop offset="0%" stop-color="#fc88fc" stop-opacity="1"></stop><stop offset="100%" stop-color="#bd10e0" stop-opacity="1"></stop></linearGradient><linearGradient x1="0" x2="0" y1="0" y2="1" id="delapouite-stairs-cake-gradient-10"><stop offset="0%" stop-color="#f5a623" stop-opacity="1"></stop><stop offset="100%" stop-color="#ffe0af" stop-opacity="1"></stop></linearGradient><linearGradient x1="0" x2="1" y1="0" y2="1" id="delapouite-stairs-cake-gradient-11"><stop offset="0%" stop-color="#f8e71c" stop-opacity="1"></stop><stop offset="100%" stop-color="#f5a623" stop-opacity="1"></stop></linearGradient><linearGradient x1="0" x2="0" y1="0" y2="1" id="delapouite-stairs-cake-gradient-12"><stop offset="0%" stop-color="#ffffff" stop-opacity="1"></stop><stop offset="100%" stop-color="#c9c9c9" stop-opacity="1"></stop></linearGradient><linearGradient id="delapouite-stairs-cake-gradient-13"><stop offset="0%" stop-color="#d0021b" stop-opacity="1"></stop><stop offset="100%" stop-color="#e6001b" stop-opacity="1"></stop></linearGradient><linearGradient x1="0" x2="0" y1="0" y2="1" id="delapouite-stairs-cake-gradient-14"><stop offset="0%" stop-color="#ffffff" stop-opacity="1"></stop><stop offset="100%" stop-color="#c9c9c9" stop-opacity="1"></stop></linearGradient><linearGradient id="delapouite-stairs-cake-gradient-15"><stop offset="0%" stop-color="#d0021b" stop-opacity="1"></stop><stop offset="100%" stop-color="#e6001b" stop-opacity="1"></stop></linearGradient><linearGradient x1="0" x2="0" y1="0" y2="1" id="delapouite-stairs-cake-gradient-16"><stop offset="0%" stop-color="#345f02" stop-opacity="1"></stop><stop offset="100%" stop-color="#6e9d37" stop-opacity="1"></stop></linearGradient><linearGradient x1="0" x2="0" y1="0" y2="1" id="delapouite-stairs-cake-gradient-17"><stop offset="0%" stop-color="#345f02" stop-opacity="1"></stop><stop offset="100%" stop-color="#6e9d37" stop-opacity="1"></stop></linearGradient><linearGradient x1="0" x2="0" y1="0" y2="1" id="delapouite-stairs-cake-gradient-18"><stop offset="0%" stop-color="#345f02" stop-opacity="1"></stop><stop offset="100%" stop-color="#6e9d37" stop-opacity="1"></stop></linearGradient><linearGradient x1="0" x2="0" y1="0" y2="1" id="delapouite-stairs-cake-gradient-19"><stop offset="0%" stop-color="#345f02" stop-opacity="1"></stop><stop offset="100%" stop-color="#6e9d37" stop-opacity="1"></stop></linearGradient><linearGradient x1="0" x2="0" y1="0" y2="1" id="delapouite-stairs-cake-gradient-20"><stop offset="0%" stop-color="#345f02" stop-opacity="1"></stop><stop offset="100%" stop-color="#6e9d37" stop-opacity="1"></stop></linearGradient><radialGradient id="delapouite-stairs-cake-gradient-21"><stop offset="0%" stop-color="#f8e71c" stop-opacity="1"></stop><stop offset="100%" stop-color="#f5a623" stop-opacity="1"></stop></radialGradient><radialGradient id="delapouite-stairs-cake-gradient-22"><stop offset="0%" stop-color="#f8e71c" stop-opacity="1"></stop><stop offset="100%" stop-color="#f5a623" stop-opacity="1"></stop></radialGradient><radialGradient id="delapouite-stairs-cake-gradient-23"><stop offset="0%" stop-color="#f8e71c" stop-opacity="1"></stop><stop offset="100%" stop-color="#f5a623" stop-opacity="1"></stop></radialGradient><radialGradient id="delapouite-stairs-cake-gradient-24"><stop offset="0%" stop-color="#f8e71c" stop-opacity="1"></stop><stop offset="100%" stop-color="#f5a623" stop-opacity="1"></stop></radialGradient><radialGradient id="delapouite-stairs-cake-gradient-25"><stop offset="0%" stop-color="#8b7500" stop-opacity="1"></stop><stop offset="100%" stop-color="#c4a504" stop-opacity="1"></stop></radialGradient><radialGradient id="delapouite-stairs-cake-gradient-26"><stop offset="0%" stop-color="#8b7500" stop-opacity="1"></stop><stop offset="100%" stop-color="#c4a504" stop-opacity="1"></stop></radialGradient><radialGradient id="delapouite-stairs-cake-gradient-27"><stop offset="0%" stop-color="#f8e71c" stop-opacity="1"></stop><stop offset="100%" stop-color="#f5a623" stop-opacity="1"></stop></radialGradient><radialGradient id="delapouite-stairs-cake-gradient-28"><stop offset="0%" stop-color="#f8e71c" stop-opacity="1"></stop><stop offset="100%" stop-color="#f5a623" stop-opacity="1"></stop></radialGradient><radialGradient id="delapouite-stairs-cake-gradient-29"><stop offset="0%" stop-color="#f8e71c" stop-opacity="1"></stop><stop offset="100%" stop-color="#f5a623" stop-opacity="1"></stop></radialGradient><radialGradient id="delapouite-stairs-cake-gradient-30"><stop offset="0%" stop-color="#f8e71c" stop-opacity="1"></stop><stop offset="100%" stop-color="#f5a623" stop-opacity="1"></stop></radialGradient><radialGradient id="delapouite-stairs-cake-gradient-31"><stop offset="0%" stop-color="#8b7500" stop-opacity="1"></stop><stop offset="100%" stop-color="#c4a504" stop-opacity="1"></stop></radialGradient><radialGradient id="delapouite-stairs-cake-gradient-32"><stop offset="0%" stop-color="#f8e71c" stop-opacity="1"></stop><stop offset="100%" stop-color="#f5a623" stop-opacity="1"></stop></radialGradient><radialGradient id="delapouite-stairs-cake-gradient-33"><stop offset="0%" stop-color="#8b7500" stop-opacity="1"></stop><stop offset="100%" stop-color="#c4a504" stop-opacity="1"></stop></radialGradient><radialGradient id="delapouite-stairs-cake-gradient-34"><stop offset="0%" stop-color="#f8e71c" stop-opacity="1"></stop><stop offset="100%" stop-color="#f5a623" stop-opacity="1"></stop></radialGradient><radialGradient id="delapouite-stairs-cake-gradient-35"><stop offset="0%" stop-color="#f8e71c" stop-opacity="1"></stop><stop offset="100%" stop-color="#f5a623" stop-opacity="1"></stop></radialGradient><radialGradient id="delapouite-stairs-cake-gradient-36"><stop offset="0%" stop-color="#f8e71c" stop-opacity="1"></stop><stop offset="100%" stop-color="#f5a623" stop-opacity="1"></stop></radialGradient><radialGradient id="delapouite-stairs-cake-gradient-37"><stop offset="0%" stop-color="#f8e71c" stop-opacity="1"></stop><stop offset="100%" stop-color="#f5a623" stop-opacity="1"></stop></radialGradient><linearGradient x1="0" x2="1" y1="0" y2="1" id="delapouite-stairs-cake-gradient-38"><stop offset="0%" stop-color="#8b7500" stop-opacity="1"></stop><stop offset="100%" stop-color="#c4a504" stop-opacity="1"></stop></linearGradient><linearGradient x1="0" x2="1" y1="0" y2="1" id="delapouite-stairs-cake-gradient-39"><stop offset="0%" stop-color="#8b7500" stop-opacity="1"></stop><stop offset="100%" stop-color="#c4a504" stop-opacity="1"></stop></linearGradient><linearGradient x1="0" x2="1" y1="0" y2="1" id="delapouite-stairs-cake-gradient-40"><stop offset="0%" stop-color="#8b7500" stop-opacity="1"></stop><stop offset="100%" stop-color="#c4a504" stop-opacity="1"></stop></linearGradient><linearGradient x1="0" x2="1" y1="0" y2="1" id="delapouite-stairs-cake-gradient-41"><stop offset="0%" stop-color="#8b7500" stop-opacity="1"></stop><stop offset="100%" stop-color="#c4a504" stop-opacity="1"></stop></linearGradient><linearGradient x1="0" x2="1" y1="0" y2="1" id="delapouite-stairs-cake-gradient-42"><stop offset="0%" stop-color="#8b7500" stop-opacity="1"></stop><stop offset="100%" stop-color="#c4a504" stop-opacity="1"></stop></linearGradient><linearGradient x1="0" x2="1" y1="0" y2="1" id="delapouite-stairs-cake-gradient-43"><stop offset="0%" stop-color="#8b7500" stop-opacity="1"></stop><stop offset="100%" stop-color="#c4a504" stop-opacity="1"></stop></linearGradient><linearGradient x1="0" x2="1" y1="0" y2="1" id="delapouite-stairs-cake-gradient-44"><stop offset="0%" stop-color="#8b7500" stop-opacity="1"></stop><stop offset="100%" stop-color="#c4a504" stop-opacity="1"></stop></linearGradient><linearGradient x1="0" x2="1" y1="0" y2="1" id="delapouite-stairs-cake-gradient-45"><stop offset="0%" stop-color="#8b7500" stop-opacity="1"></stop><stop offset="100%" stop-color="#c4a504" stop-opacity="1"></stop></linearGradient><linearGradient x1="0" x2="1" y1="0" y2="1" id="delapouite-stairs-cake-gradient-46"><stop offset="0%" stop-color="#8b7500" stop-opacity="1"></stop><stop offset="100%" stop-color="#c4a504" stop-opacity="1"></stop></linearGradient></defs><g class="" transform="translate(0,0)" style=""><g><path d="M153 73L153 100.3C165 93.38 178.5 87 192 87C208 87 219.6 96.96 229.6 105C239.6 113 248.1 119 256 119C263.9 119 272.4 113 282.4 105C292.4 96.96 304 87 320 87C333.5 87 347 93.38 359 100.3L359 73L153 73Z" class="" fill="url(#delapouite-stairs-cake-gradient-2)" stroke="#000000" stroke-opacity="1" stroke-width="2"></path><path d="M192 105C184.1 105 168.2 112 155.8 119.7C154.8 120.3 153.9 120.9 153 121.4L153 183L359 183L359 121.4C358.1 120.9 357.2 120.3 356.2 119.7C343.8 112 327.9 105 320 105C312.1 105 303.6 111 293.6 119C283.6 127 272 137 256 137C240 137 228.4 127 218.4 119C208.4 111 199.9 105 192 105Z" class="" fill="url(#delapouite-stairs-cake-gradient-3)" stroke="#000000" stroke-opacity="1" stroke-width="2"></path><path d="M89 201L89 228.3C101 221.4 114.6 215 128 215C144 215 155.6 225 165.6 233C175.6 241 184.1 247 192 247C199.9 247 208.4 241 218.4 233C228.4 225 240 215 256 215C272 215 283.6 225 293.6 233C303.6 241 312.1 247 320 247C327.9 247 336.4 241 346.4 233C356.4 225 368 215 384 215C397.5 215 411 221.4 423 228.3L423 201L89 201Z" class="" fill="url(#delapouite-stairs-cake-gradient-4)" stroke="#000000" stroke-opacity="1" stroke-width="2"></path><path d="M128 233C120.1 233 104.2 240 91.75 247.7C90.8 248.3 89.91 248.8 89 249.4L89 311L127.3 311L127.8 309.7L128.3 311L255.7 311L256 310.3L256.3 311L383.7 311L384.2 309.7L384.7 311L423 311L423 249.4C422.1 248.9 421.2 248.3 420.2 247.7C407.8 240 391.9 233 384 233C376.1 233 367.6 239 357.6 247C347.6 255 336 265 320 265C304 265 292.4 255 282.4 247C272.4 239 263.9 233 256 233C248.1 233 239.6 239 229.6 247C219.6 255 208 265 192 265C176 265 164.4 255 154.4 247C144.4 239 135.9 233 128 233Z" class="" fill="url(#delapouite-stairs-cake-gradient-5)" stroke="#000000" stroke-opacity="1" stroke-width="2"></path><path d="M41 329L41 335.7C41.02 336.2 41.95 354.1 46.12 372.4C48.24 381.7 51.24 390.9 54.86 397.3C58.48 403.8 62.06 406.6 65.32 407.1C69.92 407.8 75.49 405.4 82.03 399.1C88.57 392.8 95.22 383.3 100.9 373.4C112.1 353.7 119.5 333 119.5 333L120.9 329L41 329Z" class="" fill="url(#delapouite-stairs-cake-gradient-6)" stroke="#000000" stroke-opacity="1" stroke-width="2"></path><path d="M135 329L136.4 332.8C136.4 332.8 143.7 352.3 155 371.4C160.6 381 167.2 390.5 173.9 397.1C180.6 403.7 187 407 192 407C197 407 203.4 403.7 210.1 397.1C216.8 390.5 223.4 381 229 371.4C240.3 352.3 247.6 332.8 247.6 332.8L249 329L135 329Z" class="" fill="url(#delapouite-stairs-cake-gradient-7)" stroke="#000000" stroke-opacity="1" stroke-width="2"></path><path d="M263 329L264.4 332.8C264.4 332.8 271.7 352.3 283 371.4C288.6 381 295.2 390.5 301.9 397.1C308.6 403.7 315 407 320 407C325 407 331.4 403.7 338.1 397.1C344.8 390.5 351.4 381 357 371.4C368.3 352.3 375.6 332.8 375.6 332.8L377 329L263 329Z" class="" fill="url(#delapouite-stairs-cake-gradient-8)" stroke="#000000" stroke-opacity="1" stroke-width="2"></path><path d="M391.1 329L392.5 333C392.5 333 399.9 353.7 411.1 373.4C416.8 383.3 423.4 392.8 430 399.1C436.5 405.4 442.1 407.8 446.7 407.1C449.9 406.6 453.5 403.8 457.1 397.3C460.8 390.9 463.8 381.7 465.9 372.4C470.1 353.9 471 335.6 471 335.6L471 329L391.1 329Z" class="selected" fill="url(#delapouite-stairs-cake-gradient-9)" stroke="#000000" stroke-opacity="1" stroke-width="2"></path><path d="M256 358.5C252.9 365.2 249.2 372.7 244.5 380.6C238.4 391 231.2 401.5 222.7 409.9C214.2 418.3 204 425 192 425C180 425 169.8 418.3 161.3 409.9C152.8 401.5 145.6 391 139.5 380.6C134.9 372.9 131.3 365.6 128.2 359C125 366.1 121.2 374.1 116.5 382.3C110.4 393.1 103.1 403.8 94.48 412.1C85.86 420.4 74.98 426.7 62.68 424.9C52.98 423.5 45.98 416.9 41 409.1L41 487L471 487L471 409.1C466.1 416.9 459.1 423.5 449.3 424.9C437 426.7 426.1 420.4 417.5 412.1C408.9 403.8 401.6 393.1 395.5 382.3C390.8 374.1 387 366.1 383.8 359C380.7 365.6 377.1 372.9 372.5 380.6C366.4 391 359.2 401.5 350.7 409.9C342.2 418.3 332 425 320 425C308 425 297.8 418.3 289.3 409.9C280.8 401.5 273.6 391 267.5 380.6C262.8 372.7 259.1 365.2 256 358.5Z" class="" fill="url(#delapouite-stairs-cake-gradient-10)" stroke="#000000" stroke-opacity="1" stroke-width="2"></path></g></g></svg>