<svg xmlns="http://www.w3.org/2000/svg" viewBox="0 0 512 512" style="height: 512px; width: 512px;"><defs><linearGradient x1="0" x2="1" y1="0" y2="1" id="gradient-1"><stop offset="0%" stop-color="#930012" stop-opacity="1"></stop><stop offset="100%" stop-color="#ff0000" stop-opacity="1"></stop></linearGradient><radialGradient id="gradient-2"><stop offset="0%" stop-color="#ffe0af" stop-opacity="1"></stop><stop offset="100%" stop-color="#f5a623" stop-opacity="1"></stop></radialGradient><radialGradient id="gradient-3"><stop offset="0%" stop-color="#ffe0af" stop-opacity="1"></stop><stop offset="100%" stop-color="#f5a623" stop-opacity="1"></stop></radialGradient><radialGradient id="gradient-4"><stop offset="0%" stop-color="#b57204" stop-opacity="1"></stop><stop offset="100%" stop-color="#8b572a" stop-opacity="1"></stop></radialGradient><radialGradient id="gradient-5"><stop offset="0%" stop-color="#b57204" stop-opacity="1"></stop><stop offset="100%" stop-color="#8b572a" stop-opacity="1"></stop></radialGradient><radialGradient id="gradient-6"><stop offset="0%" stop-color="#ffe0af" stop-opacity="1"></stop><stop offset="100%" stop-color="#f5a623" stop-opacity="1"></stop></radialGradient><radialGradient id="gradient-7"><stop offset="0%" stop-color="#b57204" stop-opacity="1"></stop><stop offset="100%" stop-color="#8b572a" stop-opacity="1"></stop></radialGradient><radialGradient id="gradient-8"><stop offset="0%" stop-color="#ffe0af" stop-opacity="1"></stop><stop offset="100%" stop-color="#f5a623" stop-opacity="1"></stop></radialGradient><radialGradient id="gradient-9"><stop offset="0%" stop-color="#b57204" stop-opacity="1"></stop><stop offset="100%" stop-color="#8b572a" stop-opacity="1"></stop></radialGradient><radialGradient id="gradient-10"><stop offset="0%" stop-color="#b57204" stop-opacity="1"></stop><stop offset="100%" stop-color="#8b572a" stop-opacity="1"></stop></radialGradient><radialGradient id="gradient-11"><stop offset="0%" stop-color="#ffe0af" stop-opacity="1"></stop><stop offset="100%" stop-color="#f5a623" stop-opacity="1"></stop></radialGradient><radialGradient id="gradient-12"><stop offset="0%" stop-color="#ffe0af" stop-opacity="1"></stop><stop offset="100%" stop-color="#f5a623" stop-opacity="1"></stop></radialGradient><radialGradient id="gradient-13"><stop offset="0%" stop-color="#ffe0af" stop-opacity="1"></stop><stop offset="100%" stop-color="#f5a623" stop-opacity="1"></stop></radialGradient><radialGradient id="gradient-14"><stop offset="0%" stop-color="#b57204" stop-opacity="1"></stop><stop offset="100%" stop-color="#8b572a" stop-opacity="1"></stop></radialGradient><radialGradient id="gradient-15"><stop offset="0%" stop-color="#b57204" stop-opacity="1"></stop><stop offset="100%" stop-color="#8b572a" stop-opacity="1"></stop></radialGradient><radialGradient id="gradient-16"><stop offset="0%" stop-color="#fc88fc" stop-opacity="1"></stop><stop offset="100%" stop-color="#bd10e0" stop-opacity="1"></stop></radialGradient><radialGradient id="gradient-17"><stop offset="0%" stop-color="#fc88fc" stop-opacity="1"></stop><stop offset="100%" stop-color="#bd10e0" stop-opacity="1"></stop></radialGradient><radialGradient id="gradient-18"><stop offset="0%" stop-color="#fc88fc" stop-opacity="1"></stop><stop offset="100%" stop-color="#bd10e0" stop-opacity="1"></stop></radialGradient><radialGradient id="gradient-19"><stop offset="0%" stop-color="#8b572a" stop-opacity="1"></stop><stop offset="100%" stop-color="#b57204" stop-opacity="1"></stop></radialGradient><radialGradient id="gradient-20"><stop offset="0%" stop-color="#fc88fc" stop-opacity="1"></stop><stop offset="100%" stop-color="#bd10e0" stop-opacity="1"></stop></radialGradient><radialGradient id="gradient-21"><stop offset="0%" stop-color="#fc88fc" stop-opacity="1"></stop><stop offset="100%" stop-color="#bd10e0" stop-opacity="1"></stop></radialGradient><radialGradient id="gradient-22"><stop offset="0%" stop-color="#f5a623" stop-opacity="1"></stop><stop offset="100%" stop-color="#ff7400" stop-opacity="1"></stop></radialGradient><radialGradient id="gradient-23"><stop offset="0%" stop-color="#fc88fc" stop-opacity="1"></stop><stop offset="100%" stop-color="#bd10e0" stop-opacity="1"></stop></radialGradient><radialGradient id="gradient-24"><stop offset="0%" stop-color="#d0021b" stop-opacity="1"></stop><stop offset="100%" stop-color="#fc5151" stop-opacity="1"></stop></radialGradient><radialGradient id="gradient-25"><stop offset="0%" stop-color="#fc88fc" stop-opacity="1"></stop><stop offset="100%" stop-color="#bd10e0" stop-opacity="1"></stop></radialGradient><radialGradient id="gradient-26"><stop offset="0%" stop-color="#fc88fc" stop-opacity="1"></stop><stop offset="100%" stop-color="#bd10e0" stop-opacity="1"></stop></radialGradient><radialGradient id="gradient-27"><stop offset="0%" stop-color="#b57204" stop-opacity="1"></stop><stop offset="100%" stop-color="#b8e986" stop-opacity="1"></stop></radialGradient><radialGradient id="gradient-28"><stop offset="0%" stop-color="#fc88fc" stop-opacity="1"></stop><stop offset="100%" stop-color="#bd10e0" stop-opacity="1"></stop></radialGradient><radialGradient id="gradient-29"><stop offset="0%" stop-color="#f8e71c" stop-opacity="1"></stop><stop offset="100%" stop-color="#f5a623" stop-opacity="1"></stop></radialGradient><radialGradient id="gradient-30"><stop offset="0%" stop-color="#f8e71c" stop-opacity="1"></stop><stop offset="100%" stop-color="#f5a623" stop-opacity="1"></stop></radialGradient><radialGradient id="gradient-31"><stop offset="0%" stop-color="#f8e71c" stop-opacity="1"></stop><stop offset="100%" stop-color="#f5a623" stop-opacity="1"></stop></radialGradient><radialGradient id="gradient-32"><stop offset="0%" stop-color="#f8e71c" stop-opacity="1"></stop><stop offset="100%" stop-color="#f5a623" stop-opacity="1"></stop></radialGradient><radialGradient id="gradient-33"><stop offset="0%" stop-color="#7ed321" stop-opacity="1"></stop><stop offset="100%" stop-color="#417505" stop-opacity="1"></stop></radialGradient><radialGradient id="gradient-34"><stop offset="0%" stop-color="#f8e71c" stop-opacity="1"></stop><stop offset="100%" stop-color="#f5a623" stop-opacity="1"></stop></radialGradient><radialGradient id="gradient-35"><stop offset="0%" stop-color="#f8e71c" stop-opacity="1"></stop><stop offset="100%" stop-color="#f5a623" stop-opacity="1"></stop></radialGradient><radialGradient id="gradient-36"><stop offset="0%" stop-color="#f8e71c" stop-opacity="1"></stop><stop offset="100%" stop-color="#f5a623" stop-opacity="1"></stop></radialGradient></defs><g class="" transform="translate(0,0)" style="touch-action: none;"><g><path d="M249.4 25.6C233.6 26.09 212.7 37.51 198.7 44.11C213.9 46.34 232.2 50.78 243.9 58.01C256.6 50.15 262.7 41.1 265 31C261.1 26.9 255.6 25.41 249.4 25.6Z" class="" fill="url(#gradient-2)" stroke="#000000" stroke-opacity="1" stroke-width="1"></path><path d="M170.1 59.97C154 61.63 129.4 71.39 119.7 98.17C149.8 92.85 184.6 83.4 206.8 104.5C223 98.85 227.5 83.85 232 72.05C212.2 62.39 190.4 60.73 170.1 59.97Z" class="" fill="url(#gradient-3)" stroke="#000000" stroke-opacity="1" stroke-width="1"></path><path d="M437.2 72.64C420.7 90.67 418.6 98.67 415.2 113.8L426.9 130.7L445.3 113.7C446.8 98.57 446.5 95.47 437.2 72.64Z" class="" fill="url(#gradient-4)" stroke="#000000" stroke-opacity="1" stroke-width="1"></path><path d="M390.2 107.3C388.7 123.4 389.2 138.1 391.4 150.6L412.3 171.1L417.2 142.9L406.3 120C401.4 115.8 396 111.5 390.2 107.3Z" class="" fill="url(#gradient-5)" stroke="#000000" stroke-opacity="1" stroke-width="1"></path><path d="M161.9 109C135.8 109.1 106.2 121.3 89 128.9C48.19 153.7 34.76 187.9 31.56 226.3C65.88 169.9 133.4 143.7 191.3 142.6C198.1 135.6 198.4 128.4 197.6 121.1C188.2 112.2 175.5 108.9 161.9 109Z" class="" fill="url(#gradient-6)" stroke="#000000" stroke-opacity="1" stroke-width="1"></path><path d="M470 121.3C464 122.7 458.5 124.4 453.2 126.2L431.9 145.6L426.9 173.9L453.3 162.6C459.9 151.6 465.7 137.5 470 121.3Z" class="" fill="url(#gradient-7)" stroke="#000000" stroke-opacity="1" stroke-width="1"></path><path d="M191.4 160.6C114 162.2 51.39 208 30.29 273.1C28.82 300.4 31.05 325 59.73 342.4C57.02 259.4 127.3 200.8 196.8 178.9C200 171.9 196.2 165.7 191.4 160.6Z" class="" fill="url(#gradient-8)" stroke="#000000" stroke-opacity="1" stroke-width="1"></path><path d="M375.8 162.7C375.4 208.9 389.4 210.7 403.8 219L409.1 189.1L389.1 169.7C384.9 167.4 380.5 165 375.8 162.7Z" class="" fill="url(#gradient-9)" stroke="#000000" stroke-opacity="1" stroke-width="1"></path><path d="M463.7 178.1C460 178.5 456.2 178.8 452.6 179.2L423.8 191.8L418.4 222.2C439.6 220.7 450 217.9 463.7 178.1Z" class="" fill="url(#gradient-10)" stroke="#000000" stroke-opacity="1" stroke-width="1"></path><path d="M206.5 194.8C124.2 220.2 57.98 296.9 84.61 371.8C95.96 404.2 119.7 408.1 140.4 411.4C117.3 333.2 164.1 245.3 228 213.8C224.3 204.2 214.2 197.2 206.5 194.8Z" class="" fill="url(#gradient-11)" stroke="#000000" stroke-opacity="1" stroke-width="1"></path><path d="M248.9 224.7C187.3 251.1 138.9 328.8 153.2 391.5C167.6 374.6 189.8 365.6 211.9 369.2C213.4 366.4 215.3 363.9 217.5 361.6C216.3 331.5 226.8 299.4 232.3 272.8C240 274 247.7 275.1 255.4 276.2C268.5 265.8 284.3 257.8 301.8 253.3C299 245 295.6 240.1 291.1 232.9C279.7 225.1 267.1 219.6 248.9 224.7Z" class="" fill="url(#gradient-12)" stroke="#000000" stroke-opacity="1" stroke-width="1"></path><path d="M350.6 231.7C349.9 238.2 349.7 244.1 349.9 249.7C366.2 251.3 381.5 255.8 395.1 262.6L385.9 291.1L400.6 294.7L407.8 269.9C436.6 288.8 455 318.7 455 352C455 356.5 454.7 360.9 454 365.2C460.1 366.2 466.7 369 471.1 372.1C472.3 365.5 473 358.8 473 352C473 310 448.9 273.4 412.7 251.8C413.4 246.9 414.1 241.6 414.9 235.7L400.1 233.4C399.6 237.3 399.1 240.9 398.6 244.4C383.9 237.7 367.7 233.3 350.6 231.7Z" class="" fill="url(#gradient-13)" stroke="#000000" stroke-opacity="1" stroke-width="1"></path><path d="M332.1 237.7L316.1 240.8C322.1 255.5 322.2 269.9 321.3 284.2C326.4 284.8 331.6 285.3 336.7 285.7C333.6 270.3 331.1 255.7 332.1 237.7Z" class="" fill="url(#gradient-14)" stroke="#000000" stroke-opacity="1" stroke-width="3"></path><path d="M246.5 293.1L243.6 307L389.9 318.8L391.5 308C340.5 304.8 292.4 299.7 246.5 293.1Z" class="" fill="url(#gradient-15)" stroke="#000000" stroke-opacity="1" stroke-width="3"></path><path d="M261.2 327.3C252 327.3 245.3 334 245.3 341.8C245.3 349.6 252 356.3 261.2 356.3C270.4 356.3 277.1 349.6 277.1 341.8C277.1 334 270.4 327.3 261.2 327.3Z" class="" fill="url(#gradient-16)" stroke="#000000" stroke-opacity="1" stroke-width="3"></path><path d="M312.5 332.2C302.7 332.2 295.2 339.6 295.2 348.8C295.2 358 302.7 365.4 312.5 365.4C322.3 365.4 329.8 358 329.8 348.8C329.8 339.6 322.3 332.2 312.5 332.2Z" class="" fill="url(#gradient-17)" stroke="#000000" stroke-opacity="1" stroke-width="3"></path><path d="M363.4 335.6C354.2 335.6 347.5 342.3 347.5 350.1C347.5 357.9 354.2 364.6 363.4 364.6C371.8 364.5 379.1 357.5 379.3 350.1C379.3 342.3 372.6 335.6 363.4 335.6Z" class="" fill="url(#gradient-18)" stroke="#000000" stroke-opacity="1" stroke-width="3"></path><path d="M407.4 335.6C410.8 352.1 411.2 366.2 410.8 381C416.9 386.6 420.4 384.2 425.6 380C421.9 365.6 420 349.4 423 336.7Z" class="" fill="url(#gradient-19)" stroke="#000000" stroke-opacity="1" stroke-width="3"></path><path d="M240.9 369.9C232.5 369.9 226 376.4 226 384.4C226 392.4 232.5 398.9 240.9 398.9C249.3 398.9 255.8 392.4 255.8 384.4C255.8 376.4 249.3 369.9 240.9 369.9Z" class="" fill="url(#gradient-20)" stroke="#000000" stroke-opacity="1" stroke-width="3"></path><path d="M286.9 377.9C279.3 377.9 273.4 383.7 273.4 391C273.4 398.3 279.3 404.1 286.9 404.1C294.5 404.1 300.4 398.3 300.4 391C300.4 383.7 294.5 377.9 286.9 377.9Z" class="" fill="url(#gradient-21)" stroke="#000000" stroke-opacity="1" stroke-width="3"></path><path d="M378.1 379.2C372.1 379 367.2 385.2 361.6 394.9C356.9 403.3 354 413.9 353.6 422.5C352.6 445.9 365.6 475.4 384.8 486.3C396.2 488.6 407.2 481.9 418 482.1C427.1 480.5 443.9 493.7 451 489.7L451.1 489.7C461.3 484.1 469.6 473 474.7 459.6C479.8 446.3 481.6 431 479.8 418.4C478.7 411.1 475.2 402.5 470.1 395.8C465 389.1 458.7 384.5 452.5 383.2C439 388.7 428.9 402.7 416.9 402.7C402 405.3 389 379.8 378.1 379.2Z" class="" fill="url(#gradient-22)" stroke="#000000" stroke-opacity="1" stroke-width="3"></path><path d="M332.9 381.5C324.4 381.5 318.4 387.5 318.4 394.3C318.4 401.1 324.4 407.1 332.9 407.1C334.7 407.1 336.4 406.8 337.9 406.3C339.5 399.9 341.9 393.4 345.2 387.4C342.7 383.9 338.3 381.5 332.9 381.5Z" class="" fill="url(#gradient-23)" stroke="#000000" stroke-opacity="1" stroke-width="3"></path><path d="M201.6 386.4C182 386.6 163.7 399.8 157.1 420.8C149.1 446.6 162.5 473 186.5 480.5C206.7 486.7 228.2 477.8 239.4 459.6C230.1 453.8 223.8 443.8 223.8 432.3C223.8 425.8 225.8 419.8 229.2 414.7C217.6 410.3 209.1 399.6 208.1 386.8C205.9 386.5 203.8 386.4 201.6 386.4Z" class="selected" fill="url(#gradient-24)" stroke="#000000" stroke-opacity="1" stroke-width="3"></path><path d="M257.7 417.8C248.5 417.8 241.8 424.5 241.8 432.3C241.8 440.1 248.5 446.8 257.7 446.8C266.9 446.8 273.6 440.1 273.6 432.3C273.6 424.5 266.9 417.8 257.7 417.8Z" class="" fill="url(#gradient-25)" stroke="#000000" stroke-opacity="1" stroke-width="3"></path><path d="M310.7 423.9C300.1 423.9 292.7 431.1 292.7 439.1C292.7 447.1 300.1 454.3 310.7 454.3C321.3 454.3 328.7 447.1 328.7 439.1C328.7 431.1 321.3 423.9 310.7 423.9Z" class="" fill="url(#gradient-26)" stroke="#000000" stroke-opacity="1" stroke-width="3"></path><path d="M340.9 457.2C335.5 464.8 326.7 470.3 316.8 471.8C327.7 473.1 337.6 473.3 347.7 472.5C345 467.7 342.7 462.5 340.9 457.2Z" class="" fill="url(#gradient-27)" stroke="#000000" stroke-opacity="1" stroke-width="3"></path><path d="M273.6 464.6C264.4 464.6 257.7 471.3 257.7 479.1C257.7 486.9 264.4 493.6 273.6 493.6C282.8 493.6 289.5 486.9 289.5 479.1C289.5 471.3 282.8 464.6 273.6 464.6Z" class="" fill="url(#gradient-28)" stroke="#000000" stroke-opacity="1" stroke-width="3"></path></g></g></svg>