<svg xmlns="http://www.w3.org/2000/svg" viewBox="0 0 512 512" style="height: 512px; width: 512px;"><defs><radialGradient id="gradient-2"><stop offset="0%" stop-color="#7ed321" stop-opacity="1"></stop><stop offset="100%" stop-color="#417505" stop-opacity="1"></stop></radialGradient><linearGradient x1="0" x2="1" y1="0" y2="1" id="gradient-3"><stop offset="0%" stop-color="#f8e71c" stop-opacity="1"></stop><stop offset="100%" stop-color="#f5a623" stop-opacity="1"></stop></linearGradient><radialGradient id="gradient-4"><stop offset="0%" stop-color="#f8e71c" stop-opacity="1"></stop><stop offset="100%" stop-color="#f5a623" stop-opacity="1"></stop></radialGradient><radialGradient id="gradient-5"><stop offset="0%" stop-color="#f8e71c" stop-opacity="1"></stop><stop offset="100%" stop-color="#f5a623" stop-opacity="1"></stop></radialGradient><radialGradient id="gradient-6"><stop offset="0%" stop-color="#f8e71c" stop-opacity="1"></stop><stop offset="100%" stop-color="#f5a623" stop-opacity="1"></stop></radialGradient><radialGradient id="gradient-7"><stop offset="0%" stop-color="#f8e71c" stop-opacity="1"></stop><stop offset="100%" stop-color="#f5a623" stop-opacity="1"></stop></radialGradient><radialGradient id="gradient-8"><stop offset="0%" stop-color="#f8e71c" stop-opacity="1"></stop><stop offset="100%" stop-color="#f5a623" stop-opacity="1"></stop></radialGradient><radialGradient id="gradient-9"><stop offset="0%" stop-color="#f8e71c" stop-opacity="1"></stop><stop offset="100%" stop-color="#f5a623" stop-opacity="1"></stop></radialGradient><radialGradient id="gradient-10"><stop offset="0%" stop-color="#f8e71c" stop-opacity="1"></stop><stop offset="100%" stop-color="#f5a623" stop-opacity="1"></stop></radialGradient><radialGradient id="gradient-11"><stop offset="0%" stop-color="#f8e71c" stop-opacity="1"></stop><stop offset="100%" stop-color="#f5a623" stop-opacity="1"></stop></radialGradient><radialGradient id="gradient-12"><stop offset="0%" stop-color="#f8e71c" stop-opacity="1"></stop><stop offset="100%" stop-color="#f5a623" stop-opacity="1"></stop></radialGradient><radialGradient id="gradient-13"><stop offset="0%" stop-color="#f8e71c" stop-opacity="1"></stop><stop offset="100%" stop-color="#f5a623" stop-opacity="1"></stop></radialGradient><radialGradient id="gradient-14"><stop offset="0%" stop-color="#f8e71c" stop-opacity="1"></stop><stop offset="100%" stop-color="#f5a623" stop-opacity="1"></stop></radialGradient><radialGradient id="gradient-15"><stop offset="0%" stop-color="#f8e71c" stop-opacity="1"></stop><stop offset="100%" stop-color="#f5a623" stop-opacity="1"></stop></radialGradient><radialGradient id="gradient-16"><stop offset="0%" stop-color="#7ed321" stop-opacity="1"></stop><stop offset="100%" stop-color="#417505" stop-opacity="1"></stop></radialGradient><radialGradient id="gradient-17"><stop offset="0%" stop-color="#f8e71c" stop-opacity="1"></stop><stop offset="100%" stop-color="#f5a623" stop-opacity="1"></stop></radialGradient><radialGradient id="gradient-18"><stop offset="0%" stop-color="#f8e71c" stop-opacity="1"></stop><stop offset="100%" stop-color="#f5a623" stop-opacity="1"></stop></radialGradient><radialGradient id="gradient-19"><stop offset="0%" stop-color="#f8e71c" stop-opacity="1"></stop><stop offset="100%" stop-color="#f5a623" stop-opacity="1"></stop></radialGradient><radialGradient id="gradient-20"><stop offset="0%" stop-color="#f8e71c" stop-opacity="1"></stop><stop offset="100%" stop-color="#f5a623" stop-opacity="1"></stop></radialGradient><radialGradient id="gradient-21"><stop offset="0%" stop-color="#f8e71c" stop-opacity="1"></stop><stop offset="100%" stop-color="#f5a623" stop-opacity="1"></stop></radialGradient><radialGradient id="gradient-22"><stop offset="0%" stop-color="#f8e71c" stop-opacity="1"></stop><stop offset="100%" stop-color="#f5a623" stop-opacity="1"></stop></radialGradient><radialGradient id="gradient-23"><stop offset="0%" stop-color="#f8e71c" stop-opacity="1"></stop><stop offset="100%" stop-color="#f5a623" stop-opacity="1"></stop></radialGradient><radialGradient id="gradient-24"><stop offset="0%" stop-color="#f8e71c" stop-opacity="1"></stop><stop offset="100%" stop-color="#f5a623" stop-opacity="1"></stop></radialGradient><radialGradient id="gradient-25"><stop offset="0%" stop-color="#f8e71c" stop-opacity="1"></stop><stop offset="100%" stop-color="#f5a623" stop-opacity="1"></stop></radialGradient><radialGradient id="gradient-26"><stop offset="0%" stop-color="#f8e71c" stop-opacity="1"></stop><stop offset="100%" stop-color="#f5a623" stop-opacity="1"></stop></radialGradient><radialGradient id="gradient-27"><stop offset="0%" stop-color="#f8e71c" stop-opacity="1"></stop><stop offset="100%" stop-color="#f5a623" stop-opacity="1"></stop></radialGradient><radialGradient id="gradient-28"><stop offset="0%" stop-color="#f8e71c" stop-opacity="1"></stop><stop offset="100%" stop-color="#f5a623" stop-opacity="1"></stop></radialGradient><radialGradient id="gradient-29"><stop offset="0%" stop-color="#f8e71c" stop-opacity="1"></stop><stop offset="100%" stop-color="#f5a623" stop-opacity="1"></stop></radialGradient><radialGradient id="gradient-30"><stop offset="0%" stop-color="#f8e71c" stop-opacity="1"></stop><stop offset="100%" stop-color="#f5a623" stop-opacity="1"></stop></radialGradient><radialGradient id="gradient-31"><stop offset="0%" stop-color="#f8e71c" stop-opacity="1"></stop><stop offset="100%" stop-color="#f5a623" stop-opacity="1"></stop></radialGradient><radialGradient id="gradient-32"><stop offset="0%" stop-color="#f8e71c" stop-opacity="1"></stop><stop offset="100%" stop-color="#f5a623" stop-opacity="1"></stop></radialGradient><radialGradient id="gradient-33"><stop offset="0%" stop-color="#7ed321" stop-opacity="1"></stop><stop offset="100%" stop-color="#417505" stop-opacity="1"></stop></radialGradient><radialGradient id="gradient-34"><stop offset="0%" stop-color="#f8e71c" stop-opacity="1"></stop><stop offset="100%" stop-color="#f5a623" stop-opacity="1"></stop></radialGradient><radialGradient id="gradient-35"><stop offset="0%" stop-color="#f8e71c" stop-opacity="1"></stop><stop offset="100%" stop-color="#f5a623" stop-opacity="1"></stop></radialGradient><radialGradient id="gradient-36"><stop offset="0%" stop-color="#f8e71c" stop-opacity="1"></stop><stop offset="100%" stop-color="#f5a623" stop-opacity="1"></stop></radialGradient></defs><g class="" transform="translate(-9,-1)" style="touch-action: none;"><g><path d="M130.543 39.226L143.859 105.36C146.659 101.595 149.455 97.887 152.243 94.312L169.309 72.427L168.335 100.163C167.645 119.803 167.088 139.508 166.845 159.136C173.785 155.589 180.955 151.896 188.339 148.028C203.029 140.338 217.649 132.518 229.581 126.011C226.581 119.344 223.363 112.811 219.665 106.511C204.041 79.901 180.52 56.253 130.542 39.227Z" class="" fill="url(#gradient-2)" stroke="#000000" stroke-opacity="1" stroke-width="3"></path><path d="M430.573 42.95C429.168 42.964 427.741 43.038 426.293 43.17C430.883 49.838 435.613 56.05 440.583 61.878L453.551 48.911C447.108 45.011 439.293 42.865 430.573 42.951Z" class="" fill="url(#gradient-3)" stroke="#000000" stroke-opacity="1" stroke-width="3"></path><path d="M407.928 47.778C405.104 48.921 402.238 50.266 399.342 51.848C397.512 52.844 395.678 53.828 393.847 54.821C394.627 56.068 395.409 57.304 396.195 58.521C400.625 55.606 405.029 52.751 409.39 49.988C408.9 49.262 408.415 48.515 407.928 47.778Z" class="" fill="url(#gradient-4)" stroke="#000000" stroke-opacity="1" stroke-width="3"></path><path d="M466.278 61.638L452.874 75.04C458.749 80.795 464.994 86.2 471.734 91.376C473.284 79.926 471.159 69.706 466.276 61.638Z" class="" fill="url(#gradient-5)" stroke="#000000" stroke-opacity="1" stroke-width="3"></path><path d="M378.098 63.343C371.304 66.999 364.508 70.643 357.718 74.283C359.238 76.853 360.768 79.36 362.306 81.803C368.712 77.223 375.073 72.771 381.379 68.46C380.276 66.782 379.185 65.07 378.099 63.343Z" class="" fill="url(#gradient-6)" stroke="#000000" stroke-opacity="1" stroke-width="3"></path><path d="M419.982 64.593C415.527 67.407 411.03 70.309 406.494 73.293C409.782 77.657 413.154 81.826 416.65 85.813L428.053 74.409C425.296 71.236 422.613 67.963 419.983 64.592Z" class="" fill="url(#gradient-7)" stroke="#000000" stroke-opacity="1" stroke-width="3"></path><path d="M341.932 82.771C334.374 86.844 326.837 90.931 319.338 95.041C321.82 99.587 324.308 103.951 326.82 108.137C333.857 102.725 340.862 97.445 347.826 92.309C345.836 89.216 343.876 86.032 341.933 82.772Z" class="" fill="url(#gradient-8)" stroke="#000000" stroke-opacity="1" stroke-width="3"></path><path d="M391.74 83.197C385.357 87.564 378.91 92.08 372.41 96.737C377.186 103.279 382.137 109.367 387.37 115.094L404.136 98.326C399.849 93.514 395.73 88.482 391.74 83.196Z" class="" fill="url(#gradient-9)" stroke="#000000" stroke-opacity="1" stroke-width="3"></path><path d="M440.396 87.52L429.106 98.808C432.53 102.065 436.08 105.21 439.779 108.268C442.981 104.12 446.216 99.936 449.372 95.853C446.298 93.143 443.302 90.373 440.395 87.519Z" class="" fill="url(#gradient-10)" stroke="#000000" stroke-opacity="1" stroke-width="3"></path><path d="M303.61 103.73C296.232 107.854 288.903 112.018 281.635 116.233C285.143 123.087 288.64 129.555 292.172 135.647C298.999 130.059 305.815 124.581 312.615 119.212C309.565 114.266 306.572 109.107 303.611 103.732Z" class="" fill="url(#gradient-11)" stroke="#000000" stroke-opacity="1" stroke-width="3"></path><path d="M358.052 107.167C350.95 112.417 343.797 117.817 336.607 123.362C342.552 131.982 348.734 139.832 355.369 147.092L374.876 127.585C368.976 121.197 363.401 114.415 358.052 107.167Z" class="" fill="url(#gradient-12)" stroke="#000000" stroke-opacity="1" stroke-width="3"></path><path d="M463.322 107.241C460.294 111.161 457.189 115.178 454.115 119.161C455.89 120.405 457.705 121.638 459.547 122.863C460.814 120.526 462.067 118.183 463.342 115.848C464.495 113.733 465.519 111.638 466.437 109.561C465.39 108.791 464.35 108.021 463.322 107.241Z" class="" fill="url(#gradient-13)" stroke="#000000" stroke-opacity="1" stroke-width="3"></path><path d="M416.627 111.289L400.095 127.819C404.813 132.131 409.781 136.249 415.041 140.236C419.741 134.18 424.361 128.223 428.966 122.266C424.693 118.723 420.583 115.076 416.628 111.289Z" class="" fill="url(#gradient-14)" stroke="#000000" stroke-opacity="1" stroke-width="3"></path><path d="M266.2 125.565C265.37 126.471 265.13 126.358 264.715 126.655C264.157 127.055 263.615 127.407 262.98 127.808C261.712 128.608 260.116 129.561 258.152 130.7C255.739 132.1 252.638 133.845 249.248 135.733C246.546 137.431 243.851 139.138 241.174 140.858C244.929 149.203 249.971 157.495 256.176 166.028C263.509 159.656 270.854 153.388 278.201 147.228C274.128 140.413 270.144 133.198 266.201 125.565Z" class="" fill="url(#gradient-15)" stroke="#000000" stroke-opacity="1" stroke-width="3"></path><path d="M149.55 128.368C90.93 211.753 34.103 335.944 40.22 432.138C45.916 438.472 52.61 445.085 59.435 450.088C67.045 455.67 74.591 458.848 79.342 458.848L79.792 458.848L219.06 472.774C150.63 379.804 146.12 252.476 149.55 128.368Z" class="" fill="url(#gradient-16)" stroke="#000000" stroke-opacity="1" stroke-width="3"></path><path d="M443.242 133.238C438.798 138.99 434.34 144.743 429.802 150.595C433.364 152.912 437.072 155.197 440.908 157.465C444.281 151.177 447.654 144.885 451.038 138.591C448.388 136.828 445.775 135.049 443.242 133.238Z" class="" fill="url(#gradient-17)" stroke="#000000" stroke-opacity="1" stroke-width="3"></path><path d="M322.58 134.345C315.658 139.825 308.715 145.428 301.758 151.145C308.574 161.445 315.668 170.665 323.368 179.093L342.878 159.585C335.688 151.802 328.982 143.435 322.58 134.345Z" class="" fill="url(#gradient-18)" stroke="#000000" stroke-opacity="1" stroke-width="3"></path><path d="M387.603 140.311L368.095 159.821C374.115 165.321 380.541 170.507 387.469 175.508C393.093 168.371 398.655 161.278 404.155 154.225C398.348 149.767 392.841 145.151 387.602 140.313Z" class="" fill="url(#gradient-19)" stroke="#000000" stroke-opacity="1" stroke-width="3"></path><path d="M225.083 148.911C218.599 152.395 211.783 156.021 204.783 159.713C209.275 170.657 215.876 182.558 224.006 194.719C230.076 189.166 236.166 183.669 242.276 178.239C235.173 168.649 229.419 159.109 225.084 148.912Z" class="" fill="url(#gradient-20)" stroke="#000000" stroke-opacity="1" stroke-width="3"></path><path d="M287.983 162.596C281.101 168.384 274.22 174.274 267.345 180.254C274.941 189.328 283.665 198.816 293.418 209.044L310.878 191.586C302.711 182.744 295.164 173.156 287.984 162.596Z" class="" fill="url(#gradient-21)" stroke="#000000" stroke-opacity="1" stroke-width="3"></path><path d="M418.828 164.711C413.443 171.621 407.994 178.575 402.482 185.576C408.042 189.046 413.927 192.456 420.154 195.856C424.262 188.359 428.337 180.81 432.408 173.254C427.708 170.454 423.182 167.612 418.828 164.711Z" class="" fill="url(#gradient-22)" stroke="#000000" stroke-opacity="1" stroke-width="3"></path><path d="M188.785 168.088C181.69 171.775 174.819 175.308 168.322 178.598C171.964 192.466 180.099 208.721 191.207 225.521C197.553 219.403 203.939 213.336 210.365 207.328C201.339 194.155 193.959 180.962 188.785 168.088Z" class="" fill="url(#gradient-23)" stroke="#000000" stroke-opacity="1" stroke-width="3"></path><path d="M355.603 172.313L336.095 191.82C343.302 198.403 351.088 204.54 359.629 210.444C365.295 203.431 370.903 196.428 376.452 189.45C369.042 184.004 362.116 178.327 355.602 172.312Z" class="" fill="url(#gradient-24)" stroke="#000000" stroke-opacity="1" stroke-width="3"></path><path d="M253.58 192.354C247.22 198.012 240.878 203.744 234.56 209.538C242.644 220.208 251.712 230.864 261.418 241.044L280.681 221.78C270.539 211.213 261.487 201.607 253.581 192.354Z" class="" fill="url(#gradient-25)" stroke="#000000" stroke-opacity="1" stroke-width="3"></path><path d="M391.357 199.671C385.923 206.514 380.431 213.381 374.877 220.266C382.317 224.739 390.34 229.136 398.969 233.553C403.181 226.287 407.337 218.957 411.459 211.58C404.386 207.685 397.694 203.73 391.356 199.67Z" class="" fill="url(#gradient-26)" stroke="#000000" stroke-opacity="1" stroke-width="3"></path><path d="M323.603 204.313L306.143 221.771C314.503 229.741 323.181 237.268 331.926 244.188C337.462 237.556 342.942 230.918 348.373 224.278C339.463 217.978 331.253 211.378 323.603 204.313Z" class="" fill="url(#gradient-27)" stroke="#000000" stroke-opacity="1" stroke-width="3"></path><path d="M167.437 221.79C167.747 230.452 168.152 239.072 168.699 247.626C171.751 244.566 174.816 241.518 177.897 238.481C174.109 232.913 170.613 227.338 167.437 221.791Z" class="" fill="url(#gradient-28)" stroke="#000000" stroke-opacity="1" stroke-width="3"></path><path d="M221.09 222.01C214.598 228.09 208.146 234.238 201.738 240.433C210.028 251.473 219.378 262.513 229.418 273.043L248.681 253.78C238.731 243.414 229.431 232.76 221.091 222.01Z" class="" fill="url(#gradient-29)" stroke="#000000" stroke-opacity="1" stroke-width="3"></path><path d="M363.502 234.278C357.86 241.186 352.159 248.1 346.396 255.008C347.346 255.678 348.296 256.334 349.244 256.988C360.379 251.945 370.324 247.813 378.758 245.165C379.564 244.912 380.311 244.685 381.088 244.442C374.951 241.105 369.078 237.729 363.502 234.278Z" class="" fill="url(#gradient-30)" stroke="#000000" stroke-opacity="1" stroke-width="3"></path><path d="M293.408 234.508L274.144 253.77C283.406 262.6 293.064 270.888 302.764 278.403C308.639 271.658 314.457 264.883 320.22 258.089C311.094 250.769 302.1 242.849 293.408 234.506Z" class="" fill="url(#gradient-31)" stroke="#000000" stroke-opacity="1" stroke-width="3"></path><path d="M188.6 253.257C182.534 259.251 176.53 265.294 170.576 271.361C170.656 272.201 170.736 273.038 170.818 273.875C178.838 284.433 187.814 294.971 197.418 305.043L216.681 285.779C206.603 275.279 197.121 264.343 188.601 253.259Z" class="" fill="url(#gradient-32)" stroke="#000000" stroke-opacity="1" stroke-width="3"></path><path d="M395.775 260.049C396.82 260.596 391.565 260.009 384.148 262.339C376.528 264.729 366.346 268.941 354.676 274.273C331.334 284.938 301.903 300.069 271.946 314.393C241.986 328.72 211.546 342.266 185.338 349.871C184.728 350.048 184.13 350.206 183.523 350.377C193.248 389.731 208.163 426.173 230.613 458.043C241.143 457.487 250.457 455.311 258.83 451.965C277.175 444.633 291.447 431.545 303.45 416.76C315.455 401.974 324.976 385.663 334.123 372.417C338.696 365.794 343.148 359.904 348.306 355.229C353.466 350.554 359.864 346.846 367.342 346.846C383.555 346.846 398.002 357.736 412.406 372.92C421.586 382.6 430.746 394.56 439.776 407.71C442.466 378.722 447.976 352.463 447.244 330.284C446.762 315.704 443.841 303.117 436.328 291.677C428.842 280.279 416.488 269.645 395.775 260.05Z" class="" fill="url(#gradient-33)" stroke="#000000" stroke-opacity="1" stroke-width="3"></path><path d="M261.408 266.506L242.144 285.769C247.577 290.949 253.147 295.942 258.781 300.709C260.581 299.857 262.381 299.015 264.181 298.154C271.313 294.744 278.425 291.279 285.456 287.83C277.279 281.15 269.221 274.006 261.409 266.507Z" class="" fill="url(#gradient-34)" stroke="#000000" stroke-opacity="1" stroke-width="3"></path><path d="M229.408 298.506L210.144 317.769C211.228 318.803 212.32 319.825 213.414 320.844C222.289 317.259 231.482 313.27 240.804 309.049C236.958 305.622 233.156 302.103 229.408 298.506Z" class="" fill="url(#gradient-35)" stroke="#000000" stroke-opacity="1" stroke-width="3"></path><path d="M175.002 307.34C175.889 313.12 176.858 318.855 177.924 324.538L184.681 317.78C181.385 314.345 178.159 310.86 175.003 307.34Z" class="selected" fill="url(#gradient-36)" stroke="#000000" stroke-opacity="1" stroke-width="3"></path></g></g></svg>