<svg xmlns="http://www.w3.org/2000/svg" viewBox="0 0 512 512" style="height: 512px; width: 512px;"><defs><radialGradient id="gradient-2"><stop offset="0%" stop-color="#ffe0af" stop-opacity="1"></stop><stop offset="100%" stop-color="#b3905a" stop-opacity="1"></stop></radialGradient><radialGradient id="gradient-3"><stop offset="0%" stop-color="#ffe0af" stop-opacity="1"></stop><stop offset="100%" stop-color="#b3905a" stop-opacity="1"></stop></radialGradient><radialGradient id="gradient-4"><stop offset="0%" stop-color="#8b572a" stop-opacity="1"></stop><stop offset="100%" stop-color="#b57204" stop-opacity="1"></stop></radialGradient><radialGradient id="gradient-5"><stop offset="0%" stop-color="#ffe0af" stop-opacity="1"></stop><stop offset="100%" stop-color="#b3905a" stop-opacity="1"></stop></radialGradient><radialGradient id="gradient-6"><stop offset="0%" stop-color="#ffe0af" stop-opacity="1"></stop><stop offset="100%" stop-color="#b3905a" stop-opacity="1"></stop></radialGradient><radialGradient id="gradient-7"><stop offset="0%" stop-color="#ff0000" stop-opacity="1"></stop><stop offset="100%" stop-color="#ff0000" stop-opacity="1"></stop></radialGradient><radialGradient id="gradient-8"><stop offset="0%" stop-color="#ffe0af" stop-opacity="1"></stop><stop offset="100%" stop-color="#b3905a" stop-opacity="1"></stop></radialGradient><radialGradient id="gradient-9"><stop offset="0%" stop-color="#f8e71c" stop-opacity="1"></stop><stop offset="100%" stop-color="#f5a623" stop-opacity="1"></stop></radialGradient><radialGradient id="gradient-10"><stop offset="0%" stop-color="#8b572a" stop-opacity="1"></stop><stop offset="100%" stop-color="#b57204" stop-opacity="1"></stop></radialGradient><radialGradient id="gradient-11"><stop offset="0%" stop-color="#417505" stop-opacity="1"></stop><stop offset="100%" stop-color="#7ed321" stop-opacity="1"></stop></radialGradient><radialGradient id="gradient-12"><stop offset="0%" stop-color="#d0021b" stop-opacity="1"></stop><stop offset="100%" stop-color="#ff001e" stop-opacity="1"></stop></radialGradient><radialGradient id="gradient-13"><stop offset="0%" stop-color="#ffe0af" stop-opacity="1"></stop><stop offset="100%" stop-color="#d3ae72" stop-opacity="1"></stop></radialGradient><radialGradient id="gradient-14"><stop offset="0%" stop-color="#f8e71c" stop-opacity="1"></stop><stop offset="100%" stop-color="#f5a623" stop-opacity="1"></stop></radialGradient><radialGradient id="gradient-15"><stop offset="0%" stop-color="#f8e71c" stop-opacity="1"></stop><stop offset="100%" stop-color="#f5a623" stop-opacity="1"></stop></radialGradient><radialGradient id="gradient-16"><stop offset="0%" stop-color="#7ed321" stop-opacity="1"></stop><stop offset="100%" stop-color="#417505" stop-opacity="1"></stop></radialGradient><radialGradient id="gradient-17"><stop offset="0%" stop-color="#f8e71c" stop-opacity="1"></stop><stop offset="100%" stop-color="#f5a623" stop-opacity="1"></stop></radialGradient><radialGradient id="gradient-18"><stop offset="0%" stop-color="#f8e71c" stop-opacity="1"></stop><stop offset="100%" stop-color="#f5a623" stop-opacity="1"></stop></radialGradient><radialGradient id="gradient-19"><stop offset="0%" stop-color="#f8e71c" stop-opacity="1"></stop><stop offset="100%" stop-color="#f5a623" stop-opacity="1"></stop></radialGradient><radialGradient id="gradient-20"><stop offset="0%" stop-color="#f8e71c" stop-opacity="1"></stop><stop offset="100%" stop-color="#f5a623" stop-opacity="1"></stop></radialGradient><radialGradient id="gradient-21"><stop offset="0%" stop-color="#f8e71c" stop-opacity="1"></stop><stop offset="100%" stop-color="#f5a623" stop-opacity="1"></stop></radialGradient><radialGradient id="gradient-22"><stop offset="0%" stop-color="#f8e71c" stop-opacity="1"></stop><stop offset="100%" stop-color="#f5a623" stop-opacity="1"></stop></radialGradient><radialGradient id="gradient-23"><stop offset="0%" stop-color="#f8e71c" stop-opacity="1"></stop><stop offset="100%" stop-color="#f5a623" stop-opacity="1"></stop></radialGradient><radialGradient id="gradient-24"><stop offset="0%" stop-color="#f8e71c" stop-opacity="1"></stop><stop offset="100%" stop-color="#f5a623" stop-opacity="1"></stop></radialGradient><radialGradient id="gradient-25"><stop offset="0%" stop-color="#f8e71c" stop-opacity="1"></stop><stop offset="100%" stop-color="#f5a623" stop-opacity="1"></stop></radialGradient><radialGradient id="gradient-26"><stop offset="0%" stop-color="#f8e71c" stop-opacity="1"></stop><stop offset="100%" stop-color="#f5a623" stop-opacity="1"></stop></radialGradient><radialGradient id="gradient-27"><stop offset="0%" stop-color="#f8e71c" stop-opacity="1"></stop><stop offset="100%" stop-color="#f5a623" stop-opacity="1"></stop></radialGradient><radialGradient id="gradient-28"><stop offset="0%" stop-color="#f8e71c" stop-opacity="1"></stop><stop offset="100%" stop-color="#f5a623" stop-opacity="1"></stop></radialGradient><radialGradient id="gradient-29"><stop offset="0%" stop-color="#f8e71c" stop-opacity="1"></stop><stop offset="100%" stop-color="#f5a623" stop-opacity="1"></stop></radialGradient><radialGradient id="gradient-30"><stop offset="0%" stop-color="#f8e71c" stop-opacity="1"></stop><stop offset="100%" stop-color="#f5a623" stop-opacity="1"></stop></radialGradient><radialGradient id="gradient-31"><stop offset="0%" stop-color="#f8e71c" stop-opacity="1"></stop><stop offset="100%" stop-color="#f5a623" stop-opacity="1"></stop></radialGradient><radialGradient id="gradient-32"><stop offset="0%" stop-color="#f8e71c" stop-opacity="1"></stop><stop offset="100%" stop-color="#f5a623" stop-opacity="1"></stop></radialGradient><radialGradient id="gradient-33"><stop offset="0%" stop-color="#7ed321" stop-opacity="1"></stop><stop offset="100%" stop-color="#417505" stop-opacity="1"></stop></radialGradient><radialGradient id="gradient-34"><stop offset="0%" stop-color="#f8e71c" stop-opacity="1"></stop><stop offset="100%" stop-color="#f5a623" stop-opacity="1"></stop></radialGradient><radialGradient id="gradient-35"><stop offset="0%" stop-color="#f8e71c" stop-opacity="1"></stop><stop offset="100%" stop-color="#f5a623" stop-opacity="1"></stop></radialGradient><radialGradient id="gradient-36"><stop offset="0%" stop-color="#f8e71c" stop-opacity="1"></stop><stop offset="100%" stop-color="#f5a623" stop-opacity="1"></stop></radialGradient></defs><g class="" transform="translate(-9,-1)" style="touch-action: none;"><g><path d="M169.668 19.996C167.453 32.049 165.532 43.324 163.174 54.379C162.382 58.144 162.572 60.991 164.625 64.248C176.845 88.248 185.341 108.868 189.754 132.168C179.212 115.568 166.58 101.515 150.834 90.434C146.001 97.774 141.659 104.985 136.633 111.694C134.463 114.577 134.109 116.505 135.961 119.559C140.141 126.184 143.829 133.013 147.707 139.75C139.405 137.414 131.761 134.163 124.01 131.281C122.424 130.68 119.93 130.732 118.637 131.598C109.215 138.428 99.937 145.51 89.734 153.166C96.986 160.207 104.266 167.218 111.576 174.199C98.061 172.567 86.726 169.279 75.99 164.111C73.64 163.08 70.665 161.706 68.5 162.371C59.362 165.159 50.49 168.608 40.133 172.268C76.086 194.122 111.705 214.348 154.582 218.168C150.682 205.916 144.802 192.81 143.037 181.492C140.504 163.302 152.867 150.755 171.254 151.232C189.528 152.577 204.714 160.765 219.369 167.559C223.842 110.612 200.882 64.306 169.668 19.996Z" class="" fill="url(#gradient-2)" stroke="#000000" stroke-opacity="1" stroke-width="3"></path><path d="M366.963 144.045C364.911 148.891 363.696 152.971 361.639 156.535C358.956 160.878 359.267 164.19 362.076 168.412C370.091 180.249 376.131 193.086 380.174 207.617C370.707 196.886 359.214 188.609 348.809 180.891C346.045 184.934 343.859 188.407 341.4 191.566C339.54 193.914 340.071 195.343 342.105 197.447C347.976 203.292 353.557 209.49 359.195 215.559C342.349 210.972 338.797 210.412 331.691 208.271C330.301 207.926 328.135 207.923 327.101 208.834C324.091 211.204 321.406 214.182 319.154 216.365C336.372 226.353 353.882 235.321 370.121 246.199C386.287 257.07 401.208 269.852 416.751 281.826C422.267 256.571 417.711 232.16 407.971 208.48C398.318 184.675 384.174 163.687 366.963 144.045Z" class="" fill="url(#gradient-3)" stroke="#000000" stroke-opacity="1" stroke-width="3"></path><path d="M170.334 171.729C159.751 171.673 160.804 186.081 163.424 192.012C184.008 236.027 199.794 286.824 220.604 321.551C221.291 322.673 223.9 323.537 225.334 323.299C233.145 321.881 240.712 320.125 248.807 318.436C250.135 324.606 251.456 330.481 252.781 336.706C244.103 338.672 235.754 340.476 227.401 342.389C227.175 342.933 227.027 343.456 226.771 343.998C234.531 352.127 242.328 360.22 250.162 368.278C233.277 366.284 217.474 360.226 202.852 350.941C201.373 349.975 199.473 348.601 198.032 348.867C190.417 350.245 182.813 352.106 174.197 353.943C201.593 377.907 230.946 391.914 267.805 385.037C269.405 390.802 270.94 396.691 272.695 403.189C265.235 404.284 359.912 520.622 420.078 485.346C442.17 472.393 473.044 441.599 471.834 416.502C470.481 387.6 458.951 362.452 441.973 339.672C424.213 315.923 404.042 294.375 380.848 275.672C339.126 242.116 205.86 171.798 170.334 171.729Z" class="" fill="url(#gradient-4)" stroke="#000000" stroke-opacity="1" stroke-width="3"></path><path d="M331.111 278.8C302.075 277.35 270.418 269.995 245.125 251.247C275.917 252.539 305.853 260.634 331.111 278.8Z" class="" fill="url(#gradient-5)" stroke="#000000" stroke-opacity="1" stroke-width="3"></path><path d="M347.832 324.876C319.004 323.916 287.886 316.678 262.552 298.585C292.776 299.237 323.003 306.916 347.832 324.876Z" class="" fill="url(#gradient-6)" stroke="#000000" stroke-opacity="1" stroke-width="3"></path><path d="M403.512 339.294L417.568 345.565L407.725 367.792L430.293 377.22L424.277 391.43L401.492 381.985L391.486 404.511L377.346 398.188L387.277 375.968L364.842 366.593L370.637 352.366L393.465 361.906Z" class="selected" fill="url(#gradient-7)" stroke="#000000" stroke-opacity="1" stroke-width="3"></path><path d="M356.895 363.267C325.668 361.572 299.726 358.995 275.629 342.919C301.485 341.485 337.032 350.703 356.895 363.267Z" class="" fill="url(#gradient-8)" stroke="#000000" stroke-opacity="1" stroke-width="3"></path></g></g></svg>