<svg xmlns="http://www.w3.org/2000/svg" viewBox="0 0 512 512" style="height: 512px; width: 512px;"><defs><linearGradient x1="0" x2="1" y1="0" y2="1" id="skoll-ham-shank-gradient-2"><stop offset="0%" stop-color="#ffe0af" stop-opacity="1"></stop><stop offset="100%" stop-color="#ffffff" stop-opacity="1"></stop></linearGradient><linearGradient x1="0" x2="1" y1="0" y2="1" id="skoll-ham-shank-gradient-3"><stop offset="0%" stop-color="#b15e68" stop-opacity="1"></stop><stop offset="100%" stop-color="#c93548" stop-opacity="1"></stop></linearGradient><linearGradient x1="0" x2="1" y1="0" y2="1" id="skoll-ham-shank-gradient-4"><stop offset="0%" stop-color="#ffe0af" stop-opacity="1"></stop><stop offset="100%" stop-color="#ffffff" stop-opacity="1"></stop></linearGradient><linearGradient x1="0" x2="1" y1="0" y2="1" id="skoll-ham-shank-gradient-5"><stop offset="0%" stop-color="#ff8796" stop-opacity="1"></stop><stop offset="100%" stop-color="#ff425b" stop-opacity="1"></stop></linearGradient><linearGradient x1="0" x2="1" y1="1" y2="0" id="skoll-ham-shank-gradient-6"><stop offset="0%" stop-color="#f8e71c" stop-opacity="1"></stop><stop offset="100%" stop-color="#f5a623" stop-opacity="1"></stop></linearGradient></defs><g class="" transform="translate(0,0)" style=""><g><path d="M475.346 189.398C459.383 197.001 440.517 187.642 436.913 170.332L406.863 184.564C406.022 180.702 404.822 176.928 403.277 173.29C400.844 167.53 397.519 162.189 393.424 157.463L422.646 143.627C409.118 127.486 418.137 102.754 438.879 99.109C459.622 95.464 476.531 115.641 469.316 135.426C469.032 136.206 468.713 136.972 468.359 137.722C489.104 141.354 498.137 166.081 484.619 182.23C482.082 185.261 478.918 187.707 475.345 189.398Z" class="" fill="url(#skoll-ham-shank-gradient-2)" stroke="#000000" stroke-opacity="1" stroke-width="2"></path><path d="M179.756 263.505C192.926 294.52 197.366 326.921 192.264 354.722C187.419 381.112 174.526 399.992 155.961 407.877C137.397 415.762 114.849 411.93 92.501 397.08C68.951 381.45 48.685 355.747 35.559 324.708C22.433 293.67 17.949 261.304 23.062 233.504C27.908 207.112 40.802 188.234 59.366 180.348C65.743 177.666 72.598 176.303 79.516 176.342C93.234 176.342 108.072 181.35 122.828 191.145C146.366 206.785 166.585 232.49 179.758 263.505Z" class="selected" fill="url(#skoll-ham-shank-gradient-3)" stroke="#000000" stroke-opacity="1" stroke-width="2"></path><path d="M130.966 284.213C122.676 264.683 105.52 253.291 92.638 258.753C79.758 264.216 76.042 284.481 84.334 304.013C92.627 323.543 109.782 334.933 122.664 329.473C135.544 324.009 139.26 303.743 130.967 284.225Z" class="" fill="url(#skoll-ham-shank-gradient-4)" stroke="#000000" stroke-opacity="1" stroke-width="2"></path><path d="M386.086 180.558C378.912 163.658 362.876 155.261 345.44 155.261C339.768 155.279 334.13 156.127 328.704 157.778C302.954 165.535 277.552 168.26 253.106 168.26C196.886 168.26 145.759 153.945 107.069 153.945C96.586 153.945 87.024 155.005 78.522 157.672C96.166 157.439 114.859 163.496 133.109 175.62C159.664 193.253 182.305 221.88 196.886 256.214C211.468 290.549 216.394 326.746 210.571 358.099C206.239 381.717 196.281 400.667 181.874 413.303C248.446 392.991 278.622 280.275 367.054 235.541C386.971 225.501 394.786 201.067 386.086 180.581Z" class="" fill="url(#skoll-ham-shank-gradient-5)" stroke="#000000" stroke-opacity="1" stroke-width="2"></path></g></g></svg>