<svg xmlns="http://www.w3.org/2000/svg" viewBox="0 0 512 512" style="height: 512px; width: 512px;"><defs><linearGradient x1="0" x2="0" y1="0" y2="1" id="delapouite-hot-meal-gradient-5"><stop offset="0%" stop-color="#c9c9c9" stop-opacity="1"></stop><stop offset="100%" stop-color="#9b9b9b" stop-opacity="1"></stop></linearGradient><linearGradient x1="0" x2="1" y1="0" y2="1" id="delapouite-hot-meal-gradient-6"><stop offset="0%" stop-color="#b57204" stop-opacity="1"></stop><stop offset="100%" stop-color="#8b572a" stop-opacity="1"></stop></linearGradient><radialGradient id="delapouite-hot-meal-gradient-7"><stop offset="0%" stop-color="#c9c9c9" stop-opacity="1"></stop><stop offset="100%" stop-color="#9b9b9b" stop-opacity="1"></stop></radialGradient><linearGradient x1="0" x2="1" y1="0" y2="1" id="delapouite-hot-meal-gradient-8"><stop offset="0%" stop-color="#8b572a" stop-opacity="1"></stop><stop offset="100%" stop-color="#b57204" stop-opacity="1"></stop></linearGradient></defs><g class="" transform="translate(0,0)" style=""><g><path d="M267.895 20.495C267.895 20.495 254.935 27.109 241.988 36.849C235.515 41.719 228.963 47.369 223.783 53.876C218.603 60.382 214.381 68.108 215.023 77.142C215.737 87.182 222.543 94.659 229.803 99.142C237.062 103.624 245.305 106.336 253.068 109.011C260.832 111.686 268.118 114.324 272.74 117.179C277.363 120.033 278.792 121.882 279.023 125.142C279.05 125.512 278.605 127.488 276.41 130.245C274.215 133.002 270.684 136.175 266.99 138.955C259.602 144.512 251.895 148.495 251.895 148.495L260.105 164.511C260.105 164.511 268.931 160.017 277.811 153.337C282.251 149.997 286.787 146.11 290.492 141.457C294.197 136.802 297.485 131.017 296.977 123.864C296.263 113.824 289.457 106.347 282.197 101.864C274.938 97.381 266.695 94.67 258.932 91.995C251.168 89.32 243.882 86.682 239.26 83.827C234.637 80.972 233.208 79.124 232.977 75.864C232.817 73.612 234.194 69.696 237.863 65.087C241.533 60.477 247.081 55.538 252.809 51.229C264.263 42.612 276.105 36.511 276.105 36.511Z" class="" fill="#417505" fill-opacity="1" stroke="#000000" stroke-opacity="1" stroke-width="2"></path><path d="M139.895 68.495C139.895 68.495 126.935 75.109 113.988 84.849C107.515 89.719 100.963 95.369 95.783 101.876C90.603 108.382 86.381 116.108 87.023 125.142C87.737 135.182 94.543 142.659 101.803 147.142C109.062 151.624 117.305 154.336 125.068 157.011C132.832 159.686 140.118 162.324 144.74 165.179C149.363 168.033 150.792 169.882 151.023 173.142C151.05 173.512 150.605 175.488 148.41 178.245C146.215 181.002 142.684 184.175 138.99 186.955C131.602 192.512 123.895 196.495 123.895 196.495L132.105 212.511C132.105 212.511 140.931 208.017 149.811 201.337C154.251 197.997 158.787 194.11 162.492 189.456C166.197 184.802 169.485 179.016 168.977 171.864C168.263 161.824 161.457 154.347 154.197 149.864C146.938 145.381 138.695 142.67 130.932 139.995C123.168 137.32 115.882 134.682 111.26 131.827C106.637 128.972 105.208 127.124 104.977 123.864C104.817 121.612 106.194 117.696 109.863 113.087C113.533 108.477 119.081 103.538 124.809 99.229C136.263 90.612 148.105 84.511 148.105 84.511Z" class="" fill="#417505" fill-opacity="1" stroke="#000000" stroke-opacity="1" stroke-width="2"></path><path d="M395.895 68.495C395.895 68.495 382.935 75.109 369.988 84.849C363.515 89.719 356.963 95.369 351.783 101.876C346.603 108.382 342.381 116.108 343.023 125.142C343.737 135.182 350.543 142.659 357.803 147.142C365.062 151.624 373.305 154.336 381.068 157.011C388.832 159.686 396.118 162.324 400.74 165.179C405.363 168.033 406.792 169.882 407.023 173.142C407.05 173.512 406.605 175.488 404.41 178.245C402.215 181.002 398.684 184.175 394.99 186.955C387.602 192.512 379.895 196.495 379.895 196.495L388.105 212.511C388.105 212.511 396.931 208.017 405.811 201.337C410.251 197.997 414.787 194.11 418.492 189.456C422.197 184.802 425.485 179.016 424.977 171.864C424.263 161.824 417.457 154.347 410.197 149.864C402.938 145.381 394.695 142.67 386.932 139.995C379.168 137.32 371.882 134.682 367.26 131.827C362.637 128.972 361.208 127.124 360.977 123.864C360.817 121.612 362.194 117.696 365.863 113.087C369.533 108.477 375.081 103.538 380.809 99.229C392.263 90.612 404.105 84.511 404.105 84.511Z" class="selected" fill="#417505" fill-opacity="1" stroke="#000000" stroke-opacity="1" stroke-width="2"></path><path d="M256 187.501C243 187.501 234.208 193.415 227.488 203.495C224.706 207.668 222.461 212.595 220.773 217.96C232.093 216.353 243.843 215.505 256 215.505C268.157 215.505 279.906 216.353 291.227 217.96C289.539 212.595 287.294 207.668 284.512 203.495C277.792 193.415 269 187.501 256 187.501Z" class="" fill="url(#delapouite-hot-meal-gradient-5)" stroke="#000000" stroke-opacity="1" stroke-width="2"></path><path d="M256 233.501C136.573 233.501 62.248 319.54 57.46 407.505L454.54 407.505C449.751 319.54 375.426 233.5 256 233.5Z" class="" fill="url(#delapouite-hot-meal-gradient-6)" stroke="#000000" stroke-opacity="1" stroke-width="2"></path><path d="M22.363 412.14L9.637 424.866C27.757 442.987 48 443.501 64 443.501L448 443.501C464 443.501 484.242 442.987 502.363 424.866L489.637 412.14C475.757 426.019 464 425.505 448 425.505L64 425.505C48 425.505 36.242 426.019 22.363 412.14Z" class="" fill="url(#delapouite-hot-meal-gradient-7)" stroke="#000000" stroke-opacity="1" stroke-width="2"></path><path d="M112.814 461.501L132.816 491.505L379.184 491.505L399.186 461.501Z" class="" fill="url(#delapouite-hot-meal-gradient-8)" stroke="#000000" stroke-opacity="1" stroke-width="2"></path></g></g></svg>