<svg xmlns="http://www.w3.org/2000/svg" viewBox="0 0 512 512" style="height: 512px; width: 512px;"><defs><linearGradient x1="0" x2="1" y1="0" y2="1" id="delapouite-bell-pepper-gradient-1"><stop offset="0%" stop-color="#d0021b" stop-opacity="1"></stop><stop offset="100%" stop-color="#fa95a1" stop-opacity="1"></stop></linearGradient><radialGradient id="delapouite-bell-pepper-gradient-2"><stop offset="0%" stop-color="#8b572a" stop-opacity="1"></stop><stop offset="100%" stop-color="#b57204" stop-opacity="1"></stop></radialGradient><linearGradient x1="0" x2="1" y1="0" y2="1" id="delapouite-bell-pepper-gradient-3"><stop offset="0%" stop-color="#d0021b" stop-opacity="1"></stop><stop offset="100%" stop-color="#990130" stop-opacity="1"></stop></linearGradient><radialGradient id="delapouite-bell-pepper-gradient-4"><stop offset="0%" stop-color="#e6001b" stop-opacity="1"></stop><stop offset="100%" stop-color="#c4d321" stop-opacity="1"></stop></radialGradient><radialGradient id="delapouite-bell-pepper-gradient-5"><stop offset="0%" stop-color="#e6001b" stop-opacity="1"></stop><stop offset="100%" stop-color="#79a104" stop-opacity="1"></stop></radialGradient><radialGradient id="delapouite-bell-pepper-gradient-6"><stop offset="0%" stop-color="#e6001b" stop-opacity="1"></stop><stop offset="100%" stop-color="#73a104" stop-opacity="1"></stop></radialGradient><linearGradient x1="0" x2="1" y1="0" y2="1" id="delapouite-bell-pepper-gradient-7"><stop offset="0%" stop-color="#e6001b" stop-opacity="1"></stop><stop offset="100%" stop-color="#b8f81c" stop-opacity="1"></stop></linearGradient><linearGradient x1="0" x2="1" y1="0" y2="1" id="delapouite-bell-pepper-gradient-8"><stop offset="0%" stop-color="#e6001b" stop-opacity="1"></stop><stop offset="100%" stop-color="#a1f81c" stop-opacity="1"></stop></linearGradient><linearGradient x1="0" x2="0" y1="0" y2="1" id="delapouite-bell-pepper-gradient-9"><stop offset="0%" stop-color="#e6001b" stop-opacity="1"></stop><stop offset="100%" stop-color="#fa4da1" stop-opacity="1"></stop></linearGradient><linearGradient x1="0" x2="1" y1="0" y2="1" id="delapouite-bell-pepper-gradient-10"><stop offset="0%" stop-color="#e6001b" stop-opacity="1"></stop><stop offset="100%" stop-color="#fa4da1" stop-opacity="1"></stop></linearGradient><linearGradient x1="0" x2="1" y1="0" y2="1" id="delapouite-bell-pepper-gradient-11"><stop offset="0%" stop-color="#e6001b" stop-opacity="1"></stop><stop offset="100%" stop-color="#d0021b" stop-opacity="1"></stop></linearGradient><linearGradient x1="0" x2="0" y1="0" y2="1" id="delapouite-bell-pepper-gradient-12"><stop offset="0%" stop-color="#e6001b" stop-opacity="1"></stop><stop offset="100%" stop-color="#d0021b" stop-opacity="1"></stop></linearGradient><linearGradient x1="0" x2="0" y1="0" y2="1" id="delapouite-bell-pepper-gradient-13"><stop offset="0%" stop-color="#d0021b" stop-opacity="1"></stop><stop offset="100%" stop-color="#7ed321" stop-opacity="1"></stop></linearGradient><linearGradient id="delapouite-bell-pepper-gradient-14"><stop offset="0%" stop-color="#d0021b" stop-opacity="1"></stop><stop offset="100%" stop-color="#fa4da1" stop-opacity="1"></stop></linearGradient><radialGradient id="delapouite-bell-pepper-gradient-15"><stop offset="0%" stop-color="#d0021b" stop-opacity="1"></stop><stop offset="100%" stop-color="#e6001b" stop-opacity="1"></stop></radialGradient><linearGradient x1="0" x2="1" y1="1" y2="0" id="delapouite-bell-pepper-gradient-16"><stop offset="0%" stop-color="#f8e71c" stop-opacity="1"></stop><stop offset="100%" stop-color="#d0021b" stop-opacity="1"></stop></linearGradient><linearGradient x1="0" x2="0" y1="0" y2="1" id="delapouite-bell-pepper-gradient-17"><stop offset="0%" stop-color="#d0021b" stop-opacity="1"></stop><stop offset="100%" stop-color="#f5a623" stop-opacity="1"></stop></linearGradient><linearGradient id="delapouite-bell-pepper-gradient-18"><stop offset="0%" stop-color="#d0021b" stop-opacity="1"></stop><stop offset="100%" stop-color="#f5a623" stop-opacity="1"></stop></linearGradient><linearGradient x1="0" x2="1" y1="0" y2="1" id="delapouite-bell-pepper-gradient-19"><stop offset="0%" stop-color="#d0021b" stop-opacity="1"></stop><stop offset="100%" stop-color="#fa4da1" stop-opacity="1"></stop></linearGradient><radialGradient id="delapouite-bell-pepper-gradient-20"><stop offset="0%" stop-color="#8b572a" stop-opacity="1"></stop><stop offset="100%" stop-color="#b57204" stop-opacity="1"></stop></radialGradient><radialGradient id="delapouite-bell-pepper-gradient-21"><stop offset="0%" stop-color="#f8e71c" stop-opacity="1"></stop><stop offset="100%" stop-color="#f5a623" stop-opacity="1"></stop></radialGradient><radialGradient id="delapouite-bell-pepper-gradient-22"><stop offset="0%" stop-color="#f8e71c" stop-opacity="1"></stop><stop offset="100%" stop-color="#f5a623" stop-opacity="1"></stop></radialGradient><radialGradient id="delapouite-bell-pepper-gradient-23"><stop offset="0%" stop-color="#f8e71c" stop-opacity="1"></stop><stop offset="100%" stop-color="#f5a623" stop-opacity="1"></stop></radialGradient><radialGradient id="delapouite-bell-pepper-gradient-24"><stop offset="0%" stop-color="#f8e71c" stop-opacity="1"></stop><stop offset="100%" stop-color="#f5a623" stop-opacity="1"></stop></radialGradient><radialGradient id="delapouite-bell-pepper-gradient-25"><stop offset="0%" stop-color="#8b7500" stop-opacity="1"></stop><stop offset="100%" stop-color="#c4a504" stop-opacity="1"></stop></radialGradient><radialGradient id="delapouite-bell-pepper-gradient-26"><stop offset="0%" stop-color="#8b7500" stop-opacity="1"></stop><stop offset="100%" stop-color="#c4a504" stop-opacity="1"></stop></radialGradient><radialGradient id="delapouite-bell-pepper-gradient-27"><stop offset="0%" stop-color="#f8e71c" stop-opacity="1"></stop><stop offset="100%" stop-color="#f5a623" stop-opacity="1"></stop></radialGradient><radialGradient id="delapouite-bell-pepper-gradient-28"><stop offset="0%" stop-color="#f8e71c" stop-opacity="1"></stop><stop offset="100%" stop-color="#f5a623" stop-opacity="1"></stop></radialGradient><radialGradient id="delapouite-bell-pepper-gradient-29"><stop offset="0%" stop-color="#f8e71c" stop-opacity="1"></stop><stop offset="100%" stop-color="#f5a623" stop-opacity="1"></stop></radialGradient><radialGradient id="delapouite-bell-pepper-gradient-30"><stop offset="0%" stop-color="#f8e71c" stop-opacity="1"></stop><stop offset="100%" stop-color="#f5a623" stop-opacity="1"></stop></radialGradient><radialGradient id="delapouite-bell-pepper-gradient-31"><stop offset="0%" stop-color="#8b7500" stop-opacity="1"></stop><stop offset="100%" stop-color="#c4a504" stop-opacity="1"></stop></radialGradient><radialGradient id="delapouite-bell-pepper-gradient-32"><stop offset="0%" stop-color="#f8e71c" stop-opacity="1"></stop><stop offset="100%" stop-color="#f5a623" stop-opacity="1"></stop></radialGradient><radialGradient id="delapouite-bell-pepper-gradient-33"><stop offset="0%" stop-color="#8b7500" stop-opacity="1"></stop><stop offset="100%" stop-color="#c4a504" stop-opacity="1"></stop></radialGradient><radialGradient id="delapouite-bell-pepper-gradient-34"><stop offset="0%" stop-color="#f8e71c" stop-opacity="1"></stop><stop offset="100%" stop-color="#f5a623" stop-opacity="1"></stop></radialGradient><radialGradient id="delapouite-bell-pepper-gradient-35"><stop offset="0%" stop-color="#f8e71c" stop-opacity="1"></stop><stop offset="100%" stop-color="#f5a623" stop-opacity="1"></stop></radialGradient><radialGradient id="delapouite-bell-pepper-gradient-36"><stop offset="0%" stop-color="#f8e71c" stop-opacity="1"></stop><stop offset="100%" stop-color="#f5a623" stop-opacity="1"></stop></radialGradient><radialGradient id="delapouite-bell-pepper-gradient-37"><stop offset="0%" stop-color="#f8e71c" stop-opacity="1"></stop><stop offset="100%" stop-color="#f5a623" stop-opacity="1"></stop></radialGradient><linearGradient x1="0" x2="1" y1="0" y2="1" id="delapouite-bell-pepper-gradient-38"><stop offset="0%" stop-color="#8b7500" stop-opacity="1"></stop><stop offset="100%" stop-color="#c4a504" stop-opacity="1"></stop></linearGradient><linearGradient x1="0" x2="1" y1="0" y2="1" id="delapouite-bell-pepper-gradient-39"><stop offset="0%" stop-color="#8b7500" stop-opacity="1"></stop><stop offset="100%" stop-color="#c4a504" stop-opacity="1"></stop></linearGradient><linearGradient x1="0" x2="1" y1="0" y2="1" id="delapouite-bell-pepper-gradient-40"><stop offset="0%" stop-color="#8b7500" stop-opacity="1"></stop><stop offset="100%" stop-color="#c4a504" stop-opacity="1"></stop></linearGradient><linearGradient x1="0" x2="1" y1="0" y2="1" id="delapouite-bell-pepper-gradient-41"><stop offset="0%" stop-color="#8b7500" stop-opacity="1"></stop><stop offset="100%" stop-color="#c4a504" stop-opacity="1"></stop></linearGradient><linearGradient x1="0" x2="1" y1="0" y2="1" id="delapouite-bell-pepper-gradient-42"><stop offset="0%" stop-color="#8b7500" stop-opacity="1"></stop><stop offset="100%" stop-color="#c4a504" stop-opacity="1"></stop></linearGradient><linearGradient x1="0" x2="1" y1="0" y2="1" id="delapouite-bell-pepper-gradient-43"><stop offset="0%" stop-color="#8b7500" stop-opacity="1"></stop><stop offset="100%" stop-color="#c4a504" stop-opacity="1"></stop></linearGradient><linearGradient x1="0" x2="1" y1="0" y2="1" id="delapouite-bell-pepper-gradient-44"><stop offset="0%" stop-color="#8b7500" stop-opacity="1"></stop><stop offset="100%" stop-color="#c4a504" stop-opacity="1"></stop></linearGradient><linearGradient x1="0" x2="1" y1="0" y2="1" id="delapouite-bell-pepper-gradient-45"><stop offset="0%" stop-color="#8b7500" stop-opacity="1"></stop><stop offset="100%" stop-color="#c4a504" stop-opacity="1"></stop></linearGradient><linearGradient x1="0" x2="1" y1="0" y2="1" id="delapouite-bell-pepper-gradient-46"><stop offset="0%" stop-color="#8b7500" stop-opacity="1"></stop><stop offset="100%" stop-color="#c4a504" stop-opacity="1"></stop></linearGradient></defs><g class="" transform="translate(0,0)" style=""><g transform="translate(512, 0) scale(-1, 1) rotate(-30, 256, 256) skewX(0) skewY(0)"><path d="M361.8 41.1C356.1 39.05 349.5 37.31 343.9 37.65C329.6 38.67 307 56.91 289.6 76.31C279.9 87.04 272.8 96.33 267.5 103.7C276.2 105.8 283.9 108.7 291.4 111.4C303 95.93 317.6 77.35 338.2 70.85C350.3 67.1 364.3 68.65 377.5 77.46C390 85.81 402.3 100.4 415.2 122.5C431.8 125.4 443.2 126.2 446.5 109.8C443.1 105.8 430.1 90.53 411.1 73.52C395.7 59.8 377.4 47.05 361.8 41.1Z" class="" fill="url(#delapouite-bell-pepper-gradient-2)" stroke="#000000" stroke-opacity="1" stroke-width="2"></path><path d="M147.3 95.33C136.1 99.83 127.1 107.5 121.4 120.3C76.1 222.2 63.25 298 65.79 348.2C67.01 373.3 72.13 391.9 78.6 404.1C85.78 415.8 90.92 421.5 102.8 423.5C99.62 400.5 102 377.6 105.1 356L118.2 378C117.3 395.9 114.7 408.9 122.3 425.2C132.3 443.5 155.6 459 178.5 465C189.9 468.1 201.2 468.9 210.1 467.2C227.9 463.4 244.5 438.5 249.8 429.6L271.4 421.9C261.5 438.2 251.9 454.7 242.3 468.8C244 469.5 245.8 470.2 247.5 471.1C256.8 475.2 265.4 475.6 275.9 471.3C286.2 467 298.4 457.5 312.1 441C339.4 407.9 372.3 347.8 412.1 253C427.4 216.5 413.6 189.6 391.9 172.8C382.8 166.2 374 161.5 363.8 159C369.6 185.3 363.2 212.6 357.6 235.4L342.2 217.5C344.2 202.5 353.4 171 342.7 161.5C315.1 139.7 270.3 118.4 234 117.4C219.4 117.3 209 120.8 202.9 129.1C196.4 138.2 190 148.5 184 159.7L158.6 170.5C170.3 148.9 190.2 108.3 213.5 101.3C193.2 91.23 167.5 87.57 147.3 95.33Z" class="selected" fill="url(#delapouite-bell-pepper-gradient-3)" stroke="#000000" stroke-opacity="1" stroke-width="2"></path></g></g></svg>