<svg xmlns="http://www.w3.org/2000/svg" viewBox="0 0 512 512" style="height: 512px; width: 512px;"><defs><radialGradient id="delapouite-kebab-spit-gradient-2"><stop offset="0%" stop-color="#ba6f00" stop-opacity="1"></stop><stop offset="100%" stop-color="#825819" stop-opacity="1"></stop></radialGradient><radialGradient id="delapouite-kebab-spit-gradient-3"><stop offset="0%" stop-color="#ff8796" stop-opacity="1"></stop><stop offset="100%" stop-color="#ff425b" stop-opacity="1"></stop></radialGradient><radialGradient id="delapouite-kebab-spit-gradient-6"><stop offset="0%" stop-color="#ba6f00" stop-opacity="1"></stop><stop offset="100%" stop-color="#825819" stop-opacity="1"></stop></radialGradient><radialGradient id="delapouite-kebab-spit-gradient-7"><stop offset="0%" stop-color="#d0021b" stop-opacity="1"></stop><stop offset="100%" stop-color="#9a1220" stop-opacity="1"></stop></radialGradient><radialGradient id="delapouite-kebab-spit-gradient-8"><stop offset="0%" stop-color="#f8e71c" stop-opacity="1"></stop><stop offset="100%" stop-color="#f5a623" stop-opacity="1"></stop></radialGradient><radialGradient id="delapouite-kebab-spit-gradient-9"><stop offset="0%" stop-color="#8b572a" stop-opacity="1"></stop><stop offset="100%" stop-color="#78491e" stop-opacity="1"></stop></radialGradient><radialGradient id="delapouite-kebab-spit-gradient-10"><stop offset="0%" stop-color="#48baff" stop-opacity="1"></stop><stop offset="100%" stop-color="#4a90e2" stop-opacity="1"></stop></radialGradient><radialGradient id="delapouite-kebab-spit-gradient-11"><stop offset="0%" stop-color="#48baff" stop-opacity="1"></stop><stop offset="100%" stop-color="#4a90e2" stop-opacity="1"></stop></radialGradient><radialGradient id="delapouite-kebab-spit-gradient-12"><stop offset="0%" stop-color="#48baff" stop-opacity="1"></stop><stop offset="100%" stop-color="#4a90e2" stop-opacity="1"></stop></radialGradient><radialGradient id="delapouite-kebab-spit-gradient-13"><stop offset="0%" stop-color="#48baff" stop-opacity="1"></stop><stop offset="100%" stop-color="#4a90e2" stop-opacity="1"></stop></radialGradient><radialGradient id="delapouite-kebab-spit-gradient-14"><stop offset="0%" stop-color="#48baff" stop-opacity="1"></stop><stop offset="100%" stop-color="#4a90e2" stop-opacity="1"></stop></radialGradient><radialGradient id="delapouite-kebab-spit-gradient-15"><stop offset="0%" stop-color="#48baff" stop-opacity="1"></stop><stop offset="100%" stop-color="#4a90e2" stop-opacity="1"></stop></radialGradient><radialGradient id="delapouite-kebab-spit-gradient-16"><stop offset="0%" stop-color="#48baff" stop-opacity="1"></stop><stop offset="100%" stop-color="#4a90e2" stop-opacity="1"></stop></radialGradient></defs><g class="" transform="translate(0,0)" style=""><g><path d="M247 22L247 54.46C249.4 54.42 251.8 54.38 254.2 54.37C257.8 54.35 261.4 54.37 265 54.41L265 22L247 22Z" class="" fill="url(#delapouite-kebab-spit-gradient-2)" stroke="#010000" stroke-opacity="1" stroke-width="1"></path><path d="M254.3 72.37C214.6 72.62 174.8 77.32 146.4 85.68C132.3 89.86 121 95.06 114.3 100.3C107.6 105.5 105.9 109.3 106.5 113.8C109.1 131.9 111.7 149.2 114.5 166C135.1 174.5 159.4 176.7 182.9 180.1C173.8 187.8 144.7 196.2 119.3 192.3C125.3 223.6 132.2 253.3 141.1 283C173.6 297.4 208.5 303.9 245 305.7C213.8 312.5 182.5 317.9 151.3 314.7C157.7 333.4 165 352.4 173.3 372.1C190.7 376.9 211.1 381 234.9 384.2C217.4 387.4 201.2 395.7 181.4 390.5C186.8 402.7 192.7 415.2 199 428.1C200.8 431.8 207.4 436.3 218.2 439C229 441.6 243.1 442.4 257 441.7C271 441 284.8 438.6 295.3 435.4C305.7 432.2 311.8 426.8 311.8 426.8C333.6 378.5 351.3 337.5 365.3 297.4C345.6 300.6 324 295.3 310.2 289.8C330.9 289.3 351.7 288.8 370.2 283C374.3 270.6 378.1 258.3 381.5 245.8C366.6 242.9 354.3 235.3 345.7 228.9C359.7 228.7 374.6 229.7 386.4 226.5C392.3 201.7 397 176 400.5 147.9C350.9 152.9 294.9 149.1 251.5 136.9C307.9 136.2 360.6 133.6 403.1 123.9C403.4 121.6 403.6 119.3 403.8 116.9C404.4 110.7 402 105.9 395.1 100.2C388.2 94.5 376.8 89.08 362.5 84.82C334 76.3 294.1 72.11 254.3 72.37Z" class="selected" fill="url(#delapouite-kebab-spit-gradient-3)" stroke="#000000" stroke-opacity="1" stroke-width="2"></path><path d="M452.4 232.8C452.4 232.8 404.3 275 407.9 302.3C409.7 316.1 439.2 316.5 438.7 330.4C438 350.2 394.8 347.4 392 367C389.7 383.2 422.1 390.5 420.6 406.8C418 435.9 357.5 467.7 357.5 467.7C357.5 467.7 442.2 442.7 447.7 406.8C449.6 394.7 424.9 390.3 424.9 378.1C424.9 353.6 471.1 344.8 470.5 320.3C470.1 305.5 445.1 301.2 441.3 286.9C436.6 269.1 452.4 232.8 452.4 232.8Z" class="" fill="#ffffff" fill-opacity="0"></path><path d="M60.83 269.8C60.83 269.8 19.49 338.6 39.24 364.1C43.95 370.1 56.78 359.3 62.26 364.7C76.83 378.9 50.65 411.3 64.99 425.8C70.86 431.8 82.31 424.1 90.03 427.3C108 434.8 133.4 466.8 133.4 466.8C133.4 466.8 128.2 414.6 108.7 402.5C102.9 398.9 93.59 408.9 88.45 404.5C71.22 389.6 102.4 351.3 85.26 336.3C80.47 332 71.04 342 66.18 337.8C48.86 323.1 60.83 269.8 60.83 269.8Z" class="" fill="#ffffff" fill-opacity="0"></path><path d="M265 459.2C262.7 459.4 260.3 459.6 258 459.7C254.3 459.9 250.7 460 247 460L247 492L265 492L265 459.2Z" class="" fill="url(#delapouite-kebab-spit-gradient-6)" stroke="#000000" stroke-opacity="1" stroke-width="2"></path></g></g></svg>