<svg xmlns="http://www.w3.org/2000/svg" viewBox="0 0 512 512" style="height: 512px; width: 512px;"><defs><linearGradient x1="0" x2="0" y1="0" y2="1" id="lorc-wheat-gradient-16"><stop offset="0%" stop-color="#b57204" stop-opacity="1"></stop><stop offset="100%" stop-color="#8b572a" stop-opacity="1"></stop></linearGradient><linearGradient x1="0" x2="0" y1="0" y2="1" id="lorc-wheat-gradient-19"><stop offset="0%" stop-color="#b57204" stop-opacity="1"></stop><stop offset="100%" stop-color="#8b572a" stop-opacity="1"></stop></linearGradient><linearGradient x1="0" x2="0" y1="0" y2="1" id="lorc-wheat-gradient-23"><stop offset="0%" stop-color="#b57204" stop-opacity="1"></stop><stop offset="100%" stop-color="#8b572a" stop-opacity="1"></stop></linearGradient><linearGradient x1="0" x2="0" y1="0" y2="1" id="lorc-wheat-gradient-25"><stop offset="0%" stop-color="#b57204" stop-opacity="1"></stop><stop offset="100%" stop-color="#8b572a" stop-opacity="1"></stop></linearGradient></defs><g class="" transform="translate(0,0)" style=""><g><path d="M98.344 16.688C79.692 43.785 68.498 69.01 65.5 89.56L89.438 128.717L118.062 95.247C118.93 74.034 112.572 46.57 98.344 16.684Z" class="" fill="#fbd08a" stroke="#000000" stroke-opacity="1" stroke-width="2" fill-opacity="1"></path><path d="M472.5 19.625C444.04 36.055 423.112 54 411.562 71.25L416.312 116.938L456.563 99C466.453 80.223 472.501 52.71 472.501 19.625Z" class="" fill="#ffe0af" fill-opacity="1" stroke="#000000" stroke-opacity="1" stroke-width="2"></path><path d="M380.75 46.905C370.597 67.941 363.95 87.745 360.594 105.219L378.969 162.905L398.749 128.655L392.249 66.435L392.279 66.435C388.857 60.043 385.027 53.529 380.749 46.905Z" class="" fill="#fbd08a" fill-opacity="1" stroke="#000000" stroke-opacity="1" stroke-width="2"></path><path d="M27.25 80.782C27.125 104.146 29.643 124.884 34.125 142.096L75.5 186.25L78.625 146.844L46 93.47L46.03 93.438C40.2 89.151 33.95 84.918 27.25 80.781Z" class="" fill="#ffe0af" fill-opacity="1" stroke="#000000" stroke-opacity="1" stroke-width="2"></path><path d="M160.094 91.314C151.679 94.818 143.804 98.527 136.5 102.408L97.25 148.378L94.156 187.752L144.594 148.658C151.306 132.754 156.684 113.395 160.094 91.314Z" class="" fill="#fbd08a" fill-opacity="1" stroke="#000000" stroke-opacity="1" stroke-width="2"></path><path d="M337.314 112.94C313.29 171.03 321.154 210.8 345.187 221.44L366.344 184.815L346.75 123.377C343.777 119.917 340.642 116.434 337.312 112.939Z" class="" fill="#ffe0af" fill-opacity="1" stroke="#000000" stroke-opacity="1" stroke-width="2"></path><path d="M483.344 113.158C478.794 113.13 474.374 113.242 470.064 113.438L414.935 138L395.155 172.28L457.498 158.625C470.395 147.155 483.588 131.999 496.154 113.531C491.796 113.315 487.514 113.183 483.342 113.157Z" class="" fill="#ffe0af" fill-opacity="1" stroke="#000000" stroke-opacity="1" stroke-width="2"></path><path d="M257.25 121.878C234.01 145.116 218.418 167.881 211.72 187.533L228.156 230.44L262.376 202.69C267.071 181.986 265.812 153.834 257.25 121.878Z" class="" fill="#feffaf" fill-opacity="1" stroke="#000000" stroke-opacity="1" stroke-width="2"></path><path d="M16.406 159.06C19.686 221.83 43.888 254.37 70.156 253.654L73.5 211.434L29.437 164.434C25.262 162.59 20.922 160.787 16.407 159.06Z" class="" fill="#fbd08a" fill-opacity="1" stroke="#000000" stroke-opacity="1" stroke-width="2"></path><path d="M159.626 170.435C153.169 171.789 146.996 173.331 141.126 174.998L92.156 212.936L88.844 254.686C115.336 262.196 146.004 234.119 159.624 170.436Z" class="" fill="#ffe0af" fill-opacity="1" stroke="#000000" stroke-opacity="1" stroke-width="2"></path><path d="M175.686 171.998C171.326 194.933 170.036 215.76 171.312 233.498L204 284.498L214.22 246.31L191.813 187.873L191.843 187.873C186.891 182.593 181.525 177.281 175.688 171.998Z" class="" fill="#fafb80" fill-opacity="1" stroke="#000000" stroke-opacity="1" stroke-width="2"></path><path d="M443.094 180.936L382.531 194.154L361.595 230.404C382.277 248.599 422.033 236.439 461.72 184.779C455.307 183.227 449.1 181.956 443.094 180.936Z" class="" fill="#fbd08a" fill-opacity="1" stroke="#000000" stroke-opacity="1" stroke-width="2"></path><path d="M304.406 206.466C295.494 208.386 287.102 210.626 279.219 213.123L232.249 251.153L222.029 289.343L278.719 260.06C288.212 245.636 297.042 227.57 304.405 206.467Z" class="" fill="#feffaf" fill-opacity="1" stroke="#000000" stroke-opacity="1" stroke-width="2"></path><path d="M459.531 231.529C433.681 251.853 415.485 272.589 406.501 291.311L417.721 335.843L455.001 312.373C462.127 292.383 464.237 264.285 459.531 231.53Z" class="" fill="#fafb80" fill-opacity="1" stroke="#000000" stroke-opacity="1" stroke-width="2"></path><path d="M336.189 240.124C301.754 317.697 276.795 399.184 273.219 493.154L291.939 493.154C295.497 402.362 319.512 323.726 353.251 247.718L336.188 240.123Z" class="" fill="url(#lorc-wheat-gradient-16)" stroke="#000000" stroke-opacity="1" stroke-width="2"></path><path d="M150.814 247.03C142.641 309.377 160.528 345.743 186.501 349.78L197.471 308.906L162.657 254.656C158.887 252.086 154.944 249.551 150.813 247.031Z" class="" fill="#feffaf" fill-opacity="1" stroke="#000000" stroke-opacity="1" stroke-width="2"></path><path d="M372.564 271.562C365.511 293.805 361.747 314.332 360.907 332.094L387.313 386.688L402 349.967L386.72 289.28L386.78 289.28C382.48 283.432 377.747 277.52 372.563 271.563Z" class="" fill="#feffaf" fill-opacity="1" stroke="#000000" stroke-opacity="1" stroke-width="2"></path><path d="M70.094 273.094C61.43 347.678 61.964 420.929 82.282 493.156L101.722 493.156C80.845 422.384 79.958 350.136 88.658 275.25L70.096 273.094Z" class="" fill="url(#lorc-wheat-gradient-19)" stroke="#000000" stroke-opacity="1" stroke-width="2"></path><path d="M289.564 284.188C282.951 284.348 276.611 284.728 270.532 285.313L215.5 313.78L204.656 354.188C229.346 366.418 264.594 344.368 289.562 284.188Z" class="" fill="#fafb80" fill-opacity="1" stroke="#000000" stroke-opacity="1" stroke-width="2"></path><path d="M496.282 321.125C487.21 321.969 478.618 323.177 470.502 324.719L419.346 356.936L404.658 393.593L464.408 371.28C475.548 358.087 486.463 341.205 496.283 321.125Z" class="" fill="#fafb80" fill-opacity="1" stroke="#000000" stroke-opacity="1" stroke-width="2"></path><path d="M338.972 343.125C323.444 404.063 336.876 442.315 362.189 449.405L377.909 410.125L349.815 352.095C346.385 349.095 342.762 346.11 338.971 343.125Z" class="" fill="#fafb80" fill-opacity="1" stroke="#000000" stroke-opacity="1" stroke-width="2"></path><path d="M183.25 368.72C170.576 409.953 160.99 451.267 156.406 493.156L175.219 493.156C179.726 453.434 188.909 413.926 201.124 374.186L183.249 368.719Z" class="" fill="url(#lorc-wheat-gradient-23)" stroke="#000000" stroke-opacity="1" stroke-width="2"></path><path d="M453.25 395.375L395.25 417.063L379.687 455.938C402.743 471.036 440.36 453.332 472.312 396.531C465.718 395.904 459.362 395.528 453.25 395.376Z" class="" fill="#feffaf" fill-opacity="1" stroke="#000000" stroke-opacity="1" stroke-width="2"></path><path d="M356.5 469.03C354.626 476.743 353.315 484.787 352.844 493.156L371.531 493.156C371.981 486.47 373.081 479.95 374.657 473.469L356.501 469.029Z" class="selected" fill="url(#lorc-wheat-gradient-25)" stroke="#000000" stroke-opacity="1" stroke-width="2"></path></g></g></svg>