<svg xmlns="http://www.w3.org/2000/svg" viewBox="0 0 512 512" style="height: 512px; width: 512px;"><defs><radialGradient id="delapouite-jug-gradient-2"><stop offset="0%" stop-color="#9013fe" stop-opacity="1"></stop><stop offset="100%" stop-color="#bd10e0" stop-opacity="1"></stop></radialGradient><linearGradient x1="0" x2="1" y1="0" y2="1" id="delapouite-jug-gradient-3"><stop offset="0%" stop-color="#d0021b" stop-opacity="1"></stop><stop offset="100%" stop-color="#7b0311" stop-opacity="1"></stop></linearGradient><linearGradient x1="0" x2="1" y1="0" y2="1" id="delapouite-jug-gradient-4"><stop offset="0%" stop-color="#d0021b" stop-opacity="1"></stop><stop offset="100%" stop-color="#7f1a1a" stop-opacity="1"></stop></linearGradient></defs><g class="" transform="translate(1,1)" style=""><g><path d="M188.087 55L188.087 73L298.087 73L298.087 55L188.087 55Z" class="selected" fill="url(#delapouite-jug-gradient-2)" stroke="#000000" stroke-opacity="1" stroke-width="2"></path><path d="M207.003 91C220.27 139.186 220.053 198.504 186.493 247.113L186.261 247.449L186.001 247.761C147.356 294.136 140.244 335.019 144.037 371.058C147.537 404.312 160.735 432.98 169.367 456.998L316.807 456.998C325.439 432.98 338.637 404.312 342.137 371.058C345.93 335.018 338.82 294.135 300.174 247.76L299.866 247.39L299.6 246.99C268.13 199.788 266.15 139.572 279.23 91L207 91Z" class="" fill="url(#delapouite-jug-gradient-3)" stroke="#000000" stroke-opacity="1" stroke-width="2"></path><path d="M297.431 91.953C295.804 97.598 294.409 103.441 293.268 109.433C313.9 113.941 327.311 122.338 336.076 132.743C346.876 145.565 351.113 162.241 350.856 180.939C350.502 206.619 341.121 235.435 330.393 258.299C334.509 264.554 338.143 270.759 341.328 276.899C355.202 251.004 368.382 215.493 368.854 181.187C369.151 159.572 364.114 138.092 349.842 121.147C338.298 107.441 321.03 97.232 297.432 91.952Z" class="" fill="url(#delapouite-jug-gradient-4)" stroke="#000000" stroke-opacity="1" stroke-width="2"></path></g></g><g class="" transform="translate(156,255)" style=""><g transform="translate(12.8, 12.8) scale(0.6, 0.6) rotate(0, 128, 128)"><circle cx="128" cy="128" r="128" fill="#000" fill-opacity="1"></circle><circle stroke="#fff" stroke-opacity="1" fill="#000" fill-opacity="1" stroke-width="18" cx="128" cy="128" r="101"></circle><path fill="#fff" fill-opacity="1" d="MZ"></path></g></g><g font-family="Arial, Helvetica, sans-serif" font-size="37" font-style="normal" font-weight="bold" text-anchor="middle" text-decoration=" rgba(255, 255, 255, 1)" class="" transform="translate(246,333)" style=""><g transform="translate(0, 0) scale(0.8, 0.8) rotate(0, 0, 0) skewX(0) skewY(0)"><text stroke="rgba(248, 231, 28, 0)" stroke-width="9.25"><tspan x="0" y="0">Dion</tspan><tspan x="0" y="37">Winery</tspan></text><text fill="rgba(255, 255, 255, 1)"><tspan x="0" y="0">Dion</tspan><tspan x="0" y="37">Winery</tspan></text></g></g></svg>