<svg xmlns="http://www.w3.org/2000/svg" viewBox="0 0 512 512" style="height: 512px; width: 512px;"><defs><radialGradient id="delapouite-diploma-gradient-3"><stop offset="0%" stop-color="#ffe0af" stop-opacity="1"></stop><stop offset="100%" stop-color="#e2c699" stop-opacity="1"></stop></radialGradient><radialGradient id="delapouite-diploma-gradient-7"><stop offset="0%" stop-color="#f8e71c" stop-opacity="1"></stop><stop offset="100%" stop-color="#f5a623" stop-opacity="1"></stop></radialGradient><radialGradient id="delapouite-diploma-gradient-8"><stop offset="0%" stop-color="#f8e71c" stop-opacity="1"></stop><stop offset="100%" stop-color="#f5a623" stop-opacity="1"></stop></radialGradient></defs><g class="" transform="translate(0,0)" style=""><g><path d="M440.41 67.996C305.221 82.672 154.69 102.263 24.955 128.82L66.023 406.957C150.136 389.671 241.383 374.229 331.613 361.75C330.229 355.251 328.685 348.788 326.983 342.365C245.851 354.53 163.671 369.2 90.36 385.582L80.903 387.695L46.483 153.715L45.284 145.553L53.312 143.65C170.352 115.9 300.257 97.177 415.304 88.191L423.405 87.559L466.31 323.742L456.812 324.873C444.51 326.344 432.215 327.869 419.927 329.447C421.564 336.282 423.34 343.082 425.255 349.844C446.092 347.427 466.741 345.172 487.044 343.143Z" class="" fill="#d0021b" fill-opacity="1" stroke="#000000" stroke-opacity="1" stroke-width="2"></path><path d="M408.616 106.842C299.067 115.778 176.626 133.528 65.505 159.355L95.9 365.988C163.513 351.158 237.785 337.85 311.611 326.568C303.408 317.583 299.058 306.1 298.146 293.9C297.117 280.128 305.278 268.762 314.976 260.662C324.675 252.562 336.499 246.924 347.154 243.9C355.23 241.609 364.593 240.27 374.064 240.523C377.232 240.604 380.393 240.874 383.529 241.332C396.078 243.181 408.931 248.564 415.592 260.622C424.466 276.686 424.422 295.492 418.598 311.562C427.461 310.424 436.328 309.315 445.199 308.234Z" class="" fill="url(#delapouite-diploma-gradient-3)" stroke="#000000" stroke-opacity="1" stroke-width="2"></path><path d="M173.4 172.346L176.031 190.15L102.033 201.076L99.404 183.271Z" class="" fill="#000000" fill-opacity="1" stroke="#000000" stroke-opacity="1" stroke-width="2"></path><path d="M286.174 212.908L289.189 230.652L112.654 260.641L109.641 242.896Z" class="" fill="#000000" fill-opacity="1" stroke="#000000" stroke-opacity="1" stroke-width="2"></path><path d="M246.154 255.652L249.156 273.398L119.106 295.406L116.104 277.66Z" class="" fill="#000000" fill-opacity="1" stroke="#000000" stroke-opacity="1" stroke-width="2"></path><path d="M370.803 258.547C364.201 258.667 357.508 259.672 352.07 261.215C343.864 263.544 333.712 268.466 326.516 274.477C319.32 280.487 315.666 286.779 316.098 292.559C316.939 303.817 320.742 311.894 329.08 318.258C337.418 324.622 351.216 329.244 372.273 329.977C383.849 330.379 393.927 322.349 399.861 309.83C405.795 297.311 406.484 281.353 399.84 269.324C396.924 264.045 390.253 260.516 380.906 259.139C378.493 258.793 376.06 258.596 373.623 258.551C372.683 258.531 371.743 258.53 370.803 258.547Z" class="" fill="url(#delapouite-diploma-gradient-7)" stroke="#000000" stroke-opacity="1" stroke-width="2"></path><path d="M402.898 335.752C394.532 343.486 383.833 348.387 371.648 347.962C362.171 347.633 353.653 346.592 346.023 344.852C358.01 392.847 361.667 443.915 365.459 491.022C377.826 482.695 387.921 471.482 394.041 454.801L398.965 441.379L408.938 451.623C420.99 464.004 434.304 470.65 448.656 476.173C434.001 432.095 414.537 384.16 402.898 335.752Z" class="selected" fill="url(#delapouite-diploma-gradient-8)" stroke="#000000" stroke-opacity="1" stroke-width="2"></path></g></g></svg>