<svg xmlns="http://www.w3.org/2000/svg" viewBox="0 0 512 512" style="height: 512px; width: 512px;"><defs><radialGradient id="delapouite-ribbon-medal-gradient-2"><stop offset="0%" stop-color="#f8e71c" stop-opacity="1"></stop><stop offset="100%" stop-color="#f5a623" stop-opacity="1"></stop></radialGradient><radialGradient id="delapouite-ribbon-medal-gradient-3"><stop offset="0%" stop-color="#d0021b" stop-opacity="1"></stop><stop offset="100%" stop-color="#b40217" stop-opacity="1"></stop></radialGradient><linearGradient x1="0" x2="0" y1="0" y2="1" id="delapouite-ribbon-medal-gradient-4"><stop offset="0%" stop-color="#b8e986" stop-opacity="1"></stop><stop offset="100%" stop-color="#417505" stop-opacity="1"></stop></linearGradient><linearGradient x1="0" x2="0" y1="0" y2="1" id="delapouite-ribbon-medal-gradient-5"><stop offset="0%" stop-color="#b8e986" stop-opacity="1"></stop><stop offset="100%" stop-color="#417505" stop-opacity="1"></stop></linearGradient><radialGradient id="delapouite-ribbon-medal-gradient-7"><stop offset="0%" stop-color="#f8e71c" stop-opacity="1"></stop><stop offset="100%" stop-color="#f5a623" stop-opacity="1"></stop></radialGradient><radialGradient id="delapouite-ribbon-medal-gradient-8"><stop offset="0%" stop-color="#f8e71c" stop-opacity="1"></stop><stop offset="100%" stop-color="#f5a623" stop-opacity="1"></stop></radialGradient></defs><g class="" transform="translate(0,0)" style=""><g><path d="M256.883 29.7L241.11 51.554L218.11 37.494L211.908 63.718L185.278 59.525L189.586 86.129L163.376 92.446L177.541 115.376L155.747 131.236L177.61 147L163.545 169.992L189.779 176.192L185.585 202.816L212.198 198.508L218.514 224.708L241.451 210.548L257.316 232.336L273.088 210.48L296.088 224.54L300.371 206.43L302.291 198.314L328.924 202.508L324.614 175.902L350.824 169.588L336.658 146.66L358.455 130.8L336.592 115.033L350.656 92.041L324.422 85.841L328.612 59.217L302.002 63.524L295.684 37.324L272.748 51.484L256.881 29.696Z" class="" fill="url(#delapouite-ribbon-medal-gradient-2)" stroke="#000000" stroke-opacity="1" stroke-width="2"></path><path d="M256.631 81.38C284.056 81.38 306.288 103.605 306.288 131.02C306.287 158.435 284.056 180.658 256.632 180.658C229.209 180.657 206.978 158.434 206.977 131.02C206.977 103.605 229.208 81.38 256.633 81.38Z" class="" fill="url(#delapouite-ribbon-medal-gradient-3)" stroke="#000000" stroke-opacity="1" stroke-width="2"></path><path d="M315.976 218.688L307.894 252.852L277.934 234.537L268.187 248.041C279.921 330.081 286.287 411.876 322.841 495.041L339.394 428.856C349.904 442.671 366.914 454.912 389.05 461.948C357.975 384.391 346.28 302.961 334.336 221.578L315.976 218.688Z" class="selected" fill="url(#delapouite-ribbon-medal-gradient-4)" stroke="#000000" stroke-opacity="1" stroke-width="2"></path><path d="M198.606 218.941L178.846 222.141C166.93 303.335 155.216 384.569 124.214 461.948C146.35 454.912 163.361 442.671 173.872 428.856L190.424 495.042C227.218 411.332 233.429 329.008 245.314 246.428L236.719 234.628L206.839 253.07L198.607 218.943Z" class="" fill="url(#delapouite-ribbon-medal-gradient-5)" stroke="#000000" stroke-opacity="1" stroke-width="2"></path></g></g></svg>