<svg xmlns="http://www.w3.org/2000/svg" viewBox="0 0 512 512" style="height: 512px; width: 512px;"><defs><radialGradient id="delapouite-receive-money-gradient-2"><stop offset="0%" stop-color="#ff7b00" stop-opacity="1"></stop><stop offset="100%" stop-color="#b87333" stop-opacity="1"></stop></radialGradient><radialGradient id="delapouite-receive-money-gradient-3"><stop offset="0%" stop-color="#ff7b00" stop-opacity="1"></stop><stop offset="100%" stop-color="#b87333" stop-opacity="1"></stop></radialGradient><radialGradient id="delapouite-receive-money-gradient-4"><stop offset="0%" stop-color="#ff7b00" stop-opacity="1"></stop><stop offset="100%" stop-color="#b87333" stop-opacity="1"></stop></radialGradient><radialGradient id="delapouite-receive-money-gradient-5"><stop offset="0%" stop-color="#f8e71c" stop-opacity="1"></stop><stop offset="100%" stop-color="#f5a623" stop-opacity="1"></stop></radialGradient><radialGradient id="delapouite-receive-money-gradient-6"><stop offset="0%" stop-color="#f8e71c" stop-opacity="1"></stop><stop offset="100%" stop-color="#f5a623" stop-opacity="1"></stop></radialGradient><radialGradient id="delapouite-receive-money-gradient-7"><stop offset="0%" stop-color="#f8e71c" stop-opacity="1"></stop><stop offset="100%" stop-color="#f5a623" stop-opacity="1"></stop></radialGradient><radialGradient id="delapouite-receive-money-gradient-8"><stop offset="0%" stop-color="#f8e71c" stop-opacity="1"></stop><stop offset="100%" stop-color="#f5a623" stop-opacity="1"></stop></radialGradient></defs><g class="" transform="translate(0,0)" style=""><g><path d="M258 21.89C257.5 21.89 256.8 21.89 256.2 22.01C251.6 22.86 246.1 27.11 242.5 36.82C238.7 46.52 237.9 60.35 241.2 75.16C244.6 89.79 251.6 102.4 259.4 110.1C267 117.8 273.9 119.9 278.5 119.1C283.3 118.4 288.6 114 292.2 104.4C296 94.76 297 80.74 293.6 66.05C290.1 51.25 283.2 38.76 275.4 31.11C268.8 24.31 262.7 21.89 258 21.89Z" class="" fill="url(#delapouite-receive-money-gradient-2)" stroke="#000000" stroke-opacity="1" stroke-width="2"></path><path d="M373.4 151.4C362.4 151.7 348.5 154.6 335 160.3C319.4 167.1 307.4 176.2 300.8 184.8C294.2 193.1 293.6 199.4 295.7 203.1C297.9 206.8 304 210.3 315.7 210.8C327.4 211.5 343.2 208.6 358.7 202C374.2 195.3 386.4 186.1 393 177.7C399.6 169.4 400.1 162.9 398 159.2C395.9 155.4 389.7 152.1 378 151.7C376.4 151.4 375 151.4 373.4 151.4Z" class="" fill="url(#delapouite-receive-money-gradient-3)" stroke="#000000" stroke-opacity="1" stroke-width="2"></path><path d="M237.1 244.3C230.5 244.4 224.5 245.2 219.1 246.6C207.3 249.6 200.5 255 198.3 261.5C195.8 268 198.3 275.8 206.1 284.2C214.3 292.4 227.8 300.3 244.6 304.7C261.3 309.1 277.4 309 289.4 305.8C301.5 302.7 308.3 297.2 310.5 290.8C312.8 284.3 310.5 276.6 302.4 268.1C294.5 259.9 281 252 264.2 247.7C254.7 245.2 245.4 244.2 237.1 244.3Z" class="" fill="url(#delapouite-receive-money-gradient-4)" stroke="#000000" stroke-opacity="1" stroke-width="2"></path><path d="M397.8 302.4L336 331.7C340.2 331.9 350.7 332.2 350.7 332.2L357.3 340.9L412 312.4L397.8 302.4Z" class="" fill="url(#delapouite-receive-money-gradient-5)" stroke="#000000" stroke-opacity="1" stroke-width="2"></path><path d="M343.3 302.5L285.9 329.7C291.4 330 304.4 330.2 309.6 330.5L359.4 306.9L343.3 302.5Z" class="selected" fill="url(#delapouite-receive-money-gradient-6)" stroke="#000000" stroke-opacity="1" stroke-width="2"></path><path d="M435.9 313.3L365.4 350.7L379.9 369.4L454.4 324.8L435.9 313.3Z" class="" fill="url(#delapouite-receive-money-gradient-7)" stroke="#000000" stroke-opacity="1" stroke-width="2"></path><path d="M157.1 322.4C154.072 322.394 151.053 322.73 148.1 323.4C76.6 339.9 34.4 341.3 21.9 341.3L18 341.3L18 448.8C18 448.8 29.6 447.1 48.9 447C86.2 447 151.9 453.4 215.9 490.8C219.3 492.9 226.6 493.7 235.7 493.7C260 493.7 296.9 487.9 305.4 484.7C391 452.6 494 364.5 494 364.5L461.5 336.1C461.5 336.1 381.7 387 371.6 391.9C280.5 436.6 206.7 408.7 206.7 408.7C206.7 408.7 326.6 411.7 365.1 381.4L342.5 347.4C342.5 347.4 259.7 345.1 230.2 341.2C214.8 339.2 181.5 322.4 157.1 322.4Z" class="" fill="url(#delapouite-receive-money-gradient-8)" stroke="#000000" stroke-opacity="1" stroke-width="2"></path></g></g><g class="" transform="translate(341,344)" style=""><g transform="translate(12.8, 12.8) scale(0.6, 0.6) rotate(0, 128, 128)"><circle cx="128" cy="128" r="128" fill="#000000" fill-opacity="1"></circle><circle stroke="#d0021b" stroke-opacity="1" fill="#000000" fill-opacity="1" stroke-width="18" cx="128" cy="128" r="101"></circle><path fill="#d0021b" fill-opacity="1" d="M150.094 59.7L139.07 78.695c-7.27-1.615-15.652-1.322-22.142.234l-10.791-19.054L80.33 74.858 91.5 94.554a48.133 48.133 0 0 0-9.938 18.63l-23.52.105-.197 29.834 25.035-.119a49.2 49.2 0 0 0 9.666 15.859L79.5 181.36l25.61 14.852 13.108-22.596a47.62 47.62 0 0 0 18.542.3l13.102 22.58 25.623-15.283c-4.08-7.22-8.161-14.44-12.244-21.66a48.554 48.554 0 0 0 10.252-16.378l24.464-.092.198-29.834-23.235-.156a48.717 48.717 0 0 0-10.387-19.304l11.172-19.24zm-19.705 44.292c12.71 1.043 22.352 12.16 21.787 25.043-.584 13.297-11.839 23.598-25.137 23.015-13.3-.582-23.855-11.836-23.018-25.121.905-14.35 13.161-24.021 26.368-22.937z"></path></g></g></svg>