<svg xmlns="http://www.w3.org/2000/svg" viewBox="0 0 512 512" style="height: 512px; width: 512px;"><defs><radialGradient id="skoll-open-treasure-chest-gradient-2"><stop offset="0%" stop-color="#b57204" stop-opacity="1"></stop><stop offset="100%" stop-color="#8b572a" stop-opacity="1"></stop></radialGradient><radialGradient id="skoll-open-treasure-chest-gradient-3"><stop offset="0%" stop-color="#b57204" stop-opacity="1"></stop><stop offset="100%" stop-color="#8b572a" stop-opacity="1"></stop></radialGradient><radialGradient id="skoll-open-treasure-chest-gradient-4"><stop offset="0%" stop-color="#b57204" stop-opacity="1"></stop><stop offset="100%" stop-color="#8b572a" stop-opacity="1"></stop></radialGradient><radialGradient id="skoll-open-treasure-chest-gradient-5"><stop offset="0%" stop-color="#c9c9c9" stop-opacity="1"></stop><stop offset="100%" stop-color="#9b9b9b" stop-opacity="1"></stop></radialGradient><radialGradient id="skoll-open-treasure-chest-gradient-6"><stop offset="0%" stop-color="#ffffff" stop-opacity="1"></stop><stop offset="100%" stop-color="#e2e2e2" stop-opacity="1"></stop></radialGradient><radialGradient id="skoll-open-treasure-chest-gradient-7"><stop offset="0%" stop-color="#b57204" stop-opacity="1"></stop><stop offset="100%" stop-color="#8b572a" stop-opacity="1"></stop></radialGradient><radialGradient id="skoll-open-treasure-chest-gradient-8"><stop offset="0%" stop-color="#b57204" stop-opacity="1"></stop><stop offset="100%" stop-color="#8b572a" stop-opacity="1"></stop></radialGradient><radialGradient id="skoll-open-treasure-chest-gradient-9"><stop offset="0%" stop-color="#b57204" stop-opacity="1"></stop><stop offset="100%" stop-color="#8b572a" stop-opacity="1"></stop></radialGradient><radialGradient id="skoll-open-treasure-chest-gradient-10"><stop offset="0%" stop-color="#b57204" stop-opacity="1"></stop><stop offset="100%" stop-color="#8b572a" stop-opacity="1"></stop></radialGradient><radialGradient id="skoll-open-treasure-chest-gradient-11"><stop offset="0%" stop-color="#b57204" stop-opacity="1"></stop><stop offset="100%" stop-color="#8b572a" stop-opacity="1"></stop></radialGradient><radialGradient id="skoll-open-treasure-chest-gradient-12"><stop offset="0%" stop-color="#ff7b00" stop-opacity="1"></stop><stop offset="100%" stop-color="#b87333" stop-opacity="1"></stop></radialGradient><radialGradient id="skoll-open-treasure-chest-gradient-13"><stop offset="0%" stop-color="#f8e71c" stop-opacity="1"></stop><stop offset="100%" stop-color="#f5a623" stop-opacity="1"></stop></radialGradient><radialGradient id="skoll-open-treasure-chest-gradient-14"><stop offset="0%" stop-color="#ff7b00" stop-opacity="1"></stop><stop offset="100%" stop-color="#b87333" stop-opacity="1"></stop></radialGradient><radialGradient id="skoll-open-treasure-chest-gradient-15"><stop offset="0%" stop-color="#ff7b00" stop-opacity="1"></stop><stop offset="100%" stop-color="#b87333" stop-opacity="1"></stop></radialGradient><radialGradient id="skoll-open-treasure-chest-gradient-16"><stop offset="0%" stop-color="#ff7b00" stop-opacity="1"></stop><stop offset="100%" stop-color="#b87333" stop-opacity="1"></stop></radialGradient><radialGradient id="skoll-open-treasure-chest-gradient-17"><stop offset="0%" stop-color="#4a4a4a" stop-opacity="1"></stop><stop offset="100%" stop-color="#000000" stop-opacity="1"></stop></radialGradient><radialGradient id="skoll-open-treasure-chest-gradient-18"><stop offset="0%" stop-color="#4a4a4a" stop-opacity="1"></stop><stop offset="100%" stop-color="#000000" stop-opacity="1"></stop></radialGradient><radialGradient id="skoll-open-treasure-chest-gradient-19"><stop offset="0%" stop-color="#4a4a4a" stop-opacity="1"></stop><stop offset="100%" stop-color="#000000" stop-opacity="1"></stop></radialGradient></defs><g class="" transform="translate(0,0)" style=""><g><path d="M410.365 101.005C418.575 78.745 426.575 69.885 430.695 66.555C433.755 64.075 436.425 63.135 438.615 63.745C442.615 64.875 447.105 71.195 450.495 80.635C461.385 110.975 460.495 164.915 449.565 210.145Z" class="" fill="url(#skoll-open-treasure-chest-gradient-2)" stroke="#000000" stroke-opacity="1" stroke-width="2"></path><path d="M124.365 173.925C131.885 142.925 134.645 107.795 132.135 79.005L88.535 74.145Z" class="" fill="url(#skoll-open-treasure-chest-gradient-3)" stroke="#000000" stroke-opacity="1" stroke-width="2"></path><path d="M413.825 60.925L112.625 27.395C110.125 27.115 107.385 28.855 105.515 30.395C101.845 33.395 95.095 40.715 87.855 58.035L396.535 92.375C401.695 79.125 407.555 68.485 413.845 60.945Z" class="" fill="url(#skoll-open-treasure-chest-gradient-4)" stroke="#000000" stroke-opacity="1" stroke-width="2"></path><path d="M185.045 359.635L185.045 288.915L195.805 290.105L238.045 295.285L238.045 365.795Z" class="selected" fill="url(#skoll-open-treasure-chest-gradient-5)" stroke="#000000" stroke-opacity="1" stroke-width="2"></path><path d="M201.045 319.295C201.112 323.373 203.089 327.183 206.385 329.585L204.045 354.005L221.045 355.745L217.045 330.745C220.378 328.956 222.34 325.367 222.045 321.595C221.675 315.361 217.119 310.175 210.985 309.005C210.985 309.005 211.155 309.105 211.115 309.105C205.165 308.425 200.045 313.005 201.045 319.205Z" class="" fill="url(#skoll-open-treasure-chest-gradient-6)" stroke="#000000" stroke-opacity="1" stroke-width="2"></path><path d="M254.045 383.745L169.045 373.905L169.045 287.185L167.995 287.095C167.365 290.717 164.385 293.467 160.725 293.805C164.405 295.1 166.615 298.86 165.955 302.705C165.295 306.594 161.899 309.421 157.955 309.365C166.408 313.369 162.296 326.143 153.095 324.465C158.166 327.96 157.551 335.634 151.989 338.277C149.807 339.314 147.273 339.31 145.095 338.265C149.056 342.992 146.414 350.233 140.341 351.3C137.522 351.795 134.653 350.749 132.815 348.555L132.815 348.645C133.426 351.97 131.881 355.321 128.955 357.015L138.085 362.365L138.085 376.615L126.085 383.745L114.085 376.625L114.085 362.365L122.235 357.545C119.656 356.551 117.751 354.326 117.165 351.625C117.161 351.592 117.161 351.558 117.165 351.525C114.965 357.277 107.363 358.491 103.482 353.709C101.849 351.698 101.291 349.021 101.985 346.525C95.134 353.739 83.891 344.46 89.675 336.365C81.329 340.884 73.458 329.689 80.535 323.365C71.365 326.026 66.082 313.282 74.445 308.675C68.384 309.766 63.415 303.887 65.501 298.092C66.422 295.531 68.583 293.615 71.235 293.005C61.941 291.958 61.687 278.542 70.935 277.145C70.266 276.981 69.671 276.672 69.105 276.385L51.865 274.525L52.465 441.635L361.645 476.125L361.045 310.295L254.045 297.245Z" class="" fill="url(#skoll-open-treasure-chest-gradient-7)" stroke="#000000" stroke-opacity="1" stroke-width="2"></path><path d="M394.105 219.745L398.825 221.655L399.735 222.235L438.455 226.545L415.195 161.775L402.375 198.775C402.215 199.235 398.965 208.575 394.105 219.765Z" class="" fill="url(#skoll-open-treasure-chest-gradient-8)" stroke="#000000" stroke-opacity="1" stroke-width="2"></path><path d="M185.565 180.005L190.565 185.495L203.315 174.345L224.765 172.065L241.375 187.415L251.885 196.145L270.425 186.855L273.865 187.355C273.985 186.685 274.115 186.015 274.245 185.355C277.325 169.255 281.595 155.195 281.775 154.605L295.165 110.695L312.045 153.405L320.465 174.825L331.125 162.435L353.265 136.705L359.045 170.155L362.335 189.255L379.435 179.615L414.525 159.825L396.045 108.425L148.185 80.815C150.695 115.755 146.335 158.135 135.795 192.815L138.115 192.815L145.115 179.955L185.575 179.955Z" class="" fill="url(#skoll-open-treasure-chest-gradient-9)" stroke="#000000" stroke-opacity="1" stroke-width="2"></path><path d="M74.275 277.395C81.875 279.495 82.175 290.161 74.705 292.685C82.442 293.552 84.507 303.838 77.705 307.625C85.358 307.077 89.319 316.572 83.545 321.625C90.858 319.51 96.713 327.841 92.245 334.005C98.533 330.487 105.902 336.422 103.805 343.315C108.335 338.592 116.311 341.011 117.455 347.455C119.512 341.742 126.935 340.314 130.965 344.855C129.68 338.451 136.195 333.289 142.135 336.005C137.571 330.235 142.56 321.882 149.805 323.165C143.386 318.624 146.683 308.517 154.545 308.635C147.229 305.132 149.17 294.22 157.245 293.455C153.866 292.29 151.67 289.024 151.865 285.455L75.435 277.195C75.025 277.385 74.689 277.345 74.275 277.395Z" class="" fill="url(#skoll-open-treasure-chest-gradient-10)" stroke="#000000" stroke-opacity="1" stroke-width="2"></path><path d="M441.815 416.475L441.225 252.615L432.555 259.615L377.045 306.405L377.625 468.405Z" class="" fill="url(#skoll-open-treasure-chest-gradient-11)" stroke="#000000" stroke-opacity="1" stroke-width="2"></path><path d="M415.585 251.275L391.475 236.005L387.295 234.315C381.385 245.835 373.905 257.315 364.635 262.195C359.195 265.075 352.415 266.535 344.475 266.535C333.345 266.535 319.725 263.625 307.125 258.535C297.125 254.535 283.825 247.535 276.865 237.195C271.965 229.905 270.225 219.425 271.555 204.275L249.775 215.205L230.775 199.405L219.355 188.875L210.195 189.875L189.745 207.705L178.745 196.005L154.535 196.005L136.925 228.005L131.225 220.805L126.805 225.655L116.045 242.005L103.755 246.915L97.611 256L85.411 256L82.635 262.005L159.535 270.215C159.982 269.114 160.665 268.124 161.535 267.315C164.4 264.669 168.756 264.475 171.845 266.855C171.792 266.779 171.745 266.699 171.705 266.615C166.75 258.247 178.164 249.995 184.575 257.24C190.987 264.485 181.408 274.811 173.705 268.875C174.263 269.756 174.644 270.738 174.825 271.765L197.445 274.205L365.985 294.775L417.475 251.395Z" class="" fill="url(#skoll-open-treasure-chest-gradient-12)" stroke="#000000" stroke-opacity="1" stroke-width="2"></path><path d="M387.245 193.545L350.365 214.335L343.225 172.865L315.225 205.375L297.095 159.265C297.095 159.265 280.445 213.845 290.095 228.265C297.785 239.715 325.515 250.515 344.425 250.515C349.425 250.515 353.855 249.755 357.095 248.035C370.895 240.725 387.245 193.545 387.245 193.545Z" class="" fill="url(#skoll-open-treasure-chest-gradient-13)" stroke="#000000" stroke-opacity="1" stroke-width="2"></path><path d="M70.165 464.345L70.165 464.145C70.165 460.375 61.955 457.315 51.835 457.315C41.715 457.315 33.505 460.375 33.505 464.145C33.505 467.355 39.505 470.045 47.505 470.775L47.505 470.975C47.505 474.745 55.715 477.805 65.835 477.805C75.955 477.805 84.165 474.745 84.165 470.975C84.155 467.765 78.185 465.075 70.165 464.345Z" class="" fill="url(#skoll-open-treasure-chest-gradient-14)" stroke="#000000" stroke-opacity="1" stroke-width="2"></path><path d="M420.165 470.975C410.035 470.975 401.835 474.035 401.835 477.805C401.835 481.575 410.045 484.635 420.165 484.635C430.285 484.635 438.495 481.575 438.495 477.805C438.495 474.035 430.245 471.005 420.115 471.005Z" class="" fill="url(#skoll-open-treasure-chest-gradient-15)" stroke="#000000" stroke-opacity="1" stroke-width="2"></path><path d="M460.165 454.695C450.035 454.695 441.835 457.755 441.835 461.525C441.835 465.295 450.045 468.355 460.165 468.355C470.285 468.355 478.495 465.295 478.495 461.525C478.495 457.755 470.275 454.695 460.155 454.695Z" class="" fill="url(#skoll-open-treasure-chest-gradient-16)" stroke="#000000" stroke-opacity="1" stroke-width="2"></path></g></g><g class="" transform="translate(341,344)" style=""><g transform="translate(12.8, 12.8) scale(0.6, 0.6) rotate(0, 128, 128)"><circle cx="128" cy="128" r="128" fill="#000000" fill-opacity="1"></circle><circle stroke="#d0021b" stroke-opacity="1" fill="#000000" fill-opacity="1" stroke-width="18" cx="128" cy="128" r="101"></circle><path fill="#d0021b" fill-opacity="1" d="M150.094 59.7L139.07 78.695c-7.27-1.615-15.652-1.322-22.142.234l-10.791-19.054L80.33 74.858 91.5 94.554a48.133 48.133 0 0 0-9.938 18.63l-23.52.105-.197 29.834 25.035-.119a49.2 49.2 0 0 0 9.666 15.859L79.5 181.36l25.61 14.852 13.108-22.596a47.62 47.62 0 0 0 18.542.3l13.102 22.58 25.623-15.283c-4.08-7.22-8.161-14.44-12.244-21.66a48.554 48.554 0 0 0 10.252-16.378l24.464-.092.198-29.834-23.235-.156a48.717 48.717 0 0 0-10.387-19.304l11.172-19.24zm-19.705 44.292c12.71 1.043 22.352 12.16 21.787 25.043-.584 13.297-11.839 23.598-25.137 23.015-13.3-.582-23.855-11.836-23.018-25.121.905-14.35 13.161-24.021 26.368-22.937z"></path></g></g></svg>