<svg xmlns="http://www.w3.org/2000/svg" viewBox="0 0 512 512" style="height: 512px; width: 512px;"><defs><linearGradient x1="0" x2="0" y1="0" y2="1" id="delapouite-bank-gradient-2"><stop offset="0%" stop-color="#c9c9c9" stop-opacity="1"></stop><stop offset="100%" stop-color="#aaaaaa" stop-opacity="1"></stop></linearGradient><linearGradient x1="0" x2="0" y1="0" y2="1" id="delapouite-bank-gradient-4"><stop offset="0%" stop-color="#c9c9c9" stop-opacity="1"></stop><stop offset="100%" stop-color="#aaaaaa" stop-opacity="1"></stop></linearGradient><linearGradient x1="0" x2="0" y1="0" y2="1" id="delapouite-bank-gradient-5"><stop offset="0%" stop-color="#c9c9c9" stop-opacity="1"></stop><stop offset="100%" stop-color="#9b9b9b" stop-opacity="1"></stop></linearGradient><linearGradient x1="0" x2="0" y1="0" y2="1" id="delapouite-bank-gradient-6"><stop offset="0%" stop-color="#c9c9c9" stop-opacity="1"></stop><stop offset="100%" stop-color="#aaaaaa" stop-opacity="1"></stop></linearGradient><linearGradient x1="0" x2="0" y1="0" y2="1" id="delapouite-bank-gradient-7"><stop offset="0%" stop-color="#c9c9c9" stop-opacity="1"></stop><stop offset="100%" stop-color="#aaaaaa" stop-opacity="1"></stop></linearGradient><linearGradient x1="0" x2="0" y1="0" y2="1" id="delapouite-bank-gradient-8"><stop offset="0%" stop-color="#c9c9c9" stop-opacity="1"></stop><stop offset="100%" stop-color="#aaaaaa" stop-opacity="1"></stop></linearGradient><radialGradient id="delapouite-bank-gradient-9"><stop offset="0%" stop-color="#8b572a" stop-opacity="1"></stop><stop offset="100%" stop-color="#ffe0af" stop-opacity="1"></stop></radialGradient><radialGradient id="delapouite-bank-gradient-10"><stop offset="0%" stop-color="#fc88fc" stop-opacity="1"></stop><stop offset="100%" stop-color="#9013fe" stop-opacity="1"></stop></radialGradient><radialGradient id="delapouite-bank-gradient-11"><stop offset="0%" stop-color="#fc88fc" stop-opacity="1"></stop><stop offset="100%" stop-color="#9013fe" stop-opacity="1"></stop></radialGradient></defs><g class="" transform="translate(0,0)" style=""><g><path d="M256 25.6L52 134.4L222 134.4L222 78.4L290 78.4L290 133.494C292.53 133.752 295.04 134.061 297.54 134.4L460 134.4L256 25.6Z" class="" fill="url(#delapouite-bank-gradient-2)" stroke="#000000" stroke-opacity="1" stroke-width="2"></path><path d="M240 96.4L240 153.78L233.752 155.785C219.512 160.358 207.649 167.725 197.682 178.107C179.996 196.532 170.947 221.704 170.947 255.475C170.947 288.855 179.837 313.982 197.229 332.619C207.347 343.406 219.339 350.919 233.706 355.449L239.999 357.433L239.999 420.4L271.999 420.4L271.999 360.55L280.372 359.963C289.972 359.293 299.33 357.818 308.464 355.513C319.67 352.686 330.507 348.557 341.052 343.253L341.052 252.11L280.017 252.11L280.017 272.084L310.972 272.084L310.972 321.66L305.569 324.016C301.196 325.922 296.413 327.28 291.247 328.168L291.167 328.182L291.087 328.195C286.084 328.963 280.757 329.328 275.099 329.328C253.734 329.328 235.541 321.845 223.265 307.1C212.185 293.792 205.375 280.09 205.375 255.475C205.375 230.631 212.441 216.788 223.907 203.563L223.909 203.563C236.676 188.841 255.392 181.473 277.469 181.473C289.305 181.473 301.099 183.348 312.733 187.047C319.791 189.274 326.813 192.257 333.808 195.811L333.808 163.461C325.148 159.492 316.103 156.424 306.816 154.306L306.81 154.306L306.802 154.304C298.372 152.364 289.617 151.144 280.515 150.654L271.998 150.196L271.998 96.4L239.998 96.4Z" class="selected" fill="#8b572a" stroke="#000000" stroke-opacity="1" stroke-width="0" fill-opacity="0"></path><path d="M48 150.4L48 168.4L73 168.4L73 374.4L48 374.4L48 392.4L144 392.4L144 374.4L119 374.4L119 168.4L144 168.4L144 150.4L48 150.4Z" class="" fill="url(#delapouite-bank-gradient-4)" stroke="#000000" stroke-opacity="1" stroke-width="2"></path><path d="M368 150.4L368 168.4L393 168.4L393 374.4L368 374.4L368 392.4L464 392.4L464 374.4L439 374.4L439 168.4L464 168.4L464 150.4L368 150.4Z" class="" fill="url(#delapouite-bank-gradient-5)" stroke="#000000" stroke-opacity="1" stroke-width="2"></path><path d="M41 408.4L41 438.4L222 438.4L222 408.4L41 408.4Z" class="" fill="url(#delapouite-bank-gradient-6)" stroke="#000000" stroke-opacity="1" stroke-width="2"></path><path d="M290 408.4L290 438.4L471 438.4L471 408.4L290 408.4Z" class="" fill="url(#delapouite-bank-gradient-7)" stroke="#000000" stroke-opacity="1" stroke-width="2"></path><path d="M25 456.4L25 486.4L487 486.4L487 456.4L25 456.4Z" class="" fill="url(#delapouite-bank-gradient-8)" stroke="#000000" stroke-opacity="1" stroke-width="2"></path></g></g><g class="" transform="translate(128,144)" style=""><g><circle cx="128" cy="128" r="128" fill="#000" fill-opacity="1"></circle><circle stroke="#7ed321" stroke-opacity="1" fill="#000" fill-opacity="1" stroke-width="18" cx="128" cy="128" r="101"></circle><path fill="#7ed321" fill-opacity="1" d="M103 63.52c-11.5 0-23 5-23 15 0 19.97 46 19.97 46 0 0-10-11.5-15-23-15zm50 35.78c-11.5 0-23 5-23 15 0 20 46 20 46 0 0-10-11.5-15-23-15zm-73 7.1v5.1c0 12.7 18.47 17.3 32 13.9v-11.1c0-1.2.1-2.4.2-3.6-10.9 1.8-22.76.4-32.2-4.3zm0 33v5.1c0 12.7 18.47 17.3 32 13.9v-14.6c-10.9 1.7-22.61.3-32-4.4zm50 2.8v5.1c0 20 46 20 46 0v-5.1c-13.7 6.8-32.3 6.8-46 0zm-50 30.2v2.1c0 13.3 20.2 17.7 33.8 13.4-1.2-3.2-1.8-6.7-1.8-10.6v-.5c-10.9 1.7-22.61.3-32-4.4zm50 2.8v2.1c0 20 46 20 46 0v-2.1c-13.7 6.8-32.3 6.8-46 0z"></path></g></g></svg>