<svg xmlns="http://www.w3.org/2000/svg" viewBox="0 0 512 512" style="height: 512px; width: 512px;"><defs><radialGradient id="delapouite-convict-gradient-1"><stop offset="0%" stop-color="#9b9b9b" stop-opacity="1"></stop><stop offset="100%" stop-color="#4a4a4a" stop-opacity="1"></stop></radialGradient><radialGradient id="delapouite-convict-gradient-2"><stop offset="0%" stop-color="#4a4a4a" stop-opacity="1"></stop><stop offset="100%" stop-color="#000000" stop-opacity="1"></stop></radialGradient><radialGradient id="delapouite-convict-gradient-3"><stop offset="0%" stop-color="#4a4a4a" stop-opacity="1"></stop><stop offset="100%" stop-color="#000000" stop-opacity="1"></stop></radialGradient><radialGradient id="delapouite-convict-gradient-4"><stop offset="0%" stop-color="#f8e71c" stop-opacity="1"></stop><stop offset="100%" stop-color="#f5a623" stop-opacity="1"></stop></radialGradient><radialGradient id="delapouite-convict-gradient-5"><stop offset="0%" stop-color="#4a4a4a" stop-opacity="1"></stop><stop offset="100%" stop-color="#000000" stop-opacity="1"></stop></radialGradient><radialGradient id="delapouite-convict-gradient-6"><stop offset="0%" stop-color="#4a4a4a" stop-opacity="1"></stop><stop offset="100%" stop-color="#000000" stop-opacity="1"></stop></radialGradient><radialGradient id="delapouite-convict-gradient-7"><stop offset="0%" stop-color="#f8e71c" stop-opacity="1"></stop><stop offset="100%" stop-color="#f5a623" stop-opacity="1"></stop></radialGradient><radialGradient id="delapouite-convict-gradient-8"><stop offset="0%" stop-color="#4a4a4a" stop-opacity="1"></stop><stop offset="100%" stop-color="#000000" stop-opacity="1"></stop></radialGradient><radialGradient id="delapouite-convict-gradient-9"><stop offset="0%" stop-color="#4a4a4a" stop-opacity="1"></stop><stop offset="100%" stop-color="#000000" stop-opacity="1"></stop></radialGradient><radialGradient id="delapouite-convict-gradient-10"><stop offset="0%" stop-color="#4a4a4a" stop-opacity="1"></stop><stop offset="100%" stop-color="#000000" stop-opacity="1"></stop></radialGradient><radialGradient id="delapouite-convict-gradient-11"><stop offset="0%" stop-color="#4a4a4a" stop-opacity="1"></stop><stop offset="100%" stop-color="#000000" stop-opacity="1"></stop></radialGradient><radialGradient id="delapouite-convict-gradient-12"><stop offset="0%" stop-color="#4a4a4a" stop-opacity="1"></stop><stop offset="100%" stop-color="#000000" stop-opacity="1"></stop></radialGradient><radialGradient id="delapouite-convict-gradient-13"><stop offset="0%" stop-color="#4a4a4a" stop-opacity="1"></stop><stop offset="100%" stop-color="#000000" stop-opacity="1"></stop></radialGradient><radialGradient id="delapouite-convict-gradient-14"><stop offset="0%" stop-color="#4a4a4a" stop-opacity="1"></stop><stop offset="100%" stop-color="#000000" stop-opacity="1"></stop></radialGradient><radialGradient id="delapouite-convict-gradient-15"><stop offset="0%" stop-color="#f8e71c" stop-opacity="1"></stop><stop offset="100%" stop-color="#f5a623" stop-opacity="1"></stop></radialGradient><radialGradient id="delapouite-convict-gradient-16"><stop offset="0%" stop-color="#f8e71c" stop-opacity="1"></stop><stop offset="100%" stop-color="#f5a623" stop-opacity="1"></stop></radialGradient><radialGradient id="delapouite-convict-gradient-17"><stop offset="0%" stop-color="#4a4a4a" stop-opacity="1"></stop><stop offset="100%" stop-color="#000000" stop-opacity="1"></stop></radialGradient><radialGradient id="delapouite-convict-gradient-18"><stop offset="0%" stop-color="#48baff" stop-opacity="1"></stop><stop offset="100%" stop-color="#4a90e2" stop-opacity="1"></stop></radialGradient><radialGradient id="delapouite-convict-gradient-19"><stop offset="0%" stop-color="#48baff" stop-opacity="1"></stop><stop offset="100%" stop-color="#4a90e2" stop-opacity="1"></stop></radialGradient></defs><g class="" transform="translate(0,0)" style=""><g><path d="M185 25L185 39L327 39L327 25L185 25Z" class="" fill="url(#delapouite-convict-gradient-2)" stroke="#000000" stroke-opacity="1" stroke-width="2"></path><path d="M185 57L185 71L327 71L327 57L185 57Z" class="" fill="url(#delapouite-convict-gradient-3)" stroke="#000000" stroke-opacity="1" stroke-width="2"></path><path d="M187.512 89C185.886 96.3 185 104 185 112C185 160.966 217.654 199 256 199C294.346 199 327 160.966 327 112C327 104 326.114 96.3 324.488 89L187.512 89Z" class="" fill="url(#delapouite-convict-gradient-4)" stroke="#000000" stroke-opacity="1" stroke-width="2"></path><path d="M208.539 207.72C186.416 214.573 168.624 226.316 153.925 241.303C153.783 241.448 153.645 241.597 153.503 241.743C183.827 246.097 212.447 248.73 239.987 249.65L208.537 207.72Z" class="" fill="url(#delapouite-convict-gradient-5)" stroke="#000000" stroke-opacity="1" stroke-width="2"></path><path d="M303.459 207.72L271.792 249.943C301.596 249.483 330.372 246.91 358.978 242.246C358.674 241.932 358.378 241.613 358.072 241.303C343.372 226.316 325.582 214.573 303.459 207.719Z" class="" fill="url(#delapouite-convict-gradient-6)" stroke="#000000" stroke-opacity="1" stroke-width="2"></path><path d="M236.022 214.365L256 241.002L275.977 214.365C269.462 216.116 262.746 217.002 256 217C249.254 217.002 242.538 216.116 236.023 214.365Z" class="" fill="url(#delapouite-convict-gradient-7)" stroke="#000000" stroke-opacity="1" stroke-width="2"></path><path d="M129.108 274.415C125.268 281.048 121.784 287.972 118.615 295.1L147.425 302.303C257.895 318.089 254.1 318.089 364.572 302.303L393.382 295.1C390.232 288.015 386.772 281.13 382.959 274.535C303.349 289.861 223.137 289.717 129.109 274.415Z" class="" fill="url(#delapouite-convict-gradient-8)" stroke="#000000" stroke-opacity="1" stroke-width="2"></path><path d="M106.203 329.105C105.677 330.868 105.166 332.636 104.67 334.408C102.839 341.018 101.197 347.679 99.744 354.383L135 363.195L135 336.305L106.205 329.105Z" class="" fill="url(#delapouite-convict-gradient-9)" stroke="#000000" stroke-opacity="1" stroke-width="2"></path><path d="M405.793 329.105L376.998 336.305L376.998 362.675L411.855 352.627C410.504 346.515 408.993 340.44 407.325 334.407C406.829 332.635 406.319 330.868 405.793 329.105Z" class="" fill="url(#delapouite-convict-gradient-10)" stroke="#000000" stroke-opacity="1" stroke-width="2"></path><path d="M153 339.46L153 367.41C226.738 381.61 285.264 381.606 359 367.406L359 339.46C262.125 353.212 249.875 353.212 153 339.46Z" class="" fill="url(#delapouite-convict-gradient-11)" stroke="#000000" stroke-opacity="1" stroke-width="2"></path><path d="M418.188 388.266L377 400.14L377 427.195L421.227 416.139C420.46 406.822 419.446 397.528 418.187 388.265Z" class="" fill="url(#delapouite-convict-gradient-12)" stroke="#000000" stroke-opacity="1" stroke-width="2"></path><path d="M93.59 389.95C92.435 398.655 91.496 407.388 90.773 416.14L135 427.194L135 400.304L93.59 389.95Z" class="" fill="url(#delapouite-convict-gradient-13)" stroke="#000000" stroke-opacity="1" stroke-width="2"></path><path d="M153 404.04L153 431.213C241.597 445.665 285.463 445.721 359 431.418L359 404.038C286.882 417.202 225.118 417.202 153 404.038Z" class="" fill="url(#delapouite-convict-gradient-14)" stroke="#000000" stroke-opacity="1" stroke-width="2"></path><path d="M88.848 452.766C88.492 467.55 88.723 478.822 88.875 487L135 487L135 464.305L88.848 452.765Z" class="" fill="url(#delapouite-convict-gradient-15)" stroke="#000000" stroke-opacity="1" stroke-width="2"></path><path d="M423.152 452.766L377 464.306L377 487L423.125 487C423.277 478.822 423.508 467.55 423.152 452.766Z" class="selected" fill="url(#delapouite-convict-gradient-16)" stroke="#000000" stroke-opacity="1" stroke-width="2"></path><path d="M153 467.696L153 487L359 487L359 468.06C287.902 481.254 237.523 481.1 153 467.695Z" class="" fill="url(#delapouite-convict-gradient-17)" stroke="#000000" stroke-opacity="1" stroke-width="2"></path></g></g></svg>