<svg xmlns="http://www.w3.org/2000/svg" viewBox="0 0 512 512" style="height: 512px; width: 512px;"><defs><radialGradient id="delapouite-dead-head-gradient-2"><stop offset="0%" stop-color="#f8e71c" stop-opacity="1"></stop><stop offset="100%" stop-color="#f5a623" stop-opacity="1"></stop></radialGradient><linearGradient x1="0" x2="1" y1="0" y2="1" id="delapouite-dead-head-gradient-3"><stop offset="0%" stop-color="#fc88fc" stop-opacity="1"></stop><stop offset="100%" stop-color="#bd10e0" stop-opacity="1"></stop></linearGradient><linearGradient x1="0" x2="1" y1="0" y2="1" id="delapouite-dead-head-gradient-4"><stop offset="0%" stop-color="#fc88fc" stop-opacity="1"></stop><stop offset="100%" stop-color="#bd10e0" stop-opacity="1"></stop></linearGradient><linearGradient x1="0" x2="0" y1="0" y2="1" id="delapouite-dead-head-gradient-6"><stop offset="0%" stop-color="#e72b42" stop-opacity="1"></stop><stop offset="100%" stop-color="#d0021b" stop-opacity="1"></stop></linearGradient><linearGradient x1="0" x2="1" y1="1" y2="0" id="delapouite-dead-head-gradient-7"><stop offset="0%" stop-color="#b57204" stop-opacity="1"></stop><stop offset="100%" stop-color="#8b572a" stop-opacity="1"></stop></linearGradient></defs><g class="" transform="translate(0,0)" style=""><g><path d="M256 19.313C211.596 19.313 170.902 44.746 140.752 87.436C110.6 130.126 91.594 189.846 91.594 256C91.594 322.152 110.599 381.87 140.75 424.563C170.9 467.253 211.595 492.688 256 492.688C300.402 492.688 341.07 467.253 371.22 424.563C401.37 381.873 420.406 322.153 420.406 256C420.406 189.848 401.369 130.13 371.216 87.436C341.066 44.746 300.404 19.312 256.002 19.312L256 19.312Z" class="selected" fill="url(#delapouite-dead-head-gradient-2)" stroke="#000000" stroke-opacity="1" stroke-width="2"></path><path d="M204.23 213.88L219.22 223.846L199.146 254.036L229.338 274.109L219.373 289.099L189.183 269.026L169.109 299.218L154.119 289.252L174.189 259.06L144 238.99L153.965 224L184.155 244.072L204.229 213.882Z" class="" fill="url(#delapouite-dead-head-gradient-3)" stroke="#000000" stroke-opacity="1" stroke-width="2"></path><path d="M307.77 213.88L327.844 244.072L358.034 224L368 238.99L337.81 259.062L357.88 289.254L342.89 299.219L322.818 269.026L292.628 289.099L282.662 274.109L312.854 254.036L292.781 223.846L307.771 213.88Z" class="" fill="url(#delapouite-dead-head-gradient-4)" stroke="#000000" stroke-opacity="1" stroke-width="2"></path><path d="M256 367C282 367 308.242 375.515 326.363 393.637L313.637 406.363C310.357 403.083 306.631 400.165 302.57 397.613C302.51 399.163 302.428 400.741 302.3 402.35C301.84 408.043 300.97 414.004 298.732 419.607C296.496 425.21 292.077 431.482 284.504 433.094C276.008 434.901 268.522 430.514 263.374 425.504C258.228 420.494 254.254 414.264 250.879 408.082C246.099 399.328 242.666 390.588 241.049 386.18C224.469 388.775 209.069 395.657 198.362 406.363L185.636 393.637C203.757 375.515 230 367 256 367Z" class="" fill="#000000" fill-opacity="1" stroke="#000000" stroke-opacity="1" stroke-width="2"></path><path d="M259.945 385.084C261.615 389.179 263.917 394.396 266.68 399.457C269.565 404.743 272.983 409.737 275.93 412.604C278.73 415.328 280.044 415.584 280.658 415.5C280.714 415.43 281.201 414.977 282.016 412.936C283.114 410.184 283.981 405.582 284.356 400.904C284.689 396.79 284.699 392.712 284.613 389.381C276.786 386.886 268.421 385.429 259.945 385.085Z" class="" fill="url(#delapouite-dead-head-gradient-6)" stroke="#000000" stroke-opacity="1" stroke-width="2"></path></g></g></svg>