<svg xmlns="http://www.w3.org/2000/svg" viewBox="0 0 512 512" style="height: 512px; width: 512px;"><defs><linearGradient id="delapouite-family-house-gradient-2" x1="0" x2="0" y1="0" y2="1"><stop offset="0%" stop-color="#8b572a" stop-opacity="1"></stop><stop offset="100%" stop-color="#b57204" stop-opacity="1"></stop></linearGradient><linearGradient x1="0" x2="0" y1="0" y2="1" id="delapouite-family-house-gradient-3"><stop offset="0%" stop-color="#c9c9c9" stop-opacity="1"></stop><stop offset="100%" stop-color="#9b9b9b" stop-opacity="1"></stop></linearGradient><radialGradient id="delapouite-family-house-gradient-4"><stop offset="0%" stop-color="#f8e71c" stop-opacity="1"></stop><stop offset="100%" stop-color="#f5a623" stop-opacity="1"></stop></radialGradient><radialGradient id="delapouite-family-house-gradient-5"><stop offset="0%" stop-color="#48baff" stop-opacity="1"></stop><stop offset="100%" stop-color="#4a90e2" stop-opacity="1"></stop></radialGradient><radialGradient id="delapouite-family-house-gradient-6"><stop offset="0%" stop-color="#f8e71c" stop-opacity="1"></stop><stop offset="100%" stop-color="#f5a623" stop-opacity="1"></stop></radialGradient><radialGradient id="delapouite-family-house-gradient-7"><stop offset="0%" stop-color="#f8e71c" stop-opacity="1"></stop><stop offset="100%" stop-color="#f5a623" stop-opacity="1"></stop></radialGradient><linearGradient x1="0" x2="0" y1="0" y2="1" id="delapouite-family-house-gradient-8"><stop offset="0%" stop-color="#48baff" stop-opacity="1"></stop><stop offset="100%" stop-color="#4a90e2" stop-opacity="1"></stop></linearGradient><linearGradient x1="0" x2="0" y1="0" y2="1" id="delapouite-family-house-gradient-9"><stop offset="0%" stop-color="#48baff" stop-opacity="1"></stop><stop offset="100%" stop-color="#4a90e2" stop-opacity="1"></stop></linearGradient><linearGradient x1="0" x2="0" y1="0" y2="1" id="delapouite-family-house-gradient-10"><stop offset="0%" stop-color="#48baff" stop-opacity="1"></stop><stop offset="100%" stop-color="#4a90e2" stop-opacity="1"></stop></linearGradient><linearGradient x1="0" x2="0" y1="0" y2="1" id="delapouite-family-house-gradient-11"><stop offset="0%" stop-color="#48baff" stop-opacity="1"></stop><stop offset="100%" stop-color="#4a90e2" stop-opacity="1"></stop></linearGradient><radialGradient id="delapouite-family-house-gradient-12"><stop offset="0%" stop-color="#f8e71c" stop-opacity="1"></stop><stop offset="100%" stop-color="#f5a623" stop-opacity="1"></stop></radialGradient><radialGradient id="delapouite-family-house-gradient-13"><stop offset="0%" stop-color="#f8e71c" stop-opacity="1"></stop><stop offset="100%" stop-color="#f5a623" stop-opacity="1"></stop></radialGradient><linearGradient x1="0" x2="0" y1="0" y2="1" id="delapouite-family-house-gradient-14"><stop offset="0%" stop-color="#8b572a" stop-opacity="1"></stop><stop offset="100%" stop-color="#b57204" stop-opacity="1"></stop></linearGradient><radialGradient id="delapouite-family-house-gradient-15"><stop offset="0%" stop-color="#48baff" stop-opacity="1"></stop><stop offset="100%" stop-color="#4a90e2" stop-opacity="1"></stop></radialGradient><radialGradient id="delapouite-family-house-gradient-16"><stop offset="0%" stop-color="#48baff" stop-opacity="1"></stop><stop offset="100%" stop-color="#4a90e2" stop-opacity="1"></stop></radialGradient></defs><g class="" transform="translate(0,0)" style=""><g><path d="M55.379 25L26.979 167L172.27 167L256 83.271L339.729 167L485.02 167L456.62 25Z" class="" fill="url(#delapouite-family-house-gradient-2)" stroke="#000000" stroke-opacity="1" stroke-width="2"></path><path d="M256 108.727L179.729 185L41 185L41 487L199 487L199 400C199 381.75 206.166 366.923 217.021 357.273C227.877 347.624 242 343 256 343C270 343 284.123 347.624 294.979 357.273C305.834 366.923 313 381.75 313 400L313 487L471 487L471 185L332.271 185Z" class="" fill="url(#delapouite-family-house-gradient-3)" stroke="#000000" stroke-opacity="1" stroke-width="2"></path><path d="M256 147.271L313 204.271L313 297L199 297L199 204.271Z" class="" fill="url(#delapouite-family-house-gradient-4)" stroke="#000000" stroke-opacity="1" stroke-width="2"></path><path d="M256 172.727L217 211.727L217 279L295 279L295 211.729Z" class="" fill="url(#delapouite-family-house-gradient-5)" stroke="#000000" stroke-opacity="1" stroke-width="2"></path><path d="M71 199L169 199L169 297L71 297Z" class="" fill="url(#delapouite-family-house-gradient-6)" stroke="#000000" stroke-opacity="1" stroke-width="2"></path><path d="M343 199L441 199L441 297L343 297Z" class="" fill="url(#delapouite-family-house-gradient-7)" stroke="#000000" stroke-opacity="1" stroke-width="2"></path><path d="M89 217L89 247L151 247L151 217Z" class="" fill="url(#delapouite-family-house-gradient-8)" stroke="#000000" stroke-opacity="1" stroke-width="2"></path><path d="M361 217L361 247L423 247L423 217Z" class="" fill="url(#delapouite-family-house-gradient-9)" stroke="#000000" stroke-opacity="1" stroke-width="2"></path><path d="M89 265L89 279L151 279L151 265Z" class="" fill="url(#delapouite-family-house-gradient-10)" stroke="#000000" stroke-opacity="1" stroke-width="2"></path><path d="M361 265L361 279L423 279L423 265Z" class="" fill="url(#delapouite-family-house-gradient-11)" stroke="#000000" stroke-opacity="1" stroke-width="2"></path><path d="M71 359L169 359L169 457L71 457L71 359Z" class="" fill="url(#delapouite-family-house-gradient-12)" stroke="#000000" stroke-opacity="1" stroke-width="2"></path><path d="M343 359L441 359L441 457L343 457L343 359Z" class="" fill="url(#delapouite-family-house-gradient-13)" stroke="#000000" stroke-opacity="1" stroke-width="2"></path><path d="M256 361C246 361 236.123 364.376 228.979 370.727C221.834 377.077 217 386.25 217 400L217 487L295 487L295 400C295 386.25 290.166 377.077 283.021 370.727C275.877 364.376 266 361 256 361Z" class="" fill="url(#delapouite-family-house-gradient-14)" stroke="#000000" stroke-opacity="1" stroke-width="2"></path><path d="M89 377L89 439L151 439L151 377Z" class="" fill="url(#delapouite-family-house-gradient-15)" stroke="#000000" stroke-opacity="1" stroke-width="2"></path><path d="M361 377L361 439L423 439L423 377Z" class="selected" fill="url(#delapouite-family-house-gradient-16)" stroke="#000000" stroke-opacity="1" stroke-width="2"></path></g></g></svg>