<svg xmlns="http://www.w3.org/2000/svg" viewBox="0 0 512 512" style="height: 512px; width: 512px;"><defs><radialGradient id="lorc-treasure-map-gradient-1"><stop offset="0%" stop-color="#8b572a" stop-opacity="1"></stop><stop offset="100%" stop-color="#b57204" stop-opacity="1"></stop></radialGradient><radialGradient id="lorc-treasure-map-gradient-2"><stop offset="0%" stop-color="#ffffff" stop-opacity="1"></stop><stop offset="100%" stop-color="#ffe0af" stop-opacity="1"></stop></radialGradient><radialGradient id="lorc-treasure-map-gradient-3"><stop offset="0%" stop-color="#7ed321" stop-opacity="1"></stop><stop offset="100%" stop-color="#417505" stop-opacity="1"></stop></radialGradient><radialGradient id="lorc-treasure-map-gradient-18"><stop offset="0%" stop-color="#d0021b" stop-opacity="1"></stop><stop offset="100%" stop-color="#a50215" stop-opacity="1"></stop></radialGradient><radialGradient id="lorc-treasure-map-gradient-19"><stop offset="0%" stop-color="#48baff" stop-opacity="1"></stop><stop offset="100%" stop-color="#4a90e2" stop-opacity="1"></stop></radialGradient><radialGradient id="lorc-treasure-map-gradient-22"><stop offset="0%" stop-color="#fc88fc" stop-opacity="1"></stop><stop offset="100%" stop-color="#bd10e0" stop-opacity="1"></stop></radialGradient><radialGradient id="lorc-treasure-map-gradient-25"><stop offset="0%" stop-color="#9b9b9b" stop-opacity="1"></stop><stop offset="100%" stop-color="#4a4a4a" stop-opacity="1"></stop></radialGradient><radialGradient id="lorc-treasure-map-gradient-26"><stop offset="0%" stop-color="#9b9b9b" stop-opacity="1"></stop><stop offset="100%" stop-color="#4a4a4a" stop-opacity="1"></stop></radialGradient><radialGradient id="lorc-treasure-map-gradient-27"><stop offset="0%" stop-color="#9b9b9b" stop-opacity="1"></stop><stop offset="100%" stop-color="#4a4a4a" stop-opacity="1"></stop></radialGradient><radialGradient id="lorc-treasure-map-gradient-28"><stop offset="0%" stop-color="#9b9b9b" stop-opacity="1"></stop><stop offset="100%" stop-color="#4a4a4a" stop-opacity="1"></stop></radialGradient><radialGradient id="lorc-treasure-map-gradient-29"><stop offset="0%" stop-color="#9b9b9b" stop-opacity="1"></stop><stop offset="100%" stop-color="#4a4a4a" stop-opacity="1"></stop></radialGradient><radialGradient id="lorc-treasure-map-gradient-30"><stop offset="0%" stop-color="#9b9b9b" stop-opacity="1"></stop><stop offset="100%" stop-color="#4a4a4a" stop-opacity="1"></stop></radialGradient><radialGradient id="lorc-treasure-map-gradient-31"><stop offset="0%" stop-color="#9b9b9b" stop-opacity="1"></stop><stop offset="100%" stop-color="#4a4a4a" stop-opacity="1"></stop></radialGradient><radialGradient id="lorc-treasure-map-gradient-32"><stop offset="0%" stop-color="#9b9b9b" stop-opacity="1"></stop><stop offset="100%" stop-color="#4a4a4a" stop-opacity="1"></stop></radialGradient><radialGradient id="lorc-treasure-map-gradient-33"><stop offset="0%" stop-color="#9b9b9b" stop-opacity="1"></stop><stop offset="100%" stop-color="#4a4a4a" stop-opacity="1"></stop></radialGradient><radialGradient id="lorc-treasure-map-gradient-34"><stop offset="0%" stop-color="#9b9b9b" stop-opacity="1"></stop><stop offset="100%" stop-color="#4a4a4a" stop-opacity="1"></stop></radialGradient><radialGradient id="lorc-treasure-map-gradient-35"><stop offset="0%" stop-color="#9b9b9b" stop-opacity="1"></stop><stop offset="100%" stop-color="#4a4a4a" stop-opacity="1"></stop></radialGradient><radialGradient id="lorc-treasure-map-gradient-36"><stop offset="0%" stop-color="#9b9b9b" stop-opacity="1"></stop><stop offset="100%" stop-color="#4a4a4a" stop-opacity="1"></stop></radialGradient><radialGradient id="lorc-treasure-map-gradient-37"><stop offset="0%" stop-color="#9b9b9b" stop-opacity="1"></stop><stop offset="100%" stop-color="#4a4a4a" stop-opacity="1"></stop></radialGradient></defs><g class="" transform="translate(0,0)" style=""><g><path d="M227.4 34.7C217.3 34.7 207.2 34.9 197.2 35.2L203.3 100.8L142.2 38.3C110.9 40.8 79.7 44.9 48.4 50.8L82.6 79.2L34.6 78.6C69.7 178.8 41.5 261.2 34.3 370.7L130 476.5C140 475.2 149.9 474.1 159.6 473.2L181.1 431L199.7 459.8L241.2 426.3L242 469.3C324.9 469.1 399.7 478.4 477.7 477.2C449.5 404.2 446.5 333.6 445.8 268L412.5 248.9L445.2 215C444.8 193.7 443.9 173 441.6 153.1L384.2 153.8L434.4 112.1C430.6 96.6 425.4 81.7 418.3 67.4L388.8 43.5C335 38 281.2 34.6 227.4 34.7Z" class="" fill="url(#lorc-treasure-map-gradient-2)" stroke="#000000" stroke-opacity="1" stroke-width="2"></path><path d="M286.1 71.7C296.7 96.45 307.2 121.2 317.8 146C325.3 135.5 332.7 125 340.2 114.5C356.2 141.7 372.2 168.8 388.2 196L372 205.5L338.7 148.8L296.2 208.2L281 197.3L305 163.8L283.1 112.3L258.5 152.4L270.5 175L254 183.8L235.7 149.3L210.9 207.5L193.7 200.1L226.2 123.9L233.9 105.9C238.7 115.1 243.5 124.2 248.4 133.3C260.9 112.7 273.5 92.19 286.1 71.7Z" class="selected" fill="url(#lorc-treasure-map-gradient-3)" stroke="#000000" stroke-opacity="1" stroke-width="2"></path><path d="M91.2 128C97.92 129.6 104.6 131.4 110.4 133.3C108.3 139.2 106.3 145.1 104.2 150.9C98.41 149.3 92.48 147.5 87.3 146.2C88.69 140.2 89.92 134.1 91.2 128Z" class="" fill="#000000" stroke="#000000" stroke-opacity="1" stroke-width="2" fill-opacity="1"></path><path d="M129.1 141.4C135.4 145.2 141.1 148.6 146.1 154.2L132.6 167C128.6 163.3 124 160 119.8 157.6Z" class="" fill="#000000" stroke="#000000" stroke-opacity="1" stroke-width="2" fill-opacity="1"></path><path d="M157.8 173.7C159.9 181.1 159.9 189.4 159.4 196.2L140.9 193.8C141 188.7 141.2 183.8 139.9 179.3Z" class="" fill="#000000" stroke="#000000" stroke-opacity="1" stroke-width="2" fill-opacity="1"></path><path d="M136.6 209.4L153.8 216.5C150.5 223.1 148.7 229.2 145.2 234.3L128.9 225.3C131.5 219.9 134.5 214.5 136.6 209.4Z" class="" fill="#000000" stroke="#000000" stroke-opacity="1" stroke-width="2" fill-opacity="1"></path><path d="M120.1 243.5L137.8 249.6C136.3 255 134.8 260.8 134.2 265.8L115.6 263.8C116.9 256.3 117.7 249.8 120.1 243.5Z" class="" fill="#000000" stroke="#000000" stroke-opacity="1" stroke-width="2" fill-opacity="1"></path><path d="M327.9 260.9C336.4 261.9 342.5 263.9 349.6 268L339.8 284C335.7 281.2 330.4 280.2 326.3 279.5Z" class="" fill="#000000" stroke="#000000" stroke-opacity="1" stroke-width="2" fill-opacity="1"></path><path d="M306.7 262.4C307.8 268.5 309.2 274.6 310.6 280.7C304.7 282 298.9 284 294.1 285.8L287.3 268.4C294 266 300.8 263.7 306.7 262.4Z" class="" fill="#000000" stroke="#000000" stroke-opacity="1" stroke-width="2" fill-opacity="1"></path><path d="M268.8 278.3L279.8 293.4C274.2 297.4 268 301.2 263 304L254.1 287.6C259.2 284.7 264.7 281.3 268.8 278.3Z" class="" fill="#000000" stroke="#000000" stroke-opacity="1" stroke-width="2" fill-opacity="1"></path><path d="M135.3 281C136.8 285.7 139.5 290.2 142.2 293.1L128.4 305.7C122.9 300 118.9 292.2 117.2 285.6Z" class="" fill="#000000" stroke="#000000" stroke-opacity="1" stroke-width="2" fill-opacity="1"></path><path d="M365.6 284.3C369.1 290.7 372.4 297 374.3 303.4L356.5 309C354.5 303.6 352.2 298.2 349.7 294.2Z" class="" fill="#000000" stroke="#000000" stroke-opacity="1" stroke-width="2" fill-opacity="1"></path><path d="M238.2 295.2L245.1 312.5C238.7 315.2 232.2 317.3 226.5 319L221.5 301C227.4 299.4 232.8 297.2 238.2 295.2Z" class="" fill="#000000" stroke="#000000" stroke-opacity="1" stroke-width="2" fill-opacity="1"></path><path d="M154.4 301.4C159.7 303.1 165.2 304.8 170.1 305.6C168.9 311.7 168.1 317.9 167.3 324.1C160.3 323.1 152.8 320.8 146.8 318.4Z" class="" fill="#000000" stroke="#000000" stroke-opacity="1" stroke-width="2" fill-opacity="1"></path><path d="M204.4 304.9L207.2 323.4C200 324.7 193.8 325 187.4 325.3L187 306.6C192.9 306.4 198.6 305.8 204.4 304.9Z" class="" fill="#000000" stroke="#000000" stroke-opacity="1" stroke-width="2" fill-opacity="1"></path><path d="M378.9 322.9C379.9 329.3 380.5 335.8 381.1 342.2L362.4 343.7C362 337.7 361.5 331.8 360.4 325.9Z" class="" fill="#000000" stroke="#000000" stroke-opacity="1" stroke-width="2" fill-opacity="1"></path><path d="M311.3 353.7C330.2 357.2 356.2 369.9 380.2 387.6C387.6 377.7 394.6 367.2 401.5 356.5L431.6 369.4C426.9 381.7 416.6 395 403 406.6C420 422.8 433.9 441.1 440 459.6C426.2 441.5 408.9 427.8 389.7 416.8C366.3 432.6 337 442.7 310.1 437.2C333 432.8 350.7 420.6 365.9 404.6C349.4 397.1 332.1 390.7 314.6 384.5Z" class="" fill="url(#lorc-treasure-map-gradient-18)" stroke="#000000" stroke-opacity="1" stroke-width="2"></path></g></g></svg>