<svg xmlns="http://www.w3.org/2000/svg" viewBox="0 0 512 512" style="height: 512px; width: 512px;"><defs><linearGradient x1="0" x2="0" y1="0" y2="1" id="delapouite-barn-gradient-2"><stop offset="0%" stop-color="#f8e71c" stop-opacity="1"></stop><stop offset="100%" stop-color="#f5a623" stop-opacity="1"></stop></linearGradient><linearGradient x1="0" x2="0" y1="0" y2="1" id="delapouite-barn-gradient-3"><stop offset="0%" stop-color="#d0021b" stop-opacity="1"></stop><stop offset="100%" stop-color="#61030f" stop-opacity="1"></stop></linearGradient><linearGradient x1="0" x2="0" y1="0" y2="1" id="delapouite-barn-gradient-5"><stop offset="0%" stop-color="#4a4a4a" stop-opacity="1"></stop><stop offset="100%" stop-color="#000000" stop-opacity="1"></stop></linearGradient><linearGradient x1="0" x2="0" y1="0" y2="1" id="delapouite-barn-gradient-6"><stop offset="0%" stop-color="#4a4a4a" stop-opacity="1"></stop><stop offset="100%" stop-color="#9b9b9b" stop-opacity="1"></stop></linearGradient><radialGradient id="delapouite-barn-gradient-7"><stop offset="0%" stop-color="#f8e71c" stop-opacity="1"></stop><stop offset="100%" stop-color="#f5a623" stop-opacity="1"></stop></radialGradient><radialGradient id="delapouite-barn-gradient-8"><stop offset="0%" stop-color="#f8e71c" stop-opacity="1"></stop><stop offset="100%" stop-color="#f5a623" stop-opacity="1"></stop></radialGradient><radialGradient id="delapouite-barn-gradient-9"><stop offset="0%" stop-color="#f8e71c" stop-opacity="1"></stop><stop offset="100%" stop-color="#c0b204" stop-opacity="1"></stop></radialGradient><radialGradient id="delapouite-barn-gradient-10"><stop offset="0%" stop-color="#554000" stop-opacity="1"></stop><stop offset="100%" stop-color="#796939" stop-opacity="1"></stop></radialGradient></defs><g class="" transform="translate(0,0)" style=""><g><path d="M256 23.38L89.844 89.845L24.944 252.099L39.794 258.042C60.106 207.276 80.414 156.507 100.724 105.738L102.156 102.158L256 40.616L409.844 102.156L411.274 105.736L472.204 258.041L487.057 252.099L422.157 89.845C366.77 67.69 311.386 45.534 256 23.38Z" class="" fill="url(#delapouite-barn-gradient-2)" stroke="#000000" stroke-opacity="1" stroke-width="2"></path><path d="M256 60.004L116.004 116.002L72.8 224L73 224L73 487L151 487L151 329L112 329L112 311L409 311L409 487L439 487L439 224L439.2 224C424.798 188 410.398 152 395.996 116.002L256 60.004Z" class="" fill="url(#delapouite-barn-gradient-3)" stroke="#000000" stroke-opacity="1" stroke-width="2"></path><path d="M151 135L361 135L361 249L151 249L151 135Z" class="" fill="#b57204" stroke="#000000" stroke-opacity="1" stroke-width="2" fill-opacity="1"></path><path d="M174.563 153L199 201.873L199 153L174.562 153Z" class="" fill="url(#delapouite-barn-gradient-5)" stroke="#000000" stroke-opacity="1" stroke-width="2"></path><path d="M313 153L313 201.873L337.438 153L313 153Z" class="" fill="url(#delapouite-barn-gradient-6)" stroke="#000000" stroke-opacity="1" stroke-width="2"></path><path d="M169 182.127L169 231L193.438 231L169 182.127Z" class="" fill="url(#delapouite-barn-gradient-7)" stroke="#000000" stroke-opacity="1" stroke-width="2"></path><path d="M343 182.127L318.562 231L343 231L343 182.127Z" class="" fill="url(#delapouite-barn-gradient-8)" stroke="#000000" stroke-opacity="1" stroke-width="2"></path><path d="M244.27 200.817C243.063 200.797 241.96 200.837 240.982 200.945C238.159 201.255 230.222 204.653 224.122 208.245C221.326 209.89 218.892 211.465 217 212.729L217 231L295 231L295 214.03C290.807 212.355 284.666 210.01 277.422 207.662C266.216 204.032 252.712 200.952 244.27 200.816Z" class="" fill="url(#delapouite-barn-gradient-9)" stroke="#000000" stroke-opacity="1" stroke-width="2"></path><path d="M160 263L352 263L352 281L160 281L160 263Z" class="" fill="url(#delapouite-barn-gradient-10)" stroke="#000000" stroke-opacity="1" stroke-width="2"></path><path d="M175.16 329L208 389.205L240.84 329L175.16 329Z" class="" fill="#fff" stroke="#000000" stroke-opacity="1" stroke-width="2" fill-opacity="1"></path><path d="M319.16 329L352 389.205L384.84 329L319.16 329Z" class="" fill="#fff" stroke="#000000" stroke-opacity="1" stroke-width="2" fill-opacity="1"></path><path d="M169 355.295L169 460.705L197.748 408L169 355.295Z" class="" fill="#fff" stroke="#000000" stroke-opacity="1" stroke-width="2" fill-opacity="1"></path><path d="M247 355.295L218.252 408L247 460.705L247 355.295Z" class="" fill="#fff" stroke="#000000" stroke-opacity="1" stroke-width="2" fill-opacity="1"></path><path d="M313 355.295L313 460.705L341.748 408L313 355.295Z" class="" fill="#fff" stroke="#000000" stroke-opacity="1" stroke-width="2" fill-opacity="1"></path><path d="M391 355.295L362.252 408L391 460.705L391 355.295Z" class="" fill="#fff" stroke="#000000" stroke-opacity="1" stroke-width="2" fill-opacity="1"></path><path d="M208 426.795L175.16 487L240.84 487L208 426.795Z" class="" fill="#fff" fill-opacity="1" stroke="#000000" stroke-opacity="1" stroke-width="2"></path><path d="M352 426.795L319.16 487L384.84 487L352 426.795Z" class="selected" fill="#fff" fill-opacity="1" stroke="#000000" stroke-opacity="1" stroke-width="2"></path></g></g></svg>