<svg xmlns="http://www.w3.org/2000/svg" viewBox="0 0 512 512" style="height: 512px; width: 512px;"><defs><radialGradient id="delapouite-discussion-gradient-1"><stop offset="0%" stop-color="#f8e71c" stop-opacity="1"></stop><stop offset="100%" stop-color="#f5a623" stop-opacity="1"></stop></radialGradient><linearGradient x1="0" x2="1" y1="0" y2="1" id="delapouite-discussion-gradient-2"><stop offset="0%" stop-color="#ffffff" stop-opacity="1"></stop><stop offset="100%" stop-color="#ffe0af" stop-opacity="1"></stop></linearGradient><linearGradient x1="0" x2="1" y1="1" y2="0" id="delapouite-discussion-gradient-3"><stop offset="0%" stop-color="#ffffff" stop-opacity="1"></stop><stop offset="100%" stop-color="#ffe0af" stop-opacity="1"></stop></linearGradient><radialGradient id="delapouite-discussion-gradient-4"><stop offset="0%" stop-color="#b8e986" stop-opacity="1"></stop><stop offset="100%" stop-color="#7ed321" stop-opacity="1"></stop></radialGradient><radialGradient id="delapouite-discussion-gradient-5"><stop offset="0%" stop-color="#f8e71c" stop-opacity="1"></stop><stop offset="100%" stop-color="#f5a623" stop-opacity="1"></stop></radialGradient><radialGradient id="delapouite-discussion-gradient-6"><stop offset="0%" stop-color="#b8e986" stop-opacity="1"></stop><stop offset="100%" stop-color="#7ed321" stop-opacity="1"></stop></radialGradient><radialGradient id="delapouite-discussion-gradient-7"><stop offset="0%" stop-color="#f8e71c" stop-opacity="1"></stop><stop offset="100%" stop-color="#f5a623" stop-opacity="1"></stop></radialGradient><linearGradient x1="0" x2="0" y1="0" y2="1" id="delapouite-discussion-gradient-8"><stop offset="0%" stop-color="#c9c9c9" stop-opacity="1"></stop><stop offset="100%" stop-color="#9b9b9b" stop-opacity="1"></stop></linearGradient><radialGradient id="delapouite-discussion-gradient-9"><stop offset="0%" stop-color="#4a4a4a" stop-opacity="1"></stop><stop offset="100%" stop-color="#000000" stop-opacity="1"></stop></radialGradient><radialGradient id="delapouite-discussion-gradient-10"><stop offset="0%" stop-color="#4a4a4a" stop-opacity="1"></stop><stop offset="100%" stop-color="#000000" stop-opacity="1"></stop></radialGradient><radialGradient id="delapouite-discussion-gradient-11"><stop offset="0%" stop-color="#4a4a4a" stop-opacity="1"></stop><stop offset="100%" stop-color="#000000" stop-opacity="1"></stop></radialGradient><radialGradient id="delapouite-discussion-gradient-12"><stop offset="0%" stop-color="#4a4a4a" stop-opacity="1"></stop><stop offset="100%" stop-color="#000000" stop-opacity="1"></stop></radialGradient><radialGradient id="delapouite-discussion-gradient-13"><stop offset="0%" stop-color="#4a4a4a" stop-opacity="1"></stop><stop offset="100%" stop-color="#000000" stop-opacity="1"></stop></radialGradient><radialGradient id="delapouite-discussion-gradient-14"><stop offset="0%" stop-color="#4a4a4a" stop-opacity="1"></stop><stop offset="100%" stop-color="#000000" stop-opacity="1"></stop></radialGradient><radialGradient id="delapouite-discussion-gradient-15"><stop offset="0%" stop-color="#f8e71c" stop-opacity="1"></stop><stop offset="100%" stop-color="#f5a623" stop-opacity="1"></stop></radialGradient><radialGradient id="delapouite-discussion-gradient-16"><stop offset="0%" stop-color="#f8e71c" stop-opacity="1"></stop><stop offset="100%" stop-color="#f5a623" stop-opacity="1"></stop></radialGradient><radialGradient id="delapouite-discussion-gradient-17"><stop offset="0%" stop-color="#4a4a4a" stop-opacity="1"></stop><stop offset="100%" stop-color="#000000" stop-opacity="1"></stop></radialGradient><radialGradient id="delapouite-discussion-gradient-18"><stop offset="0%" stop-color="#48baff" stop-opacity="1"></stop><stop offset="100%" stop-color="#4a90e2" stop-opacity="1"></stop></radialGradient><radialGradient id="delapouite-discussion-gradient-19"><stop offset="0%" stop-color="#48baff" stop-opacity="1"></stop><stop offset="100%" stop-color="#4a90e2" stop-opacity="1"></stop></radialGradient><radialGradient id="delapouite-discussion-gradient-25"><stop offset="0%" stop-color="#9b9b9b" stop-opacity="1"></stop><stop offset="100%" stop-color="#4a4a4a" stop-opacity="1"></stop></radialGradient><radialGradient id="delapouite-discussion-gradient-26"><stop offset="0%" stop-color="#9b9b9b" stop-opacity="1"></stop><stop offset="100%" stop-color="#4a4a4a" stop-opacity="1"></stop></radialGradient><radialGradient id="delapouite-discussion-gradient-27"><stop offset="0%" stop-color="#9b9b9b" stop-opacity="1"></stop><stop offset="100%" stop-color="#4a4a4a" stop-opacity="1"></stop></radialGradient><radialGradient id="delapouite-discussion-gradient-28"><stop offset="0%" stop-color="#9b9b9b" stop-opacity="1"></stop><stop offset="100%" stop-color="#4a4a4a" stop-opacity="1"></stop></radialGradient><radialGradient id="delapouite-discussion-gradient-29"><stop offset="0%" stop-color="#9b9b9b" stop-opacity="1"></stop><stop offset="100%" stop-color="#4a4a4a" stop-opacity="1"></stop></radialGradient><radialGradient id="delapouite-discussion-gradient-30"><stop offset="0%" stop-color="#9b9b9b" stop-opacity="1"></stop><stop offset="100%" stop-color="#4a4a4a" stop-opacity="1"></stop></radialGradient><radialGradient id="delapouite-discussion-gradient-31"><stop offset="0%" stop-color="#9b9b9b" stop-opacity="1"></stop><stop offset="100%" stop-color="#4a4a4a" stop-opacity="1"></stop></radialGradient><radialGradient id="delapouite-discussion-gradient-32"><stop offset="0%" stop-color="#9b9b9b" stop-opacity="1"></stop><stop offset="100%" stop-color="#4a4a4a" stop-opacity="1"></stop></radialGradient><radialGradient id="delapouite-discussion-gradient-33"><stop offset="0%" stop-color="#9b9b9b" stop-opacity="1"></stop><stop offset="100%" stop-color="#4a4a4a" stop-opacity="1"></stop></radialGradient><radialGradient id="delapouite-discussion-gradient-34"><stop offset="0%" stop-color="#9b9b9b" stop-opacity="1"></stop><stop offset="100%" stop-color="#4a4a4a" stop-opacity="1"></stop></radialGradient><radialGradient id="delapouite-discussion-gradient-35"><stop offset="0%" stop-color="#9b9b9b" stop-opacity="1"></stop><stop offset="100%" stop-color="#4a4a4a" stop-opacity="1"></stop></radialGradient><radialGradient id="delapouite-discussion-gradient-36"><stop offset="0%" stop-color="#9b9b9b" stop-opacity="1"></stop><stop offset="100%" stop-color="#4a4a4a" stop-opacity="1"></stop></radialGradient><radialGradient id="delapouite-discussion-gradient-37"><stop offset="0%" stop-color="#9b9b9b" stop-opacity="1"></stop><stop offset="100%" stop-color="#4a4a4a" stop-opacity="1"></stop></radialGradient></defs><g class="" transform="translate(0,0)" style=""><g><path d="M165.262 25.154C126.886 25.154 92.17 31.616 67.854 41.559C55.695 46.529 46.185 52.393 40.148 58.229C34.112 64.064 31.689 69.373 31.689 74.447C31.689 79.522 34.112 84.831 40.149 90.666C46.185 96.501 55.695 102.365 67.854 107.336C92.17 117.278 126.886 123.74 165.262 123.74C165.424 123.74 165.582 123.734 165.744 123.734L126.794 232.238L214.859 119.973C233.142 117.103 249.451 112.741 262.669 107.336C274.829 102.365 284.34 96.501 290.377 90.666C296.414 84.83 298.836 79.522 298.836 74.447C298.836 69.373 296.414 64.064 290.376 58.228C284.34 52.393 274.828 46.53 262.67 41.558C238.354 31.616 203.638 25.154 165.262 25.154Z" class="" fill="url(#delapouite-discussion-gradient-2)" stroke="#000000" stroke-opacity="1" stroke-width="2"></path><path d="M349.059 119.969C310.682 119.969 275.967 126.431 251.65 136.373C239.492 141.344 229.982 147.208 223.945 153.043C217.909 158.878 215.486 164.187 215.486 169.262C215.486 174.336 217.909 179.647 223.946 185.482C229.982 191.318 239.492 197.179 251.65 202.15C254.756 203.42 258.037 204.631 261.469 205.781L344.434 311.545L310.234 216.271C322.534 217.741 335.561 218.555 349.059 218.555C387.435 218.555 422.15 212.093 446.467 202.15C458.625 197.18 468.137 191.318 474.174 185.482C480.21 179.647 482.633 174.336 482.633 169.262C482.633 164.187 480.21 158.878 474.173 153.043C468.137 147.208 458.625 141.344 446.467 136.373C422.15 126.431 387.435 119.969 349.059 119.969Z" class="" fill="url(#delapouite-discussion-gradient-3)" stroke="#000000" stroke-opacity="1" stroke-width="2"></path><path d="M96 249C70.63 249 49 272.91 49 304C49 335.09 70.63 359 96 359C121.37 359 143 335.09 143 304C143 272.91 121.37 249 96 249Z" class="" fill="url(#delapouite-discussion-gradient-4)" stroke="#000000" stroke-opacity="1" stroke-width="2"></path><path d="M416 249C390.63 249 369 272.91 369 304C369 335.09 390.63 359 416 359C441.37 359 463 335.09 463 304C463 272.91 441.37 249 416 249Z" class="selected" fill="url(#delapouite-discussion-gradient-5)" stroke="#000000" stroke-opacity="1" stroke-width="2"></path><path d="M58.166 363.348C51.082 371.669 45.136 382.606 40.428 395.16C30.098 422.704 25.995 457.396 25.297 487L166.703 487C166.005 457.396 161.901 422.704 151.573 395.16C146.864 382.606 140.918 371.67 133.834 363.348C123.246 371.9 110.235 377 96 377C81.765 377 68.754 371.9 58.166 363.348Z" class="" fill="url(#delapouite-discussion-gradient-6)" stroke="#000000" stroke-opacity="1" stroke-width="2"></path><path d="M378.166 363.348C371.082 371.669 365.136 382.606 360.428 395.16C350.098 422.704 345.995 457.396 345.297 487L486.703 487C486.005 457.396 481.901 422.704 471.573 395.16C466.864 382.606 460.918 371.67 453.834 363.348C443.246 371.9 430.235 377 416 377C401.765 377 388.754 371.9 378.166 363.348Z" class="" fill="url(#delapouite-discussion-gradient-7)" stroke="#000000" stroke-opacity="1" stroke-width="2"></path></g></g></svg>