<svg xmlns="http://www.w3.org/2000/svg" viewBox="0 0 512 512" style="height: 512px; width: 512px;"><defs><radialGradient id="delapouite-star-struck-gradient-2"><stop offset="0%" stop-color="#f8e71c" stop-opacity="1"></stop><stop offset="100%" stop-color="#f5a623" stop-opacity="1"></stop></radialGradient><linearGradient x1="0" x2="1" y1="0" y2="1" id="delapouite-star-struck-gradient-3"><stop offset="0%" stop-color="#fc88fc" stop-opacity="1"></stop><stop offset="100%" stop-color="#bd10e0" stop-opacity="1"></stop></linearGradient><linearGradient x1="0" x2="1" y1="0" y2="1" id="delapouite-star-struck-gradient-4"><stop offset="0%" stop-color="#fc88fc" stop-opacity="1"></stop><stop offset="100%" stop-color="#bd10e0" stop-opacity="1"></stop></linearGradient><linearGradient x1="0" x2="0" y1="0" y2="1" id="delapouite-star-struck-gradient-6"><stop offset="0%" stop-color="#e72b42" stop-opacity="1"></stop><stop offset="100%" stop-color="#d0021b" stop-opacity="1"></stop></linearGradient><linearGradient x1="0" x2="1" y1="1" y2="0" id="delapouite-star-struck-gradient-7"><stop offset="0%" stop-color="#b57204" stop-opacity="1"></stop><stop offset="100%" stop-color="#8b572a" stop-opacity="1"></stop></linearGradient></defs><g class="" transform="translate(0,0)" style=""><g><path d="M256.1 19.16C207.3 19.16 162.9 44.88 130.2 87.61C97.47 130.3 76.87 189.9 76.87 256C76.87 322 97.47 381.6 130.2 424.4C162.9 467.1 207.3 492.8 256.1 492.8C304.8 492.8 349.2 467.1 381.9 424.4C414.6 381.6 435.1 322 435.1 256C435.1 189.9 414.6 130.3 381.9 87.61C349.1 44.88 304.8 19.16 256.1 19.16Z" class="selected" fill="url(#delapouite-star-struck-gradient-2)" stroke="#000000" stroke-opacity="1" stroke-width="2"></path><path d="M149.6 162.2L185.6 204.9L240 192L210.5 239.4L239.6 287.1L185.3 273.7L149 316.1L144.9 260.4L93.39 238.9L145.1 217.9L149.6 162.2Z" class="" fill="url(#delapouite-star-struck-gradient-3)" stroke="#000000" stroke-opacity="1" stroke-width="2"></path><path d="M362.3 162.2L366.8 217.9L418.6 238.9L367 260.4L363 316.1L326.6 273.7L272.4 287.1L301.5 239.4L272 192L326.3 204.9L362.3 162.2Z" class="" fill="url(#delapouite-star-struck-gradient-4)" stroke="#000000" stroke-opacity="1" stroke-width="2"></path><path d="M257.5 349.2C292 349.2 326.5 356.7 356.8 371.7L363.3 374.9L361.8 382C361.8 382 358 399.9 343 417.1C328 434.3 301 451.2 257.5 451.2C214 451.2 187.1 434.3 172.1 417.1C157 399.9 153.3 382 153.3 382L151.8 374.9L158.3 371.7C161.1 370.3 163.9 369.1 166.8 367.8L166.8 367.4L167.6 367.4C195.5 355.3 226.5 349.2 257.5 349.2Z" class="" fill="#000000" fill-opacity="1" stroke="#000000" stroke-opacity="1" stroke-width="2"></path><path d="M185 403.4C185.3 403.9 185.7 404.4 186.1 404.8C198.1 418.5 218.7 432.5 257.5 432.5C296.4 432.5 317 418.5 328.9 404.8C329.3 404.4 329.6 403.9 330.1 403.4L185 403.4Z" class="" fill="url(#delapouite-star-struck-gradient-6)" stroke="#000000" stroke-opacity="1" stroke-width="2"></path></g></g></svg>