<svg xmlns="http://www.w3.org/2000/svg" viewBox="0 0 512 512" style="height: 512px; width: 512px;"><defs><radialGradient id="delapouite-progression-gradient-2"><stop offset="0%" stop-color="#f8e71c" stop-opacity="1"></stop><stop offset="100%" stop-color="#f5a623" stop-opacity="1"></stop></radialGradient><radialGradient id="delapouite-progression-gradient-3"><stop offset="0%" stop-color="#fe8896" stop-opacity="1"></stop><stop offset="100%" stop-color="#d0021b" stop-opacity="1"></stop></radialGradient><radialGradient id="delapouite-progression-gradient-4"><stop offset="0%" stop-color="#fe8896" stop-opacity="1"></stop><stop offset="100%" stop-color="#d0021b" stop-opacity="1"></stop></radialGradient><radialGradient id="delapouite-progression-gradient-5"><stop offset="0%" stop-color="#fe8896" stop-opacity="1"></stop><stop offset="100%" stop-color="#d0021b" stop-opacity="1"></stop></radialGradient><radialGradient id="delapouite-progression-gradient-6"><stop offset="0%" stop-color="#fe8896" stop-opacity="1"></stop><stop offset="100%" stop-color="#d0021b" stop-opacity="1"></stop></radialGradient><radialGradient id="delapouite-progression-gradient-7"><stop offset="0%" stop-color="#fc88fc" stop-opacity="1"></stop><stop offset="100%" stop-color="#bd10e0" stop-opacity="1"></stop></radialGradient><radialGradient id="delapouite-progression-gradient-8"><stop offset="0%" stop-color="#fc6879" stop-opacity="1"></stop><stop offset="100%" stop-color="#d0021b" stop-opacity="1"></stop></radialGradient><radialGradient id="delapouite-progression-gradient-9"><stop offset="0%" stop-color="#fc6879" stop-opacity="1"></stop><stop offset="100%" stop-color="#d0021b" stop-opacity="1"></stop></radialGradient><radialGradient id="delapouite-progression-gradient-10"><stop offset="0%" stop-color="#f8e71c" stop-opacity="1"></stop><stop offset="100%" stop-color="#f5a623" stop-opacity="1"></stop></radialGradient><linearGradient x1="0" x2="0" y1="0" y2="1" id="delapouite-progression-gradient-11"><stop offset="0%" stop-color="#f8e71c" stop-opacity="1"></stop><stop offset="100%" stop-color="#f5a623" stop-opacity="1"></stop></linearGradient><linearGradient x1="0" x2="0" y1="0" y2="1" id="delapouite-progression-gradient-12"><stop offset="0%" stop-color="#c9c9c9" stop-opacity="1"></stop><stop offset="100%" stop-color="#9b9b9b" stop-opacity="1"></stop></linearGradient><linearGradient x1="0" x2="0" y1="0" y2="1" id="delapouite-progression-gradient-13"><stop offset="0%" stop-color="#c9c9c9" stop-opacity="1"></stop><stop offset="100%" stop-color="#9b9b9b" stop-opacity="1"></stop></linearGradient><linearGradient x1="0" x2="0" y1="0" y2="1" id="delapouite-progression-gradient-14"><stop offset="0%" stop-color="#c9c9c9" stop-opacity="1"></stop><stop offset="100%" stop-color="#9b9b9b" stop-opacity="1"></stop></linearGradient><radialGradient id="delapouite-progression-gradient-15"><stop offset="0%" stop-color="#50e3c2" stop-opacity="1"></stop><stop offset="100%" stop-color="#4a90e2" stop-opacity="1"></stop></radialGradient></defs><g class="" transform="translate(0,0)" style=""><g><path d="M463 20.3L315.6 75.65L368.5 109C274 228 137.3 301.3 21.8 329.2L54.52 388.8C184.3 346.5 321.7 270.2 410.2 135.4L450.5 160.8L463 20.3Z" class="" fill="url(#delapouite-progression-gradient-2)" stroke="#000000" stroke-opacity="1" stroke-width="2"></path><path d="M470.7 137L465.9 191.8L414.6 159.4C412.8 162.1 410.9 164.7 409 167.4L409 487L487 487L487 137L470.7 137Z" class="" fill="url(#delapouite-progression-gradient-3)" stroke="#000000" stroke-opacity="1" stroke-width="2"></path><path d="M320.1 265C307.4 276 294.3 286.4 281 296.2L281 487L359 487L359 265L320.1 265Z" class="" fill="url(#delapouite-progression-gradient-4)" stroke="#000000" stroke-opacity="1" stroke-width="2"></path><path d="M196.4 349C182 356.6 167.6 363.6 153 370.2L153 487L231 487L231 349L196.4 349Z" class="selected" fill="url(#delapouite-progression-gradient-5)" stroke="#000000" stroke-opacity="1" stroke-width="2"></path><path d="M25 393L25 487L103 487L103 393L97.32 393C82.5 398.5 67.69 403.6 52.97 408.3L45.91 410.5L36.31 393L25 393Z" class="" fill="url(#delapouite-progression-gradient-6)" stroke="#000000" stroke-opacity="1" stroke-width="2"></path></g></g></svg>