<svg xmlns="http://www.w3.org/2000/svg" viewBox="0 0 512 512" style="height: 512px; width: 512px;"><defs><radialGradient id="delapouite-military-fort-gradient-3"><stop offset="0%" stop-color="#f8e71c" stop-opacity="1"></stop><stop offset="100%" stop-color="#f5a623" stop-opacity="1"></stop></radialGradient><radialGradient id="delapouite-military-fort-gradient-7"><stop offset="0%" stop-color="#c9c9c9" stop-opacity="1"></stop><stop offset="100%" stop-color="#9b9b9b" stop-opacity="1"></stop></radialGradient><radialGradient id="delapouite-military-fort-gradient-8"><stop offset="0%" stop-color="#c9c9c9" stop-opacity="1"></stop><stop offset="100%" stop-color="#9b9b9b" stop-opacity="1"></stop></radialGradient><radialGradient id="delapouite-military-fort-gradient-9"><stop offset="0%" stop-color="#c9c9c9" stop-opacity="1"></stop><stop offset="100%" stop-color="#9b9b9b" stop-opacity="1"></stop></radialGradient><radialGradient id="delapouite-military-fort-gradient-10"><stop offset="0%" stop-color="#c9c9c9" stop-opacity="1"></stop><stop offset="100%" stop-color="#9b9b9b" stop-opacity="1"></stop></radialGradient><radialGradient id="delapouite-military-fort-gradient-11"><stop offset="0%" stop-color="#48baff" stop-opacity="1"></stop><stop offset="100%" stop-color="#4a90e2" stop-opacity="1"></stop></radialGradient><radialGradient id="delapouite-military-fort-gradient-12"><stop offset="0%" stop-color="#48baff" stop-opacity="1"></stop><stop offset="100%" stop-color="#4a90e2" stop-opacity="1"></stop></radialGradient><radialGradient id="delapouite-military-fort-gradient-13"><stop offset="0%" stop-color="#c9c9c9" stop-opacity="1"></stop><stop offset="100%" stop-color="#9b9b9b" stop-opacity="1"></stop></radialGradient><radialGradient id="delapouite-military-fort-gradient-14"><stop offset="0%" stop-color="#c9c9c9" stop-opacity="1"></stop><stop offset="100%" stop-color="#9b9b9b" stop-opacity="1"></stop></radialGradient><radialGradient id="delapouite-military-fort-gradient-15"><stop offset="0%" stop-color="#48baff" stop-opacity="1"></stop><stop offset="100%" stop-color="#4a90e2" stop-opacity="1"></stop></radialGradient><radialGradient id="delapouite-military-fort-gradient-16"><stop offset="0%" stop-color="#48baff" stop-opacity="1"></stop><stop offset="100%" stop-color="#4a90e2" stop-opacity="1"></stop></radialGradient><radialGradient id="delapouite-military-fort-gradient-17"><stop offset="0%" stop-color="#48baff" stop-opacity="1"></stop><stop offset="100%" stop-color="#4a90e2" stop-opacity="1"></stop></radialGradient><radialGradient id="delapouite-military-fort-gradient-18"><stop offset="0%" stop-color="#48baff" stop-opacity="1"></stop><stop offset="100%" stop-color="#4a90e2" stop-opacity="1"></stop></radialGradient><radialGradient id="delapouite-military-fort-gradient-19"><stop offset="0%" stop-color="#48baff" stop-opacity="1"></stop><stop offset="100%" stop-color="#4a90e2" stop-opacity="1"></stop></radialGradient></defs><g class="" transform="translate(0,0)" style=""><g><path d="M256 21C189.28 21 135 75.28 135 142C135 208.72 189.28 263 256 263C322.72 263 377 208.72 377 142C377 75.28 322.72 21 256 21Z" class="" fill="#000000" stroke="#000000" stroke-opacity="1" stroke-width="2" fill-opacity="1"></path><path d="M256 39C312.992 39 359 85.008 359 142C359 198.992 312.992 245 256 245C199.008 245 153 198.992 153 142C153 85.008 199.008 39 256 39Z" class="" fill="url(#delapouite-military-fort-gradient-3)" stroke="#000000" stroke-opacity="1" stroke-width="2"></path><path d="M256 50.75L186.6 102.8L197.4 117.2L256 73.25L314.6 117.2L325.4 102.8L256 50.75Z" class="" fill="#d0021b" stroke="#000000" stroke-opacity="1" stroke-width="2" fill-opacity="1"></path><path d="M256 98.75L186.6 150.8L197.4 165.2L256 121.25L314.6 165.2L325.4 150.8L256 98.75Z" class="" fill="#d0021b" fill-opacity="1" stroke="#000000" stroke-opacity="1" stroke-width="2"></path><path d="M256 146.75L186.6 198.8L197.4 213.2L256 169.25L314.6 213.2L325.4 198.8L256 146.75Z" class="" fill="#d0021b" fill-opacity="1" stroke="#000000" stroke-opacity="1" stroke-width="2"></path><path d="M53.562 185L46.562 199L113.438 199L106.438 185L53.562 185Z" class="" fill="url(#delapouite-military-fort-gradient-7)" stroke="#000000" stroke-opacity="1" stroke-width="2"></path><path d="M405.562 185L398.562 199L465.437 199L458.437 185L405.562 185Z" class="selected" fill="url(#delapouite-military-fort-gradient-8)" stroke="#000000" stroke-opacity="1" stroke-width="2"></path><path d="M41 217L41 263L119 263L119 217L41 217Z" class="" fill="url(#delapouite-military-fort-gradient-9)" stroke="#000000" stroke-opacity="1" stroke-width="2"></path><path d="M393 217L393 263L471 263L471 217L393 217Z" class="" fill="url(#delapouite-military-fort-gradient-10)" stroke="#000000" stroke-opacity="1" stroke-width="2"></path><path d="M64 231L96 231L96 249L64 249L64 231Z" class="" fill="url(#delapouite-military-fort-gradient-11)" stroke="#000000" stroke-opacity="1" stroke-width="2"></path><path d="M416 231L448 231L448 249L416 249L416 231Z" class="" fill="url(#delapouite-military-fort-gradient-12)" stroke="#000000" stroke-opacity="1" stroke-width="2"></path><path d="M38.486 281L28.486 311L483.514 311L473.514 281L38.486 281Z" class="" fill="url(#delapouite-military-fort-gradient-13)" stroke="#000000" stroke-opacity="1" stroke-width="2"></path><path d="M25 329L25 487L224 487L224 400L288 400L288 487L487 487L487 329L25 329Z" class="" fill="url(#delapouite-military-fort-gradient-14)" stroke="#000000" stroke-opacity="1" stroke-width="2"></path><path d="M80 343L112 343L112 361L80 361L80 343Z" class="" fill="url(#delapouite-military-fort-gradient-15)" stroke="#000000" stroke-opacity="1" stroke-width="2"></path><path d="M160 343L192 343L192 361L160 361L160 343Z" class="" fill="url(#delapouite-military-fort-gradient-16)" stroke="#000000" stroke-opacity="1" stroke-width="2"></path><path d="M240 343L272 343L272 361L240 361L240 343Z" class="" fill="url(#delapouite-military-fort-gradient-17)" stroke="#000000" stroke-opacity="1" stroke-width="2"></path><path d="M320 343L352 343L352 361L320 361L320 343Z" class="" fill="url(#delapouite-military-fort-gradient-18)" stroke="#000000" stroke-opacity="1" stroke-width="2"></path><path d="M400 343L432 343L432 361L400 361L400 343Z" class="" fill="url(#delapouite-military-fort-gradient-19)" stroke="#000000" stroke-opacity="1" stroke-width="2"></path></g></g></svg>