<svg xmlns="http://www.w3.org/2000/svg" viewBox="0 0 512 512" style="height: 512px; width: 512px;"><defs><radialGradient id="lorc-mushroom-cloud-gradient-2"><stop offset="0%" stop-color="#f8e71c" stop-opacity="1"></stop><stop offset="100%" stop-color="#f5a623" stop-opacity="1"></stop></radialGradient><radialGradient id="lorc-mushroom-cloud-gradient-3"><stop offset="0%" stop-color="#f8e71c" stop-opacity="1"></stop><stop offset="100%" stop-color="#f5a623" stop-opacity="1"></stop></radialGradient><radialGradient id="lorc-mushroom-cloud-gradient-4"><stop offset="0%" stop-color="#f8e71c" stop-opacity="1"></stop><stop offset="100%" stop-color="#f5a623" stop-opacity="1"></stop></radialGradient><radialGradient id="lorc-mushroom-cloud-gradient-7"><stop offset="0%" stop-color="#c9c9c9" stop-opacity="1"></stop><stop offset="100%" stop-color="#9b9b9b" stop-opacity="1"></stop></radialGradient><radialGradient id="lorc-mushroom-cloud-gradient-8"><stop offset="0%" stop-color="#c9c9c9" stop-opacity="1"></stop><stop offset="100%" stop-color="#9b9b9b" stop-opacity="1"></stop></radialGradient><radialGradient id="lorc-mushroom-cloud-gradient-9"><stop offset="0%" stop-color="#c9c9c9" stop-opacity="1"></stop><stop offset="100%" stop-color="#9b9b9b" stop-opacity="1"></stop></radialGradient><radialGradient id="lorc-mushroom-cloud-gradient-10"><stop offset="0%" stop-color="#c9c9c9" stop-opacity="1"></stop><stop offset="100%" stop-color="#9b9b9b" stop-opacity="1"></stop></radialGradient><radialGradient id="lorc-mushroom-cloud-gradient-11"><stop offset="0%" stop-color="#48baff" stop-opacity="1"></stop><stop offset="100%" stop-color="#4a90e2" stop-opacity="1"></stop></radialGradient><radialGradient id="lorc-mushroom-cloud-gradient-12"><stop offset="0%" stop-color="#48baff" stop-opacity="1"></stop><stop offset="100%" stop-color="#4a90e2" stop-opacity="1"></stop></radialGradient><radialGradient id="lorc-mushroom-cloud-gradient-13"><stop offset="0%" stop-color="#c9c9c9" stop-opacity="1"></stop><stop offset="100%" stop-color="#9b9b9b" stop-opacity="1"></stop></radialGradient><radialGradient id="lorc-mushroom-cloud-gradient-14"><stop offset="0%" stop-color="#c9c9c9" stop-opacity="1"></stop><stop offset="100%" stop-color="#9b9b9b" stop-opacity="1"></stop></radialGradient><radialGradient id="lorc-mushroom-cloud-gradient-15"><stop offset="0%" stop-color="#48baff" stop-opacity="1"></stop><stop offset="100%" stop-color="#4a90e2" stop-opacity="1"></stop></radialGradient><radialGradient id="lorc-mushroom-cloud-gradient-16"><stop offset="0%" stop-color="#48baff" stop-opacity="1"></stop><stop offset="100%" stop-color="#4a90e2" stop-opacity="1"></stop></radialGradient><radialGradient id="lorc-mushroom-cloud-gradient-17"><stop offset="0%" stop-color="#48baff" stop-opacity="1"></stop><stop offset="100%" stop-color="#4a90e2" stop-opacity="1"></stop></radialGradient><radialGradient id="lorc-mushroom-cloud-gradient-18"><stop offset="0%" stop-color="#48baff" stop-opacity="1"></stop><stop offset="100%" stop-color="#4a90e2" stop-opacity="1"></stop></radialGradient><radialGradient id="lorc-mushroom-cloud-gradient-19"><stop offset="0%" stop-color="#48baff" stop-opacity="1"></stop><stop offset="100%" stop-color="#4a90e2" stop-opacity="1"></stop></radialGradient></defs><g class="" transform="translate(0,0)" style=""><g><path d="M279.775 17.137C260.952 16.875 241.363 23.959 228.235 37.157L222.377 43.047L215.842 37.92C180.046 9.837 137.695 15.382 117.115 48.31L113.65 53.857L107.252 52.5C80.225 46.763 53.652 57.382 37.879 75.547C22.103 93.712 16.719 118.181 31.942 143.977L35.622 150.211L30.502 155.333C23.382 162.455 20.792 171.568 21.546 182.157C22.299 192.747 26.788 204.434 33.586 214.137C40.386 223.842 49.439 231.437 58.256 234.771C67.076 238.104 75.186 237.883 83.936 231.894L90.562 227.356L96.042 233.224C114.794 253.294 159.469 252.68 177.546 223.909L182.513 216.003L190.423 220.963C200.075 227.013 211.518 227.591 222.501 224.206C233.484 220.822 243.518 213.282 248.946 204.646L257.286 191.374L264.993 205.022C270.977 215.622 286.747 225.722 304.231 229.539C321.716 233.357 339.947 231.009 351.186 221.746L358.302 215.883L364.262 222.919C377.667 238.753 398.646 242.632 415.554 238.153C424.007 235.913 431.164 231.591 435.654 226.259C440.144 220.927 442.294 214.865 441.202 206.899L439.79 196.607L450.176 196.29C464.456 195.855 473.846 190.533 480.371 182.655C486.898 174.778 490.361 163.88 490.337 152.552C490.287 129.894 477.343 107.442 451.233 103.892L441.39 102.552L443.326 92.809C444.816 85.319 442.269 76.295 435.786 67.045C429.301 57.795 419.078 48.773 407.416 42.141C395.754 35.507 382.69 31.275 370.82 30.753C358.95 30.231 348.554 33.138 340.2 40.616L332.457 47.55L326.385 39.113C316.049 24.753 298.599 17.398 279.775 17.137Z" class="" fill="url(#lorc-mushroom-cloud-gradient-2)" stroke="#000000" stroke-opacity="1" stroke-width="2"></path><path d="M256.645 224.75C248.855 232.682 238.908 238.707 228.005 242.066C215.435 245.94 201.33 246.093 188.395 240.766C174.788 257.426 154.749 265.81 134.815 266.424C135.618 269.118 136.837 271.784 138.465 274.309C142.945 281.256 150.251 286.745 158.842 288.497C167.432 290.249 177.608 288.697 189.346 279.919L198.479 273.091L203.379 283.386C205.184 287.179 214.334 293.038 225.796 294.326C237.258 295.612 249.632 292.808 256.778 286.12L263.978 279.383L270.318 286.933C278.005 296.086 288.482 298.243 298.541 296.701C308.601 295.161 316.791 288.551 317.935 285.765L322.16 275.468L331.57 281.411C340.913 287.311 348.935 287.891 356.04 285.905C363.143 283.918 369.422 278.922 373.43 272.632C377.102 266.869 378.727 260.245 377.94 254.305C370.11 251.445 362.638 247.095 356.037 241.085C339.587 250.848 318.999 251.892 300.243 247.797C283.407 244.121 267.533 236.332 256.643 224.752Z" class="" fill="url(#lorc-mushroom-cloud-gradient-3)" stroke="#000000" stroke-opacity="1" stroke-width="2"></path><path d="M262.412 305.123C254.672 309.96 245.82 312.429 236.969 313.125L236.969 355.063C197.485 356.076 162.027 359.681 134.749 365.156C118.535 368.411 105.234 372.226 95.219 377C90.209 379.387 85.985 381.994 82.529 385.406C79.075 388.818 76.186 393.603 76.186 399.156C76.186 404.709 79.052 409.484 82.499 412.906C85.946 416.328 90.181 418.936 95.187 421.344C105.197 426.162 118.501 430.064 134.717 433.374C154.935 437.504 179.647 440.618 207.155 442.374C191.305 463.379 170.863 481.081 150.218 492.812L364.5 492.812C344.107 480.782 324.75 463.148 309.78 442.5C338.29 440.774 363.894 437.628 384.72 433.375C400.935 430.063 414.24 426.162 424.25 421.345C429.256 418.935 433.49 416.329 436.938 412.905C440.384 409.485 443.218 404.709 443.218 399.155C443.218 393.605 440.361 388.818 436.906 385.405C433.451 381.995 429.226 379.387 424.219 377C414.202 372.227 400.899 368.41 384.686 365.156C357.041 359.606 320.998 355.986 280.874 355.031L280.874 314.255C274.401 312.645 268.057 309.705 262.411 305.125Z" class="selected" fill="url(#lorc-mushroom-cloud-gradient-4)" stroke="#000000" stroke-opacity="1" stroke-width="2"></path><path d="M281.532 373.719C320.366 374.705 355.14 378.277 381 383.469C396.31 386.541 408.538 390.243 416.156 393.874C419.966 395.689 422.594 397.514 423.781 398.687C424.079 398.98 424.061 399.004 424.189 399.155C424.059 399.311 424.066 399.343 423.751 399.655C422.555 400.842 419.937 402.695 416.126 404.53C408.504 408.2 396.276 411.936 380.97 415.063C358.89 419.573 330.3 422.896 298.25 424.406C289.434 408.399 283.426 391.193 281.53 373.719Z" class="" fill="#000000" fill-opacity="1" stroke="#000000" stroke-opacity="1" stroke-width="2"></path><path d="M236.375 373.779C234.495 391.263 228.217 408.423 219.095 424.312C187.878 422.757 160.039 419.474 138.438 415.062C123.13 411.935 110.904 408.199 103.281 404.53C99.471 402.697 96.853 400.844 95.657 399.656C95.337 399.338 95.347 399.312 95.22 399.156C95.346 399.006 95.354 398.986 95.656 398.686C96.844 397.516 99.441 395.69 103.25 393.876C110.87 390.244 123.096 386.542 138.406 383.469C163.931 378.344 198.144 374.821 236.376 373.779Z" class="" fill="#000000" fill-opacity="1" stroke="#000000" stroke-opacity="1" stroke-width="2"></path></g></g></svg>