<svg xmlns="http://www.w3.org/2000/svg" viewBox="0 0 512 512" style="height: 512px; width: 512px;"><defs><radialGradient id="lorc-dark-squad-gradient-2"><stop offset="0%" stop-color="#4a4a4a" stop-opacity="1"></stop><stop offset="100%" stop-color="#000000" stop-opacity="1"></stop></radialGradient><radialGradient id="lorc-dark-squad-gradient-3"><stop offset="0%" stop-color="#b8e986" stop-opacity="1"></stop><stop offset="100%" stop-color="#7ed321" stop-opacity="1"></stop></radialGradient><radialGradient id="lorc-dark-squad-gradient-4"><stop offset="0%" stop-color="#50e3c2" stop-opacity="1"></stop><stop offset="100%" stop-color="#4a90e2" stop-opacity="1"></stop></radialGradient><radialGradient id="lorc-dark-squad-gradient-9"><stop offset="0%" stop-color="#f8e71c" stop-opacity="1"></stop><stop offset="100%" stop-color="#f5a623" stop-opacity="1"></stop></radialGradient><radialGradient id="lorc-dark-squad-gradient-12"><stop offset="0%" stop-color="#ff7b00" stop-opacity="1"></stop><stop offset="100%" stop-color="#b87333" stop-opacity="1"></stop></radialGradient><radialGradient id="lorc-dark-squad-gradient-13"><stop offset="0%" stop-color="#f8e71c" stop-opacity="1"></stop><stop offset="100%" stop-color="#f5a623" stop-opacity="1"></stop></radialGradient><radialGradient id="lorc-dark-squad-gradient-14"><stop offset="0%" stop-color="#ff7b00" stop-opacity="1"></stop><stop offset="100%" stop-color="#b87333" stop-opacity="1"></stop></radialGradient><radialGradient id="lorc-dark-squad-gradient-15"><stop offset="0%" stop-color="#ff7b00" stop-opacity="1"></stop><stop offset="100%" stop-color="#b87333" stop-opacity="1"></stop></radialGradient><radialGradient id="lorc-dark-squad-gradient-16"><stop offset="0%" stop-color="#ff7b00" stop-opacity="1"></stop><stop offset="100%" stop-color="#b87333" stop-opacity="1"></stop></radialGradient><radialGradient id="lorc-dark-squad-gradient-17"><stop offset="0%" stop-color="#4a4a4a" stop-opacity="1"></stop><stop offset="100%" stop-color="#000000" stop-opacity="1"></stop></radialGradient><radialGradient id="lorc-dark-squad-gradient-18"><stop offset="0%" stop-color="#4a4a4a" stop-opacity="1"></stop><stop offset="100%" stop-color="#000000" stop-opacity="1"></stop></radialGradient><radialGradient id="lorc-dark-squad-gradient-19"><stop offset="0%" stop-color="#4a4a4a" stop-opacity="1"></stop><stop offset="100%" stop-color="#000000" stop-opacity="1"></stop></radialGradient></defs><g class="" transform="translate(0,0)" style=""><g><path d="M369.1 21.22C349.9 21.22 332.9 31.85 321.2 47.69C309.5 63.53 302.6 84.72 302.6 108C302.6 129.1 308.3 148.5 318.1 163.7C312.4 165.3 307.1 167.6 302.2 170.3C292 161.8 279.6 156.7 266.3 156.7C247 156.7 230 167.3 218.3 183.1C213.6 189.5 209.7 196.7 206.7 204.6C201.9 202.2 196.8 200.3 191.2 199C200.6 183.9 206 164.9 206 144.3C206 121.1 199.1 99.87 187.4 84.03C175.7 68.19 158.7 57.53 139.5 57.53C120.3 57.53 103.3 68.19 91.56 84.03C79.87 99.87 73 121.1 73 144.3C73 165.4 78.69 184.8 88.47 200.1C56.4 209.2 38.18 237.2 29.03 270.1C19.24 305.3 18.16 347.4 18.16 385.7L18.16 395.1L63.66 395.1L70.44 494.4L89.19 494.4L81.91 387.9L77.81 307.9L59.16 308.9L62.63 376.4L36.97 376.4C37.21 341.2 38.94 304.3 47.06 275.2C55.84 243.6 70.38 222.4 98.31 217L103 216.9C113.3 225.7 125.9 231.1 139.5 231.1C153.6 231.1 166.4 225.4 176.9 216.1L181.5 216.1C189.3 217.3 195.9 219.6 201.6 222.8C200.4 229.4 199.7 236.3 199.7 243.4C199.7 264.5 205.4 283.9 215.2 299.2C183.1 308.3 164.9 336.4 155.8 369.2C146 404.4 144.9 446.5 144.9 484.8L144.9 494.2C166.6 493.9 187.7 494.4 209.2 494.4L208.7 487.1L204.6 407.1L185.9 408L189.3 475.5L163.7 475.5C164 440.3 165.7 403.4 173.8 374.3C182.5 342.7 197.1 321.6 224.9 316.1L229.8 316C240.1 324.8 252.6 330.2 266.2 330.2C280.3 330.2 293.2 324.5 303.7 315.2L308.1 315.2C323.5 317.6 334.2 324.1 342.6 333.8C351.1 343.5 357.1 357 361.1 373C368.4 402.5 368.8 439.9 368.8 475.5L345.4 475.5L348.9 408L330.2 407.1L326 489.1L325.7 494.4C346.5 494.4 369 494.1 387.6 494.2L387.6 484.8C387.6 446.7 388.1 404.2 379.2 368.5C374.8 350.7 367.9 334.4 356.8 321.5C347.1 310.4 334.1 302.1 318 298.1C327.4 283 332.7 264 332.7 243.4C332.7 220.9 326.3 200.2 315.2 184.6C319.1 182.8 323.3 181.5 327.9 180.6L332.6 180.6C342.9 189.4 355.5 194.8 369.1 194.8C383.2 194.8 396.1 189 406.5 179.8L411.1 179.7C426.5 182.2 437.1 188.6 445.5 198.3C454 208.1 460 221.6 464 237.6C471.3 267 471.7 304.4 471.7 340L448.3 340L451.8 272.6L433.1 271.6L429 351.3L420.4 494.4L439.1 494.4L447.3 358.7L490.4 358.7L490.4 349.4C490.4 311.2 491 268.7 482.1 233.1C477.6 215.2 470.7 198.9 459.6 186.1C450 174.9 437 166.6 420.8 162.6C430.2 147.5 435.6 128.6 435.6 108C435.6 84.72 428.7 63.53 417 47.69C405.4 32.4 385.5 21.56 369.1 21.22Z" class="" fill="url(#lorc-dark-squad-gradient-2)" stroke="#000000" stroke-opacity="1" stroke-width="2"></path><path d="M369.1 39.91C381.5 39.91 393 46.6 402 58.78C411 70.97 416.9 88.45 416.9 108C416.9 127.5 411 145 402 157.2C393 169.4 381.5 176.1 369.1 176.1C356.8 176.1 345.2 169.4 336.2 157.2C327.2 145 321.3 127.5 321.3 108C321.3 88.45 327.2 70.97 336.2 58.78C345.2 46.6 356.8 39.91 369.1 39.91Z" class="selected" fill="url(#lorc-dark-squad-gradient-3)" stroke="#000000" stroke-opacity="1" stroke-width="2"></path><path d="M139.5 76.22C151.9 76.22 163.4 82.94 172.4 95.12C181.4 107.3 187.3 124.8 187.3 144.3C187.3 163.8 181.4 181.3 172.4 193.5C163.4 205.7 151.9 212.4 139.5 212.4C127.1 212.4 115.6 205.7 106.6 193.5C97.63 181.3 91.69 163.8 91.69 144.3C91.69 124.8 97.63 107.3 106.6 95.13C115.6 82.94 127.1 76.22 139.5 76.22Z" class="" fill="url(#lorc-dark-squad-gradient-4)" stroke="#000000" stroke-opacity="1" stroke-width="2"></path><path d="M337.3 98.56L337.3 117.2L359.8 117.2L359.8 98.56L337.3 98.56Z" class="" fill="#d0021b" stroke="#000000" stroke-opacity="1" stroke-width="2" fill-opacity="1"></path><path d="M378.4 98.56L378.4 117.2L400.9 117.2L400.9 98.56L378.4 98.56Z" class="" fill="#d0021b" stroke="#000000" stroke-opacity="1" stroke-width="2" fill-opacity="1"></path><path d="M107.7 134.9L107.7 153.6L130.2 153.6L130.2 134.9L107.7 134.9Z" class="" fill="#d0021b" stroke="#000000" stroke-opacity="1" stroke-width="2" fill-opacity="1"></path><path d="M148.8 134.9L148.8 153.6L171.3 153.6L171.3 134.9L148.8 134.9Z" class="" fill="#d0021b" stroke="#000000" stroke-opacity="1" stroke-width="2" fill-opacity="1"></path><path d="M266.3 175.3C278.6 175.3 290.1 182 299.1 194.2C308.1 206.4 314.1 223.9 314.1 243.4C314.1 263 308.1 280.4 299.1 292.6C290.1 304.8 278.6 311.5 266.3 311.5C253.9 311.5 242.3 304.8 233.3 292.6C224.4 280.4 218.4 263 218.4 243.4C218.4 223.9 224.4 206.4 233.3 194.2C242.3 182 253.9 175.3 266.3 175.3Z" class="" fill="url(#lorc-dark-squad-gradient-9)" stroke="#000000" stroke-opacity="1" stroke-width="2"></path><path d="M234.5 234L234.5 252.7L256.9 252.7L256.9 234Z" class="" fill="#d0021b" stroke="#000000" stroke-opacity="1" stroke-width="2" fill-opacity="1"></path><path d="M275.6 234L275.6 252.7L298 252.7L298 234L275.6 234Z" class="" fill="#d0021b" stroke="#000000" stroke-opacity="1" stroke-width="2" fill-opacity="1"></path></g></g></svg>