<svg xmlns="http://www.w3.org/2000/svg" viewBox="0 0 512 512" style="height: 512px; width: 512px;"><defs><linearGradient x1="0" x2="0" y1="0" y2="1" id="delapouite-weight-lifting-down-gradient-2"><stop offset="0%" stop-color="#f8e71c" stop-opacity="1"></stop><stop offset="100%" stop-color="#f5a623" stop-opacity="1"></stop></linearGradient><radialGradient id="delapouite-weight-lifting-down-gradient-3"><stop offset="0%" stop-color="#f8e71c" stop-opacity="1"></stop><stop offset="100%" stop-color="#f5a623" stop-opacity="1"></stop></radialGradient><linearGradient x1="0" x2="0" y1="0" y2="1" id="delapouite-weight-lifting-down-gradient-7"><stop offset="0%" stop-color="#8b572a" stop-opacity="1"></stop><stop offset="100%" stop-color="#b57204" stop-opacity="1"></stop></linearGradient><linearGradient x1="0" x2="1" y1="1" y2="0" id="delapouite-weight-lifting-down-gradient-8"><stop offset="0%" stop-color="#d0021b" stop-opacity="1"></stop><stop offset="100%" stop-color="#6a0310" stop-opacity="1"></stop></linearGradient><radialGradient id="delapouite-weight-lifting-down-gradient-9"><stop offset="0%" stop-color="#f8e71c" stop-opacity="1"></stop><stop offset="100%" stop-color="#f5a623" stop-opacity="1"></stop></radialGradient><linearGradient x1="0" x2="0" y1="0" y2="1" id="delapouite-weight-lifting-down-gradient-10"><stop offset="0%" stop-color="#8b572a" stop-opacity="1"></stop><stop offset="100%" stop-color="#b57204" stop-opacity="1"></stop></linearGradient><linearGradient x1="0" x2="0" y1="0" y2="1" id="delapouite-weight-lifting-down-gradient-11"><stop offset="0%" stop-color="#f8e71c" stop-opacity="1"></stop><stop offset="100%" stop-color="#f5a623" stop-opacity="1"></stop></linearGradient><linearGradient x1="0" x2="0" y1="0" y2="1" id="delapouite-weight-lifting-down-gradient-12"><stop offset="0%" stop-color="#c9c9c9" stop-opacity="1"></stop><stop offset="100%" stop-color="#9b9b9b" stop-opacity="1"></stop></linearGradient></defs><g class="" transform="translate(0,0)" style=""><g><path d="M256 193C235.165 193 217 213.24 217 240C217 266.76 235.165 287 256 287C276.835 287 295 266.76 295 240C295 213.24 276.835 193 256 193Z" class="" fill="url(#delapouite-weight-lifting-down-gradient-2)" stroke="#000000" stroke-opacity="1" stroke-width="2"></path><path d="M199.846 251.045C168.589 259.605 152.61 285.063 137.871 312.495C120.557 345.087 109.746 383.547 101.781 415L89 415L89 360L71 360L71 415L55 415L55 376L37 376L37 415L20 415L20 433L37 433L37 472L55 472L55 433L71 433L71 488L89 488L89 433L173.592 433C179.019 446 185.5 459 192 472L144 478L144 493L216.79 493L204.44 433L307.56 433L295.21 493L368 493L368 478L320 472C326.5 459 332.98 446 338.408 433L423 433L423 488L441 488L441 433L457 433L457 472L475 472L475 433L492 433L492 415L475 415L475 376L457 376L457 415L441 415L441 360L423 360L423 415L410.22 415C402.253 383.537 391.402 344.983 373.363 312.273C358.346 285.043 343.726 260.747 312.047 251.73C307.244 281.506 284.524 305 256 305C227.257 305 204.407 281.144 199.846 251.045Z" class="" fill="url(#delapouite-weight-lifting-down-gradient-3)" stroke="#000000" stroke-opacity="1" stroke-width="2"></path><path d="M196.238 299.43L206.278 349.67C176 360 160 360 160 376C160 389 162.64 402 166.85 415L134.818 415C142.414 386.055 152.455 353.246 166.128 327.506C175.136 312.98 183.658 308.722 196.238 299.43Z" class="" fill="#000000" stroke="#000000" stroke-opacity="1" stroke-width="2" fill-opacity="1"></path><path d="M315.538 300.78C326.858 309.033 336.508 311.71 345.342 327.727C359.478 353.359 369.575 386.077 377.178 415L345.15 415C349.36 402 352 389 352 376C352 360 336 360 305.72 349.67L315.537 300.78Z" class="selected" fill="#000000" stroke="#000000" stroke-opacity="1" stroke-width="2" fill-opacity="1"></path><path d="M256 376C278.95 376 316 392 316 392L311.266 415L200.734 415L196 392C196 392 233.05 376 256 376Z" class="" fill="#000000" stroke="#000000" stroke-opacity="1" stroke-width="2" fill-opacity="1"></path></g></g></svg>