<svg xmlns="http://www.w3.org/2000/svg" viewBox="0 0 512 512" style="height: 512px; width: 512px;"><defs><linearGradient x1="0" x2="0" y1="0" y2="1" id="delapouite-weight-lifting-up-gradient-2"><stop offset="0%" stop-color="#f8e71c" stop-opacity="1"></stop><stop offset="100%" stop-color="#f5a623" stop-opacity="1"></stop></linearGradient><linearGradient x1="0" x2="0" y1="0" y2="1" id="delapouite-weight-lifting-up-gradient-4"><stop offset="0%" stop-color="#f8e71c" stop-opacity="1"></stop><stop offset="100%" stop-color="#f5a623" stop-opacity="1"></stop></linearGradient><linearGradient x1="0" x2="0" y1="0" y2="1" id="delapouite-weight-lifting-up-gradient-7"><stop offset="0%" stop-color="#8b572a" stop-opacity="1"></stop><stop offset="100%" stop-color="#b57204" stop-opacity="1"></stop></linearGradient><linearGradient x1="0" x2="1" y1="1" y2="0" id="delapouite-weight-lifting-up-gradient-8"><stop offset="0%" stop-color="#d0021b" stop-opacity="1"></stop><stop offset="100%" stop-color="#6a0310" stop-opacity="1"></stop></linearGradient><radialGradient id="delapouite-weight-lifting-up-gradient-9"><stop offset="0%" stop-color="#f8e71c" stop-opacity="1"></stop><stop offset="100%" stop-color="#f5a623" stop-opacity="1"></stop></radialGradient><linearGradient x1="0" x2="0" y1="0" y2="1" id="delapouite-weight-lifting-up-gradient-10"><stop offset="0%" stop-color="#8b572a" stop-opacity="1"></stop><stop offset="100%" stop-color="#b57204" stop-opacity="1"></stop></linearGradient><linearGradient x1="0" x2="0" y1="0" y2="1" id="delapouite-weight-lifting-up-gradient-11"><stop offset="0%" stop-color="#f8e71c" stop-opacity="1"></stop><stop offset="100%" stop-color="#f5a623" stop-opacity="1"></stop></linearGradient><linearGradient x1="0" x2="0" y1="0" y2="1" id="delapouite-weight-lifting-up-gradient-12"><stop offset="0%" stop-color="#c9c9c9" stop-opacity="1"></stop><stop offset="100%" stop-color="#9b9b9b" stop-opacity="1"></stop></linearGradient></defs><g class="" transform="translate(0,-1)" style=""><g><path d="M77.492 18.457L59.766 21.584L69.09 74.47C63.819 75.291 58.552 76.137 53.29 77.01L46.787 40.12L29.061 43.244L35.551 80.039C29.814 81.05 24.082 82.087 18.355 83.151L21.647 100.847C27.375 99.781 33.044 98.757 38.675 97.763L45.731 137.783L63.458 134.659L56.418 94.729C61.722 93.849 66.988 93.004 72.216 92.189L81.993 147.639L99.72 144.513L90.023 89.523C98.506 88.305 106.889 87.185 115.203 86.143C130.743 132.533 149.9 186.138 182.139 220.591C190.86 250.992 192 268 214.56 310C192 348 176 412 167.21 471L119.21 477L119.21 492L192 492C208 444 256 348 256 348C256 348 304 444 320 492L392.79 492L392.79 477L344.79 471C336 412 320 348 294 310C320 268 318.175 250.415 329.83 220.623C362.08 186.171 381.25 132.548 396.797 86.145C405.111 87.185 413.494 88.305 421.977 89.525L412.281 144.515L430.009 147.639L439.786 92.189C445.016 93.004 450.28 93.849 455.586 94.729L448.544 134.659L466.271 137.784L473.327 97.764C478.957 98.757 484.627 99.781 490.355 100.847L493.647 83.151C487.867 82.076 482.14 81.041 476.452 80.038L482.942 43.242L465.215 40.117L458.711 77.007C453.408 76.127 448.141 75.28 442.911 74.467L452.235 21.581L434.509 18.454L425.103 71.804C365.982 63.31 310.982 59.04 256 59.04C201.02 59.04 146.017 63.31 86.898 71.807L77.492 18.457Z" class="" fill="url(#delapouite-weight-lifting-up-gradient-2)" stroke="#000000" stroke-opacity="1" stroke-width="2"></path><path d="M256 76.98C291.53 76.98 327.07 78.81 363.822 82.443C349.74 117.301 325.368 155.947 300.619 184.41C290.293 199.27 274.35 209 256 209C237.65 209 221.706 199.27 211.38 184.41C186.632 155.947 162.26 117.3 148.178 82.443C184.928 78.81 220.468 76.98 256 76.98Z" class="selected" fill="#000000" stroke="#000000" stroke-opacity="1" stroke-width="2" fill-opacity="1"></path><path d="M256 97C235.165 97 217 117.24 217 144C217 170.76 235.165 191 256 191C276.835 191 295 170.76 295 144C295 117.24 276.835 97 256 97Z" class="" fill="url(#delapouite-weight-lifting-up-gradient-4)" stroke="#000000" stroke-opacity="1" stroke-width="2"></path></g></g></svg>