<svg xmlns="http://www.w3.org/2000/svg" viewBox="0 0 512 512" style="height: 512px; width: 512px;"><defs><radialGradient id="delapouite-podium-gradient-1"><stop offset="0%" stop-color="#f8e71c" stop-opacity="1"></stop><stop offset="100%" stop-color="#f5a623" stop-opacity="1"></stop></radialGradient><radialGradient id="delapouite-podium-gradient-2"><stop offset="0%" stop-color="#48baff" stop-opacity="1"></stop><stop offset="100%" stop-color="#4a90e2" stop-opacity="1"></stop></radialGradient><radialGradient id="delapouite-podium-gradient-3"><stop offset="0%" stop-color="#fc88fc" stop-opacity="1"></stop><stop offset="100%" stop-color="#bd10e0" stop-opacity="1"></stop></radialGradient><radialGradient id="delapouite-podium-gradient-4"><stop offset="0%" stop-color="#f8e71c" stop-opacity="1"></stop><stop offset="100%" stop-color="#f5a623" stop-opacity="1"></stop></radialGradient><linearGradient x1="0" x2="0" y1="0" y2="1" id="delapouite-podium-gradient-6"><stop offset="0%" stop-color="#b57204" stop-opacity="1"></stop><stop offset="100%" stop-color="#8b572a" stop-opacity="1"></stop></linearGradient><linearGradient x1="0" x2="0" y1="0" y2="1" id="delapouite-podium-gradient-8"><stop offset="0%" stop-color="#4a4a4a" stop-opacity="1"></stop><stop offset="100%" stop-color="#000000" stop-opacity="1"></stop></linearGradient><radialGradient id="delapouite-podium-gradient-9"><stop offset="0%" stop-color="#ffffff" stop-opacity="1"></stop><stop offset="100%" stop-color="#ffe0af" stop-opacity="1"></stop></radialGradient><radialGradient id="delapouite-podium-gradient-10"><stop offset="0%" stop-color="#ffffff" stop-opacity="1"></stop><stop offset="100%" stop-color="#ffe0af" stop-opacity="1"></stop></radialGradient><radialGradient id="delapouite-podium-gradient-11"><stop offset="0%" stop-color="#ffffff" stop-opacity="1"></stop><stop offset="100%" stop-color="#ffe0af" stop-opacity="1"></stop></radialGradient><radialGradient id="delapouite-podium-gradient-12"><stop offset="0%" stop-color="#ffffff" stop-opacity="1"></stop><stop offset="100%" stop-color="#ffe0af" stop-opacity="1"></stop></radialGradient><radialGradient id="delapouite-podium-gradient-13"><stop offset="0%" stop-color="#4a4a4a" stop-opacity="1"></stop><stop offset="100%" stop-color="#000000" stop-opacity="1"></stop></radialGradient><radialGradient id="delapouite-podium-gradient-14"><stop offset="0%" stop-color="#4a4a4a" stop-opacity="1"></stop><stop offset="100%" stop-color="#000000" stop-opacity="1"></stop></radialGradient><radialGradient id="delapouite-podium-gradient-15"><stop offset="0%" stop-color="#f8e71c" stop-opacity="1"></stop><stop offset="100%" stop-color="#f5a623" stop-opacity="1"></stop></radialGradient><radialGradient id="delapouite-podium-gradient-16"><stop offset="0%" stop-color="#f8e71c" stop-opacity="1"></stop><stop offset="100%" stop-color="#f5a623" stop-opacity="1"></stop></radialGradient><radialGradient id="delapouite-podium-gradient-17"><stop offset="0%" stop-color="#4a4a4a" stop-opacity="1"></stop><stop offset="100%" stop-color="#000000" stop-opacity="1"></stop></radialGradient><radialGradient id="delapouite-podium-gradient-18"><stop offset="0%" stop-color="#48baff" stop-opacity="1"></stop><stop offset="100%" stop-color="#4a90e2" stop-opacity="1"></stop></radialGradient><radialGradient id="delapouite-podium-gradient-19"><stop offset="0%" stop-color="#48baff" stop-opacity="1"></stop><stop offset="100%" stop-color="#4a90e2" stop-opacity="1"></stop></radialGradient><radialGradient id="delapouite-podium-gradient-22"><stop offset="0%" stop-color="#fc88fc" stop-opacity="1"></stop><stop offset="100%" stop-color="#bd10e0" stop-opacity="1"></stop></radialGradient><radialGradient id="delapouite-podium-gradient-25"><stop offset="0%" stop-color="#9b9b9b" stop-opacity="1"></stop><stop offset="100%" stop-color="#4a4a4a" stop-opacity="1"></stop></radialGradient><radialGradient id="delapouite-podium-gradient-26"><stop offset="0%" stop-color="#9b9b9b" stop-opacity="1"></stop><stop offset="100%" stop-color="#4a4a4a" stop-opacity="1"></stop></radialGradient><radialGradient id="delapouite-podium-gradient-27"><stop offset="0%" stop-color="#9b9b9b" stop-opacity="1"></stop><stop offset="100%" stop-color="#4a4a4a" stop-opacity="1"></stop></radialGradient><radialGradient id="delapouite-podium-gradient-28"><stop offset="0%" stop-color="#9b9b9b" stop-opacity="1"></stop><stop offset="100%" stop-color="#4a4a4a" stop-opacity="1"></stop></radialGradient><radialGradient id="delapouite-podium-gradient-29"><stop offset="0%" stop-color="#9b9b9b" stop-opacity="1"></stop><stop offset="100%" stop-color="#4a4a4a" stop-opacity="1"></stop></radialGradient><radialGradient id="delapouite-podium-gradient-30"><stop offset="0%" stop-color="#9b9b9b" stop-opacity="1"></stop><stop offset="100%" stop-color="#4a4a4a" stop-opacity="1"></stop></radialGradient><radialGradient id="delapouite-podium-gradient-31"><stop offset="0%" stop-color="#9b9b9b" stop-opacity="1"></stop><stop offset="100%" stop-color="#4a4a4a" stop-opacity="1"></stop></radialGradient><radialGradient id="delapouite-podium-gradient-32"><stop offset="0%" stop-color="#9b9b9b" stop-opacity="1"></stop><stop offset="100%" stop-color="#4a4a4a" stop-opacity="1"></stop></radialGradient><radialGradient id="delapouite-podium-gradient-33"><stop offset="0%" stop-color="#9b9b9b" stop-opacity="1"></stop><stop offset="100%" stop-color="#4a4a4a" stop-opacity="1"></stop></radialGradient><radialGradient id="delapouite-podium-gradient-34"><stop offset="0%" stop-color="#9b9b9b" stop-opacity="1"></stop><stop offset="100%" stop-color="#4a4a4a" stop-opacity="1"></stop></radialGradient><radialGradient id="delapouite-podium-gradient-35"><stop offset="0%" stop-color="#9b9b9b" stop-opacity="1"></stop><stop offset="100%" stop-color="#4a4a4a" stop-opacity="1"></stop></radialGradient><radialGradient id="delapouite-podium-gradient-36"><stop offset="0%" stop-color="#9b9b9b" stop-opacity="1"></stop><stop offset="100%" stop-color="#4a4a4a" stop-opacity="1"></stop></radialGradient><radialGradient id="delapouite-podium-gradient-37"><stop offset="0%" stop-color="#9b9b9b" stop-opacity="1"></stop><stop offset="100%" stop-color="#4a4a4a" stop-opacity="1"></stop></radialGradient></defs><g class="" transform="translate(0,0)" style=""><g><path d="M90.52 390.06L129.017 390.06L129.017 406.643L65.443 406.643L65.443 390.06L97.376 361.878C100.228 359.3 102.336 356.78 103.704 354.318C105.072 351.858 105.754 349.3 105.754 346.643C105.754 342.543 104.368 339.241 101.594 336.741C98.861 334.241 95.208 332.991 90.638 332.991C87.122 332.991 83.275 333.754 79.095 335.277C74.915 336.762 70.443 338.987 65.677 341.957L65.677 322.737C70.755 321.059 75.775 319.789 80.737 318.93C85.697 318.03 90.56 317.58 95.325 317.58C105.795 317.58 113.919 319.886 119.7 324.495C125.52 329.105 128.43 335.53 128.43 343.772C128.43 348.538 127.2 352.992 124.74 357.132C122.28 361.232 117.103 366.742 109.212 373.655L90.522 390.061" class="" fill="url(#delapouite-podium-gradient-2)" stroke="#000000" stroke-opacity="1" stroke-width="2"></path><path d="M439.899 422.976C445.796 424.5 450.269 427.156 453.316 430.946C456.402 434.696 457.946 439.48 457.946 445.301C457.946 453.973 454.624 460.574 447.984 465.105C441.344 469.598 431.656 471.845 418.921 471.845C414.429 471.845 409.917 471.473 405.386 470.73C400.894 470.026 396.441 468.952 392.026 467.507L392.026 450.104C396.246 452.214 400.426 453.814 404.566 454.909C408.746 455.963 412.846 456.489 416.87 456.489C422.848 456.489 427.418 455.455 430.582 453.385C433.785 451.315 435.387 448.345 435.387 444.478C435.387 440.493 433.747 437.485 430.465 435.454C427.223 433.384 422.418 432.349 416.051 432.348L407.029 432.348L407.029 417.818L416.521 417.818C422.185 417.818 426.404 416.938 429.177 415.18C431.95 413.384 433.337 410.67 433.337 407.036C433.337 403.676 431.99 401.079 429.294 399.243C426.599 397.407 422.79 396.489 417.868 396.489C414.236 396.489 410.564 396.899 406.853 397.721C403.143 398.541 399.45 399.751 395.779 401.353L395.779 384.83C400.232 383.58 404.646 382.644 409.021 382.018C413.396 381.394 417.693 381.081 421.911 381.081C433.279 381.081 441.775 382.957 447.401 386.707C453.064 390.417 455.896 396.023 455.896 403.523C455.896 408.641 454.548 412.84 451.853 416.121C449.157 419.363 445.173 421.648 439.9 422.977" class="" fill="url(#delapouite-podium-gradient-3)" stroke="#000000" stroke-opacity="1" stroke-width="2"></path><path d="M236.062 230.74L255.984 230.74L255.984 174.196L235.534 178.416L235.534 163.064L255.867 158.844L277.312 158.844L277.312 230.739L297.234 230.739L297.234 246.324L236.062 246.324L236.062 230.74" class="" fill="url(#delapouite-podium-gradient-4)" stroke="#000000" stroke-opacity="1" stroke-width="2"></path><path d="M496 496L496 352L352 352L352 128L176 128L176 288L16 288L16 496" class="selected" fill="#b57204" stroke="#000000" stroke-opacity="1" stroke-width="2" fill-opacity="0"></path></g></g></svg>