<svg xmlns="http://www.w3.org/2000/svg" viewBox="0 0 512 512" style="height: 512px; width: 512px;"><defs><linearGradient x1="0" x2="1" y1="0" y2="1" id="lorc-trade-gradient-2"><stop offset="0%" stop-color="#d0021b" stop-opacity="1"></stop><stop offset="100%" stop-color="#880313" stop-opacity="1"></stop></linearGradient><radialGradient id="lorc-trade-gradient-3"><stop offset="0%" stop-color="#b57204" stop-opacity="1"></stop><stop offset="100%" stop-color="#8b572a" stop-opacity="1"></stop></radialGradient><radialGradient id="lorc-trade-gradient-4"><stop offset="0%" stop-color="#f8e71c" stop-opacity="1"></stop><stop offset="100%" stop-color="#f5a623" stop-opacity="1"></stop></radialGradient><radialGradient id="lorc-trade-gradient-5"><stop offset="0%" stop-color="#f8e71c" stop-opacity="1"></stop><stop offset="100%" stop-color="#f5a623" stop-opacity="1"></stop></radialGradient><radialGradient id="lorc-trade-gradient-6"><stop offset="0%" stop-color="#f8e71c" stop-opacity="1"></stop><stop offset="100%" stop-color="#f5a623" stop-opacity="1"></stop></radialGradient><radialGradient id="lorc-trade-gradient-7"><stop offset="0%" stop-color="#b57204" stop-opacity="1"></stop><stop offset="100%" stop-color="#8b572a" stop-opacity="1"></stop></radialGradient><radialGradient id="lorc-trade-gradient-8"><stop offset="0%" stop-color="#b57204" stop-opacity="1"></stop><stop offset="100%" stop-color="#8b572a" stop-opacity="1"></stop></radialGradient><linearGradient x1="0" x2="1" y1="0" y2="1" id="lorc-trade-gradient-9"><stop offset="0%" stop-color="#417505" stop-opacity="1"></stop><stop offset="100%" stop-color="#7ed321" stop-opacity="1"></stop></linearGradient><linearGradient x1="0" x2="1" y1="1" y2="0" id="lorc-trade-gradient-10"><stop offset="0%" stop-color="#f5a623" stop-opacity="1"></stop><stop offset="100%" stop-color="#f8e71c" stop-opacity="1"></stop></linearGradient><radialGradient id="lorc-trade-gradient-11"><stop offset="0%" stop-color="#48baff" stop-opacity="1"></stop><stop offset="100%" stop-color="#096daa" stop-opacity="1"></stop></radialGradient><radialGradient id="lorc-trade-gradient-12"><stop offset="0%" stop-color="#48baff" stop-opacity="1"></stop><stop offset="100%" stop-color="#096daa" stop-opacity="1"></stop></radialGradient><radialGradient id="lorc-trade-gradient-14"><stop offset="0%" stop-color="#b57204" stop-opacity="1"></stop><stop offset="100%" stop-color="#8b572a" stop-opacity="1"></stop></radialGradient><radialGradient id="lorc-trade-gradient-15"><stop offset="0%" stop-color="#b57204" stop-opacity="1"></stop><stop offset="100%" stop-color="#8b572a" stop-opacity="1"></stop></radialGradient></defs><g class="" transform="translate(0,0)" style=""><g><path d="M287.03 20C247.897 20.48 207.3 35.297 170.03 65.938L250.5 65.938L250.5 109.126C303.26 79.376 365.092 77.538 414.438 109.156L396.25 118.876L460.938 169.596L457.188 86.282L430.781 100.408C395.99 48.792 345.038 20.644 290.907 20C289.619 19.985 288.324 19.984 287.032 20Z" class="" fill="url(#lorc-trade-gradient-2)" stroke="#000000" stroke-opacity="1" stroke-width="2"></path><path d="M19.03 84.625L19.03 297.375L231.812 297.375L231.812 84.625L19.032 84.625Z" class="" fill="url(#lorc-trade-gradient-3)" stroke="#000000" stroke-opacity="1" stroke-width="2"></path><path d="M69.312 110.655L205.78 110.655L205.78 249.594L187.062 249.594L187.062 129.344L69.313 129.344L69.313 110.656Z" class="" fill="url(#lorc-trade-gradient-4)" stroke="#000000" stroke-opacity="1" stroke-width="2"></path><path d="M72.656 148.781L162.75 240.626L149.406 253.72L59.312 161.875L72.656 148.781Z" class="" fill="url(#lorc-trade-gradient-5)" stroke="#000000" stroke-opacity="1" stroke-width="2"></path><path d="M279.312 210.531L279.312 423.313L492.062 423.313L492.062 210.533L279.312 210.533Z" class="" fill="url(#lorc-trade-gradient-6)" stroke="#000000" stroke-opacity="1" stroke-width="2"></path><path d="M329.562 236.595L466.031 236.595L466.031 375.5L447.345 375.5L447.345 255.28L329.565 255.28L329.563 236.594Z" class="" fill="url(#lorc-trade-gradient-7)" stroke="#000000" stroke-opacity="1" stroke-width="2"></path><path d="M332.906 274.689L423.031 366.564L409.689 379.626L319.564 287.782L332.907 274.69Z" class="selected" fill="url(#lorc-trade-gradient-8)" stroke="#000000" stroke-opacity="1" stroke-width="2"></path><path d="M54.376 338.345L58.126 421.657L81.438 409.187C142.365 497.824 251.428 515.672 341.063 442.001L260.624 442.001L260.624 398.813C208.544 428.193 147.624 430.357 98.594 400.001L119.03 389.063L54.375 338.345Z" class="" fill="url(#lorc-trade-gradient-9)" stroke="#000000" stroke-opacity="1" stroke-width="2"></path></g></g></svg>