<svg xmlns="http://www.w3.org/2000/svg" viewBox="0 0 512 512" style="height: 512px; width: 512px;"><defs><radialGradient id="delapouite-calendar-gradient-2"><stop offset="0%" stop-color="#c9c9c9" stop-opacity="1"></stop><stop offset="100%" stop-color="#9b9b9b" stop-opacity="1"></stop></radialGradient><radialGradient id="delapouite-calendar-gradient-3"><stop offset="0%" stop-color="#c9c9c9" stop-opacity="1"></stop><stop offset="100%" stop-color="#9b9b9b" stop-opacity="1"></stop></radialGradient><radialGradient id="delapouite-calendar-gradient-4"><stop offset="0%" stop-color="#f8e71c" stop-opacity="1"></stop><stop offset="100%" stop-color="#f5a623" stop-opacity="1"></stop></radialGradient><radialGradient id="delapouite-calendar-gradient-5"><stop offset="0%" stop-color="#ffe0af" stop-opacity="1"></stop><stop offset="100%" stop-color="#e7cb9c" stop-opacity="1"></stop></radialGradient></defs><g class="" transform="translate(0,0)" style=""><g><path d="M119 31L119 97L137 97L137 31L119 31Z" class="" fill="url(#delapouite-calendar-gradient-2)" stroke="#000000" stroke-opacity="1" stroke-width="2"></path><path d="M375 31L375 97L393 97L393 31L375 31Z" class="" fill="url(#delapouite-calendar-gradient-3)" stroke="#000000" stroke-opacity="1" stroke-width="2"></path><path d="M73 89L73 119L439 119L439 89L411 89L411 115L357 115L357 89L155 89L155 115L101 115L101 89L73 89Z" class="" fill="url(#delapouite-calendar-gradient-4)" stroke="#000000" stroke-opacity="1" stroke-width="2"></path><path d="M73 137L73 439L439 439L439 137L73 137Z" class="" fill="url(#delapouite-calendar-gradient-5)" stroke="#000000" stroke-opacity="1" stroke-width="2"></path><path d="M183 151L201 151L201 183L247 183L247 151L265 151L265 183L311 183L311 151L329 151L329 183L375 183L375 151L393 151L393 183L425 183L425 201L393 201L393 247L425 247L425 265L393 265L393 311L425 311L425 329L393 329L393 375L425 375L425 393L265 393L265 425L247 425L247 393L201 393L201 425L183 425L183 393L137 393L137 425L119 425L119 393L87 393L87 375L119 375L119 329L87 329L87 311L119 311L119 265L87 265L87 247L119 247L119 201L87 201L87 183L183 183L183 151Z" class="" fill="#d0021b" stroke="#000000" stroke-opacity="1" stroke-width="2" fill-opacity="1"></path><path d="M137 201L137 247L183 247L183 201L137 201Z" class="" fill="#fff" stroke="#000000" stroke-opacity="1" stroke-width="2" fill-opacity="1"></path><path d="M201 201L201 247L247 247L247 201L201 201Z" class="" fill="#fff" stroke="#000000" stroke-opacity="1" stroke-width="2" fill-opacity="1"></path><path d="M265 201L265 247L311 247L311 201L265 201Z" class="" fill="#fff" stroke="#000000" stroke-opacity="1" stroke-width="2" fill-opacity="1"></path><path d="M329 201L329 247L375 247L375 201L329 201Z" class="" fill="#fff" stroke="#000000" stroke-opacity="1" stroke-width="2" fill-opacity="1"></path><path d="M137 265L137 311L183 311L183 265L137 265Z" class="" fill="#fff" stroke="#000000" stroke-opacity="1" stroke-width="2" fill-opacity="1"></path><path d="M201 265L201 311L247 311L247 265L201 265Z" class="" fill="#fff" stroke="#000000" stroke-opacity="1" stroke-width="2" fill-opacity="1"></path><path d="M265 265L265 278.27C267.545 272.334 272.334 267.545 278.27 265L265 265Z" class="" fill="#fff" stroke="#000000" stroke-opacity="1" stroke-width="2" fill-opacity="1"></path><path d="M297.73 265C303.666 267.545 308.455 272.334 311 278.27L311 265L297.73 265Z" class="" fill="#fff" stroke="#000000" stroke-opacity="1" stroke-width="2" fill-opacity="1"></path><path d="M329 265L329 311L375 311L375 265L329 265Z" class="" fill="#fff" stroke="#000000" stroke-opacity="1" stroke-width="2" fill-opacity="1"></path><path d="M288 281C284.027 281 281 284.027 281 288C281 291.973 284.027 295 288 295C291.973 295 295 291.973 295 288C295 284.027 291.973 281 288 281Z" class="" fill="#fff" stroke="#000000" stroke-opacity="1" stroke-width="2" fill-opacity="1"></path><path d="M265 297.73L265 311L278.27 311C272.334 308.455 267.545 303.666 265 297.73Z" class="" fill="#fff" stroke="#000000" stroke-opacity="1" stroke-width="2" fill-opacity="1"></path><path d="M311 297.73C308.455 303.666 303.666 308.455 297.73 311L311 311L311 297.73Z" class="" fill="#fff" stroke="#000000" stroke-opacity="1" stroke-width="2" fill-opacity="1"></path><path d="M137 329L137 375L183 375L183 329L137 329Z" class="" fill="#ffffff" stroke="#000000" stroke-opacity="1" stroke-width="2" fill-opacity="1"></path><path d="M201 329L201 375L247 375L247 329L201 329Z" class="selected" fill="#ffffff" fill-opacity="1" stroke="#000000" stroke-opacity="1" stroke-width="2"></path><path d="M265 329L265 375L311 375L311 329L265 329Z" class="" fill="#d0021b" fill-opacity="1"></path><path d="M329 329L329 375L375 375L375 329L329 329Z" class="" fill="#d0021b" fill-opacity="1"></path></g></g></svg>