<svg xmlns="http://www.w3.org/2000/svg" viewBox="0 0 512 512" style="height: 512px; width: 512px;"><defs><radialGradient id="delapouite-checklist-gradient-2"><stop offset="0%" stop-color="#f8e71c" stop-opacity="1"></stop><stop offset="100%" stop-color="#f5a623" stop-opacity="1"></stop></radialGradient><radialGradient id="delapouite-checklist-gradient-3"><stop offset="0%" stop-color="#4a4a4a" stop-opacity="1"></stop><stop offset="100%" stop-color="#9b9b9b" stop-opacity="1"></stop></radialGradient><radialGradient id="delapouite-checklist-gradient-4"><stop offset="0%" stop-color="#4a4a4a" stop-opacity="1"></stop><stop offset="100%" stop-color="#9b9b9b" stop-opacity="1"></stop></radialGradient><radialGradient id="delapouite-checklist-gradient-5"><stop offset="0%" stop-color="#4a4a4a" stop-opacity="1"></stop><stop offset="100%" stop-color="#9b9b9b" stop-opacity="1"></stop></radialGradient><radialGradient id="delapouite-checklist-gradient-6"><stop offset="0%" stop-color="#b8e986" stop-opacity="1"></stop><stop offset="100%" stop-color="#7ed321" stop-opacity="1"></stop></radialGradient><radialGradient id="delapouite-checklist-gradient-7"><stop offset="0%" stop-color="#4a4a4a" stop-opacity="1"></stop><stop offset="100%" stop-color="#9b9b9b" stop-opacity="1"></stop></radialGradient><radialGradient id="delapouite-checklist-gradient-8"><stop offset="0%" stop-color="#4a4a4a" stop-opacity="1"></stop><stop offset="100%" stop-color="#9b9b9b" stop-opacity="1"></stop></radialGradient><radialGradient id="delapouite-checklist-gradient-9"><stop offset="0%" stop-color="#f8e71c" stop-opacity="1"></stop><stop offset="100%" stop-color="#f5a623" stop-opacity="1"></stop></radialGradient><radialGradient id="delapouite-checklist-gradient-10"><stop offset="0%" stop-color="#f8e71c" stop-opacity="1"></stop><stop offset="100%" stop-color="#f5a623" stop-opacity="1"></stop></radialGradient><linearGradient x1="0" x2="0" y1="0" y2="1" id="delapouite-checklist-gradient-11"><stop offset="0%" stop-color="#f8e71c" stop-opacity="1"></stop><stop offset="100%" stop-color="#f5a623" stop-opacity="1"></stop></linearGradient><linearGradient x1="0" x2="0" y1="0" y2="1" id="delapouite-checklist-gradient-12"><stop offset="0%" stop-color="#c9c9c9" stop-opacity="1"></stop><stop offset="100%" stop-color="#9b9b9b" stop-opacity="1"></stop></linearGradient><linearGradient x1="0" x2="0" y1="0" y2="1" id="delapouite-checklist-gradient-13"><stop offset="0%" stop-color="#c9c9c9" stop-opacity="1"></stop><stop offset="100%" stop-color="#9b9b9b" stop-opacity="1"></stop></linearGradient><linearGradient x1="0" x2="0" y1="0" y2="1" id="delapouite-checklist-gradient-14"><stop offset="0%" stop-color="#c9c9c9" stop-opacity="1"></stop><stop offset="100%" stop-color="#9b9b9b" stop-opacity="1"></stop></linearGradient><radialGradient id="delapouite-checklist-gradient-15"><stop offset="0%" stop-color="#50e3c2" stop-opacity="1"></stop><stop offset="100%" stop-color="#4a90e2" stop-opacity="1"></stop></radialGradient></defs><g class="" transform="translate(0,0)" style=""><g><path d="M122.31 84.615L119.46 93.155L108.066 127.34L102.363 121.637L96 115.27L83.27 128L89.637 134.363L115.934 160.66L136.539 98.846L139.384 90.309L122.308 84.614Z" class="" fill="url(#delapouite-checklist-gradient-2)" stroke="#000000" stroke-opacity="1" stroke-width="2"></path><path d="M151 119L151 137L393 137L393 119L151 119Z" class="" fill="url(#delapouite-checklist-gradient-3)" stroke="#000000" stroke-opacity="1" stroke-width="2"></path><path d="M151 183L151 201L393 201L393 183L151 183Z" class="" fill="url(#delapouite-checklist-gradient-4)" stroke="#000000" stroke-opacity="1" stroke-width="2"></path><path d="M151 247L151 265L393 265L393 247L151 247Z" class="" fill="url(#delapouite-checklist-gradient-5)" stroke="#000000" stroke-opacity="1" stroke-width="2"></path><path d="M122.31 276.615L119.46 285.155L108.066 319.34L102.363 313.637L96 307.27L83.27 320L89.637 326.363L115.934 352.66L136.539 290.846L139.384 282.309L122.308 276.614Z" class="selected" fill="url(#delapouite-checklist-gradient-6)" stroke="#000000" stroke-opacity="1" stroke-width="2"></path><path d="M151 311L151 329L393 329L393 311L151 311Z" class="" fill="url(#delapouite-checklist-gradient-7)" stroke="#000000" stroke-opacity="1" stroke-width="2"></path><path d="M151 375L151 393L393 393L393 375L151 375Z" class="" fill="url(#delapouite-checklist-gradient-8)" stroke="#000000" stroke-opacity="1" stroke-width="2"></path></g></g></svg>