<svg xmlns="http://www.w3.org/2000/svg" viewBox="0 0 512 512" style="height: 512px; width: 512px;"><defs><linearGradient id="delapouite-gold-mine-gradient-2"><stop offset="0%" stop-color="#b57204" stop-opacity="1"></stop><stop offset="100%" stop-color="#8b572a" stop-opacity="1"></stop></linearGradient><radialGradient id="delapouite-gold-mine-gradient-3"><stop offset="0%" stop-color="#b57204" stop-opacity="1"></stop><stop offset="100%" stop-color="#8b572a" stop-opacity="1"></stop></radialGradient><radialGradient id="delapouite-gold-mine-gradient-4"><stop offset="0%" stop-color="#b57204" stop-opacity="1"></stop><stop offset="100%" stop-color="#8b572a" stop-opacity="1"></stop></radialGradient><linearGradient x1="0" x2="0" y1="0" y2="1" id="delapouite-gold-mine-gradient-5"><stop offset="0%" stop-color="#8b572a" stop-opacity="1"></stop><stop offset="100%" stop-color="#b57204" stop-opacity="1"></stop></linearGradient><linearGradient x1="0" x2="0" y1="0" y2="1" id="delapouite-gold-mine-gradient-6"><stop offset="0%" stop-color="#8b572a" stop-opacity="1"></stop><stop offset="100%" stop-color="#b57204" stop-opacity="1"></stop></linearGradient><radialGradient id="delapouite-gold-mine-gradient-7"><stop offset="0%" stop-color="#f8e71c" stop-opacity="1"></stop><stop offset="100%" stop-color="#f5a623" stop-opacity="1"></stop></radialGradient><radialGradient id="delapouite-gold-mine-gradient-8"><stop offset="0%" stop-color="#f8e71c" stop-opacity="1"></stop><stop offset="100%" stop-color="#f5a623" stop-opacity="1"></stop></radialGradient><radialGradient id="delapouite-gold-mine-gradient-9"><stop offset="0%" stop-color="#f8e71c" stop-opacity="1"></stop><stop offset="100%" stop-color="#c0b204" stop-opacity="1"></stop></radialGradient><radialGradient id="delapouite-gold-mine-gradient-10"><stop offset="0%" stop-color="#554000" stop-opacity="1"></stop><stop offset="100%" stop-color="#796939" stop-opacity="1"></stop></radialGradient><linearGradient id="delapouite-gold-mine-gradient-11" x1="0" x2="0" y1="0" y2="1"><stop offset="0%" stop-color="#c9c9c9" stop-opacity="1"></stop><stop offset="100%" stop-color="#4a4a4a" stop-opacity="1"></stop></linearGradient><radialGradient id="delapouite-gold-mine-gradient-12"><stop offset="0%" stop-color="#f8e71c" stop-opacity="1"></stop><stop offset="100%" stop-color="#f5a623" stop-opacity="1"></stop></radialGradient><radialGradient id="delapouite-gold-mine-gradient-13"><stop offset="0%" stop-color="#f8e71c" stop-opacity="1"></stop><stop offset="100%" stop-color="#f5a623" stop-opacity="1"></stop></radialGradient><linearGradient x1="0" x2="0" y1="0" y2="1" id="delapouite-gold-mine-gradient-14"><stop offset="0%" stop-color="#8b572a" stop-opacity="1"></stop><stop offset="100%" stop-color="#b57204" stop-opacity="1"></stop></linearGradient><radialGradient id="delapouite-gold-mine-gradient-15"><stop offset="0%" stop-color="#48baff" stop-opacity="1"></stop><stop offset="100%" stop-color="#4a90e2" stop-opacity="1"></stop></radialGradient><radialGradient id="delapouite-gold-mine-gradient-16"><stop offset="0%" stop-color="#48baff" stop-opacity="1"></stop><stop offset="100%" stop-color="#4a90e2" stop-opacity="1"></stop></radialGradient></defs><g class="" transform="translate(0,0)" style=""><g><path d="M403.818 33.117L34.264 48.517L34.264 94.529L426.97 79.425L403.818 33.115Z" class="" fill="url(#delapouite-gold-mine-gradient-2)" stroke="#000000" stroke-opacity="1" stroke-width="2"></path><path d="M385.334 99.04L354.926 100.21L364.706 286.016L403.26 278.306L385.334 99.04Z" class="" fill="url(#delapouite-gold-mine-gradient-3)" stroke="#000000" stroke-opacity="1" stroke-width="2"></path><path d="M250.182 104.238L231.792 104.948L229.098 120.558L202.52 139.308L202.65 140.174L202.377 140.127L199.314 157.865L205.502 158.935L210.119 189.33L241.651 194.775L256.194 167.687L262.38 168.757L265.443 151.017L265.17 150.971L265.586 150.198L246.836 123.62L250.182 104.238Z" class="" fill="url(#delapouite-gold-mine-gradient-4)" stroke="#000000" stroke-opacity="1" stroke-width="2"></path><path d="M172.738 107.218L149.918 108.096L110.448 162.871L108.756 196.009L172.738 107.219Z" class="" fill="url(#delapouite-gold-mine-gradient-5)" stroke="#000000" stroke-opacity="1" stroke-width="2"></path><path d="M95.113 110.203L63.838 111.406L35.118 384.238L80.778 390.971L95.113 110.204Z" class="" fill="url(#delapouite-gold-mine-gradient-6)" stroke="#000000" stroke-opacity="1" stroke-width="2"></path><path d="M236.928 128.1L251.385 148.59L216.438 142.555L236.928 128.1Z" class="" fill="url(#delapouite-gold-mine-gradient-7)" stroke="#000000" stroke-opacity="1" stroke-width="2"></path><path d="M216.412 160.818L245.282 165.803L238.27 178.867L218.64 175.477L216.412 160.817Z" class="" fill="url(#delapouite-gold-mine-gradient-8)" stroke="#000000" stroke-opacity="1" stroke-width="2"></path><path d="M437.12 289.89L360.686 305.178L315.696 290.18L286.99 318.883L456.447 318.883L437.12 289.89Z" class="" fill="url(#delapouite-gold-mine-gradient-9)" stroke="#000000" stroke-opacity="1" stroke-width="2"></path><path d="M177.07 292.158L167.65 312.883L151.264 312.883L151.264 330.883L159.469 330.883L152.194 346.883L129.264 346.883L129.264 364.883L144.014 364.883L135.831 382.883L109.263 382.883L109.263 400.883L127.649 400.883L114.013 430.883L89.263 430.883L89.263 448.883L105.831 448.883L97.069 468.158L113.456 475.608L125.603 448.883L269.026 448.883L262.276 430.883L133.785 430.883L147.422 400.883L251.027 400.883L244.277 382.883L155.604 382.883L163.784 364.883L237.524 364.883L230.774 346.883L171.967 346.883L179.24 330.883L224.775 330.883L220.277 318.883L261.535 318.883L267.535 312.883L187.422 312.883L193.457 299.607L177.07 292.157Z" class="selected" fill="url(#delapouite-gold-mine-gradient-10)" stroke="#000000" stroke-opacity="1" stroke-width="2"></path><path d="M246.252 336.883L286.612 444.518C292.634 436.276 302.36 430.883 313.264 430.883C325.18 430.883 335.694 437.321 341.498 446.883L397.028 446.883C402.832 437.321 413.348 430.883 425.264 430.883C435.688 430.883 445.032 435.813 451.096 443.447L477.736 336.883L246.252 336.883Z" class="" fill="url(#delapouite-gold-mine-gradient-11)" stroke="#000000" stroke-opacity="1" stroke-width="2"></path><path d="M313.264 448.883C304.874 448.883 298.264 455.493 298.264 463.883C298.264 472.273 304.874 478.883 313.264 478.883C321.654 478.883 328.264 472.273 328.264 463.883C328.264 455.493 321.654 448.883 313.264 448.883Z" class="" fill="url(#delapouite-gold-mine-gradient-12)" stroke="#000000" stroke-opacity="1" stroke-width="2"></path><path d="M425.264 448.883C416.874 448.883 410.264 455.493 410.264 463.883C410.264 472.273 416.874 478.883 425.264 478.883C433.654 478.883 440.264 472.273 440.264 463.883C440.264 455.493 433.654 448.883 425.264 448.883Z" class="" fill="url(#delapouite-gold-mine-gradient-13)" stroke="#000000" stroke-opacity="1" stroke-width="2"></path></g></g></svg>