<svg xmlns="http://www.w3.org/2000/svg" viewBox="0 0 512 512" style="height: 512px; width: 512px;"><defs><linearGradient x1="0" x2="0" y1="0" y2="1" id="delapouite-guards-gradient-2"><stop offset="0%" stop-color="#f8e71c" stop-opacity="1"></stop><stop offset="100%" stop-color="#f5a623" stop-opacity="1"></stop></linearGradient><linearGradient x1="0" x2="0" y1="0" y2="1" id="delapouite-guards-gradient-3"><stop offset="0%" stop-color="#c9c9c9" stop-opacity="1"></stop><stop offset="100%" stop-color="#9b9b9b" stop-opacity="1"></stop></linearGradient><radialGradient id="delapouite-guards-gradient-4"><stop offset="0%" stop-color="#f8e71c" stop-opacity="1"></stop><stop offset="100%" stop-color="#f5a623" stop-opacity="1"></stop></radialGradient><radialGradient id="delapouite-guards-gradient-5"><stop offset="0%" stop-color="#d0021b" stop-opacity="1"></stop><stop offset="100%" stop-color="#7b0715" stop-opacity="1"></stop></radialGradient><linearGradient x1="0" x2="0" y1="0" y2="1" id="delapouite-guards-gradient-6"><stop offset="0%" stop-color="#8b572a" stop-opacity="1"></stop><stop offset="100%" stop-color="#b57204" stop-opacity="1"></stop></linearGradient><linearGradient x1="0" x2="0" y1="0" y2="1" id="delapouite-guards-gradient-7"><stop offset="0%" stop-color="#8b572a" stop-opacity="1"></stop><stop offset="100%" stop-color="#b57204" stop-opacity="1"></stop></linearGradient><linearGradient id="delapouite-guards-gradient-8" x1="0" x2="1" y1="1" y2="0"><stop offset="0%" stop-color="#d0021b" stop-opacity="1"></stop><stop offset="100%" stop-color="#6a0310" stop-opacity="1"></stop></linearGradient><radialGradient id="delapouite-guards-gradient-9"><stop offset="0%" stop-color="#f8e71c" stop-opacity="1"></stop><stop offset="100%" stop-color="#f5a623" stop-opacity="1"></stop></radialGradient><linearGradient x1="0" x2="0" y1="0" y2="1" id="delapouite-guards-gradient-10"><stop offset="0%" stop-color="#8b572a" stop-opacity="1"></stop><stop offset="100%" stop-color="#b57204" stop-opacity="1"></stop></linearGradient><linearGradient x1="0" x2="0" y1="0" y2="1" id="delapouite-guards-gradient-11"><stop offset="0%" stop-color="#f8e71c" stop-opacity="1"></stop><stop offset="100%" stop-color="#f5a623" stop-opacity="1"></stop></linearGradient><linearGradient x1="0" x2="0" y1="0" y2="1" id="delapouite-guards-gradient-12"><stop offset="0%" stop-color="#c9c9c9" stop-opacity="1"></stop><stop offset="100%" stop-color="#9b9b9b" stop-opacity="1"></stop></linearGradient></defs><g class="" transform="translate(0,0)" style=""><g><path d="M72.877 31.904C71.887 31.89 70.919 31.91 69.889 32.002C43.67 35.408 22.545 61.005 18 93.775L18 119.925C20.296 136.191 26.804 150.59 35.848 161.49C29.268 162.727 23.344 165.02 18 168.207L18 192.02C40.983 192.406 61.265 206.05 75.31 226.338C89.56 246.92 98 274.598 98 305C98 335.402 89.56 363.08 75.31 383.662C61.266 403.95 40.984 417.592 18 417.98L18 426.557L23.03 494L30.7 494L138.904 332.176L140 304C140.732 262.868 156.536 244.402 172 256C176.26 259.195 180.3 262.024 184.135 264.533L207.709 229.275C186.102 211.875 148.606 186.045 117.029 160.617C127.919 146.97 134.923 128.005 134.923 106.99C134.924 65.494 108.478 32 76 32C74.88 31.964 73.867 31.918 72.877 31.904Z" class="" fill="url(#delapouite-guards-gradient-2)" stroke="#000000" stroke-opacity="1" stroke-width="2"></path><path d="M439.123 31.904C438.133 31.918 437.121 31.964 436 32C403.522 32 377.076 65.494 377.076 106.99C377.076 128.005 384.081 146.97 394.971 160.617C363.394 186.047 325.898 211.877 304.291 229.275L327.868 264.533C332.002 261.819 336.048 258.973 340 256C355.464 244.402 371.268 262.868 372 304L373.096 332.174L481.3 494L488.97 494L494 426.557L494 417.979C471.017 417.591 450.735 403.949 436.69 383.661C422.44 363.08 414 335.402 414 305C414 274.598 422.44 246.92 436.69 226.338C450.735 206.05 471.017 192.406 494 192.02L494 168.207C488.656 165.02 482.73 162.727 476.152 161.49C485.196 150.59 491.704 136.19 494 119.924L494 93.774C489.454 61.004 468.33 35.408 442.11 32.002C441.117 31.917 440.12 31.884 439.123 31.904Z" class="" fill="url(#delapouite-guards-gradient-3)" stroke="#000000" stroke-opacity="1" stroke-width="2"></path><path d="M148.758 46.758L188.826 156.973L236.166 125.32Z" class="" fill="url(#delapouite-guards-gradient-4)" stroke="#000000" stroke-opacity="1" stroke-width="2"></path><path d="M363.242 46.758L275.834 125.32L323.174 156.973Z" class="" fill="url(#delapouite-guards-gradient-5)" stroke="#000000" stroke-opacity="1" stroke-width="2"></path><path d="M230.25 150.93L213.625 162.047L435.588 494L459.645 494Z" class="" fill="url(#delapouite-guards-gradient-6)" stroke="#000000" stroke-opacity="1" stroke-width="2"></path><path d="M281.75 150.93L266.828 173.246L278.858 191.236L298.375 162.046Z" class="" fill="url(#delapouite-guards-gradient-7)" stroke="#000000" stroke-opacity="1" stroke-width="2"></path><path d="M18 210.018L18 399.982C33.993 399.602 48.943 390.127 60.512 373.416C72.322 356.356 80 332.036 80 305C80 277.965 72.322 253.643 60.512 236.584C48.942 219.874 33.992 210.398 18 210.018Z" class="selected" fill="url(#delapouite-guards-gradient-8)" stroke="#000000" stroke-opacity="1" stroke-width="2"></path><path d="M494 210.018C478.007 210.398 463.057 219.873 451.488 236.584C439.678 253.644 432 277.964 432 305C432 332.035 439.678 356.357 451.488 373.416C463.058 390.126 478.008 399.602 494 399.982Z" class="" fill="url(#delapouite-guards-gradient-9)" stroke="#000000" stroke-opacity="1" stroke-width="2"></path><path d="M233.145 223.62L52.355 494L76.412 494L245.174 241.61Z" class="" fill="url(#delapouite-guards-gradient-10)" stroke="#000000" stroke-opacity="1" stroke-width="2"></path><path d="M134.748 439.14L98.066 494L132.616 494Z" class="" fill="url(#delapouite-guards-gradient-11)" stroke="#000000" stroke-opacity="1" stroke-width="2"></path><path d="M377.252 439.14L379.382 494L413.934 494Z" class="" fill="url(#delapouite-guards-gradient-12)" stroke="#000000" stroke-opacity="1" stroke-width="2"></path></g></g></svg>