<svg xmlns="http://www.w3.org/2000/svg" viewBox="0 0 512 512" style="height: 512px; width: 512px;"><defs><radialGradient id="delapouite-vote-gradient-1"><stop offset="0%" stop-color="#f8e71c" stop-opacity="1"></stop><stop offset="100%" stop-color="#f5a623" stop-opacity="1"></stop></radialGradient><radialGradient id="delapouite-vote-gradient-2"><stop offset="0%" stop-color="#f8e71c" stop-opacity="1"></stop><stop offset="100%" stop-color="#f5a623" stop-opacity="1"></stop></radialGradient><radialGradient id="delapouite-vote-gradient-3"><stop offset="0%" stop-color="#f8e71c" stop-opacity="1"></stop><stop offset="100%" stop-color="#f5a623" stop-opacity="1"></stop></radialGradient><radialGradient id="delapouite-vote-gradient-4"><stop offset="0%" stop-color="#ffffff" stop-opacity="1"></stop><stop offset="100%" stop-color="#ffe0af" stop-opacity="1"></stop></radialGradient><radialGradient id="delapouite-vote-gradient-5"><stop offset="0%" stop-color="#b57204" stop-opacity="1"></stop><stop offset="100%" stop-color="#8b572a" stop-opacity="1"></stop></radialGradient><linearGradient x1="0" x2="0" y1="0" y2="1" id="delapouite-vote-gradient-6"><stop offset="0%" stop-color="#b57204" stop-opacity="1"></stop><stop offset="100%" stop-color="#8b572a" stop-opacity="1"></stop></linearGradient><linearGradient x1="0" x2="0" y1="0" y2="1" id="delapouite-vote-gradient-8"><stop offset="0%" stop-color="#4a4a4a" stop-opacity="1"></stop><stop offset="100%" stop-color="#000000" stop-opacity="1"></stop></linearGradient><radialGradient id="delapouite-vote-gradient-9"><stop offset="0%" stop-color="#ffffff" stop-opacity="1"></stop><stop offset="100%" stop-color="#ffe0af" stop-opacity="1"></stop></radialGradient><radialGradient id="delapouite-vote-gradient-10"><stop offset="0%" stop-color="#ffffff" stop-opacity="1"></stop><stop offset="100%" stop-color="#ffe0af" stop-opacity="1"></stop></radialGradient><radialGradient id="delapouite-vote-gradient-11"><stop offset="0%" stop-color="#ffffff" stop-opacity="1"></stop><stop offset="100%" stop-color="#ffe0af" stop-opacity="1"></stop></radialGradient><radialGradient id="delapouite-vote-gradient-12"><stop offset="0%" stop-color="#ffffff" stop-opacity="1"></stop><stop offset="100%" stop-color="#ffe0af" stop-opacity="1"></stop></radialGradient><radialGradient id="delapouite-vote-gradient-13"><stop offset="0%" stop-color="#4a4a4a" stop-opacity="1"></stop><stop offset="100%" stop-color="#000000" stop-opacity="1"></stop></radialGradient><radialGradient id="delapouite-vote-gradient-14"><stop offset="0%" stop-color="#4a4a4a" stop-opacity="1"></stop><stop offset="100%" stop-color="#000000" stop-opacity="1"></stop></radialGradient><radialGradient id="delapouite-vote-gradient-15"><stop offset="0%" stop-color="#f8e71c" stop-opacity="1"></stop><stop offset="100%" stop-color="#f5a623" stop-opacity="1"></stop></radialGradient><radialGradient id="delapouite-vote-gradient-16"><stop offset="0%" stop-color="#f8e71c" stop-opacity="1"></stop><stop offset="100%" stop-color="#f5a623" stop-opacity="1"></stop></radialGradient><radialGradient id="delapouite-vote-gradient-17"><stop offset="0%" stop-color="#4a4a4a" stop-opacity="1"></stop><stop offset="100%" stop-color="#000000" stop-opacity="1"></stop></radialGradient><radialGradient id="delapouite-vote-gradient-18"><stop offset="0%" stop-color="#48baff" stop-opacity="1"></stop><stop offset="100%" stop-color="#4a90e2" stop-opacity="1"></stop></radialGradient><radialGradient id="delapouite-vote-gradient-19"><stop offset="0%" stop-color="#48baff" stop-opacity="1"></stop><stop offset="100%" stop-color="#4a90e2" stop-opacity="1"></stop></radialGradient><radialGradient id="delapouite-vote-gradient-22"><stop offset="0%" stop-color="#fc88fc" stop-opacity="1"></stop><stop offset="100%" stop-color="#bd10e0" stop-opacity="1"></stop></radialGradient><radialGradient id="delapouite-vote-gradient-25"><stop offset="0%" stop-color="#9b9b9b" stop-opacity="1"></stop><stop offset="100%" stop-color="#4a4a4a" stop-opacity="1"></stop></radialGradient><radialGradient id="delapouite-vote-gradient-26"><stop offset="0%" stop-color="#9b9b9b" stop-opacity="1"></stop><stop offset="100%" stop-color="#4a4a4a" stop-opacity="1"></stop></radialGradient><radialGradient id="delapouite-vote-gradient-27"><stop offset="0%" stop-color="#9b9b9b" stop-opacity="1"></stop><stop offset="100%" stop-color="#4a4a4a" stop-opacity="1"></stop></radialGradient><radialGradient id="delapouite-vote-gradient-28"><stop offset="0%" stop-color="#9b9b9b" stop-opacity="1"></stop><stop offset="100%" stop-color="#4a4a4a" stop-opacity="1"></stop></radialGradient><radialGradient id="delapouite-vote-gradient-29"><stop offset="0%" stop-color="#9b9b9b" stop-opacity="1"></stop><stop offset="100%" stop-color="#4a4a4a" stop-opacity="1"></stop></radialGradient><radialGradient id="delapouite-vote-gradient-30"><stop offset="0%" stop-color="#9b9b9b" stop-opacity="1"></stop><stop offset="100%" stop-color="#4a4a4a" stop-opacity="1"></stop></radialGradient><radialGradient id="delapouite-vote-gradient-31"><stop offset="0%" stop-color="#9b9b9b" stop-opacity="1"></stop><stop offset="100%" stop-color="#4a4a4a" stop-opacity="1"></stop></radialGradient><radialGradient id="delapouite-vote-gradient-32"><stop offset="0%" stop-color="#9b9b9b" stop-opacity="1"></stop><stop offset="100%" stop-color="#4a4a4a" stop-opacity="1"></stop></radialGradient><radialGradient id="delapouite-vote-gradient-33"><stop offset="0%" stop-color="#9b9b9b" stop-opacity="1"></stop><stop offset="100%" stop-color="#4a4a4a" stop-opacity="1"></stop></radialGradient><radialGradient id="delapouite-vote-gradient-34"><stop offset="0%" stop-color="#9b9b9b" stop-opacity="1"></stop><stop offset="100%" stop-color="#4a4a4a" stop-opacity="1"></stop></radialGradient><radialGradient id="delapouite-vote-gradient-35"><stop offset="0%" stop-color="#9b9b9b" stop-opacity="1"></stop><stop offset="100%" stop-color="#4a4a4a" stop-opacity="1"></stop></radialGradient><radialGradient id="delapouite-vote-gradient-36"><stop offset="0%" stop-color="#9b9b9b" stop-opacity="1"></stop><stop offset="100%" stop-color="#4a4a4a" stop-opacity="1"></stop></radialGradient><radialGradient id="delapouite-vote-gradient-37"><stop offset="0%" stop-color="#9b9b9b" stop-opacity="1"></stop><stop offset="100%" stop-color="#4a4a4a" stop-opacity="1"></stop></radialGradient></defs><g class="" transform="translate(0,0)" style=""><g><path d="M494 21.621C479.053 30.051 464.434 39.202 450.33 50.848L457.648 89.395C471.923 93.66 483.583 95.26 494 95.36L494 21.62Z" class="" fill="url(#delapouite-vote-gradient-2)" stroke="#000000" stroke-opacity="1" stroke-width="2"></path><path d="M395.018 46.133C379.735 46.048 362.538 48.729 341.186 52.967L340.966 53.01L340.746 53.043C325.976 55.22 299.952 65.108 274.281 91.91L318.551 103.676C319.523 102.183 324.487 94.672 325.431 93.121C330.555 96.244 335.679 99.365 340.803 102.486C328.328 122.961 314.061 138.042 296.869 157.008C294.746 161.726 297.846 165.207 301.229 167.148C306.449 170.079 315.329 170.238 317.666 169.25C341.598 153.482 358.485 133.322 373.629 112.979L379.098 113.943C390.599 115.974 405.568 115.001 417.805 111.09C428.903 107.542 437.077 101.733 440.467 95.402L432.54 53.65C420.496 48.436 408.501 46.208 395.017 46.133Z" class="" fill="url(#delapouite-vote-gradient-3)" stroke="#000000" stroke-opacity="1" stroke-width="2"></path><path d="M227.932 98.717L198.496 214.703L208.139 215L311.27 215L312.17 214.791L318.974 187.699C310.114 189.599 300.678 187.482 292.417 182.844C287.229 179.931 282.393 175.604 279.796 169.41C271.999 149.472 295.653 132.113 308.52 116.66L227.93 98.717Z" class="" fill="url(#delapouite-vote-gradient-4)" stroke="#000000" stroke-opacity="1" stroke-width="2"></path><path d="M69.562 201L46.562 247L465.437 247L442.437 201L334.195 201L330.678 215L352 215L352 233L160 233L160 215L179.852 215L183.404 201L69.563 201Z" class="" fill="url(#delapouite-vote-gradient-5)" stroke="#000000" stroke-opacity="1" stroke-width="2"></path><path d="M41 265L41 487L471 487L471 265L41 265Z" class="" fill="url(#delapouite-vote-gradient-6)" stroke="#000000" stroke-opacity="1" stroke-width="2"></path><path d="M55 279L457 279L457 473L55 473L55 279Z" class="selected" fill="#000000" stroke="#000000" stroke-opacity="1" stroke-width="2" fill-opacity="1"></path><path d="M73 297L73 415.238L107.502 340.244L180.862 372.006L247.514 326.166L285.027 383.439L335.137 378.844L366.437 339.512L439 394.627L439 297L73 297Z" class="" fill="url(#delapouite-vote-gradient-8)" stroke="#000000" stroke-opacity="1" stroke-width="2"></path><path d="M242.543 351.43L151.913 413.76L178.923 455L274.529 455L294.195 430.29L242.543 351.43Z" class="" fill="url(#delapouite-vote-gradient-9)" stroke="#000000" stroke-opacity="1" stroke-width="2"></path><path d="M116.498 363.756L74.521 455L157.406 455L127.213 408.902L163.357 384.045L116.498 363.755Z" class="" fill="url(#delapouite-vote-gradient-10)" stroke="#000000" stroke-opacity="1" stroke-width="2"></path><path d="M369.563 364.488L297.533 455L438.073 455L439 453.834L439 417.232L369.562 364.488Z" class="" fill="url(#delapouite-vote-gradient-11)" stroke="#000000" stroke-opacity="1" stroke-width="2"></path><path d="M319.619 398.342L296.193 400.49L305.998 415.459L319.619 398.342Z" class="" fill="url(#delapouite-vote-gradient-12)" stroke="#000000" stroke-opacity="1" stroke-width="2"></path></g></g></svg>