<svg xmlns="http://www.w3.org/2000/svg" viewBox="0 0 512 512" style="height: 512px; width: 512px;"><defs><radialGradient id="delapouite-card-exchange-gradient-2"><stop offset="0%" stop-color="#f8e71c" stop-opacity="1"></stop><stop offset="100%" stop-color="#f5a623" stop-opacity="1"></stop></radialGradient><radialGradient id="delapouite-card-exchange-gradient-3"><stop offset="0%" stop-color="#ffffff" stop-opacity="1"></stop><stop offset="100%" stop-color="#ffe0af" stop-opacity="1"></stop></radialGradient><radialGradient id="delapouite-card-exchange-gradient-4"><stop offset="0%" stop-color="#ffffff" stop-opacity="1"></stop><stop offset="100%" stop-color="#ffe0af" stop-opacity="1"></stop></radialGradient><radialGradient id="delapouite-card-exchange-gradient-5"><stop offset="0%" stop-color="#f5a623" stop-opacity="1"></stop><stop offset="100%" stop-color="#f8e71c" stop-opacity="1"></stop></radialGradient><linearGradient x1="0" x2="0" y1="0" y2="1" id="delapouite-card-exchange-gradient-6"><stop offset="0%" stop-color="#4a4a4a" stop-opacity="1"></stop><stop offset="100%" stop-color="#9b9b9b" stop-opacity="1"></stop></linearGradient><linearGradient x1="0" x2="0" y1="0" y2="1" id="delapouite-card-exchange-gradient-7"><stop offset="0%" stop-color="#4a4a4a" stop-opacity="1"></stop><stop offset="100%" stop-color="#9b9b9b" stop-opacity="1"></stop></linearGradient><radialGradient id="delapouite-card-exchange-gradient-8"><stop offset="0%" stop-color="#f8e71c" stop-opacity="1"></stop><stop offset="100%" stop-color="#f5a623" stop-opacity="1"></stop></radialGradient><radialGradient id="delapouite-card-exchange-gradient-9"><stop offset="0%" stop-color="#f8e71c" stop-opacity="1"></stop><stop offset="100%" stop-color="#f5a623" stop-opacity="1"></stop></radialGradient><radialGradient id="delapouite-card-exchange-gradient-10"><stop offset="0%" stop-color="#f8e71c" stop-opacity="1"></stop><stop offset="100%" stop-color="#f5a623" stop-opacity="1"></stop></radialGradient><linearGradient x1="0" x2="0" y1="0" y2="1" id="delapouite-card-exchange-gradient-12"><stop offset="0%" stop-color="#c9c9c9" stop-opacity="1"></stop><stop offset="100%" stop-color="#9b9b9b" stop-opacity="1"></stop></linearGradient><linearGradient x1="0" x2="0" y1="0" y2="1" id="delapouite-card-exchange-gradient-13"><stop offset="0%" stop-color="#c9c9c9" stop-opacity="1"></stop><stop offset="100%" stop-color="#9b9b9b" stop-opacity="1"></stop></linearGradient><linearGradient x1="0" x2="0" y1="0" y2="1" id="delapouite-card-exchange-gradient-14"><stop offset="0%" stop-color="#c9c9c9" stop-opacity="1"></stop><stop offset="100%" stop-color="#9b9b9b" stop-opacity="1"></stop></linearGradient><radialGradient id="delapouite-card-exchange-gradient-15"><stop offset="0%" stop-color="#50e3c2" stop-opacity="1"></stop><stop offset="100%" stop-color="#4a90e2" stop-opacity="1"></stop></radialGradient></defs><g class="" transform="translate(0,0)" style=""><g><path d="M258.148 20.822C257.036 20.83 255.922 20.848 254.805 20.877C215.485 21.918 173.298 36.849 131.02 71.281L124.992 76.191L119.26 70.941C106.616 59.363 98.984 43.308 93.607 27.225C84.633 64.205 78.976 108.61 84.375 141.748C102.44 142.656 129.784 139.571 158.075 133.93C175.933 130.369 194.123 125.804 211.139 120.858C197.72 117.947 185.243 113.976 172.996 108.776L156.908 101.944L171.814 92.817C218.181 64.424 252.778 52.131 292.049 57.264C325.154 61.591 361.406 78.131 411.115 104.535C385.742 68.221 348.872 39.798 306.387 27.541C290.985 23.098 274.834 20.713 258.148 20.822Z" class="" fill="url(#delapouite-card-exchange-gradient-2)" stroke="#000000" stroke-opacity="1" stroke-width="2"></path><path d="M346 116C299.333 116 299.334 116 299.334 162.666L299.334 349.4C299.334 358.996 299.341 366.59 299.748 372.642C316.467 367.907 333.365 363.83 350.404 360.419C375.053 355.504 398.771 352.195 418.32 352.009C424.837 351.947 430.891 352.233 436.361 352.921L442.671 353.714L444.029 359.927C446.493 371.192 447.702 383.374 447.943 395.986C485.975 395.796 486 392.926 486 349.336L486 162.665C486 116 486 116 439.334 116C440.708 118.521 442.034 121.068 443.312 123.64L455.936 149.176L430.932 135.528C417.847 128.385 405.768 121.896 394.48 116Z" class="selected" fill="url(#delapouite-card-exchange-gradient-3)" stroke="#000000" stroke-opacity="1" stroke-width="2"></path><path d="M64.057 116.016C26.025 116.206 26 119.076 26 162.666L26 349.4C26 396 26 396 72.666 396C71.292 393.479 69.966 390.932 68.688 388.36L56.064 362.824L81.068 376.473C94.153 383.615 106.232 390.105 117.52 396L166 396C212.667 396 212.666 396 212.666 349.334L212.666 162.666C212.666 153.04 212.66 145.426 212.25 139.362C195.532 144.096 178.634 148.172 161.596 151.582C128.731 158.136 97.519 161.832 75.639 159.08L69.329 158.287L67.971 152.074C65.507 140.809 64.298 128.628 64.057 116.016Z" class="" fill="url(#delapouite-card-exchange-gradient-4)" stroke="#000000" stroke-opacity="1" stroke-width="2"></path><path d="M418.676 370.094C401.133 370.344 377.85 373.3 353.926 378.071C336.067 381.631 317.876 386.196 300.861 391.143C314.28 394.053 326.757 398.024 339.004 403.225L355.092 410.057L340.186 419.184C293.819 447.576 259.222 459.869 219.951 454.737C186.846 450.41 150.594 433.869 100.885 407.465C126.258 443.78 163.128 472.203 205.613 484.459C258.186 499.625 319.485 490.802 380.98 440.719L387.008 435.809L392.74 441.059C405.384 452.638 413.016 468.692 418.393 484.776C427.367 447.795 433.024 403.39 427.625 370.252C424.837 370.112 421.877 370.048 418.675 370.094Z" class="" fill="url(#delapouite-card-exchange-gradient-5)" stroke="#000000" stroke-opacity="1" stroke-width="2"></path></g></g></svg>