<svg xmlns="http://www.w3.org/2000/svg" viewBox="0 0 512 512" style="height: 512px; width: 512px;"><defs><linearGradient x1="0" x2="0" y1="0" y2="1" id="skoll-revolver-gradient-2"><stop offset="0%" stop-color="#4a4a4a" stop-opacity="1"></stop><stop offset="100%" stop-color="#9b9b9b" stop-opacity="1"></stop></linearGradient><linearGradient x1="0" x2="0" y1="0" y2="1" id="skoll-revolver-gradient-3"><stop offset="0%" stop-color="#9b9b9b" stop-opacity="1"></stop><stop offset="100%" stop-color="#c9c9c9" stop-opacity="1"></stop></linearGradient><radialGradient id="skoll-revolver-gradient-4"><stop offset="0%" stop-color="#b57204" stop-opacity="1"></stop><stop offset="100%" stop-color="#8b572a" stop-opacity="1"></stop></radialGradient><radialGradient id="skoll-revolver-gradient-5"><stop offset="0%" stop-color="#50e3c2" stop-opacity="1"></stop><stop offset="100%" stop-color="#4a90e2" stop-opacity="1"></stop></radialGradient><linearGradient x1="0" x2="0" y1="0" y2="1" id="skoll-revolver-gradient-6"><stop offset="0%" stop-color="#4a4a4a" stop-opacity="1"></stop><stop offset="100%" stop-color="#9b9b9b" stop-opacity="1"></stop></linearGradient><linearGradient x1="0" x2="0" y1="0" y2="1" id="skoll-revolver-gradient-7"><stop offset="0%" stop-color="#4a4a4a" stop-opacity="1"></stop><stop offset="100%" stop-color="#9b9b9b" stop-opacity="1"></stop></linearGradient><radialGradient id="skoll-revolver-gradient-8"><stop offset="0%" stop-color="#f8e71c" stop-opacity="1"></stop><stop offset="100%" stop-color="#f5a623" stop-opacity="1"></stop></radialGradient><radialGradient id="skoll-revolver-gradient-9"><stop offset="0%" stop-color="#f8e71c" stop-opacity="1"></stop><stop offset="100%" stop-color="#f5a623" stop-opacity="1"></stop></radialGradient><radialGradient id="skoll-revolver-gradient-10"><stop offset="0%" stop-color="#f8e71c" stop-opacity="1"></stop><stop offset="100%" stop-color="#f5a623" stop-opacity="1"></stop></radialGradient><linearGradient x1="0" x2="0" y1="0" y2="1" id="skoll-revolver-gradient-12"><stop offset="0%" stop-color="#c9c9c9" stop-opacity="1"></stop><stop offset="100%" stop-color="#9b9b9b" stop-opacity="1"></stop></linearGradient><linearGradient x1="0" x2="0" y1="0" y2="1" id="skoll-revolver-gradient-13"><stop offset="0%" stop-color="#c9c9c9" stop-opacity="1"></stop><stop offset="100%" stop-color="#9b9b9b" stop-opacity="1"></stop></linearGradient><linearGradient x1="0" x2="0" y1="0" y2="1" id="skoll-revolver-gradient-14"><stop offset="0%" stop-color="#c9c9c9" stop-opacity="1"></stop><stop offset="100%" stop-color="#9b9b9b" stop-opacity="1"></stop></linearGradient><radialGradient id="skoll-revolver-gradient-15"><stop offset="0%" stop-color="#50e3c2" stop-opacity="1"></stop><stop offset="100%" stop-color="#4a90e2" stop-opacity="1"></stop></radialGradient></defs><g class="" transform="translate(0,0)" style=""><g><path d="M129.284 156.072C127.234 155.211 125.144 154.446 123.022 153.782C121.453 153.306 119.842 152.85 118.169 152.48C116.483 152.106 114.783 151.801 113.072 151.568C111.367 151.349 109.652 151.222 107.933 151.187L105.422 151.187C104.596 151.187 103.78 151.282 102.985 151.357C101.466 151.507 99.958 151.755 98.471 152.098C97.158 152.395 95.867 152.777 94.604 153.243C93.428 153.635 92.41 154.143 91.51 154.535C90.61 154.927 89.878 155.393 89.274 155.743L87.43 156.919L89.55 156.474C90.228 156.358 91.054 156.262 91.976 156.135C92.898 156.008 93.957 155.976 95.155 156.019C96.364 156.024 97.571 156.109 98.768 156.273C100.083 156.446 101.386 156.704 102.668 157.046C103.324 157.226 103.992 157.396 104.659 157.64C105.327 157.883 105.984 158.095 106.651 158.37C107.979 158.901 109.277 159.502 110.54 160.172C111.8 160.861 113.04 161.582 114.206 162.365C115.371 163.15 116.326 163.817 117.279 164.559C120.641 160.919 124.731 158.027 129.284 156.072Z" class="" fill="url(#skoll-revolver-gradient-2)" stroke="#000000" stroke-opacity="1" stroke-width="2"></path><path d="M416.534 195.615C416.534 199.711 413.213 203.032 409.117 203.032L304.781 203.032L304.781 186.079L416.534 186.079Z" class="" fill="url(#skoll-revolver-gradient-3)" stroke="#000000" stroke-opacity="1" stroke-width="2"></path><path d="M99.5 207.365C58.717 234.395 22.289 320.422 26.305 377.862L124.845 377.862C124.845 377.862 106.938 306.478 131.52 282.977C131.902 282.617 132.304 282.277 132.718 281.917C143.684 262.432 143.896 244.355 133.088 229.288C123.478 215.863 108.284 208.87 99.5 207.366Z" class="" fill="url(#skoll-revolver-gradient-4)" stroke="#000000" stroke-opacity="1" stroke-width="2"></path><path d="M86.467 344.855C86.468 354.643 75.872 360.761 67.395 355.868C58.918 350.975 58.917 338.74 67.394 333.845C69.327 332.729 71.52 332.141 73.752 332.141C80.774 332.141 86.467 337.834 86.467 344.856Z" class="selected" fill="url(#skoll-revolver-gradient-5)" stroke="#000000" stroke-opacity="1" stroke-width="2"></path><path d="M482.324 134.276C484.142 133.684 486.008 135.044 486.001 136.956L486.001 169.126L304.813 169.126L304.813 143.77L452.909 143.77Z" class="" fill="url(#skoll-revolver-gradient-6)" stroke="#000000" stroke-opacity="1" stroke-width="2"></path><path d="M124.187 198.91L124.028 198.91C132.978 204.084 140.754 211.062 146.862 219.402C161.187 239.344 159.64 259.825 153.951 275.984C159.333 276.206 164.017 277.679 166.178 280.402C176.744 293.879 192.919 301.751 210.044 301.752C233.281 301.752 255.256 287.109 258.531 260.249C267.208 258.554 274.211 252.156 276.681 243.667L287.838 205.352L287.838 136.48L157.913 136.48L157.913 143.717L146.862 143.717L146.862 169.56C119.313 169.613 124.145 198.91 124.145 198.91Z" class="" fill="url(#skoll-revolver-gradient-7)" stroke="#000000" stroke-opacity="1" stroke-width="2"></path><path d="M254.525 160.395C254.524 165.076 250.73 168.87 246.049 168.871L190.485 168.871C183.96 168.8 179.958 161.692 183.282 156.077C184.791 153.527 187.522 151.95 190.485 151.918L246.049 151.918C250.73 151.919 254.525 155.714 254.525 160.395Z" class="" fill="url(#skoll-revolver-gradient-8)" stroke="#000000" stroke-opacity="1" stroke-width="2"></path><path d="M254.525 184.765C254.524 189.446 250.73 193.24 246.049 193.241L190.485 193.241C183.96 193.17 179.958 186.062 183.282 180.447C184.791 177.897 187.522 176.32 190.485 176.288L246.049 176.288C250.73 176.289 254.525 180.084 254.525 184.765Z" class="" fill="url(#skoll-revolver-gradient-9)" stroke="#000000" stroke-opacity="1" stroke-width="2"></path><path d="M246.049 217.082L190.485 217.082C183.96 217.153 179.805 210.133 183.006 204.447C184.524 201.75 187.391 200.095 190.485 200.129L246.049 200.129C252.574 200.2 256.576 207.308 253.252 212.923C251.743 215.473 249.012 217.05 246.049 217.082Z" class="" fill="url(#skoll-revolver-gradient-10)" stroke="#000000" stroke-opacity="1" stroke-width="2"></path><path d="M174.973 260.524C174.973 246.4 183.449 245.203 195.74 245.574C196.005 246.856 196.302 248.18 196.662 249.537C197.096 251.115 197.562 252.715 198.145 254.337C198.728 255.957 199.375 257.515 200.085 259.137C200.808 260.698 201.614 262.219 202.5 263.693C202.924 264.423 203.38 265.123 203.856 265.812C204.333 266.5 204.81 267.147 205.298 267.782C206.233 268.991 207.245 270.138 208.328 271.216C209.278 272.171 210.291 273.063 211.358 273.886C212.312 274.67 213.287 275.263 214.092 275.814C214.897 276.365 215.692 276.746 216.306 277.064L218.288 278.007L216.783 276.45C216.328 275.941 215.798 275.295 215.205 274.574C214.544 273.765 213.955 272.9 213.445 271.989C212.807 270.968 212.238 269.906 211.74 268.81C211.187 267.602 210.712 266.36 210.32 265.091C210.119 264.434 209.917 263.777 209.769 263.089C209.621 262.399 209.44 261.722 209.324 260.969C209.069 259.567 208.888 258.152 208.784 256.731C208.684 255.321 208.652 253.906 208.688 252.493C208.73 251.115 208.815 249.706 208.942 248.371C209.027 247.576 209.122 246.814 209.229 246.061L210.394 246.061C229.954 246.061 245.805 241.261 245.805 260.535C245.797 287.799 216.278 304.83 192.671 291.191C181.715 284.861 174.968 273.167 174.972 260.514Z" class="" fill="#00005a" stroke="#000000" stroke-opacity="1" stroke-width="2" fill-opacity="0"></path></g></g></svg>