<svg xmlns="http://www.w3.org/2000/svg" viewBox="0 0 512 512" style="height: 512px; width: 512px;"><defs><radialGradient id="lorc-sharp-crown-gradient-2"><stop offset="0%" stop-color="#f8e71c" stop-opacity="1"></stop><stop offset="100%" stop-color="#f5a623" stop-opacity="1"></stop></radialGradient><radialGradient id="lorc-sharp-crown-gradient-3"><stop offset="0%" stop-color="#fc88fc" stop-opacity="1"></stop><stop offset="100%" stop-color="#bd10e0" stop-opacity="1"></stop></radialGradient><radialGradient id="lorc-sharp-crown-gradient-4"><stop offset="0%" stop-color="#fc88fc" stop-opacity="1"></stop><stop offset="100%" stop-color="#bd10e0" stop-opacity="1"></stop></radialGradient><radialGradient id="lorc-sharp-crown-gradient-5"><stop offset="0%" stop-color="#fc88fc" stop-opacity="1"></stop><stop offset="100%" stop-color="#bd10e0" stop-opacity="1"></stop></radialGradient><radialGradient id="lorc-sharp-crown-gradient-6"><stop offset="0%" stop-color="#fc88fc" stop-opacity="1"></stop><stop offset="100%" stop-color="#bd10e0" stop-opacity="1"></stop></radialGradient><radialGradient id="lorc-sharp-crown-gradient-7"><stop offset="0%" stop-color="#fc88fc" stop-opacity="1"></stop><stop offset="100%" stop-color="#bd10e0" stop-opacity="1"></stop></radialGradient><radialGradient id="lorc-sharp-crown-gradient-8"><stop offset="0%" stop-color="#fc6879" stop-opacity="1"></stop><stop offset="100%" stop-color="#d0021b" stop-opacity="1"></stop></radialGradient><radialGradient id="lorc-sharp-crown-gradient-9"><stop offset="0%" stop-color="#fc6879" stop-opacity="1"></stop><stop offset="100%" stop-color="#d0021b" stop-opacity="1"></stop></radialGradient><radialGradient id="lorc-sharp-crown-gradient-10"><stop offset="0%" stop-color="#f8e71c" stop-opacity="1"></stop><stop offset="100%" stop-color="#f5a623" stop-opacity="1"></stop></radialGradient><linearGradient x1="0" x2="0" y1="0" y2="1" id="lorc-sharp-crown-gradient-11"><stop offset="0%" stop-color="#f8e71c" stop-opacity="1"></stop><stop offset="100%" stop-color="#f5a623" stop-opacity="1"></stop></linearGradient><linearGradient x1="0" x2="0" y1="0" y2="1" id="lorc-sharp-crown-gradient-12"><stop offset="0%" stop-color="#c9c9c9" stop-opacity="1"></stop><stop offset="100%" stop-color="#9b9b9b" stop-opacity="1"></stop></linearGradient><linearGradient x1="0" x2="0" y1="0" y2="1" id="lorc-sharp-crown-gradient-13"><stop offset="0%" stop-color="#c9c9c9" stop-opacity="1"></stop><stop offset="100%" stop-color="#9b9b9b" stop-opacity="1"></stop></linearGradient><linearGradient x1="0" x2="0" y1="0" y2="1" id="lorc-sharp-crown-gradient-14"><stop offset="0%" stop-color="#c9c9c9" stop-opacity="1"></stop><stop offset="100%" stop-color="#9b9b9b" stop-opacity="1"></stop></linearGradient><radialGradient id="lorc-sharp-crown-gradient-15"><stop offset="0%" stop-color="#50e3c2" stop-opacity="1"></stop><stop offset="100%" stop-color="#4a90e2" stop-opacity="1"></stop></radialGradient></defs><g class="" transform="translate(0,0)" style=""><g><path d="M252.28 18.25L198.5 196.53L154.97 63.595L104.22 246.095L70.97 158.47L36.063 299.22C25.451 313.225 19.593 328.512 19.593 344.5C19.593 350.406 20.493 356.348 22.031 362.03C38.147 303.664 135.618 258.69 253.47 258.69C371.32 258.69 468.822 303.665 484.938 362.033C486.476 356.351 487.375 350.409 487.375 344.503C487.375 328.091 481.185 312.437 470.031 298.128L435.407 158.47L406.377 235.22L358.03 63.593L310.28 210.437L252.28 18.249Z" class="" fill="url(#lorc-sharp-crown-gradient-2)" stroke="#000000" stroke-opacity="1" stroke-width="2"></path><path d="M251.437 167.563C265.63 167.563 277.157 184.023 277.157 204.343C277.157 224.663 265.63 241.156 251.437 241.156C237.245 241.156 225.75 224.664 225.75 204.344C225.75 184.024 237.245 167.564 251.438 167.564Z" class="" fill="url(#lorc-sharp-crown-gradient-3)" stroke="#000000" stroke-opacity="1" stroke-width="2"></path><path d="M155.657 194.406C166.469 194.406 175.219 206.956 175.219 222.436C175.219 237.92 166.469 250.469 155.655 250.469C144.842 250.469 136.061 237.919 136.061 222.437C136.061 206.954 144.841 194.405 155.655 194.405Z" class="" fill="url(#lorc-sharp-crown-gradient-4)" stroke="#000000" stroke-opacity="1" stroke-width="2"></path><path d="M357.719 194.406C368.531 194.406 377.311 206.956 377.311 222.436C377.311 237.92 368.531 250.469 357.718 250.469C346.904 250.469 338.154 237.919 338.154 222.437C338.154 206.954 346.904 194.405 357.717 194.405Z" class="" fill="url(#lorc-sharp-crown-gradient-5)" stroke="#000000" stroke-opacity="1" stroke-width="2"></path><path d="M72.749 239.656C80.982 239.656 87.655 249.212 87.655 261C87.655 272.788 80.982 282.344 72.749 282.344C64.516 282.344 57.844 272.788 57.844 261C57.844 249.212 64.517 239.656 72.75 239.656Z" class="" fill="url(#lorc-sharp-crown-gradient-6)" stroke="#000000" stroke-opacity="1" stroke-width="2"></path><path d="M433.687 239.656C441.919 239.656 448.593 249.212 448.593 261C448.593 272.788 441.919 282.344 433.687 282.344C425.454 282.344 418.78 272.788 418.78 261C418.78 249.212 425.455 239.656 433.688 239.656Z" class="" fill="url(#lorc-sharp-crown-gradient-7)" stroke="#000000" stroke-opacity="1" stroke-width="2"></path><path d="M126.344 403.5C110.244 403.728 94.021 408.188 77.624 417.875C126.354 480.51 175.082 468.038 223.814 447.405C191.714 420.379 159.307 403.032 126.344 403.5Z" class="" fill="url(#lorc-sharp-crown-gradient-8)" stroke="#000000" stroke-opacity="1" stroke-width="2"></path><path d="M384.219 403.5C352.046 403.85 320.413 421.007 289.061 447.406C337.791 468.038 386.519 480.51 435.249 417.876C418.072 407.726 401.069 403.316 384.219 403.5Z" class="selected" fill="url(#lorc-sharp-crown-gradient-9)" stroke="#000000" stroke-opacity="1" stroke-width="2"></path></g></g></svg>