<svg xmlns="http://www.w3.org/2000/svg" viewBox="0 0 512 512" style="height: 512px; width: 512px;"><defs><linearGradient x1="0" x2="0" y1="0" y2="1" id="skoll-open-chest-gradient-2"><stop offset="0%" stop-color="#b57204" stop-opacity="1"></stop><stop offset="100%" stop-color="#8b572a" stop-opacity="1"></stop></linearGradient><linearGradient x1="0" x2="0" y1="0" y2="1" id="skoll-open-chest-gradient-4"><stop offset="0%" stop-color="#b57204" stop-opacity="1"></stop><stop offset="100%" stop-color="#8b572a" stop-opacity="1"></stop></linearGradient><linearGradient id="skoll-open-chest-gradient-5"><stop offset="0%" stop-color="#b57204" stop-opacity="1"></stop><stop offset="100%" stop-color="#8b572a" stop-opacity="1"></stop></linearGradient><radialGradient id="skoll-open-chest-gradient-6"><stop offset="0%" stop-color="#b57204" stop-opacity="1"></stop><stop offset="100%" stop-color="#8b572a" stop-opacity="1"></stop></radialGradient><linearGradient x1="0" x2="0" y1="0" y2="1" id="skoll-open-chest-gradient-7"><stop offset="0%" stop-color="#8b572a" stop-opacity="1"></stop><stop offset="100%" stop-color="#b57204" stop-opacity="1"></stop></linearGradient><linearGradient id="skoll-open-chest-gradient-9"><stop offset="0%" stop-color="#8b572a" stop-opacity="1"></stop><stop offset="100%" stop-color="#b57204" stop-opacity="1"></stop></linearGradient><linearGradient id="skoll-open-chest-gradient-10"><stop offset="0%" stop-color="#b57204" stop-opacity="1"></stop><stop offset="100%" stop-color="#8b572a" stop-opacity="1"></stop></linearGradient><radialGradient id="skoll-open-chest-gradient-11"><stop offset="0%" stop-color="#d0021b" stop-opacity="1"></stop><stop offset="100%" stop-color="#7c0210" stop-opacity="1"></stop></radialGradient><radialGradient id="skoll-open-chest-gradient-12"><stop offset="0%" stop-color="#d0021b" stop-opacity="1"></stop><stop offset="100%" stop-color="#7c0210" stop-opacity="1"></stop></radialGradient><linearGradient x1="0" x2="0" y1="0" y2="1" id="skoll-open-chest-gradient-14"><stop offset="0%" stop-color="#c9c9c9" stop-opacity="1"></stop><stop offset="100%" stop-color="#9b9b9b" stop-opacity="1"></stop></linearGradient><linearGradient id="skoll-open-chest-gradient-15"><stop offset="0%" stop-color="#f8e71c" stop-opacity="1"></stop><stop offset="100%" stop-color="#f5a623" stop-opacity="1"></stop></linearGradient><linearGradient x1="0" x2="0" y1="0" y2="1" id="skoll-open-chest-gradient-16"><stop offset="0%" stop-color="#f5a623" stop-opacity="1"></stop><stop offset="100%" stop-color="#f8e71c" stop-opacity="1"></stop></linearGradient><linearGradient x1="0" x2="0" y1="0" y2="1" id="skoll-open-chest-gradient-17"><stop offset="0%" stop-color="#f5a623" stop-opacity="1"></stop><stop offset="100%" stop-color="#f8e71c" stop-opacity="1"></stop></linearGradient></defs><g class="" transform="translate(0,0)" style=""><g><path d="M457.03 213.037L416.514 100.24C425 77.232 433.27 68.075 437.527 64.633C440.689 62.07 443.449 61.099 445.712 61.729C449.846 62.897 454.487 69.429 457.99 79.185C469.256 110.532 468.367 166.279 457.03 213.035Z" class="" fill="url(#skoll-open-chest-gradient-2)" stroke="#000000" stroke-opacity="1" stroke-width="2"></path><path d="M132.743 195.137L445.547 229.977L401.727 107.877L145.558 79.34C148.151 115.442 143.645 159.253 132.741 195.136Z" class="" fill="#8b572a" fill-opacity="0" stroke="#000000" stroke-opacity="1" stroke-width="0"></path><path d="M128.98 77.5L83.92 72.48L120.95 175.603C128.723 143.543 131.575 107.246 128.98 77.501Z" class="" fill="url(#skoll-open-chest-gradient-4)" stroke="#000000" stroke-opacity="1" stroke-width="2"></path><path d="M101.46 27.19C97.667 30.29 90.69 37.856 83.21 55.756L402.23 91.3C407.563 77.605 413.6 66.598 420.11 58.805L108.796 24.13C106.223 23.84 103.381 25.64 101.458 27.19Z" class="selected" fill="url(#skoll-open-chest-gradient-5)" stroke="#000000" stroke-opacity="1" stroke-width="2"></path><path d="M382.09 310.528L382.7 479.88L449.052 426.25L448.442 256.9Z" class="" fill="url(#skoll-open-chest-gradient-6)" stroke="#000000" stroke-opacity="1" stroke-width="2"></path><path d="M366.163 487.9L46.62 452.306L46 278.396L365.553 313.99Z" class="" fill="url(#skoll-open-chest-gradient-7)" stroke="#000000" stroke-opacity="1" stroke-width="2"></path><path d="M216.726 337.648C220.169 335.823 222.2 332.128 221.894 328.243C221.646 321.876 216.53 316.151 210.464 315.386L210.339 315.386C204.199 314.693 199.435 319.313 199.693 325.721C199.929 329.925 202.047 333.798 205.46 336.264L203.29 361.337L220.86 363.342Z" class="" fill="#000000" stroke="#000000" stroke-opacity="1" stroke-width="2" fill-opacity="1"></path><path d="M436.006 245.665L128.546 211.415L128.546 270.955L371.258 297.992Z" class="" fill="url(#skoll-open-chest-gradient-9)" stroke="#000000" stroke-opacity="1" stroke-width="2"></path><path d="M58.31 263.13L112.65 269.188L112.65 219.208Z" class="" fill="url(#skoll-open-chest-gradient-10)" stroke="#000000" stroke-opacity="1" stroke-width="2"></path></g></g></svg>