<svg xmlns="http://www.w3.org/2000/svg" viewBox="0 0 512 512" style="height: 512px; width: 512px;"><defs><radialGradient id="delapouite-village-gradient-2"><stop offset="0%" stop-color="#ff7b00" stop-opacity="1"></stop><stop offset="100%" stop-color="#b87333" stop-opacity="1"></stop></radialGradient><radialGradient id="delapouite-village-gradient-3"><stop offset="0%" stop-color="#ff7b00" stop-opacity="1"></stop><stop offset="100%" stop-color="#b87333" stop-opacity="1"></stop></radialGradient><radialGradient id="delapouite-village-gradient-4"><stop offset="0%" stop-color="#ff7b00" stop-opacity="1"></stop><stop offset="100%" stop-color="#b87333" stop-opacity="1"></stop></radialGradient><radialGradient id="delapouite-village-gradient-5"><stop offset="0%" stop-color="#9b9b9b" stop-opacity="1"></stop><stop offset="100%" stop-color="#4a4a4a" stop-opacity="1"></stop></radialGradient><radialGradient id="delapouite-village-gradient-6"><stop offset="0%" stop-color="#50e3c2" stop-opacity="1"></stop><stop offset="100%" stop-color="#4a90e2" stop-opacity="1"></stop></radialGradient><radialGradient id="delapouite-village-gradient-7"><stop offset="0%" stop-color="#9b9b9b" stop-opacity="1"></stop><stop offset="100%" stop-color="#4a4a4a" stop-opacity="1"></stop></radialGradient><radialGradient id="delapouite-village-gradient-8"><stop offset="0%" stop-color="#9b9b9b" stop-opacity="1"></stop><stop offset="100%" stop-color="#4a4a4a" stop-opacity="1"></stop></radialGradient><radialGradient id="delapouite-village-gradient-9"><stop offset="0%" stop-color="#9b9b9b" stop-opacity="1"></stop><stop offset="100%" stop-color="#4a4a4a" stop-opacity="1"></stop></radialGradient><radialGradient id="delapouite-village-gradient-10"><stop offset="0%" stop-color="#50e3c2" stop-opacity="1"></stop><stop offset="100%" stop-color="#4a90e2" stop-opacity="1"></stop></radialGradient><linearGradient x1="0" x2="0" y1="0" y2="1" id="delapouite-village-gradient-11"><stop offset="0%" stop-color="#b57204" stop-opacity="1"></stop><stop offset="100%" stop-color="#8b572a" stop-opacity="1"></stop></linearGradient><linearGradient x1="0" x2="0" y1="0" y2="1" id="delapouite-village-gradient-12"><stop offset="0%" stop-color="#b57204" stop-opacity="1"></stop><stop offset="100%" stop-color="#8b572a" stop-opacity="1"></stop></linearGradient><linearGradient x1="0" x2="0" y1="0" y2="1" id="delapouite-village-gradient-13"><stop offset="0%" stop-color="#c9c9c9" stop-opacity="1"></stop><stop offset="100%" stop-color="#9b9b9b" stop-opacity="1"></stop></linearGradient><linearGradient x1="0" x2="0" y1="0" y2="1" id="delapouite-village-gradient-14"><stop offset="0%" stop-color="#c9c9c9" stop-opacity="1"></stop><stop offset="100%" stop-color="#9b9b9b" stop-opacity="1"></stop></linearGradient><radialGradient id="delapouite-village-gradient-15"><stop offset="0%" stop-color="#50e3c2" stop-opacity="1"></stop><stop offset="100%" stop-color="#4a90e2" stop-opacity="1"></stop></radialGradient></defs><g class="" transform="translate(0,0)" style=""><g><path d="M109.902 35.87L38.762 95.154L181.042 95.154L109.902 35.869Z" class="" fill="url(#delapouite-village-gradient-2)" stroke="#000000" stroke-opacity="1" stroke-width="2"></path><path d="M397.902 67.87L326.762 127.154L469.042 127.154L397.902 67.869Z" class="" fill="url(#delapouite-village-gradient-3)" stroke="#000000" stroke-opacity="1" stroke-width="2"></path><path d="M228.73 84.403L119.83 175.153L337.63 175.153L228.73 84.403Z" class="" fill="url(#delapouite-village-gradient-4)" stroke="#000000" stroke-opacity="1" stroke-width="2"></path><path d="M54.902 113.153L54.902 175.153L91.712 175.153L164.902 114.161L164.902 113.153L54.902 113.153Z" class="" fill="url(#delapouite-village-gradient-5)" stroke="#000000" stroke-opacity="1" stroke-width="2"></path><path d="M77.902 127.153L93.902 127.153L93.902 145.153L77.902 145.153L77.902 127.153Z" class="selected" fill="url(#delapouite-village-gradient-6)" stroke="#000000" stroke-opacity="1" stroke-width="2"></path><path d="M342.902 145.153L342.902 156.116L365.902 175.282L365.902 159.152L381.902 159.152L381.902 177.152L368.146 177.152L368.25 177.239L387.348 193.153L342.902 193.153L342.902 207.153L420.902 207.153L420.902 168.153L438.902 168.153L438.902 207.153L452.902 207.153L452.902 145.153L342.902 145.153Z" class="" fill="url(#delapouite-village-gradient-7)" stroke="#000000" stroke-opacity="1" stroke-width="2"></path><path d="M148.557 193.153L148.557 213.233L172.652 193.153L148.557 193.153Z" class="" fill="url(#delapouite-village-gradient-8)" stroke="#000000" stroke-opacity="1" stroke-width="2"></path><path d="M176.715 193.153L281.815 280.735L308.902 258.161L308.902 193.153L176.715 193.153Z" class="" fill="url(#delapouite-village-gradient-9)" stroke="#000000" stroke-opacity="1" stroke-width="2"></path><path d="M251.398 207.153L287.133 207.153L287.133 241.153L251.398 241.153L251.398 207.153Z" class="" fill="url(#delapouite-village-gradient-10)" stroke="#000000" stroke-opacity="1" stroke-width="2"></path><path d="M174.684 214.893L30.37 335.153L319 335.153L174.686 214.893Z" class="" fill="url(#delapouite-village-gradient-11)" stroke="#000000" stroke-opacity="1" stroke-width="2"></path><path d="M372.73 228.403L295.873 292.45L327.916 319.154L481.63 319.154L372.73 228.404Z" class="" fill="url(#delapouite-village-gradient-12)" stroke="#000000" stroke-opacity="1" stroke-width="2"></path><path d="M349.516 337.153L349.619 337.239L368.714 353.153L296.466 353.153L296.466 430.62L356.901 430.62L356.901 367.154L406.901 367.154L406.901 430.621L452.901 430.621L452.901 337.155L349.516 337.155Z" class="" fill="url(#delapouite-village-gradient-13)" stroke="#000000" stroke-opacity="1" stroke-width="2"></path><path d="M70.902 353.153L70.902 476.13L196.902 476.13L196.902 399.154L246.902 399.154L246.902 476.131L278.467 476.131L278.467 353.155L70.902 353.155Z" class="" fill="url(#delapouite-village-gradient-14)" stroke="#000000" stroke-opacity="1" stroke-width="2"></path><path d="M100.902 383.153L150.902 383.153L150.902 433.153L100.902 433.153L100.902 383.153Z" class="" fill="url(#delapouite-village-gradient-15)" stroke="#000000" stroke-opacity="1" stroke-width="2"></path></g></g></svg>