<svg xmlns="http://www.w3.org/2000/svg" viewBox="0 0 512 512" style="height: 512px; width: 512px;"><defs><radialGradient id="delapouite-three-friends-gradient-2"><stop offset="0%" stop-color="#f8e71c" stop-opacity="1"></stop><stop offset="100%" stop-color="#f5a623" stop-opacity="1"></stop></radialGradient><radialGradient id="delapouite-three-friends-gradient-3"><stop offset="0%" stop-color="#f8e71c" stop-opacity="1"></stop><stop offset="100%" stop-color="#f5a623" stop-opacity="1"></stop></radialGradient><radialGradient id="delapouite-three-friends-gradient-4"><stop offset="0%" stop-color="#f8e71c" stop-opacity="1"></stop><stop offset="100%" stop-color="#f5a623" stop-opacity="1"></stop></radialGradient><radialGradient id="delapouite-three-friends-gradient-5"><stop offset="0%" stop-color="#f8e71c" stop-opacity="1"></stop><stop offset="100%" stop-color="#f5a623" stop-opacity="1"></stop></radialGradient><radialGradient id="delapouite-three-friends-gradient-6"><stop offset="0%" stop-color="#50e3c2" stop-opacity="1"></stop><stop offset="100%" stop-color="#4a90e2" stop-opacity="1"></stop></radialGradient><radialGradient id="delapouite-three-friends-gradient-7"><stop offset="0%" stop-color="#9b9b9b" stop-opacity="1"></stop><stop offset="100%" stop-color="#4a4a4a" stop-opacity="1"></stop></radialGradient><radialGradient id="delapouite-three-friends-gradient-8"><stop offset="0%" stop-color="#9b9b9b" stop-opacity="1"></stop><stop offset="100%" stop-color="#4a4a4a" stop-opacity="1"></stop></radialGradient><radialGradient id="delapouite-three-friends-gradient-9"><stop offset="0%" stop-color="#9b9b9b" stop-opacity="1"></stop><stop offset="100%" stop-color="#4a4a4a" stop-opacity="1"></stop></radialGradient><radialGradient id="delapouite-three-friends-gradient-10"><stop offset="0%" stop-color="#50e3c2" stop-opacity="1"></stop><stop offset="100%" stop-color="#4a90e2" stop-opacity="1"></stop></radialGradient><linearGradient x1="0" x2="0" y1="0" y2="1" id="delapouite-three-friends-gradient-11"><stop offset="0%" stop-color="#b57204" stop-opacity="1"></stop><stop offset="100%" stop-color="#8b572a" stop-opacity="1"></stop></linearGradient><linearGradient x1="0" x2="0" y1="0" y2="1" id="delapouite-three-friends-gradient-12"><stop offset="0%" stop-color="#b57204" stop-opacity="1"></stop><stop offset="100%" stop-color="#8b572a" stop-opacity="1"></stop></linearGradient><linearGradient x1="0" x2="0" y1="0" y2="1" id="delapouite-three-friends-gradient-13"><stop offset="0%" stop-color="#c9c9c9" stop-opacity="1"></stop><stop offset="100%" stop-color="#9b9b9b" stop-opacity="1"></stop></linearGradient><linearGradient x1="0" x2="0" y1="0" y2="1" id="delapouite-three-friends-gradient-14"><stop offset="0%" stop-color="#c9c9c9" stop-opacity="1"></stop><stop offset="100%" stop-color="#9b9b9b" stop-opacity="1"></stop></linearGradient><radialGradient id="delapouite-three-friends-gradient-15"><stop offset="0%" stop-color="#50e3c2" stop-opacity="1"></stop><stop offset="100%" stop-color="#4a90e2" stop-opacity="1"></stop></radialGradient></defs><g class="" transform="translate(0,0)" style=""><g><path d="M389 40.84C407.5 40.84 424 59.63 424 84.87C424 110.2 407.5 128.9 389 128.9C370.5 128.9 354 110.2 354 84.87C354 59.63 370.5 40.84 389 40.84Z" class="selected" fill="url(#delapouite-three-friends-gradient-2)" stroke="#000000" stroke-opacity="1" stroke-width="2"></path><path d="M256.1 40.84C274.5 40.84 291.1 59.63 291.1 84.87C291.1 110.2 274.5 128.9 256.1 128.9C237.6 128.9 221 110.2 221 84.87C221 59.63 237.6 40.84 256.1 40.84Z" class="" fill="url(#delapouite-three-friends-gradient-3)" stroke="#000000" stroke-opacity="1" stroke-width="2"></path><path d="M123.1 40.84C141.6 40.84 158.1 59.63 158.1 84.87C158.1 110.2 141.6 128.9 123.1 128.9C104.6 128.9 88.01 110.2 88.01 84.87C88.01 59.63 104.6 40.84 123.1 40.84Z" class="" fill="url(#delapouite-three-friends-gradient-4)" stroke="#000000" stroke-opacity="1" stroke-width="2"></path><path d="M256.1 149.9C320.1 151.9 374.1 151.9 438.9 154.1C469.8 171.9 484.1 263.1 483.2 294.8L465.6 312.5C457.9 269.7 448.2 212.6 432.1 199.9L432.1 287.5L436.2 471.2L414 471.2L397.3 286.5L379.3 286.5L362.6 471.2L340.3 471.2L344.5 287.5L336.5 199L307.2 199L300 287.2L304.2 470.9L281.9 470.9L265.1 286.2L247.1 286.2L230.3 470.9L208.1 470.9L212.3 287.2L205 199L175.7 199L167.7 287.5L171.9 471.2L149.6 471.2L132.9 286.5L114.9 286.5L98.01 471.2L75.81 471.2L80.01 287.5L80.01 199.9C63.81 212.6 54.11 269.7 46.41 312.5L28.81 294.8C27.91 263.1 42.31 171.9 73.11 154.1C138.1 151.9 192.1 151.9 256.1 149.9Z" class="" fill="url(#delapouite-three-friends-gradient-5)" stroke="#000000" stroke-opacity="1" stroke-width="2"></path></g></g></svg>