<svg xmlns="http://www.w3.org/2000/svg" viewBox="0 0 512 512" style="height: 512px; width: 512px;"><defs><linearGradient x1="0" x2="0" y1="0" y2="1" id="delapouite-strongbox-gradient-2"><stop offset="0%" stop-color="#b57204" stop-opacity="1"></stop><stop offset="100%" stop-color="#8b572a" stop-opacity="1"></stop></linearGradient><linearGradient x1="0" x2="0" y1="0" y2="1" id="delapouite-strongbox-gradient-4"><stop offset="0%" stop-color="#c9c9c9" stop-opacity="1"></stop><stop offset="100%" stop-color="#aaaaaa" stop-opacity="1"></stop></linearGradient><linearGradient id="delapouite-strongbox-gradient-5"><stop offset="0%" stop-color="#f8e71c" stop-opacity="1"></stop><stop offset="100%" stop-color="#f5a623" stop-opacity="1"></stop></linearGradient><radialGradient id="delapouite-strongbox-gradient-6"><stop offset="0%" stop-color="#f8e71c" stop-opacity="1"></stop><stop offset="100%" stop-color="#f5a623" stop-opacity="1"></stop></radialGradient><linearGradient x1="0" x2="0" y1="0" y2="1" id="delapouite-strongbox-gradient-7"><stop offset="0%" stop-color="#9b9b9b" stop-opacity="1"></stop><stop offset="100%" stop-color="#c9c9c9" stop-opacity="1"></stop></linearGradient><radialGradient id="delapouite-strongbox-gradient-8"><stop offset="0%" stop-color="#f8e71c" stop-opacity="1"></stop><stop offset="100%" stop-color="#f5a623" stop-opacity="1"></stop></radialGradient><linearGradient id="delapouite-strongbox-gradient-9"><stop offset="0%" stop-color="#9b9b9b" stop-opacity="1"></stop><stop offset="100%" stop-color="#c9c9c9" stop-opacity="1"></stop></linearGradient><linearGradient id="delapouite-strongbox-gradient-10"><stop offset="0%" stop-color="#c9c9c9" stop-opacity="1"></stop><stop offset="100%" stop-color="#9b9b9b" stop-opacity="1"></stop></linearGradient><radialGradient id="delapouite-strongbox-gradient-11"><stop offset="0%" stop-color="#d0021b" stop-opacity="1"></stop><stop offset="100%" stop-color="#7c0210" stop-opacity="1"></stop></radialGradient><radialGradient id="delapouite-strongbox-gradient-12"><stop offset="0%" stop-color="#d0021b" stop-opacity="1"></stop><stop offset="100%" stop-color="#7c0210" stop-opacity="1"></stop></radialGradient><linearGradient x1="0" x2="0" y1="0" y2="1" id="delapouite-strongbox-gradient-14"><stop offset="0%" stop-color="#c9c9c9" stop-opacity="1"></stop><stop offset="100%" stop-color="#9b9b9b" stop-opacity="1"></stop></linearGradient><linearGradient id="delapouite-strongbox-gradient-15"><stop offset="0%" stop-color="#f8e71c" stop-opacity="1"></stop><stop offset="100%" stop-color="#f5a623" stop-opacity="1"></stop></linearGradient><linearGradient x1="0" x2="0" y1="0" y2="1" id="delapouite-strongbox-gradient-16"><stop offset="0%" stop-color="#f5a623" stop-opacity="1"></stop><stop offset="100%" stop-color="#f8e71c" stop-opacity="1"></stop></linearGradient><linearGradient x1="0" x2="0" y1="0" y2="1" id="delapouite-strongbox-gradient-17"><stop offset="0%" stop-color="#f5a623" stop-opacity="1"></stop><stop offset="100%" stop-color="#f8e71c" stop-opacity="1"></stop></linearGradient></defs><g class="" transform="translate(0,0)" style=""><g><path d="M25 25L25 439L487 439L487 25L25 25Z" class="" fill="url(#delapouite-strongbox-gradient-2)" stroke="#000000" stroke-opacity="1" stroke-width="2"></path><path d="M55 55L457 55L457 87L473 87L473 153L457 153L457 311L473 311L473 377L457 377L457 409L55 409L55 55Z" class="" fill="#8b572a" fill-opacity="0" stroke="#000000" stroke-opacity="1" stroke-width="0"></path><path d="M73 73L73 391L439 391L439 377L407 377L407 311L439 311L439 153L407 153L407 87L439 87L439 73L73 73Z" class="" fill="url(#delapouite-strongbox-gradient-4)" stroke="#000000" stroke-opacity="1" stroke-width="2"></path><path d="M425 105L425 135L455 135L455 105L425 105Z" class="" fill="url(#delapouite-strongbox-gradient-5)" stroke="#000000" stroke-opacity="1" stroke-width="2"></path><path d="M208 135C229.3 135 248.8 142.5 264.1 155.1L281.6 137.6L294.4 150.4L276.9 167.9C289.5 183.2 297 202.7 297 224C297 245.3 289.5 264.8 276.9 280.1L294.4 297.6L281.6 310.4L264.1 292.9C248.8 305.5 229.3 313 208 313C186.7 313 167.2 305.5 151.9 292.9L134.4 310.4L121.6 297.6L139.1 280.1C126.5 264.8 119 245.3 119 224C119 202.7 126.5 183.2 139.1 167.9L121.6 150.4L134.4 137.6L151.9 155.1C167.2 142.5 186.7 135 208 135Z" class="" fill="url(#delapouite-strongbox-gradient-6)" stroke="#000000" stroke-opacity="1" stroke-width="2"></path><path d="M208 153C191.6 153 176.6 158.5 164.6 167.8L186.2 189.4C192.5 185.3 200 183 208 183C216 183 223.5 185.3 229.8 189.4L251.4 167.8C239.4 158.5 224.4 153 208 153Z" class="" fill="url(#delapouite-strongbox-gradient-7)" stroke="#000000" stroke-opacity="1" stroke-width="2"></path><path d="M360 167C378.1 167 393 181.9 393 200C393 207 390.8 213.5 387 218.9L387 272C387 291.4 374.3 305 360 305C345.7 305 333 291.4 333 272L333 218.9C329.2 213.5 327 207 327 200C327 181.9 341.9 167 360 167Z" class="" fill="url(#delapouite-strongbox-gradient-8)" stroke="#000000" stroke-opacity="1" stroke-width="2"></path><path d="M151.8 180.6C142.5 192.6 137 207.6 137 224C137 240.4 142.5 255.4 151.8 267.4L173.4 245.8C169.3 239.5 167 232 167 224C167 216 169.3 208.5 173.4 202.2L151.8 180.6Z" class="" fill="url(#delapouite-strongbox-gradient-9)" stroke="#000000" stroke-opacity="1" stroke-width="2"></path><path d="M264.2 180.6L242.6 202.2C246.7 208.5 249 216 249 224C249 232 246.7 239.5 242.6 245.8L264.2 267.4C273.5 255.4 279 240.4 279 224C279 207.6 273.5 192.6 264.2 180.6Z" class="selected" fill="url(#delapouite-strongbox-gradient-10)" stroke="#000000" stroke-opacity="1" stroke-width="2"></path><path d="M360 185C351.6 185 345 191.6 345 200C345 208.4 351.6 215 360 215C368.4 215 375 208.4 375 200C375 191.6 368.4 185 360 185Z" class="" fill="url(#delapouite-strongbox-gradient-11)" stroke="#000000" stroke-opacity="1" stroke-width="2"></path><path d="M208 201C195.2 201 185 211.2 185 224C185 236.8 195.2 247 208 247C220.8 247 231 236.8 231 224C231 211.2 220.8 201 208 201Z" class="" fill="url(#delapouite-strongbox-gradient-12)" stroke="#000000" stroke-opacity="1" stroke-width="2"></path><path d="M351 231.7L351 272C351 284.6 356.3 287 360 287C363.7 287 369 284.6 369 272L369 231.7C366.1 232.5 363.1 233 360 233C356.9 233 353.9 232.5 351 231.7Z" class="" fill="#000000" fill-opacity="1" stroke="#000000" stroke-opacity="1" stroke-width="2"></path><path d="M186.2 258.6L164.6 280.2C176.6 289.5 191.6 295 208 295C224.4 295 239.4 289.5 251.4 280.2L229.8 258.6C223.5 262.7 216 265 208 265C200 265 192.5 262.7 186.2 258.6Z" class="" fill="url(#delapouite-strongbox-gradient-14)" stroke="#000000" stroke-opacity="1" stroke-width="2"></path><path d="M425 329L425 359L455 359L455 329L425 329Z" class="" fill="url(#delapouite-strongbox-gradient-15)" stroke="#000000" stroke-opacity="1" stroke-width="2"></path><path d="M73 457L73 487L107.2 487L127.2 457L73 457Z" class="" fill="url(#delapouite-strongbox-gradient-16)" stroke="#000000" stroke-opacity="1" stroke-width="2"></path><path d="M384.8 457L404.8 487L439 487L439 457L384.8 457Z" class="" fill="url(#delapouite-strongbox-gradient-17)" stroke="#000000" stroke-opacity="1" stroke-width="2"></path></g></g></svg>