<svg xmlns="http://www.w3.org/2000/svg" viewBox="0 0 512 512" style="height: 512px; width: 512px;"><defs><linearGradient x1="0" x2="1" y1="0" y2="1" id="delapouite-wax-tablet-gradient-1"><stop offset="0%" stop-color="#ffe0af" stop-opacity="1"></stop><stop offset="100%" stop-color="#faf5ed" stop-opacity="1"></stop></linearGradient><radialGradient id="delapouite-wax-tablet-gradient-2"><stop offset="0%" stop-color="#f8e71c" stop-opacity="1"></stop><stop offset="100%" stop-color="#f5a623" stop-opacity="1"></stop></radialGradient><linearGradient x1="0" x2="1" y1="0" y2="1" id="delapouite-wax-tablet-gradient-3"><stop offset="0%" stop-color="#fc88fc" stop-opacity="1"></stop><stop offset="100%" stop-color="#bd10e0" stop-opacity="1"></stop></linearGradient><linearGradient x1="0" x2="1" y1="0" y2="1" id="delapouite-wax-tablet-gradient-4"><stop offset="0%" stop-color="#fc88fc" stop-opacity="1"></stop><stop offset="100%" stop-color="#bd10e0" stop-opacity="1"></stop></linearGradient><linearGradient x1="0" x2="0" y1="0" y2="1" id="delapouite-wax-tablet-gradient-6"><stop offset="0%" stop-color="#e72b42" stop-opacity="1"></stop><stop offset="100%" stop-color="#d0021b" stop-opacity="1"></stop></linearGradient><linearGradient x1="0" x2="1" y1="1" y2="0" id="delapouite-wax-tablet-gradient-7"><stop offset="0%" stop-color="#b57204" stop-opacity="1"></stop><stop offset="100%" stop-color="#8b572a" stop-opacity="1"></stop></linearGradient></defs><g class="" transform="translate(0,0)" style=""><path d="M436.992 30.271l-94.19 3.489-35.874 39.347-23.596-34.214-187.894.859-5.778 252.535 52.742 48.498 114.059 1.383-.219 17.996-94.004-1.139 13.25 12.184 160.268 16.852 54.121-3.733 1.238 17.955-45.183 3.117-2.606 25.493 94.756 24.796-.512-200.06-28.111-12.621 28.004-29.17-.47-183.567zM280.85 96.351l.166 17.997-152.407 1.406-.166-17.998 152.407-1.404zm120.046 0l.27 17.997-94.113 1.404-.268-17.996 94.111-1.404zm-2.91 38.631l.473 17.993-53.377 1.404-.475-17.992 53.38-1.405zm-77.822.7l.2 17.998-191.036 2.105-.2-17.996 191.036-2.107zm-188.678 41.44l42.139.7-.299 17.996-42.14-.703.3-17.994zm262.317 0l.41 17.993-153.81 3.512-.41-17.994 153.81-3.512zm-198.555 2.105h21.773v17.998h-21.773v-17.998zm86.305 37.222l.164 17.998-153.81 1.405-.165-17.997 153.81-1.406zm24.664 0h89.898v17.998h-89.898V216.45zm-44.854 44.95l132.74 1.406-.19 17.996-132.741-1.405.191-17.998zm-133.539.703H243.71V280.1H127.824v-17.998zm32.81 40.736l.4 17.994-31.604.703-.4-17.994 31.605-.703zm233.735.006l.684 17.984-55.485 2.108-.683-17.987 55.484-2.105zm-68.53 2.802l.085 17.999-151.703.7-.084-17.997 151.703-.702zm-234.083 13.02l-.35 21.574 64.11 57.606 5.1-15.864-68.86-63.316zm302.139 24.906l.228 17.996-110.266 1.407-.23-17.998 110.268-1.405zM177.11 389.477l-5.195 16.162 154.508 13.613 1.424-13.926-150.737-15.85zm158.977 58.127l-4.574 15.039 106.638 26.703c.27-5.17.572-10.058.877-14.805l-102.941-26.937z" fill="url(#delapouite-wax-tablet-gradient-1)" stroke="#000000" stroke-opacity="1" stroke-width="2"></path></g></svg>