<svg xmlns="http://www.w3.org/2000/svg" viewBox="0 0 512 512" style="height: 512px; width: 512px;"><defs><radialGradient id="lorc-crown-gradient-2"><stop offset="0%" stop-color="#f8e71c" stop-opacity="1"></stop><stop offset="100%" stop-color="#f5a623" stop-opacity="1"></stop></radialGradient><radialGradient id="lorc-crown-gradient-3"><stop offset="0%" stop-color="#f8e71c" stop-opacity="1"></stop><stop offset="100%" stop-color="#f5a623" stop-opacity="1"></stop></radialGradient><radialGradient id="lorc-crown-gradient-4"><stop offset="0%" stop-color="#f8e71c" stop-opacity="1"></stop><stop offset="100%" stop-color="#f5a623" stop-opacity="1"></stop></radialGradient><radialGradient id="lorc-crown-gradient-5"><stop offset="0%" stop-color="#f8e71c" stop-opacity="1"></stop><stop offset="100%" stop-color="#f5a623" stop-opacity="1"></stop></radialGradient><radialGradient id="lorc-crown-gradient-6"><stop offset="0%" stop-color="#fc88fc" stop-opacity="1"></stop><stop offset="100%" stop-color="#9013fe" stop-opacity="1"></stop></radialGradient><radialGradient id="lorc-crown-gradient-7"><stop offset="0%" stop-color="#fc88fc" stop-opacity="1"></stop><stop offset="100%" stop-color="#9013fe" stop-opacity="1"></stop></radialGradient><radialGradient id="lorc-crown-gradient-8"><stop offset="0%" stop-color="#8b572a" stop-opacity="1"></stop><stop offset="100%" stop-color="#ffe0af" stop-opacity="1"></stop></radialGradient><radialGradient id="lorc-crown-gradient-9"><stop offset="0%" stop-color="#8b572a" stop-opacity="1"></stop><stop offset="100%" stop-color="#ffe0af" stop-opacity="1"></stop></radialGradient><radialGradient id="lorc-crown-gradient-10"><stop offset="0%" stop-color="#fc88fc" stop-opacity="1"></stop><stop offset="100%" stop-color="#9013fe" stop-opacity="1"></stop></radialGradient><radialGradient id="lorc-crown-gradient-11"><stop offset="0%" stop-color="#fc88fc" stop-opacity="1"></stop><stop offset="100%" stop-color="#9013fe" stop-opacity="1"></stop></radialGradient></defs><g class="" transform="translate(0,0)" style=""><g><path d="M408.256 119.46L370.556 171.625L390.126 216.051L424.926 178.837L408.256 119.462Z" class="" fill="url(#lorc-crown-gradient-2)" stroke="#000000" stroke-opacity="1" stroke-width="2"></path><path d="M494.33 131.973L384.44 249.498L334.01 135.02L258.848 267.967L171.9 136.187L138.566 250.309L17.922 132.83L57.222 260.43C59.167 260.082 61.162 259.89 63.202 259.89C82.014 259.89 97.462 275.342 97.462 294.152C97.462 307.975 89.116 319.974 77.227 325.372L82.564 342.702C94.989 368.168 154.427 387.854 259.146 389.908C369.951 392.082 437.266 372.368 449 342.701L448.998 342.701L453.355 322.441C436.519 320.327 423.335 305.829 423.335 288.455C423.335 269.645 438.785 254.193 457.598 254.193C461.111 254.193 464.508 254.733 467.708 255.733L494.33 131.971Z" class="" fill="url(#lorc-crown-gradient-3)" stroke="#000000" stroke-opacity="1" stroke-width="2"></path><path d="M102.56 134.013L103.78 190.35L129.34 215.24L138.932 182.398L102.562 134.012Z" class="" fill="url(#lorc-crown-gradient-4)" stroke="#000000" stroke-opacity="1" stroke-width="2"></path><path d="M253.145 136.923L228.662 188.283L257.617 232.168L282.539 188.088L253.144 136.922Z" class="" fill="url(#lorc-crown-gradient-5)" stroke="#000000" stroke-opacity="1" stroke-width="2"></path><path d="M457.598 272.885C448.886 272.885 442.023 279.747 442.023 288.457C442.023 297.167 448.886 304.031 457.598 304.031C466.31 304.031 473.17 297.168 473.17 288.458C473.17 279.748 466.31 272.886 457.598 272.886Z" class="" fill="url(#lorc-crown-gradient-6)" stroke="#000000" stroke-opacity="1" stroke-width="2"></path><path d="M63.2 278.58C54.49 278.58 47.627 285.444 47.627 294.154C47.627 302.864 54.489 309.727 63.201 309.727C71.914 309.727 78.774 302.865 78.774 294.154C78.774 285.444 71.914 278.58 63.202 278.58Z" class="" fill="url(#lorc-crown-gradient-7)" stroke="#000000" stroke-opacity="1" stroke-width="2"></path><path d="M193.53 296.422C212.342 296.422 227.79 311.872 227.79 330.684C227.79 349.494 212.342 364.944 193.53 364.944C174.717 364.944 159.268 349.494 159.268 330.684C159.268 311.874 174.718 296.422 193.528 296.422Z" class="" fill="url(#lorc-crown-gradient-8)" stroke="#000000" stroke-opacity="1" stroke-width="2"></path><path d="M324.764 296.422C343.576 296.422 359.024 311.872 359.024 330.684C359.024 349.494 343.576 364.944 324.764 364.944C305.951 364.944 290.502 349.494 290.502 330.684C290.502 311.874 305.952 296.422 324.764 296.422Z" class="selected" fill="url(#lorc-crown-gradient-9)" stroke="#000000" stroke-opacity="1" stroke-width="2"></path><path d="M193.529 315.112C184.816 315.112 177.956 321.972 177.956 330.684C177.956 339.394 184.816 346.258 193.528 346.258C202.238 346.258 209.1 339.394 209.1 330.684C209.1 321.974 202.24 315.111 193.527 315.111Z" class="" fill="url(#lorc-crown-gradient-10)" stroke="#000000" stroke-opacity="1" stroke-width="2"></path><path d="M324.763 315.112C316.051 315.112 309.19 321.972 309.19 330.684C309.19 339.394 316.052 346.258 324.764 346.258C333.476 346.258 340.338 339.394 340.338 330.684C340.338 321.974 333.476 315.111 324.764 315.111Z" class="" fill="url(#lorc-crown-gradient-11)" stroke="#000000" stroke-opacity="1" stroke-width="2"></path></g></g></svg>