<svg xmlns="http://www.w3.org/2000/svg" viewBox="0 0 512 512" style="height: 512px; width: 512px;"><defs><linearGradient x1="0" x2="1" y1="0" y2="1" id="delapouite-axe-in-log-gradient-2"><stop offset="0%" stop-color="#8b572a" stop-opacity="1"></stop><stop offset="100%" stop-color="#b57204" stop-opacity="1"></stop></linearGradient><linearGradient x1="0" x2="1" y1="1" y2="0" id="delapouite-axe-in-log-gradient-3"><stop offset="0%" stop-color="#e6e6e6" stop-opacity="1"></stop><stop offset="100%" stop-color="#b8b8b8" stop-opacity="1"></stop></linearGradient><linearGradient x1="0" x2="1" y1="0" y2="1" id="delapouite-axe-in-log-gradient-4"><stop offset="0%" stop-color="#b57204" stop-opacity="1"></stop><stop offset="100%" stop-color="#8b572a" stop-opacity="1"></stop></linearGradient><linearGradient x1="0" x2="0" y1="0" y2="1" id="delapouite-axe-in-log-gradient-5"><stop offset="0%" stop-color="#8b572a" stop-opacity="1"></stop><stop offset="100%" stop-color="#b57204" stop-opacity="1"></stop></linearGradient><linearGradient id="delapouite-axe-in-log-gradient-6"><stop offset="0%" stop-color="#8b572a" stop-opacity="1"></stop><stop offset="100%" stop-color="#b57204" stop-opacity="1"></stop></linearGradient><linearGradient x1="0" x2="1" y1="1" y2="0" id="delapouite-axe-in-log-gradient-7"><stop offset="0%" stop-color="#b57204" stop-opacity="1"></stop><stop offset="100%" stop-color="#8b572a" stop-opacity="1"></stop></linearGradient></defs><g class="" transform="translate(0,0)" style=""><g><path d="M89.17 24.96L67.55 55.98L327.8 237.4L349.5 206.4Z" class="" fill="url(#delapouite-axe-in-log-gradient-2)" stroke="#000000" stroke-opacity="1" stroke-width="2"></path><path d="M381.5 191.8L333.6 260.5L332.4 261.4C295.2 288.2 264.9 294.9 234.5 296.4C237.2 300.9 241 306.3 245.7 311.8C255.2 323 268 335.5 282.5 347C296.4 357.9 311.7 367.7 326.9 374.8L362.3 373.6C359.2 350.1 358.3 322.9 380.3 291.3L427.5 223.7Z" class="selected" fill="url(#delapouite-axe-in-log-gradient-3)" stroke="#000000" stroke-opacity="1" stroke-width="2"></path><path d="M424.8 259L403.2 289.9L425.8 305.7L447.4 274.7Z" class="" fill="url(#delapouite-axe-in-log-gradient-4)" stroke="#000000" stroke-opacity="1" stroke-width="2"></path><path d="M89.11 340.4C84.74 340.4 80.95 341.7 78.71 343.3C76.47 344.9 75.99 346.2 75.99 347.2C75.99 348.2 76.47 349.5 78.71 351.1C80.95 352.7 84.74 354 89.11 354C93.48 354 97.27 352.7 99.51 351.1C101.8 349.5 102.3 348.2 102.3 347.2C102.3 346.2 101.8 344.9 99.51 343.3C97.27 341.7 93.48 340.4 89.11 340.4Z" class="" fill="url(#delapouite-axe-in-log-gradient-5)" stroke="#000000" stroke-opacity="1" stroke-width="2"></path><path d="M74.89 369.3C73.01 376.3 70.28 383.1 66.55 391.2C59.49 391 52.43 390.7 45.36 390.4C31.19 399.6 23.32 412.4 20.16 425.8L58.21 433.9L18.52 441L18.52 442C19.06 460.8 28.45 476.4 38.83 480.5C177.3 489.1 313.7 486.8 449.7 482.4C447.6 477.5 445.8 472.1 444.4 466.2L394.4 457.9C394.4 457.9 427.1 452.4 441.8 449.8C441.5 445.8 441.3 441.7 441.3 437.4C441.3 420.1 444.3 404.5 449.8 392.3C450.5 390.6 451.3 389 452.2 387.5L452.2 386.9C340.7 394.2 228.2 395.7 114.9 392.7C108.9 385.1 105.2 377.6 103 369.5C98.76 371.1 94.06 372 89.11 372C84.04 372 79.22 371.1 74.89 369.3Z" class="" fill="url(#delapouite-axe-in-log-gradient-6)" stroke="#000000" stroke-opacity="1" stroke-width="2"></path><path d="M476.4 387.8C475.5 387.8 474.4 388.1 472.5 390C470.5 391.8 468.2 395.1 466.2 399.6C462.2 408.7 459.3 422.3 459.3 437.4C459.3 439.6 459.4 441.8 459.5 443.9L480.4 425.2L463.3 467C464.2 470 465.1 472.8 466.2 475.2C468.2 479.7 470.5 483 472.5 484.8C474.4 486.7 475.5 487 476.4 487C477.3 487 478.4 486.7 480.3 484.8C482.3 483 484.6 479.7 486.6 475.2C490.6 466.1 493.5 452.5 493.5 437.4C493.5 422.3 490.6 408.7 486.6 399.6C484.6 395.1 482.3 391.8 480.3 390C478.4 388.1 477.3 387.8 476.4 387.8Z" class="" fill="url(#delapouite-axe-in-log-gradient-7)" stroke="#000000" stroke-opacity="1" stroke-width="2"></path></g></g></svg>