<svg xmlns="http://www.w3.org/2000/svg" viewBox="0 0 512 512" style="height: 512px; width: 512px;"><defs><radialGradient id="delapouite-push-gradient-2"><stop offset="0%" stop-color="#d0021b" stop-opacity="1"></stop><stop offset="100%" stop-color="#ff0000" stop-opacity="1"></stop></radialGradient><radialGradient id="delapouite-push-gradient-3"><stop offset="0%" stop-color="#d0021b" stop-opacity="1"></stop><stop offset="100%" stop-color="#ff0000" stop-opacity="1"></stop></radialGradient><linearGradient x1="0" x2="0" y1="0" y2="1" id="delapouite-push-gradient-4"><stop offset="0%" stop-color="#d0021b" stop-opacity="1"></stop><stop offset="100%" stop-color="#ff0000" stop-opacity="1"></stop></linearGradient><radialGradient id="delapouite-push-gradient-5"><stop offset="0%" stop-color="#c9c9c9" stop-opacity="1"></stop><stop offset="100%" stop-color="#9b9b9b" stop-opacity="1"></stop></radialGradient><radialGradient id="delapouite-push-gradient-6"><stop offset="0%" stop-color="#f5a623" stop-opacity="1"></stop><stop offset="100%" stop-color="#f8e71c" stop-opacity="1"></stop></radialGradient><radialGradient id="delapouite-push-gradient-7"><stop offset="0%" stop-color="#fc88fc" stop-opacity="1"></stop><stop offset="100%" stop-color="#9013fe" stop-opacity="1"></stop></radialGradient><radialGradient id="delapouite-push-gradient-8"><stop offset="0%" stop-color="#8b572a" stop-opacity="1"></stop><stop offset="100%" stop-color="#ffe0af" stop-opacity="1"></stop></radialGradient><radialGradient id="delapouite-push-gradient-9"><stop offset="0%" stop-color="#8b572a" stop-opacity="1"></stop><stop offset="100%" stop-color="#ffe0af" stop-opacity="1"></stop></radialGradient><radialGradient id="delapouite-push-gradient-10"><stop offset="0%" stop-color="#fc88fc" stop-opacity="1"></stop><stop offset="100%" stop-color="#9013fe" stop-opacity="1"></stop></radialGradient><radialGradient id="delapouite-push-gradient-11"><stop offset="0%" stop-color="#fc88fc" stop-opacity="1"></stop><stop offset="100%" stop-color="#9013fe" stop-opacity="1"></stop></radialGradient></defs><g class="" transform="translate(0,0)" style=""><g><path d="M224 27.027L238.037 137.567L252.844 34.535L224 27.027Z" class="" fill="url(#delapouite-push-gradient-2)" stroke="#000000" stroke-opacity="1" stroke-width="2"></path><path d="M336.71 48.154L275.13 140.524L363.53 70.006L336.71 48.154Z" class="" fill="url(#delapouite-push-gradient-3)" stroke="#000000" stroke-opacity="1" stroke-width="2"></path><path d="M125.15 69.012L125.15 98.81L202.625 140.525L125.15 69.012Z" class="" fill="url(#delapouite-push-gradient-4)" stroke="#000000" stroke-opacity="1" stroke-width="2"></path><path d="M319 143.088C364.826 255.36 348.206 384 319 493L493 493L493 143.088L319 143.088Z" class="" fill="url(#delapouite-push-gradient-5)" stroke="#000000" stroke-opacity="1" stroke-width="2"></path><path d="M240.402 154.551C239.835 154.545 239.262 154.551 238.684 154.571C226.167 154.984 212.214 161.345 200.791 171.845C185.017 186.372 176.948 206.095 180.624 221.145C135.624 233.495 104.03 283.828 98.984 323.325C95.016 360.491 114.306 384.74 99.542 408.757L40.77 447.54L20.312 457.537L55.33 496.19L71.016 496.19L53.746 464.02L126.652 425.447C141.35 416.847 142.717 401.707 145.932 384.355C162.079 396.231 179.509 407.557 193.492 416.835C187.132 444.52 154.948 469.689 134.98 496.191L212.807 496.191L209.902 490.981C209.902 490.981 170.872 484.168 166.132 483.483C165.982 483.493 165.842 483.488 165.725 483.463C165.398 483.387 165.643 483.413 166.133 483.483C174.276 483.006 231.259 431.537 229.663 418.943C216.165 395.828 195.633 374.108 174.689 352.667C176.534 327.192 176.989 299.933 215.439 277.071L325.483 272.505C324.543 250.13 320.953 212.689 315.133 206.487C305.431 214.027 304.261 237.33 303.505 255.124L224.042 252.841C215.597 252.211 209.099 244.995 202.892 240.019C216.492 241.575 232.912 235.109 246.11 222.995C266.783 203.993 273.396 177.138 260.88 163.013C256.085 157.601 248.91 154.648 240.402 154.553Z" class="selected" fill="url(#delapouite-push-gradient-6)" stroke="#000000" stroke-opacity="1" stroke-width="2"></path></g></g></svg>