<svg xmlns="http://www.w3.org/2000/svg" viewBox="0 0 512 512" style="height: 512px; width: 512px;"><defs><radialGradient id="delapouite-face-to-face-gradient-2"><stop offset="0%" stop-color="#f8e71c" stop-opacity="1"></stop><stop offset="100%" stop-color="#f5a623" stop-opacity="1"></stop></radialGradient><radialGradient id="delapouite-face-to-face-gradient-3"><stop offset="0%" stop-color="#50e3c2" stop-opacity="1"></stop><stop offset="100%" stop-color="#4a90e2" stop-opacity="1"></stop></radialGradient><radialGradient id="delapouite-face-to-face-gradient-4"><stop offset="0%" stop-color="#50e3c2" stop-opacity="1"></stop><stop offset="100%" stop-color="#4a90e2" stop-opacity="1"></stop></radialGradient><radialGradient id="delapouite-face-to-face-gradient-5"><stop offset="0%" stop-color="#f8e71c" stop-opacity="1"></stop><stop offset="100%" stop-color="#f5a623" stop-opacity="1"></stop></radialGradient><radialGradient id="delapouite-face-to-face-gradient-6"><stop offset="0%" stop-color="#50e3c2" stop-opacity="1"></stop><stop offset="100%" stop-color="#4a90e2" stop-opacity="1"></stop></radialGradient><radialGradient id="delapouite-face-to-face-gradient-7"><stop offset="0%" stop-color="#f8e71c" stop-opacity="1"></stop><stop offset="100%" stop-color="#f5a623" stop-opacity="1"></stop></radialGradient><radialGradient id="delapouite-face-to-face-gradient-8"><stop offset="0%" stop-color="#b57204" stop-opacity="1"></stop><stop offset="100%" stop-color="#8b572a" stop-opacity="1"></stop></radialGradient><radialGradient id="delapouite-face-to-face-gradient-9"><stop offset="0%" stop-color="#b57204" stop-opacity="1"></stop><stop offset="100%" stop-color="#8b572a" stop-opacity="1"></stop></radialGradient><radialGradient id="delapouite-face-to-face-gradient-10"><stop offset="0%" stop-color="#b57204" stop-opacity="1"></stop><stop offset="100%" stop-color="#8b572a" stop-opacity="1"></stop></radialGradient><radialGradient id="delapouite-face-to-face-gradient-11"><stop offset="0%" stop-color="#b57204" stop-opacity="1"></stop><stop offset="100%" stop-color="#8b572a" stop-opacity="1"></stop></radialGradient><radialGradient id="delapouite-face-to-face-gradient-12"><stop offset="0%" stop-color="#ff7b00" stop-opacity="1"></stop><stop offset="100%" stop-color="#b87333" stop-opacity="1"></stop></radialGradient><radialGradient id="delapouite-face-to-face-gradient-13"><stop offset="0%" stop-color="#f8e71c" stop-opacity="1"></stop><stop offset="100%" stop-color="#f5a623" stop-opacity="1"></stop></radialGradient><radialGradient id="delapouite-face-to-face-gradient-14"><stop offset="0%" stop-color="#ff7b00" stop-opacity="1"></stop><stop offset="100%" stop-color="#b87333" stop-opacity="1"></stop></radialGradient><radialGradient id="delapouite-face-to-face-gradient-15"><stop offset="0%" stop-color="#ff7b00" stop-opacity="1"></stop><stop offset="100%" stop-color="#b87333" stop-opacity="1"></stop></radialGradient><radialGradient id="delapouite-face-to-face-gradient-16"><stop offset="0%" stop-color="#ff7b00" stop-opacity="1"></stop><stop offset="100%" stop-color="#b87333" stop-opacity="1"></stop></radialGradient><radialGradient id="delapouite-face-to-face-gradient-17"><stop offset="0%" stop-color="#4a4a4a" stop-opacity="1"></stop><stop offset="100%" stop-color="#000000" stop-opacity="1"></stop></radialGradient><radialGradient id="delapouite-face-to-face-gradient-18"><stop offset="0%" stop-color="#4a4a4a" stop-opacity="1"></stop><stop offset="100%" stop-color="#000000" stop-opacity="1"></stop></radialGradient><radialGradient id="delapouite-face-to-face-gradient-19"><stop offset="0%" stop-color="#4a4a4a" stop-opacity="1"></stop><stop offset="100%" stop-color="#000000" stop-opacity="1"></stop></radialGradient></defs><g class="" transform="translate(0,0)" style=""><g><path d="M392 60.48C369.9 60.48 349.9 84.28 349.9 116.1C349.9 148 369.9 171.8 392 171.8C414.1 171.8 434.1 148 434.1 116.1C434.1 84.28 414.1 60.48 392 60.48Z" class="" fill="url(#delapouite-face-to-face-gradient-2)" stroke="#000000" stroke-opacity="1" stroke-width="2"></path><path d="M120.1 60.58C97.96 60.58 77.91 84.38 77.91 116.1C77.91 148 97.96 171.8 120.1 171.8C142.3 171.8 162.3 148 162.3 116.1C162.3 84.38 142.3 60.58 120.1 60.58Z" class="" fill="url(#delapouite-face-to-face-gradient-3)" stroke="#000000" stroke-opacity="1" stroke-width="2"></path><path d="M83.01 176.5C58.01 184.5 30.41 210 23.61 238.4L20.01 318.1C19.91 329.7 33.11 346.9 56.81 341.2C108.8 328.8 135.9 315.2 175.2 299.7L170.3 276.2C135.7 288.4 96.06 304.2 56.01 308.1L57.11 228.2L75.11 228.4L74.41 286.5C101.2 281.6 137.9 268.5 166.6 258.5L160.3 227.9L177.9 224.3C185.1 259.1 190.8 286.5 198 322.2C188.7 321.4 181.4 320.8 172.3 320.2C154.9 327.3 139.2 334.1 121.6 340.7C143.7 345 165.2 348.7 182.6 349.1C197.5 349.4 208.7 346.8 214.2 342.3C219.7 337.8 222.5 331 219.3 315.1C212.6 282 207.6 249.8 198.4 225C189.2 200 176.9 183.5 154.4 176.8C144.9 185 133.1 189.8 120.1 189.8C105.7 189.6 97.26 185.3 83.01 176.5Z" class="" fill="url(#delapouite-face-to-face-gradient-4)" stroke="#000000" stroke-opacity="1" stroke-width="2"></path><path d="M429 176.5C414.8 185.3 406.4 189.6 392 189.8C379.1 189.8 367.3 185 357.8 176.8C335.3 183.5 323 200 313.8 225C304.6 249.8 299.6 282 292.9 315.1C289.7 331 292.5 337.8 298 342.3C303.5 346.8 314.7 349.4 329.6 349.1C347 348.7 368.5 345 390.6 340.7C373 334.1 357.3 327.3 339.9 320.2C330.8 320.8 323.5 321.4 314.2 322.2C321.4 286.5 327.1 259.1 334.3 224.3L351.9 227.9L345.6 258.5C374.3 268.6 410.9 281.7 437.6 286.6L436.9 228.5L454.9 228.3L456 308.2C416 304.3 376.5 288.5 341.9 276.3L337 299.8C376.3 315.3 403.3 328.9 455.2 341.3C478.9 347 492.1 329.8 492 318.2L488.4 238.5C481.6 210 454 184.5 429 176.5Z" class="" fill="url(#delapouite-face-to-face-gradient-5)" stroke="#000000" stroke-opacity="1" stroke-width="2"></path><path d="M86.96 351.9C76.41 355 64.01 358.7 52.31 360.2L54.81 451.5L169.5 451.5L172 366.5C145.6 364.5 115 357.6 86.96 351.9Z" class="" fill="url(#delapouite-face-to-face-gradient-6)" stroke="#000000" stroke-opacity="1" stroke-width="2"></path><path d="M425.1 351.9C397.1 357.6 366.6 364.5 340.2 366.5L342.7 451.5L457.2 451.5L459.7 360.2C448 358.7 435.6 355 425.1 351.9Z" class="selected" fill="url(#delapouite-face-to-face-gradient-7)" stroke="#000000" stroke-opacity="1" stroke-width="2"></path></g></g></svg>