<svg xmlns="http://www.w3.org/2000/svg" viewBox="0 0 512 512" style="height: 512px; width: 512px;"><defs><linearGradient x1="0" x2="1" y1="0" y2="1" id="delapouite-fruit-tree-gradient-1"><stop offset="0%" stop-color="#d0021b" stop-opacity="1"></stop><stop offset="100%" stop-color="#fa95a1" stop-opacity="1"></stop></linearGradient><radialGradient id="delapouite-fruit-tree-gradient-2"><stop offset="0%" stop-color="#889b1f" stop-opacity="1"></stop><stop offset="100%" stop-color="#71c930" stop-opacity="1"></stop></radialGradient><linearGradient x1="0" x2="1" y1="1" y2="0" id="delapouite-fruit-tree-gradient-3"><stop offset="0%" stop-color="#f5a623" stop-opacity="1"></stop><stop offset="100%" stop-color="#b57204" stop-opacity="1"></stop></linearGradient><radialGradient id="delapouite-fruit-tree-gradient-4"><stop offset="0%" stop-color="#e6001b" stop-opacity="1"></stop><stop offset="100%" stop-color="#c4d321" stop-opacity="1"></stop></radialGradient><radialGradient id="delapouite-fruit-tree-gradient-5"><stop offset="0%" stop-color="#e6001b" stop-opacity="1"></stop><stop offset="100%" stop-color="#79a104" stop-opacity="1"></stop></radialGradient><radialGradient id="delapouite-fruit-tree-gradient-6"><stop offset="0%" stop-color="#e6001b" stop-opacity="1"></stop><stop offset="100%" stop-color="#73a104" stop-opacity="1"></stop></radialGradient><linearGradient x1="0" x2="1" y1="0" y2="1" id="delapouite-fruit-tree-gradient-7"><stop offset="0%" stop-color="#e6001b" stop-opacity="1"></stop><stop offset="100%" stop-color="#b8f81c" stop-opacity="1"></stop></linearGradient><linearGradient x1="0" x2="1" y1="0" y2="1" id="delapouite-fruit-tree-gradient-8"><stop offset="0%" stop-color="#e6001b" stop-opacity="1"></stop><stop offset="100%" stop-color="#a1f81c" stop-opacity="1"></stop></linearGradient><linearGradient x1="0" x2="0" y1="0" y2="1" id="delapouite-fruit-tree-gradient-9"><stop offset="0%" stop-color="#e6001b" stop-opacity="1"></stop><stop offset="100%" stop-color="#fa4da1" stop-opacity="1"></stop></linearGradient><linearGradient x1="0" x2="1" y1="0" y2="1" id="delapouite-fruit-tree-gradient-10"><stop offset="0%" stop-color="#e6001b" stop-opacity="1"></stop><stop offset="100%" stop-color="#fa4da1" stop-opacity="1"></stop></linearGradient><linearGradient x1="0" x2="1" y1="0" y2="1" id="delapouite-fruit-tree-gradient-11"><stop offset="0%" stop-color="#e6001b" stop-opacity="1"></stop><stop offset="100%" stop-color="#d0021b" stop-opacity="1"></stop></linearGradient><linearGradient x1="0" x2="0" y1="0" y2="1" id="delapouite-fruit-tree-gradient-12"><stop offset="0%" stop-color="#e6001b" stop-opacity="1"></stop><stop offset="100%" stop-color="#d0021b" stop-opacity="1"></stop></linearGradient><linearGradient x1="0" x2="0" y1="0" y2="1" id="delapouite-fruit-tree-gradient-13"><stop offset="0%" stop-color="#d0021b" stop-opacity="1"></stop><stop offset="100%" stop-color="#7ed321" stop-opacity="1"></stop></linearGradient><linearGradient id="delapouite-fruit-tree-gradient-14"><stop offset="0%" stop-color="#d0021b" stop-opacity="1"></stop><stop offset="100%" stop-color="#fa4da1" stop-opacity="1"></stop></linearGradient><radialGradient id="delapouite-fruit-tree-gradient-15"><stop offset="0%" stop-color="#d0021b" stop-opacity="1"></stop><stop offset="100%" stop-color="#e6001b" stop-opacity="1"></stop></radialGradient><linearGradient x1="0" x2="1" y1="1" y2="0" id="delapouite-fruit-tree-gradient-16"><stop offset="0%" stop-color="#f8e71c" stop-opacity="1"></stop><stop offset="100%" stop-color="#d0021b" stop-opacity="1"></stop></linearGradient><linearGradient x1="0" x2="0" y1="0" y2="1" id="delapouite-fruit-tree-gradient-17"><stop offset="0%" stop-color="#d0021b" stop-opacity="1"></stop><stop offset="100%" stop-color="#f5a623" stop-opacity="1"></stop></linearGradient><linearGradient id="delapouite-fruit-tree-gradient-18"><stop offset="0%" stop-color="#d0021b" stop-opacity="1"></stop><stop offset="100%" stop-color="#f5a623" stop-opacity="1"></stop></linearGradient><linearGradient x1="0" x2="1" y1="0" y2="1" id="delapouite-fruit-tree-gradient-19"><stop offset="0%" stop-color="#d0021b" stop-opacity="1"></stop><stop offset="100%" stop-color="#fa4da1" stop-opacity="1"></stop></linearGradient><radialGradient id="delapouite-fruit-tree-gradient-20"><stop offset="0%" stop-color="#8b572a" stop-opacity="1"></stop><stop offset="100%" stop-color="#b57204" stop-opacity="1"></stop></radialGradient><radialGradient id="delapouite-fruit-tree-gradient-21"><stop offset="0%" stop-color="#f8e71c" stop-opacity="1"></stop><stop offset="100%" stop-color="#f5a623" stop-opacity="1"></stop></radialGradient><radialGradient id="delapouite-fruit-tree-gradient-22"><stop offset="0%" stop-color="#f8e71c" stop-opacity="1"></stop><stop offset="100%" stop-color="#f5a623" stop-opacity="1"></stop></radialGradient><radialGradient id="delapouite-fruit-tree-gradient-23"><stop offset="0%" stop-color="#f8e71c" stop-opacity="1"></stop><stop offset="100%" stop-color="#f5a623" stop-opacity="1"></stop></radialGradient><radialGradient id="delapouite-fruit-tree-gradient-24"><stop offset="0%" stop-color="#f8e71c" stop-opacity="1"></stop><stop offset="100%" stop-color="#f5a623" stop-opacity="1"></stop></radialGradient><radialGradient id="delapouite-fruit-tree-gradient-25"><stop offset="0%" stop-color="#8b7500" stop-opacity="1"></stop><stop offset="100%" stop-color="#c4a504" stop-opacity="1"></stop></radialGradient><radialGradient id="delapouite-fruit-tree-gradient-26"><stop offset="0%" stop-color="#8b7500" stop-opacity="1"></stop><stop offset="100%" stop-color="#c4a504" stop-opacity="1"></stop></radialGradient><radialGradient id="delapouite-fruit-tree-gradient-27"><stop offset="0%" stop-color="#f8e71c" stop-opacity="1"></stop><stop offset="100%" stop-color="#f5a623" stop-opacity="1"></stop></radialGradient><radialGradient id="delapouite-fruit-tree-gradient-28"><stop offset="0%" stop-color="#f8e71c" stop-opacity="1"></stop><stop offset="100%" stop-color="#f5a623" stop-opacity="1"></stop></radialGradient><radialGradient id="delapouite-fruit-tree-gradient-29"><stop offset="0%" stop-color="#f8e71c" stop-opacity="1"></stop><stop offset="100%" stop-color="#f5a623" stop-opacity="1"></stop></radialGradient><radialGradient id="delapouite-fruit-tree-gradient-30"><stop offset="0%" stop-color="#f8e71c" stop-opacity="1"></stop><stop offset="100%" stop-color="#f5a623" stop-opacity="1"></stop></radialGradient><radialGradient id="delapouite-fruit-tree-gradient-31"><stop offset="0%" stop-color="#8b7500" stop-opacity="1"></stop><stop offset="100%" stop-color="#c4a504" stop-opacity="1"></stop></radialGradient><radialGradient id="delapouite-fruit-tree-gradient-32"><stop offset="0%" stop-color="#f8e71c" stop-opacity="1"></stop><stop offset="100%" stop-color="#f5a623" stop-opacity="1"></stop></radialGradient><radialGradient id="delapouite-fruit-tree-gradient-33"><stop offset="0%" stop-color="#8b7500" stop-opacity="1"></stop><stop offset="100%" stop-color="#c4a504" stop-opacity="1"></stop></radialGradient><radialGradient id="delapouite-fruit-tree-gradient-34"><stop offset="0%" stop-color="#f8e71c" stop-opacity="1"></stop><stop offset="100%" stop-color="#f5a623" stop-opacity="1"></stop></radialGradient><radialGradient id="delapouite-fruit-tree-gradient-35"><stop offset="0%" stop-color="#f8e71c" stop-opacity="1"></stop><stop offset="100%" stop-color="#f5a623" stop-opacity="1"></stop></radialGradient><radialGradient id="delapouite-fruit-tree-gradient-36"><stop offset="0%" stop-color="#f8e71c" stop-opacity="1"></stop><stop offset="100%" stop-color="#f5a623" stop-opacity="1"></stop></radialGradient><radialGradient id="delapouite-fruit-tree-gradient-37"><stop offset="0%" stop-color="#f8e71c" stop-opacity="1"></stop><stop offset="100%" stop-color="#f5a623" stop-opacity="1"></stop></radialGradient><linearGradient x1="0" x2="1" y1="0" y2="1" id="delapouite-fruit-tree-gradient-38"><stop offset="0%" stop-color="#8b7500" stop-opacity="1"></stop><stop offset="100%" stop-color="#c4a504" stop-opacity="1"></stop></linearGradient><linearGradient x1="0" x2="1" y1="0" y2="1" id="delapouite-fruit-tree-gradient-39"><stop offset="0%" stop-color="#8b7500" stop-opacity="1"></stop><stop offset="100%" stop-color="#c4a504" stop-opacity="1"></stop></linearGradient><linearGradient x1="0" x2="1" y1="0" y2="1" id="delapouite-fruit-tree-gradient-40"><stop offset="0%" stop-color="#8b7500" stop-opacity="1"></stop><stop offset="100%" stop-color="#c4a504" stop-opacity="1"></stop></linearGradient><linearGradient x1="0" x2="1" y1="0" y2="1" id="delapouite-fruit-tree-gradient-41"><stop offset="0%" stop-color="#8b7500" stop-opacity="1"></stop><stop offset="100%" stop-color="#c4a504" stop-opacity="1"></stop></linearGradient><linearGradient x1="0" x2="1" y1="0" y2="1" id="delapouite-fruit-tree-gradient-42"><stop offset="0%" stop-color="#8b7500" stop-opacity="1"></stop><stop offset="100%" stop-color="#c4a504" stop-opacity="1"></stop></linearGradient><linearGradient x1="0" x2="1" y1="0" y2="1" id="delapouite-fruit-tree-gradient-43"><stop offset="0%" stop-color="#8b7500" stop-opacity="1"></stop><stop offset="100%" stop-color="#c4a504" stop-opacity="1"></stop></linearGradient><linearGradient x1="0" x2="1" y1="0" y2="1" id="delapouite-fruit-tree-gradient-44"><stop offset="0%" stop-color="#8b7500" stop-opacity="1"></stop><stop offset="100%" stop-color="#c4a504" stop-opacity="1"></stop></linearGradient><linearGradient x1="0" x2="1" y1="0" y2="1" id="delapouite-fruit-tree-gradient-45"><stop offset="0%" stop-color="#8b7500" stop-opacity="1"></stop><stop offset="100%" stop-color="#c4a504" stop-opacity="1"></stop></linearGradient><linearGradient x1="0" x2="1" y1="0" y2="1" id="delapouite-fruit-tree-gradient-46"><stop offset="0%" stop-color="#8b7500" stop-opacity="1"></stop><stop offset="100%" stop-color="#c4a504" stop-opacity="1"></stop></linearGradient></defs><g class="" transform="translate(0,0)" style=""><g><path d="M217.537 82.248C134.057 17.114 60.611 76.822 73.287 133.01C35.081 149.68 21.919 184.77 43.902 214.965C10.222 239.425 31.746 264.697 58.758 275.918C1.6 332.255 70.709 373.023 117.7 338.574C144.545 343.677 193.188 336.9 199.524 317.361C216.358 316.344 232.056 305.752 242.847 297.766C249.741 309.464 260.752 320.256 272.237 323.537C290.289 325.081 295.753 320.917 306.224 310.205C326.944 329.837 378.945 328.877 402.972 322.752C502.512 386.845 511.733 247.086 449.577 220.91C473.252 186.591 453.897 135.197 424.335 110.445C447.585 60.349 391.475 45.429 363.616 49.609C311.064 2.958 240.722 47.712 217.536 82.248Z" class="" fill="url(#delapouite-fruit-tree-gradient-2)" stroke="#000000" stroke-opacity="1" stroke-width="2"></path><path d="M317.893 49.953C326.729 49.953 333.893 57.117 333.893 65.953C333.893 74.79 326.729 81.953 317.893 81.953C309.056 81.953 301.893 74.79 301.893 65.953C301.893 57.117 309.056 49.953 317.893 49.953Z" class="" fill="url(#delapouite-fruit-tree-gradient-3)" stroke="#000000" stroke-opacity="1" stroke-width="2"></path><path d="M394.381 77.191C403.217 77.191 410.381 84.355 410.381 93.191C410.381 102.028 403.217 109.191 394.381 109.191C385.544 109.191 378.381 102.028 378.381 93.191C378.381 84.355 385.544 77.191 394.381 77.191Z" class="" fill="url(#delapouite-fruit-tree-gradient-4)" stroke="#000000" stroke-opacity="1" stroke-width="2"></path><path d="M144 80C152.837 80 160 87.163 160 96C160 104.837 152.837 112 144 112C135.163 112 128 104.837 128 96C128 87.163 135.163 80 144 80Z" class="" fill="url(#delapouite-fruit-tree-gradient-5)" stroke="#000000" stroke-opacity="1" stroke-width="2"></path><path d="M326.781 108.334C335.618 108.334 342.781 115.497 342.781 124.334C342.781 133.171 335.618 140.334 326.781 140.334C317.945 140.334 310.781 133.171 310.781 124.334C310.781 115.497 317.945 108.334 326.781 108.334Z" class="" fill="url(#delapouite-fruit-tree-gradient-6)" stroke="#000000" stroke-opacity="1" stroke-width="2"></path><path d="M208 112C216.837 112 224 119.163 224 128C224 136.837 216.837 144 208 144C199.163 144 192 136.837 192 128C192 119.163 199.163 112 208 112Z" class="" fill="url(#delapouite-fruit-tree-gradient-7)" stroke="#000000" stroke-opacity="1" stroke-width="2"></path><path d="M264.273 139.523C273.11 139.523 280.273 146.687 280.273 155.523C280.273 164.36 273.11 171.523 264.273 171.523C255.437 171.523 248.273 164.36 248.273 155.523C248.273 146.687 255.437 139.523 264.273 139.523Z" class="" fill="url(#delapouite-fruit-tree-gradient-8)" stroke="#000000" stroke-opacity="1" stroke-width="2"></path><path d="M400 144C408.837 144 416 151.163 416 160C416 168.837 408.837 176 400 176C391.163 176 384 168.837 384 160C384 151.163 391.163 144 400 144Z" class="" fill="url(#delapouite-fruit-tree-gradient-9)" stroke="#000000" stroke-opacity="1" stroke-width="2"></path><path d="M101.512 170.38C110.348 170.38 117.512 177.544 117.512 186.38C117.512 195.217 110.348 202.38 101.512 202.38C92.675 202.38 85.512 195.217 85.512 186.38C85.512 177.544 92.675 170.38 101.512 170.38Z" class="" fill="url(#delapouite-fruit-tree-gradient-10)" stroke="#000000" stroke-opacity="1" stroke-width="2"></path><path d="M302.99 195.666C311.827 195.666 318.99 202.829 318.99 211.666C318.99 220.503 311.827 227.666 302.99 227.666C294.154 227.666 286.99 220.503 286.99 211.666C286.99 202.829 294.154 195.666 302.99 195.666Z" class="" fill="url(#delapouite-fruit-tree-gradient-11)" stroke="#000000" stroke-opacity="1" stroke-width="2"></path><path d="M220.107 214.32C228.944 214.32 236.107 221.484 236.107 230.32C236.107 239.157 228.944 246.32 220.107 246.32C211.271 246.32 204.107 239.157 204.107 230.32C204.107 221.484 211.271 214.32 220.107 214.32Z" class="" fill="url(#delapouite-fruit-tree-gradient-12)" stroke="#000000" stroke-opacity="1" stroke-width="2"></path><path d="M388 208C396.837 208 404 215.163 404 224C404 232.837 396.837 240 388 240C379.163 240 372 232.837 372 224C372 215.163 379.163 208 388 208Z" class="selected" fill="url(#delapouite-fruit-tree-gradient-13)" stroke="#000000" stroke-opacity="1" stroke-width="2"></path><path d="M81.518 218.578C90.354 218.578 97.518 225.742 97.518 234.578C97.518 243.415 90.354 250.578 81.518 250.578C72.681 250.578 65.518 243.415 65.518 234.578C65.518 225.742 72.681 218.578 81.518 218.578Z" class="" fill="url(#delapouite-fruit-tree-gradient-14)" stroke="#000000" stroke-opacity="1" stroke-width="2"></path><path d="M160 256C168.837 256 176 263.163 176 272C176 280.837 168.837 288 160 288C151.163 288 144 280.837 144 272C144 263.163 151.163 256 160 256Z" class="" fill="url(#delapouite-fruit-tree-gradient-15)" stroke="#000000" stroke-opacity="1" stroke-width="2"></path><path d="M375.666 265.832C384.503 265.832 391.666 272.995 391.666 281.832C391.666 290.669 384.503 297.832 375.666 297.832C366.829 297.832 359.666 290.669 359.666 281.832C359.666 272.995 366.829 265.832 375.666 265.832Z" class="" fill="url(#delapouite-fruit-tree-gradient-16)" stroke="#000000" stroke-opacity="1" stroke-width="2"></path><path d="M288 272C296.837 272 304 279.163 304 288C304 296.837 296.837 304 288 304C279.163 304 272 296.837 272 288C272 279.163 279.163 272 288 272Z" class="" fill="url(#delapouite-fruit-tree-gradient-17)" stroke="#000000" stroke-opacity="1" stroke-width="2"></path><path d="M451.145 283.62C459.981 283.62 467.145 290.783 467.145 299.62C467.145 308.456 459.981 315.62 451.145 315.62C442.308 315.62 435.145 308.456 435.145 299.62C435.145 290.783 442.308 283.62 451.145 283.62Z" class="" fill="url(#delapouite-fruit-tree-gradient-18)" stroke="#000000" stroke-opacity="1" stroke-width="2"></path><path d="M69.477 302.51C78.313 302.51 85.477 309.673 85.477 318.51C85.477 327.346 78.313 334.51 69.477 334.51C60.64 334.51 53.477 327.346 53.477 318.51C53.477 309.673 60.64 302.51 69.477 302.51Z" class="" fill="url(#delapouite-fruit-tree-gradient-19)" stroke="#000000" stroke-opacity="1" stroke-width="2"></path><path d="M238.609 322.875C235.705 324.751 232.701 326.468 229.611 328.02C232.838 373.343 237.415 422.745 225.341 469.599C181.627 479.376 163.325 480.91 129.22 495.409L384.486 495.104C357.871 480.349 328.848 474.752 283.201 467.853C271.768 428.208 273.162 383.281 276.611 342.396C262.158 341.202 247.255 332.322 238.609 322.875Z" class="" fill="url(#delapouite-fruit-tree-gradient-20)" stroke="#000000" stroke-opacity="1" stroke-width="2"></path></g></g></svg>