<svg xmlns="http://www.w3.org/2000/svg" viewBox="0 0 512 512" style="height: 512px; width: 512px;"><defs><linearGradient x1="0" x2="1" y1="0" y2="1" id="caro-asercion-willow-tree-gradient-1"><stop offset="0%" stop-color="#d0021b" stop-opacity="1"></stop><stop offset="100%" stop-color="#fa95a1" stop-opacity="1"></stop></linearGradient><linearGradient x1="0" x2="0" y1="0" y2="1" id="caro-asercion-willow-tree-gradient-2"><stop offset="0%" stop-color="#4ae2ad" stop-opacity="1"></stop><stop offset="100%" stop-color="#56927b" stop-opacity="1"></stop></linearGradient><linearGradient x1="0" x2="0" y1="0" y2="1" id="caro-asercion-willow-tree-gradient-3"><stop offset="0%" stop-color="#4ae2ad" stop-opacity="1"></stop><stop offset="100%" stop-color="#56927b" stop-opacity="1"></stop></linearGradient><linearGradient x1="0" x2="1" y1="0" y2="1" id="caro-asercion-willow-tree-gradient-4"><stop offset="0%" stop-color="#4ae2ad" stop-opacity="1"></stop><stop offset="100%" stop-color="#56927b" stop-opacity="1"></stop></linearGradient><linearGradient x1="0" x2="1" y1="1" y2="0" id="caro-asercion-willow-tree-gradient-5"><stop offset="0%" stop-color="#4ae2ad" stop-opacity="1"></stop><stop offset="100%" stop-color="#56927b" stop-opacity="1"></stop></linearGradient><linearGradient x1="0" x2="1" y1="0" y2="1" id="caro-asercion-willow-tree-gradient-6"><stop offset="0%" stop-color="#4ae2ad" stop-opacity="1"></stop><stop offset="100%" stop-color="#56927b" stop-opacity="1"></stop></linearGradient><linearGradient x1="0" x2="0" y1="0" y2="1" id="caro-asercion-willow-tree-gradient-7"><stop offset="0%" stop-color="#417505" stop-opacity="1"></stop><stop offset="100%" stop-color="#607505" stop-opacity="1"></stop></linearGradient><linearGradient x1="0" x2="1" y1="0" y2="1" id="caro-asercion-willow-tree-gradient-8"><stop offset="0%" stop-color="#4ae2ad" stop-opacity="1"></stop><stop offset="100%" stop-color="#56927b" stop-opacity="1"></stop></linearGradient><linearGradient x1="0" x2="0" y1="0" y2="1" id="caro-asercion-willow-tree-gradient-9"><stop offset="0%" stop-color="#687505" stop-opacity="1"></stop><stop offset="100%" stop-color="#626b01" stop-opacity="1"></stop></linearGradient><linearGradient x1="0" x2="1" y1="0" y2="1" id="caro-asercion-willow-tree-gradient-10"><stop offset="0%" stop-color="#4a4a4a" stop-opacity="1"></stop><stop offset="100%" stop-color="#000000" stop-opacity="1"></stop></linearGradient><linearGradient x1="0" x2="1" y1="0" y2="1" id="caro-asercion-willow-tree-gradient-11"><stop offset="0%" stop-color="#4a4a4a" stop-opacity="1"></stop><stop offset="100%" stop-color="#000000" stop-opacity="1"></stop></linearGradient><linearGradient x1="0" x2="0" y1="0" y2="1" id="caro-asercion-willow-tree-gradient-12"><stop offset="0%" stop-color="#e6001b" stop-opacity="1"></stop><stop offset="100%" stop-color="#d0021b" stop-opacity="1"></stop></linearGradient><linearGradient x1="0" x2="0" y1="0" y2="1" id="caro-asercion-willow-tree-gradient-13"><stop offset="0%" stop-color="#d0021b" stop-opacity="1"></stop><stop offset="100%" stop-color="#7ed321" stop-opacity="1"></stop></linearGradient><linearGradient id="caro-asercion-willow-tree-gradient-14"><stop offset="0%" stop-color="#d0021b" stop-opacity="1"></stop><stop offset="100%" stop-color="#fa4da1" stop-opacity="1"></stop></linearGradient><radialGradient id="caro-asercion-willow-tree-gradient-15"><stop offset="0%" stop-color="#d0021b" stop-opacity="1"></stop><stop offset="100%" stop-color="#e6001b" stop-opacity="1"></stop></radialGradient><linearGradient x1="0" x2="1" y1="1" y2="0" id="caro-asercion-willow-tree-gradient-16"><stop offset="0%" stop-color="#f8e71c" stop-opacity="1"></stop><stop offset="100%" stop-color="#d0021b" stop-opacity="1"></stop></linearGradient><linearGradient x1="0" x2="0" y1="0" y2="1" id="caro-asercion-willow-tree-gradient-17"><stop offset="0%" stop-color="#d0021b" stop-opacity="1"></stop><stop offset="100%" stop-color="#f5a623" stop-opacity="1"></stop></linearGradient><linearGradient id="caro-asercion-willow-tree-gradient-18"><stop offset="0%" stop-color="#d0021b" stop-opacity="1"></stop><stop offset="100%" stop-color="#f5a623" stop-opacity="1"></stop></linearGradient><linearGradient x1="0" x2="1" y1="0" y2="1" id="caro-asercion-willow-tree-gradient-19"><stop offset="0%" stop-color="#d0021b" stop-opacity="1"></stop><stop offset="100%" stop-color="#fa4da1" stop-opacity="1"></stop></linearGradient><radialGradient id="caro-asercion-willow-tree-gradient-20"><stop offset="0%" stop-color="#8b572a" stop-opacity="1"></stop><stop offset="100%" stop-color="#b57204" stop-opacity="1"></stop></radialGradient><radialGradient id="caro-asercion-willow-tree-gradient-21"><stop offset="0%" stop-color="#f8e71c" stop-opacity="1"></stop><stop offset="100%" stop-color="#f5a623" stop-opacity="1"></stop></radialGradient><radialGradient id="caro-asercion-willow-tree-gradient-22"><stop offset="0%" stop-color="#f8e71c" stop-opacity="1"></stop><stop offset="100%" stop-color="#f5a623" stop-opacity="1"></stop></radialGradient><radialGradient id="caro-asercion-willow-tree-gradient-23"><stop offset="0%" stop-color="#f8e71c" stop-opacity="1"></stop><stop offset="100%" stop-color="#f5a623" stop-opacity="1"></stop></radialGradient><radialGradient id="caro-asercion-willow-tree-gradient-24"><stop offset="0%" stop-color="#f8e71c" stop-opacity="1"></stop><stop offset="100%" stop-color="#f5a623" stop-opacity="1"></stop></radialGradient><radialGradient id="caro-asercion-willow-tree-gradient-25"><stop offset="0%" stop-color="#8b7500" stop-opacity="1"></stop><stop offset="100%" stop-color="#c4a504" stop-opacity="1"></stop></radialGradient><radialGradient id="caro-asercion-willow-tree-gradient-26"><stop offset="0%" stop-color="#8b7500" stop-opacity="1"></stop><stop offset="100%" stop-color="#c4a504" stop-opacity="1"></stop></radialGradient><radialGradient id="caro-asercion-willow-tree-gradient-27"><stop offset="0%" stop-color="#f8e71c" stop-opacity="1"></stop><stop offset="100%" stop-color="#f5a623" stop-opacity="1"></stop></radialGradient><radialGradient id="caro-asercion-willow-tree-gradient-28"><stop offset="0%" stop-color="#f8e71c" stop-opacity="1"></stop><stop offset="100%" stop-color="#f5a623" stop-opacity="1"></stop></radialGradient><radialGradient id="caro-asercion-willow-tree-gradient-29"><stop offset="0%" stop-color="#f8e71c" stop-opacity="1"></stop><stop offset="100%" stop-color="#f5a623" stop-opacity="1"></stop></radialGradient><radialGradient id="caro-asercion-willow-tree-gradient-30"><stop offset="0%" stop-color="#f8e71c" stop-opacity="1"></stop><stop offset="100%" stop-color="#f5a623" stop-opacity="1"></stop></radialGradient><radialGradient id="caro-asercion-willow-tree-gradient-31"><stop offset="0%" stop-color="#8b7500" stop-opacity="1"></stop><stop offset="100%" stop-color="#c4a504" stop-opacity="1"></stop></radialGradient><radialGradient id="caro-asercion-willow-tree-gradient-32"><stop offset="0%" stop-color="#f8e71c" stop-opacity="1"></stop><stop offset="100%" stop-color="#f5a623" stop-opacity="1"></stop></radialGradient><radialGradient id="caro-asercion-willow-tree-gradient-33"><stop offset="0%" stop-color="#8b7500" stop-opacity="1"></stop><stop offset="100%" stop-color="#c4a504" stop-opacity="1"></stop></radialGradient><radialGradient id="caro-asercion-willow-tree-gradient-34"><stop offset="0%" stop-color="#f8e71c" stop-opacity="1"></stop><stop offset="100%" stop-color="#f5a623" stop-opacity="1"></stop></radialGradient><radialGradient id="caro-asercion-willow-tree-gradient-35"><stop offset="0%" stop-color="#f8e71c" stop-opacity="1"></stop><stop offset="100%" stop-color="#f5a623" stop-opacity="1"></stop></radialGradient><radialGradient id="caro-asercion-willow-tree-gradient-36"><stop offset="0%" stop-color="#f8e71c" stop-opacity="1"></stop><stop offset="100%" stop-color="#f5a623" stop-opacity="1"></stop></radialGradient><radialGradient id="caro-asercion-willow-tree-gradient-37"><stop offset="0%" stop-color="#f8e71c" stop-opacity="1"></stop><stop offset="100%" stop-color="#f5a623" stop-opacity="1"></stop></radialGradient><linearGradient x1="0" x2="1" y1="0" y2="1" id="caro-asercion-willow-tree-gradient-38"><stop offset="0%" stop-color="#8b7500" stop-opacity="1"></stop><stop offset="100%" stop-color="#c4a504" stop-opacity="1"></stop></linearGradient><linearGradient x1="0" x2="1" y1="0" y2="1" id="caro-asercion-willow-tree-gradient-39"><stop offset="0%" stop-color="#8b7500" stop-opacity="1"></stop><stop offset="100%" stop-color="#c4a504" stop-opacity="1"></stop></linearGradient><linearGradient x1="0" x2="1" y1="0" y2="1" id="caro-asercion-willow-tree-gradient-40"><stop offset="0%" stop-color="#8b7500" stop-opacity="1"></stop><stop offset="100%" stop-color="#c4a504" stop-opacity="1"></stop></linearGradient><linearGradient x1="0" x2="1" y1="0" y2="1" id="caro-asercion-willow-tree-gradient-41"><stop offset="0%" stop-color="#8b7500" stop-opacity="1"></stop><stop offset="100%" stop-color="#c4a504" stop-opacity="1"></stop></linearGradient><linearGradient x1="0" x2="1" y1="0" y2="1" id="caro-asercion-willow-tree-gradient-42"><stop offset="0%" stop-color="#8b7500" stop-opacity="1"></stop><stop offset="100%" stop-color="#c4a504" stop-opacity="1"></stop></linearGradient><linearGradient x1="0" x2="1" y1="0" y2="1" id="caro-asercion-willow-tree-gradient-43"><stop offset="0%" stop-color="#8b7500" stop-opacity="1"></stop><stop offset="100%" stop-color="#c4a504" stop-opacity="1"></stop></linearGradient><linearGradient x1="0" x2="1" y1="0" y2="1" id="caro-asercion-willow-tree-gradient-44"><stop offset="0%" stop-color="#8b7500" stop-opacity="1"></stop><stop offset="100%" stop-color="#c4a504" stop-opacity="1"></stop></linearGradient><linearGradient x1="0" x2="1" y1="0" y2="1" id="caro-asercion-willow-tree-gradient-45"><stop offset="0%" stop-color="#8b7500" stop-opacity="1"></stop><stop offset="100%" stop-color="#c4a504" stop-opacity="1"></stop></linearGradient><linearGradient x1="0" x2="1" y1="0" y2="1" id="caro-asercion-willow-tree-gradient-46"><stop offset="0%" stop-color="#8b7500" stop-opacity="1"></stop><stop offset="100%" stop-color="#c4a504" stop-opacity="1"></stop></linearGradient></defs><g class="" transform="translate(-1,0)" style=""><g transform="translate(512, 0) scale(-1, 1) rotate(0, 256, 256) skewX(0) skewY(0)"><path d="M261.1 24.77C203.8 24.31 196.3 89.06 196.3 89.06C217.5 87.73 218 46.61 244.7 49.18C222.9 78.09 233.6 120.9 233.6 120.9L245.6 126.2L262.3 120.6C262.3 120.6 285.5 89.89 279 56.62C307.1 82.79 280.5 106.3 314.5 138C314.5 138 331.5 102.9 319.5 71.16C349.2 98.5 338 144.8 380.6 154.5C348.3 118.9 379.1 41.79 273.3 25.77C269 25.12 265 24.8 261.1 24.77Z" class="" fill="url(#caro-asercion-willow-tree-gradient-2)" stroke="#000000" stroke-opacity="1" stroke-width="2"></path><path d="M158.6 88.4C25.09 87.99 59.94 171.1 53.91 241.5C87.18 215.9 59.37 152.5 90.35 128.7C78.4 149.7 94.06 201 94.06 201C128 173.4 83.24 106.8 172 88.7C167.3 88.51 162.9 88.41 158.6 88.4Z" class="" fill="url(#caro-asercion-willow-tree-gradient-3)" stroke="#000000" stroke-opacity="1" stroke-width="2"></path><path d="M201.4 137.9C162.8 137.9 130.3 159.9 131.3 195.8C70.6 219.6 96.9 337.6 96.9 413.5C137.7 372.8 98.31 278.8 130.5 246.6L143 352.7C175.2 317 141.2 242.9 172.1 208.7L180 283.7C204.3 254.7 178.6 169.8 234.5 143.2C223.4 139.6 212.1 137.8 201.4 137.9Z" class="" fill="url(#caro-asercion-willow-tree-gradient-4)" stroke="#000000" stroke-opacity="1" stroke-width="2"></path><path d="M275.9 142.2C238.2 141 205.5 187.1 237 239.2C237 239.2 237.7 200.3 256.3 185.2C273.7 206.6 244.8 261.7 276.6 300.6L291.6 205.7C323.3 241.1 284.7 309.1 313.1 340.7L333.3 262.7C361.2 308.5 327.2 380.8 364.9 418.7C363.3 387.1 419.7 253 339.1 213.5C326.4 163.1 300.1 142.9 275.9 142.2Z" class="" fill="url(#caro-asercion-willow-tree-gradient-5)" stroke="#000000" stroke-opacity="1" stroke-width="2"></path><path d="M383.5 171.1C361 171 343.7 175.1 343.7 175.1C415.9 178.6 412.9 240.5 412.9 240.5C475.3 261.2 456.3 346 468.9 367.3C490.8 285.4 447.8 220.1 447.8 220.1C447.8 220.1 472.8 231.3 483.5 274.5C488 186.7 426.4 171.3 383.5 171.1Z" class="" fill="url(#caro-asercion-willow-tree-gradient-6)" stroke="#000000" stroke-opacity="1" stroke-width="2"></path><path d="M215.6 256C217.1 271.5 202.7 293.1 202.7 293.1C202.7 293.1 207.5 313.3 250.5 304.3C250.5 304.3 240.2 296.7 237.3 276.1C223.5 270.3 215.6 256 215.6 256Z" class="" fill="url(#caro-asercion-willow-tree-gradient-7)" stroke="#000000" stroke-opacity="1" stroke-width="2"></path><path d="M182.8 318.3C182.8 318.3 179.5 349.1 187 382C195.1 417.5 205.5 379.4 204.3 349.2C235.8 359.8 200 392.4 238.5 421.4L242.4 364.6C275.7 374.5 240.1 429 267.8 439.9C288.3 418 291.9 379 271 357C243.2 327.7 211.3 348.3 182.8 318.3Z" class="selected" fill="url(#caro-asercion-willow-tree-gradient-8)" stroke="#000000" stroke-opacity="1" stroke-width="2"></path><path d="M296.5 360C311.5 394 315.3 457 251.8 485.1L385.8 485.1C385.8 485.1 408.8 435.6 394.3 405.2L375.9 446.7C323.2 433.3 328.7 399.7 296.5 360Z" class="" fill="url(#caro-asercion-willow-tree-gradient-9)" stroke="#000000" stroke-opacity="1" stroke-width="2"></path></g></g></svg>