<svg xmlns="http://www.w3.org/2000/svg" viewBox="0 0 512 512" style="height: 512px; width: 512px;"><defs><linearGradient x1="0" x2="1" y1="0" y2="1" id="gradient-1"><stop offset="0%" stop-color="#930012" stop-opacity="1"></stop><stop offset="100%" stop-color="#ff0000" stop-opacity="1"></stop></linearGradient><radialGradient id="gradient-2"><stop offset="0%" stop-color="#d78703" stop-opacity="1"></stop><stop offset="100%" stop-color="#bf7700" stop-opacity="1"></stop></radialGradient><radialGradient id="gradient-3"><stop offset="0%" stop-color="#d78703" stop-opacity="1"></stop><stop offset="100%" stop-color="#bf7700" stop-opacity="1"></stop></radialGradient><radialGradient id="gradient-6"><stop offset="0%" stop-color="#e38d00" stop-opacity="1"></stop><stop offset="100%" stop-color="#e38d00" stop-opacity="1"></stop></radialGradient><radialGradient id="gradient-7"><stop offset="0%" stop-color="#b57204" stop-opacity="1"></stop><stop offset="100%" stop-color="#8b572a" stop-opacity="1"></stop></radialGradient><radialGradient id="gradient-8"><stop offset="0%" stop-color="#ffe0af" stop-opacity="1"></stop><stop offset="100%" stop-color="#f5a623" stop-opacity="1"></stop></radialGradient><radialGradient id="gradient-9"><stop offset="0%" stop-color="#b57204" stop-opacity="1"></stop><stop offset="100%" stop-color="#8b572a" stop-opacity="1"></stop></radialGradient><radialGradient id="gradient-10"><stop offset="0%" stop-color="#b57204" stop-opacity="1"></stop><stop offset="100%" stop-color="#8b572a" stop-opacity="1"></stop></radialGradient><radialGradient id="gradient-11"><stop offset="0%" stop-color="#ffe0af" stop-opacity="1"></stop><stop offset="100%" stop-color="#f5a623" stop-opacity="1"></stop></radialGradient><radialGradient id="gradient-12"><stop offset="0%" stop-color="#ffe0af" stop-opacity="1"></stop><stop offset="100%" stop-color="#f5a623" stop-opacity="1"></stop></radialGradient><radialGradient id="gradient-13"><stop offset="0%" stop-color="#ffe0af" stop-opacity="1"></stop><stop offset="100%" stop-color="#f5a623" stop-opacity="1"></stop></radialGradient><radialGradient id="gradient-14"><stop offset="0%" stop-color="#b57204" stop-opacity="1"></stop><stop offset="100%" stop-color="#8b572a" stop-opacity="1"></stop></radialGradient><radialGradient id="gradient-15"><stop offset="0%" stop-color="#b57204" stop-opacity="1"></stop><stop offset="100%" stop-color="#8b572a" stop-opacity="1"></stop></radialGradient><radialGradient id="gradient-16"><stop offset="0%" stop-color="#fc88fc" stop-opacity="1"></stop><stop offset="100%" stop-color="#bd10e0" stop-opacity="1"></stop></radialGradient><radialGradient id="gradient-17"><stop offset="0%" stop-color="#fc88fc" stop-opacity="1"></stop><stop offset="100%" stop-color="#bd10e0" stop-opacity="1"></stop></radialGradient><radialGradient id="gradient-18"><stop offset="0%" stop-color="#fc88fc" stop-opacity="1"></stop><stop offset="100%" stop-color="#bd10e0" stop-opacity="1"></stop></radialGradient><radialGradient id="gradient-19"><stop offset="0%" stop-color="#8b572a" stop-opacity="1"></stop><stop offset="100%" stop-color="#b57204" stop-opacity="1"></stop></radialGradient><radialGradient id="gradient-20"><stop offset="0%" stop-color="#fc88fc" stop-opacity="1"></stop><stop offset="100%" stop-color="#bd10e0" stop-opacity="1"></stop></radialGradient><radialGradient id="gradient-21"><stop offset="0%" stop-color="#fc88fc" stop-opacity="1"></stop><stop offset="100%" stop-color="#bd10e0" stop-opacity="1"></stop></radialGradient><radialGradient id="gradient-22"><stop offset="0%" stop-color="#f5a623" stop-opacity="1"></stop><stop offset="100%" stop-color="#ff7400" stop-opacity="1"></stop></radialGradient><radialGradient id="gradient-23"><stop offset="0%" stop-color="#fc88fc" stop-opacity="1"></stop><stop offset="100%" stop-color="#bd10e0" stop-opacity="1"></stop></radialGradient><radialGradient id="gradient-24"><stop offset="0%" stop-color="#d0021b" stop-opacity="1"></stop><stop offset="100%" stop-color="#fc5151" stop-opacity="1"></stop></radialGradient><radialGradient id="gradient-25"><stop offset="0%" stop-color="#fc88fc" stop-opacity="1"></stop><stop offset="100%" stop-color="#bd10e0" stop-opacity="1"></stop></radialGradient><radialGradient id="gradient-26"><stop offset="0%" stop-color="#fc88fc" stop-opacity="1"></stop><stop offset="100%" stop-color="#bd10e0" stop-opacity="1"></stop></radialGradient><radialGradient id="gradient-27"><stop offset="0%" stop-color="#b57204" stop-opacity="1"></stop><stop offset="100%" stop-color="#b8e986" stop-opacity="1"></stop></radialGradient><radialGradient id="gradient-28"><stop offset="0%" stop-color="#fc88fc" stop-opacity="1"></stop><stop offset="100%" stop-color="#bd10e0" stop-opacity="1"></stop></radialGradient><radialGradient id="gradient-29"><stop offset="0%" stop-color="#f8e71c" stop-opacity="1"></stop><stop offset="100%" stop-color="#f5a623" stop-opacity="1"></stop></radialGradient><radialGradient id="gradient-30"><stop offset="0%" stop-color="#f8e71c" stop-opacity="1"></stop><stop offset="100%" stop-color="#f5a623" stop-opacity="1"></stop></radialGradient><radialGradient id="gradient-31"><stop offset="0%" stop-color="#f8e71c" stop-opacity="1"></stop><stop offset="100%" stop-color="#f5a623" stop-opacity="1"></stop></radialGradient><radialGradient id="gradient-32"><stop offset="0%" stop-color="#f8e71c" stop-opacity="1"></stop><stop offset="100%" stop-color="#f5a623" stop-opacity="1"></stop></radialGradient><radialGradient id="gradient-33"><stop offset="0%" stop-color="#7ed321" stop-opacity="1"></stop><stop offset="100%" stop-color="#417505" stop-opacity="1"></stop></radialGradient><radialGradient id="gradient-34"><stop offset="0%" stop-color="#f8e71c" stop-opacity="1"></stop><stop offset="100%" stop-color="#f5a623" stop-opacity="1"></stop></radialGradient><radialGradient id="gradient-35"><stop offset="0%" stop-color="#f8e71c" stop-opacity="1"></stop><stop offset="100%" stop-color="#f5a623" stop-opacity="1"></stop></radialGradient><radialGradient id="gradient-36"><stop offset="0%" stop-color="#f8e71c" stop-opacity="1"></stop><stop offset="100%" stop-color="#f5a623" stop-opacity="1"></stop></radialGradient></defs><g class="" transform="translate(0,0)" style="touch-action: none;"><g><path d="M92.438 28.97C75.263 47.722 60.826 69.69 49.593 94L167.5 204.656L154.72 218.281L41.905 112.407C32.715 136.664 26.528 162.862 23.749 190.251L139.905 248.971L131.468 265.657L22.312 210.47C21.349 234.92 23.089 260.136 27.749 285.625L128.279 293.938L126.749 312.563L31.779 304.719C32.522 307.809 33.294 310.904 34.124 313.999C38.554 330.509 44.064 346.339 50.499 361.437C59.256 359.822 68.307 358.163 78.312 356.28C105.066 351.247 131.405 346.22 131.405 346.22L134.905 364.562C134.905 364.562 108.537 369.616 81.749 374.656C73.737 376.164 65.952 377.626 58.561 379C67.211 396.507 77.181 412.887 88.218 428L149.061 393.72L158.22 410L99.813 442.938C112.015 457.728 125.295 471.124 139.437 482.938L156.594 462.594C157.974 442.057 161.557 424.869 170.969 410.874C177.307 401.449 186.409 394.048 198.124 388.937C189.86 376.115 183.3 361.62 179 345.594C164.474 291.444 179.58 237.104 215.406 207.5L92.436 28.97Z" class="" fill="url(#gradient-2)" stroke="#000000" stroke-opacity="1" stroke-width="1"></path><path d="M423.281 28.97L300.314 207.5C336.14 237.104 351.278 291.443 336.751 345.594C332.491 361.471 325.983 375.831 317.813 388.564C330.158 393.948 339.367 402.066 345.313 412.219C353.123 425.552 355.808 441.336 356.72 459.686L376.312 482.936C390.452 471.123 403.735 457.728 415.937 442.936L357.5 410L366.688 393.72L427.53 428C438.57 412.883 448.536 396.51 457.188 379C449.788 377.626 441.981 376.164 433.968 374.656C407.181 369.616 380.812 364.562 380.812 364.562L384.312 346.219C384.312 346.219 410.684 351.246 437.437 356.279C447.231 358.123 456.633 359.877 465.25 361.469C471.69 346.364 477.194 330.515 481.625 313.999C482.455 310.904 483.227 307.809 483.969 304.719L389 312.56L387.47 293.935L488 285.625C492.66 260.135 494.37 234.92 493.406 210.469L384.25 265.655L375.812 248.968L492 190.25C489.217 162.85 483.044 136.64 473.844 112.375L361.03 218.28L348.22 204.656L466.124 94C454.888 69.69 440.456 47.723 423.28 28.97Z" class="" fill="url(#gradient-3)" stroke="#000000" stroke-opacity="1" stroke-width="1"></path><path d="M256.095 290.03C245.643 290.03 235.923 295.372 228.315 305.156C220.705 314.94 215.657 329.051 215.657 344.844C215.657 360.637 220.704 374.747 228.313 384.531C235.923 394.316 245.643 399.689 256.095 399.689C266.547 399.689 276.235 394.316 283.845 384.532C291.455 374.749 296.501 360.639 296.501 344.846C296.501 329.053 291.454 314.942 283.845 305.158C276.235 295.374 266.547 290.033 256.095 290.033Z" class="" fill="#d58400" fill-opacity="0"></path><path d="M295.72 401.22C285.36 412.36 271.484 419.562 256.094 419.562C241.137 419.562 227.604 412.764 217.344 402.156C214.682 402.816 212.197 403.54 209.906 404.344C198.442 408.364 191.518 413.804 186.469 421.314C177.279 434.974 174.927 458.364 174.562 490.562L338.374 490.562C338.239 459.012 337.22 435.372 329.186 421.656C324.766 414.106 318.59 408.71 307.624 404.594C304.157 403.292 300.191 402.157 295.718 401.219Z" class="selected" fill="#f5a623" fill-opacity="0"></path></g></g><g class="" transform="translate(167,344)" style="touch-action: none;"><g transform="translate(12.8, 12.8) scale(0.6, 0.6) rotate(-360, 128, 128)"><circle cx="128" cy="128" r="128" fill="#000000" fill-opacity="1"></circle><circle stroke="#f8e71c" stroke-opacity="1" fill="#000000" fill-opacity="1" stroke-width="18" cx="128" cy="128" r="101"></circle><path fill="#f8e71c" fill-opacity="1" d="MZ"></path></g></g><g font-family="Arial, Helvetica, sans-serif" font-size="77" font-style="normal" font-weight="normal" text-anchor="middle" class="" transform="translate(257,459)" style="touch-action: none;"><text stroke="rgba(0, 0, 0, 0.005)" stroke-width="19.25"><tspan x="0" y="0">20</tspan></text><text fill="rgba(248, 231, 28, 1)"><tspan x="0" y="0">20</tspan></text></g></svg>