<svg xmlns="http://www.w3.org/2000/svg" viewBox="0 0 512 512" style="height: 512px; width: 512px;"><defs><linearGradient x1="0" x2="1" y1="0" y2="1" id="lorc-two-feathers-gradient-1"><stop offset="0%" stop-color="#ffe0af" stop-opacity="1"></stop><stop offset="100%" stop-color="#faf5ed" stop-opacity="1"></stop></linearGradient><linearGradient x1="0" x2="1" y1="0" y2="1" id="lorc-two-feathers-gradient-2"><stop offset="0%" stop-color="#f8e71c" stop-opacity="1"></stop><stop offset="100%" stop-color="#d0021b" stop-opacity="1"></stop></linearGradient><linearGradient x1="0" x2="1" y1="0" y2="1" id="lorc-two-feathers-gradient-3"><stop offset="0%" stop-color="#f8e71c" stop-opacity="1"></stop><stop offset="100%" stop-color="#d0021b" stop-opacity="1"></stop></linearGradient><linearGradient x1="0" x2="1" y1="1" y2="0" id="lorc-two-feathers-gradient-4"><stop offset="0%" stop-color="#000000" stop-opacity="1"></stop><stop offset="100%" stop-color="#d0021b" stop-opacity="1"></stop></linearGradient><linearGradient x1="0" x2="0" y1="0" y2="1" id="lorc-two-feathers-gradient-5"><stop offset="0%" stop-color="#d0021b" stop-opacity="1"></stop><stop offset="100%" stop-color="#000000" stop-opacity="1"></stop></linearGradient><linearGradient x1="0" x2="1" y1="0" y2="1" id="lorc-two-feathers-gradient-6"><stop offset="0%" stop-color="#48baff" stop-opacity="1"></stop><stop offset="100%" stop-color="#c4f8ee" stop-opacity="1"></stop></linearGradient><linearGradient id="lorc-two-feathers-gradient-7"><stop offset="0%" stop-color="#b5e4db" stop-opacity="1"></stop><stop offset="100%" stop-color="#42aae9" stop-opacity="1"></stop></linearGradient><linearGradient id="lorc-two-feathers-gradient-8"><stop offset="0%" stop-color="#42aae9" stop-opacity="1"></stop><stop offset="100%" stop-color="#b5e4db" stop-opacity="1"></stop></linearGradient><linearGradient x1="0" x2="0" y1="0" y2="1" id="lorc-two-feathers-gradient-9"><stop offset="0%" stop-color="#c4f8ee" stop-opacity="1"></stop><stop offset="100%" stop-color="#ffffff" stop-opacity="1"></stop></linearGradient><linearGradient x1="0" x2="0" y1="0" y2="1" id="lorc-two-feathers-gradient-10"><stop offset="0%" stop-color="#c4f8ee" stop-opacity="1"></stop><stop offset="100%" stop-color="#ffffff" stop-opacity="1"></stop></linearGradient></defs><g class="" transform="translate(0,0)" style=""><g><path d="M177.438 17.625C141.075 80.755 170.876 150.08 229.031 185.531C302.369 230.241 314.281 367.867 426.471 365.563C445.239 402.565 458.907 439.991 468.471 479.407L486.624 475C479.238 444.556 469.444 415.166 456.874 386.28C476.364 354.142 485.364 321.842 492.812 289.53L477.5 306.657C478.712 293.17 478.376 279.767 476.812 265.657L463.187 292.595C465.607 271.987 466.237 252.615 467.062 233.095L447.532 267.065C444.656 250.032 440.955 233.991 437.344 217.813L429.094 248.783C371.358 118 210.67 101.476 177.438 17.624Z" class="" fill="url(#lorc-two-feathers-gradient-2)" stroke="#000000" stroke-opacity="1" stroke-width="2"></path><path d="M33.78 106C-49.587 293.217 185.09 448.733 326.22 429.47C355.366 446.185 381.197 465.434 405.125 487.906L417.905 474.281C398.982 456.511 378.812 440.605 356.905 426.345C355.335 397.37 347.341 372.461 338.345 348.189L332.125 391.032C321.913 363.562 309.022 342.66 296.312 321.315L299.532 373.283C290.495 348.549 277.344 328.273 263.5 308.753L268.594 351.723C251.619 327.83 233.74 310.988 215.938 293.659L228.563 331.253C144.105 263.974 78.553 196.544 33.78 106Z" class="selected" fill="url(#lorc-two-feathers-gradient-3)" stroke="#000000" stroke-opacity="1" stroke-width="2"></path></g></g><g class="" transform="translate(10,316)" style=""><g transform="translate(9.6, 9.6) scale(0.7, 0.7) rotate(0, 128, 128)"><circle cx="128" cy="128" r="128" fill="#000" fill-opacity="1"></circle><circle stroke="#f8e71c" stroke-opacity="1" fill="#000" fill-opacity="1" stroke-width="18" cx="128" cy="128" r="101"></circle><path fill="#f8e71c" fill-opacity="1" d="MZ"></path></g></g><g font-family="Arial, Helvetica, sans-serif" font-size="120" font-style="normal" font-weight="bold" text-anchor="middle" text-decoration=" rgba(248, 231, 28, 1)" class="" transform="translate(110,440)" style=""><g transform="translate(0, 0) scale(0.6, 0.6) rotate(0, 0, 0) skewX(0) skewY(0)"><text stroke="rgba(0, 0, 0, 1)" stroke-width="30"><tspan x="0" y="0">23</tspan></text><text fill="rgba(248, 231, 28, 1)"><tspan x="0" y="0">23</tspan></text></g></g></svg>