<svg xmlns="http://www.w3.org/2000/svg" viewBox="0 0 512 512" style="height: 512px; width: 512px;"><defs><radialGradient id="gradient-2"><stop offset="0%" stop-color="#0a00c1" stop-opacity="1"></stop><stop offset="100%" stop-color="#030026" stop-opacity="1"></stop></radialGradient><radialGradient id="gradient-3"><stop offset="0%" stop-color="#0a00c1" stop-opacity="1"></stop><stop offset="100%" stop-color="#030026" stop-opacity="1"></stop></radialGradient><radialGradient id="gradient-4"><stop offset="0%" stop-color="#0a00c1" stop-opacity="1"></stop><stop offset="100%" stop-color="#030026" stop-opacity="1"></stop></radialGradient><radialGradient id="gradient-5"><stop offset="0%" stop-color="#f8e71c" stop-opacity="1"></stop><stop offset="100%" stop-color="#a79a01" stop-opacity="1"></stop></radialGradient><radialGradient id="gradient-6"><stop offset="0%" stop-color="#ffffff" stop-opacity="1"></stop><stop offset="100%" stop-color="#9b9b9b" stop-opacity="1"></stop></radialGradient><radialGradient id="gradient-7"><stop offset="0%" stop-color="#ffffff" stop-opacity="1"></stop><stop offset="100%" stop-color="#9b9b9b" stop-opacity="1"></stop></radialGradient><radialGradient id="gradient-8"><stop offset="0%" stop-color="#ffffff" stop-opacity="1"></stop><stop offset="100%" stop-color="#4a4a4a" stop-opacity="1"></stop></radialGradient><radialGradient id="gradient-9"><stop offset="0%" stop-color="#ffffff" stop-opacity="1"></stop><stop offset="100%" stop-color="#4a4a4a" stop-opacity="1"></stop></radialGradient><radialGradient id="gradient-10"><stop offset="0%" stop-color="#9b9b9b" stop-opacity="1"></stop><stop offset="100%" stop-color="#c9c9c9" stop-opacity="1"></stop></radialGradient><radialGradient id="gradient-11"><stop offset="0%" stop-color="#9b9b9b" stop-opacity="1"></stop><stop offset="100%" stop-color="#c9c9c9" stop-opacity="1"></stop></radialGradient><radialGradient id="gradient-12"><stop offset="0%" stop-color="#9b9b9b" stop-opacity="1"></stop><stop offset="100%" stop-color="#c9c9c9" stop-opacity="1"></stop></radialGradient><radialGradient id="gradient-13"><stop offset="0%" stop-color="#ffffff" stop-opacity="1"></stop><stop offset="100%" stop-color="#4a4a4a" stop-opacity="1"></stop></radialGradient><radialGradient id="gradient-14"><stop offset="0%" stop-color="#417505" stop-opacity="1"></stop><stop offset="100%" stop-color="#7ed321" stop-opacity="1"></stop></radialGradient><radialGradient id="gradient-15"><stop offset="0%" stop-color="#f8e71c" stop-opacity="1"></stop><stop offset="100%" stop-color="#f5a623" stop-opacity="1"></stop></radialGradient><radialGradient id="gradient-16"><stop offset="0%" stop-color="#7ed321" stop-opacity="1"></stop><stop offset="100%" stop-color="#417505" stop-opacity="1"></stop></radialGradient><radialGradient id="gradient-17"><stop offset="0%" stop-color="#f8e71c" stop-opacity="1"></stop><stop offset="100%" stop-color="#f5a623" stop-opacity="1"></stop></radialGradient><radialGradient id="gradient-18"><stop offset="0%" stop-color="#f8e71c" stop-opacity="1"></stop><stop offset="100%" stop-color="#f5a623" stop-opacity="1"></stop></radialGradient><radialGradient id="gradient-19"><stop offset="0%" stop-color="#f8e71c" stop-opacity="1"></stop><stop offset="100%" stop-color="#f5a623" stop-opacity="1"></stop></radialGradient><radialGradient id="gradient-20"><stop offset="0%" stop-color="#f8e71c" stop-opacity="1"></stop><stop offset="100%" stop-color="#f5a623" stop-opacity="1"></stop></radialGradient><radialGradient id="gradient-21"><stop offset="0%" stop-color="#f8e71c" stop-opacity="1"></stop><stop offset="100%" stop-color="#f5a623" stop-opacity="1"></stop></radialGradient><radialGradient id="gradient-22"><stop offset="0%" stop-color="#f8e71c" stop-opacity="1"></stop><stop offset="100%" stop-color="#f5a623" stop-opacity="1"></stop></radialGradient><radialGradient id="gradient-23"><stop offset="0%" stop-color="#f8e71c" stop-opacity="1"></stop><stop offset="100%" stop-color="#f5a623" stop-opacity="1"></stop></radialGradient><radialGradient id="gradient-24"><stop offset="0%" stop-color="#f8e71c" stop-opacity="1"></stop><stop offset="100%" stop-color="#f5a623" stop-opacity="1"></stop></radialGradient><radialGradient id="gradient-25"><stop offset="0%" stop-color="#f8e71c" stop-opacity="1"></stop><stop offset="100%" stop-color="#f5a623" stop-opacity="1"></stop></radialGradient><radialGradient id="gradient-26"><stop offset="0%" stop-color="#f8e71c" stop-opacity="1"></stop><stop offset="100%" stop-color="#f5a623" stop-opacity="1"></stop></radialGradient><radialGradient id="gradient-27"><stop offset="0%" stop-color="#f8e71c" stop-opacity="1"></stop><stop offset="100%" stop-color="#f5a623" stop-opacity="1"></stop></radialGradient><radialGradient id="gradient-28"><stop offset="0%" stop-color="#f8e71c" stop-opacity="1"></stop><stop offset="100%" stop-color="#f5a623" stop-opacity="1"></stop></radialGradient><radialGradient id="gradient-29"><stop offset="0%" stop-color="#f8e71c" stop-opacity="1"></stop><stop offset="100%" stop-color="#f5a623" stop-opacity="1"></stop></radialGradient><radialGradient id="gradient-30"><stop offset="0%" stop-color="#f8e71c" stop-opacity="1"></stop><stop offset="100%" stop-color="#f5a623" stop-opacity="1"></stop></radialGradient><radialGradient id="gradient-31"><stop offset="0%" stop-color="#f8e71c" stop-opacity="1"></stop><stop offset="100%" stop-color="#f5a623" stop-opacity="1"></stop></radialGradient><radialGradient id="gradient-32"><stop offset="0%" stop-color="#f8e71c" stop-opacity="1"></stop><stop offset="100%" stop-color="#f5a623" stop-opacity="1"></stop></radialGradient><radialGradient id="gradient-33"><stop offset="0%" stop-color="#7ed321" stop-opacity="1"></stop><stop offset="100%" stop-color="#417505" stop-opacity="1"></stop></radialGradient><radialGradient id="gradient-34"><stop offset="0%" stop-color="#f8e71c" stop-opacity="1"></stop><stop offset="100%" stop-color="#f5a623" stop-opacity="1"></stop></radialGradient><radialGradient id="gradient-35"><stop offset="0%" stop-color="#f8e71c" stop-opacity="1"></stop><stop offset="100%" stop-color="#f5a623" stop-opacity="1"></stop></radialGradient><radialGradient id="gradient-36"><stop offset="0%" stop-color="#f8e71c" stop-opacity="1"></stop><stop offset="100%" stop-color="#f5a623" stop-opacity="1"></stop></radialGradient></defs><g class="" transform="translate(-9,-1)" style="touch-action: none;"><g><path d="M84.931 28.564C71.025 28.464 56.361 31.318 46.671 39.729L46.671 55.848L100.431 44.297L94.367 29.074C91.231 28.759 88.082 28.589 84.931 28.564Z" class="" fill="url(#gradient-2)" stroke="#000000" stroke-opacity="1" stroke-width="3"></path><path d="M427.069 28.564C423.859 28.588 420.691 28.769 417.633 29.074L411.569 44.297L465.329 55.847L465.329 39.73C455.639 31.319 440.975 28.465 427.069 28.565Z" class="" fill="url(#gradient-3)" stroke="#000000" stroke-opacity="1" stroke-width="3"></path><path d="M107.179 61.234L46.67 74.238C-24.404 192 51.23 432.281 162.532 489.268C178.11 497.088 217.055 501 256 501C294.945 501 333.89 497.089 349.468 489.268C460.77 432.28 536.404 192 465.329 74.238L404.822 61.234L380.624 82.57C331.439 114.896 295.193 134.847 256 135.11C216.807 134.847 180.561 114.896 131.376 82.57Z" class="" fill="url(#gradient-4)" stroke="#000000" stroke-opacity="1" stroke-width="3"></path><path d="M110.896 98.877C121.108 98.847 130.447 101.345 137.501 107.418C166.57 136.606 211.17 151.781 256 151.781C300.83 151.781 345.43 136.606 374.499 107.418C397.072 87.985 443.049 105.171 466.134 124.561C480.171 160 480.731 203.19 467.174 245.434C464.602 311.419 433.113 396.333 378.589 446.695C318.972 474.163 298.146 478.498 256 478.498C213.854 478.498 193.028 474.163 133.41 446.695C78.888 396.333 47.399 311.42 44.827 245.434C31.27 203.19 31.83 160 45.866 124.56C61.736 111.23 88.429 98.94 110.896 98.876Z" class="" fill="url(#gradient-5)" stroke="#000000" stroke-opacity="1" stroke-width="3"></path><path d="M109.778 116.916C92.154 117.28 70.042 127.447 61.095 134.764C53.486 160 45.155 217.929 67.419 249.133C89.218 277.269 115.62 278.606 129.937 277.021C168.914 267.321 208.028 262.068 247.237 261.371L247.237 169.416C201.552 167.591 156.497 151.663 125.251 120.289C121.028 117.763 115.652 116.795 109.778 116.916Z" class="" fill="url(#gradient-6)" stroke="#000000" stroke-opacity="1" stroke-width="3"></path><path d="M402.222 116.916C396.348 116.795 390.972 117.763 386.749 120.289C355.504 151.663 310.449 167.591 264.763 169.416L264.763 261.371C303.972 262.068 343.086 267.321 382.063 277.021C396.38 278.606 422.783 277.269 444.581 249.133C466.845 217.929 458.514 160 450.905 134.763C441.958 127.447 419.845 117.28 402.222 116.916Z" class="" fill="url(#gradient-7)" stroke="#000000" stroke-opacity="1" stroke-width="3"></path><path d="M64.603 272.309C77.692 336.469 105.665 411.593 158.839 442.816C134.359 401.586 124.092 339.63 122.741 295.386C106.757 295.339 84.471 290.792 64.603 272.309Z" class="" fill="url(#gradient-8)" stroke="#000000" stroke-opacity="1" stroke-width="3"></path><path d="M447.397 272.309C427.529 290.792 405.243 295.339 389.259 295.387C387.909 339.63 377.641 401.586 353.161 442.817C406.335 411.593 434.308 336.469 447.397 272.309Z" class="selected" fill="url(#gradient-9)" stroke="#000000" stroke-opacity="1" stroke-width="3"></path><path d="M140.217 293.023C140.409 302.816 141 312.586 141.981 322.273C189.958 315.571 223.078 312.176 256 312.176C288.922 312.176 322.042 315.571 370.019 322.273C371.003 312.551 371.592 302.793 371.783 293.023C333.336 283.933 294.857 279.306 256 279.306C217.143 279.306 178.663 283.933 140.217 293.023Z" class="" fill="url(#gradient-10)" stroke="#000000" stroke-opacity="1" stroke-width="3"></path><path d="M256 330.053C224.076 330.053 191.942 333.437 144.246 340.119C145.78 350.156 147.769 360.119 150.208 369.975C187.638 362.717 221.824 359.078 256 359.078C290.176 359.078 324.362 362.718 361.792 369.975C364.231 360.119 366.22 350.156 367.754 340.119C320.058 333.437 287.924 330.053 256 330.053Z" class="" fill="url(#gradient-11)" stroke="#000000" stroke-opacity="1" stroke-width="3"></path><path d="M256 377.003C223.498 377.003 190.991 380.455 155.05 387.35C156.807 393.029 158.737 398.654 160.838 404.215C200.498 410.626 228.248 413.832 256 413.832C283.751 413.832 311.503 410.626 351.162 404.215C353.263 398.654 355.194 393.029 356.951 387.35C321.009 380.455 288.502 377.004 256 377.004Z" class="" fill="url(#gradient-12)" stroke="#000000" stroke-opacity="1" stroke-width="3"></path><path d="M169.11 423.715C173.47 432.942 178.312 441.752 183.634 450.047C212.616 457.184 234.308 460.752 256 460.752C277.692 460.752 299.384 457.184 328.366 450.047C333.688 441.752 338.53 432.942 342.89 423.715C308.385 429.015 282.193 431.665 256 431.665C229.807 431.665 203.615 429.015 169.11 423.715Z" class="" fill="url(#gradient-13)" stroke="#000000" stroke-opacity="1" stroke-width="3"></path></g></g></svg>