<svg xmlns="http://www.w3.org/2000/svg" viewBox="0 0 512 512" style="height: 512px; width: 512px;"><defs><linearGradient x1="0" x2="1" y1="0" y2="1" id="lorc-bolt-shield-gradient-2"><stop offset="0%" stop-color="#9013fe" stop-opacity="1"></stop><stop offset="100%" stop-color="#bd10e0" stop-opacity="1"></stop></linearGradient><linearGradient x1="0" x2="1" y1="0" y2="1" id="lorc-bolt-shield-gradient-3"><stop offset="0%" stop-color="#d0021b" stop-opacity="1"></stop><stop offset="100%" stop-color="#7b0311" stop-opacity="1"></stop></linearGradient><linearGradient x1="0" x2="1" y1="0" y2="1" id="lorc-bolt-shield-gradient-4"><stop offset="0%" stop-color="#751987" stop-opacity="1"></stop><stop offset="100%" stop-color="#5c05a9" stop-opacity="1"></stop></linearGradient><linearGradient x1="0" x2="1" y1="0" y2="1" id="lorc-bolt-shield-gradient-5"><stop offset="0%" stop-color="#f8e71c" stop-opacity="1"></stop><stop offset="100%" stop-color="#f5a623" stop-opacity="1"></stop></linearGradient><linearGradient x1="0" x2="1" y1="1" y2="0" id="lorc-bolt-shield-gradient-6"><stop offset="0%" stop-color="#f8e71c" stop-opacity="1"></stop><stop offset="100%" stop-color="#f5a623" stop-opacity="1"></stop></linearGradient></defs><g class="" transform="translate(0,0)" style=""><g><path d="M104.53 75.188L104.594 86.938C105.387 196.84 154.647 306.933 252 401L258.5 407.28L265 401C361.765 307.147 411.975 196.968 412.844 86.937L412.938 75.219L401.468 77.749C321.206 95.462 196.214 95.672 116 77.749L104.53 75.186Z" class="" fill="url(#lorc-bolt-shield-gradient-2)" stroke="#000000" stroke-opacity="1" stroke-width="2"></path><path d="M138.437 107.656L149.875 110.219C210.84 123.839 306.549 123.682 367.563 110.219L379.031 107.687L378.939 119.405C378.269 204.322 339.479 289.262 265.032 361.468L258.565 367.748L252.065 361.468C177.16 289.095 139.113 204.213 138.5 119.405L138.437 107.655Z" class="" fill="url(#lorc-bolt-shield-gradient-3)" stroke="#000000" stroke-opacity="1" stroke-width="2"></path><path d="M359.844 130.626C299.427 141.868 218.059 142.012 157.594 130.656C161.184 203.761 194.36 276.886 258.531 341.5C322.376 276.994 356.156 203.745 359.845 130.625Z" class="" fill="url(#lorc-bolt-shield-gradient-4)" stroke="#000000" stroke-opacity="1" stroke-width="2"></path><path d="M19.624 267.126L123 433.468L140.906 382.154L237.094 470.31L133.72 303.97L115.813 355.28L19.625 267.125Z" class="selected" fill="url(#lorc-bolt-shield-gradient-5)" stroke="#000000" stroke-opacity="1" stroke-width="2"></path><path d="M490.156 267.126L393.936 355.281L376.063 303.971L272.656 470.31L368.844 382.154L386.75 433.467L490.156 267.122Z" class="" fill="url(#lorc-bolt-shield-gradient-6)" stroke="#000000" stroke-opacity="1" stroke-width="2"></path></g></g></svg>