<svg xmlns="http://www.w3.org/2000/svg" viewBox="0 0 512 512" style="height: 512px; width: 512px;"><defs><radialGradient id="lorc-plastron-gradient-1"><stop offset="0%" stop-color="#8b572a" stop-opacity="1"></stop><stop offset="100%" stop-color="#b57204" stop-opacity="1"></stop></radialGradient><radialGradient id="lorc-plastron-gradient-2"><stop offset="0%" stop-color="#d0021b" stop-opacity="1"></stop><stop offset="100%" stop-color="#9e081a" stop-opacity="1"></stop></radialGradient><radialGradient id="lorc-plastron-gradient-4"><stop offset="0%" stop-color="#d0021b" stop-opacity="1"></stop><stop offset="100%" stop-color="#9e081a" stop-opacity="1"></stop></radialGradient><radialGradient id="lorc-plastron-gradient-5"><stop offset="0%" stop-color="#d0021b" stop-opacity="1"></stop><stop offset="100%" stop-color="#9e081a" stop-opacity="1"></stop></radialGradient><radialGradient id="lorc-plastron-gradient-6"><stop offset="0%" stop-color="#d0021b" stop-opacity="1"></stop><stop offset="100%" stop-color="#9e081a" stop-opacity="1"></stop></radialGradient><radialGradient id="lorc-plastron-gradient-7"><stop offset="0%" stop-color="#f5a623" stop-opacity="1"></stop><stop offset="100%" stop-color="#8b572a" stop-opacity="1"></stop></radialGradient><radialGradient id="lorc-plastron-gradient-8"><stop offset="0%" stop-color="#b8e986" stop-opacity="1"></stop><stop offset="100%" stop-color="#7ed321" stop-opacity="1"></stop></radialGradient><radialGradient id="lorc-plastron-gradient-9"><stop offset="0%" stop-color="#ffe0af" stop-opacity="1"></stop><stop offset="100%" stop-color="#f5a623" stop-opacity="1"></stop></radialGradient><radialGradient id="lorc-plastron-gradient-10"><stop offset="0%" stop-color="#c9c9c9" stop-opacity="1"></stop><stop offset="100%" stop-color="#9b9b9b" stop-opacity="1"></stop></radialGradient><radialGradient id="lorc-plastron-gradient-11"><stop offset="0%" stop-color="#ffffff" stop-opacity="1"></stop><stop offset="100%" stop-color="#ffe0af" stop-opacity="1"></stop></radialGradient><radialGradient id="lorc-plastron-gradient-12"><stop offset="0%" stop-color="#f8e71c" stop-opacity="1"></stop><stop offset="100%" stop-color="#f5a623" stop-opacity="1"></stop></radialGradient><radialGradient id="lorc-plastron-gradient-13"><stop offset="0%" stop-color="#f8e71c" stop-opacity="1"></stop><stop offset="100%" stop-color="#f5a623" stop-opacity="1"></stop></radialGradient><radialGradient id="lorc-plastron-gradient-14"><stop offset="0%" stop-color="#4a4a4a" stop-opacity="1"></stop><stop offset="100%" stop-color="#000000" stop-opacity="1"></stop></radialGradient><radialGradient id="lorc-plastron-gradient-15"><stop offset="0%" stop-color="#f8e71c" stop-opacity="1"></stop><stop offset="100%" stop-color="#f5a623" stop-opacity="1"></stop></radialGradient><radialGradient id="lorc-plastron-gradient-16"><stop offset="0%" stop-color="#f8e71c" stop-opacity="1"></stop><stop offset="100%" stop-color="#f5a623" stop-opacity="1"></stop></radialGradient><radialGradient id="lorc-plastron-gradient-17"><stop offset="0%" stop-color="#4a4a4a" stop-opacity="1"></stop><stop offset="100%" stop-color="#000000" stop-opacity="1"></stop></radialGradient><radialGradient id="lorc-plastron-gradient-18"><stop offset="0%" stop-color="#48baff" stop-opacity="1"></stop><stop offset="100%" stop-color="#4a90e2" stop-opacity="1"></stop></radialGradient><radialGradient id="lorc-plastron-gradient-19"><stop offset="0%" stop-color="#48baff" stop-opacity="1"></stop><stop offset="100%" stop-color="#4a90e2" stop-opacity="1"></stop></radialGradient><radialGradient id="lorc-plastron-gradient-22"><stop offset="0%" stop-color="#fc88fc" stop-opacity="1"></stop><stop offset="100%" stop-color="#bd10e0" stop-opacity="1"></stop></radialGradient><radialGradient id="lorc-plastron-gradient-25"><stop offset="0%" stop-color="#9b9b9b" stop-opacity="1"></stop><stop offset="100%" stop-color="#4a4a4a" stop-opacity="1"></stop></radialGradient><radialGradient id="lorc-plastron-gradient-26"><stop offset="0%" stop-color="#9b9b9b" stop-opacity="1"></stop><stop offset="100%" stop-color="#4a4a4a" stop-opacity="1"></stop></radialGradient><radialGradient id="lorc-plastron-gradient-27"><stop offset="0%" stop-color="#9b9b9b" stop-opacity="1"></stop><stop offset="100%" stop-color="#4a4a4a" stop-opacity="1"></stop></radialGradient><radialGradient id="lorc-plastron-gradient-28"><stop offset="0%" stop-color="#9b9b9b" stop-opacity="1"></stop><stop offset="100%" stop-color="#4a4a4a" stop-opacity="1"></stop></radialGradient><radialGradient id="lorc-plastron-gradient-29"><stop offset="0%" stop-color="#9b9b9b" stop-opacity="1"></stop><stop offset="100%" stop-color="#4a4a4a" stop-opacity="1"></stop></radialGradient><radialGradient id="lorc-plastron-gradient-30"><stop offset="0%" stop-color="#9b9b9b" stop-opacity="1"></stop><stop offset="100%" stop-color="#4a4a4a" stop-opacity="1"></stop></radialGradient><radialGradient id="lorc-plastron-gradient-31"><stop offset="0%" stop-color="#9b9b9b" stop-opacity="1"></stop><stop offset="100%" stop-color="#4a4a4a" stop-opacity="1"></stop></radialGradient><radialGradient id="lorc-plastron-gradient-32"><stop offset="0%" stop-color="#9b9b9b" stop-opacity="1"></stop><stop offset="100%" stop-color="#4a4a4a" stop-opacity="1"></stop></radialGradient><radialGradient id="lorc-plastron-gradient-33"><stop offset="0%" stop-color="#9b9b9b" stop-opacity="1"></stop><stop offset="100%" stop-color="#4a4a4a" stop-opacity="1"></stop></radialGradient><radialGradient id="lorc-plastron-gradient-34"><stop offset="0%" stop-color="#9b9b9b" stop-opacity="1"></stop><stop offset="100%" stop-color="#4a4a4a" stop-opacity="1"></stop></radialGradient><radialGradient id="lorc-plastron-gradient-35"><stop offset="0%" stop-color="#9b9b9b" stop-opacity="1"></stop><stop offset="100%" stop-color="#4a4a4a" stop-opacity="1"></stop></radialGradient><radialGradient id="lorc-plastron-gradient-36"><stop offset="0%" stop-color="#9b9b9b" stop-opacity="1"></stop><stop offset="100%" stop-color="#4a4a4a" stop-opacity="1"></stop></radialGradient><radialGradient id="lorc-plastron-gradient-37"><stop offset="0%" stop-color="#9b9b9b" stop-opacity="1"></stop><stop offset="100%" stop-color="#4a4a4a" stop-opacity="1"></stop></radialGradient></defs><g class="" transform="translate(0,-1)" style=""><g><path d="M257.03 17.625C226.542 17.625 198.91 22.583 178.063 31.125C167.639 35.395 158.87 40.525 152.25 46.938C148.33 50.735 145.124 55.156 143.156 60.031C128.419 62.666 113.8 65.804 99.344 69.438C126.824 185.433 183.614 258.704 259.531 302.282C335.161 258.87 391.781 185.987 419.376 70.752C403.378 66.592 387.214 63.045 370.938 60.127C368.974 55.215 365.758 50.761 361.813 46.939C355.193 40.526 346.423 35.399 336.001 31.127C315.155 22.585 287.521 17.627 257.031 17.627Z" class="" fill="url(#lorc-plastron-gradient-2)" stroke="#000000" stroke-opacity="1" stroke-width="2"></path><path d="M257.03 36.313C285.452 36.313 311.146 41.129 328.906 48.406C337.786 52.046 344.636 56.329 348.812 60.376C352.988 64.421 354.344 67.733 354.344 70.688C354.344 73.642 352.227 80.768 347.374 88.625C342.524 96.482 335.229 105.282 326.219 113.345C308.199 129.467 283.471 142.469 257.029 142.469C230.589 142.469 205.863 129.466 187.843 113.343C178.833 105.281 171.539 96.481 166.687 88.623C161.834 80.767 159.717 73.641 159.717 70.687C159.717 67.732 161.073 64.42 165.249 60.374C169.425 56.328 176.275 52.044 185.155 48.404C202.915 41.128 228.61 36.311 257.03 36.311Z" class="" fill="#000000" stroke="#000000" stroke-opacity="1" stroke-width="2" fill-opacity="1"></path><path d="M81.22 73.906C77.802 75.15 75.08 77.216 72.75 79.626C67.79 84.749 64.113 91.576 60.687 100.094C54.333 115.894 49.311 137.636 46.375 162.906C42.785 182.203 41.825 202.528 43.375 223.469C46.92 271.397 63.725 322.249 91.813 369.687C117.18 329.341 148.727 296.207 185.25 269.624C147.513 232.826 117.113 185.084 96.062 124.904C98.202 143.286 98.337 166.917 95.844 191.624C93.17 218.124 87.904 240.861 82.094 255.312C79.188 262.537 76.011 267.639 73.969 269.749C73.547 270.184 73.629 270.059 73.374 270.249C72.708 269.463 71.384 267.799 69.874 263.969C67.798 258.694 65.894 250.872 64.594 241.436C61.991 222.566 61.637 197.25 64.312 170.749C66.986 144.249 72.219 121.543 78.03 107.093C80.872 100.028 83.985 94.973 86.03 92.78C84.332 86.612 82.74 80.31 81.22 73.906Z" class="" fill="url(#lorc-plastron-gradient-4)" stroke="#000000" stroke-opacity="1" stroke-width="2"></path><path d="M437.75 74.186C436.187 80.756 434.533 87.209 432.78 93.531C434.806 96.017 437.6 100.741 440.156 107.095C445.966 121.545 451.201 144.25 453.876 170.751C456.549 197.251 456.196 222.568 453.594 241.439C452.294 250.874 450.389 258.696 448.314 263.969C446.804 267.802 445.479 269.465 444.812 270.251C444.557 270.061 444.639 270.186 444.219 269.751C442.176 267.641 438.999 262.539 436.093 255.313C430.283 240.863 425.017 218.127 422.343 191.626C420.003 168.436 419.975 146.189 421.749 128.346C400.351 188.036 369.623 235.312 331.624 271.689C367.75 298.505 398.904 331.842 423.904 372.345C454.06 323.943 471.291 272.538 474.218 224.065C474.811 214.221 474.798 204.518 474.218 194.97C473.933 186.504 473.363 177.758 472.468 168.875C469.658 141.049 464.348 117.13 457.498 100.095C454.072 91.575 450.394 84.749 445.435 79.625C443.281 77.399 440.81 75.453 437.748 74.187Z" class="" fill="url(#lorc-plastron-gradient-5)" stroke="#000000" stroke-opacity="1" stroke-width="2"></path><path d="M199.312 282.533C160.972 309.797 128.376 344.235 102.844 387.253C105.358 391.04 107.934 394.807 110.594 398.533C191.531 464.341 324.138 464.609 405.5 399.347C407.91 396.105 410.273 392.845 412.563 389.567C387.433 346.5 355.308 311.943 317.469 284.503C300.846 298.617 282.994 310.849 264.061 321.316L259.531 323.816L254.999 321.316C235.193 310.366 216.583 297.481 199.311 282.534Z" class="" fill="url(#lorc-plastron-gradient-6)" stroke="#000000" stroke-opacity="1" stroke-width="2"></path><path d="M109.282 421.033C101.452 432.119 100.428 440.31 102.594 447.191C105.126 455.235 113.641 463.623 128.124 470.784C157.093 485.106 207.11 493.12 257 493.095C306.89 493.07 357.116 485.035 386.563 470.657C401.286 463.469 410.126 454.987 412.906 446.877C415.248 440.043 414.494 432.102 407.312 421.377C321.632 482.654 194.8 482.552 109.282 421.032Z" class="selected" fill="url(#lorc-plastron-gradient-7)" stroke="#000000" stroke-opacity="1" stroke-width="2"></path></g></g></svg>