<svg xmlns="http://www.w3.org/2000/svg" viewBox="0 0 512 512" style="height: 512px; width: 512px;"><defs><linearGradient x1="0" x2="1" y1="0" y2="1" id="delapouite-chest-armor-gradient-1"><stop offset="0%" stop-color="#d0021b" stop-opacity="1"></stop><stop offset="100%" stop-color="#fa95a1" stop-opacity="1"></stop></linearGradient><radialGradient id="delapouite-chest-armor-gradient-2"><stop offset="0%" stop-color="#ffe0af" stop-opacity="1"></stop><stop offset="100%" stop-color="#e2c093" stop-opacity="1"></stop></radialGradient><linearGradient x1="0" x2="0" y1="0" y2="1" id="delapouite-chest-armor-gradient-3"><stop offset="0%" stop-color="#e6ca9d" stop-opacity="1"></stop><stop offset="100%" stop-color="#bda07a" stop-opacity="1"></stop></linearGradient><linearGradient x1="0" x2="0" y1="0" y2="1" id="delapouite-chest-armor-gradient-4"><stop offset="0%" stop-color="#e6ca9d" stop-opacity="1"></stop><stop offset="100%" stop-color="#bda07a" stop-opacity="1"></stop></linearGradient><linearGradient x1="0" x2="0" y1="0" y2="1" id="delapouite-chest-armor-gradient-5"><stop offset="0%" stop-color="#c9af88" stop-opacity="1"></stop><stop offset="100%" stop-color="#79664d" stop-opacity="1"></stop></linearGradient><linearGradient x1="0" x2="0" y1="0" y2="1" id="delapouite-chest-armor-gradient-6"><stop offset="0%" stop-color="#f8e71c" stop-opacity="1"></stop><stop offset="100%" stop-color="#f5a623" stop-opacity="1"></stop></linearGradient><linearGradient x1="0" x2="0" y1="0" y2="1" id="delapouite-chest-armor-gradient-7"><stop offset="0%" stop-color="#f8e71c" stop-opacity="1"></stop><stop offset="100%" stop-color="#f5a623" stop-opacity="1"></stop></linearGradient><linearGradient x1="0" x2="0" y1="0" y2="1" id="delapouite-chest-armor-gradient-8"><stop offset="0%" stop-color="#f8e71c" stop-opacity="1"></stop><stop offset="100%" stop-color="#f5a623" stop-opacity="1"></stop></linearGradient><radialGradient id="delapouite-chest-armor-gradient-9"><stop offset="0%" stop-color="#f8e71c" stop-opacity="1"></stop><stop offset="100%" stop-color="#f5a623" stop-opacity="1"></stop></radialGradient><radialGradient id="delapouite-chest-armor-gradient-17"><stop offset="0%" stop-color="#ffe0af" stop-opacity="1"></stop><stop offset="100%" stop-color="#e2c093" stop-opacity="1"></stop></radialGradient><radialGradient id="delapouite-chest-armor-gradient-18"><stop offset="0%" stop-color="#d0021b" stop-opacity="1"></stop><stop offset="100%" stop-color="#a50215" stop-opacity="1"></stop></radialGradient><radialGradient id="delapouite-chest-armor-gradient-19"><stop offset="0%" stop-color="#ffe0af" stop-opacity="1"></stop><stop offset="100%" stop-color="#e2c093" stop-opacity="1"></stop></radialGradient><radialGradient id="delapouite-chest-armor-gradient-20"><stop offset="0%" stop-color="#ffe0af" stop-opacity="1"></stop><stop offset="100%" stop-color="#e2c093" stop-opacity="1"></stop></radialGradient><radialGradient id="delapouite-chest-armor-gradient-22"><stop offset="0%" stop-color="#fc88fc" stop-opacity="1"></stop><stop offset="100%" stop-color="#bd10e0" stop-opacity="1"></stop></radialGradient><radialGradient id="delapouite-chest-armor-gradient-25"><stop offset="0%" stop-color="#9b9b9b" stop-opacity="1"></stop><stop offset="100%" stop-color="#4a4a4a" stop-opacity="1"></stop></radialGradient><radialGradient id="delapouite-chest-armor-gradient-26"><stop offset="0%" stop-color="#9b9b9b" stop-opacity="1"></stop><stop offset="100%" stop-color="#4a4a4a" stop-opacity="1"></stop></radialGradient><radialGradient id="delapouite-chest-armor-gradient-27"><stop offset="0%" stop-color="#9b9b9b" stop-opacity="1"></stop><stop offset="100%" stop-color="#4a4a4a" stop-opacity="1"></stop></radialGradient><radialGradient id="delapouite-chest-armor-gradient-28"><stop offset="0%" stop-color="#9b9b9b" stop-opacity="1"></stop><stop offset="100%" stop-color="#4a4a4a" stop-opacity="1"></stop></radialGradient><radialGradient id="delapouite-chest-armor-gradient-29"><stop offset="0%" stop-color="#9b9b9b" stop-opacity="1"></stop><stop offset="100%" stop-color="#4a4a4a" stop-opacity="1"></stop></radialGradient><radialGradient id="delapouite-chest-armor-gradient-30"><stop offset="0%" stop-color="#9b9b9b" stop-opacity="1"></stop><stop offset="100%" stop-color="#4a4a4a" stop-opacity="1"></stop></radialGradient><radialGradient id="delapouite-chest-armor-gradient-31"><stop offset="0%" stop-color="#9b9b9b" stop-opacity="1"></stop><stop offset="100%" stop-color="#4a4a4a" stop-opacity="1"></stop></radialGradient><radialGradient id="delapouite-chest-armor-gradient-32"><stop offset="0%" stop-color="#9b9b9b" stop-opacity="1"></stop><stop offset="100%" stop-color="#4a4a4a" stop-opacity="1"></stop></radialGradient><radialGradient id="delapouite-chest-armor-gradient-33"><stop offset="0%" stop-color="#9b9b9b" stop-opacity="1"></stop><stop offset="100%" stop-color="#4a4a4a" stop-opacity="1"></stop></radialGradient><radialGradient id="delapouite-chest-armor-gradient-34"><stop offset="0%" stop-color="#9b9b9b" stop-opacity="1"></stop><stop offset="100%" stop-color="#4a4a4a" stop-opacity="1"></stop></radialGradient><radialGradient id="delapouite-chest-armor-gradient-35"><stop offset="0%" stop-color="#9b9b9b" stop-opacity="1"></stop><stop offset="100%" stop-color="#4a4a4a" stop-opacity="1"></stop></radialGradient><radialGradient id="delapouite-chest-armor-gradient-36"><stop offset="0%" stop-color="#9b9b9b" stop-opacity="1"></stop><stop offset="100%" stop-color="#4a4a4a" stop-opacity="1"></stop></radialGradient><radialGradient id="delapouite-chest-armor-gradient-37"><stop offset="0%" stop-color="#9b9b9b" stop-opacity="1"></stop><stop offset="100%" stop-color="#4a4a4a" stop-opacity="1"></stop></radialGradient></defs><g class="" transform="translate(0,0)" style=""><g><path d="M156.7 25.83L89 39.38C88.9 97.95 87.26 158.7 45.51 206.6C104.4 246.5 189 260.7 247 248.8L247 149.8L108.3 88.22L115.7 71.78L256 134.2L396.3 71.78L403.7 88.22L265 149.8L265 248.8C323 260.7 407.6 246.5 466.5 206.6C424.7 158.7 423.1 97.95 423 39.38L355.3 25.83C342.4 39.71 334.7 53.98 322.4 66.36C308.9 79.78 289.5 89 256 89C222.5 89 203.1 79.78 189.6 66.36C177.3 53.98 169.6 39.71 156.7 25.83Z" class="" fill="url(#delapouite-chest-armor-gradient-2)" stroke="#000000" stroke-opacity="1" stroke-width="2"></path><path d="M53.88 232.9C75.96 281 96.07 336.6 102.7 392.8L167.7 415.6C171.9 362.9 195.9 311.6 231.4 269.5C176.3 275.8 108.7 263.7 53.88 232.9Z" class="" fill="url(#delapouite-chest-armor-gradient-3)" stroke="#000000" stroke-opacity="1" stroke-width="2"></path><path d="M458.1 232.9C403.3 263.7 335.7 275.8 280.6 269.5C316.1 311.6 340.1 362.9 344.3 415.6L409.5 392.7C416.1 335.9 436.1 280.9 458.1 232.9Z" class="" fill="url(#delapouite-chest-armor-gradient-4)" stroke="#000000" stroke-opacity="1" stroke-width="2"></path><path d="M256 269C215.5 312.1 188.3 366.9 185.3 421.7L247 443.3L247 336L265 336L265 443.3L326.7 421.7C323.6 366.9 296.5 312.1 256 269Z" class="" fill="url(#delapouite-chest-armor-gradient-5)" stroke="#000000" stroke-opacity="1" stroke-width="2"></path><path d="M407.7 412.4L297 451.1L297 469.9L407.2 425.8C407.3 421.3 407.5 416.9 407.7 412.4Z" class="selected" fill="url(#delapouite-chest-armor-gradient-6)" stroke="#000000" stroke-opacity="1" stroke-width="2"></path><path d="M104.4 412.5C104.7 417 104.8 421.4 104.9 425.9L215 469.9L215 451.2L104.4 412.5Z" class="" fill="url(#delapouite-chest-armor-gradient-7)" stroke="#000000" stroke-opacity="1" stroke-width="2"></path><path d="M279 457.4L256 465.5L233 457.5L233 477.1L256 486.3L279 477.1L279 457.4Z" class="" fill="url(#delapouite-chest-armor-gradient-8)" stroke="#000000" stroke-opacity="1" stroke-width="2"></path></g></g></svg>