<svg xmlns="http://www.w3.org/2000/svg" viewBox="0 0 512 512" style="height: 512px; width: 512px;"><defs><linearGradient x1="0" x2="0" y1="0" y2="1" id="cathelineau-swordwoman-gradient-1"><stop offset="0%" stop-color="#f5a623" stop-opacity="1"></stop><stop offset="100%" stop-color="#8c5b08" stop-opacity="1"></stop></linearGradient><linearGradient x1="0" x2="1" y1="0" y2="1" id="cathelineau-swordwoman-gradient-2"><stop offset="0%" stop-color="#4a4a4a" stop-opacity="1"></stop><stop offset="100%" stop-color="#9b9b9b" stop-opacity="1"></stop></linearGradient><radialGradient id="cathelineau-swordwoman-gradient-3"><stop offset="0%" stop-color="#417505" stop-opacity="1"></stop><stop offset="100%" stop-color="#7ed321" stop-opacity="1"></stop></radialGradient><linearGradient x1="0" x2="0" y1="0" y2="1" id="cathelineau-swordwoman-gradient-4"><stop offset="0%" stop-color="#ff7b32" stop-opacity="1"></stop><stop offset="100%" stop-color="#b87365" stop-opacity="1"></stop></linearGradient><radialGradient id="cathelineau-swordwoman-gradient-5"><stop offset="0%" stop-color="#c9c9c9" stop-opacity="1"></stop><stop offset="100%" stop-color="#9b9b9b" stop-opacity="1"></stop></radialGradient><radialGradient id="cathelineau-swordwoman-gradient-6"><stop offset="0%" stop-color="#f5a623" stop-opacity="1"></stop><stop offset="100%" stop-color="#8b572a" stop-opacity="1"></stop></radialGradient><radialGradient id="cathelineau-swordwoman-gradient-7"><stop offset="0%" stop-color="#b57204" stop-opacity="1"></stop><stop offset="100%" stop-color="#8b572a" stop-opacity="1"></stop></radialGradient><linearGradient x1="0" x2="0" y1="0" y2="1" id="cathelineau-swordwoman-gradient-8"><stop offset="0%" stop-color="#ff7b32" stop-opacity="1"></stop><stop offset="100%" stop-color="#b87365" stop-opacity="1"></stop></linearGradient><linearGradient x1="0" x2="0" y1="0" y2="1" id="cathelineau-swordwoman-gradient-9"><stop offset="0%" stop-color="#ff7b32" stop-opacity="1"></stop><stop offset="100%" stop-color="#b87365" stop-opacity="1"></stop></linearGradient><radialGradient id="cathelineau-swordwoman-gradient-10"><stop offset="0%" stop-color="#4a4a4a" stop-opacity="1"></stop><stop offset="100%" stop-color="#000000" stop-opacity="1"></stop></radialGradient><radialGradient id="cathelineau-swordwoman-gradient-11"><stop offset="0%" stop-color="#4a4a4a" stop-opacity="1"></stop><stop offset="100%" stop-color="#000000" stop-opacity="1"></stop></radialGradient><radialGradient id="cathelineau-swordwoman-gradient-12"><stop offset="0%" stop-color="#4a4a4a" stop-opacity="1"></stop><stop offset="100%" stop-color="#000000" stop-opacity="1"></stop></radialGradient><radialGradient id="cathelineau-swordwoman-gradient-13"><stop offset="0%" stop-color="#4a4a4a" stop-opacity="1"></stop><stop offset="100%" stop-color="#000000" stop-opacity="1"></stop></radialGradient><radialGradient id="cathelineau-swordwoman-gradient-14"><stop offset="0%" stop-color="#4a4a4a" stop-opacity="1"></stop><stop offset="100%" stop-color="#000000" stop-opacity="1"></stop></radialGradient><radialGradient id="cathelineau-swordwoman-gradient-15"><stop offset="0%" stop-color="#4a4a4a" stop-opacity="1"></stop><stop offset="100%" stop-color="#000000" stop-opacity="1"></stop></radialGradient><radialGradient id="cathelineau-swordwoman-gradient-16"><stop offset="0%" stop-color="#4a4a4a" stop-opacity="1"></stop><stop offset="100%" stop-color="#000000" stop-opacity="1"></stop></radialGradient><radialGradient id="cathelineau-swordwoman-gradient-17"><stop offset="0%" stop-color="#4a4a4a" stop-opacity="1"></stop><stop offset="100%" stop-color="#000000" stop-opacity="1"></stop></radialGradient><linearGradient x1="0" x2="0" y1="0" y2="1" id="cathelineau-swordwoman-gradient-18"><stop offset="0%" stop-color="#8b572a" stop-opacity="1"></stop><stop offset="100%" stop-color="#b57204" stop-opacity="1"></stop></linearGradient><linearGradient x1="0" x2="0" y1="0" y2="1" id="cathelineau-swordwoman-gradient-19"><stop offset="0%" stop-color="#345f02" stop-opacity="1"></stop><stop offset="100%" stop-color="#6e9d37" stop-opacity="1"></stop></linearGradient><linearGradient x1="0" x2="0" y1="0" y2="1" id="cathelineau-swordwoman-gradient-20"><stop offset="0%" stop-color="#345f02" stop-opacity="1"></stop><stop offset="100%" stop-color="#6e9d37" stop-opacity="1"></stop></linearGradient><radialGradient id="cathelineau-swordwoman-gradient-21"><stop offset="0%" stop-color="#f8e71c" stop-opacity="1"></stop><stop offset="100%" stop-color="#f5a623" stop-opacity="1"></stop></radialGradient><radialGradient id="cathelineau-swordwoman-gradient-22"><stop offset="0%" stop-color="#f8e71c" stop-opacity="1"></stop><stop offset="100%" stop-color="#f5a623" stop-opacity="1"></stop></radialGradient><radialGradient id="cathelineau-swordwoman-gradient-23"><stop offset="0%" stop-color="#f8e71c" stop-opacity="1"></stop><stop offset="100%" stop-color="#f5a623" stop-opacity="1"></stop></radialGradient><radialGradient id="cathelineau-swordwoman-gradient-24"><stop offset="0%" stop-color="#f8e71c" stop-opacity="1"></stop><stop offset="100%" stop-color="#f5a623" stop-opacity="1"></stop></radialGradient><radialGradient id="cathelineau-swordwoman-gradient-25"><stop offset="0%" stop-color="#8b7500" stop-opacity="1"></stop><stop offset="100%" stop-color="#c4a504" stop-opacity="1"></stop></radialGradient><radialGradient id="cathelineau-swordwoman-gradient-26"><stop offset="0%" stop-color="#8b7500" stop-opacity="1"></stop><stop offset="100%" stop-color="#c4a504" stop-opacity="1"></stop></radialGradient><radialGradient id="cathelineau-swordwoman-gradient-27"><stop offset="0%" stop-color="#f8e71c" stop-opacity="1"></stop><stop offset="100%" stop-color="#f5a623" stop-opacity="1"></stop></radialGradient><radialGradient id="cathelineau-swordwoman-gradient-28"><stop offset="0%" stop-color="#f8e71c" stop-opacity="1"></stop><stop offset="100%" stop-color="#f5a623" stop-opacity="1"></stop></radialGradient><radialGradient id="cathelineau-swordwoman-gradient-29"><stop offset="0%" stop-color="#f8e71c" stop-opacity="1"></stop><stop offset="100%" stop-color="#f5a623" stop-opacity="1"></stop></radialGradient><radialGradient id="cathelineau-swordwoman-gradient-30"><stop offset="0%" stop-color="#f8e71c" stop-opacity="1"></stop><stop offset="100%" stop-color="#f5a623" stop-opacity="1"></stop></radialGradient><radialGradient id="cathelineau-swordwoman-gradient-31"><stop offset="0%" stop-color="#8b7500" stop-opacity="1"></stop><stop offset="100%" stop-color="#c4a504" stop-opacity="1"></stop></radialGradient><radialGradient id="cathelineau-swordwoman-gradient-32"><stop offset="0%" stop-color="#f8e71c" stop-opacity="1"></stop><stop offset="100%" stop-color="#f5a623" stop-opacity="1"></stop></radialGradient><radialGradient id="cathelineau-swordwoman-gradient-33"><stop offset="0%" stop-color="#8b7500" stop-opacity="1"></stop><stop offset="100%" stop-color="#c4a504" stop-opacity="1"></stop></radialGradient><radialGradient id="cathelineau-swordwoman-gradient-34"><stop offset="0%" stop-color="#f8e71c" stop-opacity="1"></stop><stop offset="100%" stop-color="#f5a623" stop-opacity="1"></stop></radialGradient><radialGradient id="cathelineau-swordwoman-gradient-35"><stop offset="0%" stop-color="#f8e71c" stop-opacity="1"></stop><stop offset="100%" stop-color="#f5a623" stop-opacity="1"></stop></radialGradient><radialGradient id="cathelineau-swordwoman-gradient-36"><stop offset="0%" stop-color="#f8e71c" stop-opacity="1"></stop><stop offset="100%" stop-color="#f5a623" stop-opacity="1"></stop></radialGradient><radialGradient id="cathelineau-swordwoman-gradient-37"><stop offset="0%" stop-color="#f8e71c" stop-opacity="1"></stop><stop offset="100%" stop-color="#f5a623" stop-opacity="1"></stop></radialGradient><linearGradient x1="0" x2="1" y1="0" y2="1" id="cathelineau-swordwoman-gradient-38"><stop offset="0%" stop-color="#8b7500" stop-opacity="1"></stop><stop offset="100%" stop-color="#c4a504" stop-opacity="1"></stop></linearGradient><linearGradient x1="0" x2="1" y1="0" y2="1" id="cathelineau-swordwoman-gradient-39"><stop offset="0%" stop-color="#8b7500" stop-opacity="1"></stop><stop offset="100%" stop-color="#c4a504" stop-opacity="1"></stop></linearGradient><linearGradient x1="0" x2="1" y1="0" y2="1" id="cathelineau-swordwoman-gradient-40"><stop offset="0%" stop-color="#8b7500" stop-opacity="1"></stop><stop offset="100%" stop-color="#c4a504" stop-opacity="1"></stop></linearGradient><linearGradient x1="0" x2="1" y1="0" y2="1" id="cathelineau-swordwoman-gradient-41"><stop offset="0%" stop-color="#8b7500" stop-opacity="1"></stop><stop offset="100%" stop-color="#c4a504" stop-opacity="1"></stop></linearGradient><linearGradient x1="0" x2="1" y1="0" y2="1" id="cathelineau-swordwoman-gradient-42"><stop offset="0%" stop-color="#8b7500" stop-opacity="1"></stop><stop offset="100%" stop-color="#c4a504" stop-opacity="1"></stop></linearGradient><linearGradient x1="0" x2="1" y1="0" y2="1" id="cathelineau-swordwoman-gradient-43"><stop offset="0%" stop-color="#8b7500" stop-opacity="1"></stop><stop offset="100%" stop-color="#c4a504" stop-opacity="1"></stop></linearGradient><linearGradient x1="0" x2="1" y1="0" y2="1" id="cathelineau-swordwoman-gradient-44"><stop offset="0%" stop-color="#8b7500" stop-opacity="1"></stop><stop offset="100%" stop-color="#c4a504" stop-opacity="1"></stop></linearGradient><linearGradient x1="0" x2="1" y1="0" y2="1" id="cathelineau-swordwoman-gradient-45"><stop offset="0%" stop-color="#8b7500" stop-opacity="1"></stop><stop offset="100%" stop-color="#c4a504" stop-opacity="1"></stop></linearGradient><linearGradient x1="0" x2="1" y1="0" y2="1" id="cathelineau-swordwoman-gradient-46"><stop offset="0%" stop-color="#8b7500" stop-opacity="1"></stop><stop offset="100%" stop-color="#c4a504" stop-opacity="1"></stop></linearGradient></defs><g class="" transform="translate(0,0)" style=""><g><path d="M467.838 35.848C414.63 39.366 366.554 43.939 328.698 86.028C338.567 115.591 354.866 151.912 375.311 181.262C395.815 210.698 420.069 231.852 443.921 234.559C479.186 201.502 497.62 121.96 467.838 35.848Z" class="" fill="url(#cathelineau-swordwoman-gradient-2)" stroke="#000000" stroke-opacity="1" stroke-width="2"></path><path d="M194.207 44.36C193.245 44.38 192.267 44.426 191.27 44.499C174.33 45.746 164.977 52.149 157.445 62.44C149.913 72.731 144.887 87.457 140.061 103.757C134.631 122.091 133.788 145.483 138.398 164.239C142.926 182.657 151.89 195.443 165.338 198.694C165.526 197.526 165.758 196.168 165.943 194.192C166.763 185.426 169.157 170.616 180.834 151.478C173.084 144.026 166.164 137.784 162.713 128.86C160.639 123.499 160.321 117.265 161.873 110.868C163.425 104.472 166.599 97.729 171.488 89.608L171.525 89.548L171.562 89.488C180.13 75.814 198.106 67.802 215.076 61.743C220.471 59.817 225.604 58.341 230.498 57.091C219.345 49.641 208.641 44.061 194.207 44.361Z" class="" fill="url(#cathelineau-swordwoman-gradient-3)" stroke="#000000" stroke-opacity="1" stroke-width="2"></path><path d="M239.277 71.362C233.861 72.526 227.207 74.402 220.457 76.812C204.991 82.333 189.03 91.81 185.148 97.95C180.768 105.24 178.37 110.734 177.422 114.642C176.47 118.567 176.722 120.722 177.637 123.089C179.468 127.824 186.407 134.212 196.73 144.681L201.346 149.361L197.648 154.798C192.3 162.662 188.858 169.362 186.576 175.149C192.392 178.505 198.443 180.827 204.504 182.029C206.895 239.535 185.074 225.911 133.969 255.634L149.857 287.324C176.497 277.039 192.314 271.105 205.898 258.433C217.891 270.499 232.748 280.823 250.053 291.87C250.018 303.428 198.648 372.107 197.561 371.745C198.564 372.907 199.654 373.991 200.822 374.987C229.922 384.075 254.282 383.195 276.712 376.259C276.809 375.965 276.912 375.671 277.008 375.378C289.765 370.916 302.885 364.946 315.637 357.948C336.224 345.203 356.082 328.653 376.744 312.103C366.434 289.313 335.185 277.267 314.611 268.157C324.381 248.141 320.004 226.767 317.127 207.607C335.864 205.615 350.143 199.766 363.654 192.462C363.166 191.773 362.665 191.099 362.182 190.405C355.133 180.287 348.594 169.494 342.622 158.474C314.398 170.558 283.592 175.471 252.48 159.329C262.631 140.943 262.587 115.447 252.363 92.374C248.943 84.733 244.512 77.62 239.277 71.362Z" class="" fill="url(#cathelineau-swordwoman-gradient-4)" stroke="#000000" stroke-opacity="1" stroke-width="2"></path><path d="M15.471 87.31L18.758 121.4L71.358 229.17L92.926 218.644L40.543 111.319L15.471 87.309Z" class="selected" fill="url(#cathelineau-swordwoman-gradient-5)" stroke="#000000" stroke-opacity="1" stroke-width="2"></path><path d="M112.537 226.876L65.781 249.698L68.918 268.194L125.189 240.73L112.537 226.876Z" class="" fill="url(#cathelineau-swordwoman-gradient-6)" stroke="#000000" stroke-opacity="1" stroke-width="2"></path><path d="M114.855 263.577L93.287 274.105L109.955 308.255L131.523 297.728L114.855 263.578Z" class="" fill="url(#cathelineau-swordwoman-gradient-7)" stroke="#000000" stroke-opacity="1" stroke-width="2"></path><path d="M370.713 337.511C358.449 347.371 346.082 357.068 333.191 365.72C359.639 404.405 380.961 445.643 406.238 482.724L442.058 467.974C415.482 421.142 397.595 385.369 370.713 337.511Z" class="" fill="url(#cathelineau-swordwoman-gradient-8)" stroke="#000000" stroke-opacity="1" stroke-width="2"></path><path d="M270.459 394.319C255.189 397.657 238.893 398.532 221.389 396.046C213.824 425.653 203.727 455.955 195.439 490.086L229.15 495.003C242.364 463.082 257.962 428.718 270.459 394.319Z" class="" fill="url(#cathelineau-swordwoman-gradient-9)" stroke="#000000" stroke-opacity="1" stroke-width="2"></path></g></g></svg>