<svg xmlns="http://www.w3.org/2000/svg" viewBox="0 0 512 512" style="height: 512px; width: 512px;"><defs><linearGradient x1="0" x2="1" y1="0" y2="1" id="delapouite-shoulder-armor-gradient-1"><stop offset="0%" stop-color="#ffe0af" stop-opacity="1"></stop><stop offset="100%" stop-color="#faf5ed" stop-opacity="1"></stop></linearGradient><radialGradient id="delapouite-shoulder-armor-gradient-2"><stop offset="0%" stop-color="#f0f3f3" stop-opacity="1"></stop><stop offset="100%" stop-color="#c4f8ee" stop-opacity="1"></stop></radialGradient><linearGradient x1="0" x2="1" y1="1" y2="0" id="delapouite-shoulder-armor-gradient-3"><stop offset="0%" stop-color="#ffffff" stop-opacity="1"></stop><stop offset="100%" stop-color="#c4f8ee" stop-opacity="1"></stop></linearGradient><linearGradient x1="0" x2="1" y1="0" y2="1" id="delapouite-shoulder-armor-gradient-4"><stop offset="0%" stop-color="#c4f8ee" stop-opacity="1"></stop><stop offset="100%" stop-color="#ffffff" stop-opacity="1"></stop></linearGradient><linearGradient x1="0" x2="1" y1="1" y2="0" id="delapouite-shoulder-armor-gradient-5"><stop offset="0%" stop-color="#c4f8ee" stop-opacity="1"></stop><stop offset="100%" stop-color="#48baff" stop-opacity="1"></stop></linearGradient><linearGradient id="delapouite-shoulder-armor-gradient-6" x1="0" x2="1" y1="0" y2="1"><stop offset="0%" stop-color="#48baff" stop-opacity="1"></stop><stop offset="100%" stop-color="#c4f8ee" stop-opacity="1"></stop></linearGradient><linearGradient id="delapouite-shoulder-armor-gradient-7"><stop offset="0%" stop-color="#b5e4db" stop-opacity="1"></stop><stop offset="100%" stop-color="#42aae9" stop-opacity="1"></stop></linearGradient><linearGradient id="delapouite-shoulder-armor-gradient-8"><stop offset="0%" stop-color="#42aae9" stop-opacity="1"></stop><stop offset="100%" stop-color="#b5e4db" stop-opacity="1"></stop></linearGradient><linearGradient x1="0" x2="0" y1="0" y2="1" id="delapouite-shoulder-armor-gradient-9"><stop offset="0%" stop-color="#c4f8ee" stop-opacity="1"></stop><stop offset="100%" stop-color="#ffffff" stop-opacity="1"></stop></linearGradient><linearGradient x1="0" x2="0" y1="0" y2="1" id="delapouite-shoulder-armor-gradient-10"><stop offset="0%" stop-color="#c4f8ee" stop-opacity="1"></stop><stop offset="100%" stop-color="#ffffff" stop-opacity="1"></stop></linearGradient></defs><g class="" transform="translate(0,0)" style=""><g><path d="M208 56.643L192 120.643L93.432 134.725L256 175.365L418.568 134.725L320 120.643L304 56.643L276.732 74.823L264.73 122.826L247.27 122.826L235.268 74.822Z" class="selected" fill="url(#delapouite-shoulder-armor-gradient-2)" stroke="#000000" stroke-opacity="1" stroke-width="2"></path><path d="M69.379 147.263L16 200.644L64 264.644L89.77 238.874L116.389 159.017Z" class="" fill="url(#delapouite-shoulder-armor-gradient-3)" stroke="#000000" stroke-opacity="1" stroke-width="2"></path><path d="M442.621 147.263L395.611 159.016L422.231 238.873L448 264.643L496 200.643Z" class="" fill="url(#delapouite-shoulder-armor-gradient-4)" stroke="#000000" stroke-opacity="1" stroke-width="2"></path><path d="M133.904 163.395L113.781 223.764L127.591 279.01L247 345.348L247 191.67Z" class="" fill="url(#delapouite-shoulder-armor-gradient-5)" stroke="#000000" stroke-opacity="1" stroke-width="2"></path><path d="M378.096 163.395L265 191.67L265 345.348L384.408 279.01L398.218 223.764Z" class="" fill="url(#delapouite-shoulder-armor-gradient-6)" stroke="#000000" stroke-opacity="1" stroke-width="2"></path><path d="M144 308.715L144 365.029L247 395.656L247 365.937Z" class="" fill="url(#delapouite-shoulder-armor-gradient-7)" stroke="#000000" stroke-opacity="1" stroke-width="2"></path><path d="M368 308.715L265 365.938L265 395.656L368 365.029Z" class="" fill="url(#delapouite-shoulder-armor-gradient-8)" stroke="#000000" stroke-opacity="1" stroke-width="2"></path><path d="M144 384.255L144 440.643L247 455.357L247 414.88Z" class="" fill="url(#delapouite-shoulder-armor-gradient-9)" stroke="#000000" stroke-opacity="1" stroke-width="2"></path><path d="M368 384.255L265 414.88L265 455.358L368 440.644Z" class="" fill="url(#delapouite-shoulder-armor-gradient-10)" stroke="#000000" stroke-opacity="1" stroke-width="2"></path></g></g></svg>