<svg xmlns="http://www.w3.org/2000/svg" viewBox="0 0 512 512" style="height: 512px; width: 512px;"><defs><linearGradient x1="0" x2="1" y1="0" y2="1" id="gradient-1"><stop offset="0%" stop-color="#930012" stop-opacity="1"></stop><stop offset="100%" stop-color="#ff0000" stop-opacity="1"></stop></linearGradient><radialGradient id="gradient-2"><stop offset="0%" stop-color="#f8e71c" stop-opacity="1"></stop><stop offset="100%" stop-color="#f5a623" stop-opacity="1"></stop></radialGradient><radialGradient id="gradient-3"><stop offset="0%" stop-color="#f8e71c" stop-opacity="1"></stop><stop offset="100%" stop-color="#f5a623" stop-opacity="1"></stop></radialGradient><radialGradient id="gradient-4"><stop offset="0%" stop-color="#c9c9c9" stop-opacity="1"></stop><stop offset="100%" stop-color="#9b9b9b" stop-opacity="1"></stop></radialGradient><linearGradient x1="0" x2="0" y1="0" y2="1" id="gradient-5"><stop offset="0%" stop-color="#d0021b" stop-opacity="1"></stop><stop offset="100%" stop-color="#a70317" stop-opacity="1"></stop></linearGradient><radialGradient id="gradient-6"><stop offset="0%" stop-color="#d0021b" stop-opacity="1"></stop><stop offset="100%" stop-color="#a70317" stop-opacity="1"></stop></radialGradient><radialGradient id="gradient-7"><stop offset="0%" stop-color="#8b572a" stop-opacity="1"></stop><stop offset="100%" stop-color="#4f1e03" stop-opacity="1"></stop></radialGradient><linearGradient x1="0" x2="0" y1="0" y2="1" id="gradient-8"><stop offset="0%" stop-color="#d0021b" stop-opacity="1"></stop><stop offset="100%" stop-color="#000000" stop-opacity="1"></stop></linearGradient><linearGradient x1="0" x2="0" y1="0" y2="1" id="gradient-9"><stop offset="0%" stop-color="#d0021b" stop-opacity="1"></stop><stop offset="100%" stop-color="#000000" stop-opacity="1"></stop></linearGradient><radialGradient id="gradient-10"><stop offset="0%" stop-color="#8b572a" stop-opacity="1"></stop><stop offset="100%" stop-color="#4f1e03" stop-opacity="1"></stop></radialGradient><radialGradient id="gradient-11"><stop offset="0%" stop-color="#8b572a" stop-opacity="1"></stop><stop offset="100%" stop-color="#4f1e03" stop-opacity="1"></stop></radialGradient><radialGradient id="gradient-12"><stop offset="0%" stop-color="#f8e71c" stop-opacity="1"></stop><stop offset="100%" stop-color="#f5a623" stop-opacity="1"></stop></radialGradient><radialGradient id="gradient-13"><stop offset="0%" stop-color="#8b572a" stop-opacity="1"></stop><stop offset="100%" stop-color="#4f1e03" stop-opacity="1"></stop></radialGradient><radialGradient id="gradient-14"><stop offset="0%" stop-color="#b57204" stop-opacity="1"></stop><stop offset="100%" stop-color="#8b572a" stop-opacity="1"></stop></radialGradient><radialGradient id="gradient-15"><stop offset="0%" stop-color="#b57204" stop-opacity="1"></stop><stop offset="100%" stop-color="#8b572a" stop-opacity="1"></stop></radialGradient><radialGradient id="gradient-16"><stop offset="0%" stop-color="#b57204" stop-opacity="1"></stop><stop offset="100%" stop-color="#8b572a" stop-opacity="1"></stop></radialGradient><radialGradient id="gradient-17"><stop offset="0%" stop-color="#b57204" stop-opacity="1"></stop><stop offset="100%" stop-color="#8b572a" stop-opacity="1"></stop></radialGradient><radialGradient id="gradient-18"><stop offset="0%" stop-color="#c9c9c9" stop-opacity="1"></stop><stop offset="100%" stop-color="#9b9b9b" stop-opacity="1"></stop></radialGradient><radialGradient id="gradient-19"><stop offset="0%" stop-color="#f8e71c" stop-opacity="1"></stop><stop offset="100%" stop-color="#f5a623" stop-opacity="1"></stop></radialGradient><radialGradient id="gradient-20"><stop offset="0%" stop-color="#f8e71c" stop-opacity="1"></stop><stop offset="100%" stop-color="#f5a623" stop-opacity="1"></stop></radialGradient><radialGradient id="gradient-21"><stop offset="0%" stop-color="#f8e71c" stop-opacity="1"></stop><stop offset="100%" stop-color="#f5a623" stop-opacity="1"></stop></radialGradient><radialGradient id="gradient-22"><stop offset="0%" stop-color="#f8e71c" stop-opacity="1"></stop><stop offset="100%" stop-color="#f5a623" stop-opacity="1"></stop></radialGradient><radialGradient id="gradient-23"><stop offset="0%" stop-color="#f8e71c" stop-opacity="1"></stop><stop offset="100%" stop-color="#f5a623" stop-opacity="1"></stop></radialGradient><radialGradient id="gradient-24"><stop offset="0%" stop-color="#f8e71c" stop-opacity="1"></stop><stop offset="100%" stop-color="#f5a623" stop-opacity="1"></stop></radialGradient><radialGradient id="gradient-25"><stop offset="0%" stop-color="#f8e71c" stop-opacity="1"></stop><stop offset="100%" stop-color="#f5a623" stop-opacity="1"></stop></radialGradient><radialGradient id="gradient-26"><stop offset="0%" stop-color="#f8e71c" stop-opacity="1"></stop><stop offset="100%" stop-color="#f5a623" stop-opacity="1"></stop></radialGradient><radialGradient id="gradient-27"><stop offset="0%" stop-color="#f8e71c" stop-opacity="1"></stop><stop offset="100%" stop-color="#f5a623" stop-opacity="1"></stop></radialGradient><radialGradient id="gradient-28"><stop offset="0%" stop-color="#f8e71c" stop-opacity="1"></stop><stop offset="100%" stop-color="#f5a623" stop-opacity="1"></stop></radialGradient><radialGradient id="gradient-29"><stop offset="0%" stop-color="#f8e71c" stop-opacity="1"></stop><stop offset="100%" stop-color="#f5a623" stop-opacity="1"></stop></radialGradient><radialGradient id="gradient-30"><stop offset="0%" stop-color="#f8e71c" stop-opacity="1"></stop><stop offset="100%" stop-color="#f5a623" stop-opacity="1"></stop></radialGradient><radialGradient id="gradient-31"><stop offset="0%" stop-color="#f8e71c" stop-opacity="1"></stop><stop offset="100%" stop-color="#f5a623" stop-opacity="1"></stop></radialGradient><radialGradient id="gradient-32"><stop offset="0%" stop-color="#f8e71c" stop-opacity="1"></stop><stop offset="100%" stop-color="#f5a623" stop-opacity="1"></stop></radialGradient><radialGradient id="gradient-33"><stop offset="0%" stop-color="#7ed321" stop-opacity="1"></stop><stop offset="100%" stop-color="#417505" stop-opacity="1"></stop></radialGradient><radialGradient id="gradient-34"><stop offset="0%" stop-color="#f8e71c" stop-opacity="1"></stop><stop offset="100%" stop-color="#f5a623" stop-opacity="1"></stop></radialGradient><radialGradient id="gradient-35"><stop offset="0%" stop-color="#f8e71c" stop-opacity="1"></stop><stop offset="100%" stop-color="#f5a623" stop-opacity="1"></stop></radialGradient><radialGradient id="gradient-36"><stop offset="0%" stop-color="#f8e71c" stop-opacity="1"></stop><stop offset="100%" stop-color="#f5a623" stop-opacity="1"></stop></radialGradient></defs><g class="" transform="translate(3,0)" style="touch-action: none;"><g><path d="M155.8 25.14C125.6 25.48 92.28 29.46 67.03 38.48C53.82 43.19 42.93 49.26 35.77 56.21C31.03 60.81 27.99 65.65 26.38 71.11C59.72 71.15 118.4 72.49 158.6 99.89C168.3 87.25 170.6 72.81 169.1 58.99C167.5 44.89 161.3 32.07 155.8 25.14Z" class="" fill="url(#gradient-2)" stroke="#000000" stroke-opacity="1" stroke-width="1"></path><path d="M356.2 25.14C350.7 32.07 344.5 44.89 342.9 58.99C341.4 72.81 343.7 87.25 353.4 99.89C393.6 72.49 452.3 71.11 485.6 71.11C484 65.65 481 60.81 476.2 56.21C469.1 49.26 458.2 43.19 445 38.48C419.7 29.46 386.4 25.48 356.2 25.14Z" class="" fill="url(#gradient-3)" stroke="#000000" stroke-opacity="1" stroke-width="1"></path><path d="M187.4 66.59C187.4 74.53 186.2 82.73 183.5 90.75C205.8 112.5 231 123 256 123C281 123 306.2 112.5 328.5 90.74C325.9 83 324.7 75.1 324.6 67.43C277.7 75.16 232 74.24 187.4 66.59Z" class="" fill="url(#gradient-4)" stroke="#000000" stroke-opacity="1" stroke-width="1"></path><path d="M103.1 96.85C102.3 112.5 101.3 129.3 99.86 147.1C109.3 143.9 119.4 138.9 129 132.5C136.5 127.5 143.6 121.7 149.8 115.6C137 106.7 120.5 100.8 103.1 96.85Z" class="" fill="url(#gradient-5)" stroke="#000000" stroke-opacity="1" stroke-width="1"></path><path d="M408.9 96.86C391.5 100.8 375 106.7 362.2 115.6C368.4 121.7 375.5 127.5 383 132.5C392.6 138.8 402.7 143.9 412.1 147.1C410.7 129.4 409.7 112.5 408.9 96.86Z" class="" fill="url(#gradient-6)" stroke="#000000" stroke-opacity="1" stroke-width="1"></path><path d="M178 110.1C168.4 124.3 154.4 137.2 139 147.5C126 156.2 112 163 98.45 166.4C103.8 172.4 109.4 178.9 114.9 185.7C137.1 200.3 155.7 207 176 207C196.9 207 220.6 199.6 252 183.9L256 181.9L260 183.9C291.4 199.6 315.1 207 336 207C356.3 207 374.9 200.3 397.1 185.7C402.6 178.9 408.1 172.4 413.5 166.4C400 163 386 156.2 373 147.5C357.6 137.2 343.6 124.3 334 110.1C310.4 130.4 283.3 141 256 141C228.7 141 201.6 130.4 178 110.1Z" class="" fill="url(#gradient-7)" stroke="#000000" stroke-opacity="1" stroke-width="1"></path><path d="M95.88 190.9C86.14 285.7 67.12 397.9 32.59 493.3C57.18 481.3 82.92 471.4 109.4 463.7C101.1 444 92.86 413 103.5 381.2C117.8 338 144.1 295.9 150.9 285.5C149.5 273.3 139.1 250.8 124.5 229C115.8 215.9 105.7 202.7 95.88 190.9Z" class="" fill="url(#gradient-8)" stroke="#000000" stroke-opacity="1" stroke-width="1"></path><path d="M416.1 190.9C406.2 202.7 396.2 215.9 387.5 229C372.9 250.8 362.5 273.3 361.1 285.5C367.9 295.9 394.2 338 408.5 381.2C419.1 413 410.9 444 402.6 463.7C429.1 471.4 454.8 481.3 479.4 493.3C444.9 397.9 425.9 285.7 416.1 190.9Z" class="" fill="url(#gradient-9)" stroke="#000000" stroke-opacity="1" stroke-width="1"></path><path d="M247 206.2C220.3 218.4 197.6 225 176 225C163.3 225 151.2 222.7 139 218.3C139.2 218.6 139.3 218.8 139.5 219C154.7 241.8 166.9 264 168.7 283.4C175.1 288.7 186.6 293.8 201.1 297.2C206.3 298.4 211.9 299.5 217.6 300.3C219.9 295.4 223.6 291.1 228 287.8C233.3 283.8 239.8 281.1 247 279.8L247 206.2Z" class="" fill="url(#gradient-10)" stroke="#000000" stroke-opacity="1" stroke-width="1"></path><path d="M265 206.2L265 279.8C272.2 281.1 278.7 283.8 284 287.8C288.4 291.1 292.1 295.4 294.4 300.3C300.1 299.5 305.7 298.4 310.9 297.2C325.4 293.8 336.9 288.7 343.3 283.4C345.1 264 357.3 241.8 372.5 219C372.7 218.8 372.8 218.6 373 218.3C360.8 222.7 348.7 225 336 225C314.4 225 291.7 218.4 265 206.2Z" class="" fill="url(#gradient-11)" stroke="#000000" stroke-opacity="1" stroke-width="1"></path><path d="M256 297C249 297 242.8 299.2 238.8 302.2C234.7 305.3 233 308.6 233 312C233 315.4 234.7 318.7 238.8 321.8C242.8 324.8 249 327 256 327C263 327 269.2 324.8 273.2 321.8C277.3 318.7 279 315.4 279 312C279 308.6 277.3 305.3 273.2 302.2C269.2 299.2 263 297 256 297Z" class="" fill="url(#gradient-12)" stroke="#000000" stroke-opacity="1" stroke-width="3"></path><path d="M162.2 301.3C153.5 315.3 132.6 350.6 120.5 386.8C107.2 426.9 131 467.6 134.3 473C164.3 487.2 210.1 495 256 495C301.9 495 347.7 487.2 377.7 473C381 467.6 404.8 426.9 391.5 386.8C379.4 350.6 358.5 315.3 349.8 301.3C340.4 307.4 328.4 311.7 315.1 314.8C309.1 316.2 302.8 317.4 296.2 318.3C294.5 325.5 289.9 331.7 284 336.2C276.5 341.8 266.7 345 256 345C245.3 345 235.5 341.8 228 336.2C222.1 331.7 217.5 325.5 215.8 318.3C209.2 317.4 202.9 316.2 196.9 314.8C183.6 311.7 171.6 307.4 162.2 301.3Z" class="selected" fill="url(#gradient-13)" stroke="#000000" stroke-opacity="1" stroke-width="3"></path></g></g></svg>