<svg xmlns="http://www.w3.org/2000/svg" viewBox="0 0 512 512" style="height: 512px; width: 512px;"><defs><linearGradient x1="0" x2="1" y1="0" y2="1" id="gradient-1"><stop offset="0%" stop-color="#930012" stop-opacity="1"></stop><stop offset="100%" stop-color="#ff0000" stop-opacity="1"></stop></linearGradient><radialGradient id="gradient-2"><stop offset="0%" stop-color="#7e3100" stop-opacity="1"></stop><stop offset="100%" stop-color="#8b3f2a" stop-opacity="1"></stop></radialGradient><radialGradient id="gradient-3"><stop offset="0%" stop-color="#4a4a4a" stop-opacity="1"></stop><stop offset="100%" stop-color="#000000" stop-opacity="1"></stop></radialGradient><radialGradient id="gradient-4"><stop offset="0%" stop-color="#4a4a4a" stop-opacity="1"></stop><stop offset="100%" stop-color="#000000" stop-opacity="1"></stop></radialGradient><radialGradient id="gradient-5"><stop offset="0%" stop-color="#543011" stop-opacity="1"></stop><stop offset="100%" stop-color="#4f1e03" stop-opacity="1"></stop></radialGradient><radialGradient id="gradient-6"><stop offset="0%" stop-color="#543011" stop-opacity="1"></stop><stop offset="100%" stop-color="#4f1e03" stop-opacity="1"></stop></radialGradient><radialGradient id="gradient-7"><stop offset="0%" stop-color="#543011" stop-opacity="1"></stop><stop offset="100%" stop-color="#4f1e03" stop-opacity="1"></stop></radialGradient><radialGradient id="gradient-8"><stop offset="0%" stop-color="#f8e71c" stop-opacity="1"></stop><stop offset="100%" stop-color="#8b572a" stop-opacity="1"></stop></radialGradient><radialGradient id="gradient-9"><stop offset="0%" stop-color="#f8e71c" stop-opacity="1"></stop><stop offset="100%" stop-color="#8b572a" stop-opacity="1"></stop></radialGradient><radialGradient id="gradient-10"><stop offset="0%" stop-color="#fc88fc" stop-opacity="1"></stop><stop offset="100%" stop-color="#d0021b" stop-opacity="1"></stop></radialGradient><radialGradient id="gradient-11"><stop offset="0%" stop-color="#fc88fc" stop-opacity="1"></stop><stop offset="100%" stop-color="#d0021b" stop-opacity="1"></stop></radialGradient><radialGradient id="gradient-12"><stop offset="0%" stop-color="#ffffff" stop-opacity="1"></stop><stop offset="100%" stop-color="#c9c9c9" stop-opacity="1"></stop></radialGradient><radialGradient id="gradient-13"><stop offset="0%" stop-color="#b57204" stop-opacity="1"></stop><stop offset="100%" stop-color="#8b572a" stop-opacity="1"></stop></radialGradient><radialGradient id="gradient-14"><stop offset="0%" stop-color="#b57204" stop-opacity="1"></stop><stop offset="100%" stop-color="#8b572a" stop-opacity="1"></stop></radialGradient><radialGradient id="gradient-15"><stop offset="0%" stop-color="#b57204" stop-opacity="1"></stop><stop offset="100%" stop-color="#8b572a" stop-opacity="1"></stop></radialGradient><radialGradient id="gradient-16"><stop offset="0%" stop-color="#b57204" stop-opacity="1"></stop><stop offset="100%" stop-color="#8b572a" stop-opacity="1"></stop></radialGradient><radialGradient id="gradient-17"><stop offset="0%" stop-color="#b57204" stop-opacity="1"></stop><stop offset="100%" stop-color="#8b572a" stop-opacity="1"></stop></radialGradient><radialGradient id="gradient-18"><stop offset="0%" stop-color="#c9c9c9" stop-opacity="1"></stop><stop offset="100%" stop-color="#9b9b9b" stop-opacity="1"></stop></radialGradient><radialGradient id="gradient-19"><stop offset="0%" stop-color="#f8e71c" stop-opacity="1"></stop><stop offset="100%" stop-color="#f5a623" stop-opacity="1"></stop></radialGradient><radialGradient id="gradient-20"><stop offset="0%" stop-color="#f8e71c" stop-opacity="1"></stop><stop offset="100%" stop-color="#f5a623" stop-opacity="1"></stop></radialGradient><radialGradient id="gradient-21"><stop offset="0%" stop-color="#f8e71c" stop-opacity="1"></stop><stop offset="100%" stop-color="#f5a623" stop-opacity="1"></stop></radialGradient><radialGradient id="gradient-22"><stop offset="0%" stop-color="#f8e71c" stop-opacity="1"></stop><stop offset="100%" stop-color="#f5a623" stop-opacity="1"></stop></radialGradient><radialGradient id="gradient-23"><stop offset="0%" stop-color="#f8e71c" stop-opacity="1"></stop><stop offset="100%" stop-color="#f5a623" stop-opacity="1"></stop></radialGradient><radialGradient id="gradient-24"><stop offset="0%" stop-color="#f8e71c" stop-opacity="1"></stop><stop offset="100%" stop-color="#f5a623" stop-opacity="1"></stop></radialGradient><radialGradient id="gradient-25"><stop offset="0%" stop-color="#f8e71c" stop-opacity="1"></stop><stop offset="100%" stop-color="#f5a623" stop-opacity="1"></stop></radialGradient><radialGradient id="gradient-26"><stop offset="0%" stop-color="#f8e71c" stop-opacity="1"></stop><stop offset="100%" stop-color="#f5a623" stop-opacity="1"></stop></radialGradient><radialGradient id="gradient-27"><stop offset="0%" stop-color="#f8e71c" stop-opacity="1"></stop><stop offset="100%" stop-color="#f5a623" stop-opacity="1"></stop></radialGradient><radialGradient id="gradient-28"><stop offset="0%" stop-color="#f8e71c" stop-opacity="1"></stop><stop offset="100%" stop-color="#f5a623" stop-opacity="1"></stop></radialGradient><radialGradient id="gradient-29"><stop offset="0%" stop-color="#f8e71c" stop-opacity="1"></stop><stop offset="100%" stop-color="#f5a623" stop-opacity="1"></stop></radialGradient><radialGradient id="gradient-30"><stop offset="0%" stop-color="#f8e71c" stop-opacity="1"></stop><stop offset="100%" stop-color="#f5a623" stop-opacity="1"></stop></radialGradient><radialGradient id="gradient-31"><stop offset="0%" stop-color="#f8e71c" stop-opacity="1"></stop><stop offset="100%" stop-color="#f5a623" stop-opacity="1"></stop></radialGradient><radialGradient id="gradient-32"><stop offset="0%" stop-color="#f8e71c" stop-opacity="1"></stop><stop offset="100%" stop-color="#f5a623" stop-opacity="1"></stop></radialGradient><radialGradient id="gradient-33"><stop offset="0%" stop-color="#7ed321" stop-opacity="1"></stop><stop offset="100%" stop-color="#417505" stop-opacity="1"></stop></radialGradient><radialGradient id="gradient-34"><stop offset="0%" stop-color="#f8e71c" stop-opacity="1"></stop><stop offset="100%" stop-color="#f5a623" stop-opacity="1"></stop></radialGradient><radialGradient id="gradient-35"><stop offset="0%" stop-color="#f8e71c" stop-opacity="1"></stop><stop offset="100%" stop-color="#f5a623" stop-opacity="1"></stop></radialGradient><radialGradient id="gradient-36"><stop offset="0%" stop-color="#f8e71c" stop-opacity="1"></stop><stop offset="100%" stop-color="#f5a623" stop-opacity="1"></stop></radialGradient></defs><g class="" transform="translate(1,0)" style="touch-action: none;"><g><path d="M260.375 19.656C221.595 19.656 186.38 23.591 159.875 32.063C146.622 36.298 135.485 41.619 127.062 48.843C118.642 56.069 112.938 65.93 112.938 76.937C112.938 81.409 113.855 85.721 115.468 89.813C118.901 142.029 80.323 208.073 38.188 241.219C48.082 291.784 70.833 343.684 104.718 391.029C144.682 423.434 196.386 440.886 249 443.343L249 409.593C232.825 409.443 217.12 408.925 204.5 407.999L205.875 389.374C217.835 390.252 233.163 390.73 249 390.874L249 350.97C233.706 351.54 219.016 353.512 207.937 356.906L202.437 339.031C215.96 334.889 232.267 332.519 249 331.876L249 298.376C244.108 298.639 239.233 299.138 234.406 299.814C205.551 301.264 180.934 304.939 158.5 310.407L158.28 310.127C186.31 289.237 222.33 278.813 258.344 278.814C294.359 278.814 330.378 289.239 358.406 310.126L358.281 310.314C335.765 304.851 311.034 301.201 282.031 299.782C277.285 299.126 272.498 298.634 267.689 298.377L267.689 331.877C284.423 332.52 300.729 334.89 314.251 339.033L308.781 356.909C297.697 353.513 282.994 351.543 267.689 350.972L267.689 390.877C283.532 390.733 298.849 390.255 310.814 389.377L312.188 408C299.561 408.927 283.871 409.445 267.688 409.594L267.688 443.594C322.188 442.474 376.254 425.304 417.875 392.124C453.25 344.741 476.442 293.594 486.375 243.719C442.432 211.059 401.279 141.581 406.031 87.719C407.163 84.256 407.781 80.654 407.781 76.937C407.781 65.929 402.111 56.067 393.689 48.843C385.267 41.618 374.099 36.297 360.845 32.061C334.339 23.591 299.158 19.655 260.375 19.655Z" class="" fill="url(#gradient-2)" stroke="#000000" stroke-opacity="1" stroke-width="1"></path><path d="M260.375 38.344C297.855 38.344 331.687 42.374 355.155 49.874C366.891 53.626 375.948 58.268 381.5 63.031C387.052 67.796 389.094 71.951 389.094 76.938C389.094 79.433 388.512 81.988 387.219 84.626C350.414 67.833 304.381 59.408 258.343 59.406C213.71 59.406 169.063 67.309 132.843 83.096C132.013 80.996 131.623 78.951 131.623 76.939C131.623 71.949 133.665 67.796 139.218 63.032C144.768 58.27 153.826 53.628 165.561 49.877C189.031 42.377 222.895 38.347 260.373 38.347Z" class="" fill="url(#gradient-3)" stroke="#000000" stroke-opacity="1" stroke-width="1"></path><path d="M258.345 78.812C299.618 78.812 340.905 85.528 373.531 99C368.338 102.626 361.886 106.13 354.376 109.28C330.952 119.107 297.446 125.5 260.376 125.5C223.306 125.5 189.769 119.107 166.346 109.28C158.126 105.834 151.194 101.958 145.782 97.97C177.984 85.2 218.167 78.81 258.345 78.812Z" class="" fill="url(#gradient-4)" stroke="#000000" stroke-opacity="1" stroke-width="1"></path><path d="M222.437 142.062C228.69 142.786 235.104 143.328 241.657 143.687C242.471 148.691 243.362 154.201 244.281 160.375C247.001 178.628 249.751 199.645 249.751 213.25C249.751 228.446 243.881 242.224 233.721 252.844C223.558 263.464 209.405 271.128 192.471 276.124C173.708 281.661 151.369 283.976 126.439 282.844C102.619 279.358 84.245 269.784 66.469 255.188C115.366 266.925 157.999 266.801 187.189 258.188C201.827 253.868 212.986 247.468 220.219 239.906C227.454 232.346 231.064 223.858 231.064 213.25C231.064 202.39 228.456 181.075 225.782 163.125C224.58 155.05 223.398 147.83 222.439 142.062Z" class="" fill="url(#gradient-5)" stroke="#000000" stroke-opacity="1" stroke-width="1"></path><path d="M294.125 142.532C293.179 148.237 292.017 155.252 290.845 163.125C288.17 181.075 285.562 202.39 285.562 213.25C285.562 223.858 289.172 232.346 296.406 239.906C303.64 247.466 314.799 253.868 329.436 258.186C358.546 266.776 401.024 266.921 449.75 255.281C431.988 269.843 413.625 279.411 389.812 282.876C365.034 283.968 342.824 281.634 324.156 276.126C307.221 271.129 293.068 263.466 282.906 252.846C272.744 242.226 266.876 228.446 266.876 213.251C266.876 199.645 269.656 178.629 272.376 160.376C273.281 154.296 274.164 148.859 274.969 143.906C281.487 143.63 287.884 143.168 294.124 142.532Z" class="" fill="url(#gradient-6)" stroke="#000000" stroke-opacity="1" stroke-width="1"></path><path d="M415.375 417.187C326.495 477.889 198.171 478.014 109.125 417.562L106.75 456.75C112.823 465.353 130.627 475.348 156.156 481.844C183.466 488.794 218.579 492.642 254.469 492.969C290.357 493.295 327.092 490.135 357.843 483.499C386.005 477.421 408.921 468.004 421.313 457.469L415.373 417.186Z" class="selected" fill="url(#gradient-7)" stroke="#000000" stroke-opacity="1" stroke-width="1"></path></g></g></svg>