<svg xmlns="http://www.w3.org/2000/svg" viewBox="0 0 512 512" style="height: 512px; width: 512px;"><defs><linearGradient x1="0" x2="1" y1="0" y2="1" id="gradient-1"><stop offset="0%" stop-color="#930012" stop-opacity="1"></stop><stop offset="100%" stop-color="#ff0000" stop-opacity="1"></stop></linearGradient><radialGradient id="gradient-2"><stop offset="0%" stop-color="#417505" stop-opacity="1"></stop><stop offset="100%" stop-color="#233f01" stop-opacity="1"></stop></radialGradient><radialGradient id="gradient-3"><stop offset="0%" stop-color="#417505" stop-opacity="1"></stop><stop offset="100%" stop-color="#233f01" stop-opacity="1"></stop></radialGradient><radialGradient id="gradient-4"><stop offset="0%" stop-color="#c9c9c9" stop-opacity="1"></stop><stop offset="100%" stop-color="#9b9b9b" stop-opacity="1"></stop></radialGradient><radialGradient id="gradient-5"><stop offset="0%" stop-color="#48baff" stop-opacity="1"></stop><stop offset="100%" stop-color="#4a90e2" stop-opacity="1"></stop></radialGradient><radialGradient id="gradient-6"><stop offset="0%" stop-color="#48baff" stop-opacity="1"></stop><stop offset="100%" stop-color="#4a90e2" stop-opacity="1"></stop></radialGradient><radialGradient id="gradient-7"><stop offset="0%" stop-color="#543011" stop-opacity="1"></stop><stop offset="100%" stop-color="#4f1e03" stop-opacity="1"></stop></radialGradient><radialGradient id="gradient-8"><stop offset="0%" stop-color="#f8e71c" stop-opacity="1"></stop><stop offset="100%" stop-color="#8b572a" stop-opacity="1"></stop></radialGradient><radialGradient id="gradient-9"><stop offset="0%" stop-color="#f8e71c" stop-opacity="1"></stop><stop offset="100%" stop-color="#8b572a" stop-opacity="1"></stop></radialGradient><radialGradient id="gradient-10"><stop offset="0%" stop-color="#fc88fc" stop-opacity="1"></stop><stop offset="100%" stop-color="#d0021b" stop-opacity="1"></stop></radialGradient><radialGradient id="gradient-11"><stop offset="0%" stop-color="#fc88fc" stop-opacity="1"></stop><stop offset="100%" stop-color="#d0021b" stop-opacity="1"></stop></radialGradient><radialGradient id="gradient-12"><stop offset="0%" stop-color="#ffffff" stop-opacity="1"></stop><stop offset="100%" stop-color="#c9c9c9" stop-opacity="1"></stop></radialGradient><radialGradient id="gradient-13"><stop offset="0%" stop-color="#b57204" stop-opacity="1"></stop><stop offset="100%" stop-color="#8b572a" stop-opacity="1"></stop></radialGradient><radialGradient id="gradient-14"><stop offset="0%" stop-color="#b57204" stop-opacity="1"></stop><stop offset="100%" stop-color="#8b572a" stop-opacity="1"></stop></radialGradient><radialGradient id="gradient-15"><stop offset="0%" stop-color="#b57204" stop-opacity="1"></stop><stop offset="100%" stop-color="#8b572a" stop-opacity="1"></stop></radialGradient><radialGradient id="gradient-16"><stop offset="0%" stop-color="#b57204" stop-opacity="1"></stop><stop offset="100%" stop-color="#8b572a" stop-opacity="1"></stop></radialGradient><radialGradient id="gradient-17"><stop offset="0%" stop-color="#b57204" stop-opacity="1"></stop><stop offset="100%" stop-color="#8b572a" stop-opacity="1"></stop></radialGradient><radialGradient id="gradient-18"><stop offset="0%" stop-color="#c9c9c9" stop-opacity="1"></stop><stop offset="100%" stop-color="#9b9b9b" stop-opacity="1"></stop></radialGradient><radialGradient id="gradient-19"><stop offset="0%" stop-color="#f8e71c" stop-opacity="1"></stop><stop offset="100%" stop-color="#f5a623" stop-opacity="1"></stop></radialGradient><radialGradient id="gradient-20"><stop offset="0%" stop-color="#f8e71c" stop-opacity="1"></stop><stop offset="100%" stop-color="#f5a623" stop-opacity="1"></stop></radialGradient><radialGradient id="gradient-21"><stop offset="0%" stop-color="#f8e71c" stop-opacity="1"></stop><stop offset="100%" stop-color="#f5a623" stop-opacity="1"></stop></radialGradient><radialGradient id="gradient-22"><stop offset="0%" stop-color="#f8e71c" stop-opacity="1"></stop><stop offset="100%" stop-color="#f5a623" stop-opacity="1"></stop></radialGradient><radialGradient id="gradient-23"><stop offset="0%" stop-color="#f8e71c" stop-opacity="1"></stop><stop offset="100%" stop-color="#f5a623" stop-opacity="1"></stop></radialGradient><radialGradient id="gradient-24"><stop offset="0%" stop-color="#f8e71c" stop-opacity="1"></stop><stop offset="100%" stop-color="#f5a623" stop-opacity="1"></stop></radialGradient><radialGradient id="gradient-25"><stop offset="0%" stop-color="#f8e71c" stop-opacity="1"></stop><stop offset="100%" stop-color="#f5a623" stop-opacity="1"></stop></radialGradient><radialGradient id="gradient-26"><stop offset="0%" stop-color="#f8e71c" stop-opacity="1"></stop><stop offset="100%" stop-color="#f5a623" stop-opacity="1"></stop></radialGradient><radialGradient id="gradient-27"><stop offset="0%" stop-color="#f8e71c" stop-opacity="1"></stop><stop offset="100%" stop-color="#f5a623" stop-opacity="1"></stop></radialGradient><radialGradient id="gradient-28"><stop offset="0%" stop-color="#f8e71c" stop-opacity="1"></stop><stop offset="100%" stop-color="#f5a623" stop-opacity="1"></stop></radialGradient><radialGradient id="gradient-29"><stop offset="0%" stop-color="#f8e71c" stop-opacity="1"></stop><stop offset="100%" stop-color="#f5a623" stop-opacity="1"></stop></radialGradient><radialGradient id="gradient-30"><stop offset="0%" stop-color="#f8e71c" stop-opacity="1"></stop><stop offset="100%" stop-color="#f5a623" stop-opacity="1"></stop></radialGradient><radialGradient id="gradient-31"><stop offset="0%" stop-color="#f8e71c" stop-opacity="1"></stop><stop offset="100%" stop-color="#f5a623" stop-opacity="1"></stop></radialGradient><radialGradient id="gradient-32"><stop offset="0%" stop-color="#f8e71c" stop-opacity="1"></stop><stop offset="100%" stop-color="#f5a623" stop-opacity="1"></stop></radialGradient><radialGradient id="gradient-33"><stop offset="0%" stop-color="#7ed321" stop-opacity="1"></stop><stop offset="100%" stop-color="#417505" stop-opacity="1"></stop></radialGradient><radialGradient id="gradient-34"><stop offset="0%" stop-color="#f8e71c" stop-opacity="1"></stop><stop offset="100%" stop-color="#f5a623" stop-opacity="1"></stop></radialGradient><radialGradient id="gradient-35"><stop offset="0%" stop-color="#f8e71c" stop-opacity="1"></stop><stop offset="100%" stop-color="#f5a623" stop-opacity="1"></stop></radialGradient><radialGradient id="gradient-36"><stop offset="0%" stop-color="#f8e71c" stop-opacity="1"></stop><stop offset="100%" stop-color="#f5a623" stop-opacity="1"></stop></radialGradient></defs><g class="" transform="translate(1,0)" style="touch-action: none;"><g><path d="M192 32C192 48 192 64 176 80L112 112L74.354 275.139C94.669 284.393 115.491 291.161 137.301 294.146L160 192C160 256 160 384 128 496C144.315 491.921 164.8 488.888 187.313 486.889C196.403 472.219 204.738 444.802 210.371 410.779C210.468 410.194 210.559 409.589 210.654 409L192 409L192 391L213.293 391C214.564 381.375 215.679 371.345 216.643 361L192 361L192 343L218.148 343C218.875 333.197 219.47 323.171 219.943 313L192 313L192 295L220.646 295C220.786 290.618 220.908 286.223 221.002 281.809C221.121 276.226 221.202 270.619 221.248 265L192 265L192 247L221.275 247C221.224 236.978 221.055 226.96 220.785 217L192 217L192 199L220.176 199C219.766 188.873 219.248 178.847 218.619 169L192 169L192 151L217.334 151C216.545 140.987 215.613 130.986 214.537 121L192 121L192 103L212.404 103C208.953 76.268 204.565 52.741 199.346 34.473L199.545 34.416C197.021 33.64 194.506 32.834 192 32Z" class="" fill="url(#gradient-2)" stroke="#000000" stroke-opacity="1" stroke-width="1"></path><path d="M320 32C317.438 32.854 314.93 33.653 312.455 34.416L312.655 34.473C307.435 52.741 303.047 76.268 299.595 103L320 103L320 121L297.463 121C296.387 130.986 295.455 140.987 294.666 151L320 151L320 169L293.38 169C292.752 178.847 292.235 188.873 291.824 199L320 199L320 217L291.215 217C290.945 226.96 290.776 236.978 290.725 247L320 247L320 265L290.752 265C290.798 270.619 290.879 276.226 290.998 281.809C291.092 286.223 291.215 290.618 291.354 295L320 295L320 313L292.057 313C292.518 323.008 293.117 333.009 293.852 343L320 343L320 361L295.357 361C296.321 371.345 297.436 381.375 298.707 391L320 391L320 409L301.346 409C301.441 409.59 301.532 410.194 301.629 410.78C307.262 444.802 315.596 472.219 324.687 486.889C347.2 488.888 367.685 491.92 384 496C352 384 352 256 352 192L374.7 294.146C396.509 291.161 417.33 284.393 437.646 275.139L400 112L336 80C320 64 320 48 320 32Z" class="" fill="url(#gradient-3)" stroke="#000000" stroke-opacity="1" stroke-width="1"></path><path d="M219.361 39.72C234.056 98.748 240.898 192.87 238.998 282.191C237.991 329.514 234.481 375.355 228.128 413.721C223.358 442.541 217.297 467.048 208.666 485.34C239.444 483.567 272.556 483.567 303.334 485.34C294.703 467.048 288.643 442.542 283.871 413.72C277.519 375.355 274.009 329.514 273.002 282.191C271.102 192.871 277.944 98.748 292.639 39.721C267.086 45.411 244.914 45.411 219.361 39.721Z" class="selected" fill="url(#gradient-4)" stroke="#000000" stroke-opacity="1" stroke-width="1"></path><path d="M54.671 285.396C53.181 293.116 51.695 300.831 51.023 307.826C50.001 318.466 51.322 326.266 54.668 329.956C71.854 348.913 96.356 355.871 122.631 358.45C130.223 343.32 134.964 328.04 135.197 311.938C106.592 308.068 80.025 298.181 54.672 285.396Z" class="" fill="url(#gradient-5)" stroke="#000000" stroke-opacity="1" stroke-width="1"></path><path d="M457.328 285.396C431.975 298.181 405.408 308.068 376.803 311.939C377.036 328.041 381.777 343.321 389.369 358.45C415.644 355.871 440.146 348.913 457.332 329.956C460.678 326.266 461.999 318.466 460.977 307.826C460.305 300.831 458.818 293.116 457.328 285.396Z" class="" fill="url(#gradient-6)" stroke="#000000" stroke-opacity="1" stroke-width="1"></path></g></g></svg>