<svg xmlns="http://www.w3.org/2000/svg" viewBox="0 0 512 512" style="height: 512px; width: 512px;"><defs><linearGradient x1="0" x2="1" y1="0" y2="1" id="delapouite-viking-shield-gradient-1"><stop offset="0%" stop-color="#d0021b" stop-opacity="1"></stop><stop offset="100%" stop-color="#fa95a1" stop-opacity="1"></stop></linearGradient><linearGradient x1="0" x2="1" y1="0" y2="1" id="delapouite-viking-shield-gradient-2"><stop offset="0%" stop-color="#8b572a" stop-opacity="1"></stop><stop offset="100%" stop-color="#8b572a" stop-opacity="1"></stop></linearGradient><linearGradient x1="0" x2="0" y1="0" y2="1" id="delapouite-viking-shield-gradient-3"><stop offset="0%" stop-color="#48701a" stop-opacity="1"></stop><stop offset="100%" stop-color="#152601" stop-opacity="1"></stop></linearGradient><linearGradient x1="0" x2="0" y1="0" y2="1" id="delapouite-viking-shield-gradient-4"><stop offset="0%" stop-color="#6e9d37" stop-opacity="1"></stop><stop offset="100%" stop-color="#345f02" stop-opacity="1"></stop></linearGradient><linearGradient x1="0" x2="0" y1="0" y2="1" id="delapouite-viking-shield-gradient-5"><stop offset="0%" stop-color="#6e9d37" stop-opacity="1"></stop><stop offset="100%" stop-color="#345f02" stop-opacity="1"></stop></linearGradient><linearGradient x1="0" x2="0" y1="0" y2="1" id="delapouite-viking-shield-gradient-6"><stop offset="0%" stop-color="#6e9d37" stop-opacity="1"></stop><stop offset="100%" stop-color="#345f02" stop-opacity="1"></stop></linearGradient><linearGradient x1="0" x2="0" y1="0" y2="1" id="delapouite-viking-shield-gradient-7"><stop offset="0%" stop-color="#6e9d37" stop-opacity="1"></stop><stop offset="100%" stop-color="#345f02" stop-opacity="1"></stop></linearGradient><linearGradient x1="0" x2="0" y1="0" y2="1" id="delapouite-viking-shield-gradient-8"><stop offset="0%" stop-color="#6e9d37" stop-opacity="1"></stop><stop offset="100%" stop-color="#345f02" stop-opacity="1"></stop></linearGradient><linearGradient id="delapouite-viking-shield-gradient-9"><stop offset="0%" stop-color="#6e9d37" stop-opacity="1"></stop><stop offset="100%" stop-color="#345f02" stop-opacity="1"></stop></linearGradient><linearGradient id="delapouite-viking-shield-gradient-10"><stop offset="0%" stop-color="#345f02" stop-opacity="1"></stop><stop offset="100%" stop-color="#6e9d37" stop-opacity="1"></stop></linearGradient><linearGradient x1="0" x2="1" y1="0" y2="1" id="delapouite-viking-shield-gradient-11"><stop offset="0%" stop-color="#fc88fc" stop-opacity="1"></stop><stop offset="100%" stop-color="#bd10e0" stop-opacity="1"></stop></linearGradient><radialGradient id="delapouite-viking-shield-gradient-12"><stop offset="0%" stop-color="#f8e71c" stop-opacity="1"></stop><stop offset="100%" stop-color="#f5a623" stop-opacity="1"></stop></radialGradient><linearGradient id="delapouite-viking-shield-gradient-13"><stop offset="0%" stop-color="#d0021b" stop-opacity="1"></stop><stop offset="100%" stop-color="#e6001b" stop-opacity="1"></stop></linearGradient><linearGradient id="delapouite-viking-shield-gradient-14"><stop offset="0%" stop-color="#d0021b" stop-opacity="1"></stop><stop offset="100%" stop-color="#fa4da1" stop-opacity="1"></stop></linearGradient><linearGradient id="delapouite-viking-shield-gradient-15"><stop offset="0%" stop-color="#d0021b" stop-opacity="1"></stop><stop offset="100%" stop-color="#e6001b" stop-opacity="1"></stop></linearGradient><linearGradient x1="0" x2="0" y1="0" y2="1" id="delapouite-viking-shield-gradient-16"><stop offset="0%" stop-color="#345f02" stop-opacity="1"></stop><stop offset="100%" stop-color="#6e9d37" stop-opacity="1"></stop></linearGradient><linearGradient x1="0" x2="0" y1="0" y2="1" id="delapouite-viking-shield-gradient-17"><stop offset="0%" stop-color="#345f02" stop-opacity="1"></stop><stop offset="100%" stop-color="#6e9d37" stop-opacity="1"></stop></linearGradient><linearGradient id="delapouite-viking-shield-gradient-18" x1="0" x2="0" y1="0" y2="1"><stop offset="0%" stop-color="#345f02" stop-opacity="1"></stop><stop offset="100%" stop-color="#6e9d37" stop-opacity="1"></stop></linearGradient><linearGradient x1="0" x2="0" y1="0" y2="1" id="delapouite-viking-shield-gradient-19"><stop offset="0%" stop-color="#345f02" stop-opacity="1"></stop><stop offset="100%" stop-color="#6e9d37" stop-opacity="1"></stop></linearGradient><linearGradient x1="0" x2="0" y1="0" y2="1" id="delapouite-viking-shield-gradient-20"><stop offset="0%" stop-color="#345f02" stop-opacity="1"></stop><stop offset="100%" stop-color="#6e9d37" stop-opacity="1"></stop></linearGradient><radialGradient id="delapouite-viking-shield-gradient-21"><stop offset="0%" stop-color="#f8e71c" stop-opacity="1"></stop><stop offset="100%" stop-color="#f5a623" stop-opacity="1"></stop></radialGradient><radialGradient id="delapouite-viking-shield-gradient-22"><stop offset="0%" stop-color="#f8e71c" stop-opacity="1"></stop><stop offset="100%" stop-color="#f5a623" stop-opacity="1"></stop></radialGradient><radialGradient id="delapouite-viking-shield-gradient-23"><stop offset="0%" stop-color="#f8e71c" stop-opacity="1"></stop><stop offset="100%" stop-color="#f5a623" stop-opacity="1"></stop></radialGradient><radialGradient id="delapouite-viking-shield-gradient-24"><stop offset="0%" stop-color="#f8e71c" stop-opacity="1"></stop><stop offset="100%" stop-color="#f5a623" stop-opacity="1"></stop></radialGradient><radialGradient id="delapouite-viking-shield-gradient-25"><stop offset="0%" stop-color="#8b7500" stop-opacity="1"></stop><stop offset="100%" stop-color="#c4a504" stop-opacity="1"></stop></radialGradient><radialGradient id="delapouite-viking-shield-gradient-26"><stop offset="0%" stop-color="#8b7500" stop-opacity="1"></stop><stop offset="100%" stop-color="#c4a504" stop-opacity="1"></stop></radialGradient><radialGradient id="delapouite-viking-shield-gradient-27"><stop offset="0%" stop-color="#f8e71c" stop-opacity="1"></stop><stop offset="100%" stop-color="#f5a623" stop-opacity="1"></stop></radialGradient><radialGradient id="delapouite-viking-shield-gradient-28"><stop offset="0%" stop-color="#f8e71c" stop-opacity="1"></stop><stop offset="100%" stop-color="#f5a623" stop-opacity="1"></stop></radialGradient><radialGradient id="delapouite-viking-shield-gradient-29"><stop offset="0%" stop-color="#f8e71c" stop-opacity="1"></stop><stop offset="100%" stop-color="#f5a623" stop-opacity="1"></stop></radialGradient><radialGradient id="delapouite-viking-shield-gradient-30"><stop offset="0%" stop-color="#f8e71c" stop-opacity="1"></stop><stop offset="100%" stop-color="#f5a623" stop-opacity="1"></stop></radialGradient><radialGradient id="delapouite-viking-shield-gradient-31"><stop offset="0%" stop-color="#8b7500" stop-opacity="1"></stop><stop offset="100%" stop-color="#c4a504" stop-opacity="1"></stop></radialGradient><radialGradient id="delapouite-viking-shield-gradient-32"><stop offset="0%" stop-color="#f8e71c" stop-opacity="1"></stop><stop offset="100%" stop-color="#f5a623" stop-opacity="1"></stop></radialGradient><radialGradient id="delapouite-viking-shield-gradient-33"><stop offset="0%" stop-color="#8b7500" stop-opacity="1"></stop><stop offset="100%" stop-color="#c4a504" stop-opacity="1"></stop></radialGradient><radialGradient id="delapouite-viking-shield-gradient-34"><stop offset="0%" stop-color="#f8e71c" stop-opacity="1"></stop><stop offset="100%" stop-color="#f5a623" stop-opacity="1"></stop></radialGradient><radialGradient id="delapouite-viking-shield-gradient-35"><stop offset="0%" stop-color="#f8e71c" stop-opacity="1"></stop><stop offset="100%" stop-color="#f5a623" stop-opacity="1"></stop></radialGradient><radialGradient id="delapouite-viking-shield-gradient-36"><stop offset="0%" stop-color="#f8e71c" stop-opacity="1"></stop><stop offset="100%" stop-color="#f5a623" stop-opacity="1"></stop></radialGradient><radialGradient id="delapouite-viking-shield-gradient-37"><stop offset="0%" stop-color="#f8e71c" stop-opacity="1"></stop><stop offset="100%" stop-color="#f5a623" stop-opacity="1"></stop></radialGradient><linearGradient x1="0" x2="1" y1="0" y2="1" id="delapouite-viking-shield-gradient-38"><stop offset="0%" stop-color="#8b7500" stop-opacity="1"></stop><stop offset="100%" stop-color="#c4a504" stop-opacity="1"></stop></linearGradient><linearGradient x1="0" x2="1" y1="0" y2="1" id="delapouite-viking-shield-gradient-39"><stop offset="0%" stop-color="#8b7500" stop-opacity="1"></stop><stop offset="100%" stop-color="#c4a504" stop-opacity="1"></stop></linearGradient><linearGradient x1="0" x2="1" y1="0" y2="1" id="delapouite-viking-shield-gradient-40"><stop offset="0%" stop-color="#8b7500" stop-opacity="1"></stop><stop offset="100%" stop-color="#c4a504" stop-opacity="1"></stop></linearGradient><linearGradient x1="0" x2="1" y1="0" y2="1" id="delapouite-viking-shield-gradient-41"><stop offset="0%" stop-color="#8b7500" stop-opacity="1"></stop><stop offset="100%" stop-color="#c4a504" stop-opacity="1"></stop></linearGradient><linearGradient x1="0" x2="1" y1="0" y2="1" id="delapouite-viking-shield-gradient-42"><stop offset="0%" stop-color="#8b7500" stop-opacity="1"></stop><stop offset="100%" stop-color="#c4a504" stop-opacity="1"></stop></linearGradient><linearGradient x1="0" x2="1" y1="0" y2="1" id="delapouite-viking-shield-gradient-43"><stop offset="0%" stop-color="#8b7500" stop-opacity="1"></stop><stop offset="100%" stop-color="#c4a504" stop-opacity="1"></stop></linearGradient><linearGradient x1="0" x2="1" y1="0" y2="1" id="delapouite-viking-shield-gradient-44"><stop offset="0%" stop-color="#8b7500" stop-opacity="1"></stop><stop offset="100%" stop-color="#c4a504" stop-opacity="1"></stop></linearGradient><linearGradient x1="0" x2="1" y1="0" y2="1" id="delapouite-viking-shield-gradient-45"><stop offset="0%" stop-color="#8b7500" stop-opacity="1"></stop><stop offset="100%" stop-color="#c4a504" stop-opacity="1"></stop></linearGradient><linearGradient x1="0" x2="1" y1="0" y2="1" id="delapouite-viking-shield-gradient-46"><stop offset="0%" stop-color="#8b7500" stop-opacity="1"></stop><stop offset="100%" stop-color="#c4a504" stop-opacity="1"></stop></linearGradient></defs><g class="" transform="translate(0,0)" style=""><g><path d="M256 25C128.316 25 25 128.316 25 256C25 383.684 128.316 487 256 487C383.684 487 487 383.684 487 256C487 128.316 383.684 25 256 25Z" class="" fill="url(#delapouite-viking-shield-gradient-2)" stroke="#000000" stroke-opacity="1" stroke-width="2"></path><path d="M256 39C375.74 39 473 136.26 473 256C473 375.74 375.74 473 256 473C136.26 473 39 375.74 39 256C39 136.26 136.26 39 256 39Z" class="" fill="url(#delapouite-viking-shield-gradient-3)" stroke="#000000" stroke-opacity="1" stroke-width="2"></path><path d="M256 57C248.22 57 240.547 57.46 233 58.326L233 170.023C240.34 168.055 248.05 167 256 167C263.95 167 271.66 168.055 279 170.023L279 58.326C271.453 57.46 263.78 57 256 57Z" class="" fill="url(#delapouite-viking-shield-gradient-4)" stroke="#000000" stroke-opacity="1" stroke-width="2"></path><path d="M215 61.227C198.858 64.6 183.44 69.923 169 76.943L169 215L177.035 215C185.491 198.792 198.792 185.49 215 177.035L215 61.227Z" class="" fill="url(#delapouite-viking-shield-gradient-5)" stroke="#000000" stroke-opacity="1" stroke-width="2"></path><path d="M297 61.227L297 177.035C313.208 185.491 326.51 198.792 334.965 215L343 215L343 76.943C328.56 69.923 313.142 64.6 297 61.227Z" class="" fill="url(#delapouite-viking-shield-gradient-6)" stroke="#000000" stroke-opacity="1" stroke-width="2"></path><path d="M151 86.885C133.716 97.629 118.203 110.945 105 126.307L105 236.45C108.02 234.846 110.64 233.492 112.686 232.27C115.579 230.544 117.186 229.157 117.91 228.17C118.636 227.183 119 226.5 119 224L119 215L151 215L151 86.885Z" class="" fill="url(#delapouite-viking-shield-gradient-7)" stroke="#000000" stroke-opacity="1" stroke-width="2"></path><path d="M361 86.885L361 215L393 215L393 224C393 226.5 393.39 227.29 394.123 228.338C394.857 229.386 396.376 230.768 398.993 232.512C401.11 233.924 403.878 235.535 407 237.529L407 126.306C393.797 110.943 378.284 97.628 361 86.884Z" class="" fill="url(#delapouite-viking-shield-gradient-8)" stroke="#000000" stroke-opacity="1" stroke-width="2"></path><path d="M87 150.815C67.99 181.326 57 217.362 57 256C57 294.64 67.99 330.676 87 361.184L87 264.66C86.348 264.197 85.693 263.724 85.03 263.234L75.26 256L85.033 248.766C85.696 248.276 86.351 247.803 87.003 247.34L87.003 150.816Z" class="" fill="url(#delapouite-viking-shield-gradient-9)" stroke="#000000" stroke-opacity="1" stroke-width="2"></path><path d="M425 150.815L425 252.273L428.73 256L425 259.727L425 361.184C444.01 330.676 455 294.639 455 256C455 217.36 444.01 181.324 425 150.816Z" class="" fill="url(#delapouite-viking-shield-gradient-10)" stroke="#000000" stroke-opacity="1" stroke-width="2"></path><path d="M256 185C216.68 185 185 216.68 185 256C185 295.32 216.68 327 256 327C295.32 327 327 295.32 327 256C327 216.68 295.32 185 256 185Z" class="selected" fill="url(#delapouite-viking-shield-gradient-11)" stroke="#000000" stroke-opacity="1" stroke-width="2"></path><path d="M256 215C278.537 215 297 233.463 297 256C297 278.537 278.537 297 256 297C233.463 297 215 278.537 215 256C215 233.463 233.463 215 256 215Z" class="" fill="url(#delapouite-viking-shield-gradient-12)" stroke="#000000" stroke-opacity="1" stroke-width="2"></path><path d="M135.404 233C134.648 235.114 133.68 237.108 132.414 238.83C129.464 242.843 125.718 245.456 121.91 247.73C117.336 250.46 112.352 252.933 106.986 256C112.351 259.067 117.336 261.54 121.91 264.27C125.718 266.544 129.464 269.157 132.414 273.17C133.68 274.892 134.648 276.886 135.404 279L170.024 279C168.054 271.66 167 263.95 167 256C167 248.05 168.055 240.34 170.023 233L135.403 233Z" class="" fill="url(#delapouite-viking-shield-gradient-13)" stroke="#000000" stroke-opacity="1" stroke-width="2"></path><path d="M256 233C243.19 233 233 243.19 233 256C233 268.81 243.19 279 256 279C268.81 279 279 268.81 279 256C279 243.19 268.81 233 256 233Z" class="" fill="url(#delapouite-viking-shield-gradient-14)" stroke="#000000" stroke-opacity="1" stroke-width="2"></path><path d="M341.977 233C343.945 240.34 345 248.05 345 256C345 263.95 343.945 271.66 341.977 279L376.57 279C377.293 276.948 378.205 275.012 379.377 273.338C382.143 269.386 385.624 266.768 389.007 264.512C393.292 261.656 397.641 259.152 402.014 256C397.641 252.848 393.292 250.344 389.008 247.488C385.624 245.232 382.143 242.614 379.378 238.662C378.205 236.988 377.293 235.052 376.57 233L341.977 233Z" class="" fill="url(#delapouite-viking-shield-gradient-15)" stroke="#000000" stroke-opacity="1" stroke-width="2"></path><path d="M407 274.47C403.878 276.465 401.11 278.076 398.992 279.488C396.376 281.232 394.857 282.614 394.122 283.662C393.39 284.712 393 285.5 393 288L393 297L361 297L361 425.115C378.284 414.371 393.797 401.055 407 385.693L407 274.47Z" class="" fill="url(#delapouite-viking-shield-gradient-16)" stroke="#000000" stroke-opacity="1" stroke-width="2"></path><path d="M105 275.55L105 385.693C118.203 401.056 133.716 414.371 151 425.115L151 297L119 297L119 288C119 285.5 118.636 284.817 117.91 283.83C117.185 282.843 115.58 281.456 112.686 279.73C110.64 278.508 108.019 277.154 105 275.55Z" class="" fill="url(#delapouite-viking-shield-gradient-17)" stroke="#000000" stroke-opacity="1" stroke-width="2"></path><path d="M169 297L169 435.057C183.44 442.077 198.858 447.4 215 450.773L215 334.965C198.792 326.509 185.49 313.208 177.035 297L169 297Z" class="" fill="url(#delapouite-viking-shield-gradient-18)" stroke="#000000" stroke-opacity="1" stroke-width="2"></path><path d="M334.965 297C326.509 313.208 313.208 326.51 297 334.965L297 450.773C313.142 447.4 328.56 442.077 343 435.057L343 297L334.965 297Z" class="" fill="url(#delapouite-viking-shield-gradient-19)" stroke="#000000" stroke-opacity="1" stroke-width="2"></path><path d="M233 341.977L233 453.674C240.547 454.54 248.22 455 256 455C263.78 455 271.453 454.54 279 453.674L279 341.977C271.66 343.945 263.95 345 256 345C248.05 345 240.34 343.945 233 341.977Z" class="" fill="url(#delapouite-viking-shield-gradient-20)" stroke="#000000" stroke-opacity="1" stroke-width="2"></path></g></g></svg>