<svg xmlns="http://www.w3.org/2000/svg" viewBox="0 0 512 512" style="height: 512px; width: 512px;"><defs><radialGradient id="delapouite-quiver-gradient-0"><stop offset="0%" stop-color="#c9c9c9" stop-opacity="1"></stop><stop offset="100%" stop-color="#000" stop-opacity="1"></stop></radialGradient><linearGradient x1="0" x2="1" y1="0" y2="1" id="delapouite-quiver-gradient-3"><stop offset="0%" stop-color="#ffe0af" stop-opacity="1"></stop><stop offset="100%" stop-color="#eeba6c" stop-opacity="1"></stop></linearGradient><linearGradient x1="0" x2="1" y1="0" y2="1" id="delapouite-quiver-gradient-11"><stop offset="0%" stop-color="#417505" stop-opacity="1"></stop><stop offset="100%" stop-color="#b8e986" stop-opacity="1"></stop></linearGradient><linearGradient x1="0" x2="1" y1="0" y2="1" id="delapouite-quiver-gradient-12"><stop offset="0%" stop-color="#ad720e" stop-opacity="1"></stop><stop offset="100%" stop-color="#8b572a" stop-opacity="1"></stop></linearGradient><linearGradient x1="0" x2="0" y1="0" y2="1" id="delapouite-quiver-gradient-16"><stop offset="0%" stop-color="#b57204" stop-opacity="1"></stop><stop offset="100%" stop-color="#8b572a" stop-opacity="1"></stop></linearGradient><linearGradient x1="0" x2="0" y1="0" y2="1" id="delapouite-quiver-gradient-19"><stop offset="0%" stop-color="#b57204" stop-opacity="1"></stop><stop offset="100%" stop-color="#8b572a" stop-opacity="1"></stop></linearGradient><linearGradient x1="0" x2="0" y1="0" y2="1" id="delapouite-quiver-gradient-23"><stop offset="0%" stop-color="#b57204" stop-opacity="1"></stop><stop offset="100%" stop-color="#8b572a" stop-opacity="1"></stop></linearGradient><linearGradient x1="0" x2="0" y1="0" y2="1" id="delapouite-quiver-gradient-25"><stop offset="0%" stop-color="#b57204" stop-opacity="1"></stop><stop offset="100%" stop-color="#8b572a" stop-opacity="1"></stop></linearGradient></defs><g class="" transform="translate(0,0)" style=""><g><path d="M341.21 18.004L338.17 24.252L344.755 37.425L335.167 30.42L326.857 47.496L332.817 60.603L322.827 55.779L319.273 63.079L336.623 92.762L302.749 162.368C308.831 163.664 314.941 164.823 321.075 165.845L352.797 100.655L352.837 100.65L374.774 55.572L374.734 55.578L383.08 38.425L366.896 30.55L358.558 47.683L341.21 18.001Z" class="" fill="#8b572a" stroke="#000000" stroke-opacity="1" stroke-width="2" fill-opacity="1"></path><path d="M55.578 34.978C54.944 34.98 54.311 34.998 53.678 35.035C48.611 35.331 43.588 36.775 39.008 39.595C34.455 42.399 32.638 46.362 31.181 50.427C29.724 54.493 28.793 59.104 28.086 64.472C26.673 75.21 26.27 88.948 26.6 105.132C27.258 137.502 30.936 179.495 36.523 223.478C45.345 292.928 58.533 366.572 73.053 415.271L73.107 415.257C73.652 417.137 74.241 419.157 74.877 421.219L74.887 421.259C75.249 422.407 75.612 423.541 75.974 424.657C77.672 429.807 79.651 434.912 81.931 438.565C83.788 441.538 85.694 443.325 87.101 444.03C88.506 444.733 89.545 445.043 92.581 443.96C94.338 443.334 94.333 443.35 94.931 440.705C95.531 438.058 95.436 433.07 94.409 427.088C93.345 420.898 91.429 413.708 89.381 406.228C76.188 359.738 62.849 287.886 54.379 221.211C48.849 177.674 45.234 136.084 44.596 104.768C44.276 89.11 44.726 75.981 45.932 66.823C46.536 62.243 47.356 58.653 48.126 56.505C48.506 55.445 48.91 54.858 49.066 54.622C53.21 52.266 56.771 52.162 62.302 54.228C68.112 56.398 75.438 61.515 83.25 68.883C98.873 83.618 116.45 106.873 134.263 129.895C152.076 152.918 170.055 175.735 188.571 190.428C194.551 195.175 200.646 199.126 207.001 201.802C209.591 202.476 212.963 203.242 216.431 203.707C220.041 204.189 223.661 204.251 225.874 203.855C227.514 203.562 227.932 203.269 227.99 203.23C231.38 197.067 229.926 195.218 226.62 191.832C223.303 188.434 216.467 185.842 214.185 185.689L214.215 185.256C209.827 183.416 204.939 180.436 199.762 176.328C184.022 163.836 166.208 141.764 148.502 118.878C130.797 95.994 113.134 72.321 95.602 55.788C86.836 47.52 78.102 40.915 68.606 37.368C64.452 35.814 60.021 34.968 55.584 34.98Z" class="" fill="url(#delapouite-quiver-gradient-3)" stroke="#000000" stroke-opacity="1" stroke-width="2"></path><path d="M246.705 39.038L238.56 63.14L247.86 84.2L234.212 76.01L230.658 86.53L251.63 113.773L241.224 144.573C246.882 146.623 252.554 148.57 258.251 150.413L268.678 119.553L268.715 119.543L284.765 72.048L284.723 72.06L290.829 53.988L273.776 48.226L267.676 66.279L246.706 39.036Z" class="" fill="#8b572a" stroke="#000000" stroke-opacity="1" stroke-width="2" fill-opacity="1"></path><path d="M408.769 50.978L396.204 52.678L384.178 77.388L402.484 63.886L408.767 50.978Z" class="" fill="#8b572a" stroke="#000000" stroke-opacity="1" stroke-width="2" fill-opacity="1"></path><path d="M317.897 63.183L305.65 66.46L289.605 113.955L301.853 110.677L317.898 63.183Z" class="" fill="#b57204" stroke="#000000" stroke-opacity="1" stroke-width="2" fill-opacity="1"></path><path d="M424.694 68.691L415.887 80.841L418.149 109.415L408.495 91.04L395.27 109.28L407.208 141.52L385.47 171.507C392.805 171.601 400.27 171.523 407.886 171.257L421.769 152.103L421.809 152.105L451.233 111.517L451.193 111.515L462.387 96.072L447.815 85.506L436.631 100.933L424.694 68.691Z" class="" fill="#8b572a" stroke="#000000" stroke-opacity="1" stroke-width="2" fill-opacity="1"></path><path d="M395.778 77.673L382.368 81.106L374.265 97.756L386.829 96.056L395.779 77.673Z" class="" fill="#8b572a" stroke="#000000" stroke-opacity="1" stroke-width="2" fill-opacity="1"></path><path d="M472.838 112.383L468.035 119.008L480.805 119.374L485.507 112.887L472.837 112.382Z" class="" fill="#b57204" stroke="#000000" stroke-opacity="1" stroke-width="2" fill-opacity="1"></path><path d="M467.105 120.288L443.415 152.968L456.083 153.475L462.505 144.618L456.425 141.02L465.9 139.933L476.826 124.861L467.106 120.288Z" class="" fill="#b57204" stroke="#000000" stroke-opacity="1" stroke-width="2" fill-opacity="1"></path><path d="M228.953 159.118C227.251 162.58 225.56 165.968 223.863 169.403C229.369 171.208 234.791 174.439 239.493 179.257C246.617 186.554 250.436 199.823 243.705 212.001C240.391 217.995 234.249 220.641 229.037 221.573C223.823 222.505 218.737 222.175 214.039 221.548C207.869 220.723 202.495 219.285 199.362 218.358C197.93 221.176 196.499 223.998 195.062 226.801C245.902 253.881 304.595 249.551 362.5 237.441C374.518 221.706 386.447 205.694 398.397 189.335C335.402 190.218 281.267 178.745 228.952 159.118Z" class="selected" fill="url(#delapouite-quiver-gradient-11)" stroke="#000000" stroke-opacity="1" stroke-width="2"></path><path d="M186.813 242.801C160.891 292.721 134.033 340.981 103.568 389.637C106.48 400.621 110.213 412.785 112.146 424.042C113.369 431.165 114.002 437.984 112.484 444.682C110.966 451.382 105.998 458.286 98.624 460.916C91.848 463.333 84.63 462.928 79.034 460.123C73.436 457.319 69.594 452.801 66.66 448.098C66.437 447.742 66.227 447.381 66.013 447.02C63.671 450.445 61.33 453.87 58.941 457.307C73.4 482.04 98.747 494.51 121.21 493.98C211.93 417.368 280.956 341.866 345.86 258.97C292.488 268.235 236.855 269.383 186.816 242.8Z" class="" fill="url(#delapouite-quiver-gradient-12)" stroke="#000000" stroke-opacity="1" stroke-width="2"></path></g></g></svg>