<svg xmlns="http://www.w3.org/2000/svg" viewBox="0 0 512 512" style="height: 512px; width: 512px;"><defs><linearGradient x1="0" x2="1" y1="0" y2="1" id="gradient-1"><stop offset="0%" stop-color="#930012" stop-opacity="1"></stop><stop offset="100%" stop-color="#ff0000" stop-opacity="1"></stop></linearGradient><radialGradient id="gradient-2"><stop offset="0%" stop-color="#d4d7d9" stop-opacity="1"></stop><stop offset="100%" stop-color="#949596" stop-opacity="1"></stop></radialGradient><radialGradient id="gradient-3"><stop offset="0%" stop-color="#ffffff" stop-opacity="1"></stop><stop offset="100%" stop-color="#c9c9c9" stop-opacity="1"></stop></radialGradient><radialGradient id="gradient-4"><stop offset="0%" stop-color="#d4d7d9" stop-opacity="1"></stop><stop offset="100%" stop-color="#949596" stop-opacity="1"></stop></radialGradient><radialGradient id="gradient-5"><stop offset="0%" stop-color="#d4d7d9" stop-opacity="1"></stop><stop offset="100%" stop-color="#949596" stop-opacity="1"></stop></radialGradient><radialGradient id="gradient-6"><stop offset="0%" stop-color="#d4d7d9" stop-opacity="1"></stop><stop offset="100%" stop-color="#949596" stop-opacity="1"></stop></radialGradient><radialGradient id="gradient-7"><stop offset="0%" stop-color="#d4d7d9" stop-opacity="1"></stop><stop offset="100%" stop-color="#949596" stop-opacity="1"></stop></radialGradient><radialGradient id="gradient-8"><stop offset="0%" stop-color="#d4d7d9" stop-opacity="1"></stop><stop offset="100%" stop-color="#949596" stop-opacity="1"></stop></radialGradient><radialGradient id="gradient-9"><stop offset="0%" stop-color="#d4d7d9" stop-opacity="1"></stop><stop offset="100%" stop-color="#949596" stop-opacity="1"></stop></radialGradient><radialGradient id="gradient-10"><stop offset="0%" stop-color="#d4d7d9" stop-opacity="1"></stop><stop offset="100%" stop-color="#949596" stop-opacity="1"></stop></radialGradient><radialGradient id="gradient-11"><stop offset="0%" stop-color="#ffffff" stop-opacity="1"></stop><stop offset="100%" stop-color="#c9c9c9" stop-opacity="1"></stop></radialGradient><radialGradient id="gradient-12"><stop offset="0%" stop-color="#ffffff" stop-opacity="1"></stop><stop offset="100%" stop-color="#c9c9c9" stop-opacity="1"></stop></radialGradient><radialGradient id="gradient-13"><stop offset="0%" stop-color="#ffffff" stop-opacity="1"></stop><stop offset="100%" stop-color="#c9c9c9" stop-opacity="1"></stop></radialGradient><radialGradient id="gradient-14"><stop offset="0%" stop-color="#b57204" stop-opacity="1"></stop><stop offset="100%" stop-color="#8b572a" stop-opacity="1"></stop></radialGradient><radialGradient id="gradient-15"><stop offset="0%" stop-color="#b57204" stop-opacity="1"></stop><stop offset="100%" stop-color="#8b572a" stop-opacity="1"></stop></radialGradient><radialGradient id="gradient-16"><stop offset="0%" stop-color="#b57204" stop-opacity="1"></stop><stop offset="100%" stop-color="#8b572a" stop-opacity="1"></stop></radialGradient><radialGradient id="gradient-17"><stop offset="0%" stop-color="#b57204" stop-opacity="1"></stop><stop offset="100%" stop-color="#8b572a" stop-opacity="1"></stop></radialGradient><radialGradient id="gradient-18"><stop offset="0%" stop-color="#c9c9c9" stop-opacity="1"></stop><stop offset="100%" stop-color="#9b9b9b" stop-opacity="1"></stop></radialGradient><radialGradient id="gradient-19"><stop offset="0%" stop-color="#f8e71c" stop-opacity="1"></stop><stop offset="100%" stop-color="#f5a623" stop-opacity="1"></stop></radialGradient><radialGradient id="gradient-20"><stop offset="0%" stop-color="#f8e71c" stop-opacity="1"></stop><stop offset="100%" stop-color="#f5a623" stop-opacity="1"></stop></radialGradient><radialGradient id="gradient-21"><stop offset="0%" stop-color="#f8e71c" stop-opacity="1"></stop><stop offset="100%" stop-color="#f5a623" stop-opacity="1"></stop></radialGradient><radialGradient id="gradient-22"><stop offset="0%" stop-color="#f8e71c" stop-opacity="1"></stop><stop offset="100%" stop-color="#f5a623" stop-opacity="1"></stop></radialGradient><radialGradient id="gradient-23"><stop offset="0%" stop-color="#f8e71c" stop-opacity="1"></stop><stop offset="100%" stop-color="#f5a623" stop-opacity="1"></stop></radialGradient><radialGradient id="gradient-24"><stop offset="0%" stop-color="#f8e71c" stop-opacity="1"></stop><stop offset="100%" stop-color="#f5a623" stop-opacity="1"></stop></radialGradient><radialGradient id="gradient-25"><stop offset="0%" stop-color="#f8e71c" stop-opacity="1"></stop><stop offset="100%" stop-color="#f5a623" stop-opacity="1"></stop></radialGradient><radialGradient id="gradient-26"><stop offset="0%" stop-color="#f8e71c" stop-opacity="1"></stop><stop offset="100%" stop-color="#f5a623" stop-opacity="1"></stop></radialGradient><radialGradient id="gradient-27"><stop offset="0%" stop-color="#f8e71c" stop-opacity="1"></stop><stop offset="100%" stop-color="#f5a623" stop-opacity="1"></stop></radialGradient><radialGradient id="gradient-28"><stop offset="0%" stop-color="#f8e71c" stop-opacity="1"></stop><stop offset="100%" stop-color="#f5a623" stop-opacity="1"></stop></radialGradient><radialGradient id="gradient-29"><stop offset="0%" stop-color="#f8e71c" stop-opacity="1"></stop><stop offset="100%" stop-color="#f5a623" stop-opacity="1"></stop></radialGradient><radialGradient id="gradient-30"><stop offset="0%" stop-color="#f8e71c" stop-opacity="1"></stop><stop offset="100%" stop-color="#f5a623" stop-opacity="1"></stop></radialGradient><radialGradient id="gradient-31"><stop offset="0%" stop-color="#f8e71c" stop-opacity="1"></stop><stop offset="100%" stop-color="#f5a623" stop-opacity="1"></stop></radialGradient><radialGradient id="gradient-32"><stop offset="0%" stop-color="#f8e71c" stop-opacity="1"></stop><stop offset="100%" stop-color="#f5a623" stop-opacity="1"></stop></radialGradient><radialGradient id="gradient-33"><stop offset="0%" stop-color="#7ed321" stop-opacity="1"></stop><stop offset="100%" stop-color="#417505" stop-opacity="1"></stop></radialGradient><radialGradient id="gradient-34"><stop offset="0%" stop-color="#f8e71c" stop-opacity="1"></stop><stop offset="100%" stop-color="#f5a623" stop-opacity="1"></stop></radialGradient><radialGradient id="gradient-35"><stop offset="0%" stop-color="#f8e71c" stop-opacity="1"></stop><stop offset="100%" stop-color="#f5a623" stop-opacity="1"></stop></radialGradient><radialGradient id="gradient-36"><stop offset="0%" stop-color="#f8e71c" stop-opacity="1"></stop><stop offset="100%" stop-color="#f5a623" stop-opacity="1"></stop></radialGradient></defs><g class="" transform="translate(3,0)" style="touch-action: none;"><g><path d="M174.688 61.094L144.125 78.75L43.53 136.813L33.406 142.656L22.688 148.844L17.218 152L82.625 265.375L84.655 264.219L89.625 261.343L98.813 256.03L98.813 256L154.687 223.562L146.062 419.5L145.906 422.72L144.781 446.75L366.907 446.75L366.782 444.062L366.472 436.719L365.689 419.499L357.096 223.969L412.316 256.029L412.283 256.062L425.566 263.718L426.409 264.218L428.472 265.404L493.874 152L488.404 148.844L477.687 142.656L383.249 88.156L366.969 78.75L344.561 65.812L336.405 61.125C324.949 84.617 292.832 101.719 255.249 101.719C217.685 101.719 186.174 84.616 174.719 61.124L174.687 61.094Z" class="" fill="url(#gradient-2)" stroke="#000000" stroke-opacity="1" stroke-width="1"></path><path d="M157.375 92.656C195.705 128.068 248.478 139.138 294.405 127.219L286.688 141.469L299.813 165.719L312.938 141.469L303.718 124.437C322.688 118.071 340.19 107.632 354.594 93.187L468.344 158.843L421.624 239.843L392 222.624L404.156 200.156L391.031 175.906L377.907 200.156L389.186 221L369.876 209.78L336.313 189.906L336.813 198.406L323.875 174.5L310.719 198.75L323.874 223L336.844 199.03L338.311 223.656L338.343 223.656L340.53 273.062L329.875 253.406L316.75 277.656L326.688 296L266.468 296L275.468 279.375L262.344 255.125L249.219 279.375L258.219 296L170.219 296L173.624 218.75L173.594 218.75L174.749 189.875L141.219 209.75L89.469 239.813L42.749 158.843L157.374 92.656Z" class="" fill="url(#gradient-3)" stroke="#000000" stroke-opacity="1" stroke-width="1"></path><path d="M161.938 109.436L148.813 133.686L161.938 157.936L175.063 133.686L161.938 109.436Z" class="" fill="url(#gradient-4)" stroke="#000000" stroke-opacity="1" stroke-width="1"></path><path d="M432.031 149.062L418.907 173.312L432.032 197.562L445.158 173.312L432.033 149.062Z" class="" fill="url(#gradient-5)" stroke="#000000" stroke-opacity="1" stroke-width="1"></path><path d="M128.69 166.72L115.565 190.97L128.689 215.22L141.814 190.97L128.689 166.72Z" class="" fill="url(#gradient-6)" stroke="#000000" stroke-opacity="1" stroke-width="1"></path><path d="M242.533 204.906L229.409 229.156L242.534 253.406L255.66 229.156L242.535 204.906Z" class="" fill="url(#gradient-7)" stroke="#000000" stroke-opacity="1" stroke-width="1"></path><path d="M298.409 224.719L285.284 248.969L298.41 273.219L311.535 248.969L298.411 224.719Z" class="" fill="url(#gradient-8)" stroke="#000000" stroke-opacity="1" stroke-width="1"></path><path d="M198.689 233.905L185.565 258.155L198.69 282.405L211.847 258.155L198.691 233.905Z" class="" fill="url(#gradient-9)" stroke="#000000" stroke-opacity="1" stroke-width="1"></path><path d="M340.909 281.53L341.534 296L333.067 296L340.91 281.53Z" class="" fill="url(#gradient-10)" stroke="#000000" stroke-opacity="1" stroke-width="1"></path><path d="M169.47 312.97L342.28 312.97L343.156 332.937L168.594 332.937L169.469 312.969Z" class="" fill="url(#gradient-11)" stroke="#000000" stroke-opacity="1" stroke-width="1"></path><path d="M167.844 349.906L207 349.906L196.156 369.876L209.312 394.126L222.437 369.876L211.625 349.906L332.188 349.906L320.625 371.281L333.75 395.531L345 374.75L346.97 419.5L293.53 419.5L301.625 404.53L288.5 380.28L275.375 404.53L283.469 419.5L164.78 419.5L167.844 349.906Z" class="" fill="url(#gradient-12)" stroke="#000000" stroke-opacity="1" stroke-width="1"></path><path d="M335.314 349.906L343.906 349.906L344.656 367.186L335.312 349.906Z" class="selected" fill="url(#gradient-13)" stroke="#000000" stroke-opacity="1" stroke-width="1"></path></g></g></svg>