<svg xmlns="http://www.w3.org/2000/svg" viewBox="0 0 512 512" style="height: 512px; width: 512px;"><defs><radialGradient id="lorc-gooey-daemon-gradient-0"><stop offset="0%" stop-color="#c9c9c9" stop-opacity="1"></stop><stop offset="100%" stop-color="#000" stop-opacity="1"></stop></radialGradient><linearGradient x1="0" x2="1" y1="1" y2="0" id="lorc-gooey-daemon-gradient-1"><stop offset="0%" stop-color="#f5a623" stop-opacity="1"></stop><stop offset="100%" stop-color="#f8e71c" stop-opacity="1"></stop></linearGradient><linearGradient x1="0" x2="1" y1="0" y2="1" id="lorc-gooey-daemon-gradient-2"><stop offset="0%" stop-color="#d0021b" stop-opacity="1"></stop><stop offset="100%" stop-color="#2b0808" stop-opacity="1"></stop></linearGradient><linearGradient x1="0" x2="1" y1="1" y2="0" id="lorc-gooey-daemon-gradient-3"><stop offset="0%" stop-color="#d0021b" stop-opacity="1"></stop><stop offset="100%" stop-color="#f5a623" stop-opacity="1"></stop></linearGradient><linearGradient x1="0" x2="1" y1="0" y2="1" id="lorc-gooey-daemon-gradient-4"><stop offset="0%" stop-color="#f5a623" stop-opacity="1"></stop><stop offset="100%" stop-color="#d0021b" stop-opacity="1"></stop></linearGradient><linearGradient id="lorc-gooey-daemon-gradient-5" x1="0" x2="1" y1="0" y2="1"><stop offset="0%" stop-color="#d0021b" stop-opacity="1"></stop><stop offset="100%" stop-color="#f5a623" stop-opacity="1"></stop></linearGradient><linearGradient x1="0" x2="0" y1="0" y2="1" id="lorc-gooey-daemon-gradient-6"><stop offset="0%" stop-color="#000000" stop-opacity="1"></stop><stop offset="100%" stop-color="#ac0318" stop-opacity="1"></stop></linearGradient><linearGradient x1="0" x2="0" y1="0" y2="1" id="lorc-gooey-daemon-gradient-7"><stop offset="0%" stop-color="#000000" stop-opacity="1"></stop><stop offset="100%" stop-color="#ac0318" stop-opacity="1"></stop></linearGradient><linearGradient x1="0" x2="1" y1="1" y2="0" id="lorc-gooey-daemon-gradient-8"><stop offset="0%" stop-color="#b57204" stop-opacity="1"></stop><stop offset="100%" stop-color="#8b572a" stop-opacity="1"></stop></linearGradient><linearGradient x1="0" x2="1" y1="0" y2="1" id="lorc-gooey-daemon-gradient-9"><stop offset="0%" stop-color="#b57204" stop-opacity="1"></stop><stop offset="100%" stop-color="#8b572a" stop-opacity="1"></stop></linearGradient><linearGradient x1="0" x2="1" y1="0" y2="1" id="lorc-gooey-daemon-gradient-10"><stop offset="0%" stop-color="#ffffff" stop-opacity="1"></stop><stop offset="100%" stop-color="#9b9b9b" stop-opacity="1"></stop></linearGradient><linearGradient x1="0" x2="1" y1="0" y2="1" id="lorc-gooey-daemon-gradient-11"><stop offset="0%" stop-color="#bd10e0" stop-opacity="1"></stop><stop offset="100%" stop-color="#9013fe" stop-opacity="1"></stop></linearGradient><linearGradient x1="0" x2="1" y1="1" y2="0" id="lorc-gooey-daemon-gradient-12"><stop offset="0%" stop-color="#f5a623" stop-opacity="1"></stop><stop offset="100%" stop-color="#f8e71c" stop-opacity="1"></stop></linearGradient><linearGradient x1="0" x2="1" y1="1" y2="0" id="lorc-gooey-daemon-gradient-13"><stop offset="0%" stop-color="#f8e71c" stop-opacity="1"></stop><stop offset="100%" stop-color="#f5a623" stop-opacity="1"></stop></linearGradient><linearGradient x1="0" x2="1" y1="1" y2="0" id="lorc-gooey-daemon-gradient-14"><stop offset="0%" stop-color="#9b9b9b" stop-opacity="1"></stop><stop offset="100%" stop-color="#ffffff" stop-opacity="1"></stop></linearGradient><linearGradient x1="0" x2="1" y1="1" y2="0" id="lorc-gooey-daemon-gradient-15"><stop offset="0%" stop-color="#f8e71c" stop-opacity="1"></stop><stop offset="100%" stop-color="#b57204" stop-opacity="1"></stop></linearGradient><linearGradient x1="0" x2="1" y1="1" y2="0" id="lorc-gooey-daemon-gradient-16"><stop offset="0%" stop-color="#ffffff" stop-opacity="1"></stop><stop offset="100%" stop-color="#4a4a4a" stop-opacity="1"></stop></linearGradient><linearGradient x1="0" x2="1" y1="1" y2="0" id="lorc-gooey-daemon-gradient-17"><stop offset="0%" stop-color="#ffffff" stop-opacity="1"></stop><stop offset="100%" stop-color="#4a4a4a" stop-opacity="1"></stop></linearGradient></defs><g class="" transform="translate(0,0)" style=""><g><path d="M266.78 18.313C198.732 18.313 139.503 45.581 104.688 83.656C80.53 76.33 63.895 56.038 59.438 23C33.44 60.61 39.768 106.373 76.875 129.5C74.295 137.238 72.645 145.12 72.031 153.063C69.324 188.195 63.849 289.156 81.657 289.156C101.26 289.156 98.985 222.196 131.282 256.436C153.046 279.51 165.225 335.54 154.064 351.626C151.334 355.561 140.629 366.448 140.627 377.344C140.627 388.45 150.334 400.688 164.597 400.688C177.909 400.688 188.533 390.246 188.533 377.344C188.533 364.654 176.2 355.658 173.94 351.624C165.377 332.634 167.16 300.447 192.628 299.062C221.798 297.474 235.378 382.532 218.316 407.125C213.782 413.659 194.941 433.799 194.941 453.25C194.941 473.12 210.187 494.72 234.659 494.72C259.607 494.72 274.379 470.63 274.379 453.25C274.379 436.29 254.193 413.816 250.441 407.125C234.204 378.18 233.836 294.83 272.191 287.845C301.425 282.517 272.626 390.031 302.347 390.031C338.311 390.031 289.759 263.345 343.691 263.345C385.945 263.345 335.461 350.699 366.066 353.97C408.638 358.52 359.142 263.03 390.846 263.03C408.176 263.03 415.66 305.444 405.534 342.28L405.504 342.28C403.037 351.26 390.348 366.88 390.348 385.5C390.348 406.745 405.005 417.063 419.535 417.063C434.067 417.063 449.318 403.947 449.318 385.5C449.318 368.064 435.955 351.048 432.974 342.28C418.577 299.933 441.244 239.723 454.254 202.125C465.937 168.365 466.011 139.418 457.629 115.125C479.059 90.291 479.552 53.902 458.192 23C455.019 46.514 445.674 63.563 431.848 74.094C395.072 36.58 331.198 18.314 266.785 18.314Z" class="" fill="url(#lorc-gooey-daemon-gradient-2)" stroke="#000000" stroke-opacity="1" stroke-width="2"></path><path d="M192.907 97C219.247 96.456 261.817 124.705 274.095 161.344C230.421 166.974 168.312 166.696 171.439 117.5C172.332 103.437 180.935 97.247 192.907 97Z" class="" fill="url(#lorc-gooey-daemon-gradient-3)" stroke="#000000" stroke-opacity="1" stroke-width="2"></path><path d="M407.532 97.188L430.972 134.718C431.174 134.626 431.362 134.531 431.564 134.438C420.647 166.66 368.784 166.234 330.846 161.344C342.448 126.724 381.088 99.614 407.533 97.188Z" class="" fill="url(#lorc-gooey-daemon-gradient-4)" stroke="#000000" stroke-opacity="1" stroke-width="2"></path><path d="M416.94 182.156L430.5 195.03L390.875 236.844L385.781 242.219L379.376 238.469L348.126 220.155L308.156 257.625L301.906 263.468L295.532 257.748L261.222 226.968L225.314 248.873L219 252.72L213.812 247.47L164.437 197.75L177.687 184.594L221.875 229.094L257.405 207.374L263.345 203.75L268.5 208.406L301.625 238.126L340.438 201.75L345.531 196.97L351.564 200.5L382.439 218.594L416.939 182.156Z" class="" fill="url(#lorc-gooey-daemon-gradient-5)" stroke="#000000" stroke-opacity="1" stroke-width="2"></path><path d="M83.688 311.312C71.598 311.312 61.812 321.099 61.812 333.187C61.812 345.277 71.599 355.062 83.688 355.062C95.776 355.062 105.562 345.276 105.562 333.187C105.562 321.099 95.776 311.312 83.688 311.312Z" class="" fill="url(#lorc-gooey-daemon-gradient-6)" stroke="#000000" stroke-opacity="1" stroke-width="2"></path><path d="M302.5 408.282C292.917 408.282 285.156 416.042 285.156 425.625C285.156 435.208 292.916 442.969 302.5 442.969C312.083 442.969 319.844 435.207 319.844 425.624C319.844 416.041 312.084 408.28 302.5 408.28Z" class="selected" fill="url(#lorc-gooey-daemon-gradient-7)" stroke="#000000" stroke-opacity="1" stroke-width="2"></path></g></g></svg>