<svg xmlns="http://www.w3.org/2000/svg" viewBox="0 0 512 512" style="height: 512px; width: 512px;"><defs><radialGradient id="lorc-sharped-teeth-skull-gradient-0"><stop offset="0%" stop-color="#c9c9c9" stop-opacity="1"></stop><stop offset="100%" stop-color="#000" stop-opacity="1"></stop></radialGradient><linearGradient x1="0" x2="1" y1="1" y2="0" id="lorc-sharped-teeth-skull-gradient-1"><stop offset="0%" stop-color="#f5a623" stop-opacity="1"></stop><stop offset="100%" stop-color="#f8e71c" stop-opacity="1"></stop></linearGradient><linearGradient x1="0" x2="1" y1="0" y2="1" id="lorc-sharped-teeth-skull-gradient-2"><stop offset="0%" stop-color="#d0021b" stop-opacity="1"></stop><stop offset="100%" stop-color="#2b0808" stop-opacity="1"></stop></linearGradient><linearGradient x1="0" x2="1" y1="1" y2="0" id="lorc-sharped-teeth-skull-gradient-3"><stop offset="0%" stop-color="#d0021b" stop-opacity="1"></stop><stop offset="100%" stop-color="#f5a623" stop-opacity="1"></stop></linearGradient><linearGradient x1="0" x2="1" y1="0" y2="1" id="lorc-sharped-teeth-skull-gradient-4"><stop offset="0%" stop-color="#f5a623" stop-opacity="1"></stop><stop offset="100%" stop-color="#d0021b" stop-opacity="1"></stop></linearGradient><linearGradient x1="0" x2="1" y1="1" y2="0" id="lorc-sharped-teeth-skull-gradient-5"><stop offset="0%" stop-color="#d0021b" stop-opacity="1"></stop><stop offset="100%" stop-color="#f5a623" stop-opacity="1"></stop></linearGradient><linearGradient x1="0" x2="0" y1="0" y2="1" id="lorc-sharped-teeth-skull-gradient-6"><stop offset="0%" stop-color="#c9c9c9" stop-opacity="1"></stop><stop offset="100%" stop-color="#ffffff" stop-opacity="1"></stop></linearGradient><linearGradient x1="0" x2="0" y1="0" y2="1" id="lorc-sharped-teeth-skull-gradient-7"><stop offset="0%" stop-color="#c9c9c9" stop-opacity="1"></stop><stop offset="100%" stop-color="#ffffff" stop-opacity="1"></stop></linearGradient><linearGradient x1="0" x2="0" y1="0" y2="1" id="lorc-sharped-teeth-skull-gradient-8"><stop offset="0%" stop-color="#c9c9c9" stop-opacity="1"></stop><stop offset="100%" stop-color="#ffffff" stop-opacity="1"></stop></linearGradient><linearGradient x1="0" x2="0" y1="0" y2="1" id="lorc-sharped-teeth-skull-gradient-9"><stop offset="0%" stop-color="#c9c9c9" stop-opacity="1"></stop><stop offset="100%" stop-color="#ffffff" stop-opacity="1"></stop></linearGradient><linearGradient x1="0" x2="0" y1="0" y2="1" id="lorc-sharped-teeth-skull-gradient-10"><stop offset="0%" stop-color="#c9c9c9" stop-opacity="1"></stop><stop offset="100%" stop-color="#ffffff" stop-opacity="1"></stop></linearGradient><linearGradient x1="0" x2="0" y1="0" y2="1" id="lorc-sharped-teeth-skull-gradient-11"><stop offset="0%" stop-color="#c9c9c9" stop-opacity="1"></stop><stop offset="100%" stop-color="#ffffff" stop-opacity="1"></stop></linearGradient><linearGradient x1="0" x2="1" y1="1" y2="0" id="lorc-sharped-teeth-skull-gradient-12"><stop offset="0%" stop-color="#f5a623" stop-opacity="1"></stop><stop offset="100%" stop-color="#f8e71c" stop-opacity="1"></stop></linearGradient><linearGradient x1="0" x2="1" y1="1" y2="0" id="lorc-sharped-teeth-skull-gradient-13"><stop offset="0%" stop-color="#f8e71c" stop-opacity="1"></stop><stop offset="100%" stop-color="#f5a623" stop-opacity="1"></stop></linearGradient><linearGradient x1="0" x2="1" y1="1" y2="0" id="lorc-sharped-teeth-skull-gradient-14"><stop offset="0%" stop-color="#9b9b9b" stop-opacity="1"></stop><stop offset="100%" stop-color="#ffffff" stop-opacity="1"></stop></linearGradient><linearGradient x1="0" x2="1" y1="1" y2="0" id="lorc-sharped-teeth-skull-gradient-15"><stop offset="0%" stop-color="#f8e71c" stop-opacity="1"></stop><stop offset="100%" stop-color="#b57204" stop-opacity="1"></stop></linearGradient><linearGradient x1="0" x2="1" y1="1" y2="0" id="lorc-sharped-teeth-skull-gradient-16"><stop offset="0%" stop-color="#ffffff" stop-opacity="1"></stop><stop offset="100%" stop-color="#4a4a4a" stop-opacity="1"></stop></linearGradient><linearGradient x1="0" x2="1" y1="1" y2="0" id="lorc-sharped-teeth-skull-gradient-17"><stop offset="0%" stop-color="#ffffff" stop-opacity="1"></stop><stop offset="100%" stop-color="#4a4a4a" stop-opacity="1"></stop></linearGradient></defs><g class="" transform="translate(0,0)" style=""><g><path d="M416.025 38.963C408.222 57.668 393.688 74.475 374.467 87.933C355.52 67.37 311.273 52.946 259.71 52.946C208.752 52.946 164.946 67.032 145.637 87.208C127.677 74.388 114.125 58.328 107.271 40.096C64.93 84.702 45.737 148.543 44.558 210.42C91.023 229.99 119.418 250.763 129.583 273.945C134.886 286.041 134.13 299.465 127.249 310.185C122.175 318.09 114.379 324.561 104.327 329.963C135.015 362.678 192.615 384.371 251.38 386.483C311.175 388.635 370.918 371.053 405.258 329.673C395.105 324.305 387.464 317.825 382.838 309.663C376.663 298.765 377.624 285.303 384.324 273.707C397.197 251.427 428.214 230.963 477.521 210.395C476.261 152.347 457.046 84.882 416.026 38.963Z" class="" fill="url(#lorc-sharped-teeth-skull-gradient-2)" stroke="#000000" stroke-opacity="1" stroke-width="2"></path><path d="M127.245 112.789C146.301 142.161 182.425 175.743 233.299 188.216C224.009 204.174 213.013 214.248 201.122 219.983C197.247 174.75 140.686 180.499 146.162 222.14C125.508 216.204 105.582 204.702 89.794 194.05C93.541 151.276 106.891 125.51 127.244 112.79Z" class="" fill="url(#lorc-sharped-teeth-skull-gradient-3)" stroke="#000000" stroke-opacity="1" stroke-width="2"></path><path d="M394.845 112.789C415.197 125.509 428.545 151.275 432.293 194.049C418.265 203.514 400.967 213.635 382.799 219.942C386.097 179.532 329.239 175.382 327.439 222.655C313.069 217.672 299.741 207.035 288.789 188.215C339.662 175.743 375.789 142.161 394.843 112.79Z" class="" fill="url(#lorc-sharped-teeth-skull-gradient-4)" stroke="#000000" stroke-opacity="1" stroke-width="2"></path><path d="M261.255 229.869C284.751 259.757 331.682 343.259 287.172 343.259C272.875 343.259 269.832 296.739 261.842 263.743L261.84 263.743C254.897 297.031 252.592 343.591 236.443 343.591C189.573 343.591 236.536 258.351 261.256 229.871Z" class="" fill="url(#lorc-sharped-teeth-skull-gradient-5)" stroke="#000000" stroke-opacity="1" stroke-width="2"></path><path d="M412.92 349.208C402.153 360.526 389.738 369.981 376.154 377.704C382.804 405.684 382.27 439.464 373.894 474.452C402.916 452.419 423.388 399.017 412.92 349.209Z" class="" fill="url(#lorc-sharped-teeth-skull-gradient-6)" stroke="#000000" stroke-opacity="1" stroke-width="2"></path><path d="M107.588 358.384C101.238 405.434 120.948 453.766 148.193 474.452C140.153 440.858 139.333 408.374 145.168 381.07C131.398 374.696 118.716 367.122 107.588 358.385Z" class="" fill="url(#lorc-sharped-teeth-skull-gradient-7)" stroke="#000000" stroke-opacity="1" stroke-width="2"></path><path d="M353.678 388.514C342.456 393.049 330.708 396.619 318.638 399.278C324.504 426.151 327.271 457.103 324.285 488.598C345.335 470.661 355.348 431.06 353.678 388.515Z" class="" fill="url(#lorc-sharped-teeth-skull-gradient-8)" stroke="#000000" stroke-opacity="1" stroke-width="2"></path><path d="M169.82 390.837C168.6 432.494 178.613 470.987 199.28 488.599C196.318 457.366 199.013 426.665 204.78 399.949C192.782 397.633 181.062 394.593 169.82 390.837Z" class="" fill="url(#lorc-sharped-teeth-skull-gradient-9)" stroke="#000000" stroke-opacity="1" stroke-width="2"></path><path d="M303.633 402.1C292.957 403.772 282.113 404.78 271.236 405.162C277.088 437.429 280.639 474.862 282.602 501.119C296.84 473.349 304.564 439.259 303.632 402.099Z" class="selected" fill="url(#lorc-sharped-teeth-skull-gradient-10)" stroke="#000000" stroke-opacity="1" stroke-width="2"></path><path d="M221.961 402.732C221.133 439.647 228.853 473.507 243.011 501.119C244.971 474.885 248.521 437.497 254.361 405.251C253.144 405.221 251.925 405.203 250.708 405.159C241.073 404.813 231.463 403.989 221.962 402.731Z" class="" fill="url(#lorc-sharped-teeth-skull-gradient-11)" stroke="#000000" stroke-opacity="1" stroke-width="2"></path></g></g></svg>