<svg xmlns="http://www.w3.org/2000/svg" viewBox="0 0 512 512" style="height: 512px; width: 512px;"><defs><radialGradient id="delapouite-executioner-hood-gradient-0"><stop offset="0%" stop-color="#c9c9c9" stop-opacity="1"></stop><stop offset="100%" stop-color="#000" stop-opacity="1"></stop></radialGradient><linearGradient x1="0" x2="1" y1="0" y2="1" id="delapouite-executioner-hood-gradient-1"><stop offset="0%" stop-color="#f8e71c" stop-opacity="1"></stop><stop offset="100%" stop-color="#f5a623" stop-opacity="1"></stop></linearGradient><linearGradient x1="0" x2="1" y1="0" y2="1" id="delapouite-executioner-hood-gradient-2"><stop offset="0%" stop-color="#ffffff" stop-opacity="1"></stop><stop offset="100%" stop-color="#ffe0af" stop-opacity="1"></stop></linearGradient><linearGradient x1="0" x2="1" y1="0" y2="1" id="delapouite-executioner-hood-gradient-3"><stop offset="0%" stop-color="#7ed321" stop-opacity="1"></stop><stop offset="100%" stop-color="#b8e986" stop-opacity="1"></stop></linearGradient><linearGradient x1="0" x2="1" y1="1" y2="0" id="delapouite-executioner-hood-gradient-4"><stop offset="0%" stop-color="#7ed321" stop-opacity="1"></stop><stop offset="100%" stop-color="#b8e986" stop-opacity="1"></stop></linearGradient><linearGradient x1="0" x2="0" y1="0" y2="1" id="delapouite-executioner-hood-gradient-5"><stop offset="0%" stop-color="#d0021b" stop-opacity="1"></stop><stop offset="100%" stop-color="#000000" stop-opacity="1"></stop></linearGradient></defs><g class="" transform="translate(0,0)" style=""><g><path d="M326.1 32.71C225.6 59.65 191.7 102.6 180.2 136.3L161.3 325.3C127.9 353.2 86.16 370.6 39.14 386.2L57.45 423.5L96.04 409.7L118.1 431.1L100.8 458.7L137 477.8L157.5 447.9L194.3 455.1L183.4 485.5L225.2 495.4L237.8 457.9L279.8 458.3L302.8 491L345.2 487.4L330.1 455L366 445.4L389.7 474L437.6 454.8L402.3 427.3L427.5 410.1L458.3 419.7L474 386.7C431.1 368 387 349.6 359.2 326.8L343.4 129.4C344 110 300.3 78.82 326.1 32.71Z" class="" fill="url(#delapouite-executioner-hood-gradient-2)" stroke="#000000" stroke-opacity="1" stroke-width="2"></path><path d="M198.5 208C204.5 236.1 227.2 241.1 256 248.9C229.5 249.8 212.8 264.5 198.5 248.9C187.8 237.4 192.2 221.1 198.5 208Z" class="selected" fill="url(#delapouite-executioner-hood-gradient-3)" stroke="#000000" stroke-opacity="1" stroke-width="2"></path><path d="M329.5 208C335.8 221.1 340.2 237.4 329.5 248.9C315.2 264.5 298.5 249.8 272 248.9C300.8 241.1 323.5 236.1 329.5 208Z" class="" fill="url(#delapouite-executioner-hood-gradient-4)" stroke="#000000" stroke-opacity="1" stroke-width="2"></path></g></g></svg>