<svg xmlns="http://www.w3.org/2000/svg" viewBox="0 0 512 512" style="height: 512px; width: 512px;"><defs><radialGradient id="delapouite-shrug-gradient-0"><stop offset="0%" stop-color="#c9c9c9" stop-opacity="1"></stop><stop offset="100%" stop-color="#000" stop-opacity="1"></stop></radialGradient><linearGradient x1="0" x2="1" y1="0" y2="1" id="delapouite-shrug-gradient-1"><stop offset="0%" stop-color="#f8e71c" stop-opacity="1"></stop><stop offset="100%" stop-color="#f5a623" stop-opacity="1"></stop></linearGradient><linearGradient x1="0" x2="1" y1="0" y2="1" id="delapouite-shrug-gradient-2"><stop offset="0%" stop-color="#f8e71c" stop-opacity="1"></stop><stop offset="100%" stop-color="#f5a623" stop-opacity="1"></stop></linearGradient><linearGradient x1="0" x2="1" y1="0" y2="1" id="delapouite-shrug-gradient-3"><stop offset="0%" stop-color="#f8e71c" stop-opacity="1"></stop><stop offset="100%" stop-color="#f5a623" stop-opacity="1"></stop></linearGradient></defs><g class="" transform="translate(0,0)" style=""><g><path d="M256 29C244.358 29 233.015 36.432 223.994 50.607C214.974 64.783 209 85.247 209 108C209 130.753 214.973 151.217 223.994 165.393C233.014 179.568 244.358 187 256 187C267.642 187 278.985 179.568 288.006 165.393C297.026 151.217 303 130.753 303 108C303 85.247 297.027 64.783 288.006 50.607C278.986 36.432 267.642 29 256 29Z" class="selected" fill="url(#delapouite-shrug-gradient-2)" stroke="#000000" stroke-opacity="1" stroke-width="2"></path><path d="M176 160C144 160 128 304 128 304C128 288 112 240 96 208C80 208 19.998 224 20 234L20 256L80 240C80 240 112 368 128 368C144 368 176 256 176 256L192 490L320 490L336 256C336 256 368 368 384 368C400 368 432 240 432 240L492 256L492 234C492.027 224 432 208 416 208C400 240 384 288 384 304C384 304 368 160 336 160C336 160 325.098 160.02 310.273 161.74C308.181 166.465 305.82 170.927 303.191 175.057C291.945 192.73 275.287 205 256 205C236.714 205 220.056 192.73 208.81 175.057C206.18 170.927 203.82 166.465 201.727 161.74C186.902 160.02 176 160 176 160Z" class="" fill="url(#delapouite-shrug-gradient-3)" stroke="#000000" stroke-opacity="1" stroke-width="2"></path></g></g></svg>