<svg xmlns="http://www.w3.org/2000/svg" viewBox="0 0 512 512" style="height: 512px; width: 512px;"><defs><radialGradient id="delapouite-cavalry-gradient-0"><stop offset="0%" stop-color="#c9c9c9" stop-opacity="1"></stop><stop offset="100%" stop-color="#000" stop-opacity="1"></stop></radialGradient><linearGradient x1="0" x2="1" y1="1" y2="0" id="delapouite-cavalry-gradient-1"><stop offset="0%" stop-color="#f5a623" stop-opacity="1"></stop><stop offset="100%" stop-color="#f8e71c" stop-opacity="1"></stop></linearGradient><linearGradient x1="0" x2="1" y1="1" y2="0" id="delapouite-cavalry-gradient-2"><stop offset="0%" stop-color="#b8e986" stop-opacity="1"></stop><stop offset="100%" stop-color="#f8e71c" stop-opacity="1"></stop></linearGradient><linearGradient x1="0" x2="1" y1="1" y2="0" id="delapouite-cavalry-gradient-3"><stop offset="0%" stop-color="#b8e986" stop-opacity="1"></stop><stop offset="100%" stop-color="#f8e71c" stop-opacity="1"></stop></linearGradient><linearGradient x1="0" x2="1" y1="1" y2="0" id="delapouite-cavalry-gradient-4"><stop offset="0%" stop-color="#b8e986" stop-opacity="1"></stop><stop offset="100%" stop-color="#f8e71c" stop-opacity="1"></stop></linearGradient><linearGradient x1="0" x2="1" y1="1" y2="0" id="delapouite-cavalry-gradient-5"><stop offset="0%" stop-color="#b8e986" stop-opacity="1"></stop><stop offset="100%" stop-color="#f8e71c" stop-opacity="1"></stop></linearGradient><linearGradient x1="0" x2="1" y1="1" y2="0" id="delapouite-cavalry-gradient-6"><stop offset="0%" stop-color="#9b9b9b" stop-opacity="1"></stop><stop offset="100%" stop-color="#4a4a4a" stop-opacity="1"></stop></linearGradient><linearGradient x1="0" x2="1" y1="1" y2="0" id="delapouite-cavalry-gradient-7"><stop offset="0%" stop-color="#b8e986" stop-opacity="1"></stop><stop offset="100%" stop-color="#f8e71c" stop-opacity="1"></stop></linearGradient><linearGradient x1="0" x2="1" y1="1" y2="0" id="delapouite-cavalry-gradient-8"><stop offset="0%" stop-color="#bd10e0" stop-opacity="1"></stop><stop offset="100%" stop-color="#fc88fc" stop-opacity="1"></stop></linearGradient><linearGradient x1="0" x2="1" y1="0" y2="1" id="delapouite-cavalry-gradient-9"><stop offset="0%" stop-color="#b57204" stop-opacity="1"></stop><stop offset="100%" stop-color="#f8e71c" stop-opacity="1"></stop></linearGradient><linearGradient x1="0" x2="1" y1="0" y2="1" id="delapouite-cavalry-gradient-10"><stop offset="0%" stop-color="#b57204" stop-opacity="1"></stop><stop offset="100%" stop-color="#f8e71c" stop-opacity="1"></stop></linearGradient><linearGradient x1="0" x2="0" y1="0" y2="1" id="delapouite-cavalry-gradient-11"><stop offset="0%" stop-color="#d0021b" stop-opacity="1"></stop><stop offset="100%" stop-color="#000000" stop-opacity="1"></stop></linearGradient><linearGradient x1="0" x2="1" y1="1" y2="0" id="delapouite-cavalry-gradient-12"><stop offset="0%" stop-color="#f5a623" stop-opacity="1"></stop><stop offset="100%" stop-color="#f8e71c" stop-opacity="1"></stop></linearGradient><linearGradient x1="0" x2="1" y1="1" y2="0" id="delapouite-cavalry-gradient-13"><stop offset="0%" stop-color="#fc88fc" stop-opacity="1"></stop><stop offset="100%" stop-color="#bd10e0" stop-opacity="1"></stop></linearGradient><linearGradient x1="0" x2="1" y1="1" y2="0" id="delapouite-cavalry-gradient-14"><stop offset="0%" stop-color="#9b9b9b" stop-opacity="1"></stop><stop offset="100%" stop-color="#4a4a4a" stop-opacity="1"></stop></linearGradient><linearGradient x1="0" x2="1" y1="1" y2="0" id="delapouite-cavalry-gradient-15"><stop offset="0%" stop-color="#f8e71c" stop-opacity="1"></stop><stop offset="100%" stop-color="#b57204" stop-opacity="1"></stop></linearGradient><linearGradient x1="0" x2="1" y1="0" y2="1" id="delapouite-cavalry-gradient-16"><stop offset="0%" stop-color="#8b572a" stop-opacity="1"></stop><stop offset="100%" stop-color="#f8e71c" stop-opacity="1"></stop></linearGradient><linearGradient x1="0" x2="1" y1="0" y2="1" id="delapouite-cavalry-gradient-17"><stop offset="0%" stop-color="#8b572a" stop-opacity="1"></stop><stop offset="100%" stop-color="#f8e71c" stop-opacity="1"></stop></linearGradient></defs><g class="" transform="translate(0,0)" style=""><g><path d="M258.962 29.14C255.752 29.203 252.282 30.298 248.659 32.54C242.861 36.124 237.189 42.68 233.787 51.255C230.387 59.83 230.02 68.491 231.783 75.075C233.546 81.66 237.031 85.84 241.613 87.658C246.195 89.475 251.599 88.823 257.397 85.238C263.194 81.652 268.864 75.095 272.267 66.521C275.667 57.948 276.034 49.286 274.272 42.701C272.509 36.117 269.022 31.937 264.44 30.121C262.722 29.438 260.89 29.103 258.962 29.141Z" class="" fill="url(#delapouite-cavalry-gradient-2)" stroke="#000000" stroke-opacity="1" stroke-width="2"></path><path d="M342.39 65.152C333.567 78.589 324.845 92.729 306.122 110.352L304.507 111.872L302.37 112.468C293.205 115.022 283.37 116.168 273.507 116.948C272.967 122.77 271.747 128.418 270.015 133.894C284.829 134.081 298.842 133.116 311.312 129.274C329.572 112.086 347.935 93.899 355.997 72.574L342.39 65.152Z" class="selected" fill="url(#delapouite-cavalry-gradient-3)" stroke="#000000" stroke-opacity="1" stroke-width="2"></path><path d="M209.255 96.732C209.083 96.732 208.907 96.737 208.728 96.752C207.48 96.869 205.882 97.577 203.706 98.878C191.808 111.168 189.699 132.074 202.839 155.96C208.569 166.38 220.933 174.237 236.499 179.54C249.664 184.025 264.637 186.553 278.307 188.05L282.017 174.607C275.777 172.799 268.009 170.957 259.875 168.525C248.062 164.995 235.299 160.088 225.52 150.093L225.177 149.743L224.874 149.355C219.827 142.925 219.317 135.513 219.274 126.859C219.237 119.814 220.087 111.605 221.294 102.836C217.949 100.633 215.036 98.626 212.904 97.748C211.509 97.173 210.459 96.74 209.254 96.73Z" class="" fill="url(#delapouite-cavalry-gradient-4)" stroke="#000000" stroke-opacity="1" stroke-width="2"></path><path d="M238.497 109.408C237.691 116.061 237.247 121.981 237.271 126.768C237.306 133.485 238.797 137.582 238.961 137.978C240.949 139.914 243.265 141.648 245.831 143.218C250.367 134.698 253.861 126.258 255.194 117.988L238.498 109.408Z" class="" fill="url(#delapouite-cavalry-gradient-5)" stroke="#000000" stroke-opacity="1" stroke-width="2"></path><path d="M441.452 145.908C402.754 146.315 343.704 171.435 314.142 192.658L336.072 219.322C359.152 194.165 386.742 177.04 414.362 170.074C442.382 163.006 470.812 166.824 492.692 183.671C494.476 181.871 495.196 180.111 495.386 178.239C495.691 175.229 494.388 170.793 490.521 165.956C482.787 156.281 465.574 146.614 445.133 145.948C443.929 145.908 442.703 145.896 441.453 145.908Z" class="" fill="url(#delapouite-cavalry-gradient-6)" stroke="#000000" stroke-opacity="1" stroke-width="2"></path><path d="M182.292 154.642C175.724 171.032 172.084 187.992 174.487 202.525C176.75 215.629 182.632 219.985 192.612 224.465C202.602 228.948 216.419 231.582 229.519 238.501L235.985 241.918L233.963 248.948C228.293 268.668 219.313 287.724 205.651 305.358C214.311 316.208 229.667 325.308 246.491 334.374L252.629 323.481L235.195 294.403L239.335 289.489C250.122 276.685 256.171 250.607 260.217 233.735C252.525 226.035 234.427 217.655 217.414 205.185L211.054 200.525L214.838 193.608C215.358 192.656 215.914 191.702 216.458 190.748C204.27 184.778 193.598 176.511 187.068 164.638C185.245 161.325 183.661 157.986 182.29 154.643Z" class="" fill="url(#delapouite-cavalry-gradient-7)" stroke="#000000" stroke-opacity="1" stroke-width="2"></path><path d="M442.427 184.564C434.84 184.471 426.91 185.472 418.763 187.527C392.693 194.103 364.996 211.873 342.777 238.904L335.825 247.361L302.485 206.821C300.715 207.109 299.059 207.371 297.275 207.663C307.183 223.773 314.225 238.833 322.968 248.551C328.683 254.903 334.711 259.135 343.348 261.293C351.373 263.299 362.008 263.397 376.611 260.167C373.916 252.312 374.351 244.163 376.293 237.09C378.813 227.918 383.373 219.81 387.073 212.556L403.108 220.74C400.941 224.984 398.786 229.132 396.996 233.064C402.098 232.792 410.096 232.319 417.606 231.818C426.59 231.218 431.946 230.836 434.986 230.621C436.689 227.051 438.548 223.903 440.891 221.124C444.404 216.954 449.577 213.741 455.147 213.016C456.539 212.836 457.911 212.759 459.277 212.782C466.077 212.896 472.7 215.474 480.57 219.468C482.437 213.36 484.28 207.326 486.11 201.423C474.06 190.243 459.066 184.771 442.427 184.567Z" class="" fill="url(#delapouite-cavalry-gradient-8)" stroke="#000000" stroke-opacity="1" stroke-width="2"></path><path d="M277.92 210.86C273.472 211.603 268.968 212.37 264.472 213.13C269.494 216.888 274.006 221.162 277.522 226.423L279.726 229.72L278.778 233.572C275.421 247.23 270.925 275.422 256.976 295.722L273.45 323.202L258.648 349.462C265.588 347.662 272.186 345.216 278.255 342.015L289.255 336.215L291.329 348.475C297.307 383.835 278.227 416.955 268.854 447.769C275.362 456.819 281.101 462.749 286.129 468.157C290.226 472.564 294.133 477.163 296.783 482.84L325.037 482.84C323.174 472.983 319.81 467.343 307.203 456.09L301.625 451.11L305.495 444.714C320.782 419.466 330.398 361.794 334.42 333.254L335.34 326.728L341.843 325.636C352.096 323.916 358.676 319.779 364.005 313.81C369.335 307.84 373.238 299.734 376.263 290.52C377.597 286.453 378.711 282.21 379.741 277.9C363.578 281.394 350.291 281.58 338.987 278.755C326.627 275.667 317.03 268.862 309.587 260.591C296.639 246.201 288.937 227.858 277.922 210.861Z" class="" fill="url(#delapouite-cavalry-gradient-9)" stroke="#000000" stroke-opacity="1" stroke-width="2"></path><path d="M169.583 230.384C155.536 233.174 142.175 235.954 130.153 238.674C117.559 242.949 109.498 249.481 103.233 258.439C96.913 267.469 92.589 279.237 89.15 293.189C82.3 320.967 79.124 356.926 66.077 394.047L48.612 459.481C52.56 463.221 56.334 465.754 60.329 469.336C63.817 472.466 67.019 477.093 68.909 482.84L92.356 482.84C92.949 473.34 89.646 463.006 81.5 456.34L76.32 452.105L102.462 389.152L107.812 388.615C129.052 386.482 148.36 362.505 159.002 348.353L162.752 343.371L168.734 345.129C191.334 351.766 217.844 355.285 242.06 352.506C220.953 341.42 198.515 329.966 186.655 309.489L183.48 304.006L187.57 299.166C200.15 284.293 208.447 268.298 214.17 251.366C205.458 247.976 195.217 245.364 185.24 240.886C179.732 238.414 174.273 234.989 169.583 230.386Z" class="" fill="url(#delapouite-cavalry-gradient-10)" stroke="#000000" stroke-opacity="1" stroke-width="2"></path><path d="M457.963 230.844C457.773 230.839 457.61 230.846 457.47 230.864C456.352 231.01 456.064 231.049 454.653 232.722C453.301 234.326 451.439 237.666 449.437 242.507C447.823 248.489 449.374 252.804 453.679 258.41C456.244 261.75 459.837 265.156 463.839 268.527C467.945 258.467 471.629 247.811 475.089 237.06C466.063 232.646 460.229 230.89 457.961 230.843Z" class="" fill="url(#delapouite-cavalry-gradient-11)" stroke="#000000" stroke-opacity="1" stroke-width="2"></path><path d="M117.713 244.104C117.693 244.104 117.393 244.18 117.355 244.184C117.725 244.204 117.785 244.098 117.715 244.104Z" class="" fill="url(#delapouite-cavalry-gradient-12)" stroke="#000000" stroke-opacity="1" stroke-width="2"></path><path d="M431.066 248.934C426.94 249.222 425.149 249.356 418.804 249.779C407.984 250.499 397.501 251.219 392.684 251.276C392.997 253.376 393.764 255.403 395.094 257.541L395.626 258.395L395.956 259.345C396.583 261.152 397.156 262.847 397.7 264.495C400.19 268.93 407.638 275.715 417.964 281.03C428.297 286.347 440.978 290.578 452.254 292.712C453.588 290.387 454.878 287.985 456.13 285.522C450.267 280.907 444.253 275.69 439.403 269.374C435.063 263.722 431.733 256.654 431.066 248.934Z" class="" fill="url(#delapouite-cavalry-gradient-13)" stroke="#000000" stroke-opacity="1" stroke-width="2"></path><path d="M83.496 256.24C77.809 258.747 72.211 261.403 67.382 263.98C61.248 267.253 56.749 270.52 55.012 272.01C50.456 287.8 48.492 302.098 43.232 316.894C38.512 330.17 30.745 343.474 16.572 357.004C28.196 367.004 39.806 373.214 54.042 372.32C62.244 343.1 65.422 314.24 71.672 288.88C74.56 277.17 78.144 266.137 83.497 256.24Z" class="" fill="url(#delapouite-cavalry-gradient-14)" stroke="#000000" stroke-opacity="1" stroke-width="2"></path><path d="M403.906 293.85C404.13 299.592 403.771 305.72 402.962 313.458C402.912 320.321 406.606 324.788 412.21 326.168C417.833 327.556 426.79 325.873 437.032 313.546L437.236 313.302L437.456 313.072C438.771 311.7 440.046 310.248 441.292 308.748C430.516 306.094 419.532 302.08 409.73 297.038C407.74 296.013 405.805 294.945 403.905 293.848Z" class="" fill="url(#delapouite-cavalry-gradient-15)" stroke="#000000" stroke-opacity="1" stroke-width="2"></path><path d="M376.443 326.867C370.083 333.585 361.627 338.803 351.361 341.724C351.351 341.801 351.335 341.894 351.324 341.972L366.66 359.175L357.995 384.83L343.465 388.046C341.759 396.116 339.787 404.31 337.515 412.324C337.938 412.404 338.365 412.494 338.785 412.57C349.227 414.462 357.957 414.485 365.7 410.886C383.215 392.026 393.818 379.321 397.65 357.446C395.78 349.543 387.523 337.438 377.984 328.308C377.472 327.818 376.958 327.341 376.444 326.868Z" class="" fill="url(#delapouite-cavalry-gradient-16)" stroke="#000000" stroke-opacity="1" stroke-width="2"></path><path d="M165.45 369.527C160.117 376.319 153.437 384.037 145.29 390.691C161.597 422.135 179.858 453.583 202.77 482.864L229.523 482.864C200.563 447.284 181.683 407.741 165.45 369.528Z" class="" fill="url(#delapouite-cavalry-gradient-17)" stroke="#000000" stroke-opacity="1" stroke-width="2"></path></g></g></svg>