<svg xmlns="http://www.w3.org/2000/svg" viewBox="0 0 512 512" style="height: 512px; width: 512px;"><defs><radialGradient id="skoll-mounted-knight-gradient-0"><stop offset="0%" stop-color="#c9c9c9" stop-opacity="1"></stop><stop offset="100%" stop-color="#000" stop-opacity="1"></stop></radialGradient><linearGradient x1="0" x2="1" y1="1" y2="0" id="skoll-mounted-knight-gradient-1"><stop offset="0%" stop-color="#f5a623" stop-opacity="1"></stop><stop offset="100%" stop-color="#f8e71c" stop-opacity="1"></stop></linearGradient><linearGradient x1="0" x2="1" y1="1" y2="0" id="skoll-mounted-knight-gradient-2"><stop offset="0%" stop-color="#b8e986" stop-opacity="1"></stop><stop offset="100%" stop-color="#f8e71c" stop-opacity="1"></stop></linearGradient><linearGradient x1="0" x2="1" y1="1" y2="0" id="skoll-mounted-knight-gradient-3"><stop offset="0%" stop-color="#48baff" stop-opacity="1"></stop><stop offset="100%" stop-color="#417505" stop-opacity="1"></stop></linearGradient><linearGradient x1="0" x2="1" y1="1" y2="0" id="skoll-mounted-knight-gradient-4"><stop offset="0%" stop-color="#f5a623" stop-opacity="1"></stop><stop offset="100%" stop-color="#d0021b" stop-opacity="1"></stop></linearGradient><linearGradient x1="0" x2="1" y1="1" y2="0" id="skoll-mounted-knight-gradient-5"><stop offset="0%" stop-color="#d0021b" stop-opacity="1"></stop><stop offset="100%" stop-color="#f5a623" stop-opacity="1"></stop></linearGradient><linearGradient x1="0" x2="1" y1="1" y2="0" id="skoll-mounted-knight-gradient-6"><stop offset="0%" stop-color="#b57204" stop-opacity="1"></stop><stop offset="100%" stop-color="#8b572a" stop-opacity="1"></stop></linearGradient><linearGradient x1="0" x2="1" y1="0" y2="1" id="skoll-mounted-knight-gradient-7"><stop offset="0%" stop-color="#9b9b9b" stop-opacity="1"></stop><stop offset="100%" stop-color="#4a4a4a" stop-opacity="1"></stop></linearGradient><linearGradient x1="0" x2="1" y1="1" y2="0" id="skoll-mounted-knight-gradient-8"><stop offset="0%" stop-color="#b57204" stop-opacity="1"></stop><stop offset="100%" stop-color="#8b572a" stop-opacity="1"></stop></linearGradient><linearGradient x1="0" x2="1" y1="0" y2="1" id="skoll-mounted-knight-gradient-9"><stop offset="0%" stop-color="#b57204" stop-opacity="1"></stop><stop offset="100%" stop-color="#8b572a" stop-opacity="1"></stop></linearGradient><linearGradient x1="0" x2="1" y1="0" y2="1" id="skoll-mounted-knight-gradient-10"><stop offset="0%" stop-color="#ffffff" stop-opacity="1"></stop><stop offset="100%" stop-color="#9b9b9b" stop-opacity="1"></stop></linearGradient><linearGradient x1="0" x2="1" y1="0" y2="1" id="skoll-mounted-knight-gradient-11"><stop offset="0%" stop-color="#bd10e0" stop-opacity="1"></stop><stop offset="100%" stop-color="#9013fe" stop-opacity="1"></stop></linearGradient><linearGradient x1="0" x2="1" y1="1" y2="0" id="skoll-mounted-knight-gradient-12"><stop offset="0%" stop-color="#f5a623" stop-opacity="1"></stop><stop offset="100%" stop-color="#f8e71c" stop-opacity="1"></stop></linearGradient><linearGradient x1="0" x2="1" y1="1" y2="0" id="skoll-mounted-knight-gradient-13"><stop offset="0%" stop-color="#f8e71c" stop-opacity="1"></stop><stop offset="100%" stop-color="#f5a623" stop-opacity="1"></stop></linearGradient><linearGradient x1="0" x2="1" y1="1" y2="0" id="skoll-mounted-knight-gradient-14"><stop offset="0%" stop-color="#9b9b9b" stop-opacity="1"></stop><stop offset="100%" stop-color="#ffffff" stop-opacity="1"></stop></linearGradient><linearGradient x1="0" x2="1" y1="1" y2="0" id="skoll-mounted-knight-gradient-15"><stop offset="0%" stop-color="#f8e71c" stop-opacity="1"></stop><stop offset="100%" stop-color="#b57204" stop-opacity="1"></stop></linearGradient><linearGradient x1="0" x2="1" y1="1" y2="0" id="skoll-mounted-knight-gradient-16"><stop offset="0%" stop-color="#ffffff" stop-opacity="1"></stop><stop offset="100%" stop-color="#4a4a4a" stop-opacity="1"></stop></linearGradient><linearGradient x1="0" x2="1" y1="1" y2="0" id="skoll-mounted-knight-gradient-17"><stop offset="0%" stop-color="#ffffff" stop-opacity="1"></stop><stop offset="100%" stop-color="#4a4a4a" stop-opacity="1"></stop></linearGradient></defs><g class="" transform="translate(0,0)" style=""><g><path d="M222.776 64.76C224.201 64.759 225.62 64.947 226.996 65.32C235.446 67.61 240.876 76.47 241.566 87.32L215.786 93.32L237.676 107.18C232.746 117.65 224.006 124.48 215.336 124.48C213.911 124.481 212.492 124.293 211.116 123.92C199.436 120.76 193.526 105.07 197.916 88.92C201.786 74.66 212.346 64.76 222.776 64.76Z" class="" fill="url(#skoll-mounted-knight-gradient-2)" stroke="#000000" stroke-opacity="1" stroke-width="2"></path><path d="M202.486 55.32C205.326 53.369 208.413 51.805 211.666 50.67C206.196 46.44 199.606 41.85 195.766 40.94C167.966 34.39 167.426 75.35 146.686 56.29C163.456 86.85 182.046 44.11 202.486 55.33Z" class="selected" fill="url(#skoll-mounted-knight-gradient-3)" stroke="#000000" stroke-opacity="1" stroke-width="2"></path><path d="M256.486 170.88C250.049 156.64 233.278 150.323 219.046 156.78L242.386 208.33C256.632 201.892 262.956 185.12 256.506 170.88Z" class="" fill="url(#skoll-mounted-knight-gradient-4)" stroke="#000000" stroke-opacity="1" stroke-width="2"></path><path d="M186.966 205.88L165.246 199.22L104.306 230.22L111.466 244.29Z" class="" fill="url(#skoll-mounted-knight-gradient-5)" stroke="#000000" stroke-opacity="1" stroke-width="2"></path><path d="M216.846 140.47L215.316 140.47C212.48 140.472 209.656 140.1 206.916 139.36C201.534 137.882 196.621 135.048 192.646 131.13L173.156 184.91L220.846 199.54L210.166 175.95L196.166 173.31L205.856 166.31L197.846 148.8C197.846 148.8 215.366 140.97 216.846 140.47Z" class="" fill="url(#skoll-mounted-knight-gradient-6)" stroke="#000000" stroke-opacity="1" stroke-width="2"></path><path d="M84.196 283.47C19.476 237.29 126.196 186.15 37.146 177.6C96.416 204.17 -12.284 222.41 26.896 275.31C34.386 285.42 61.656 300.26 76.536 307.87C77.753 299.377 80.354 291.141 84.236 283.49Z" class="" fill="url(#skoll-mounted-knight-gradient-7)" stroke="#000000" stroke-opacity="1" stroke-width="2"></path><path d="M216.986 220.21L219.296 215.79L209.006 212.64L159.096 238.03L227.746 264.5L179.406 304.59L220.036 331.14L213.536 307.21L258.946 258.21Z" class="" fill="url(#skoll-mounted-knight-gradient-8)" stroke="#000000" stroke-opacity="1" stroke-width="2"></path><path d="M230.716 138.21C235.614 138.213 240.476 139.03 245.106 140.63L286.896 119.41C275.151 117.087 263.208 115.911 251.236 115.9C245.556 126.9 236.886 134.9 227.066 138.41C228.276 138.32 229.496 138.25 230.716 138.25Z" class="" fill="url(#skoll-mounted-knight-gradient-9)" stroke="#000000" stroke-opacity="1" stroke-width="2"></path><path d="M412.716 262.58L408.566 262.58C403.196 262.58 397.206 262.37 390.796 261.95L403.456 279.95L428.456 272.62C428.456 272.62 427.326 268.07 425.716 261.39C421.409 262.144 417.048 262.555 412.676 262.62Z" class="" fill="url(#skoll-mounted-knight-gradient-10)" stroke="#000000" stroke-opacity="1" stroke-width="2"></path><path d="M273.746 216.21C287.586 193.32 320.506 149.48 369.746 149.48C386.536 149.48 405.236 154.58 425.746 167.34L414.746 187.17L414.956 209.1C414.526 212.35 418.356 230.1 422.036 246C415.386 247.15 399.036 247 378.856 245L373.176 236.9C357.016 227.35 344.426 221.14 344.426 221.14C344.426 221.14 345.336 228.91 345.646 240.37C322.586 236.19 298.796 229.7 280.806 220.24C278.387 219.014 276.031 217.669 273.746 216.21Z" class="" fill="url(#skoll-mounted-knight-gradient-11)" stroke="#000000" stroke-opacity="1" stroke-width="2"></path><path d="M393.846 197.83C393.846 202.508 399.501 204.85 402.809 201.542C406.115 198.235 403.773 192.58 399.095 192.58C396.196 192.58 393.845 194.931 393.845 197.83Z" class="" fill="url(#skoll-mounted-knight-gradient-12)" stroke="#000000" stroke-opacity="1" stroke-width="2"></path><path d="M261.206 150.41C265.109 154.104 268.304 158.479 270.636 163.32L493.846 39.92L493.846 30.52Z" class="" fill="url(#skoll-mounted-knight-gradient-13)" stroke="#000000" stroke-opacity="1" stroke-width="2"></path><path d="M337.376 304.53C343.016 289.81 345.056 271.95 345.576 256.53C328.95 253.72 312.568 249.625 296.576 244.28C286.061 240.793 275.96 236.162 266.456 230.47L280.236 327.13L151.236 344.27L140.846 257.22C136.586 258.99 132.396 260.86 128.306 262.86C69.496 291.54 98.846 359.04 98.846 359.04L73.846 408.25L103.956 462.6L103.956 481.41L137.856 481.41L122.116 458.58L107.636 406.01L156.506 359.61C184.396 360.87 258.946 348.12 291.026 342.61L374.026 347.16L396.906 376.45L380.056 389L409.606 402.9L418.976 384.45L399.746 335.17Z" class="" fill="url(#skoll-mounted-knight-gradient-14)" stroke="#000000" stroke-opacity="1" stroke-width="2"></path><path d="M286.156 173.41L274.846 179.13C275.029 181.588 275.006 184.056 274.776 186.51C278.236 182.19 282.006 177.76 286.156 173.41Z" class="" fill="url(#skoll-mounted-knight-gradient-15)" stroke="#000000" stroke-opacity="1" stroke-width="2"></path><path d="M317.846 405.33L312.846 359.89L291.956 358.75C285.756 359.81 278.846 360.97 271.516 362.18L292.976 409.92L310.656 464.48L310.026 481.48L341.696 481.48L332.046 463.65Z" class="" fill="url(#skoll-mounted-knight-gradient-16)" stroke="#000000" stroke-opacity="1" stroke-width="2"></path><path d="M177.466 424.78L214.256 370.96C192.926 373.91 162.946 376.03 162.786 376.03L165.716 383.64L146.616 425.51L193.616 469.58L193.616 481.33L222.266 481.33L210.916 468.41Z" class="" fill="url(#skoll-mounted-knight-gradient-17)" stroke="#000000" stroke-opacity="1" stroke-width="2"></path></g></g></svg>