<svg xmlns="http://www.w3.org/2000/svg" viewBox="0 0 512 512" style="height: 512px; width: 512px;"><defs><radialGradient id="lorc-cowled-gradient-0"><stop offset="0%" stop-color="#c9c9c9" stop-opacity="1"></stop><stop offset="100%" stop-color="#000" stop-opacity="1"></stop></radialGradient><linearGradient x1="0" x2="1" y1="0" y2="1" id="lorc-cowled-gradient-1"><stop offset="0%" stop-color="#f8e71c" stop-opacity="1"></stop><stop offset="100%" stop-color="#f5a623" stop-opacity="1"></stop></linearGradient><linearGradient x1="0" x2="1" y1="0" y2="1" id="lorc-cowled-gradient-2"><stop offset="0%" stop-color="#9b9b9b" stop-opacity="1"></stop><stop offset="100%" stop-color="#000000" stop-opacity="1"></stop></linearGradient><linearGradient x1="0" x2="1" y1="0" y2="1" id="lorc-cowled-gradient-3"><stop offset="0%" stop-color="#f8e71c" stop-opacity="1"></stop><stop offset="100%" stop-color="#f5a623" stop-opacity="1"></stop></linearGradient><linearGradient id="lorc-cowled-gradient-4" x1="0" x2="0" y1="0" y2="1"><stop offset="0%" stop-color="#d0021b" stop-opacity="1"></stop><stop offset="100%" stop-color="#000000" stop-opacity="1"></stop></linearGradient><linearGradient id="lorc-cowled-gradient-5" x1="0" x2="0" y1="0" y2="1"><stop offset="0%" stop-color="#d0021b" stop-opacity="1"></stop><stop offset="100%" stop-color="#000000" stop-opacity="1"></stop></linearGradient></defs><g class="" transform="translate(0,0)" style=""><g><path d="M254.1 18.63C172.7 18.63 22.67 174.6 82.47 319.4C90.47 344.7 110.3 369.8 131.6 396.5C156 427.1 183.2 459.7 200.3 493.4L220.8 493.4C202.7 453.6 172.3 417.5 146.2 384.8C118.8 350.5 97.47 319.6 97.47 296.9C97.57 287.8 99.7 278.8 103 270.6C126 209.2 217 150.9 251.5 135.6L255.1 133.6L259 134.9C319.9 155.8 388.3 201.6 413 270.6C417.1 282.3 418.9 288.6 418.6 297.9C418.1 313.7 394.1 352.6 363.6 386.6C334.5 419 301.2 454.3 283.6 493.3L304.1 493.3C320.9 461.1 350.3 429.3 377.4 399.1C400.6 373.5 422.7 349.1 432.3 324.3C485.2 200.3 333.1 18.63 254.1 18.63Z" class="selected" fill="url(#lorc-cowled-gradient-2)" stroke="#000000" stroke-opacity="1" stroke-width="2"></path><path d="M254.9 154.1C216.2 175.6 169.8 206.3 141.2 242.3C150.9 325.3 200.2 388.4 259.5 388.4C318.7 388.4 367.8 325.7 377.7 243.1C348.8 201 299.7 170.2 254.9 154.1Z" class="" fill="url(#lorc-cowled-gradient-3)" stroke="#000000" stroke-opacity="1" stroke-width="2"></path><path d="M196.6 237.1L199 237.1C212.1 237.2 225.1 239.8 238.1 244.5C221.3 285.1 179.1 286.5 160 244.5C172.2 239.7 184.4 237.3 196.6 237.1Z" class="" fill="url(#lorc-cowled-gradient-4)" stroke="#000000" stroke-opacity="1" stroke-width="2"></path><path d="M321.5 237.1C334.5 237 347.5 239.4 360.6 244.5C341.4 286.5 299.3 285.1 282.4 244.5C295.5 239.8 308.5 237.2 321.5 237.1Z" class="" fill="url(#lorc-cowled-gradient-5)" stroke="#000000" stroke-opacity="1" stroke-width="2"></path></g></g></svg>