<svg xmlns="http://www.w3.org/2000/svg" viewBox="0 0 512 512" style="height: 512px; width: 512px;"><defs><radialGradient id="delapouite-fire-gem-gradient-0"><stop offset="0%" stop-color="#c9c9c9" stop-opacity="1"></stop><stop offset="100%" stop-color="#000" stop-opacity="1"></stop></radialGradient><linearGradient x1="0" x2="0" y1="0" y2="1" id="delapouite-fire-gem-gradient-2"><stop offset="0%" stop-color="#4a4a4a" stop-opacity="1"></stop><stop offset="100%" stop-color="#9b9b9b" stop-opacity="1"></stop></linearGradient><linearGradient x1="0" x2="1" y1="0" y2="1" id="delapouite-fire-gem-gradient-3"><stop offset="0%" stop-color="#4a4a4a" stop-opacity="1"></stop><stop offset="100%" stop-color="#c9c9c9" stop-opacity="1"></stop></linearGradient><linearGradient id="delapouite-fire-gem-gradient-4" x1="0" x2="1" y1="1" y2="0"><stop offset="0%" stop-color="#c9c9c9" stop-opacity="1"></stop><stop offset="100%" stop-color="#4a4a4a" stop-opacity="1"></stop></linearGradient><linearGradient id="delapouite-fire-gem-gradient-6"><stop offset="0%" stop-color="#4a4a4a" stop-opacity="1"></stop><stop offset="100%" stop-color="#c9c9c9" stop-opacity="1"></stop></linearGradient><linearGradient id="delapouite-fire-gem-gradient-7"><stop offset="0%" stop-color="#c9c9c9" stop-opacity="1"></stop><stop offset="100%" stop-color="#4a4a4a" stop-opacity="1"></stop></linearGradient><linearGradient x1="0" x2="1" y1="1" y2="0" id="delapouite-fire-gem-gradient-9"><stop offset="0%" stop-color="#4a4a4a" stop-opacity="1"></stop><stop offset="100%" stop-color="#c9c9c9" stop-opacity="1"></stop></linearGradient><linearGradient x1="0" x2="1" y1="0" y2="1" id="delapouite-fire-gem-gradient-10"><stop offset="0%" stop-color="#c9c9c9" stop-opacity="1"></stop><stop offset="100%" stop-color="#4a4a4a" stop-opacity="1"></stop></linearGradient><linearGradient x1="0" x2="0" y1="0" y2="1" id="delapouite-fire-gem-gradient-11"><stop offset="0%" stop-color="#c9c9c9" stop-opacity="1"></stop><stop offset="100%" stop-color="#4a4a4a" stop-opacity="1"></stop></linearGradient><linearGradient x1="0" x2="1" y1="0" y2="1" id="delapouite-fire-gem-gradient-12"><stop offset="0%" stop-color="#ad720e" stop-opacity="1"></stop><stop offset="100%" stop-color="#8b572a" stop-opacity="1"></stop></linearGradient><linearGradient x1="0" x2="0" y1="0" y2="1" id="delapouite-fire-gem-gradient-16"><stop offset="0%" stop-color="#b57204" stop-opacity="1"></stop><stop offset="100%" stop-color="#8b572a" stop-opacity="1"></stop></linearGradient><linearGradient x1="0" x2="0" y1="0" y2="1" id="delapouite-fire-gem-gradient-19"><stop offset="0%" stop-color="#b57204" stop-opacity="1"></stop><stop offset="100%" stop-color="#8b572a" stop-opacity="1"></stop></linearGradient><linearGradient x1="0" x2="0" y1="0" y2="1" id="delapouite-fire-gem-gradient-23"><stop offset="0%" stop-color="#b57204" stop-opacity="1"></stop><stop offset="100%" stop-color="#8b572a" stop-opacity="1"></stop></linearGradient><linearGradient x1="0" x2="0" y1="0" y2="1" id="delapouite-fire-gem-gradient-25"><stop offset="0%" stop-color="#b57204" stop-opacity="1"></stop><stop offset="100%" stop-color="#8b572a" stop-opacity="1"></stop></linearGradient></defs><g class="" transform="translate(1,0)" style=""><g><path d="M201.2 32L215 87L297 87L310.8 32L201.2 32Z" class="" fill="url(#delapouite-fire-gem-gradient-2)" stroke="#000000" stroke-opacity="1" stroke-width="2"></path><path d="M184.2 37.84L73.24 121.1L126.6 134.4L197.7 91.71L184.2 37.84Z" class="" fill="url(#delapouite-fire-gem-gradient-3)" stroke="#000000" stroke-opacity="1" stroke-width="2"></path><path d="M327.8 37.84L314.3 91.71L385.4 134.4L438.8 121.1L327.8 37.84Z" class="" fill="url(#delapouite-fire-gem-gradient-4)" stroke="#000000" stroke-opacity="1" stroke-width="2"></path><path d="M210.4 105L137 149.1L137 362.9L210.4 407L301.6 407L375 362.9L375 149.1L301.6 105L210.4 105Z" class="selected" fill="#c9c9c9" stroke="#000000" stroke-opacity="1" stroke-width="2" fill-opacity="1"></path><path d="M64 137.2L64 374.8L119 361L119 151L64 137.2Z" class="" fill="url(#delapouite-fire-gem-gradient-6)" stroke="#000000" stroke-opacity="1" stroke-width="2"></path><path d="M448 137.2L393 151L393 361L448 374.8L448 137.2Z" class="" fill="url(#delapouite-fire-gem-gradient-7)" stroke="#000000" stroke-opacity="1" stroke-width="2"></path><path d="M255.9 139.6C241.3 154.2 234.1 168.7 248.6 190.5C268.8 220.8 343.6 242.4 343.3 307C343.3 350.6 306.8 372.4 255.9 372.4C205 372.4 168.6 336 168.6 299.7C168.6 285.2 175.9 270.5 197.7 256C183.1 292.4 197.7 314.2 219.6 314.2C241.3 314.2 255.9 292.4 255.9 277.8C255.9 241.5 212.3 234.2 212.3 190.5C212.3 167.2 226.8 146.9 255.9 139.6Z" class="" fill="#c9c9c9" fill-opacity="1" stroke="#000000" stroke-opacity="1" stroke-width="0"></path><path d="M126.6 377.6L73.24 390.9L184.2 474.2L197.7 420.3L126.6 377.6Z" class="" fill="url(#delapouite-fire-gem-gradient-9)" stroke="#000000" stroke-opacity="1" stroke-width="2"></path><path d="M385.4 377.6L314.3 420.3L327.8 474.2L438.8 390.9L385.4 377.6Z" class="" fill="url(#delapouite-fire-gem-gradient-10)" stroke="#000000" stroke-opacity="1" stroke-width="2"></path><path d="M215 425L201.2 480L310.8 480L297 425L215 425Z" class="" fill="url(#delapouite-fire-gem-gradient-11)" stroke="#000000" stroke-opacity="1" stroke-width="2"></path></g></g><g class="" transform="translate(141,141)" style=""><g transform="translate(3.2, 3.2) scale(0.9, 0.9) rotate(0, 128, 128)"><circle cx="128" cy="128" r="128" fill="#c9c9c9" fill-opacity="1"></circle><circle stroke="#15154b" stroke-opacity="1" fill="#c9c9c9" fill-opacity="1" stroke-width="18" cx="128" cy="128" r="101"></circle><path fill="#15154b" fill-opacity="1" d="M128 54s-53.037 73.686-42 112c4.872 16.913 24.4 32 42 32s37.128-15.087 42-32c11.037-38.314-42-112-42-112z"></path></g></g></svg>