<svg xmlns="http://www.w3.org/2000/svg" viewBox="0 0 512 512" style="height: 512px; width: 512px;"><defs><linearGradient x1="0" x2="0" y1="0" y2="1" id="lorc-bloody-sword-gradient-1"><stop offset="0%" stop-color="#f5a623" stop-opacity="1"></stop><stop offset="100%" stop-color="#8c5b08" stop-opacity="1"></stop></linearGradient><linearGradient x1="0" x2="1" y1="0" y2="1" id="lorc-bloody-sword-gradient-2"><stop offset="0%" stop-color="#b57204" stop-opacity="1"></stop><stop offset="100%" stop-color="#8b572a" stop-opacity="1"></stop></linearGradient><linearGradient x1="0" x2="1" y1="0" y2="1" id="lorc-bloody-sword-gradient-3"><stop offset="0%" stop-color="#f5a623" stop-opacity="1"></stop><stop offset="100%" stop-color="#f55e23" stop-opacity="1"></stop></linearGradient><linearGradient id="lorc-bloody-sword-gradient-4" x1="0" x2="0" y1="0" y2="1"><stop offset="0%" stop-color="#d0021b" stop-opacity="1"></stop><stop offset="100%" stop-color="#840211" stop-opacity="1"></stop></linearGradient><radialGradient id="lorc-bloody-sword-gradient-5"><stop offset="0%" stop-color="#d0021b" stop-opacity="1"></stop><stop offset="100%" stop-color="#840211" stop-opacity="1"></stop></radialGradient><linearGradient x1="0" x2="0" y1="0" y2="1" id="lorc-bloody-sword-gradient-6"><stop offset="0%" stop-color="#d0021b" stop-opacity="1"></stop><stop offset="100%" stop-color="#840211" stop-opacity="1"></stop></linearGradient><radialGradient id="lorc-bloody-sword-gradient-7"><stop offset="0%" stop-color="#d0021b" stop-opacity="1"></stop><stop offset="100%" stop-color="#840211" stop-opacity="1"></stop></radialGradient><linearGradient x1="0" x2="0" y1="0" y2="1" id="lorc-bloody-sword-gradient-8"><stop offset="0%" stop-color="#8b572a" stop-opacity="1"></stop><stop offset="100%" stop-color="#f5a623" stop-opacity="1"></stop></linearGradient><linearGradient x1="0" x2="1" y1="0" y2="1" id="lorc-bloody-sword-gradient-9"><stop offset="0%" stop-color="#ffffff" stop-opacity="1"></stop><stop offset="100%" stop-color="#c9c9c9" stop-opacity="1"></stop></linearGradient><linearGradient x1="0" x2="0" y1="0" y2="1" id="lorc-bloody-sword-gradient-10"><stop offset="0%" stop-color="#f5a623" stop-opacity="1"></stop><stop offset="100%" stop-color="#ffe0af" stop-opacity="1"></stop></linearGradient><linearGradient x1="0" x2="1" y1="0" y2="1" id="lorc-bloody-sword-gradient-11"><stop offset="0%" stop-color="#f8e71c" stop-opacity="1"></stop><stop offset="100%" stop-color="#f5a623" stop-opacity="1"></stop></linearGradient><linearGradient x1="0" x2="0" y1="0" y2="1" id="lorc-bloody-sword-gradient-12"><stop offset="0%" stop-color="#ffffff" stop-opacity="1"></stop><stop offset="100%" stop-color="#c9c9c9" stop-opacity="1"></stop></linearGradient><linearGradient id="lorc-bloody-sword-gradient-13"><stop offset="0%" stop-color="#d0021b" stop-opacity="1"></stop><stop offset="100%" stop-color="#e6001b" stop-opacity="1"></stop></linearGradient><linearGradient x1="0" x2="0" y1="0" y2="1" id="lorc-bloody-sword-gradient-14"><stop offset="0%" stop-color="#ffffff" stop-opacity="1"></stop><stop offset="100%" stop-color="#c9c9c9" stop-opacity="1"></stop></linearGradient><linearGradient id="lorc-bloody-sword-gradient-15"><stop offset="0%" stop-color="#d0021b" stop-opacity="1"></stop><stop offset="100%" stop-color="#e6001b" stop-opacity="1"></stop></linearGradient><linearGradient x1="0" x2="0" y1="0" y2="1" id="lorc-bloody-sword-gradient-16"><stop offset="0%" stop-color="#345f02" stop-opacity="1"></stop><stop offset="100%" stop-color="#6e9d37" stop-opacity="1"></stop></linearGradient><linearGradient x1="0" x2="0" y1="0" y2="1" id="lorc-bloody-sword-gradient-17"><stop offset="0%" stop-color="#345f02" stop-opacity="1"></stop><stop offset="100%" stop-color="#6e9d37" stop-opacity="1"></stop></linearGradient><linearGradient x1="0" x2="0" y1="0" y2="1" id="lorc-bloody-sword-gradient-18"><stop offset="0%" stop-color="#345f02" stop-opacity="1"></stop><stop offset="100%" stop-color="#6e9d37" stop-opacity="1"></stop></linearGradient><linearGradient x1="0" x2="0" y1="0" y2="1" id="lorc-bloody-sword-gradient-19"><stop offset="0%" stop-color="#345f02" stop-opacity="1"></stop><stop offset="100%" stop-color="#6e9d37" stop-opacity="1"></stop></linearGradient><linearGradient x1="0" x2="0" y1="0" y2="1" id="lorc-bloody-sword-gradient-20"><stop offset="0%" stop-color="#345f02" stop-opacity="1"></stop><stop offset="100%" stop-color="#6e9d37" stop-opacity="1"></stop></linearGradient><radialGradient id="lorc-bloody-sword-gradient-21"><stop offset="0%" stop-color="#f8e71c" stop-opacity="1"></stop><stop offset="100%" stop-color="#f5a623" stop-opacity="1"></stop></radialGradient><radialGradient id="lorc-bloody-sword-gradient-22"><stop offset="0%" stop-color="#f8e71c" stop-opacity="1"></stop><stop offset="100%" stop-color="#f5a623" stop-opacity="1"></stop></radialGradient><radialGradient id="lorc-bloody-sword-gradient-23"><stop offset="0%" stop-color="#f8e71c" stop-opacity="1"></stop><stop offset="100%" stop-color="#f5a623" stop-opacity="1"></stop></radialGradient><radialGradient id="lorc-bloody-sword-gradient-24"><stop offset="0%" stop-color="#f8e71c" stop-opacity="1"></stop><stop offset="100%" stop-color="#f5a623" stop-opacity="1"></stop></radialGradient><radialGradient id="lorc-bloody-sword-gradient-25"><stop offset="0%" stop-color="#8b7500" stop-opacity="1"></stop><stop offset="100%" stop-color="#c4a504" stop-opacity="1"></stop></radialGradient><radialGradient id="lorc-bloody-sword-gradient-26"><stop offset="0%" stop-color="#8b7500" stop-opacity="1"></stop><stop offset="100%" stop-color="#c4a504" stop-opacity="1"></stop></radialGradient><radialGradient id="lorc-bloody-sword-gradient-27"><stop offset="0%" stop-color="#f8e71c" stop-opacity="1"></stop><stop offset="100%" stop-color="#f5a623" stop-opacity="1"></stop></radialGradient><radialGradient id="lorc-bloody-sword-gradient-28"><stop offset="0%" stop-color="#f8e71c" stop-opacity="1"></stop><stop offset="100%" stop-color="#f5a623" stop-opacity="1"></stop></radialGradient><radialGradient id="lorc-bloody-sword-gradient-29"><stop offset="0%" stop-color="#f8e71c" stop-opacity="1"></stop><stop offset="100%" stop-color="#f5a623" stop-opacity="1"></stop></radialGradient><radialGradient id="lorc-bloody-sword-gradient-30"><stop offset="0%" stop-color="#f8e71c" stop-opacity="1"></stop><stop offset="100%" stop-color="#f5a623" stop-opacity="1"></stop></radialGradient><radialGradient id="lorc-bloody-sword-gradient-31"><stop offset="0%" stop-color="#8b7500" stop-opacity="1"></stop><stop offset="100%" stop-color="#c4a504" stop-opacity="1"></stop></radialGradient><radialGradient id="lorc-bloody-sword-gradient-32"><stop offset="0%" stop-color="#f8e71c" stop-opacity="1"></stop><stop offset="100%" stop-color="#f5a623" stop-opacity="1"></stop></radialGradient><radialGradient id="lorc-bloody-sword-gradient-33"><stop offset="0%" stop-color="#8b7500" stop-opacity="1"></stop><stop offset="100%" stop-color="#c4a504" stop-opacity="1"></stop></radialGradient><radialGradient id="lorc-bloody-sword-gradient-34"><stop offset="0%" stop-color="#f8e71c" stop-opacity="1"></stop><stop offset="100%" stop-color="#f5a623" stop-opacity="1"></stop></radialGradient><radialGradient id="lorc-bloody-sword-gradient-35"><stop offset="0%" stop-color="#f8e71c" stop-opacity="1"></stop><stop offset="100%" stop-color="#f5a623" stop-opacity="1"></stop></radialGradient><radialGradient id="lorc-bloody-sword-gradient-36"><stop offset="0%" stop-color="#f8e71c" stop-opacity="1"></stop><stop offset="100%" stop-color="#f5a623" stop-opacity="1"></stop></radialGradient><radialGradient id="lorc-bloody-sword-gradient-37"><stop offset="0%" stop-color="#f8e71c" stop-opacity="1"></stop><stop offset="100%" stop-color="#f5a623" stop-opacity="1"></stop></radialGradient><linearGradient x1="0" x2="1" y1="0" y2="1" id="lorc-bloody-sword-gradient-38"><stop offset="0%" stop-color="#8b7500" stop-opacity="1"></stop><stop offset="100%" stop-color="#c4a504" stop-opacity="1"></stop></linearGradient><linearGradient x1="0" x2="1" y1="0" y2="1" id="lorc-bloody-sword-gradient-39"><stop offset="0%" stop-color="#8b7500" stop-opacity="1"></stop><stop offset="100%" stop-color="#c4a504" stop-opacity="1"></stop></linearGradient><linearGradient x1="0" x2="1" y1="0" y2="1" id="lorc-bloody-sword-gradient-40"><stop offset="0%" stop-color="#8b7500" stop-opacity="1"></stop><stop offset="100%" stop-color="#c4a504" stop-opacity="1"></stop></linearGradient><linearGradient x1="0" x2="1" y1="0" y2="1" id="lorc-bloody-sword-gradient-41"><stop offset="0%" stop-color="#8b7500" stop-opacity="1"></stop><stop offset="100%" stop-color="#c4a504" stop-opacity="1"></stop></linearGradient><linearGradient x1="0" x2="1" y1="0" y2="1" id="lorc-bloody-sword-gradient-42"><stop offset="0%" stop-color="#8b7500" stop-opacity="1"></stop><stop offset="100%" stop-color="#c4a504" stop-opacity="1"></stop></linearGradient><linearGradient x1="0" x2="1" y1="0" y2="1" id="lorc-bloody-sword-gradient-43"><stop offset="0%" stop-color="#8b7500" stop-opacity="1"></stop><stop offset="100%" stop-color="#c4a504" stop-opacity="1"></stop></linearGradient><linearGradient x1="0" x2="1" y1="0" y2="1" id="lorc-bloody-sword-gradient-44"><stop offset="0%" stop-color="#8b7500" stop-opacity="1"></stop><stop offset="100%" stop-color="#c4a504" stop-opacity="1"></stop></linearGradient><linearGradient x1="0" x2="1" y1="0" y2="1" id="lorc-bloody-sword-gradient-45"><stop offset="0%" stop-color="#8b7500" stop-opacity="1"></stop><stop offset="100%" stop-color="#c4a504" stop-opacity="1"></stop></linearGradient><linearGradient x1="0" x2="1" y1="0" y2="1" id="lorc-bloody-sword-gradient-46"><stop offset="0%" stop-color="#8b7500" stop-opacity="1"></stop><stop offset="100%" stop-color="#c4a504" stop-opacity="1"></stop></linearGradient></defs><g class="" transform="translate(0,0)" style=""><g><path d="M35.143 35.8C29.347 35.66 23.66 38.62 20.568 44.012C16.071 51.852 18.768 61.862 26.594 66.367C31.398 69.134 37.014 69.172 41.68 66.982L110.238 106.357L80.441 158.314L108.951 174.804C115.325 125.334 136.896 84.62 177.677 54.967L149.167 38.475L119.537 90.145L51.015 50.793C50.575 45.627 47.705 40.753 42.88 37.975C40.434 36.567 37.777 35.862 35.143 35.799Z" class="" fill="url(#lorc-bloody-sword-gradient-2)" stroke="#000000" stroke-opacity="1" stroke-width="2"></path><path d="M188.236 107.432L150.344 108.074L401.828 252.814L392.506 269.012L139.056 123.142L158.946 158.277C162.862 160.15 188.834 172.669 218.721 192.135C249.436 212.14 282.743 237.132 293.118 266.838C297.685 269.108 324.606 282.334 362.698 294.602C400.658 306.826 446.786 316.256 482.61 310.182C469.618 274.675 438.01 240.032 408.154 214.187C380.468 190.222 356.014 174.531 349.037 170.189C318.127 176.179 279.847 159.529 247.177 142.659C215.547 126.326 191.882 109.969 188.237 107.431Z" class="" fill="url(#lorc-bloody-sword-gradient-3)" stroke="#000000" stroke-opacity="1" stroke-width="2"></path><path d="M161.244 180.332C166.867 197.765 171.6 219.906 175.754 244.922L175.754 322.209L194.441 322.209L194.441 280.089C209.113 251.549 235.389 276.952 245.141 333.619L245.141 494.622L263.829 494.622L263.829 335.87C276.449 322.682 291.739 339.57 302.804 368.11L302.804 403.285L321.494 403.285L321.494 377.578C338.551 356.851 367.94 371.89 381.424 426.68L381.424 493.568L400.112 493.568L400.112 426.498C417.687 368.373 449.265 342.116 474.506 330.198C435.806 333.964 392.781 323.922 356.969 312.388C313.999 298.55 281.269 281.938 281.269 281.938L277.549 280.051L276.471 276.024C271.011 255.656 239.483 227.961 208.521 207.796C190.245 195.891 172.693 186.286 161.245 180.333Z" class="selected" fill="url(#lorc-bloody-sword-gradient-4)" stroke="#000000" stroke-opacity="1" stroke-width="2"></path><path d="M185.098 361.812C173.455 361.812 164.018 371.25 164.018 382.892C164.018 394.536 173.455 403.972 185.098 403.972C196.741 403.972 206.178 394.536 206.178 382.892C206.178 371.25 196.741 361.812 185.098 361.812Z" class="" fill="url(#lorc-bloody-sword-gradient-5)" stroke="#000000" stroke-opacity="1" stroke-width="2"></path><path d="M468.852 369.342C468.852 369.342 447.772 422.009 447.772 433.652C447.772 445.295 457.209 454.732 468.852 454.732C480.495 454.732 489.932 445.295 489.932 433.652C489.932 422.009 468.852 369.342 468.852 369.342Z" class="" fill="url(#lorc-bloody-sword-gradient-6)" stroke="#000000" stroke-opacity="1" stroke-width="2"></path><path d="M312.15 426.11C300.507 426.11 291.068 435.546 291.068 447.19C291.068 458.832 300.508 468.27 312.15 468.27C323.793 468.27 333.23 458.832 333.23 447.19C333.23 435.546 323.793 426.11 312.15 426.11Z" class="" fill="url(#lorc-bloody-sword-gradient-7)" stroke="#000000" stroke-opacity="1" stroke-width="2"></path></g></g></svg>