<svg xmlns="http://www.w3.org/2000/svg" viewBox="0 0 512 512" style="height: 512px; width: 512px;"><defs><linearGradient x1="0" x2="1" y1="0" y2="1" id="caro-asercion-round-potion-gradient-1"><stop offset="0%" stop-color="#ffe0af" stop-opacity="1"></stop><stop offset="100%" stop-color="#faf5ed" stop-opacity="1"></stop></linearGradient><radialGradient id="caro-asercion-round-potion-gradient-2"><stop offset="0%" stop-color="#b57204" stop-opacity="1"></stop><stop offset="100%" stop-color="#8b572a" stop-opacity="1"></stop></radialGradient><radialGradient id="caro-asercion-round-potion-gradient-3"><stop offset="0%" stop-color="#8b572a" stop-opacity="1"></stop><stop offset="100%" stop-color="#b57204" stop-opacity="1"></stop></radialGradient><linearGradient x1="0" x2="1" y1="1" y2="0" id="caro-asercion-round-potion-gradient-4"><stop offset="0%" stop-color="#c4f8ee" stop-opacity="1"></stop><stop offset="100%" stop-color="#48baff" stop-opacity="1"></stop></linearGradient><linearGradient x1="0" x2="1" y1="1" y2="0" id="caro-asercion-round-potion-gradient-5"><stop offset="0%" stop-color="#f8e71c" stop-opacity="1"></stop><stop offset="100%" stop-color="#f5a623" stop-opacity="1"></stop></linearGradient><linearGradient id="caro-asercion-round-potion-gradient-6"><stop offset="0%" stop-color="#417505" stop-opacity="1"></stop><stop offset="100%" stop-color="#b8e986" stop-opacity="1"></stop></linearGradient><radialGradient id="caro-asercion-round-potion-gradient-7"><stop offset="0%" stop-color="#b8e986" stop-opacity="1"></stop><stop offset="100%" stop-color="#d0f2ad" stop-opacity="1"></stop></radialGradient><linearGradient x1="0" x2="1" y1="0" y2="1" id="caro-asercion-round-potion-gradient-8"><stop offset="0%" stop-color="#b8e986" stop-opacity="1"></stop><stop offset="100%" stop-color="#d0f2ad" stop-opacity="1"></stop></linearGradient><linearGradient x1="0" x2="0" y1="0" y2="1" id="caro-asercion-round-potion-gradient-9"><stop offset="0%" stop-color="#000000" stop-opacity="1"></stop><stop offset="100%" stop-color="#9b9b9b" stop-opacity="1"></stop></linearGradient></defs><g class="" transform="translate(0,0)" style=""><g><path d="M381.7 27L367.2 47.4L416.7 82.5L431.2 62.2L381.7 27Z" class="" fill="url(#caro-asercion-round-potion-gradient-2)" stroke="#000000" stroke-opacity="1" stroke-width="2"></path><path d="M324.3 39.3L310.2 60L421.5 136.2L435.6 115.5L324.3 39.3Z" class="" fill="url(#caro-asercion-round-potion-gradient-3)" stroke="#000000" stroke-opacity="1" stroke-width="2"></path><path d="M317 92.7L247.1 175.5C236.8 173.4 226.2 172.3 215.3 172.3C128.5 172.3 58.05 242.8 58.05 329.6C58.05 416 128.5 487 215.3 487C302.1 487 372.6 416 372.6 329.6C372.6 291.8 359.2 257.1 337 230L388.4 143.1L317 92.7Z" class="" fill="url(#caro-asercion-round-potion-gradient-4)" stroke="#000000" stroke-opacity="1" stroke-width="2"></path><path d="M324.4 131.7L353.9 151.2L307.4 229.2C333.5 253.1 349.9 287.4 349.9 325.6C349.9 397.6 291.4 456 219.3 456C147.3 456 88.75 397.6 88.75 325.6C88.75 253.5 147.3 195 219.3 195C241.9 195 263.2 200.8 281.8 210.9L324.4 131.7Z" class="" fill="url(#caro-asercion-round-potion-gradient-5)" stroke="#000000" stroke-opacity="1" stroke-width="2"></path><path d="M292.9 312.2C245.6 311.5 166.7 370.5 114.6 325.7C114.7 383.4 161.6 430 219.3 430C275.4 430 321.3 386 323.9 330.5C316.9 317.3 306.1 312.4 292.9 312.2Z" class="" fill="url(#caro-asercion-round-potion-gradient-6)" stroke="#000000" stroke-opacity="1" stroke-width="2"></path><path d="M281.4 335.5C286.5 335.4 291.1 337 294.1 340.5C301 348.4 297.3 362.9 285.8 372.9C274.4 382.9 259.5 384.6 252.6 376.7C245.7 368.8 249.4 354.3 260.8 344.3C267.3 338.7 274.8 335.7 281.4 335.5Z" class="" fill="url(#caro-asercion-round-potion-gradient-7)" stroke="#000000" stroke-opacity="1" stroke-width="2"></path><path d="M224.9 384.6C226.1 384.6 227.3 384.7 228.6 384.9C238.5 386.4 245.8 393.1 244.8 400C243.8 407 235 411 225 410C215.1 408 207.8 402 208.8 394.7C209.7 388.7 216.5 384.6 224.9 384.6Z" class="selected" fill="url(#caro-asercion-round-potion-gradient-8)" stroke="#000000" stroke-opacity="1" stroke-width="2"></path></g></g></svg>