<svg xmlns="http://www.w3.org/2000/svg" viewBox="0 0 512 512" style="height: 512px; width: 512px;"><defs><linearGradient x1="0" x2="1" y1="0" y2="1" id="delapouite-broom-gradient-2"><stop offset="0%" stop-color="#b57204" stop-opacity="1"></stop><stop offset="100%" stop-color="#8b572a" stop-opacity="1"></stop></linearGradient><linearGradient x1="0" x2="0" y1="0" y2="1" id="delapouite-broom-gradient-3"><stop offset="0%" stop-color="#ffd799" stop-opacity="1"></stop><stop offset="100%" stop-color="#ffe0af" stop-opacity="1"></stop></linearGradient><linearGradient x1="0" x2="1" y1="0" y2="1" id="delapouite-broom-gradient-4"><stop offset="0%" stop-color="#f8e71c" stop-opacity="1"></stop><stop offset="100%" stop-color="#f5a623" stop-opacity="1"></stop></linearGradient><linearGradient x1="0" x2="0" y1="0" y2="1" id="delapouite-broom-gradient-5"><stop offset="0%" stop-color="#ffe0af" stop-opacity="1"></stop><stop offset="100%" stop-color="#ffedd1" stop-opacity="1"></stop></linearGradient><linearGradient x1="0" x2="0" y1="0" y2="1" id="delapouite-broom-gradient-16"><stop offset="0%" stop-color="#b57204" stop-opacity="1"></stop><stop offset="100%" stop-color="#8b572a" stop-opacity="1"></stop></linearGradient><linearGradient x1="0" x2="0" y1="0" y2="1" id="delapouite-broom-gradient-19"><stop offset="0%" stop-color="#b57204" stop-opacity="1"></stop><stop offset="100%" stop-color="#8b572a" stop-opacity="1"></stop></linearGradient><linearGradient x1="0" x2="0" y1="0" y2="1" id="delapouite-broom-gradient-23"><stop offset="0%" stop-color="#b57204" stop-opacity="1"></stop><stop offset="100%" stop-color="#8b572a" stop-opacity="1"></stop></linearGradient><linearGradient x1="0" x2="0" y1="0" y2="1" id="delapouite-broom-gradient-25"><stop offset="0%" stop-color="#b57204" stop-opacity="1"></stop><stop offset="100%" stop-color="#8b572a" stop-opacity="1"></stop></linearGradient></defs><g class="" transform="translate(0,0)" style=""><g><path d="M153.654 18L206.224 152.734C207.922 156.728 210.274 158.564 213.467 159.711C216.667 160.861 220.827 160.911 224.525 159.881C228.223 158.851 231.235 156.735 232.521 154.966C233.809 153.196 234.155 152.402 233.026 149.726L232.98 149.614L181.57 18L153.654 18Z" class="selected" fill="url(#delapouite-broom-gradient-2)" stroke="#000000" stroke-opacity="1" stroke-width="2"></path><path d="M247.822 138.143L249.702 142.953L249.612 142.73C252.958 150.667 251.44 159.552 247.08 165.55C242.72 171.546 236.307 175.284 229.357 177.22C222.407 179.157 214.704 179.285 207.377 176.65C200.05 174.016 193.222 168.203 189.635 159.727L189.585 159.609L187.828 155.109C156.518 174.913 145.358 197.135 152.461 223.999C153.701 228.68 155.883 236.363 158.425 246.129C232.795 240.855 298.37 222.257 358.233 194.529C347.936 180.662 335.733 168.699 320.001 159.999C299.496 148.659 272.349 139.842 247.823 138.142Z" class="" fill="url(#delapouite-broom-gradient-3)" stroke="#000000" stroke-opacity="1" stroke-width="2"></path><path d="M368.379 209.663C306.882 238.473 239.206 258.041 162.804 263.859C164.834 272.542 166.884 282.139 168.754 292.354C258.346 282.27 331.797 266.134 386.509 243.587C380.766 231.867 374.916 220.397 368.379 209.663Z" class="" fill="url(#delapouite-broom-gradient-4)" stroke="#000000" stroke-opacity="1" stroke-width="2"></path><path d="M394.419 259.823C337.326 283.595 262.429 299.91 171.689 310.145C180.697 371.423 179.614 446.752 128 480C144.27 480 159.892 479.848 174.926 479.55C192.766 453.996 206.196 413.328 207.006 393.404C215.276 410.197 210.303 452.724 201.646 478.838C204.381 478.745 207.081 478.645 209.773 478.541C221.597 466.144 221.497 449.909 224.493 431.257C227.817 446.177 231.493 464.224 233.998 477.413C245.271 476.797 256.15 476.073 266.604 475.23C282.984 454.872 288.254 425.626 285.234 389.75C289.46 418.85 294.35 451.888 297.107 472.3C306.769 471.217 316.032 470.01 324.914 468.686C329.954 449.899 320.814 420.242 322.842 399.146C333.965 442.259 345.089 454.596 356.212 463.189C361.632 462.074 366.867 460.896 371.945 459.663C367.245 445.713 373.518 437.166 373.125 419.677C378.772 438.667 387.75 446.635 397.553 452.493C404.059 450.393 410.213 448.157 416.045 445.796C405.507 439.226 405.932 419.422 403.665 402.87C409.619 424.573 418.078 435.288 427.748 440.686C456.872 426.886 476.438 409.152 488.146 387.029C479.068 383.209 469.472 374.027 460.078 366.937C473.292 374.414 483.762 377.551 492.448 377.867C493.771 374.661 494.962 371.377 496 367.999C439.674 348.471 415.93 303.981 394.42 259.821Z" class="" fill="url(#delapouite-broom-gradient-5)" stroke="#000000" stroke-opacity="1" stroke-width="2"></path></g></g></svg>