<svg xmlns="http://www.w3.org/2000/svg" viewBox="0 0 512 512" style="height: 512px; width: 512px;"><defs><linearGradient x1="0" x2="1" y1="0" y2="1" id="lorc-relic-blade-gradient-1"><stop offset="0%" stop-color="#d0021b" stop-opacity="1"></stop><stop offset="100%" stop-color="#fa95a1" stop-opacity="1"></stop></linearGradient><radialGradient id="lorc-relic-blade-gradient-2"><stop offset="0%" stop-color="#f8e71c" stop-opacity="1"></stop><stop offset="100%" stop-color="#f5a623" stop-opacity="1"></stop></radialGradient><linearGradient x1="0" x2="1" y1="1" y2="0" id="lorc-relic-blade-gradient-3"><stop offset="0%" stop-color="#9b9b9b" stop-opacity="1"></stop><stop offset="100%" stop-color="#4a4a4a" stop-opacity="1"></stop></linearGradient><radialGradient id="lorc-relic-blade-gradient-4"><stop offset="0%" stop-color="#9b9b9b" stop-opacity="1"></stop><stop offset="100%" stop-color="#4a4a4a" stop-opacity="1"></stop></radialGradient><radialGradient id="lorc-relic-blade-gradient-5"><stop offset="0%" stop-color="#9b9b9b" stop-opacity="1"></stop><stop offset="100%" stop-color="#4a4a4a" stop-opacity="1"></stop></radialGradient><radialGradient id="lorc-relic-blade-gradient-6"><stop offset="0%" stop-color="#6c576d" stop-opacity="1"></stop><stop offset="100%" stop-color="#312832" stop-opacity="1"></stop></radialGradient><radialGradient id="lorc-relic-blade-gradient-7"><stop offset="0%" stop-color="#b57204" stop-opacity="1"></stop><stop offset="100%" stop-color="#8b572a" stop-opacity="1"></stop></radialGradient><radialGradient id="lorc-relic-blade-gradient-8"><stop offset="0%" stop-color="#b57204" stop-opacity="1"></stop><stop offset="100%" stop-color="#8b572a" stop-opacity="1"></stop></radialGradient><radialGradient id="lorc-relic-blade-gradient-9"><stop offset="0%" stop-color="#b57204" stop-opacity="1"></stop><stop offset="100%" stop-color="#8b572a" stop-opacity="1"></stop></radialGradient><radialGradient id="lorc-relic-blade-gradient-10"><stop offset="0%" stop-color="#ff7b00" stop-opacity="1"></stop><stop offset="100%" stop-color="#b87333" stop-opacity="1"></stop></radialGradient><radialGradient id="lorc-relic-blade-gradient-11"><stop offset="0%" stop-color="#6c576d" stop-opacity="1"></stop><stop offset="100%" stop-color="#312832" stop-opacity="1"></stop></radialGradient><radialGradient id="lorc-relic-blade-gradient-12"><stop offset="0%" stop-color="#4a4a4a" stop-opacity="1"></stop><stop offset="100%" stop-color="#000000" stop-opacity="1"></stop></radialGradient><radialGradient id="lorc-relic-blade-gradient-13"><stop offset="0%" stop-color="#4a4a4a" stop-opacity="1"></stop><stop offset="100%" stop-color="#000000" stop-opacity="1"></stop></radialGradient><radialGradient id="lorc-relic-blade-gradient-14"><stop offset="0%" stop-color="#c9c9c9" stop-opacity="1"></stop><stop offset="100%" stop-color="#9b9b9b" stop-opacity="1"></stop></radialGradient><radialGradient id="lorc-relic-blade-gradient-15"><stop offset="0%" stop-color="#c9c9c9" stop-opacity="1"></stop><stop offset="100%" stop-color="#9b9b9b" stop-opacity="1"></stop></radialGradient><radialGradient id="lorc-relic-blade-gradient-16"><stop offset="0%" stop-color="#ff7b00" stop-opacity="1"></stop><stop offset="100%" stop-color="#b87333" stop-opacity="1"></stop></radialGradient><radialGradient id="lorc-relic-blade-gradient-17"><stop offset="0%" stop-color="#ff7b00" stop-opacity="1"></stop><stop offset="100%" stop-color="#b87333" stop-opacity="1"></stop></radialGradient><radialGradient id="lorc-relic-blade-gradient-18"><stop offset="0%" stop-color="#ff7b00" stop-opacity="1"></stop><stop offset="100%" stop-color="#b87333" stop-opacity="1"></stop></radialGradient><radialGradient id="lorc-relic-blade-gradient-19"><stop offset="0%" stop-color="#ff7b00" stop-opacity="1"></stop><stop offset="100%" stop-color="#b87333" stop-opacity="1"></stop></radialGradient><radialGradient id="lorc-relic-blade-gradient-20"><stop offset="0%" stop-color="#ffe0af" stop-opacity="1"></stop><stop offset="100%" stop-color="#e2c093" stop-opacity="1"></stop></radialGradient><radialGradient id="lorc-relic-blade-gradient-22"><stop offset="0%" stop-color="#fc88fc" stop-opacity="1"></stop><stop offset="100%" stop-color="#bd10e0" stop-opacity="1"></stop></radialGradient><radialGradient id="lorc-relic-blade-gradient-25"><stop offset="0%" stop-color="#9b9b9b" stop-opacity="1"></stop><stop offset="100%" stop-color="#4a4a4a" stop-opacity="1"></stop></radialGradient><radialGradient id="lorc-relic-blade-gradient-26"><stop offset="0%" stop-color="#9b9b9b" stop-opacity="1"></stop><stop offset="100%" stop-color="#4a4a4a" stop-opacity="1"></stop></radialGradient><radialGradient id="lorc-relic-blade-gradient-27"><stop offset="0%" stop-color="#9b9b9b" stop-opacity="1"></stop><stop offset="100%" stop-color="#4a4a4a" stop-opacity="1"></stop></radialGradient><radialGradient id="lorc-relic-blade-gradient-28"><stop offset="0%" stop-color="#9b9b9b" stop-opacity="1"></stop><stop offset="100%" stop-color="#4a4a4a" stop-opacity="1"></stop></radialGradient><radialGradient id="lorc-relic-blade-gradient-29"><stop offset="0%" stop-color="#9b9b9b" stop-opacity="1"></stop><stop offset="100%" stop-color="#4a4a4a" stop-opacity="1"></stop></radialGradient><radialGradient id="lorc-relic-blade-gradient-30"><stop offset="0%" stop-color="#9b9b9b" stop-opacity="1"></stop><stop offset="100%" stop-color="#4a4a4a" stop-opacity="1"></stop></radialGradient><radialGradient id="lorc-relic-blade-gradient-31"><stop offset="0%" stop-color="#9b9b9b" stop-opacity="1"></stop><stop offset="100%" stop-color="#4a4a4a" stop-opacity="1"></stop></radialGradient><radialGradient id="lorc-relic-blade-gradient-32"><stop offset="0%" stop-color="#9b9b9b" stop-opacity="1"></stop><stop offset="100%" stop-color="#4a4a4a" stop-opacity="1"></stop></radialGradient><radialGradient id="lorc-relic-blade-gradient-33"><stop offset="0%" stop-color="#9b9b9b" stop-opacity="1"></stop><stop offset="100%" stop-color="#4a4a4a" stop-opacity="1"></stop></radialGradient><radialGradient id="lorc-relic-blade-gradient-34"><stop offset="0%" stop-color="#9b9b9b" stop-opacity="1"></stop><stop offset="100%" stop-color="#4a4a4a" stop-opacity="1"></stop></radialGradient><radialGradient id="lorc-relic-blade-gradient-35"><stop offset="0%" stop-color="#9b9b9b" stop-opacity="1"></stop><stop offset="100%" stop-color="#4a4a4a" stop-opacity="1"></stop></radialGradient><radialGradient id="lorc-relic-blade-gradient-36"><stop offset="0%" stop-color="#9b9b9b" stop-opacity="1"></stop><stop offset="100%" stop-color="#4a4a4a" stop-opacity="1"></stop></radialGradient><radialGradient id="lorc-relic-blade-gradient-37"><stop offset="0%" stop-color="#9b9b9b" stop-opacity="1"></stop><stop offset="100%" stop-color="#4a4a4a" stop-opacity="1"></stop></radialGradient></defs><g class="" transform="translate(1,0)" style=""><g><path d="M499.78 16.125L477.157 22.5L325.687 65.03L319.095 66.906L318.875 73.75L317.97 103.094L299.156 108.124L292.5 109.874L292.22 116.781L291.25 141.438L157.125 275.032L154.25 277.908L154.375 281.971C155.085 302.369 140.087 313.928 131.625 313.188C121.652 312.316 116.295 309.151 112.75 304.751C109.206 300.351 107.204 293.821 107.25 285.095L107.375 260.939L91.031 278.719C73.704 297.562 64.334 321.543 64.188 345.689L64.126 355.095L73.532 355.095C85.746 355.098 97.992 357.91 109.252 363.439L105.189 377.907C84.264 395.17 63.334 418.447 52.221 437.877C50.585 440.734 49.244 443.391 48.157 445.845L16.25 454.75L14.75 496.406L56.406 494.906L65.406 462.719C67.789 461.649 70.366 460.359 73.126 458.779C92.464 447.717 115.606 426.922 132.844 406.093L147.314 402.03C152.659 413.177 155.457 425.254 155.5 437.094L155.53 446.406L164.844 446.406C189.564 446.413 214.566 437.04 233.688 418.876L247.594 405.656L228.594 402.876C218.018 401.32 210.22 397.464 205.564 393.126C200.904 388.786 199.229 384.382 199.688 379.5C200.742 368.296 203.862 363.456 208.125 360.437C212.388 357.419 219.392 355.917 229.219 356.219L233.279 356.343L236.124 353.468L372.437 217.154L391.405 216.684L398.343 216.498L400.187 209.81L404.624 193.717L437.53 192.277L444.28 191.997L446.125 185.467L491.75 36.624L499.78 16.124Z" class="" fill="url(#lorc-relic-blade-gradient-2)" stroke="#000000" stroke-opacity="1" stroke-width="2"></path><path d="M466.157 45L429.97 173.906L397 175.312L390.22 175.594L388.406 182.188L384 198.188L368.25 198.563L364.53 198.656L361.875 201.281L225.595 337.595C215.783 337.695 206.453 339.263 198.531 344.407L199.221 325.157L343.564 180.813L370.001 179.783L374.625 163L376.469 156.344L383.374 156.156L415.624 155.219L438.562 72.624L355.968 95.562L355 125.5L354.78 132.375L348.125 134.219L329.095 139.405L328.219 169.749L185.969 311.969L164.779 312.719C169.582 305.174 172.622 295.859 172.999 285.561L306.999 152.124L309.624 149.53L309.749 145.875L310.624 124.405L329.499 119.375L336.219 117.562L336.405 110.625L337.343 81.187L466.156 45Z" class="" fill="url(#lorc-relic-blade-gradient-3)" stroke="#000000" stroke-opacity="1" stroke-width="2"></path><path d="M93.03 307.78C94.41 310.856 96.034 313.795 98.187 316.47C103.153 322.633 110.167 327.154 118.687 329.687L114.344 345.187C104.487 340.771 94.057 338.007 83.5 336.937C84.73 326.893 87.948 316.98 93.03 307.781Z" class="selected" fill="url(#lorc-relic-blade-gradient-4)" stroke="#000000" stroke-opacity="1" stroke-width="2"></path><path d="M180.28 330.875L178.75 373.845L121.25 389.937L137.313 332.407L180.281 330.875Z" class="" fill="url(#lorc-relic-blade-gradient-5)" stroke="#000000" stroke-opacity="1" stroke-width="2"></path><path d="M182.937 392.095C184.943 397.611 188.367 402.671 192.812 406.812C196.746 410.477 201.496 413.497 206.844 415.906C196.566 422.11 185.174 425.904 173.656 427.186C172.57 416.858 169.816 406.632 165.531 396.938L182.938 392.094Z" class="" fill="url(#lorc-relic-blade-gradient-6)" stroke="#000000" stroke-opacity="1" stroke-width="2"></path></g></g></svg>