<svg xmlns="http://www.w3.org/2000/svg" viewBox="0 0 512 512" style="height: 512px; width: 512px;"><defs><radialGradient id="gradient-2"><stop offset="0%" stop-color="#f5a623" stop-opacity="1"></stop><stop offset="100%" stop-color="#f8e71c" stop-opacity="1"></stop></radialGradient><radialGradient id="gradient-3"><stop offset="0%" stop-color="#ba6f00" stop-opacity="1"></stop><stop offset="100%" stop-color="#825819" stop-opacity="1"></stop></radialGradient><radialGradient id="gradient-4"><stop offset="0%" stop-color="#d2d2ff" stop-opacity="1"></stop><stop offset="100%" stop-color="#96d2e2" stop-opacity="1"></stop></radialGradient><radialGradient id="gradient-5"><stop offset="0%" stop-color="#f8e71c" stop-opacity="1"></stop><stop offset="100%" stop-color="#f5a623" stop-opacity="1"></stop></radialGradient><radialGradient id="gradient-6"><stop offset="0%" stop-color="#f5a623" stop-opacity="1"></stop><stop offset="100%" stop-color="#f8e71c" stop-opacity="1"></stop></radialGradient><radialGradient id="gradient-7"><stop offset="0%" stop-color="#ba0000" stop-opacity="0"></stop><stop offset="100%" stop-color="#850000" stop-opacity="0"></stop></radialGradient><radialGradient id="gradient-8"><stop offset="0%" stop-color="#f8e71c" stop-opacity="1"></stop><stop offset="100%" stop-color="#f5a623" stop-opacity="1"></stop></radialGradient><radialGradient id="gradient-9"><stop offset="0%" stop-color="#f5a623" stop-opacity="1"></stop><stop offset="100%" stop-color="#f8e71c" stop-opacity="1"></stop></radialGradient><radialGradient id="gradient-10"><stop offset="0%" stop-color="#f5a623" stop-opacity="1"></stop><stop offset="100%" stop-color="#f8e71c" stop-opacity="1"></stop></radialGradient><radialGradient id="gradient-12"><stop offset="0%" stop-color="#f8e71c" stop-opacity="1"></stop><stop offset="100%" stop-color="#f5a623" stop-opacity="1"></stop></radialGradient><radialGradient id="gradient-13"><stop offset="0%" stop-color="#f5a623" stop-opacity="1"></stop><stop offset="100%" stop-color="#f8e71c" stop-opacity="1"></stop></radialGradient><radialGradient id="gradient-15"><stop offset="0%" stop-color="#f5a623" stop-opacity="1"></stop><stop offset="100%" stop-color="#f8e71c" stop-opacity="1"></stop></radialGradient><radialGradient id="gradient-16"><stop offset="0%" stop-color="#ba6f00" stop-opacity="1"></stop><stop offset="100%" stop-color="#825819" stop-opacity="1"></stop></radialGradient></defs><g class="" transform="translate(-98,14)" style="touch-action: none;"><g transform="translate(512, 0) scale(-1, 1) rotate(-75, 256, 256)"><path d="M246.47 16.29L290.244 102.22L330.894 59.293L246.47 16.29Z" class="selected" fill="url(#gradient-2)" stroke="#000000" stroke-opacity="1" stroke-width="3"></path><path d="M426.31 40.113L412.838 53.583L459.645 100.391L473.125 86.931L426.309 40.114Z" class="" fill="url(#gradient-3)" stroke="#000000" stroke-opacity="1" stroke-width="3"></path><path d="M373.89 41.063L113.88 315.656L195.53 397.309L471.808 138.98L373.89 41.06Z" class="" fill="url(#gradient-4)" stroke="#000000" stroke-opacity="1" stroke-width="3"></path><path d="M370.793 91.633C383.748 91.633 396.705 96.549 406.535 106.379C426.195 126.039 426.195 158.199 406.535 177.859C386.875 197.521 354.713 197.521 335.053 177.859C315.393 158.199 315.393 126.039 335.053 106.379C344.883 96.549 357.838 91.632 370.793 91.632Z" class="" fill="url(#gradient-5)" stroke="#000000" stroke-opacity="1" stroke-width="3"></path><path d="M167.367 104.97L209.543 187.45L248.403 146.406L167.367 104.969Z" class="" fill="url(#gradient-6)" stroke="#000000" stroke-opacity="1" stroke-width="3"></path><path d="M370.793 110.205C362.659 110.205 354.527 113.335 348.268 119.595C335.748 132.113 335.748 152.128 348.268 164.645C360.786 177.165 380.802 177.165 393.32 164.645C405.84 152.128 405.84 132.113 393.32 119.595C387.06 113.335 378.926 110.205 370.793 110.205Z" class="" fill="url(#gradient-7)"></path><path d="M286.88 177.14C299.404 177.17 311.936 181.953 321.45 191.467C340.476 210.494 340.58 241.591 321.596 260.574C302.613 279.557 271.516 279.454 252.488 260.426C233.461 241.399 233.358 210.302 252.342 191.318C261.832 181.828 274.352 177.108 286.879 177.138Z" class="" fill="url(#gradient-8)" stroke="#000000" stroke-opacity="1" stroke-width="3"></path><path d="M453.46 181.72L410.03 222.328L496.61 266.43L453.46 181.72Z" class="" fill="url(#gradient-9)" stroke="#000000" stroke-opacity="1" stroke-width="3"></path><path d="M88.927 194.88L128.884 272.63L165.329 234.143L88.927 194.879Z" class="" fill="url(#gradient-10)" stroke="#000000" stroke-opacity="1" stroke-width="3"></path><path d="M286.853 195.71C279.149 195.69 271.459 198.632 265.558 204.533C253.754 216.336 253.782 235.289 265.704 247.211C277.627 259.134 296.579 259.164 308.382 247.361C320.186 235.557 320.159 216.605 308.236 204.683C302.276 198.721 294.556 195.733 286.854 195.713Z" class="" fill="#ff0000" fill-opacity="0"></path><path d="M202.616 263.31C214.626 263.378 226.648 268.003 235.78 277.135C254.043 295.399 254.276 325.22 236.104 343.393C217.931 361.565 188.11 361.333 169.846 343.068C151.582 324.804 151.349 294.983 169.521 276.811C178.609 267.725 190.606 263.241 202.616 263.311Z" class="" fill="url(#gradient-12)" stroke="#000000" stroke-opacity="1" stroke-width="3"></path><path d="M365.996 263.504L324.103 302.674L407.946 345.547L365.996 263.504Z" class="" fill="url(#gradient-13)" stroke="#000000" stroke-opacity="1" stroke-width="3"></path><path d="M202.55 281.88C195.363 281.833 188.208 284.554 182.736 290.025C171.794 300.968 171.852 318.645 183.061 329.855C194.271 341.062 211.947 341.12 222.891 330.178C233.831 319.235 233.774 301.558 222.565 290.35C216.961 284.745 209.74 281.93 202.552 281.88Z" class="" fill="#ff0000" fill-opacity="0"></path><path d="M277.893 345.883L238.227 382.971L318.027 423.981L277.893 345.884Z" class="" fill="url(#gradient-15)" stroke="#000000" stroke-opacity="1" stroke-width="3"></path><path d="M119.109 347.313L18.93 447.493L18.93 494.9L64.578 494.9L165.708 393.912L119.108 347.312Z" class="" fill="url(#gradient-16)" stroke="#000000" stroke-opacity="1" stroke-width="3"></path></g></g></svg>