<svg xmlns="http://www.w3.org/2000/svg" viewBox="0 0 512 512" style="height: 512px; width: 512px;"><defs><filter id="shadow-2" height="300%" width="300%" x="-100%" y="-100%"><feFlood flood-color="rgba(0, 0, 0, 1)" result="flood"></feFlood><feComposite in="flood" in2="SourceGraphic" operator="out" result="composite"></feComposite><feGaussianBlur in="composite" stdDeviation="15" result="blur"></feGaussianBlur><feOffset dx="0" dy="0" result="offset"></feOffset><feComposite in2="SourceGraphic" in="offset" operator="atop"></feComposite></filter><radialGradient id="gradient-2"><stop offset="0%" stop-color="#b57204" stop-opacity="1"></stop><stop offset="100%" stop-color="#8b572a" stop-opacity="1"></stop></radialGradient><radialGradient id="gradient-3"><stop offset="0%" stop-color="#c9c9c9" stop-opacity="1"></stop><stop offset="100%" stop-color="#48baff" stop-opacity="1"></stop></radialGradient><radialGradient id="gradient-4"><stop offset="0%" stop-color="#000800" stop-opacity="0"></stop><stop offset="100%" stop-color="#500000" stop-opacity="0"></stop></radialGradient><radialGradient id="gradient-5"><stop offset="0%" stop-color="#000005" stop-opacity="0"></stop><stop offset="100%" stop-color="#430000" stop-opacity="0"></stop></radialGradient><radialGradient id="gradient-6"><stop offset="0%" stop-color="#6a0000" stop-opacity="0"></stop><stop offset="100%" stop-color="#430000" stop-opacity="0"></stop></radialGradient><radialGradient id="gradient-7"><stop offset="0%" stop-color="#ba0000" stop-opacity="0"></stop><stop offset="100%" stop-color="#850000" stop-opacity="0"></stop></radialGradient><radialGradient id="gradient-8"><stop offset="0%" stop-color="#b57204" stop-opacity="1"></stop><stop offset="100%" stop-color="#8b572a" stop-opacity="1"></stop></radialGradient><radialGradient id="gradient-9"><stop offset="0%" stop-color="#b57204" stop-opacity="1"></stop><stop offset="100%" stop-color="#8b572a" stop-opacity="1"></stop></radialGradient><radialGradient id="gradient-10"><stop offset="0%" stop-color="#48baff" stop-opacity="1"></stop><stop offset="100%" stop-color="#4a90e2" stop-opacity="1"></stop></radialGradient></defs><g class="" transform="translate(0,0)" style="touch-action: none;"><g transform="translate(0, 0) scale(1, 1) rotate(15, 256, 256)"><path d="M257.688 20.375C219.16 20.375 182.853 32.865 150.406 55.188L96.156 55.188L96.156 460.5L150.063 460.5C182.618 482.954 219.099 495.563 257.688 495.563C296.276 495.563 332.732 482.953 365.281 460.5L419.189 460.5L419.189 55.188L364.97 55.188C332.523 32.865 296.216 20.376 257.687 20.376Z" class="" fill="url(#gradient-2)" stroke="#000000" stroke-opacity="1" stroke-width="3" filter="url(#shadow-2)"></path><path d="M123.155 84.28L392.28 84.28L392.28 432.157L123.157 432.157L123.157 84.28Z" class="" fill="url(#gradient-3)" stroke="#000000" stroke-opacity="1" stroke-width="3"></path><path d="M141.843 102.97L141.843 211.688L268.687 102.968L141.844 102.968Z" class="" fill="url(#gradient-4)"></path><path d="M342.28 102.97L141.845 274.78L141.845 331.406L373.595 132.719L373.595 102.969L342.28 102.969Z" class="selected" fill="url(#gradient-5)"></path><path d="M373.594 243.063L174.53 413.469L221.062 413.469L373.594 285.093L373.594 243.063Z" class="" fill="url(#gradient-6)"></path><path d="M373.594 309.531L250.094 413.471L373.594 413.471L373.594 309.53Z" class="" fill="url(#gradient-7)"></path></g></g></svg>