<svg xmlns="http://www.w3.org/2000/svg" viewBox="0 0 512 512" style="height: 512px; width: 512px;"><defs><linearGradient x1="0" x2="1" y1="0" y2="1" id="lorc-mace-head-gradient-1"><stop offset="0%" stop-color="#ffe0af" stop-opacity="1"></stop><stop offset="100%" stop-color="#faf5ed" stop-opacity="1"></stop></linearGradient><linearGradient x1="0" x2="0" y1="0" y2="1" id="lorc-mace-head-gradient-2"><stop offset="0%" stop-color="#c9c9c9" stop-opacity="1"></stop><stop offset="100%" stop-color="#9b9b9b" stop-opacity="1"></stop></linearGradient><linearGradient x1="0" x2="1" y1="1" y2="0" id="lorc-mace-head-gradient-3"><stop offset="0%" stop-color="#4a4a4a" stop-opacity="1"></stop><stop offset="100%" stop-color="#c9c9c9" stop-opacity="1"></stop></linearGradient><radialGradient id="lorc-mace-head-gradient-4"><stop offset="0%" stop-color="#c9c9c9" stop-opacity="1"></stop><stop offset="100%" stop-color="#9b9b9b" stop-opacity="1"></stop></radialGradient><linearGradient x1="0" x2="1" y1="0" y2="1" id="lorc-mace-head-gradient-5"><stop offset="0%" stop-color="#c9c9c9" stop-opacity="1"></stop><stop offset="100%" stop-color="#4a4a4a" stop-opacity="1"></stop></linearGradient><linearGradient id="lorc-mace-head-gradient-6"><stop offset="0%" stop-color="#9b9b9b" stop-opacity="1"></stop><stop offset="100%" stop-color="#4a4a4a" stop-opacity="1"></stop></linearGradient><linearGradient id="lorc-mace-head-gradient-7"><stop offset="0%" stop-color="#9b9b9b" stop-opacity="1"></stop><stop offset="100%" stop-color="#c9c9c9" stop-opacity="1"></stop></linearGradient><linearGradient x1="0" x2="1" y1="0" y2="1" id="lorc-mace-head-gradient-8"><stop offset="0%" stop-color="#4a4a4a" stop-opacity="1"></stop><stop offset="100%" stop-color="#c9c9c9" stop-opacity="1"></stop></linearGradient><linearGradient x1="0" x2="0" y1="0" y2="1" id="lorc-mace-head-gradient-9"><stop offset="0%" stop-color="#000000" stop-opacity="1"></stop><stop offset="100%" stop-color="#9b9b9b" stop-opacity="1"></stop></linearGradient></defs><g class="" transform="translate(0,1)" style=""><g><path d="M220.53 17L203.47 95.28C220.392 89.307 238.558 86.007 257.47 85.844L220.53 17Z" class="" fill="url(#lorc-mace-head-gradient-2)" stroke="#000000" stroke-opacity="1" stroke-width="2"></path><path d="M449.875 89.906L316.595 147C312.8 186.747 350.965 220.846 385.655 219.875L449.875 89.905Z" class="" fill="url(#lorc-mace-head-gradient-3)" stroke="#000000" stroke-opacity="1" stroke-width="2"></path><path d="M258.937 104.5C226.409 104.5 196.362 114.95 171.937 132.656L197.344 137.031L202.594 137.031L205.031 142.626C228.281 195.638 187.683 255.414 136.657 261.064L131.657 261.626L128.437 257.751L111.437 237.313C110.912 242.406 110.657 247.58 110.657 252.813C110.657 334.831 176.937 401.126 258.937 401.126C263.187 401.126 267.407 400.944 271.564 400.596L237.814 374.063L233.844 370.938L234.282 365.938C237.962 322.664 279.104 285.508 324.408 285.282C334.863 285.232 345.548 287.148 356.033 291.408L360.723 293.283L361.69 298.253L371.784 349.097C393.884 323.2 407.224 289.597 407.224 252.817C407.224 242.961 406.267 233.347 404.441 224.034L399.973 233.066L397.753 237.566L392.753 238.191C341.813 244.558 288.458 195.844 298.753 138.879L300.659 133.909L304.253 131.941L328.283 121.661C307.597 110.71 284.007 104.5 258.94 104.5Z" class="" fill="url(#lorc-mace-head-gradient-4)" stroke="#000000" stroke-opacity="1" stroke-width="2"></path><path d="M46.657 130.125L139.344 241.625C173.308 234.497 202.454 192.457 189.531 154.687L46.657 130.125Z" class="" fill="url(#lorc-mace-head-gradient-5)" stroke="#000000" stroke-opacity="1" stroke-width="2"></path><path d="M91.969 252.188L17.093 295.03L102.53 311.25C95.718 293.054 91.97 273.365 91.97 252.812C91.97 252.604 91.968 252.396 91.97 252.187Z" class="" fill="url(#lorc-mace-head-gradient-6)" stroke="#000000" stroke-opacity="1" stroke-width="2"></path><path d="M425.469 264.688C424.012 285.355 418.784 304.982 410.469 322.906L496.593 315L425.468 264.687Z" class="selected" fill="url(#lorc-mace-head-gradient-7)" stroke="#000000" stroke-opacity="1" stroke-width="2"></path><path d="M324.311 304.218C290.501 305.004 259.053 332.505 253.655 362.75L374.28 457.563L344.406 307.219C337.741 305.105 330.989 304.063 324.312 304.219Z" class="" fill="url(#lorc-mace-head-gradient-8)" stroke="#000000" stroke-opacity="1" stroke-width="2"></path><path d="M179.188 399.5L187.782 492.656L240.032 418.719C218.202 416.249 197.652 409.576 179.189 399.499Z" class="" fill="url(#lorc-mace-head-gradient-9)" stroke="#000000" stroke-opacity="1" stroke-width="2"></path></g></g></svg>