<svg xmlns="http://www.w3.org/2000/svg" viewBox="0 0 512 512" style="height: 512px; width: 512px;"><defs><linearGradient x1="0" x2="1" y1="0" y2="1" id="delapouite-pillow-gradient-2"><stop offset="0%" stop-color="#ffffff" stop-opacity="1"></stop><stop offset="100%" stop-color="#c9c9c9" stop-opacity="1"></stop></linearGradient><linearGradient x1="0" x2="1" y1="0" y2="1" id="delapouite-pillow-gradient-3"><stop offset="0%" stop-color="#9b9b9b" stop-opacity="1"></stop><stop offset="100%" stop-color="#4a4a4a" stop-opacity="1"></stop></linearGradient><linearGradient x1="0" x2="0" y1="0" y2="1" id="delapouite-pillow-gradient-16"><stop offset="0%" stop-color="#b57204" stop-opacity="1"></stop><stop offset="100%" stop-color="#8b572a" stop-opacity="1"></stop></linearGradient><linearGradient x1="0" x2="0" y1="0" y2="1" id="delapouite-pillow-gradient-19"><stop offset="0%" stop-color="#b57204" stop-opacity="1"></stop><stop offset="100%" stop-color="#8b572a" stop-opacity="1"></stop></linearGradient><linearGradient x1="0" x2="0" y1="0" y2="1" id="delapouite-pillow-gradient-23"><stop offset="0%" stop-color="#b57204" stop-opacity="1"></stop><stop offset="100%" stop-color="#8b572a" stop-opacity="1"></stop></linearGradient><linearGradient x1="0" x2="0" y1="0" y2="1" id="delapouite-pillow-gradient-25"><stop offset="0%" stop-color="#b57204" stop-opacity="1"></stop><stop offset="100%" stop-color="#8b572a" stop-opacity="1"></stop></linearGradient></defs><g class="" transform="translate(0,0)" style=""><g><path d="M433.79 59.602C424.85 59.649 413.136 62.679 398.824 69.478C295.2 62.252 170.14 77.352 86.788 103.535C26.381 75.622 16.384 103.109 43.838 139.721C10.242 239.454 24.97 340.803 60.7 413.31C49.69 460.943 77.665 458.808 101.872 439.762C272.642 448.862 383.702 423.242 451.752 371.096C475.762 390.326 493.412 365.09 483.62 334.24C495.542 262.43 474.55 166.93 447.527 100.46C460.889 76.987 455.549 59.485 433.79 59.602Z" class="" fill="url(#delapouite-pillow-gradient-2)" stroke="#000000" stroke-opacity="1" stroke-width="2"></path><path d="M76.404 137.562C129.054 198.607 130.016 337.942 98.152 420.965C105.198 330.055 100.657 197.292 76.404 137.561Z" class="selected" fill="url(#delapouite-pillow-gradient-3)" stroke="#000000" stroke-opacity="1" stroke-width="2"></path></g></g></svg>