<svg xmlns="http://www.w3.org/2000/svg" viewBox="0 0 512 512" style="height: 512px; width: 512px;"><defs><linearGradient x1="0" x2="1" y1="0" y2="1" id="carl-olsen-crossbow-gradient-1"><stop offset="0%" stop-color="#d0021b" stop-opacity="1"></stop><stop offset="100%" stop-color="#fa95a1" stop-opacity="1"></stop></linearGradient><linearGradient x1="0" x2="1" y1="0" y2="1" id="carl-olsen-crossbow-gradient-2"><stop offset="0%" stop-color="#6c576d" stop-opacity="1"></stop><stop offset="100%" stop-color="#312832" stop-opacity="1"></stop></linearGradient><radialGradient id="carl-olsen-crossbow-gradient-3"><stop offset="0%" stop-color="#b57204" stop-opacity="1"></stop><stop offset="100%" stop-color="#8b572a" stop-opacity="1"></stop></radialGradient><radialGradient id="carl-olsen-crossbow-gradient-5"><stop offset="0%" stop-color="#f8e71c" stop-opacity="1"></stop><stop offset="100%" stop-color="#f5a623" stop-opacity="1"></stop></radialGradient><radialGradient id="carl-olsen-crossbow-gradient-6"><stop offset="0%" stop-color="#6c576d" stop-opacity="1"></stop><stop offset="100%" stop-color="#312832" stop-opacity="1"></stop></radialGradient><radialGradient id="carl-olsen-crossbow-gradient-7"><stop offset="0%" stop-color="#b57204" stop-opacity="1"></stop><stop offset="100%" stop-color="#8b572a" stop-opacity="1"></stop></radialGradient><radialGradient id="carl-olsen-crossbow-gradient-8"><stop offset="0%" stop-color="#b57204" stop-opacity="1"></stop><stop offset="100%" stop-color="#8b572a" stop-opacity="1"></stop></radialGradient><radialGradient id="carl-olsen-crossbow-gradient-9"><stop offset="0%" stop-color="#b57204" stop-opacity="1"></stop><stop offset="100%" stop-color="#8b572a" stop-opacity="1"></stop></radialGradient><radialGradient id="carl-olsen-crossbow-gradient-10"><stop offset="0%" stop-color="#ff7b00" stop-opacity="1"></stop><stop offset="100%" stop-color="#b87333" stop-opacity="1"></stop></radialGradient><radialGradient id="carl-olsen-crossbow-gradient-11"><stop offset="0%" stop-color="#6c576d" stop-opacity="1"></stop><stop offset="100%" stop-color="#312832" stop-opacity="1"></stop></radialGradient><radialGradient id="carl-olsen-crossbow-gradient-12"><stop offset="0%" stop-color="#4a4a4a" stop-opacity="1"></stop><stop offset="100%" stop-color="#000000" stop-opacity="1"></stop></radialGradient><radialGradient id="carl-olsen-crossbow-gradient-13"><stop offset="0%" stop-color="#4a4a4a" stop-opacity="1"></stop><stop offset="100%" stop-color="#000000" stop-opacity="1"></stop></radialGradient><radialGradient id="carl-olsen-crossbow-gradient-14"><stop offset="0%" stop-color="#c9c9c9" stop-opacity="1"></stop><stop offset="100%" stop-color="#9b9b9b" stop-opacity="1"></stop></radialGradient><radialGradient id="carl-olsen-crossbow-gradient-15"><stop offset="0%" stop-color="#c9c9c9" stop-opacity="1"></stop><stop offset="100%" stop-color="#9b9b9b" stop-opacity="1"></stop></radialGradient><radialGradient id="carl-olsen-crossbow-gradient-16"><stop offset="0%" stop-color="#ff7b00" stop-opacity="1"></stop><stop offset="100%" stop-color="#b87333" stop-opacity="1"></stop></radialGradient><radialGradient id="carl-olsen-crossbow-gradient-17"><stop offset="0%" stop-color="#ff7b00" stop-opacity="1"></stop><stop offset="100%" stop-color="#b87333" stop-opacity="1"></stop></radialGradient><radialGradient id="carl-olsen-crossbow-gradient-18"><stop offset="0%" stop-color="#ff7b00" stop-opacity="1"></stop><stop offset="100%" stop-color="#b87333" stop-opacity="1"></stop></radialGradient><radialGradient id="carl-olsen-crossbow-gradient-19"><stop offset="0%" stop-color="#ff7b00" stop-opacity="1"></stop><stop offset="100%" stop-color="#b87333" stop-opacity="1"></stop></radialGradient><radialGradient id="carl-olsen-crossbow-gradient-20"><stop offset="0%" stop-color="#ffe0af" stop-opacity="1"></stop><stop offset="100%" stop-color="#e2c093" stop-opacity="1"></stop></radialGradient><radialGradient id="carl-olsen-crossbow-gradient-22"><stop offset="0%" stop-color="#fc88fc" stop-opacity="1"></stop><stop offset="100%" stop-color="#bd10e0" stop-opacity="1"></stop></radialGradient><radialGradient id="carl-olsen-crossbow-gradient-25"><stop offset="0%" stop-color="#9b9b9b" stop-opacity="1"></stop><stop offset="100%" stop-color="#4a4a4a" stop-opacity="1"></stop></radialGradient><radialGradient id="carl-olsen-crossbow-gradient-26"><stop offset="0%" stop-color="#9b9b9b" stop-opacity="1"></stop><stop offset="100%" stop-color="#4a4a4a" stop-opacity="1"></stop></radialGradient><radialGradient id="carl-olsen-crossbow-gradient-27"><stop offset="0%" stop-color="#9b9b9b" stop-opacity="1"></stop><stop offset="100%" stop-color="#4a4a4a" stop-opacity="1"></stop></radialGradient><radialGradient id="carl-olsen-crossbow-gradient-28"><stop offset="0%" stop-color="#9b9b9b" stop-opacity="1"></stop><stop offset="100%" stop-color="#4a4a4a" stop-opacity="1"></stop></radialGradient><radialGradient id="carl-olsen-crossbow-gradient-29"><stop offset="0%" stop-color="#9b9b9b" stop-opacity="1"></stop><stop offset="100%" stop-color="#4a4a4a" stop-opacity="1"></stop></radialGradient><radialGradient id="carl-olsen-crossbow-gradient-30"><stop offset="0%" stop-color="#9b9b9b" stop-opacity="1"></stop><stop offset="100%" stop-color="#4a4a4a" stop-opacity="1"></stop></radialGradient><radialGradient id="carl-olsen-crossbow-gradient-31"><stop offset="0%" stop-color="#9b9b9b" stop-opacity="1"></stop><stop offset="100%" stop-color="#4a4a4a" stop-opacity="1"></stop></radialGradient><radialGradient id="carl-olsen-crossbow-gradient-32"><stop offset="0%" stop-color="#9b9b9b" stop-opacity="1"></stop><stop offset="100%" stop-color="#4a4a4a" stop-opacity="1"></stop></radialGradient><radialGradient id="carl-olsen-crossbow-gradient-33"><stop offset="0%" stop-color="#9b9b9b" stop-opacity="1"></stop><stop offset="100%" stop-color="#4a4a4a" stop-opacity="1"></stop></radialGradient><radialGradient id="carl-olsen-crossbow-gradient-34"><stop offset="0%" stop-color="#9b9b9b" stop-opacity="1"></stop><stop offset="100%" stop-color="#4a4a4a" stop-opacity="1"></stop></radialGradient><radialGradient id="carl-olsen-crossbow-gradient-35"><stop offset="0%" stop-color="#9b9b9b" stop-opacity="1"></stop><stop offset="100%" stop-color="#4a4a4a" stop-opacity="1"></stop></radialGradient><radialGradient id="carl-olsen-crossbow-gradient-36"><stop offset="0%" stop-color="#9b9b9b" stop-opacity="1"></stop><stop offset="100%" stop-color="#4a4a4a" stop-opacity="1"></stop></radialGradient><radialGradient id="carl-olsen-crossbow-gradient-37"><stop offset="0%" stop-color="#9b9b9b" stop-opacity="1"></stop><stop offset="100%" stop-color="#4a4a4a" stop-opacity="1"></stop></radialGradient></defs><g class="" transform="translate(0,0)" style=""><g transform="translate(0, 512) scale(1, -1) rotate(0, 256, 256) skewX(0) skewY(0)"><path d="M89.594 18.094L78.844 28.844L78.874 28.874L106.406 362.437L23.376 455.375L56.626 488.625L146.781 408.062L482.971 432.969C483.031 433.031 483.095 433.093 483.157 433.155L483.313 432.999L483.345 432.999L483.345 432.969L493.907 422.405C492.231 420.729 490.785 418.968 489.22 417.249C467.888 391.699 463.804 354.009 453.75 308.124C445.427 270.134 432.525 227.082 400.656 183.094L362.594 233.904C362.599 233.912 362.589 233.93 362.594 233.936C391.582 270.01 408.621 301.702 422.314 330.186C437.331 361.433 448.436 389.186 466.781 413.874L165.314 391.5L337.53 237.594L401.906 151.624L360.376 110.094L274.469 174.406L122.81 344.094L98.156 45.25C122.836 63.58 150.581 74.676 181.812 89.688C210.302 103.381 242.012 120.408 278.094 149.406L328.906 111.344C284.916 79.484 241.866 66.608 203.876 58.281C157.987 48.224 120.3 44.113 94.75 22.78C93.03 21.216 91.27 19.77 89.594 18.094Z" class="" fill="url(#carl-olsen-crossbow-gradient-2)" stroke="#000000" stroke-opacity="1" stroke-width="2"></path><path d="M406.624 18.406C403.239 18.434 399.762 18.812 396.344 19.376C391.786 20.126 387.352 21.213 383.531 22.469C379.711 23.723 376.755 24.771 373.814 27.093C371.933 28.573 370.913 30.893 371.094 33.28L376.126 95.625C376.252 97.333 376.983 98.939 378.189 100.155L411.845 133.781C413.048 134.992 414.644 135.735 416.345 135.876L478.689 140.906C481.086 141.098 483.42 140.078 484.907 138.188C487.242 135.244 488.274 132.293 489.532 128.47C490.792 124.646 491.875 120.215 492.627 115.656C493.379 111.096 493.807 106.458 493.502 102.031C493.197 97.606 492.49 93.041 488.658 89.221L422.78 23.343C418.958 19.519 414.396 18.803 409.97 18.499C408.862 18.423 407.754 18.396 406.625 18.405Z" class="selected" fill="url(#carl-olsen-crossbow-gradient-3)" stroke="#000000" stroke-opacity="1" stroke-width="2"></path><path d="M406.75 32.781C407.55 32.775 408.313 32.797 409 32.845C411.404 33.01 412.74 33.76 412.72 33.625L478.375 99.282C478.237 99.259 478.991 100.6 479.155 103.002C479.345 105.748 479.093 109.528 478.469 113.315C477.843 117.101 476.874 120.935 475.874 123.971C475.462 125.221 475.35 125.243 474.936 126.157L420.156 121.782L390.218 91.846L385.842 37.033C386.755 36.623 386.782 36.538 388.029 36.128C391.066 35.13 394.901 34.158 398.687 33.534C401.527 33.068 404.349 32.806 406.749 32.784Z" class="" fill="#000000" stroke="#000000" stroke-opacity="1" stroke-width="2" fill-opacity="1"></path><path d="M358.78 153.221L339.844 184.814L135.344 389.282L126.5 388.627L125.312 374.064L327.187 172.158L358.781 153.221Z" class="" fill="url(#carl-olsen-crossbow-gradient-5)" stroke="#000000" stroke-opacity="1" stroke-width="2"></path></g></g></svg>