<svg xmlns="http://www.w3.org/2000/svg" viewBox="0 0 512 512" style="height: 512px; width: 512px;"><defs><radialGradient id="gradient-2"><stop offset="0%" stop-color="#c9c9c9" stop-opacity="1"></stop><stop offset="100%" stop-color="#9b9b9b" stop-opacity="1"></stop></radialGradient><radialGradient id="gradient-3"><stop offset="0%" stop-color="#ba6f00" stop-opacity="1"></stop><stop offset="100%" stop-color="#825819" stop-opacity="1"></stop></radialGradient><radialGradient id="gradient-4"><stop offset="0%" stop-color="#fe4d38" stop-opacity="1"></stop><stop offset="100%" stop-color="#f5a623" stop-opacity="1"></stop></radialGradient><radialGradient id="gradient-5"><stop offset="0%" stop-color="#ba6f00" stop-opacity="1"></stop><stop offset="100%" stop-color="#825819" stop-opacity="1"></stop></radialGradient><radialGradient id="gradient-6"><stop offset="0%" stop-color="#6a0000" stop-opacity="0"></stop><stop offset="100%" stop-color="#430000" stop-opacity="0"></stop></radialGradient><radialGradient id="gradient-7"><stop offset="0%" stop-color="#ba0000" stop-opacity="0"></stop><stop offset="100%" stop-color="#850000" stop-opacity="0"></stop></radialGradient><radialGradient id="gradient-8"><stop offset="0%" stop-color="#b57204" stop-opacity="1"></stop><stop offset="100%" stop-color="#8b572a" stop-opacity="1"></stop></radialGradient><radialGradient id="gradient-9"><stop offset="0%" stop-color="#b57204" stop-opacity="1"></stop><stop offset="100%" stop-color="#8b572a" stop-opacity="1"></stop></radialGradient><radialGradient id="gradient-10"><stop offset="0%" stop-color="#48baff" stop-opacity="1"></stop><stop offset="100%" stop-color="#4a90e2" stop-opacity="1"></stop></radialGradient></defs><g class="" transform="translate(-98,14)" style="touch-action: none;"><g transform="translate(512, 0) scale(-1, 1) rotate(-75, 256, 256)"><path d="M27.47 15.344C90.416 40.766 136.294 76.657 143.313 147.374L143.313 147.562C195.623 177.694 235.918 220.1 247.593 267.5C249.385 274.772 250.433 282.137 250.719 289.53C282.456 286.247 314.719 268.595 338.562 242.906C364.982 214.439 380.618 176.996 375.405 139.876C360.2 141.793 344.55 140.798 328.905 137.562C278.623 127.164 227.205 94.588 180.343 59.687C175.553 55.477 170.413 51.603 164.937 48.031C130.15 25.341 82.073 15.345 27.467 15.345Z" class="" fill="url(#gradient-2)" stroke="#000000" stroke-opacity="1" stroke-width="3"></path><path d="M234.687 41.25L218.967 64.25C238.197 77.357 257.759 89.345 277.093 98.97L290.53 79.72C278.124 60.946 255.544 47.357 234.688 41.25Z" class="" fill="url(#gradient-3)" stroke="#000000" stroke-opacity="1" stroke-width="3"></path><path d="M474.062 62.625C457.176 94.089 437.027 115.25 414.342 127.5C407.64 131.12 400.769 133.934 393.749 136.03C400.419 180.057 382.003 223.535 352.249 255.594C324.974 284.981 287.825 305.541 249.719 308.438C245.237 339.918 226.311 371.296 189.969 398.75C230.712 407.914 268.711 407.8 303.405 400.656L311.125 351.626L314.062 333.031L327.092 346.626L359 379.875C386.795 363.122 423.71 335.567 442.22 311.969L413.31 262L401.842 242.22L423.872 248.313L471.81 261.563C485.042 237.698 493.137 201.036 493.28 162.688C493.41 127.833 487.06 91.808 474.06 62.625Z" class="selected" fill="url(#gradient-4)" stroke="#000000" stroke-opacity="1" stroke-width="3"></path><path d="M146.092 170.97L20.564 354.75L21.376 465.375L196.906 213.875C183.126 198.263 165.852 183.685 146.096 170.969Z" class="" fill="url(#gradient-5)" stroke="#000000" stroke-opacity="1" stroke-width="3"></path></g></g></svg>