<svg xmlns="http://www.w3.org/2000/svg" viewBox="0 0 512 512" style="height: 512px; width: 512px;"><defs><radialGradient id="delapouite-fire-spell-cast-gradient-0"><stop offset="0%" stop-color="#c9c9c9" stop-opacity="1"></stop><stop offset="100%" stop-color="#000" stop-opacity="1"></stop></radialGradient><linearGradient x1="0" x2="1" y1="1" y2="0" id="delapouite-fire-spell-cast-gradient-2"><stop offset="0%" stop-color="#fe7d01" stop-opacity="1"></stop><stop offset="100%" stop-color="#f8e71c" stop-opacity="1"></stop></linearGradient><linearGradient x1="0" x2="1" y1="1" y2="0" id="delapouite-fire-spell-cast-gradient-3"><stop offset="0%" stop-color="#fe7d01" stop-opacity="1"></stop><stop offset="100%" stop-color="#fee8d5" stop-opacity="1"></stop></linearGradient><linearGradient x1="0" x2="1" y1="1" y2="0" id="delapouite-fire-spell-cast-gradient-4"><stop offset="0%" stop-color="#f5a623" stop-opacity="1"></stop><stop offset="100%" stop-color="#f8e71c" stop-opacity="1"></stop></linearGradient><linearGradient id="delapouite-fire-spell-cast-gradient-6"><stop offset="0%" stop-color="#4a4a4a" stop-opacity="1"></stop><stop offset="100%" stop-color="#c9c9c9" stop-opacity="1"></stop></linearGradient><linearGradient id="delapouite-fire-spell-cast-gradient-7"><stop offset="0%" stop-color="#c9c9c9" stop-opacity="1"></stop><stop offset="100%" stop-color="#4a4a4a" stop-opacity="1"></stop></linearGradient><linearGradient x1="0" x2="1" y1="1" y2="0" id="delapouite-fire-spell-cast-gradient-9"><stop offset="0%" stop-color="#4a4a4a" stop-opacity="1"></stop><stop offset="100%" stop-color="#c9c9c9" stop-opacity="1"></stop></linearGradient><linearGradient x1="0" x2="1" y1="0" y2="1" id="delapouite-fire-spell-cast-gradient-10"><stop offset="0%" stop-color="#c9c9c9" stop-opacity="1"></stop><stop offset="100%" stop-color="#4a4a4a" stop-opacity="1"></stop></linearGradient><linearGradient x1="0" x2="0" y1="0" y2="1" id="delapouite-fire-spell-cast-gradient-11"><stop offset="0%" stop-color="#c9c9c9" stop-opacity="1"></stop><stop offset="100%" stop-color="#4a4a4a" stop-opacity="1"></stop></linearGradient><linearGradient x1="0" x2="1" y1="0" y2="1" id="delapouite-fire-spell-cast-gradient-12"><stop offset="0%" stop-color="#ad720e" stop-opacity="1"></stop><stop offset="100%" stop-color="#8b572a" stop-opacity="1"></stop></linearGradient><linearGradient x1="0" x2="0" y1="0" y2="1" id="delapouite-fire-spell-cast-gradient-16"><stop offset="0%" stop-color="#b57204" stop-opacity="1"></stop><stop offset="100%" stop-color="#8b572a" stop-opacity="1"></stop></linearGradient><linearGradient x1="0" x2="0" y1="0" y2="1" id="delapouite-fire-spell-cast-gradient-19"><stop offset="0%" stop-color="#b57204" stop-opacity="1"></stop><stop offset="100%" stop-color="#8b572a" stop-opacity="1"></stop></linearGradient><linearGradient x1="0" x2="0" y1="0" y2="1" id="delapouite-fire-spell-cast-gradient-23"><stop offset="0%" stop-color="#b57204" stop-opacity="1"></stop><stop offset="100%" stop-color="#8b572a" stop-opacity="1"></stop></linearGradient><linearGradient x1="0" x2="0" y1="0" y2="1" id="delapouite-fire-spell-cast-gradient-25"><stop offset="0%" stop-color="#b57204" stop-opacity="1"></stop><stop offset="100%" stop-color="#8b572a" stop-opacity="1"></stop></linearGradient></defs><g class="" transform="translate(0,0)" style=""><g><path d="M366.9 36.88C317.4 43.69 300.9 102.4 311.7 141.4C325.5 191.1 265.2 195.6 278.4 116.7C260.9 145.1 256 170.4 259.8 191.6C263.5 212.9 274.5 229.3 289.6 241.2C299.1 248.7 310.2 254.5 322.1 258.2C349.3 233.1 353.3 188.7 340.3 159.8C359.6 171.9 370.6 195.2 369.2 222.3C381.1 223 396.4 215.5 405.6 204.5C406 223.5 407.9 239.2 396.7 256.9C425.2 246 461 220.7 462.4 205.7C463.8 190 460.9 171.5 454.1 150C437 216.8 376.7 189.6 411.5 104.6C349.8 158.2 342 93.5 366.9 36.88Z" class="" fill="url(#delapouite-fire-spell-cast-gradient-2)" stroke="#000000" stroke-opacity="1" stroke-width="2"></path><path d="M483.7 38.97C475.7 52.2 467.7 73.84 437.8 71.22C458.3 93.39 458.2 105 449.6 135.1C486.8 103.2 487.4 67.76 483.7 38.97Z" class="selected" fill="url(#delapouite-fire-spell-cast-gradient-3)" stroke="#000000" stroke-opacity="1" stroke-width="2"></path><path d="M205.4 75.8C177.3 75.7 155.5 132.3 147.7 166.4C136.4 215.6 133.1 249.9 146.8 299.4L129.5 304.2C114 248.3 121.2 209.5 131.8 161.9C142.3 114.3 146.3 91.5 127.3 87.8C85.2 79.4 82 178.2 79.5 222.6C78.1 248.4 80.3 279.6 86.1 300.2L69.2 306.4C54.8 253 62.5 208.4 67.5 155.6C70 140 65.7 129.9 48.4 130.4C32.6 130.9 21.4 273.8 35.1 309.5C43.8 362.5 66.4 440 46.1 462.2L18 494L224 494L244 465.4C267 460.4 272.4 445.5 281 431.6C306.3 390.7 363.4 348.5 410.1 332.4C431.2 324.9 388.2 283.8 356.3 299.6C301.3 326.8 274.6 355.9 238.5 337.9C182.6 310.1 191.2 237.3 202.6 175.1C208.8 141.5 243 85.5 209.8 76.3C208.4 75.98 206.9 75.81 205.4 75.8Z" class="" fill="url(#delapouite-fire-spell-cast-gradient-4)" stroke="#000000" stroke-opacity="1" stroke-width="2"></path></g></g></svg>