<svg xmlns="http://www.w3.org/2000/svg" viewBox="0 0 512 512" style="height: 512px; width: 512px;"><defs><radialGradient id="delapouite-ice-spell-cast-gradient-0"><stop offset="0%" stop-color="#c9c9c9" stop-opacity="1"></stop><stop offset="100%" stop-color="#000" stop-opacity="1"></stop></radialGradient><linearGradient x1="0" x2="1" y1="1" y2="0" id="delapouite-ice-spell-cast-gradient-2"><stop offset="0%" stop-color="#48baff" stop-opacity="1"></stop><stop offset="100%" stop-color="#acdfff" stop-opacity="1"></stop></linearGradient><linearGradient x1="0" x2="1" y1="1" y2="0" id="delapouite-ice-spell-cast-gradient-3"><stop offset="0%" stop-color="#f5a623" stop-opacity="1"></stop><stop offset="100%" stop-color="#f8e71c" stop-opacity="1"></stop></linearGradient><linearGradient x1="0" x2="1" y1="1" y2="0" id="delapouite-ice-spell-cast-gradient-4"><stop offset="0%" stop-color="#acdfff" stop-opacity="1"></stop><stop offset="100%" stop-color="#48baff" stop-opacity="1"></stop></linearGradient><linearGradient x1="0" x2="1" y1="1" y2="0" id="delapouite-ice-spell-cast-gradient-5"><stop offset="0%" stop-color="#48baff" stop-opacity="1"></stop><stop offset="100%" stop-color="#acdfff" stop-opacity="1"></stop></linearGradient><linearGradient id="delapouite-ice-spell-cast-gradient-6" x1="0" x2="1" y1="1" y2="0"><stop offset="0%" stop-color="#acdfff" stop-opacity="1"></stop><stop offset="100%" stop-color="#c7e9ff" stop-opacity="1"></stop></linearGradient><linearGradient id="delapouite-ice-spell-cast-gradient-7"><stop offset="0%" stop-color="#c9c9c9" stop-opacity="1"></stop><stop offset="100%" stop-color="#4a4a4a" stop-opacity="1"></stop></linearGradient><linearGradient x1="0" x2="1" y1="1" y2="0" id="delapouite-ice-spell-cast-gradient-9"><stop offset="0%" stop-color="#4a4a4a" stop-opacity="1"></stop><stop offset="100%" stop-color="#c9c9c9" stop-opacity="1"></stop></linearGradient><linearGradient x1="0" x2="1" y1="0" y2="1" id="delapouite-ice-spell-cast-gradient-10"><stop offset="0%" stop-color="#c9c9c9" stop-opacity="1"></stop><stop offset="100%" stop-color="#4a4a4a" stop-opacity="1"></stop></linearGradient><linearGradient x1="0" x2="0" y1="0" y2="1" id="delapouite-ice-spell-cast-gradient-11"><stop offset="0%" stop-color="#c9c9c9" stop-opacity="1"></stop><stop offset="100%" stop-color="#4a4a4a" stop-opacity="1"></stop></linearGradient><linearGradient x1="0" x2="1" y1="0" y2="1" id="delapouite-ice-spell-cast-gradient-12"><stop offset="0%" stop-color="#ad720e" stop-opacity="1"></stop><stop offset="100%" stop-color="#8b572a" stop-opacity="1"></stop></linearGradient><linearGradient x1="0" x2="0" y1="0" y2="1" id="delapouite-ice-spell-cast-gradient-16"><stop offset="0%" stop-color="#b57204" stop-opacity="1"></stop><stop offset="100%" stop-color="#8b572a" stop-opacity="1"></stop></linearGradient><linearGradient x1="0" x2="0" y1="0" y2="1" id="delapouite-ice-spell-cast-gradient-19"><stop offset="0%" stop-color="#b57204" stop-opacity="1"></stop><stop offset="100%" stop-color="#8b572a" stop-opacity="1"></stop></linearGradient><linearGradient x1="0" x2="0" y1="0" y2="1" id="delapouite-ice-spell-cast-gradient-23"><stop offset="0%" stop-color="#b57204" stop-opacity="1"></stop><stop offset="100%" stop-color="#8b572a" stop-opacity="1"></stop></linearGradient><linearGradient x1="0" x2="0" y1="0" y2="1" id="delapouite-ice-spell-cast-gradient-25"><stop offset="0%" stop-color="#b57204" stop-opacity="1"></stop><stop offset="100%" stop-color="#8b572a" stop-opacity="1"></stop></linearGradient></defs><g class="" transform="translate(0,0)" style=""><g><path d="M377.305 19.355L372.095 39.875L356.93 25.104L344.37 37.998L359.535 52.77L339.16 58.518L344.049 75.842L364.424 70.094L359.214 90.614L376.66 95.043L381.871 74.523L397.037 89.295L409.596 76.4L394.428 61.627L414.805 55.879L409.918 38.557L389.543 44.305L394.752 23.785Z" class="selected" fill="url(#delapouite-ice-spell-cast-gradient-2)" stroke="#000000" stroke-opacity="1" stroke-width="2"></path><path d="M205.387 75.765C177.32 75.649 155.46 132.298 147.66 166.373C136.4 215.563 133.131 249.888 146.832 299.432L129.484 304.23C114.021 248.313 121.239 209.48 131.785 161.889C142.332 114.297 146.305 91.486 127.326 87.707C85.244 79.328 82.04 178.17 79.57 222.604C78.174 248.412 80.28 279.621 86.11 300.156L69.209 306.352C54.779 253.002 62.552 208.395 67.516 155.582C70.009 140 65.729 129.905 48.414 130.416C32.581 130.883 21.399 273.778 35.139 309.457C43.852 362.518 66.386 440.029 46.094 462.223L18 494L223.973 494L243.959 465.408C267.039 460.4 272.379 445.548 280.982 431.621C306.273 390.675 363.366 348.455 410.096 332.395C431.238 324.885 388.184 283.849 356.26 299.613C301.255 326.775 274.614 355.911 238.488 337.908C182.633 310.074 191.243 237.26 202.627 175.078C208.768 141.534 243.037 85.476 209.783 76.254C208.339 75.938 206.865 75.775 205.387 75.766Z" class="" fill="url(#delapouite-ice-spell-cast-gradient-3)" stroke="#000000" stroke-opacity="1" stroke-width="2"></path><path d="M296.105 100.6L265.387 129.99L288.781 155.094C284.153 158.504 280.164 162.83 277.023 167.844L252.891 141.945L229.601 164.23L236.805 202.445L269.455 195.255C269.548 201.466 270.739 207.499 272.791 212.891L240.129 220.082L247.332 258.297L276.832 268.957L289.678 234.891C294.368 238.198 299.596 240.516 305.084 241.723L292.658 274.676L331.568 288.734L362.288 259.342L338.893 234.238C343.521 230.828 347.51 226.503 350.65 221.49L374.783 247.387L398.074 225.104L390.871 186.889L358.219 194.079C358.125 187.868 356.936 181.835 354.885 176.443L387.545 169.25L380.342 131.035L350.842 120.375L337.996 154.443C333.306 151.136 328.078 148.817 322.59 147.609L335.016 114.659Z" class="" fill="url(#delapouite-ice-spell-cast-gradient-4)" stroke="#000000" stroke-opacity="1" stroke-width="2"></path><path d="M443.643 150.46L426.83 156.89L434.393 176.664L413.484 173.326L410.646 191.102L431.553 194.439L418.209 210.877L432.184 222.221L445.527 205.783L453.09 225.559L469.902 219.129L462.342 199.355L483.246 202.693L486.084 184.918L465.18 181.58L478.521 165.145L464.549 153.799L451.205 170.234Z" class="" fill="url(#delapouite-ice-spell-cast-gradient-5)" stroke="#000000" stroke-opacity="1" stroke-width="2"></path><path d="M307.928 163.31L336.006 173.457L341.916 204.813L319.748 226.021L291.67 215.877L285.758 184.521Z" class="" fill="url(#delapouite-ice-spell-cast-gradient-6)" stroke="#000000" stroke-opacity="1" stroke-width="2"></path></g></g></svg>