<svg xmlns="http://www.w3.org/2000/svg" viewBox="0 0 512 512" style="height: 512px; width: 512px;"><defs><linearGradient x1="0" x2="1" y1="0" y2="1" id="gradient-1"><stop offset="0%" stop-color="#930012" stop-opacity="1"></stop><stop offset="100%" stop-color="#ff0000" stop-opacity="1"></stop></linearGradient><radialGradient id="gradient-2"><stop offset="0%" stop-color="#b57204" stop-opacity="1"></stop><stop offset="100%" stop-color="#8b572a" stop-opacity="1"></stop></radialGradient><radialGradient id="gradient-3"><stop offset="0%" stop-color="#d0021b" stop-opacity="1"></stop><stop offset="100%" stop-color="#800211" stop-opacity="1"></stop></radialGradient><radialGradient id="gradient-4"><stop offset="0%" stop-color="#d0021b" stop-opacity="1"></stop><stop offset="100%" stop-color="#800211" stop-opacity="1"></stop></radialGradient><radialGradient id="gradient-5"><stop offset="0%" stop-color="#9b9b9b" stop-opacity="1"></stop><stop offset="100%" stop-color="#c9c9c9" stop-opacity="1"></stop></radialGradient><radialGradient id="gradient-6"><stop offset="0%" stop-color="#ffffff" stop-opacity="1"></stop><stop offset="100%" stop-color="#c9c9c9" stop-opacity="1"></stop></radialGradient><radialGradient id="gradient-7"><stop offset="0%" stop-color="#e1c292" stop-opacity="1"></stop><stop offset="100%" stop-color="#ffe0af" stop-opacity="1"></stop></radialGradient><radialGradient id="gradient-8"><stop offset="0%" stop-color="#f8e71c" stop-opacity="1"></stop><stop offset="100%" stop-color="#8b572a" stop-opacity="1"></stop></radialGradient><radialGradient id="gradient-9"><stop offset="0%" stop-color="#f8e71c" stop-opacity="1"></stop><stop offset="100%" stop-color="#8b572a" stop-opacity="1"></stop></radialGradient><radialGradient id="gradient-10"><stop offset="0%" stop-color="#fc88fc" stop-opacity="1"></stop><stop offset="100%" stop-color="#d0021b" stop-opacity="1"></stop></radialGradient><radialGradient id="gradient-11"><stop offset="0%" stop-color="#fc88fc" stop-opacity="1"></stop><stop offset="100%" stop-color="#d0021b" stop-opacity="1"></stop></radialGradient><radialGradient id="gradient-12"><stop offset="0%" stop-color="#ffffff" stop-opacity="1"></stop><stop offset="100%" stop-color="#c9c9c9" stop-opacity="1"></stop></radialGradient><radialGradient id="gradient-13"><stop offset="0%" stop-color="#b57204" stop-opacity="1"></stop><stop offset="100%" stop-color="#8b572a" stop-opacity="1"></stop></radialGradient><radialGradient id="gradient-14"><stop offset="0%" stop-color="#b57204" stop-opacity="1"></stop><stop offset="100%" stop-color="#8b572a" stop-opacity="1"></stop></radialGradient><radialGradient id="gradient-15"><stop offset="0%" stop-color="#b57204" stop-opacity="1"></stop><stop offset="100%" stop-color="#8b572a" stop-opacity="1"></stop></radialGradient><radialGradient id="gradient-16"><stop offset="0%" stop-color="#b57204" stop-opacity="1"></stop><stop offset="100%" stop-color="#8b572a" stop-opacity="1"></stop></radialGradient><radialGradient id="gradient-17"><stop offset="0%" stop-color="#b57204" stop-opacity="1"></stop><stop offset="100%" stop-color="#8b572a" stop-opacity="1"></stop></radialGradient><radialGradient id="gradient-18"><stop offset="0%" stop-color="#c9c9c9" stop-opacity="1"></stop><stop offset="100%" stop-color="#9b9b9b" stop-opacity="1"></stop></radialGradient><radialGradient id="gradient-19"><stop offset="0%" stop-color="#f8e71c" stop-opacity="1"></stop><stop offset="100%" stop-color="#f5a623" stop-opacity="1"></stop></radialGradient><radialGradient id="gradient-20"><stop offset="0%" stop-color="#f8e71c" stop-opacity="1"></stop><stop offset="100%" stop-color="#f5a623" stop-opacity="1"></stop></radialGradient><radialGradient id="gradient-21"><stop offset="0%" stop-color="#f8e71c" stop-opacity="1"></stop><stop offset="100%" stop-color="#f5a623" stop-opacity="1"></stop></radialGradient><radialGradient id="gradient-22"><stop offset="0%" stop-color="#f8e71c" stop-opacity="1"></stop><stop offset="100%" stop-color="#f5a623" stop-opacity="1"></stop></radialGradient><radialGradient id="gradient-23"><stop offset="0%" stop-color="#f8e71c" stop-opacity="1"></stop><stop offset="100%" stop-color="#f5a623" stop-opacity="1"></stop></radialGradient><radialGradient id="gradient-24"><stop offset="0%" stop-color="#f8e71c" stop-opacity="1"></stop><stop offset="100%" stop-color="#f5a623" stop-opacity="1"></stop></radialGradient><radialGradient id="gradient-25"><stop offset="0%" stop-color="#f8e71c" stop-opacity="1"></stop><stop offset="100%" stop-color="#f5a623" stop-opacity="1"></stop></radialGradient><radialGradient id="gradient-26"><stop offset="0%" stop-color="#f8e71c" stop-opacity="1"></stop><stop offset="100%" stop-color="#f5a623" stop-opacity="1"></stop></radialGradient><radialGradient id="gradient-27"><stop offset="0%" stop-color="#f8e71c" stop-opacity="1"></stop><stop offset="100%" stop-color="#f5a623" stop-opacity="1"></stop></radialGradient><radialGradient id="gradient-28"><stop offset="0%" stop-color="#f8e71c" stop-opacity="1"></stop><stop offset="100%" stop-color="#f5a623" stop-opacity="1"></stop></radialGradient><radialGradient id="gradient-29"><stop offset="0%" stop-color="#f8e71c" stop-opacity="1"></stop><stop offset="100%" stop-color="#f5a623" stop-opacity="1"></stop></radialGradient><radialGradient id="gradient-30"><stop offset="0%" stop-color="#f8e71c" stop-opacity="1"></stop><stop offset="100%" stop-color="#f5a623" stop-opacity="1"></stop></radialGradient><radialGradient id="gradient-31"><stop offset="0%" stop-color="#f8e71c" stop-opacity="1"></stop><stop offset="100%" stop-color="#f5a623" stop-opacity="1"></stop></radialGradient><radialGradient id="gradient-32"><stop offset="0%" stop-color="#f8e71c" stop-opacity="1"></stop><stop offset="100%" stop-color="#f5a623" stop-opacity="1"></stop></radialGradient><radialGradient id="gradient-33"><stop offset="0%" stop-color="#7ed321" stop-opacity="1"></stop><stop offset="100%" stop-color="#417505" stop-opacity="1"></stop></radialGradient><radialGradient id="gradient-34"><stop offset="0%" stop-color="#f8e71c" stop-opacity="1"></stop><stop offset="100%" stop-color="#f5a623" stop-opacity="1"></stop></radialGradient><radialGradient id="gradient-35"><stop offset="0%" stop-color="#f8e71c" stop-opacity="1"></stop><stop offset="100%" stop-color="#f5a623" stop-opacity="1"></stop></radialGradient><radialGradient id="gradient-36"><stop offset="0%" stop-color="#f8e71c" stop-opacity="1"></stop><stop offset="100%" stop-color="#f5a623" stop-opacity="1"></stop></radialGradient></defs><g class="" transform="translate(1,0)" style="touch-action: none;"><g><path d="M20.563 20.844L20.563 65.437L93.687 138.344C98.565 130.399 104.649 122.694 111.813 115.531C118.965 108.381 126.638 102.337 134.563 97.471L58.156 20.843L20.563 20.843Z" class="" fill="url(#gradient-2)" stroke="#000000" stroke-opacity="1" stroke-width="1"></path><path d="M180.375 101.906C179.809 101.901 179.237 101.92 178.655 101.936C175.558 102.033 172.235 102.458 168.75 103.219C154.808 106.262 138.777 114.972 125 128.749C111.223 142.526 102.513 158.557 99.47 172.499C96.565 185.795 98.66 196.434 104.75 203.279C110.15 182.925 122.337 162.099 140.344 144.093C158.368 126.069 179.22 113.89 199.594 108.499C194.876 104.276 188.344 101.973 180.374 101.905Z" class="" fill="url(#gradient-3)" stroke="#000000" stroke-opacity="1" stroke-width="1"></path><path d="M220.845 124.062C216.868 124.158 212.655 124.686 208.25 125.625C190.63 129.38 170.647 140.197 153.53 157.313C136.417 174.428 125.6 194.38 121.845 212C118.09 229.62 121.212 244.086 130.315 253.188C131.22 254.094 132.209 254.932 133.22 255.718C137.855 224.228 151.726 196.634 172.656 175.718C193.346 155.044 220.55 141.253 251.594 136.468C250.916 135.631 250.201 134.826 249.438 134.063C242.611 127.236 232.77 123.775 220.844 124.063Z" class="" fill="url(#gradient-4)" stroke="#000000" stroke-opacity="1" stroke-width="1"></path><path d="M276.188 152.719C239.628 152.886 208.171 166.625 185.844 188.937C183.604 191.177 181.469 193.517 179.406 195.937C201.836 207.591 216.723 222.507 225.719 238.999C236.294 258.391 238.696 279.392 237.874 299.029L219.186 298.249C219.922 280.684 217.738 263.386 209.311 247.936C201.845 234.248 189.437 221.619 168.281 211.249C150.126 240.929 143.784 279.909 155.624 323.093C192.096 326.239 228.512 347.383 241.999 389.343C287.024 382.968 361.335 415.9 369.219 453.593C409.179 472.07 453.807 486.961 494.936 498.687C483.606 462.814 470.556 417.59 454.218 381.717C419.688 360.211 404.516 318.897 407.592 275.374C367.256 245.269 337.412 205.856 332.812 162.749C313.03 155.799 294.006 152.636 276.185 152.719Z" class="" fill="url(#gradient-5)" stroke="#000000" stroke-opacity="1" stroke-width="1"></path><path d="M266.656 198.219C276.949 250.759 325.323 284.389 367.281 291.937L363.971 310.312C352.881 308.316 341.493 304.809 330.376 299.874C323.446 319.489 331.716 341.126 350.126 359.874C369.764 379.872 400.538 394.78 431.22 395.844L430.562 414.53C394.408 413.28 359.905 396.516 336.782 372.97C335.802 371.97 334.846 370.966 333.906 369.937C318.436 357.575 306.291 353.817 295.436 354.437C284.518 355.061 273.838 360.449 262.406 369.5L250.812 354.844C263.855 344.517 278.107 336.71 294.375 335.781C300.753 335.418 307.275 336.154 313.938 338.064C308.301 322.876 307.51 306.72 313.688 291.251C282.658 272.743 256.296 242.407 248.344 201.813L266.656 198.22Z" class="selected" fill="url(#gradient-6)" stroke="#000000" stroke-opacity="1" stroke-width="1"></path></g></g></svg>