<svg xmlns="http://www.w3.org/2000/svg" viewBox="0 0 512 512" style="height: 512px; width: 512px;"><defs><radialGradient id="delapouite-warhammer-gradient-0"><stop offset="0%" stop-color="#c9c9c9" stop-opacity="1"></stop><stop offset="100%" stop-color="#000" stop-opacity="1"></stop></radialGradient><linearGradient x1="0" x2="1" y1="0" y2="1" id="delapouite-warhammer-gradient-2"><stop offset="0%" stop-color="#4a4a4a" stop-opacity="1"></stop><stop offset="100%" stop-color="#9b9b9b" stop-opacity="1"></stop></linearGradient><linearGradient x1="0" x2="1" y1="0" y2="1" id="delapouite-warhammer-gradient-3"><stop offset="0%" stop-color="#fc88fc" stop-opacity="1"></stop><stop offset="100%" stop-color="#9013fe" stop-opacity="1"></stop></linearGradient><linearGradient x1="0" x2="1" y1="0" y2="1" id="delapouite-warhammer-gradient-4"><stop offset="0%" stop-color="#9b9b9b" stop-opacity="1"></stop><stop offset="100%" stop-color="#4a4a4a" stop-opacity="1"></stop></linearGradient><linearGradient x1="0" x2="1" y1="0" y2="1" id="delapouite-warhammer-gradient-5"><stop offset="0%" stop-color="#fc88fc" stop-opacity="1"></stop><stop offset="100%" stop-color="#9013fe" stop-opacity="1"></stop></linearGradient><linearGradient x1="0" x2="1" y1="0" y2="1" id="delapouite-warhammer-gradient-6"><stop offset="0%" stop-color="#fc88fc" stop-opacity="1"></stop><stop offset="100%" stop-color="#9013fe" stop-opacity="1"></stop></linearGradient><linearGradient x1="0" x2="1" y1="1" y2="0" id="delapouite-warhammer-gradient-7"><stop offset="0%" stop-color="#fc88fc" stop-opacity="1"></stop><stop offset="100%" stop-color="#9013fe" stop-opacity="1"></stop></linearGradient><linearGradient x1="0" x2="1" y1="0" y2="1" id="delapouite-warhammer-gradient-8"><stop offset="0%" stop-color="#fc88fc" stop-opacity="1"></stop><stop offset="100%" stop-color="#9013fe" stop-opacity="1"></stop></linearGradient><linearGradient x1="0" x2="1" y1="0" y2="1" id="delapouite-warhammer-gradient-9"><stop offset="0%" stop-color="#4a4a4a" stop-opacity="1"></stop><stop offset="100%" stop-color="#9b9b9b" stop-opacity="1"></stop></linearGradient><linearGradient x1="0" x2="1" y1="1" y2="0" id="delapouite-warhammer-gradient-10"><stop offset="0%" stop-color="#8b572a" stop-opacity="1"></stop><stop offset="100%" stop-color="#b57204" stop-opacity="1"></stop></linearGradient><linearGradient x1="0" x2="0" y1="0" y2="1" id="delapouite-warhammer-gradient-16"><stop offset="0%" stop-color="#b57204" stop-opacity="1"></stop><stop offset="100%" stop-color="#8b572a" stop-opacity="1"></stop></linearGradient><linearGradient x1="0" x2="0" y1="0" y2="1" id="delapouite-warhammer-gradient-19"><stop offset="0%" stop-color="#b57204" stop-opacity="1"></stop><stop offset="100%" stop-color="#8b572a" stop-opacity="1"></stop></linearGradient><linearGradient x1="0" x2="0" y1="0" y2="1" id="delapouite-warhammer-gradient-23"><stop offset="0%" stop-color="#b57204" stop-opacity="1"></stop><stop offset="100%" stop-color="#8b572a" stop-opacity="1"></stop></linearGradient><linearGradient x1="0" x2="0" y1="0" y2="1" id="delapouite-warhammer-gradient-25"><stop offset="0%" stop-color="#b57204" stop-opacity="1"></stop><stop offset="100%" stop-color="#8b572a" stop-opacity="1"></stop></linearGradient></defs><g class="" transform="translate(0,0)" style=""><g><path d="M351.4 31.4L295.5 59.15L349.5 93.77L351.4 31.4Z" class="selected" fill="url(#delapouite-warhammer-gradient-2)" stroke="#000000" stroke-opacity="1" stroke-width="2"></path><path d="M143.2 67.33L163.2 100.8L182 71.5L143.2 67.33Z" class="" fill="url(#delapouite-warhammer-gradient-3)" stroke="#000000" stroke-opacity="1" stroke-width="2"></path><path d="M200.2 76.49L192.6 88.31L292.8 152.5L283.1 167.6L182.9 103.5L158.1 142.2L258.3 206.3L248.6 221.5L148.4 157.4L140.9 169.1L290.9 265.2L328.8 257.6L373.6 187.6L200.2 76.49Z" class="" fill="url(#delapouite-warhammer-gradient-4)" stroke="#000000" stroke-opacity="1" stroke-width="2"></path><path d="M293.4 79.22L277.2 104.5L315.9 129.2L332.1 104L293.4 79.22Z" class="" fill="url(#delapouite-warhammer-gradient-5)" stroke="#000000" stroke-opacity="1" stroke-width="2"></path><path d="M108.7 121.2L128.7 154.7L147.5 125.4L108.7 121.2Z" class="" fill="url(#delapouite-warhammer-gradient-6)" stroke="#000000" stroke-opacity="1" stroke-width="2"></path><path d="M388.8 197.3L346.7 263L358.5 270.5L400.6 204.8L388.8 197.3Z" class="" fill="url(#delapouite-warhammer-gradient-7)" stroke="#000000" stroke-opacity="1" stroke-width="2"></path><path d="M164.7 205.8L165.3 241.8L238.1 288.4L271.1 273.9L164.7 205.8Z" class="" fill="url(#delapouite-warhammer-gradient-8)" stroke="#000000" stroke-opacity="1" stroke-width="2"></path><path d="M415.1 215.7L381.9 267.5C393.6 270.3 405.9 274.8 418.4 279.8C437.7 287.4 457.5 296.5 475 303.8C465.5 276.6 452.8 245.9 415.1 215.7Z" class="" fill="url(#delapouite-warhammer-gradient-9)" stroke="#000000" stroke-opacity="1" stroke-width="2"></path><path d="M172.6 267.8L27.77 494L82.38 494L211.4 292.6L172.6 267.8Z" class="" fill="url(#delapouite-warhammer-gradient-10)" stroke="#000000" stroke-opacity="1" stroke-width="2"></path></g></g></svg>