<svg xmlns="http://www.w3.org/2000/svg" viewBox="0 0 512 512" style="height: 512px; width: 512px;"><defs><linearGradient x1="0" x2="1" y1="0" y2="1" id="lorc-whip-gradient-1"><stop offset="0%" stop-color="#d0021b" stop-opacity="1"></stop><stop offset="100%" stop-color="#fa95a1" stop-opacity="1"></stop></linearGradient><linearGradient id="lorc-whip-gradient-2" x1="0" x2="1" y1="1" y2="0"><stop offset="0%" stop-color="#fc88fc" stop-opacity="1"></stop><stop offset="100%" stop-color="#bd10e0" stop-opacity="1"></stop></linearGradient><radialGradient id="lorc-whip-gradient-3"><stop offset="0%" stop-color="#f8e71c" stop-opacity="1"></stop><stop offset="100%" stop-color="#f5a623" stop-opacity="1"></stop></radialGradient><radialGradient id="lorc-whip-gradient-4"><stop offset="0%" stop-color="#b57204" stop-opacity="1"></stop><stop offset="100%" stop-color="#8b572a" stop-opacity="1"></stop></radialGradient><radialGradient id="lorc-whip-gradient-5"><stop offset="0%" stop-color="#9b9b9b" stop-opacity="1"></stop><stop offset="100%" stop-color="#4a4a4a" stop-opacity="1"></stop></radialGradient><radialGradient id="lorc-whip-gradient-6"><stop offset="0%" stop-color="#6c576d" stop-opacity="1"></stop><stop offset="100%" stop-color="#312832" stop-opacity="1"></stop></radialGradient><radialGradient id="lorc-whip-gradient-7"><stop offset="0%" stop-color="#b57204" stop-opacity="1"></stop><stop offset="100%" stop-color="#8b572a" stop-opacity="1"></stop></radialGradient><radialGradient id="lorc-whip-gradient-8"><stop offset="0%" stop-color="#b57204" stop-opacity="1"></stop><stop offset="100%" stop-color="#8b572a" stop-opacity="1"></stop></radialGradient><radialGradient id="lorc-whip-gradient-9"><stop offset="0%" stop-color="#b57204" stop-opacity="1"></stop><stop offset="100%" stop-color="#8b572a" stop-opacity="1"></stop></radialGradient><radialGradient id="lorc-whip-gradient-10"><stop offset="0%" stop-color="#ff7b00" stop-opacity="1"></stop><stop offset="100%" stop-color="#b87333" stop-opacity="1"></stop></radialGradient><radialGradient id="lorc-whip-gradient-11"><stop offset="0%" stop-color="#6c576d" stop-opacity="1"></stop><stop offset="100%" stop-color="#312832" stop-opacity="1"></stop></radialGradient><radialGradient id="lorc-whip-gradient-12"><stop offset="0%" stop-color="#4a4a4a" stop-opacity="1"></stop><stop offset="100%" stop-color="#000000" stop-opacity="1"></stop></radialGradient><radialGradient id="lorc-whip-gradient-13"><stop offset="0%" stop-color="#4a4a4a" stop-opacity="1"></stop><stop offset="100%" stop-color="#000000" stop-opacity="1"></stop></radialGradient><radialGradient id="lorc-whip-gradient-14"><stop offset="0%" stop-color="#c9c9c9" stop-opacity="1"></stop><stop offset="100%" stop-color="#9b9b9b" stop-opacity="1"></stop></radialGradient><radialGradient id="lorc-whip-gradient-15"><stop offset="0%" stop-color="#c9c9c9" stop-opacity="1"></stop><stop offset="100%" stop-color="#9b9b9b" stop-opacity="1"></stop></radialGradient><radialGradient id="lorc-whip-gradient-16"><stop offset="0%" stop-color="#ff7b00" stop-opacity="1"></stop><stop offset="100%" stop-color="#b87333" stop-opacity="1"></stop></radialGradient><radialGradient id="lorc-whip-gradient-17"><stop offset="0%" stop-color="#ff7b00" stop-opacity="1"></stop><stop offset="100%" stop-color="#b87333" stop-opacity="1"></stop></radialGradient><radialGradient id="lorc-whip-gradient-18"><stop offset="0%" stop-color="#ff7b00" stop-opacity="1"></stop><stop offset="100%" stop-color="#b87333" stop-opacity="1"></stop></radialGradient><radialGradient id="lorc-whip-gradient-19"><stop offset="0%" stop-color="#ff7b00" stop-opacity="1"></stop><stop offset="100%" stop-color="#b87333" stop-opacity="1"></stop></radialGradient><radialGradient id="lorc-whip-gradient-20"><stop offset="0%" stop-color="#ffe0af" stop-opacity="1"></stop><stop offset="100%" stop-color="#e2c093" stop-opacity="1"></stop></radialGradient><radialGradient id="lorc-whip-gradient-22"><stop offset="0%" stop-color="#fc88fc" stop-opacity="1"></stop><stop offset="100%" stop-color="#bd10e0" stop-opacity="1"></stop></radialGradient><radialGradient id="lorc-whip-gradient-25"><stop offset="0%" stop-color="#9b9b9b" stop-opacity="1"></stop><stop offset="100%" stop-color="#4a4a4a" stop-opacity="1"></stop></radialGradient><radialGradient id="lorc-whip-gradient-26"><stop offset="0%" stop-color="#9b9b9b" stop-opacity="1"></stop><stop offset="100%" stop-color="#4a4a4a" stop-opacity="1"></stop></radialGradient><radialGradient id="lorc-whip-gradient-27"><stop offset="0%" stop-color="#9b9b9b" stop-opacity="1"></stop><stop offset="100%" stop-color="#4a4a4a" stop-opacity="1"></stop></radialGradient><radialGradient id="lorc-whip-gradient-28"><stop offset="0%" stop-color="#9b9b9b" stop-opacity="1"></stop><stop offset="100%" stop-color="#4a4a4a" stop-opacity="1"></stop></radialGradient><radialGradient id="lorc-whip-gradient-29"><stop offset="0%" stop-color="#9b9b9b" stop-opacity="1"></stop><stop offset="100%" stop-color="#4a4a4a" stop-opacity="1"></stop></radialGradient><radialGradient id="lorc-whip-gradient-30"><stop offset="0%" stop-color="#9b9b9b" stop-opacity="1"></stop><stop offset="100%" stop-color="#4a4a4a" stop-opacity="1"></stop></radialGradient><radialGradient id="lorc-whip-gradient-31"><stop offset="0%" stop-color="#9b9b9b" stop-opacity="1"></stop><stop offset="100%" stop-color="#4a4a4a" stop-opacity="1"></stop></radialGradient><radialGradient id="lorc-whip-gradient-32"><stop offset="0%" stop-color="#9b9b9b" stop-opacity="1"></stop><stop offset="100%" stop-color="#4a4a4a" stop-opacity="1"></stop></radialGradient><radialGradient id="lorc-whip-gradient-33"><stop offset="0%" stop-color="#9b9b9b" stop-opacity="1"></stop><stop offset="100%" stop-color="#4a4a4a" stop-opacity="1"></stop></radialGradient><radialGradient id="lorc-whip-gradient-34"><stop offset="0%" stop-color="#9b9b9b" stop-opacity="1"></stop><stop offset="100%" stop-color="#4a4a4a" stop-opacity="1"></stop></radialGradient><radialGradient id="lorc-whip-gradient-35"><stop offset="0%" stop-color="#9b9b9b" stop-opacity="1"></stop><stop offset="100%" stop-color="#4a4a4a" stop-opacity="1"></stop></radialGradient><radialGradient id="lorc-whip-gradient-36"><stop offset="0%" stop-color="#9b9b9b" stop-opacity="1"></stop><stop offset="100%" stop-color="#4a4a4a" stop-opacity="1"></stop></radialGradient><radialGradient id="lorc-whip-gradient-37"><stop offset="0%" stop-color="#9b9b9b" stop-opacity="1"></stop><stop offset="100%" stop-color="#4a4a4a" stop-opacity="1"></stop></radialGradient></defs><g class="" transform="translate(1,0)" style=""><g transform="translate(0, 512) scale(1, -1) rotate(0, 256, 256) skewX(0) skewY(0)"><path d="M258.885 29.48C250.315 29.44 241.589 29.836 232.721 30.68C231.314 30.713 229.905 30.74 228.499 30.797C207.869 31.645 187.412 35.157 167.755 41.592C115.335 58.748 68.809 97.07 41.323 159.702C-7.104 270.056 43.571 379.244 124.007 433.734C164.225 460.98 212.147 474.93 259.235 468.529C306.323 462.129 352.155 435.016 386.983 382.421C413.351 342.603 409.896 299.701 383.393 277.065C356.887 254.43 310.853 254.533 259.623 290.003C233.661 307.979 211.853 310.709 193.956 305.815C176.059 300.921 161.45 287.771 152.052 271.417C142.655 255.063 138.836 235.72 141.645 220.277C144.175 206.367 150.997 195.765 164.842 190.241C205.144 188.194 219.219 222.557 206.602 246.956L206.604 246.956C244.538 224.55 227.757 190.414 198.147 181.566C236.544 178.493 253.627 205.999 255.189 225.612C269.454 200.352 257.569 170.282 217.547 164.252C235.742 156.42 273.327 165.467 287.959 185.019C286.957 132.585 204.837 134.979 154.711 174.376C137.051 182.948 126.485 199.181 123.257 216.933C119.467 237.775 124.44 260.875 135.849 280.728C147.257 300.578 165.467 317.398 189.026 323.84C212.586 330.282 240.874 325.715 270.263 305.367C317.315 272.787 352.939 275.633 371.255 291.274C389.571 306.916 394.099 337.824 371.401 372.101C339.069 420.927 298.518 444.327 256.718 450.009C214.918 455.691 171.448 443.297 134.488 418.259C60.57 368.183 13.748 269.045 58.438 167.209C83.956 109.059 125.791 74.986 173.568 59.349C209.208 47.684 248.278 46.499 285.913 54.179C389.838 79.905 450.36 156.873 456.118 228.499C460.218 227.032 464.57 226.171 469.044 226.019C471.889 225.925 474.784 226.114 477.692 226.612C482.686 227.467 487.332 229.172 491.514 231.544C484.332 130.812 389.88 30.1 258.885 29.48Z" class="selected" fill="url(#lorc-whip-gradient-2)" stroke="#000000" stroke-opacity="1" stroke-width="2"></path><path d="M470.822 244.682C470.414 244.674 470.008 244.676 469.604 244.688C458.278 245.022 448.529 253.201 446.534 264.85C445.644 270.047 446.444 275.103 448.537 279.477C451.429 278.729 454.392 278.375 457.369 278.391C461.561 278.413 465.775 279.151 469.837 280.483C475.003 282.179 480.001 285.049 484.319 288.903C489.454 285.333 493.196 279.767 494.349 273.04C496.629 259.726 487.847 247.315 474.534 245.035C473.286 244.821 472.046 244.705 470.821 244.682Z" class="" fill="url(#lorc-whip-gradient-3)" stroke="#000000" stroke-opacity="1" stroke-width="2"></path><path d="M457.312 297.135C455.194 297.125 453.265 297.447 451.736 298.035C448.759 299.179 447.111 300.658 446.189 304.312C441.091 364.479 403.042 414.792 356.202 461.389C355.127 465.662 355.695 469.009 357.538 472.556C359.63 476.584 363.688 480.709 368.826 484.081C377.369 489.687 388.974 492.221 394.789 492.466C411.044 467.351 430.183 432.936 446.209 400.756C462.916 367.209 476.229 335.446 479.079 322.608C480.859 308.516 473.047 301.204 464.011 298.238C461.731 297.49 459.426 297.144 457.311 297.133Z" class="" fill="url(#lorc-whip-gradient-4)" stroke="#000000" stroke-opacity="1" stroke-width="2"></path></g></g></svg>