<svg xmlns="http://www.w3.org/2000/svg" viewBox="0 0 512 512" style="height: 512px; width: 512px;"><defs><radialGradient id="lorc-broadsword-gradient-0"><stop offset="0%" stop-color="#c9c9c9" stop-opacity="1"></stop><stop offset="100%" stop-color="#000" stop-opacity="1"></stop></radialGradient><linearGradient x1="0" x2="0" y1="0" y2="1" id="lorc-broadsword-gradient-1"><stop offset="0%" stop-color="#f8e71c" stop-opacity="1"></stop><stop offset="100%" stop-color="#f5a623" stop-opacity="1"></stop></linearGradient><linearGradient x1="0" x2="1" y1="1" y2="0" id="lorc-broadsword-gradient-2"><stop offset="0%" stop-color="#c9c9c9" stop-opacity="1"></stop><stop offset="100%" stop-color="#4a4a4a" stop-opacity="1"></stop></linearGradient><linearGradient x1="0" x2="1" y1="1" y2="0" id="lorc-broadsword-gradient-3"><stop offset="0%" stop-color="#f8e71c" stop-opacity="1"></stop><stop offset="100%" stop-color="#f5a623" stop-opacity="1"></stop></linearGradient><radialGradient id="lorc-broadsword-gradient-4"><stop offset="0%" stop-color="#f8e71c" stop-opacity="1"></stop><stop offset="100%" stop-color="#f5a623" stop-opacity="1"></stop></radialGradient><linearGradient x1="0" x2="1" y1="0" y2="1" id="lorc-broadsword-gradient-5"><stop offset="0%" stop-color="#9b9b9b" stop-opacity="1"></stop><stop offset="100%" stop-color="#4a4a4a" stop-opacity="1"></stop></linearGradient></defs><g class="" transform="translate(0,0)" style=""><g transform="translate(0, 0) scale(1, 1) rotate(-360, 256, 256) skewX(0) skewY(0)"><path d="M491.844 22.533L408.424 37.398L196.572 249.25C199.834 254.065 201.942 259.97 201.942 266.182C201.942 272.045 200.232 277.532 197.299 282.178C192.234 280.572 186.851 279.701 181.272 279.701C165.548 279.701 151.368 286.591 141.582 297.497L132.47 288.384L149.707 271.147C145.192 265.375 140.8 259.502 136.517 253.547L117.074 272.987L103.859 259.772L125.687 237.945C121.284 231.355 117.017 224.667 112.895 217.877L72.093 258.68L130.407 316.994C128.794 322.069 127.917 327.464 127.917 333.057C127.917 340.723 129.567 348.017 132.509 354.621L60.369 426.761L45.809 412.201L21.013 437L35.571 451.56L26.964 460.168L54.21 487.414L62.816 478.804L77.376 493.364L102.174 468.564L87.617 454.008L159.775 381.848C166.361 384.77 173.633 386.41 181.273 386.41C186.866 386.41 192.261 385.533 197.336 383.92L255.699 442.283L296.5 401.48C289.703 397.353 283.014 393.085 276.432 388.687L254.602 410.517L241.39 397.3L260.832 377.86C254.87 373.57 248.997 369.177 243.229 364.666L225.991 381.904L216.831 372.744C227.736 362.959 234.626 348.779 234.626 333.054C234.626 327.708 233.82 322.544 232.341 317.664C237.044 314.624 242.629 312.847 248.606 312.848C254.816 312.848 260.382 314.618 265.126 317.803L476.98 105.95L491.844 22.533Z" class="" fill="url(#lorc-broadsword-gradient-2)" stroke="#000000" stroke-opacity="1" stroke-width="2"></path><path d="M425.617 75.545L438.832 88.76L247.148 280.44L233.934 267.227L425.617 75.545Z" class="selected" fill="url(#lorc-broadsword-gradient-3)" stroke="#000000" stroke-opacity="1" stroke-width="2"></path><path d="M181.273 298.39C200.53 298.39 215.938 313.8 215.938 333.055C215.938 352.311 200.53 367.721 181.273 367.721C162.017 367.721 146.607 352.311 146.607 333.056C146.607 313.801 162.017 298.39 181.273 298.39Z" class="" fill="url(#lorc-broadsword-gradient-4)" stroke="#000000" stroke-opacity="1" stroke-width="2"></path></g></g></svg>