<svg xmlns="http://www.w3.org/2000/svg" viewBox="0 0 512 512" style="height: 512px; width: 512px;"><defs><radialGradient id="gradient-2"><stop offset="0%" stop-color="#efc078" stop-opacity="1"></stop><stop offset="100%" stop-color="#c6aa7d" stop-opacity="1"></stop></radialGradient><radialGradient id="gradient-3"><stop offset="0%" stop-color="#d0021b" stop-opacity="1"></stop><stop offset="100%" stop-color="#f5a623" stop-opacity="1"></stop></radialGradient><radialGradient id="gradient-4"><stop offset="0%" stop-color="#4a4a4a" stop-opacity="1"></stop><stop offset="100%" stop-color="#000000" stop-opacity="1"></stop></radialGradient><radialGradient id="gradient-5"><stop offset="0%" stop-color="#d0021b" stop-opacity="1"></stop><stop offset="100%" stop-color="#f5a623" stop-opacity="1"></stop></radialGradient><radialGradient id="gradient-6"><stop offset="0%" stop-color="#d0021b" stop-opacity="1"></stop><stop offset="100%" stop-color="#f5a623" stop-opacity="1"></stop></radialGradient><radialGradient id="gradient-7"><stop offset="0%" stop-color="#c9c9c9" stop-opacity="1"></stop><stop offset="100%" stop-color="#9b9b9b" stop-opacity="1"></stop></radialGradient><radialGradient id="gradient-8"><stop offset="0%" stop-color="#b57204" stop-opacity="1"></stop><stop offset="100%" stop-color="#8b572a" stop-opacity="1"></stop></radialGradient><radialGradient id="gradient-9"><stop offset="0%" stop-color="#b57204" stop-opacity="1"></stop><stop offset="100%" stop-color="#8b572a" stop-opacity="1"></stop></radialGradient><radialGradient id="gradient-10"><stop offset="0%" stop-color="#b57204" stop-opacity="1"></stop><stop offset="100%" stop-color="#8b572a" stop-opacity="1"></stop></radialGradient><radialGradient id="gradient-11"><stop offset="0%" stop-color="#b57204" stop-opacity="1"></stop><stop offset="100%" stop-color="#8b572a" stop-opacity="1"></stop></radialGradient><radialGradient id="gradient-12"><stop offset="0%" stop-color="#b57204" stop-opacity="1"></stop><stop offset="100%" stop-color="#8b572a" stop-opacity="1"></stop></radialGradient><radialGradient id="gradient-13"><stop offset="0%" stop-color="#b57204" stop-opacity="1"></stop><stop offset="100%" stop-color="#8b572a" stop-opacity="1"></stop></radialGradient><radialGradient id="gradient-15"><stop offset="0%" stop-color="#f5a623" stop-opacity="1"></stop><stop offset="100%" stop-color="#f8e71c" stop-opacity="1"></stop></radialGradient><radialGradient id="gradient-16"><stop offset="0%" stop-color="#ba6f00" stop-opacity="1"></stop><stop offset="100%" stop-color="#825819" stop-opacity="1"></stop></radialGradient></defs><g class="" transform="translate(2,9)" style="touch-action: none;"><g transform="translate(512, 0) scale(-1, 1) rotate(0, 256, 256)"><path d="M133.28 18.22C112.04 18.374 89.49 26.207 69.72 41.25C66.975 40.233 64.123 39.594 61.25 39.344C50.844 38.439 40.153 42.508 33.125 51.156C24.161 62.186 23.715 77.531 30.905 89C11.245 130.305 17.441 175.867 47.062 199.938C69.3 218.01 99.576 220.665 129.438 209.125L134.468 207.187L138.688 210.594L185.25 248.406L201.844 228L157.969 192.344L169.749 177.844L213.624 213.469L228.968 194.593L185.092 158.937L196.872 144.437L240.748 180.093L257.311 159.718L210.779 121.904L206.561 118.467L207.436 113.122C212.626 81.535 203.863 52.476 181.624 34.402C168.094 23.408 151.144 18.086 133.28 18.216Z" class="" fill="url(#gradient-2)" stroke="#000000" stroke-opacity="1" stroke-width="3"></path><path d="M131.03 43.688L174.875 57.562L139.562 101L115.312 93.344L131.032 43.688Z" class="" fill="url(#gradient-3)" stroke="#000000" stroke-opacity="1" stroke-width="3"></path><path d="M57.876 57.78C58.424 57.764 58.983 57.793 59.532 57.844C62.169 58.087 64.782 59.109 67.032 60.937C73.032 65.813 73.908 74.345 69.032 80.344C64.158 86.342 55.626 87.251 49.627 82.374C43.627 77.499 42.751 68.968 47.627 62.969C50.293 59.687 54.037 57.901 57.877 57.779Z" class="" fill="url(#gradient-4)" stroke="#000000" stroke-opacity="1" stroke-width="3"></path><path d="M114.782 117.53L170.158 129.094L137.438 169.344L114.783 117.531Z" class="" fill="url(#gradient-5)" stroke="#000000" stroke-opacity="1" stroke-width="3"></path><path d="M91.22 123L103.688 145.156L68.375 188.594L45.845 148.531L91.218 123Z" class="" fill="url(#gradient-6)" stroke="#000000" stroke-opacity="1" stroke-width="3"></path><path d="M246.25 203L224.28 230.03L349.437 331.72L324.844 361.97L342.406 376.25L362.281 351.78L376.781 363.563L356.907 388.031L370.157 398.814L353.47 419.344L315.344 463.814L329.531 475.97L362.126 437.97L381.376 446L404.282 417.812L418.782 429.594L377.69 480.156L395.877 494.936L457.283 419.376L472.723 431.938L494.69 404.906L246.25 203Z" class="selected" fill="url(#gradient-7)" stroke="#000000" stroke-opacity="1" stroke-width="3"></path></g></g><g class="" transform="translate(301,299)" style="touch-action: none;"><g transform="translate(6.4, 6.4) scale(0.8, 0.8) rotate(-360, 128, 128)"><circle cx="128" cy="128" r="128" fill="#000000" fill-opacity="1"></circle><circle stroke="#417505" stroke-opacity="1" fill="#000000" fill-opacity="1" stroke-width="18" cx="128" cy="128" r="101"></circle><path fill="#417505" fill-opacity="1" d="MZ"></path></g></g><g font-family="Arial, Helvetica, sans-serif" font-size="90" font-style="normal" font-weight="normal" text-anchor="middle" class="" transform="translate(410,438)" style="touch-action: none;"><text stroke="rgba(0, 0, 0, 0.005)" stroke-width="22.5"><tspan x="0" y="0">-30</tspan></text><text fill="rgba(65, 117, 5, 1)"><tspan x="0" y="0">-30</tspan></text></g></svg>