<svg xmlns="http://www.w3.org/2000/svg" viewBox="0 0 512 512" style="height: 512px; width: 512px;"><defs><radialGradient id="gradient-2"><stop offset="0%" stop-color="#c9c9c9" stop-opacity="1"></stop><stop offset="100%" stop-color="#9b9b9b" stop-opacity="1"></stop></radialGradient><radialGradient id="gradient-3"><stop offset="0%" stop-color="#9b9b9b" stop-opacity="1"></stop><stop offset="100%" stop-color="#c9c9c9" stop-opacity="1"></stop></radialGradient><radialGradient id="gradient-4"><stop offset="0%" stop-color="#c9c9c9" stop-opacity="1"></stop><stop offset="100%" stop-color="#4a4a4a" stop-opacity="1"></stop></radialGradient><radialGradient id="gradient-5"><stop offset="0%" stop-color="#ffffff" stop-opacity="1"></stop><stop offset="100%" stop-color="#c9c9c9" stop-opacity="1"></stop></radialGradient><radialGradient id="gradient-6"><stop offset="0%" stop-color="#4a4a4a" stop-opacity="1"></stop><stop offset="100%" stop-color="#9b9b9b" stop-opacity="1"></stop></radialGradient><radialGradient id="gradient-7"><stop offset="0%" stop-color="#4a4a4a" stop-opacity="1"></stop><stop offset="100%" stop-color="#9b9b9b" stop-opacity="1"></stop></radialGradient><radialGradient id="gradient-8"><stop offset="0%" stop-color="#b57204" stop-opacity="1"></stop><stop offset="100%" stop-color="#8b572a" stop-opacity="1"></stop></radialGradient><radialGradient id="gradient-9"><stop offset="0%" stop-color="#b57204" stop-opacity="1"></stop><stop offset="100%" stop-color="#8b572a" stop-opacity="1"></stop></radialGradient><radialGradient id="gradient-10"><stop offset="0%" stop-color="#b57204" stop-opacity="1"></stop><stop offset="100%" stop-color="#8b572a" stop-opacity="1"></stop></radialGradient><radialGradient id="gradient-11"><stop offset="0%" stop-color="#b57204" stop-opacity="1"></stop><stop offset="100%" stop-color="#8b572a" stop-opacity="1"></stop></radialGradient><radialGradient id="gradient-12"><stop offset="0%" stop-color="#b57204" stop-opacity="1"></stop><stop offset="100%" stop-color="#8b572a" stop-opacity="1"></stop></radialGradient><radialGradient id="gradient-13"><stop offset="0%" stop-color="#b57204" stop-opacity="1"></stop><stop offset="100%" stop-color="#8b572a" stop-opacity="1"></stop></radialGradient><radialGradient id="gradient-15"><stop offset="0%" stop-color="#f5a623" stop-opacity="1"></stop><stop offset="100%" stop-color="#f8e71c" stop-opacity="1"></stop></radialGradient><radialGradient id="gradient-16"><stop offset="0%" stop-color="#ba6f00" stop-opacity="1"></stop><stop offset="100%" stop-color="#825819" stop-opacity="1"></stop></radialGradient></defs><g class="" transform="translate(-15,2)" style="touch-action: none;"><g transform="translate(512, 0) scale(-1, 1) rotate(0, 256, 256)"><path d="M256 22.98L256 40.98C264.4 40.98 268.5 40.84 271.3 43.61C274.2 46.38 278.5 55.98 279 80.16L279 247L297 247L297 79.81C297.8 62.67 294 41.23 283.9 30.74C277.2 24.22 269.1 23.12 262.3 22.98L256 22.98Z" class="" fill="url(#gradient-2)" stroke="#000000" stroke-opacity="1" stroke-width="3"></path><path d="M448 23C434.3 23 423 34.3 423 48C423 54.78 425.8 60.96 430.2 65.49C429.8 66.16 429.3 66.85 428.9 67.55C425 74.25 423 82.51 423 91.52C423 100.5 425 108.8 428.9 115.5C431.3 119.6 434.7 123.4 439 125.7L439 244.1C442 243.4 445 243 448 243C451 243 454 243.4 457 244.1L457 125.7C461.3 123.4 464.7 119.6 467.1 115.5C471 108.8 473 100.5 473 91.52C473 82.51 471 74.25 467.1 67.55C466.7 66.85 466.2 66.16 465.8 65.49C470.2 60.96 473 54.78 473 48C473 34.3 461.7 23 448 23Z" class="" fill="url(#gradient-3)" stroke="#000000" stroke-opacity="1" stroke-width="3"></path><path d="M380 23.95L331.9 48L363.9 64L336.8 77.54L359 99.73L359 215L377 215L377 92.27L367.2 82.47L404.1 64L372.1 48L388 40.05L380 23.95Z" class="" fill="url(#gradient-4)" stroke="#000000" stroke-opacity="1" stroke-width="3"></path><path d="M119 24L119 247L137 247L137 64L119 24Z" class="" fill="url(#gradient-5)" stroke="#000000" stroke-opacity="1" stroke-width="3"></path><path d="M183 55L183 105L199 105L199 266.4L217 257.4L217 105L233 105L233 55L183 55Z" class="" fill="url(#gradient-6)" stroke="#000000" stroke-opacity="1" stroke-width="3"></path><path d="M39 64L39 266.3L48 275.3L57 266.3L57 169L80 169L80 151L57 151L57 137L80 137L80 119L57 119L57 105L80 105L80 87L57 87L57 64L39 64Z" class="" fill="url(#gradient-7)" stroke="#000000" stroke-opacity="1" stroke-width="3"></path><path d="M345 233L345 480C345 500 391 500 391 480L391 233L345 233Z" class="" fill="url(#gradient-8)" stroke="#000000" stroke-opacity="1" stroke-width="3"></path><path d="M448 261C436.5 261 425 268 425 288L425 480C425 500 471 500 471 480L471 288C471 268 459.5 261 448 261Z" class="" fill="url(#gradient-9)" stroke="#000000" stroke-opacity="1" stroke-width="3"></path><path d="M105 265L105 480C105 500 151 500 151 480L151 265L105 265Z" class="" fill="url(#gradient-10)" stroke="#000000" stroke-opacity="1" stroke-width="3"></path><path d="M265 265L265 480C265 500 311 500 311 480L311 265L265 265Z" class="selected" fill="url(#gradient-11)" stroke="#000000" stroke-opacity="1" stroke-width="3"></path><path d="M231 270.6L185 293.6L185 480C185 500 231 500 231 480L231 270.6Z" class="" fill="url(#gradient-12)" stroke="#000000" stroke-opacity="1" stroke-width="3"></path><path d="M25 277.7L25 480C25 500 71 500 71 480L71 277.7L48 300.7L25 277.7Z" class="" fill="url(#gradient-13)" stroke="#000000" stroke-opacity="1" stroke-width="3"></path></g></g><g class="" transform="translate(301,299)" style="touch-action: none;"><g transform="translate(6.4, 6.4) scale(0.8, 0.8) rotate(-360, 128, 128)"><circle cx="128" cy="128" r="128" fill="#000000" fill-opacity="1"></circle><circle stroke="#417505" stroke-opacity="1" fill="#000000" fill-opacity="1" stroke-width="18" cx="128" cy="128" r="101"></circle><path fill="#417505" fill-opacity="1" d="MZ"></path></g></g><g font-family="Arial, Helvetica, sans-serif" font-size="90" font-style="normal" font-weight="normal" text-anchor="middle" class="" transform="translate(410,438)" style="touch-action: none;"><text stroke="rgba(0, 0, 0, 0.005)" stroke-width="22.5"><tspan x="0" y="0">-10</tspan></text><text fill="rgba(65, 117, 5, 1)"><tspan x="0" y="0">-10</tspan></text></g></svg>