<svg xmlns="http://www.w3.org/2000/svg" viewBox="0 0 512 512" style="height: 512px; width: 512px;"><defs><radialGradient id="gradient-2"><stop offset="0%" stop-color="#4a4a4a" stop-opacity="1"></stop><stop offset="100%" stop-color="#9b9b9b" stop-opacity="1"></stop></radialGradient><radialGradient id="gradient-3"><stop offset="0%" stop-color="#f8e71c" stop-opacity="1"></stop><stop offset="100%" stop-color="#f5a623" stop-opacity="1"></stop></radialGradient><linearGradient x1="0" x2="1" y1="0" y2="1" id="gradient-4"><stop offset="0%" stop-color="#000000" stop-opacity="1"></stop><stop offset="100%" stop-color="#d0021b" stop-opacity="1"></stop></linearGradient><linearGradient x1="0" x2="1" y1="1" y2="0" id="gradient-5"><stop offset="0%" stop-color="#d0021b" stop-opacity="1"></stop><stop offset="100%" stop-color="#000000" stop-opacity="1"></stop></linearGradient><radialGradient id="gradient-6"><stop offset="0%" stop-color="#000000" stop-opacity="1"></stop><stop offset="100%" stop-color="#d0021b" stop-opacity="1"></stop></radialGradient><linearGradient x1="0" x2="1" y1="0" y2="1" id="gradient-7"><stop offset="0%" stop-color="#d0021b" stop-opacity="1"></stop><stop offset="100%" stop-color="#000000" stop-opacity="1"></stop></linearGradient><linearGradient x1="0" x2="1" y1="1" y2="0" id="gradient-8"><stop offset="0%" stop-color="#000000" stop-opacity="1"></stop><stop offset="100%" stop-color="#d0021b" stop-opacity="1"></stop></linearGradient><radialGradient id="gradient-9"><stop offset="0%" stop-color="#9b9b9b" stop-opacity="1"></stop><stop offset="100%" stop-color="#000000" stop-opacity="1"></stop></radialGradient><radialGradient id="gradient-10"><stop offset="0%" stop-color="#9b9b9b" stop-opacity="1"></stop><stop offset="100%" stop-color="#c9c9c9" stop-opacity="1"></stop></radialGradient><radialGradient id="gradient-11"><stop offset="0%" stop-color="#9b9b9b" stop-opacity="1"></stop><stop offset="100%" stop-color="#c9c9c9" stop-opacity="1"></stop></radialGradient><radialGradient id="gradient-12"><stop offset="0%" stop-color="#9b9b9b" stop-opacity="1"></stop><stop offset="100%" stop-color="#c9c9c9" stop-opacity="1"></stop></radialGradient><radialGradient id="gradient-13"><stop offset="0%" stop-color="#ffffff" stop-opacity="1"></stop><stop offset="100%" stop-color="#4a4a4a" stop-opacity="1"></stop></radialGradient><radialGradient id="gradient-14"><stop offset="0%" stop-color="#417505" stop-opacity="1"></stop><stop offset="100%" stop-color="#7ed321" stop-opacity="1"></stop></radialGradient><radialGradient id="gradient-15"><stop offset="0%" stop-color="#f8e71c" stop-opacity="1"></stop><stop offset="100%" stop-color="#f5a623" stop-opacity="1"></stop></radialGradient><radialGradient id="gradient-16"><stop offset="0%" stop-color="#7ed321" stop-opacity="1"></stop><stop offset="100%" stop-color="#417505" stop-opacity="1"></stop></radialGradient><radialGradient id="gradient-17"><stop offset="0%" stop-color="#f8e71c" stop-opacity="1"></stop><stop offset="100%" stop-color="#f5a623" stop-opacity="1"></stop></radialGradient><radialGradient id="gradient-18"><stop offset="0%" stop-color="#f8e71c" stop-opacity="1"></stop><stop offset="100%" stop-color="#f5a623" stop-opacity="1"></stop></radialGradient><radialGradient id="gradient-19"><stop offset="0%" stop-color="#f8e71c" stop-opacity="1"></stop><stop offset="100%" stop-color="#f5a623" stop-opacity="1"></stop></radialGradient><radialGradient id="gradient-20"><stop offset="0%" stop-color="#f8e71c" stop-opacity="1"></stop><stop offset="100%" stop-color="#f5a623" stop-opacity="1"></stop></radialGradient><radialGradient id="gradient-21"><stop offset="0%" stop-color="#f8e71c" stop-opacity="1"></stop><stop offset="100%" stop-color="#f5a623" stop-opacity="1"></stop></radialGradient><radialGradient id="gradient-22"><stop offset="0%" stop-color="#f8e71c" stop-opacity="1"></stop><stop offset="100%" stop-color="#f5a623" stop-opacity="1"></stop></radialGradient><radialGradient id="gradient-23"><stop offset="0%" stop-color="#f8e71c" stop-opacity="1"></stop><stop offset="100%" stop-color="#f5a623" stop-opacity="1"></stop></radialGradient><radialGradient id="gradient-24"><stop offset="0%" stop-color="#f8e71c" stop-opacity="1"></stop><stop offset="100%" stop-color="#f5a623" stop-opacity="1"></stop></radialGradient><radialGradient id="gradient-25"><stop offset="0%" stop-color="#f8e71c" stop-opacity="1"></stop><stop offset="100%" stop-color="#f5a623" stop-opacity="1"></stop></radialGradient><radialGradient id="gradient-26"><stop offset="0%" stop-color="#f8e71c" stop-opacity="1"></stop><stop offset="100%" stop-color="#f5a623" stop-opacity="1"></stop></radialGradient><radialGradient id="gradient-27"><stop offset="0%" stop-color="#f8e71c" stop-opacity="1"></stop><stop offset="100%" stop-color="#f5a623" stop-opacity="1"></stop></radialGradient><radialGradient id="gradient-28"><stop offset="0%" stop-color="#f8e71c" stop-opacity="1"></stop><stop offset="100%" stop-color="#f5a623" stop-opacity="1"></stop></radialGradient><radialGradient id="gradient-29"><stop offset="0%" stop-color="#f8e71c" stop-opacity="1"></stop><stop offset="100%" stop-color="#f5a623" stop-opacity="1"></stop></radialGradient><radialGradient id="gradient-30"><stop offset="0%" stop-color="#f8e71c" stop-opacity="1"></stop><stop offset="100%" stop-color="#f5a623" stop-opacity="1"></stop></radialGradient><radialGradient id="gradient-31"><stop offset="0%" stop-color="#f8e71c" stop-opacity="1"></stop><stop offset="100%" stop-color="#f5a623" stop-opacity="1"></stop></radialGradient><radialGradient id="gradient-32"><stop offset="0%" stop-color="#f8e71c" stop-opacity="1"></stop><stop offset="100%" stop-color="#f5a623" stop-opacity="1"></stop></radialGradient><radialGradient id="gradient-33"><stop offset="0%" stop-color="#7ed321" stop-opacity="1"></stop><stop offset="100%" stop-color="#417505" stop-opacity="1"></stop></radialGradient><radialGradient id="gradient-34"><stop offset="0%" stop-color="#f8e71c" stop-opacity="1"></stop><stop offset="100%" stop-color="#f5a623" stop-opacity="1"></stop></radialGradient><radialGradient id="gradient-35"><stop offset="0%" stop-color="#f8e71c" stop-opacity="1"></stop><stop offset="100%" stop-color="#f5a623" stop-opacity="1"></stop></radialGradient><radialGradient id="gradient-36"><stop offset="0%" stop-color="#f8e71c" stop-opacity="1"></stop><stop offset="100%" stop-color="#f5a623" stop-opacity="1"></stop></radialGradient></defs><g class="" transform="translate(-1,0)" style="touch-action: none;"><g><path d="M256 17.12C175.945 17.12 109.04 28.58 109.04 103.414C112.216 149.724 136.905 152.144 156.586 190.939C189.909 256.256 183.148 261.862 200.086 299.609C201.288 302.287 202.356 305.185 203.346 308.219C212.728 310.469 221.908 312.026 230.01 312.192L232.018 308.157L190.781 217.207C167.451 158.013 125.247 135.523 125.478 104.729C125.781 64.252 153.635 35.319 255.321 35.889C360.483 36.476 386.204 63.293 387.403 104.862C388.015 126.069 343.047 162.872 323.083 220.492L275.327 312.152C286.207 311.782 298.911 309.036 311.425 305.474C312.135 303.764 313.112 302.192 313.638 300.514C326.212 260.364 325.682 254.684 357.274 192.757C378.786 154.549 397.992 143.957 402.96 103.413C402.96 28.58 336.055 17.118 256 17.118Z" class="" fill="url(#gradient-2)" stroke="#000000" stroke-opacity="1" stroke-width="3"></path><path d="M252.166 294.857L237.834 324.6C214.814 324.124 181.864 311.5 163.582 305.127C165.388 317.855 178.969 347.592 179.744 363.303L152.152 369.035L180.377 399.615C180.15 424.675 163.332 457.453 156.637 475.053C162.384 474.32 187.694 465.463 194.077 464.898L191.3 494.88L240.674 466.988C240.194 465.624 239.914 464.158 239.914 462.628C239.914 455.67 245.294 449.998 252.164 449.488C259.034 449.998 264.412 455.67 264.412 462.628C264.412 464.16 264.13 465.624 263.654 466.988L313.029 494.881L310.253 464.899C316.637 465.466 341.947 474.321 347.693 475.054C340.999 457.454 324.193 424.674 323.953 399.616L352.177 369.036L324.585 363.304C325.361 347.594 338.945 317.856 340.749 305.128C322.466 311.503 289.519 324.128 266.497 324.601L252.165 294.858Z" class="" fill="url(#gradient-3)" stroke="#000000" stroke-opacity="1" stroke-width="3"></path><path d="M176.209 319.104C191.739 325.319 215.549 333.534 232.403 334.096L227.478 342.636C232.462 344.533 236 349.254 236 354.881C236 362.176 230.02 368.081 222.678 368.081C216.078 368.081 210.646 363.291 209.608 357.031L189.656 361.211C188.956 350.135 180.986 330.774 176.206 319.105Z" class="" fill="url(#gradient-4)" stroke="#000000" stroke-opacity="1" stroke-width="3"></path><path d="M328.122 319.104C323.342 330.774 315.372 350.134 314.672 361.211L294.722 357.031C293.682 363.291 288.25 368.081 281.652 368.081C274.309 368.081 268.329 362.176 268.329 354.881C268.329 349.255 271.867 344.536 276.853 342.638L271.929 334.098C288.783 333.536 312.589 325.32 328.122 319.105Z" class="" fill="url(#gradient-5)" stroke="#000000" stroke-opacity="1" stroke-width="3"></path><path d="M252.167 354.346L263.089 373.276C260.771 374.161 259.173 376.334 259.173 378.951C259.173 382.345 261.946 385.103 265.363 385.103C268.433 385.103 270.94 382.937 271.423 380.026L298.133 385.581L279.946 405.291C278.816 403.751 276.958 402.843 274.896 402.843C271.48 402.843 268.708 405.543 268.708 408.935C268.708 412.327 271.48 415.087 274.894 415.087C275.594 415.087 276.226 414.945 276.852 414.727L279.945 441.485L257.025 431.093C257.252 430.459 257.279 429.833 257.279 429.12C257.279 426.075 255.085 423.62 252.167 423.146C249.251 423.622 247.052 426.076 247.052 429.119C247.052 429.832 247.072 430.454 247.306 431.091L224.388 441.483L227.48 414.726C228.106 414.924 228.74 415.086 229.436 415.086C232.851 415.086 235.623 412.326 235.623 408.933C235.623 405.54 232.853 402.841 229.435 402.841C227.372 402.841 225.515 403.753 224.385 405.291L206.201 385.579L232.908 380.024C233.388 382.936 235.901 385.101 238.971 385.101C242.386 385.101 245.158 382.341 245.158 378.951C245.158 376.331 243.562 374.159 241.244 373.276L252.166 354.346Z" class="selected" fill="url(#gradient-6)" stroke="#000000" stroke-opacity="1" stroke-width="3"></path><path d="M303.097 405.598L303.057 405.648C307.415 405.648 311.319 407.565 313.853 410.548L313.938 410.461C313.958 410.547 313.993 410.605 314.021 410.718C315.839 412.931 316.926 415.701 316.926 418.72C316.926 419.336 316.869 419.92 316.812 420.512C321.332 434.94 325.762 451.062 329.377 459.812C326.644 459.464 312.139 455.876 309.235 455.57L306.455 431.68C305.111 432.133 303.662 432.398 302.163 432.398C294.82 432.398 288.903 426.494 288.903 419.198C288.903 414.408 291.445 410.223 295.28 407.91C295.302 407.888 295.393 407.89 295.393 407.826C295.507 407.713 295.691 407.684 295.835 407.57C296.205 407.344 296.579 407.158 296.97 406.97C298.824 406.1 300.882 405.598 303.095 405.598Z" class="" fill="url(#gradient-7)" stroke="#000000" stroke-opacity="1" stroke-width="3"></path><path d="M201.274 405.648C203.488 405.648 205.544 406.148 207.399 407.023C207.793 407.193 208.166 407.403 208.534 407.621C208.676 407.735 208.837 407.765 208.976 407.878C208.998 407.9 209.089 407.898 209.089 407.962C212.923 410.276 215.466 414.46 215.466 419.252C215.466 426.547 209.55 432.452 202.208 432.452C200.708 432.452 199.258 432.198 197.912 431.736L195.132 455.626C192.229 455.93 177.722 459.519 174.992 459.866C178.607 451.116 183.038 434.996 187.557 420.566C187.442 419.976 187.442 419.393 187.442 418.776C187.442 415.756 188.532 412.986 190.347 410.772C190.367 410.687 190.402 410.629 190.431 410.516L190.517 410.602C193.05 407.62 196.955 405.702 201.313 405.702L201.273 405.65Z" class="" fill="url(#gradient-8)" stroke="#000000" stroke-opacity="1" stroke-width="3"></path></g></g></svg>