<svg xmlns="http://www.w3.org/2000/svg" viewBox="0 0 512 512" style="height: 512px; width: 512px;"><defs><linearGradient x1="0" x2="1" y1="0" y2="1" id="lorc-spiked-collar-gradient-1"><stop offset="0%" stop-color="#d0021b" stop-opacity="1"></stop><stop offset="100%" stop-color="#fa95a1" stop-opacity="1"></stop></linearGradient><radialGradient id="lorc-spiked-collar-gradient-2"><stop offset="0%" stop-color="#b8e986" stop-opacity="1"></stop><stop offset="100%" stop-color="#7ed321" stop-opacity="1"></stop></radialGradient><linearGradient x1="0" x2="1" y1="0" y2="1" id="lorc-spiked-collar-gradient-3"><stop offset="0%" stop-color="#417505" stop-opacity="1"></stop><stop offset="100%" stop-color="#254401" stop-opacity="1"></stop></linearGradient><linearGradient x1="0" x2="0" y1="0" y2="1" id="lorc-spiked-collar-gradient-5"><stop offset="0%" stop-color="#c9af88" stop-opacity="1"></stop><stop offset="100%" stop-color="#79664d" stop-opacity="1"></stop></linearGradient><linearGradient x1="0" x2="0" y1="0" y2="1" id="lorc-spiked-collar-gradient-6"><stop offset="0%" stop-color="#f8e71c" stop-opacity="1"></stop><stop offset="100%" stop-color="#f5a623" stop-opacity="1"></stop></linearGradient><linearGradient x1="0" x2="0" y1="0" y2="1" id="lorc-spiked-collar-gradient-7"><stop offset="0%" stop-color="#f8e71c" stop-opacity="1"></stop><stop offset="100%" stop-color="#f5a623" stop-opacity="1"></stop></linearGradient><linearGradient x1="0" x2="0" y1="0" y2="1" id="lorc-spiked-collar-gradient-8"><stop offset="0%" stop-color="#f8e71c" stop-opacity="1"></stop><stop offset="100%" stop-color="#f5a623" stop-opacity="1"></stop></linearGradient><radialGradient id="lorc-spiked-collar-gradient-9"><stop offset="0%" stop-color="#f8e71c" stop-opacity="1"></stop><stop offset="100%" stop-color="#f5a623" stop-opacity="1"></stop></radialGradient><radialGradient id="lorc-spiked-collar-gradient-17"><stop offset="0%" stop-color="#ffe0af" stop-opacity="1"></stop><stop offset="100%" stop-color="#e2c093" stop-opacity="1"></stop></radialGradient><radialGradient id="lorc-spiked-collar-gradient-18"><stop offset="0%" stop-color="#d0021b" stop-opacity="1"></stop><stop offset="100%" stop-color="#a50215" stop-opacity="1"></stop></radialGradient><radialGradient id="lorc-spiked-collar-gradient-19"><stop offset="0%" stop-color="#ffe0af" stop-opacity="1"></stop><stop offset="100%" stop-color="#e2c093" stop-opacity="1"></stop></radialGradient><radialGradient id="lorc-spiked-collar-gradient-20"><stop offset="0%" stop-color="#ffe0af" stop-opacity="1"></stop><stop offset="100%" stop-color="#e2c093" stop-opacity="1"></stop></radialGradient><radialGradient id="lorc-spiked-collar-gradient-22"><stop offset="0%" stop-color="#fc88fc" stop-opacity="1"></stop><stop offset="100%" stop-color="#bd10e0" stop-opacity="1"></stop></radialGradient><radialGradient id="lorc-spiked-collar-gradient-25"><stop offset="0%" stop-color="#9b9b9b" stop-opacity="1"></stop><stop offset="100%" stop-color="#4a4a4a" stop-opacity="1"></stop></radialGradient><radialGradient id="lorc-spiked-collar-gradient-26"><stop offset="0%" stop-color="#9b9b9b" stop-opacity="1"></stop><stop offset="100%" stop-color="#4a4a4a" stop-opacity="1"></stop></radialGradient><radialGradient id="lorc-spiked-collar-gradient-27"><stop offset="0%" stop-color="#9b9b9b" stop-opacity="1"></stop><stop offset="100%" stop-color="#4a4a4a" stop-opacity="1"></stop></radialGradient><radialGradient id="lorc-spiked-collar-gradient-28"><stop offset="0%" stop-color="#9b9b9b" stop-opacity="1"></stop><stop offset="100%" stop-color="#4a4a4a" stop-opacity="1"></stop></radialGradient><radialGradient id="lorc-spiked-collar-gradient-29"><stop offset="0%" stop-color="#9b9b9b" stop-opacity="1"></stop><stop offset="100%" stop-color="#4a4a4a" stop-opacity="1"></stop></radialGradient><radialGradient id="lorc-spiked-collar-gradient-30"><stop offset="0%" stop-color="#9b9b9b" stop-opacity="1"></stop><stop offset="100%" stop-color="#4a4a4a" stop-opacity="1"></stop></radialGradient><radialGradient id="lorc-spiked-collar-gradient-31"><stop offset="0%" stop-color="#9b9b9b" stop-opacity="1"></stop><stop offset="100%" stop-color="#4a4a4a" stop-opacity="1"></stop></radialGradient><radialGradient id="lorc-spiked-collar-gradient-32"><stop offset="0%" stop-color="#9b9b9b" stop-opacity="1"></stop><stop offset="100%" stop-color="#4a4a4a" stop-opacity="1"></stop></radialGradient><radialGradient id="lorc-spiked-collar-gradient-33"><stop offset="0%" stop-color="#9b9b9b" stop-opacity="1"></stop><stop offset="100%" stop-color="#4a4a4a" stop-opacity="1"></stop></radialGradient><radialGradient id="lorc-spiked-collar-gradient-34"><stop offset="0%" stop-color="#9b9b9b" stop-opacity="1"></stop><stop offset="100%" stop-color="#4a4a4a" stop-opacity="1"></stop></radialGradient><radialGradient id="lorc-spiked-collar-gradient-35"><stop offset="0%" stop-color="#9b9b9b" stop-opacity="1"></stop><stop offset="100%" stop-color="#4a4a4a" stop-opacity="1"></stop></radialGradient><radialGradient id="lorc-spiked-collar-gradient-36"><stop offset="0%" stop-color="#9b9b9b" stop-opacity="1"></stop><stop offset="100%" stop-color="#4a4a4a" stop-opacity="1"></stop></radialGradient><radialGradient id="lorc-spiked-collar-gradient-37"><stop offset="0%" stop-color="#9b9b9b" stop-opacity="1"></stop><stop offset="100%" stop-color="#4a4a4a" stop-opacity="1"></stop></radialGradient></defs><g class="" transform="translate(0,0)" style=""><g><path d="M139.54 20.12L158.816 116.148C145.998 127.554 136.124 142.342 129.396 159.388L50.606 150.75L115.059 214.12C112.473 237.477 115.089 263.163 123.317 288.777L81.284 342.992L149.302 341.972C164.422 364.152 183.01 381.849 202.922 393.934L213.602 484.23L254.534 415.564C272.029 420.494 289.66 421.504 306.417 418.072L370.047 491.729L350.79 395.809C363.645 384.384 373.54 369.561 380.277 352.469L458.979 361.097L390.804 294.067C390.85 273.542 387.529 251.92 380.634 230.333L428.298 168.853L351.133 170.011C338.369 151.394 323.418 135.631 307.289 123.243L295.983 27.616L255.019 96.336C237.556 91.428 219.959 90.426 203.233 93.851L139.54 20.12Z" class="" fill="url(#lorc-spiked-collar-gradient-2)" stroke="#000000" stroke-opacity="1" stroke-width="2"></path><path d="M241.338 113.57C285.76 113.54 334.138 147.637 361.028 202.652C394.448 271.032 382.378 346.577 334.528 374.547C361.396 335.709 363.293 273.229 335.146 215.641C307 158.054 256.806 121.711 210.033 119.827C219.993 115.603 230.548 113.579 241.338 113.571Z" class="selected" fill="url(#lorc-spiked-collar-gradient-3)" stroke="#000000" stroke-opacity="1" stroke-width="2"></path><path d="M210.355 140.55C251.373 140.488 295.965 171.944 320.832 222.824C352.662 287.951 339.928 359.834 292.326 383.724C291.338 384.218 290.34 384.68 289.338 385.127C246.323 382.724 200.523 349.153 174.638 296.189C148.751 243.226 150.156 185.965 174.338 149.839C175.298 149.301 176.265 148.777 177.254 148.279C187.667 143.055 198.871 140.567 210.354 140.549Z" class="" fill="#000000" stroke="#000000" stroke-opacity="1" stroke-width="2" fill-opacity="1"></path></g></g></svg>