<svg xmlns="http://www.w3.org/2000/svg" viewBox="0 0 512 512" style="height: 512px; width: 512px;"><defs><linearGradient x1="0" x2="1" y1="0" y2="1" id="lorc-crown-coin-gradient-1"><stop offset="0%" stop-color="#d0021b" stop-opacity="1"></stop><stop offset="100%" stop-color="#fa95a1" stop-opacity="1"></stop></linearGradient><radialGradient id="lorc-crown-coin-gradient-2"><stop offset="0%" stop-color="#8b7500" stop-opacity="1"></stop><stop offset="100%" stop-color="#c4a504" stop-opacity="1"></stop></radialGradient><radialGradient id="lorc-crown-coin-gradient-3"><stop offset="0%" stop-color="#f8e71c" stop-opacity="1"></stop><stop offset="100%" stop-color="#f5a623" stop-opacity="1"></stop></radialGradient><radialGradient id="lorc-crown-coin-gradient-4"><stop offset="0%" stop-color="#f8e71c" stop-opacity="1"></stop><stop offset="100%" stop-color="#f5a623" stop-opacity="1"></stop></radialGradient><radialGradient id="lorc-crown-coin-gradient-5"><stop offset="0%" stop-color="#f8e71c" stop-opacity="1"></stop><stop offset="100%" stop-color="#f5a623" stop-opacity="1"></stop></radialGradient><radialGradient id="lorc-crown-coin-gradient-6"><stop offset="0%" stop-color="#f8e71c" stop-opacity="1"></stop><stop offset="100%" stop-color="#f5a623" stop-opacity="1"></stop></radialGradient><radialGradient id="lorc-crown-coin-gradient-7"><stop offset="0%" stop-color="#f8e71c" stop-opacity="1"></stop><stop offset="100%" stop-color="#f5a623" stop-opacity="1"></stop></radialGradient><radialGradient id="lorc-crown-coin-gradient-8"><stop offset="0%" stop-color="#f8e71c" stop-opacity="1"></stop><stop offset="100%" stop-color="#f5a623" stop-opacity="1"></stop></radialGradient><radialGradient id="lorc-crown-coin-gradient-9"><stop offset="0%" stop-color="#f8e71c" stop-opacity="1"></stop><stop offset="100%" stop-color="#f5a623" stop-opacity="1"></stop></radialGradient><radialGradient id="lorc-crown-coin-gradient-10"><stop offset="0%" stop-color="#f8e71c" stop-opacity="1"></stop><stop offset="100%" stop-color="#f5a623" stop-opacity="1"></stop></radialGradient><radialGradient id="lorc-crown-coin-gradient-11"><stop offset="0%" stop-color="#f8e71c" stop-opacity="1"></stop><stop offset="100%" stop-color="#f5a623" stop-opacity="1"></stop></radialGradient><radialGradient id="lorc-crown-coin-gradient-12"><stop offset="0%" stop-color="#f8e71c" stop-opacity="1"></stop><stop offset="100%" stop-color="#f5a623" stop-opacity="1"></stop></radialGradient><radialGradient id="lorc-crown-coin-gradient-13"><stop offset="0%" stop-color="#f8e71c" stop-opacity="1"></stop><stop offset="100%" stop-color="#f5a623" stop-opacity="1"></stop></radialGradient><radialGradient id="lorc-crown-coin-gradient-14"><stop offset="0%" stop-color="#f8e71c" stop-opacity="1"></stop><stop offset="100%" stop-color="#f5a623" stop-opacity="1"></stop></radialGradient><radialGradient id="lorc-crown-coin-gradient-15"><stop offset="0%" stop-color="#f8e71c" stop-opacity="1"></stop><stop offset="100%" stop-color="#f5a623" stop-opacity="1"></stop></radialGradient><radialGradient id="lorc-crown-coin-gradient-16"><stop offset="0%" stop-color="#f8e71c" stop-opacity="1"></stop><stop offset="100%" stop-color="#f5a623" stop-opacity="1"></stop></radialGradient><radialGradient id="lorc-crown-coin-gradient-17"><stop offset="0%" stop-color="#f8e71c" stop-opacity="1"></stop><stop offset="100%" stop-color="#f5a623" stop-opacity="1"></stop></radialGradient><radialGradient id="lorc-crown-coin-gradient-18"><stop offset="0%" stop-color="#f8e71c" stop-opacity="1"></stop><stop offset="100%" stop-color="#f5a623" stop-opacity="1"></stop></radialGradient><radialGradient id="lorc-crown-coin-gradient-19"><stop offset="0%" stop-color="#f8e71c" stop-opacity="1"></stop><stop offset="100%" stop-color="#f5a623" stop-opacity="1"></stop></radialGradient><radialGradient id="lorc-crown-coin-gradient-20"><stop offset="0%" stop-color="#f8e71c" stop-opacity="1"></stop><stop offset="100%" stop-color="#f5a623" stop-opacity="1"></stop></radialGradient><radialGradient id="lorc-crown-coin-gradient-21"><stop offset="0%" stop-color="#f8e71c" stop-opacity="1"></stop><stop offset="100%" stop-color="#f5a623" stop-opacity="1"></stop></radialGradient><radialGradient id="lorc-crown-coin-gradient-22"><stop offset="0%" stop-color="#f8e71c" stop-opacity="1"></stop><stop offset="100%" stop-color="#f5a623" stop-opacity="1"></stop></radialGradient><radialGradient id="lorc-crown-coin-gradient-23"><stop offset="0%" stop-color="#f8e71c" stop-opacity="1"></stop><stop offset="100%" stop-color="#f5a623" stop-opacity="1"></stop></radialGradient><radialGradient id="lorc-crown-coin-gradient-24"><stop offset="0%" stop-color="#f8e71c" stop-opacity="1"></stop><stop offset="100%" stop-color="#f5a623" stop-opacity="1"></stop></radialGradient><radialGradient id="lorc-crown-coin-gradient-25"><stop offset="0%" stop-color="#8b7500" stop-opacity="1"></stop><stop offset="100%" stop-color="#c4a504" stop-opacity="1"></stop></radialGradient><radialGradient id="lorc-crown-coin-gradient-26"><stop offset="0%" stop-color="#8b7500" stop-opacity="1"></stop><stop offset="100%" stop-color="#c4a504" stop-opacity="1"></stop></radialGradient><radialGradient id="lorc-crown-coin-gradient-27"><stop offset="0%" stop-color="#f8e71c" stop-opacity="1"></stop><stop offset="100%" stop-color="#f5a623" stop-opacity="1"></stop></radialGradient><radialGradient id="lorc-crown-coin-gradient-28"><stop offset="0%" stop-color="#f8e71c" stop-opacity="1"></stop><stop offset="100%" stop-color="#f5a623" stop-opacity="1"></stop></radialGradient><radialGradient id="lorc-crown-coin-gradient-29"><stop offset="0%" stop-color="#f8e71c" stop-opacity="1"></stop><stop offset="100%" stop-color="#f5a623" stop-opacity="1"></stop></radialGradient><radialGradient id="lorc-crown-coin-gradient-30"><stop offset="0%" stop-color="#f8e71c" stop-opacity="1"></stop><stop offset="100%" stop-color="#f5a623" stop-opacity="1"></stop></radialGradient><radialGradient id="lorc-crown-coin-gradient-31"><stop offset="0%" stop-color="#8b7500" stop-opacity="1"></stop><stop offset="100%" stop-color="#c4a504" stop-opacity="1"></stop></radialGradient><radialGradient id="lorc-crown-coin-gradient-32"><stop offset="0%" stop-color="#f8e71c" stop-opacity="1"></stop><stop offset="100%" stop-color="#f5a623" stop-opacity="1"></stop></radialGradient><radialGradient id="lorc-crown-coin-gradient-33"><stop offset="0%" stop-color="#8b7500" stop-opacity="1"></stop><stop offset="100%" stop-color="#c4a504" stop-opacity="1"></stop></radialGradient><radialGradient id="lorc-crown-coin-gradient-34"><stop offset="0%" stop-color="#f8e71c" stop-opacity="1"></stop><stop offset="100%" stop-color="#f5a623" stop-opacity="1"></stop></radialGradient><radialGradient id="lorc-crown-coin-gradient-35"><stop offset="0%" stop-color="#f8e71c" stop-opacity="1"></stop><stop offset="100%" stop-color="#f5a623" stop-opacity="1"></stop></radialGradient><radialGradient id="lorc-crown-coin-gradient-36"><stop offset="0%" stop-color="#f8e71c" stop-opacity="1"></stop><stop offset="100%" stop-color="#f5a623" stop-opacity="1"></stop></radialGradient><radialGradient id="lorc-crown-coin-gradient-37"><stop offset="0%" stop-color="#f8e71c" stop-opacity="1"></stop><stop offset="100%" stop-color="#f5a623" stop-opacity="1"></stop></radialGradient><linearGradient x1="0" x2="1" y1="0" y2="1" id="lorc-crown-coin-gradient-38"><stop offset="0%" stop-color="#8b7500" stop-opacity="1"></stop><stop offset="100%" stop-color="#c4a504" stop-opacity="1"></stop></linearGradient><linearGradient x1="0" x2="1" y1="0" y2="1" id="lorc-crown-coin-gradient-39"><stop offset="0%" stop-color="#8b7500" stop-opacity="1"></stop><stop offset="100%" stop-color="#c4a504" stop-opacity="1"></stop></linearGradient><linearGradient x1="0" x2="1" y1="0" y2="1" id="lorc-crown-coin-gradient-40"><stop offset="0%" stop-color="#8b7500" stop-opacity="1"></stop><stop offset="100%" stop-color="#c4a504" stop-opacity="1"></stop></linearGradient><linearGradient x1="0" x2="1" y1="0" y2="1" id="lorc-crown-coin-gradient-41"><stop offset="0%" stop-color="#8b7500" stop-opacity="1"></stop><stop offset="100%" stop-color="#c4a504" stop-opacity="1"></stop></linearGradient><linearGradient x1="0" x2="1" y1="0" y2="1" id="lorc-crown-coin-gradient-42"><stop offset="0%" stop-color="#8b7500" stop-opacity="1"></stop><stop offset="100%" stop-color="#c4a504" stop-opacity="1"></stop></linearGradient><linearGradient x1="0" x2="1" y1="0" y2="1" id="lorc-crown-coin-gradient-43"><stop offset="0%" stop-color="#8b7500" stop-opacity="1"></stop><stop offset="100%" stop-color="#c4a504" stop-opacity="1"></stop></linearGradient><linearGradient x1="0" x2="1" y1="0" y2="1" id="lorc-crown-coin-gradient-44"><stop offset="0%" stop-color="#8b7500" stop-opacity="1"></stop><stop offset="100%" stop-color="#c4a504" stop-opacity="1"></stop></linearGradient><linearGradient x1="0" x2="1" y1="0" y2="1" id="lorc-crown-coin-gradient-45"><stop offset="0%" stop-color="#8b7500" stop-opacity="1"></stop><stop offset="100%" stop-color="#c4a504" stop-opacity="1"></stop></linearGradient><linearGradient x1="0" x2="1" y1="0" y2="1" id="lorc-crown-coin-gradient-46"><stop offset="0%" stop-color="#8b7500" stop-opacity="1"></stop><stop offset="100%" stop-color="#c4a504" stop-opacity="1"></stop></linearGradient></defs><g class="" transform="translate(0,0)" style=""><g><path d="M256 68.8C190.1 68.8 130.8 87.4 88.35 116.7C45.85 146 20.65 185.6 20.65 228.6C20.65 271.6 45.85 311.1 88.35 340.5C130.7 369.8 190.1 388.4 256 388.4C321.8 388.4 381.3 369.8 423.8 340.5C466.1 311.1 491.4 271.6 491.4 228.6C491.4 185.6 466.1 146 423.8 116.7C381.3 87.39 321.9 68.8 256 68.8Z" class="selected" fill="url(#lorc-crown-coin-gradient-2)" stroke="#000000" stroke-opacity="1" stroke-width="2"></path><path d="M259 90L258.8 108.7C252.8 108.6 246.8 108.9 240.8 109.2L239.6 90.5C246.1 90.15 252.5 90 259 90Z" class="" fill="url(#lorc-crown-coin-gradient-3)" stroke="#000000" stroke-opacity="1" stroke-width="2"></path><path d="M278 90.6C284.4 90.97 290.9 91.53 297.3 92.39L295 110.9C289.1 109.9 283.7 109.8 277.1 109.2Z" class="" fill="url(#lorc-crown-coin-gradient-4)" stroke="#000000" stroke-opacity="1" stroke-width="2"></path><path d="M220.4 92.2L222.7 110.8C216.7 111.4 210.7 112.5 204.7 113.5L201.4 95.1C208 93.89 214.9 92.97 220.4 92.2Z" class="" fill="url(#lorc-crown-coin-gradient-5)" stroke="#000000" stroke-opacity="1" stroke-width="2"></path><path d="M316.5 95.39C322.8 96.67 329.1 97.96 335.3 99.8L330.5 117.8C324.7 116.3 318.7 115 312.8 113.9Z" class="" fill="url(#lorc-crown-coin-gradient-6)" stroke="#000000" stroke-opacity="1" stroke-width="2"></path><path d="M187 117.3C181.1 118.9 175 120.7 169.7 122.4L163.4 104.7C169.4 102.8 176.7 100.5 182.7 98.87C184.3 104.9 185.6 111.4 187 117.3Z" class="" fill="url(#lorc-crown-coin-gradient-7)" stroke="#000000" stroke-opacity="1" stroke-width="2"></path><path d="M353.7 105.4C359.8 107.5 366 109.7 371.9 112.3L364.5 129.5C359 127 353.3 125.1 347.7 123Z" class="" fill="url(#lorc-crown-coin-gradient-8)" stroke="#000000" stroke-opacity="1" stroke-width="2"></path><path d="M145.7 111.5L153 128.6C146.9 131.4 142.2 133.4 136.8 136.3L128.1 119.7C134.5 116.2 139.3 114.2 145.7 111.5Z" class="" fill="url(#lorc-crown-coin-gradient-9)" stroke="#000000" stroke-opacity="1" stroke-width="2"></path><path d="M389.3 120.7L389.4 120.8C395.3 124.1 401.4 127.5 406.2 130.8L395.9 146.4C391 143.1 385.9 140.1 380.7 137.3L380.6 137.2C383.7 131.8 386.4 126.2 389.3 120.7Z" class="" fill="url(#lorc-crown-coin-gradient-10)" stroke="#000000" stroke-opacity="1" stroke-width="2"></path><path d="M111.3 129.5C114.6 134.8 117.9 140 121.4 145.2C116.4 148.4 111.7 151.9 107.1 155.6L95.35 141.1C101.9 134.1 108.2 130.8 111.3 129.5Z" class="" fill="url(#lorc-crown-coin-gradient-11)" stroke="#000000" stroke-opacity="1" stroke-width="2"></path><path d="M422 142.6C427 147 432.1 151.2 436.5 156.3L422.7 168.9C418.4 164.6 414.1 160.2 410 156.9Z" class="" fill="url(#lorc-crown-coin-gradient-12)" stroke="#000000" stroke-opacity="1" stroke-width="2"></path><path d="M94.25 167.5C90.16 171.9 86.23 176.7 83.25 180.9L68.05 170C72.85 163.9 76.13 159.3 80.95 154.5C84.57 158.4 89.96 163.4 94.25 167.5Z" class="" fill="url(#lorc-crown-coin-gradient-13)" stroke="#000000" stroke-opacity="1" stroke-width="2"></path><path d="M266.5 158.8C279.9 182.5 291.6 207.4 303.8 231.8L266.5 187.7L239.1 220L223.4 209.8C237.8 192.8 252.1 175.8 266.5 158.8Z" class="" fill="url(#lorc-crown-coin-gradient-14)" stroke="#000000" stroke-opacity="1" stroke-width="2"></path><path d="M124.8 170.6C158.6 187.6 190.8 211.1 222.8 231.7L154.5 203.3L180.9 288.7L266.5 295L352.4 288.7L343 308.1L266.5 313.7L166.9 306.4Z" class="" fill="url(#lorc-crown-coin-gradient-15)" stroke="#000000" stroke-opacity="1" stroke-width="2"></path><path d="M409 170.7C391.2 209.2 372.4 247.4 353.9 285.6L379.4 203.2L322.2 226.8L313.7 210Z" class="" fill="url(#lorc-crown-coin-gradient-16)" stroke="#000000" stroke-opacity="1" stroke-width="2"></path><path d="M448.9 172C452.6 177.7 456 184 458.8 189.6L441.8 197.4C439.5 192.1 436.4 187.3 433.5 182.4Z" class="" fill="url(#lorc-crown-coin-gradient-17)" stroke="#000000" stroke-opacity="1" stroke-width="2"></path><path d="M57.75 187.7L74.75 195.5C72.26 200.6 70.57 206 69.15 211.5L51.18 206.7C52.93 198.8 54.74 193.9 57.75 187.7Z" class="" fill="url(#lorc-crown-coin-gradient-18)" stroke="#000000" stroke-opacity="1" stroke-width="2"></path><path d="M465.1 209.3C466.2 216.5 467.2 223.3 467.2 230L448.5 229.7C448.1 224 447.9 218.1 446.8 213.3C452.9 212 459 210.6 465.1 209.3Z" class="" fill="url(#lorc-crown-coin-gradient-19)" stroke="#000000" stroke-opacity="1" stroke-width="2"></path><path d="M67.05 227.9C67.15 233.7 67.74 239.4 68.65 244.3L50.35 248.2C49.46 241.2 48.69 233.9 48.65 227.5C53.15 227.6 61.4 227.8 67.05 227.9Z" class="" fill="url(#lorc-crown-coin-gradient-20)" stroke="#000000" stroke-opacity="1" stroke-width="2"></path><path d="M446.6 246.4L464.8 250.3C463.3 257.2 460.7 264.4 458.2 269.9L441.2 262.1C443.5 256.6 445.3 251.2 446.6 246.4Z" class="" fill="url(#lorc-crown-coin-gradient-21)" stroke="#000000" stroke-opacity="1" stroke-width="2"></path><path d="M73.55 260.5C76.03 265.7 78.75 270.8 81.55 275.3L66.05 285.7C61.86 279.3 58.97 273.7 55.95 267.7C61.35 265.2 67.58 262.7 73.55 260.5Z" class="" fill="url(#lorc-crown-coin-gradient-22)" stroke="#000000" stroke-opacity="1" stroke-width="2"></path><path d="M432.7 277L448.2 287.5C444.3 293.2 439.6 298.9 435.7 303.3C430.9 298.7 426.7 294.7 422 290.4L422 290.3C426.1 285.8 429.8 281.1 432.7 277Z" class="" fill="url(#lorc-crown-coin-gradient-23)" stroke="#000000" stroke-opacity="1" stroke-width="2"></path><path d="M104.7 301L92.75 315.3C87.54 311 82.35 305.9 78.25 301.5L92.05 288.9C96.4 293 100.7 297.7 104.7 301Z" class="" fill="url(#lorc-crown-coin-gradient-24)" stroke="#000000" stroke-opacity="1" stroke-width="2"></path><path d="M21.55 297.5C23.25 310.4 27.15 322.8 33.05 334.6L33.05 314.3C28.85 308.9 25.05 303.3 21.55 297.5Z" class="" fill="url(#lorc-crown-coin-gradient-25)" stroke="#000000" stroke-opacity="1" stroke-width="2"></path><path d="M490.4 297.5C486 305 480.8 312.2 475.1 319L475.1 341.7C483.2 327.7 488.4 312.9 490.4 297.5Z" class="" fill="url(#lorc-crown-coin-gradient-26)" stroke="#000000" stroke-opacity="1" stroke-width="2"></path><path d="M409.3 302.3L421 316.8C414.9 321.7 411.1 324.5 405.2 328.4L394.9 312.8C399.9 309.6 404.6 306 409.3 302.3Z" class="" fill="url(#lorc-crown-coin-gradient-27)" stroke="#000000" stroke-opacity="1" stroke-width="2"></path><path d="M118.8 311.6C123.7 315 128.9 318 134.1 320.9L125.1 337.3C119.3 334.3 113.9 330.6 108.4 327.2Z" class="" fill="url(#lorc-crown-coin-gradient-28)" stroke="#000000" stroke-opacity="1" stroke-width="2"></path><path d="M379.6 321.8L388.3 338.4C382.6 341.5 376.8 344.1 370.8 346.7L363.4 329.5C369.1 327.2 374.9 324.3 379.6 321.8Z" class="" fill="url(#lorc-crown-coin-gradient-29)" stroke="#000000" stroke-opacity="1" stroke-width="2"></path><path d="M150 328.7C155.4 331.2 161.2 333 166.8 335.2L160.8 352.9C154.7 350.9 148.7 348.3 142.7 345.9Z" class="" fill="url(#lorc-crown-coin-gradient-30)" stroke="#000000" stroke-opacity="1" stroke-width="2"></path><path d="M51.75 334.9L51.75 362.7C56.85 368.6 62.45 374.4 68.55 379.8L68.55 349.2C62.65 344.6 57.05 339.9 51.75 334.9Z" class="" fill="url(#lorc-crown-coin-gradient-31)" stroke="#000000" stroke-opacity="1" stroke-width="2"></path><path d="M346.6 335.9L352.7 353.6C346.4 355.7 339.6 357.5 334.1 359.1L329.3 341C335.5 339.6 341.2 337.4 346.6 335.9Z" class="" fill="url(#lorc-crown-coin-gradient-32)" stroke="#000000" stroke-opacity="1" stroke-width="2"></path><path d="M456.4 338.4C451.1 343.1 445.6 347.7 439.7 352L439.7 383.1C445.7 378 451.3 372.6 456.4 367Z" class="" fill="url(#lorc-crown-coin-gradient-33)" stroke="#000000" stroke-opacity="1" stroke-width="2"></path><path d="M184 340.5C189.8 342 195.7 343.3 201.6 344.5L198.1 362.9C191.7 361.7 185.5 360.1 179.3 358.5Z" class="" fill="url(#lorc-crown-coin-gradient-34)" stroke="#000000" stroke-opacity="1" stroke-width="2"></path><path d="M311.7 344.9L315.3 363.3C308.7 364.4 301.9 365.6 296.2 366.2L293.9 347.7C300.3 346.6 305.9 345.7 311.7 344.9Z" class="" fill="url(#lorc-crown-coin-gradient-35)" stroke="#000000" stroke-opacity="1" stroke-width="2"></path><path d="M219.5 347.4C225.5 348.2 231.5 348.8 237.6 349.2L236.3 367.8C229.9 367.4 223.5 366.8 217.1 366Z" class="" fill="url(#lorc-crown-coin-gradient-36)" stroke="#000000" stroke-opacity="1" stroke-width="2"></path><path d="M275.9 349.3L276.9 368C270.1 368.5 262.6 368.8 255.5 368.5L255.6 349.9C262.4 349.9 269.1 349.7 275.9 349.3Z" class="" fill="url(#lorc-crown-coin-gradient-37)" stroke="#000000" stroke-opacity="1" stroke-width="2"></path><path d="M87.25 362.1L87.25 394.6C93.65 399.1 100.8 403.5 106.7 406.8L106.7 373.1C99.95 369.7 93.45 366 87.25 362.1Z" class="" fill="url(#lorc-crown-coin-gradient-38)" stroke="#000000" stroke-opacity="1" stroke-width="2"></path><path d="M421 364.4C414.7 368.2 408.2 371.7 401.4 375L401.4 408.9C408.3 405.2 414.8 401.3 421 397.2Z" class="" fill="url(#lorc-crown-coin-gradient-39)" stroke="#000000" stroke-opacity="1" stroke-width="2"></path><path d="M125.4 381.8L125.4 416.3C132.1 419.3 139.1 422.2 146.3 424.8L146.3 389.7C139.2 387.3 132.2 384.7 125.4 381.8Z" class="" fill="url(#lorc-crown-coin-gradient-40)" stroke="#000000" stroke-opacity="1" stroke-width="2"></path><path d="M382.7 383.4C375.9 386.1 368.9 388.6 361.8 390.9L361.8 426.1C369 423.6 376 420.9 382.7 418Z" class="" fill="url(#lorc-crown-coin-gradient-41)" stroke="#000000" stroke-opacity="1" stroke-width="2"></path><path d="M165 395.3L165 430.8C171.6 432.7 178.4 434.4 185.3 435.9L185.3 400.1C178.4 398.7 171.6 397.1 165 395.3Z" class="" fill="url(#lorc-crown-coin-gradient-42)" stroke="#000000" stroke-opacity="1" stroke-width="2"></path><path d="M343.1 396.3C336.5 398 329.7 399.5 322.8 400.8L322.8 436.6C329.7 435.2 336.5 433.7 343.1 431.9Z" class="" fill="url(#lorc-crown-coin-gradient-43)" stroke="#000000" stroke-opacity="1" stroke-width="2"></path><path d="M204 403.3L204 439.3C210.8 440.4 217.8 441.2 224.9 441.9L224.9 405.7C217.8 405.1 210.8 404.3 204 403.3Z" class="" fill="url(#lorc-crown-coin-gradient-44)" stroke="#000000" stroke-opacity="1" stroke-width="2"></path><path d="M304.3 403.8C296.9 404.8 289.5 405.6 281.9 406.1L281.9 442.3C289.5 441.7 296.9 440.9 304.3 439.9L304.3 403.8Z" class="" fill="url(#lorc-crown-coin-gradient-45)" stroke="#000000" stroke-opacity="1" stroke-width="2"></path><path d="M243.6 406.8L243.6 443C250.6 443.3 256.1 443.2 263.1 443.2L263.1 407C256.6 407 249.3 407.1 243.6 406.8Z" class="" fill="url(#lorc-crown-coin-gradient-46)" stroke="#000000" stroke-opacity="1" stroke-width="2"></path></g></g></svg>