<svg xmlns="http://www.w3.org/2000/svg" viewBox="0 0 512 512" style="height: 512px; width: 512px;"><defs><linearGradient x1="0" x2="1" y1="0" y2="1" id="delapouite-feather-necklace-gradient-1"><stop offset="0%" stop-color="#d0021b" stop-opacity="1"></stop><stop offset="100%" stop-color="#fa95a1" stop-opacity="1"></stop></linearGradient><radialGradient id="delapouite-feather-necklace-gradient-2"><stop offset="0%" stop-color="#fc88fc" stop-opacity="1"></stop><stop offset="100%" stop-color="#bd10e0" stop-opacity="1"></stop></radialGradient><linearGradient x1="0" x2="1" y1="1" y2="0" id="delapouite-feather-necklace-gradient-3"><stop offset="0%" stop-color="#9b9b9b" stop-opacity="1"></stop><stop offset="100%" stop-color="#4a4a4a" stop-opacity="1"></stop></linearGradient><radialGradient id="delapouite-feather-necklace-gradient-4"><stop offset="0%" stop-color="#9b9b9b" stop-opacity="1"></stop><stop offset="100%" stop-color="#4a4a4a" stop-opacity="1"></stop></radialGradient><radialGradient id="delapouite-feather-necklace-gradient-5"><stop offset="0%" stop-color="#ffffff" stop-opacity="1"></stop><stop offset="100%" stop-color="#faf398" stop-opacity="1"></stop></radialGradient><radialGradient id="delapouite-feather-necklace-gradient-6"><stop offset="0%" stop-color="#ffffff" stop-opacity="1"></stop><stop offset="100%" stop-color="#faf398" stop-opacity="1"></stop></radialGradient><radialGradient id="delapouite-feather-necklace-gradient-7"><stop offset="0%" stop-color="#48baff" stop-opacity="1"></stop><stop offset="100%" stop-color="#4a90e2" stop-opacity="1"></stop></radialGradient><radialGradient id="delapouite-feather-necklace-gradient-8"><stop offset="0%" stop-color="#48baff" stop-opacity="1"></stop><stop offset="100%" stop-color="#4a90e2" stop-opacity="1"></stop></radialGradient><radialGradient id="delapouite-feather-necklace-gradient-9"><stop offset="0%" stop-color="#b57204" stop-opacity="1"></stop><stop offset="100%" stop-color="#8b572a" stop-opacity="1"></stop></radialGradient><radialGradient id="delapouite-feather-necklace-gradient-10"><stop offset="0%" stop-color="#ff7b00" stop-opacity="1"></stop><stop offset="100%" stop-color="#b87333" stop-opacity="1"></stop></radialGradient><radialGradient id="delapouite-feather-necklace-gradient-11"><stop offset="0%" stop-color="#6c576d" stop-opacity="1"></stop><stop offset="100%" stop-color="#312832" stop-opacity="1"></stop></radialGradient><radialGradient id="delapouite-feather-necklace-gradient-12"><stop offset="0%" stop-color="#4a4a4a" stop-opacity="1"></stop><stop offset="100%" stop-color="#000000" stop-opacity="1"></stop></radialGradient><radialGradient id="delapouite-feather-necklace-gradient-13"><stop offset="0%" stop-color="#4a4a4a" stop-opacity="1"></stop><stop offset="100%" stop-color="#000000" stop-opacity="1"></stop></radialGradient><radialGradient id="delapouite-feather-necklace-gradient-14"><stop offset="0%" stop-color="#c9c9c9" stop-opacity="1"></stop><stop offset="100%" stop-color="#9b9b9b" stop-opacity="1"></stop></radialGradient><radialGradient id="delapouite-feather-necklace-gradient-15"><stop offset="0%" stop-color="#c9c9c9" stop-opacity="1"></stop><stop offset="100%" stop-color="#9b9b9b" stop-opacity="1"></stop></radialGradient><radialGradient id="delapouite-feather-necklace-gradient-16"><stop offset="0%" stop-color="#ff7b00" stop-opacity="1"></stop><stop offset="100%" stop-color="#b87333" stop-opacity="1"></stop></radialGradient><radialGradient id="delapouite-feather-necklace-gradient-17"><stop offset="0%" stop-color="#ff7b00" stop-opacity="1"></stop><stop offset="100%" stop-color="#b87333" stop-opacity="1"></stop></radialGradient><radialGradient id="delapouite-feather-necklace-gradient-18"><stop offset="0%" stop-color="#ff7b00" stop-opacity="1"></stop><stop offset="100%" stop-color="#b87333" stop-opacity="1"></stop></radialGradient><radialGradient id="delapouite-feather-necklace-gradient-19"><stop offset="0%" stop-color="#ff7b00" stop-opacity="1"></stop><stop offset="100%" stop-color="#b87333" stop-opacity="1"></stop></radialGradient><radialGradient id="delapouite-feather-necklace-gradient-20"><stop offset="0%" stop-color="#ffe0af" stop-opacity="1"></stop><stop offset="100%" stop-color="#e2c093" stop-opacity="1"></stop></radialGradient><radialGradient id="delapouite-feather-necklace-gradient-22"><stop offset="0%" stop-color="#fc88fc" stop-opacity="1"></stop><stop offset="100%" stop-color="#bd10e0" stop-opacity="1"></stop></radialGradient><radialGradient id="delapouite-feather-necklace-gradient-25"><stop offset="0%" stop-color="#9b9b9b" stop-opacity="1"></stop><stop offset="100%" stop-color="#4a4a4a" stop-opacity="1"></stop></radialGradient><radialGradient id="delapouite-feather-necklace-gradient-26"><stop offset="0%" stop-color="#9b9b9b" stop-opacity="1"></stop><stop offset="100%" stop-color="#4a4a4a" stop-opacity="1"></stop></radialGradient><radialGradient id="delapouite-feather-necklace-gradient-27"><stop offset="0%" stop-color="#9b9b9b" stop-opacity="1"></stop><stop offset="100%" stop-color="#4a4a4a" stop-opacity="1"></stop></radialGradient><radialGradient id="delapouite-feather-necklace-gradient-28"><stop offset="0%" stop-color="#9b9b9b" stop-opacity="1"></stop><stop offset="100%" stop-color="#4a4a4a" stop-opacity="1"></stop></radialGradient><radialGradient id="delapouite-feather-necklace-gradient-29"><stop offset="0%" stop-color="#9b9b9b" stop-opacity="1"></stop><stop offset="100%" stop-color="#4a4a4a" stop-opacity="1"></stop></radialGradient><radialGradient id="delapouite-feather-necklace-gradient-30"><stop offset="0%" stop-color="#9b9b9b" stop-opacity="1"></stop><stop offset="100%" stop-color="#4a4a4a" stop-opacity="1"></stop></radialGradient><radialGradient id="delapouite-feather-necklace-gradient-31"><stop offset="0%" stop-color="#9b9b9b" stop-opacity="1"></stop><stop offset="100%" stop-color="#4a4a4a" stop-opacity="1"></stop></radialGradient><radialGradient id="delapouite-feather-necklace-gradient-32"><stop offset="0%" stop-color="#9b9b9b" stop-opacity="1"></stop><stop offset="100%" stop-color="#4a4a4a" stop-opacity="1"></stop></radialGradient><radialGradient id="delapouite-feather-necklace-gradient-33"><stop offset="0%" stop-color="#9b9b9b" stop-opacity="1"></stop><stop offset="100%" stop-color="#4a4a4a" stop-opacity="1"></stop></radialGradient><radialGradient id="delapouite-feather-necklace-gradient-34"><stop offset="0%" stop-color="#9b9b9b" stop-opacity="1"></stop><stop offset="100%" stop-color="#4a4a4a" stop-opacity="1"></stop></radialGradient><radialGradient id="delapouite-feather-necklace-gradient-35"><stop offset="0%" stop-color="#9b9b9b" stop-opacity="1"></stop><stop offset="100%" stop-color="#4a4a4a" stop-opacity="1"></stop></radialGradient><radialGradient id="delapouite-feather-necklace-gradient-36"><stop offset="0%" stop-color="#9b9b9b" stop-opacity="1"></stop><stop offset="100%" stop-color="#4a4a4a" stop-opacity="1"></stop></radialGradient><radialGradient id="delapouite-feather-necklace-gradient-37"><stop offset="0%" stop-color="#9b9b9b" stop-opacity="1"></stop><stop offset="100%" stop-color="#4a4a4a" stop-opacity="1"></stop></radialGradient></defs><g class="" transform="translate(0,0)" style=""><g><path d="M256 25C248.4 25 241.6 26.66 237.4 28.74C234.1 30.37 233.3 31.71 233.1 32C233.3 32.29 234.1 33.63 237.4 35.26C241.6 37.34 248.4 39 256 39C263.6 39 270.4 37.34 274.6 35.26C277.9 33.63 278.7 32.29 278.9 32C278.7 31.71 277.9 30.37 274.6 28.74C270.4 26.66 263.6 25 256 25Z" class="" fill="url(#delapouite-feather-necklace-gradient-2)" stroke="#000000" stroke-opacity="1" stroke-width="2"></path><path d="M278.9 32C279 32.08 279 32.1 279 32C279 31.9 279 31.92 278.9 32Z" class="" fill="url(#delapouite-feather-necklace-gradient-3)" stroke="#000000" stroke-opacity="1" stroke-width="2"></path><path d="M233.1 32C233 31.92 233 31.9 233 32C233 32.1 233 32.08 233.1 32Z" class="" fill="url(#delapouite-feather-necklace-gradient-4)" stroke="#000000" stroke-opacity="1" stroke-width="2"></path><path d="M216.1 25.78C187.6 29.28 154.9 35.99 125.3 45.42C102.8 52.58 82.15 61.24 66.48 71.78C50.81 82.32 39 95.5 39 112C39 172.8 76.88 226.8 122.1 265.6C149.4 289 179.2 307.2 206.5 318C206.3 311.1 206.2 304.4 206.2 297.7C183 287.5 157.1 271.8 133.9 251.9C91.12 215.2 57 165.2 57 112C57 104.5 63.19 95.68 76.52 86.72C89.85 77.76 109.2 69.42 130.7 62.58C159.3 53.49 191.7 46.97 219.2 43.6C216.7 40.42 215 36.56 215 32C215 29.76 215.4 27.69 216.1 25.78Z" class="selected" fill="url(#delapouite-feather-necklace-gradient-5)" stroke="#000000" stroke-opacity="1" stroke-width="2"></path><path d="M295.9 25.78C296.6 27.69 297 29.76 297 32C297 36.56 295.3 40.42 292.8 43.6C320.3 46.97 352.7 53.49 381.3 62.58C402.8 69.42 422.1 77.76 435.5 86.72C448.8 95.68 455 104.5 455 112C455 164.1 420.9 214.3 378.1 251.2C358.2 268.4 336.3 282.6 315.8 292.8C315 298.5 314.3 305.9 313.6 314.4C338.6 303.2 365.3 286.1 389.9 264.8C435.1 225.7 473 171.9 473 112C473 95.5 461.2 82.32 445.5 71.78C429.9 61.24 409.2 52.58 386.7 45.42C357.1 35.99 324.4 29.28 295.9 25.78Z" class="" fill="url(#delapouite-feather-necklace-gradient-6)" stroke="#000000" stroke-opacity="1" stroke-width="2"></path><path d="M255.6 218.8L242.7 229.7C247.1 249.3 246.2 269 245.8 288.5L269.9 286.8C267.1 263.6 264.7 240.3 255.6 218.8Z" class="" fill="url(#delapouite-feather-necklace-gradient-7)" stroke="#000000" stroke-opacity="1" stroke-width="2"></path><path d="M271.3 289.2C267.5 333 264.2 351.2 262.2 397.7C249.5 353.3 245.5 335.1 245 289.7C238.9 293.3 232 296.3 224.3 299.5C224.5 339.5 227.4 384.2 237.6 421.2C247 455.4 262 481.8 285.4 493.7C285.9 488.9 286.3 483.1 286.8 475.6C287.1 469.8 287.5 463.3 287.8 456.4L267.2 449.7L288.6 440.8C288.9 434.5 289.2 428 289.5 421.3L264.1 413.1L290.4 402.1C292.3 362.2 294.4 321.3 297.4 296.2C288.7 295 279.7 293.2 271.3 289.2Z" class="" fill="url(#delapouite-feather-necklace-gradient-8)" stroke="#000000" stroke-opacity="1" stroke-width="2"></path></g></g></svg>