<svg xmlns="http://www.w3.org/2000/svg" viewBox="0 0 512 512" style="height: 512px; width: 512px;"><defs><linearGradient x1="0" x2="1" y1="0" y2="1" id="lorc-cat-gradient-2"><stop offset="0%" stop-color="#9b9b9b" stop-opacity="1"></stop><stop offset="100%" stop-color="#4a4a4a" stop-opacity="1"></stop></linearGradient><linearGradient x1="0" x2="1" y1="0" y2="1" id="lorc-cat-gradient-5"><stop offset="0%" stop-color="#9b9b9b" stop-opacity="1"></stop><stop offset="100%" stop-color="#4a4a4a" stop-opacity="1"></stop></linearGradient><linearGradient x1="0" x2="0" y1="0" y2="1" id="lorc-cat-gradient-16"><stop offset="0%" stop-color="#b57204" stop-opacity="1"></stop><stop offset="100%" stop-color="#8b572a" stop-opacity="1"></stop></linearGradient><linearGradient x1="0" x2="0" y1="0" y2="1" id="lorc-cat-gradient-19"><stop offset="0%" stop-color="#b57204" stop-opacity="1"></stop><stop offset="100%" stop-color="#8b572a" stop-opacity="1"></stop></linearGradient><linearGradient x1="0" x2="0" y1="0" y2="1" id="lorc-cat-gradient-23"><stop offset="0%" stop-color="#b57204" stop-opacity="1"></stop><stop offset="100%" stop-color="#8b572a" stop-opacity="1"></stop></linearGradient><linearGradient x1="0" x2="0" y1="0" y2="1" id="lorc-cat-gradient-25"><stop offset="0%" stop-color="#b57204" stop-opacity="1"></stop><stop offset="100%" stop-color="#8b572a" stop-opacity="1"></stop></linearGradient></defs><g class="" transform="translate(0,0)" style=""><g transform="translate(512, 0) scale(-1, 1) rotate(0, 256, 256) skewX(0) skewY(0)"><path d="M463.46 37.008L432.766 87.746L425.723 85.466C398.577 76.669 354.198 78.316 328.123 85.576L321.22 87.5L292.54 38.957C258.91 108.211 260.276 156.517 277.75 187.531C296.46 220.739 335.128 236.621 376.867 236.105C425.61 235.499 465.835 216.44 483.902 181.911C500.82 149.579 499.586 101.455 463.459 37.009Z" class="" fill="url(#lorc-cat-gradient-2)" stroke="#000000" stroke-opacity="1" stroke-width="2"></path><path d="M323.935 137.594C342.385 137.694 353.295 152.932 355.397 174.238C318.287 192.148 301.434 177.636 294.224 147.693C305.606 140.63 315.548 137.549 323.934 137.593Z" class="selected" fill="#b57204" stroke="#000000" stroke-opacity="1" stroke-width="2" fill-opacity="1"></path><path d="M433.195 137.594C441.58 137.549 451.523 140.63 462.905 147.694C455.695 177.636 438.841 192.148 401.731 174.238C403.835 152.932 414.745 137.693 433.194 137.594Z" class="" fill="#417505" stroke="#000000" stroke-opacity="1" stroke-width="2" fill-opacity="1"></path><path d="M139.642 188.554C138.416 188.544 137.196 188.551 135.982 188.572C105.807 189.108 79.84 199.162 60.239 215.146C16.795 250.576 2.969 315.898 47.415 381.338C67.708 415.333 91.847 435.578 118.212 445.525C151.062 457.92 184.867 454.348 218.152 449.639C251.436 444.929 284.006 439.009 315.048 441.219C346.088 443.431 377.138 451.399 405.553 482.384C424.927 503.509 452.44 480.757 429.373 458.228C394.349 424.021 356.846 410.808 319.996 408.188C283.146 405.568 247.796 412.886 215.789 417.416C183.782 421.946 155.517 423.968 131.231 414.806C116.841 409.376 102.923 400.004 89.681 383.664L441.425 383.664C455.098 331.371 456.292 277.296 443.298 241.592C423.533 250.082 400.886 254.492 377.098 254.789L377.096 254.789C347.246 255.159 317.638 247.864 294.189 231.966C289.542 234.978 284.782 238.196 279.897 241.651L274.163 245.708L268.673 241.326C222.043 204.126 177.645 188.846 139.643 188.553Z" class="" fill="url(#lorc-cat-gradient-5)" stroke="#000000" stroke-opacity="1" stroke-width="2"></path></g></g></svg>