<svg xmlns="http://www.w3.org/2000/svg" viewBox="0 0 512 512" style="height: 512px; width: 512px;"><defs><linearGradient x1="0" x2="1" y1="1" y2="0" id="gradient-2"><stop offset="0%" stop-color="#ffffff" stop-opacity="1"></stop><stop offset="100%" stop-color="#9b9b9b" stop-opacity="1"></stop></linearGradient><linearGradient x1="0" x2="1" y1="1" y2="0" id="gradient-3"><stop offset="0%" stop-color="#ffffff" stop-opacity="1"></stop><stop offset="100%" stop-color="#9b9b9b" stop-opacity="1"></stop></linearGradient><radialGradient id="gradient-4"><stop offset="0%" stop-color="#d0021b" stop-opacity="1"></stop><stop offset="100%" stop-color="#ff0000" stop-opacity="1"></stop></radialGradient><radialGradient id="gradient-5"><stop offset="0%" stop-color="#d0021b" stop-opacity="1"></stop><stop offset="100%" stop-color="#ff0000" stop-opacity="1"></stop></radialGradient><linearGradient x1="0" x2="1" y1="1" y2="0" id="gradient-6"><stop offset="0%" stop-color="#ffffff" stop-opacity="1"></stop><stop offset="100%" stop-color="#c9c9c9" stop-opacity="1"></stop></linearGradient><radialGradient id="gradient-7"><stop offset="0%" stop-color="#d0021b" stop-opacity="1"></stop><stop offset="100%" stop-color="#ff0000" stop-opacity="1"></stop></radialGradient><radialGradient id="gradient-8"><stop offset="0%" stop-color="#d0021b" stop-opacity="1"></stop><stop offset="100%" stop-color="#ff0000" stop-opacity="1"></stop></radialGradient><radialGradient id="gradient-9"><stop offset="0%" stop-color="#d0021b" stop-opacity="1"></stop><stop offset="100%" stop-color="#ff0000" stop-opacity="1"></stop></radialGradient><radialGradient id="gradient-10"><stop offset="0%" stop-color="#d0021b" stop-opacity="1"></stop><stop offset="100%" stop-color="#ff0000" stop-opacity="1"></stop></radialGradient><radialGradient id="gradient-11"><stop offset="0%" stop-color="#b57204" stop-opacity="1"></stop><stop offset="100%" stop-color="#8b572a" stop-opacity="1"></stop></radialGradient><radialGradient id="gradient-12"><stop offset="0%" stop-color="#b57204" stop-opacity="1"></stop><stop offset="100%" stop-color="#8b572a" stop-opacity="1"></stop></radialGradient><radialGradient id="gradient-13"><stop offset="0%" stop-color="#b57204" stop-opacity="1"></stop><stop offset="100%" stop-color="#8b572a" stop-opacity="1"></stop></radialGradient><radialGradient id="gradient-14"><stop offset="0%" stop-color="#b57204" stop-opacity="1"></stop><stop offset="100%" stop-color="#8b572a" stop-opacity="1"></stop></radialGradient><radialGradient id="gradient-15"><stop offset="0%" stop-color="#b57204" stop-opacity="1"></stop><stop offset="100%" stop-color="#8b572a" stop-opacity="1"></stop></radialGradient><radialGradient id="gradient-16"><stop offset="0%" stop-color="#b57204" stop-opacity="1"></stop><stop offset="100%" stop-color="#8b572a" stop-opacity="1"></stop></radialGradient><radialGradient id="gradient-17"><stop offset="0%" stop-color="#b57204" stop-opacity="1"></stop><stop offset="100%" stop-color="#8b572a" stop-opacity="1"></stop></radialGradient><radialGradient id="gradient-18"><stop offset="0%" stop-color="#c9c9c9" stop-opacity="1"></stop><stop offset="100%" stop-color="#9b9b9b" stop-opacity="1"></stop></radialGradient><radialGradient id="gradient-19"><stop offset="0%" stop-color="#f8e71c" stop-opacity="1"></stop><stop offset="100%" stop-color="#f5a623" stop-opacity="1"></stop></radialGradient><radialGradient id="gradient-20"><stop offset="0%" stop-color="#f8e71c" stop-opacity="1"></stop><stop offset="100%" stop-color="#f5a623" stop-opacity="1"></stop></radialGradient><radialGradient id="gradient-21"><stop offset="0%" stop-color="#f8e71c" stop-opacity="1"></stop><stop offset="100%" stop-color="#f5a623" stop-opacity="1"></stop></radialGradient><radialGradient id="gradient-22"><stop offset="0%" stop-color="#f8e71c" stop-opacity="1"></stop><stop offset="100%" stop-color="#f5a623" stop-opacity="1"></stop></radialGradient><radialGradient id="gradient-23"><stop offset="0%" stop-color="#f8e71c" stop-opacity="1"></stop><stop offset="100%" stop-color="#f5a623" stop-opacity="1"></stop></radialGradient><radialGradient id="gradient-24"><stop offset="0%" stop-color="#f8e71c" stop-opacity="1"></stop><stop offset="100%" stop-color="#f5a623" stop-opacity="1"></stop></radialGradient><radialGradient id="gradient-25"><stop offset="0%" stop-color="#f8e71c" stop-opacity="1"></stop><stop offset="100%" stop-color="#f5a623" stop-opacity="1"></stop></radialGradient><radialGradient id="gradient-26"><stop offset="0%" stop-color="#f8e71c" stop-opacity="1"></stop><stop offset="100%" stop-color="#f5a623" stop-opacity="1"></stop></radialGradient><radialGradient id="gradient-27"><stop offset="0%" stop-color="#f8e71c" stop-opacity="1"></stop><stop offset="100%" stop-color="#f5a623" stop-opacity="1"></stop></radialGradient><radialGradient id="gradient-28"><stop offset="0%" stop-color="#f8e71c" stop-opacity="1"></stop><stop offset="100%" stop-color="#f5a623" stop-opacity="1"></stop></radialGradient><radialGradient id="gradient-29"><stop offset="0%" stop-color="#f8e71c" stop-opacity="1"></stop><stop offset="100%" stop-color="#f5a623" stop-opacity="1"></stop></radialGradient><radialGradient id="gradient-30"><stop offset="0%" stop-color="#f8e71c" stop-opacity="1"></stop><stop offset="100%" stop-color="#f5a623" stop-opacity="1"></stop></radialGradient><radialGradient id="gradient-31"><stop offset="0%" stop-color="#f8e71c" stop-opacity="1"></stop><stop offset="100%" stop-color="#f5a623" stop-opacity="1"></stop></radialGradient><radialGradient id="gradient-32"><stop offset="0%" stop-color="#f8e71c" stop-opacity="1"></stop><stop offset="100%" stop-color="#f5a623" stop-opacity="1"></stop></radialGradient><radialGradient id="gradient-33"><stop offset="0%" stop-color="#7ed321" stop-opacity="1"></stop><stop offset="100%" stop-color="#417505" stop-opacity="1"></stop></radialGradient><radialGradient id="gradient-34"><stop offset="0%" stop-color="#f8e71c" stop-opacity="1"></stop><stop offset="100%" stop-color="#f5a623" stop-opacity="1"></stop></radialGradient><radialGradient id="gradient-35"><stop offset="0%" stop-color="#f8e71c" stop-opacity="1"></stop><stop offset="100%" stop-color="#f5a623" stop-opacity="1"></stop></radialGradient><radialGradient id="gradient-36"><stop offset="0%" stop-color="#f8e71c" stop-opacity="1"></stop><stop offset="100%" stop-color="#f5a623" stop-opacity="1"></stop></radialGradient></defs><g class="" transform="translate(-4,2)" style="touch-action: none;"><g><path d="M280 67.77C277.2 70.55 275.9 77.23 279.3 87.81C282.7 98.4 290.6 111.4 302.1 123.2C313.6 134.9 326.4 143.1 337 146.7C347.5 150.4 354.2 149.1 357 146.4C359.8 143.6 361.2 136.9 357.8 126.3C354.4 115.7 346.5 102.7 335 90.98C323.4 79.22 310.6 71.04 300.1 67.41C293.9 65.91 285.1 62.97 280 67.77Z" class="" fill="url(#gradient-2)" stroke="#000000" stroke-opacity="1" stroke-width="3"></path><path d="M369.1 65.93C365.1 65.93 362.2 66.98 360.6 68.55C357.8 71.33 356.5 78 359.9 88.59C363.3 99.17 371.2 112.2 382.7 123.9C394.2 135.7 407 143.9 417.6 147.5C428.1 151.1 434.8 149.9 437.6 147.1C440.4 144.4 441.8 137.7 438.4 127.1C435 116.5 427.1 103.5 415.6 91.75C404 79.99 391.2 71.81 380.7 68.19C376.1 66.6 372.2 65.94 369.1 65.93Z" class="" fill="url(#gradient-3)" stroke="#000000" stroke-opacity="1" stroke-width="3"></path><path d="M260.4 86.97L229.2 117.6C235 135 242.6 150.3 253.4 162.4C266.2 176.9 283.3 187.3 308.5 192.1L310 192.4L337.4 165.6C335.3 165.1 333.2 164.5 331.1 163.7C317.1 158.9 302.4 149.3 289.2 135.8C276 122.3 266.7 107.4 262.1 93.32C261.4 91.14 260.9 88.88 260.4 86.97Z" class="" fill="url(#gradient-4)" stroke="#000000" stroke-opacity="1" stroke-width="3"></path><path d="M202.1 144.1L81.3 262.4C87 278.9 94.5 293.5 104.8 305.1C117.6 319.6 134.7 330 159.9 334.8L163.9 335.5L281.9 219.9C244.9 208.5 218.9 181.3 202.1 144.1Z" class="" fill="url(#gradient-5)" stroke="#000000" stroke-opacity="1" stroke-width="3"></path><path d="M382.1 157.9C378.1 157.9 375.2 158.9 373.6 160.5C370.8 163.3 369.5 170 372.9 180.5C376.3 191.1 384.2 204.1 395.7 215.9C407.2 227.7 420 235.8 430.6 239.5C441.1 243.1 447.8 241.9 450.6 239.1C451.3 238.4 451.9 237.5 452.4 236.3C465.6 247.6 476.7 262.5 477.7 272.1C479 283.8 474.2 293.8 464.9 304.5C455.5 315.2 441.7 325.7 427.5 336.5C413.4 347.2 399 358.1 388.2 370.9C377.5 383.8 370.3 399.6 373.5 417.3C376.4 432.9 384.8 449.1 398.6 460.2C412.3 471.4 432 477 453.7 469.9L462.3 467.1L456.7 450L448.1 452.8C431.8 458.1 419.7 454.3 409.9 446.3C400.1 438.3 393.3 425.4 391.3 414.1C389.2 402.5 393.2 393 402 382.5C410.9 372 424.4 361.5 438.4 350.8C452.5 340.1 467.2 329.1 478.4 316.3C489.6 303.6 497.6 288 495.6 270.2C493.4 249.8 476.7 232.4 460 219.2C456 216 451.9 213.1 447.9 210.6C443.7 202 437.2 192.5 428.6 183.7C417 171.9 404.2 163.8 393.7 160.1C389.1 158.6 385.2 157.9 382.1 157.9Z" class="" fill="url(#gradient-6)" stroke="#000000" stroke-opacity="1" stroke-width="3"></path><path d="M354 179.7L326.7 206.5L326.9 208C331.1 233.3 341.2 250.7 355.4 263.8C367.3 274.8 382.5 282.8 399.7 288.9L431 258.3C428.9 257.8 426.8 257.2 424.7 256.5C410.7 251.7 396 242 382.8 228.5C369.6 215 360.3 200.1 355.7 186.1C355 183.9 354.5 181.8 354 179.7Z" class="selected" fill="url(#gradient-7)" stroke="#000000" stroke-opacity="1" stroke-width="3"></path><path d="M298.6 234L180.5 349.6L181.2 353.6C185.3 378.9 195.4 396.2 209.7 409.3C221.1 419.9 235.4 427.7 251.9 433.7L371.9 316.2C335.1 298.4 308.8 271.6 298.6 234Z" class="" fill="url(#gradient-8)" stroke="#000000" stroke-opacity="1" stroke-width="3"></path><path d="M55.68 287.5C44.04 296.5 31.99 309.9 21.43 321C18.59 323.8 17.24 330.5 20.64 341.1C24.05 351.7 31.96 364.7 43.47 376.4C54.99 388.2 67.83 396.4 78.34 400C88.85 403.6 95.55 402.4 98.38 399.6C111.1 387.3 124.1 374.5 135 363.8C98.12 352.2 72.35 324.9 55.68 287.5Z" class="" fill="url(#gradient-9)" stroke="#000000" stroke-opacity="1" stroke-width="3"></path><path d="M150.8 378.7C138.6 390.1 130.6 398 115 413.8C112.2 416.6 110.8 423.2 114.2 433.8C117.6 444.4 125.5 457.4 137 469.2C148.6 480.9 161.4 489.1 171.9 492.7C182.4 496.4 189.1 495.2 192 492.4C203.3 481.8 213.6 471.2 224.4 460.6C187.6 442.8 161.2 416.1 150.8 378.7Z" class="" fill="url(#gradient-10)" stroke="#000000" stroke-opacity="1" stroke-width="3"></path></g></g></svg>