<svg xmlns="http://www.w3.org/2000/svg" viewBox="0 0 512 512" style="height: 512px; width: 512px;"><defs><radialGradient id="delapouite-primitive-torch-gradient-2"><stop offset="0%" stop-color="#f5a623" stop-opacity="1"></stop><stop offset="100%" stop-color="#d88905" stop-opacity="1"></stop></radialGradient><radialGradient id="delapouite-primitive-torch-gradient-3"><stop offset="0%" stop-color="#f5a623" stop-opacity="1"></stop><stop offset="100%" stop-color="#d88905" stop-opacity="1"></stop></radialGradient><radialGradient id="delapouite-primitive-torch-gradient-4"><stop offset="0%" stop-color="#f5a623" stop-opacity="1"></stop><stop offset="100%" stop-color="#d88905" stop-opacity="1"></stop></radialGradient><linearGradient x1="0" x2="1" y1="1" y2="0" id="delapouite-primitive-torch-gradient-5"><stop offset="0%" stop-color="#b57204" stop-opacity="1"></stop><stop offset="100%" stop-color="#8b572a" stop-opacity="1"></stop></linearGradient><radialGradient id="delapouite-primitive-torch-gradient-6"><stop offset="0%" stop-color="#fe8896" stop-opacity="1"></stop><stop offset="100%" stop-color="#d0021b" stop-opacity="1"></stop></radialGradient><radialGradient id="delapouite-primitive-torch-gradient-7"><stop offset="0%" stop-color="#fc88fc" stop-opacity="1"></stop><stop offset="100%" stop-color="#bd10e0" stop-opacity="1"></stop></radialGradient><radialGradient id="delapouite-primitive-torch-gradient-8"><stop offset="0%" stop-color="#fc6879" stop-opacity="1"></stop><stop offset="100%" stop-color="#d0021b" stop-opacity="1"></stop></radialGradient><radialGradient id="delapouite-primitive-torch-gradient-9"><stop offset="0%" stop-color="#fc6879" stop-opacity="1"></stop><stop offset="100%" stop-color="#d0021b" stop-opacity="1"></stop></radialGradient><radialGradient id="delapouite-primitive-torch-gradient-10"><stop offset="0%" stop-color="#f8e71c" stop-opacity="1"></stop><stop offset="100%" stop-color="#f5a623" stop-opacity="1"></stop></radialGradient><linearGradient x1="0" x2="0" y1="0" y2="1" id="delapouite-primitive-torch-gradient-11"><stop offset="0%" stop-color="#f8e71c" stop-opacity="1"></stop><stop offset="100%" stop-color="#f5a623" stop-opacity="1"></stop></linearGradient><linearGradient x1="0" x2="0" y1="0" y2="1" id="delapouite-primitive-torch-gradient-12"><stop offset="0%" stop-color="#c9c9c9" stop-opacity="1"></stop><stop offset="100%" stop-color="#9b9b9b" stop-opacity="1"></stop></linearGradient><linearGradient x1="0" x2="0" y1="0" y2="1" id="delapouite-primitive-torch-gradient-13"><stop offset="0%" stop-color="#c9c9c9" stop-opacity="1"></stop><stop offset="100%" stop-color="#9b9b9b" stop-opacity="1"></stop></linearGradient><linearGradient x1="0" x2="0" y1="0" y2="1" id="delapouite-primitive-torch-gradient-14"><stop offset="0%" stop-color="#c9c9c9" stop-opacity="1"></stop><stop offset="100%" stop-color="#9b9b9b" stop-opacity="1"></stop></linearGradient><radialGradient id="delapouite-primitive-torch-gradient-15"><stop offset="0%" stop-color="#50e3c2" stop-opacity="1"></stop><stop offset="100%" stop-color="#4a90e2" stop-opacity="1"></stop></radialGradient></defs><g class="" transform="translate(0,0)" style=""><g><path d="M258.3 19.77C258.3 19.77 235.3 42.43 235.3 57.03C235.3 74.86 263.6 102.5 263.6 102.5C249.9 74.15 248.3 47.42 258.3 19.77Z" class="" fill="url(#delapouite-primitive-torch-gradient-2)" stroke="#000000" stroke-opacity="1" stroke-width="2"></path><path d="M407.2 25.22C407.2 25.22 410.8 50.35 408.9 62.72C407.5 71.64 399.7 88.18 399.7 88.18C399.7 88.18 432.2 73.95 433.7 59.11C435.1 44.84 407.2 25.22 407.2 25.22Z" class="selected" fill="url(#delapouite-primitive-torch-gradient-3)" stroke="#000000" stroke-opacity="1" stroke-width="2"></path><path d="M360 37.91C359.9 44.99 359.1 52.11 357.7 58.94C354.2 74.76 347.9 89.27 336.5 97.58C328.3 103.6 316.1 105.9 304.1 100.6C294.9 96.49 285.2 88.92 273.8 76.85C272.5 86.72 273.5 98.67 280.7 111.7L292.9 133.8L269.4 124.3C255.3 118.6 244.4 106.7 233.3 93.03C232.8 112.9 232.9 134.3 236.6 153.3C241.9 180.3 252.9 201.1 280.3 209.5C274.2 198.6 274.1 186.2 281.1 172.5C301.5 197.3 305.5 175.3 314.3 170.9C320.1 168 323.8 155 320 128.6C327.5 141.9 335.6 160.6 349.5 164C368.1 168.6 382.3 150.4 396 129.2C396 129.2 388.9 161.2 396 172.4C399.1 177.3 401.8 180.8 418.9 180.3C403.1 199.1 388.1 210.6 359.8 223.7C411.8 220.9 457.8 186 485.4 151.6C472.3 155.1 464 155.9 450.9 155.4L427.8 154.6L445.4 139.6C457.1 129.5 465.1 109.7 468.8 89C471.1 76.43 471.7 63.78 471.4 52.91C463.9 60.33 455.6 68.37 446.5 76.59C431.2 90.32 415.2 103.4 400.3 110.1L390.5 114.5L387.9 104.1C382.2 80.99 373.8 55.93 360 37.91Z" class="" fill="url(#delapouite-primitive-torch-gradient-4)" stroke="#000000" stroke-opacity="1" stroke-width="2"></path><path d="M276.3 227.3C270.1 232 263.2 237.4 255.7 243.5C229.9 264.3 197.5 291.8 165 320.1C132.6 348.4 100 377.5 74.07 401.6C51.65 422.5 34.39 439.6 26.62 448.4L53.47 438.6L28.67 458.6C30.07 461 31.95 463.4 34.62 466.2C36.23 467.8 38.23 469.7 40.58 471.6L127.2 403.6L107.1 426.1L55.9 483.2C59.83 486 64.14 489 68.93 492.2C154 408.6 240.2 325 332.3 241.3C323.1 240.8 315 239.8 306.8 237.9L250.2 283.2L291.2 233.2C286.5 231.6 281.6 229.6 276.3 227.3Z" class="" fill="url(#delapouite-primitive-torch-gradient-5)" stroke="#000000" stroke-opacity="1" stroke-width="2"></path></g></g></svg>