<svg xmlns="http://www.w3.org/2000/svg" viewBox="0 0 512 512" style="height: 512px; width: 512px;"><defs><radialGradient id="gradient-2"><stop offset="0%" stop-color="#b57204" stop-opacity="1"></stop><stop offset="100%" stop-color="#8b572a" stop-opacity="1"></stop></radialGradient><radialGradient id="gradient-3"><stop offset="0%" stop-color="#d0021b" stop-opacity="1"></stop><stop offset="100%" stop-color="#9b0416" stop-opacity="1"></stop></radialGradient><radialGradient id="gradient-4"><stop offset="0%" stop-color="#4a90e2" stop-opacity="1"></stop><stop offset="100%" stop-color="#48baff" stop-opacity="1"></stop></radialGradient><radialGradient id="gradient-5"><stop offset="0%" stop-color="#d0021b" stop-opacity="1"></stop><stop offset="100%" stop-color="#f5a623" stop-opacity="1"></stop></radialGradient><radialGradient id="gradient-6"><stop offset="0%" stop-color="#d0021b" stop-opacity="1"></stop><stop offset="100%" stop-color="#f5a623" stop-opacity="1"></stop></radialGradient><radialGradient id="gradient-7"><stop offset="0%" stop-color="#c9c9c9" stop-opacity="1"></stop><stop offset="100%" stop-color="#9b9b9b" stop-opacity="1"></stop></radialGradient><radialGradient id="gradient-8"><stop offset="0%" stop-color="#b57204" stop-opacity="1"></stop><stop offset="100%" stop-color="#8b572a" stop-opacity="1"></stop></radialGradient><radialGradient id="gradient-9"><stop offset="0%" stop-color="#b57204" stop-opacity="1"></stop><stop offset="100%" stop-color="#8b572a" stop-opacity="1"></stop></radialGradient><radialGradient id="gradient-10"><stop offset="0%" stop-color="#b57204" stop-opacity="1"></stop><stop offset="100%" stop-color="#8b572a" stop-opacity="1"></stop></radialGradient><radialGradient id="gradient-11"><stop offset="0%" stop-color="#b57204" stop-opacity="1"></stop><stop offset="100%" stop-color="#8b572a" stop-opacity="1"></stop></radialGradient><radialGradient id="gradient-12"><stop offset="0%" stop-color="#b57204" stop-opacity="1"></stop><stop offset="100%" stop-color="#8b572a" stop-opacity="1"></stop></radialGradient><radialGradient id="gradient-13"><stop offset="0%" stop-color="#b57204" stop-opacity="1"></stop><stop offset="100%" stop-color="#8b572a" stop-opacity="1"></stop></radialGradient><radialGradient id="gradient-15"><stop offset="0%" stop-color="#f5a623" stop-opacity="1"></stop><stop offset="100%" stop-color="#f8e71c" stop-opacity="1"></stop></radialGradient><radialGradient id="gradient-16"><stop offset="0%" stop-color="#ba6f00" stop-opacity="1"></stop><stop offset="100%" stop-color="#825819" stop-opacity="1"></stop></radialGradient></defs><g class="" transform="translate(2,9)" style="touch-action: none;"><g transform="translate(512, 0) scale(-1, 1) rotate(0, 256, 256)"><path d="M252.875 24.25L241.345 67.156L382.563 105.031L394.063 62.126L252.875 24.25Z" class="" fill="url(#gradient-2)" stroke="#000000" stroke-opacity="1" stroke-width="3"></path><path d="M253.655 89.813L246.812 115.281L228.437 110.345C185.657 98.881 141.364 123.841 129.875 166.72L80 352.843C68.51 395.723 94.12 440.075 137 451.563L280.438 489.999C323.318 501.489 367.068 475.623 378.531 432.843L428.407 246.687C439.869 203.907 414.655 160.247 371.877 148.78L371.877 148.75L352.845 143.656L359.657 118.219L341.627 113.374L332.377 147.874L329.97 156.874L330.094 156.904C320.261 185.792 386.487 253.112 412.406 221.594C412.824 228.206 412.208 235.031 410.376 241.874L407.626 252.094L361.906 252.094C371.786 265.881 375.819 284.587 369.562 305.249C360.249 336.005 333.342 350.529 306.875 363.374C280.408 376.22 253.445 388.174 236.595 411.344L222.687 430.5L219.78 407C216.235 378.44 197.912 355.277 181 331.187C172.544 319.143 164.492 306.897 159.594 293.219C155.107 280.689 153.509 266.785 157.031 252.093L126.345 252.093L147.939 171.53C156.809 138.425 190.419 119.476 223.626 128.375L251.032 135.719L260.032 138.155L262.472 129.125L271.722 94.655L253.658 89.811Z" class="" fill="url(#gradient-3)" stroke="#000000" stroke-opacity="1" stroke-width="3"></path><path d="M217.47 220.188C200.068 220.538 182.763 231.164 176.03 253.438C172.323 265.708 173.314 276.088 177.187 286.906C181.061 297.723 188.115 308.761 196.312 320.436C209.649 339.434 226.04 360.236 234.094 386.126C253.464 367.416 277.621 356.786 298.688 346.563C324.618 333.976 344.8 322.589 351.688 299.843C359.195 275.053 348.795 258.881 332.344 250.843C315.894 242.806 293.246 244.373 276.188 261.343L264.281 273.187L260.471 256.812C254.563 231.308 237.114 220.508 219.157 220.187C218.597 220.177 218.031 220.177 217.47 220.187Z" class="selected" fill="url(#gradient-4)" stroke="#000000" stroke-opacity="1" stroke-width="3"></path></g></g><g class="" transform="translate(301,299)" style="touch-action: none;"><g transform="translate(6.4, 6.4) scale(0.8, 0.8) rotate(-360, 128, 128)"><circle cx="128" cy="128" r="128" fill="#000000" fill-opacity="1"></circle><circle stroke="#417505" stroke-opacity="1" fill="#000000" fill-opacity="1" stroke-width="18" cx="128" cy="128" r="101"></circle><path fill="#417505" fill-opacity="1" d="MZ"></path></g></g><g font-family="Arial, Helvetica, sans-serif" font-size="90" font-style="normal" font-weight="normal" text-anchor="middle" class="" transform="translate(410,440)" style="touch-action: none;"><text stroke="rgba(0, 0, 0, 0.005)" stroke-width="22.5"><tspan x="0" y="0">50</tspan></text><text fill="rgba(65, 117, 5, 1)"><tspan x="0" y="0">50</tspan></text></g></svg>