<svg xmlns="http://www.w3.org/2000/svg" viewBox="0 0 512 512" style="height: 512px; width: 512px;"><defs><radialGradient id="gradient-2"><stop offset="0%" stop-color="#b57204" stop-opacity="1"></stop><stop offset="100%" stop-color="#8b572a" stop-opacity="1"></stop></radialGradient><radialGradient id="gradient-3"><stop offset="0%" stop-color="#760219" stop-opacity="1"></stop><stop offset="100%" stop-color="#d0021b" stop-opacity="1"></stop></radialGradient><radialGradient id="gradient-4"><stop offset="0%" stop-color="#dc143c" stop-opacity="0.25"></stop><stop offset="100%" stop-color="#760219" stop-opacity="0.25"></stop></radialGradient><radialGradient id="gradient-5"><stop offset="0%" stop-color="#dc143c" stop-opacity="1"></stop><stop offset="100%" stop-color="#760219" stop-opacity="1"></stop></radialGradient><radialGradient id="gradient-6"><stop offset="0%" stop-color="#b57204" stop-opacity="1"></stop><stop offset="100%" stop-color="#8b572a" stop-opacity="1"></stop></radialGradient><radialGradient id="gradient-7"><stop offset="0%" stop-color="#c9c9c9" stop-opacity="1"></stop><stop offset="100%" stop-color="#9b9b9b" stop-opacity="1"></stop></radialGradient><radialGradient id="gradient-8"><stop offset="0%" stop-color="#b57204" stop-opacity="1"></stop><stop offset="100%" stop-color="#8b572a" stop-opacity="1"></stop></radialGradient><radialGradient id="gradient-9"><stop offset="0%" stop-color="#b57204" stop-opacity="1"></stop><stop offset="100%" stop-color="#8b572a" stop-opacity="1"></stop></radialGradient><radialGradient id="gradient-10"><stop offset="0%" stop-color="#b57204" stop-opacity="1"></stop><stop offset="100%" stop-color="#8b572a" stop-opacity="1"></stop></radialGradient><radialGradient id="gradient-11"><stop offset="0%" stop-color="#b57204" stop-opacity="1"></stop><stop offset="100%" stop-color="#8b572a" stop-opacity="1"></stop></radialGradient><radialGradient id="gradient-12"><stop offset="0%" stop-color="#b57204" stop-opacity="1"></stop><stop offset="100%" stop-color="#8b572a" stop-opacity="1"></stop></radialGradient><radialGradient id="gradient-13"><stop offset="0%" stop-color="#b57204" stop-opacity="1"></stop><stop offset="100%" stop-color="#8b572a" stop-opacity="1"></stop></radialGradient><radialGradient id="gradient-15"><stop offset="0%" stop-color="#f5a623" stop-opacity="1"></stop><stop offset="100%" stop-color="#f8e71c" stop-opacity="1"></stop></radialGradient><radialGradient id="gradient-16"><stop offset="0%" stop-color="#ba6f00" stop-opacity="1"></stop><stop offset="100%" stop-color="#825819" stop-opacity="1"></stop></radialGradient></defs><g class="" transform="translate(2,9)" style="touch-action: none;"><g><path d="M257.125 18.53C213.767 18.53 178.875 53.32 178.875 96.437C178.875 139.555 213.767 174.344 257.125 174.344C300.483 174.344 335.405 139.554 335.405 96.438C335.405 53.32 300.483 18.531 257.125 18.531Z" class="" fill="url(#gradient-2)" stroke="#000000" stroke-opacity="1" stroke-width="3"></path><path d="M168.625 135.844C161.981 144.042 158.469 153.048 158.469 162.314C158.469 177.629 168.023 192.224 185.562 203.624C203.1 215.024 228.192 222.5 256.092 222.5C283.992 222.5 309.117 215.025 326.655 203.625C344.195 192.225 353.749 177.629 353.749 162.312C353.749 153.658 350.692 145.225 344.874 137.469C329.346 170.269 295.834 193.029 257.124 193.029C217.774 193.029 183.791 169.521 168.624 135.843Z" class="selected" fill="url(#gradient-3)" stroke="#000000" stroke-opacity="1" stroke-width="3"></path><path d="M141.405 175.564C96.435 203.631 67.719 247.714 67.719 296.594C67.719 379.856 151.031 449.188 256.093 449.188C361.153 449.188 444.468 379.856 444.468 296.594C444.468 247.727 415.76 203.664 370.81 175.594C366.487 193.092 353.848 208.259 336.842 219.314C315.662 233.079 287.274 241.188 256.092 241.188C224.909 241.188 196.552 233.078 175.372 219.313C158.357 208.253 145.722 193.073 141.404 175.563Z" class="" fill="url(#gradient-4)" stroke="#000000" stroke-opacity="1" stroke-width="3"></path><path d="M93.063 286.154L93.095 286.154C107.728 342.22 175.141 384.56 256.22 384.56C337.297 384.56 404.054 342.222 418.687 286.154C420.7 293.694 422.625 301.187 422.625 309.154C422.625 376.108 347.978 430.498 256.219 430.498C164.459 430.498 89.779 376.108 89.779 309.154C89.779 301.187 91.049 293.694 93.061 286.154Z" class="" fill="url(#gradient-5)" stroke="#000000" stroke-opacity="1" stroke-width="3"></path><path d="M415.47 406.03C377.317 443.963 319.81 467.875 256.094 467.875C192.414 467.875 134.934 443.99 96.781 406.095C102.339 427.048 117.587 446.208 140.376 461.469C169.501 480.972 210.588 493.436 256.126 493.436C301.664 493.436 342.72 480.972 371.846 461.468C394.656 446.191 409.916 427.008 415.47 406.028Z" class="" fill="url(#gradient-6)" stroke="#000000" stroke-opacity="1" stroke-width="3"></path></g></g></svg>