<svg xmlns="http://www.w3.org/2000/svg" viewBox="0 0 512 512" style="height: 512px; width: 512px;"><defs><radialGradient id="delapouite-tower-flag-gradient-0"><stop offset="0%" stop-color="#c9c9c9" stop-opacity="1"></stop><stop offset="100%" stop-color="#000" stop-opacity="1"></stop></radialGradient><linearGradient x1="0" x2="0" y1="0" y2="1" id="delapouite-tower-flag-gradient-2"><stop offset="0%" stop-color="#8b572a" stop-opacity="1"></stop><stop offset="100%" stop-color="#b57204" stop-opacity="1"></stop></linearGradient><linearGradient x1="0" x2="1" y1="1" y2="0" id="delapouite-tower-flag-gradient-3"><stop offset="0%" stop-color="#ffffff" stop-opacity="1"></stop><stop offset="100%" stop-color="#c9c9c9" stop-opacity="1"></stop></linearGradient><linearGradient x1="0" x2="1" y1="1" y2="0" id="delapouite-tower-flag-gradient-4"><stop offset="0%" stop-color="#c9c9c9" stop-opacity="1"></stop><stop offset="100%" stop-color="#9b9b9b" stop-opacity="1"></stop></linearGradient><linearGradient x1="0" x2="1" y1="0" y2="1" id="delapouite-tower-flag-gradient-5"><stop offset="0%" stop-color="#48baff" stop-opacity="1"></stop><stop offset="100%" stop-color="#a7dbfa" stop-opacity="1"></stop></linearGradient></defs><g class="" transform="translate(0,-1)" style=""><g transform="translate(51.2, 51.2) scale(0.8, 0.8) rotate(-360, 256, 256) skewX(0) skewY(0)"><path d="M151 32L151 279L169 279L169 32L151 32Z" class="" fill="url(#delapouite-tower-flag-gradient-2)" stroke="#000000" stroke-opacity="1" stroke-width="2"></path><path d="M398 41.574L384.572 49.164C352.946 67.04 323.08 61.431 291.434 53.52C259.787 45.608 226.604 34.68 193.488 48.713L188 51.039L188 166.588L200.512 161.288C226.395 150.32 254.713 158.892 287.066 166.98C319.42 175.069 356.054 181.96 393.428 160.836L398 158.252L398 41.574Z" class="selected" fill="url(#delapouite-tower-flag-gradient-3)" stroke="#000000" stroke-opacity="1" stroke-width="2"></path><path d="M73 297L73 364.271L105 396.271L105 487L407 487L407 396.271L439 364.271L439 297L393 297L393 336L375 336L375 297L329 297L329 336L311 336L311 297L265 297L265 336L247 336L247 297L201 297L201 336L183 336L183 297L137 297L137 336L119 336L119 297L73 297Z" class="" fill="url(#delapouite-tower-flag-gradient-4)" stroke="#000000" stroke-opacity="1" stroke-width="2"></path></g></g></svg>