<svg xmlns="http://www.w3.org/2000/svg" viewBox="0 0 512 512" style="height: 512px; width: 512px;"><defs><radialGradient id="lorc-big-wave-gradient-0"><stop offset="0%" stop-color="#c9c9c9" stop-opacity="1"></stop><stop offset="100%" stop-color="#000" stop-opacity="1"></stop></radialGradient><linearGradient x1="0" x2="1" y1="1" y2="0" id="lorc-big-wave-gradient-2"><stop offset="0%" stop-color="#a7dbfa" stop-opacity="1"></stop><stop offset="100%" stop-color="#4a90e2" stop-opacity="1"></stop></linearGradient><linearGradient x1="0" x2="1" y1="1" y2="0" id="lorc-big-wave-gradient-3"><stop offset="0%" stop-color="#a7dbfa" stop-opacity="1"></stop><stop offset="100%" stop-color="#48baff" stop-opacity="1"></stop></linearGradient><linearGradient x1="0" x2="1" y1="1" y2="0" id="lorc-big-wave-gradient-4"><stop offset="0%" stop-color="#a7dbfa" stop-opacity="1"></stop><stop offset="100%" stop-color="#4a90e2" stop-opacity="1"></stop></linearGradient><linearGradient x1="0" x2="1" y1="0" y2="1" id="lorc-big-wave-gradient-5"><stop offset="0%" stop-color="#48baff" stop-opacity="1"></stop><stop offset="100%" stop-color="#a7dbfa" stop-opacity="1"></stop></linearGradient></defs><g class="" transform="translate(0,-1)" style=""><g transform="translate(51.2, 51.2) scale(0.8, 0.8) rotate(0, 256, 256) skewX(0) skewY(0)"><path d="M319.406 75.156C268.864 75.646 215.016 96.032 169.312 148C159.08 157.65 149.432 167.59 140.125 177.313C119.609 198.746 100.431 219.19 79.905 233.781C61.421 246.923 42.175 255.398 18.905 256.531L18.905 346.407C72.835 313.614 78.839 278.575 134.5 210.095C140.88 203.571 147.227 196.905 153.625 190.22C163.585 179.813 173.641 169.417 184.188 159.563C230.61 122.733 276.21 131.633 291.406 162.063C296.006 112.793 349.364 131.499 358.219 180.938C365.129 147.242 378.546 136.584 392.249 149.313C364.113 198.898 365.639 260.183 383.843 314.25C404.353 375.165 445.586 428.38 494.187 448L494.187 427.437C455.847 408.243 419.525 361.727 401.53 308.281C385.593 260.945 383.753 209.211 404.28 166.626C412.772 183.546 420.622 210.032 426.22 246.156C444.212 161.569 480.982 173.693 482.844 235.563C525.842 169.276 430.647 74.083 319.406 75.157Z" class="" fill="url(#lorc-big-wave-gradient-2)" stroke="#000000" stroke-opacity="1" stroke-width="2"></path><path d="M283.75 170.936C194.225 181.69 66.158 359.648 43.625 494.97L134.875 494.97C135.895 361.016 205.989 212.925 283.75 170.937Z" class="" fill="url(#lorc-big-wave-gradient-3)" stroke="#000000" stroke-opacity="1" stroke-width="2"></path><path d="M316.156 184.626C239.396 233.682 201.582 393.358 206.344 494.969L284.781 494.969C243.568 414.229 261.574 242.303 316.157 184.624Z" class="" fill="url(#lorc-big-wave-gradient-4)" stroke="#000000" stroke-opacity="1" stroke-width="2"></path><path d="M338.031 210.844C303.345 293.074 312.326 401.921 363.189 494.969L441.189 494.969C365.584 441.195 321.099 304.514 338.032 210.843Z" class="selected" fill="url(#lorc-big-wave-gradient-5)" stroke="#000000" stroke-opacity="1" stroke-width="2"></path></g></g></svg>