<svg xmlns="http://www.w3.org/2000/svg" viewBox="0 0 512 512" style="height: 512px; width: 512px;"><defs><radialGradient id="gradient-1"><stop offset="0%" stop-color="#f9b700" stop-opacity="1"></stop><stop offset="100%" stop-color="#f56d23" stop-opacity="1"></stop></radialGradient></defs><g class="" transform="translate(0,0)" style="touch-action: none;"><path d="M323.9 19.81l-55.2 55.15L285 91.24 272.2 104 256 87.73 19.81 323.9l45.57 45.6c28.5-14.6 56.22-11.7 72.52 4.6 16.3 16.3 19.2 44 4.6 72.5l45.6 45.6 236.1-236.1-16.2-16.3 12.8-12.8 16.3 16.2 55.1-55.1-45.6-45.6c-28.5 14.6-56.2 11.7-72.5-4.6-16.3-16.3-19.2-44.02-4.6-72.52zm-16.2 93.99l33.9 34-12.8 12.8-33.9-34zM256 130.2L381.8 256 222.1 415.8 96.16 289.9 249.6 136.5zm0 25.4L121.6 289.9l100.5 100.5L356.4 256zm108.2 14.8l34 33.9-12.8 12.8-34-33.9z" fill="url(#gradient-1)" stroke="#000000" stroke-opacity="1" stroke-width="3" transform="translate(512, 512) scale(-1, -1) rotate(-180, 256, 256)"></path></g><g class="" transform="translate(301,299)" style="touch-action: none;"><g transform="translate(6.4, 6.4) scale(0.8, 0.8) rotate(-360, 128, 128)"><circle cx="128" cy="128" r="128" fill="#000000" fill-opacity="1"></circle><circle stroke="#f8e71c" stroke-opacity="1" fill="#000000" fill-opacity="1" stroke-width="18" cx="128" cy="128" r="101"></circle><path fill="#f8e71c" fill-opacity="1" d="MZ"></path></g></g><g font-family="Arial, Helvetica, sans-serif" font-size="115" font-style="normal" font-weight="normal" text-anchor="middle" class="" transform="translate(413,447)" style="touch-action: none;"><text stroke="rgba(0, 0, 0, 0.005)" stroke-width="28.75"><tspan x="0" y="0">20</tspan></text><text fill="rgba(248, 231, 28, 1)"><tspan x="0" y="0">20</tspan></text></g></svg>