<svg xmlns="http://www.w3.org/2000/svg" viewBox="0 0 512 512" style="height: 512px; width: 512px;"><defs><radialGradient id="delapouite-cosmic-egg-gradient-1"><stop offset="0%" stop-color="#f8e71c" stop-opacity="1"></stop><stop offset="100%" stop-color="#f5a623" stop-opacity="1"></stop></radialGradient><linearGradient x1="0" x2="1" y1="0" y2="1" id="delapouite-cosmic-egg-gradient-2"><stop offset="0%" stop-color="#f8e71c" stop-opacity="1"></stop><stop offset="100%" stop-color="#f5a623" stop-opacity="1"></stop></linearGradient><radialGradient id="delapouite-cosmic-egg-gradient-3"><stop offset="0%" stop-color="#f8e71c" stop-opacity="1"></stop><stop offset="100%" stop-color="#f5a623" stop-opacity="1"></stop></radialGradient><radialGradient id="delapouite-cosmic-egg-gradient-4"><stop offset="0%" stop-color="#ffffff" stop-opacity="1"></stop><stop offset="100%" stop-color="#ffe0af" stop-opacity="1"></stop></radialGradient><radialGradient id="delapouite-cosmic-egg-gradient-5"><stop offset="0%" stop-color="#f8e71c" stop-opacity="1"></stop><stop offset="100%" stop-color="#f5a623" stop-opacity="1"></stop></radialGradient><radialGradient id="delapouite-cosmic-egg-gradient-6"><stop offset="0%" stop-color="#417505" stop-opacity="1"></stop><stop offset="100%" stop-color="#7ed321" stop-opacity="1"></stop></radialGradient><radialGradient id="delapouite-cosmic-egg-gradient-7"><stop offset="0%" stop-color="#9013fe" stop-opacity="1"></stop><stop offset="100%" stop-color="#fc88fc" stop-opacity="1"></stop></radialGradient><linearGradient x1="0" x2="0" y1="0" y2="1" id="delapouite-cosmic-egg-gradient-8"><stop offset="0%" stop-color="#f8e71c" stop-opacity="1"></stop><stop offset="100%" stop-color="#f5a623" stop-opacity="1"></stop></linearGradient><radialGradient id="delapouite-cosmic-egg-gradient-9"><stop offset="0%" stop-color="#f8e71c" stop-opacity="1"></stop><stop offset="100%" stop-color="#f5a623" stop-opacity="1"></stop></radialGradient><radialGradient id="delapouite-cosmic-egg-gradient-10"><stop offset="0%" stop-color="#ffffff" stop-opacity="1"></stop><stop offset="100%" stop-color="#ffe0af" stop-opacity="1"></stop></radialGradient><radialGradient id="delapouite-cosmic-egg-gradient-11"><stop offset="0%" stop-color="#ffffff" stop-opacity="1"></stop><stop offset="100%" stop-color="#ffe0af" stop-opacity="1"></stop></radialGradient><radialGradient id="delapouite-cosmic-egg-gradient-12"><stop offset="0%" stop-color="#f8e71c" stop-opacity="1"></stop><stop offset="100%" stop-color="#f5a623" stop-opacity="1"></stop></radialGradient><radialGradient id="delapouite-cosmic-egg-gradient-13"><stop offset="0%" stop-color="#f8e71c" stop-opacity="1"></stop><stop offset="100%" stop-color="#f5a623" stop-opacity="1"></stop></radialGradient><radialGradient id="delapouite-cosmic-egg-gradient-14"><stop offset="0%" stop-color="#4a4a4a" stop-opacity="1"></stop><stop offset="100%" stop-color="#000000" stop-opacity="1"></stop></radialGradient><radialGradient id="delapouite-cosmic-egg-gradient-15"><stop offset="0%" stop-color="#f8e71c" stop-opacity="1"></stop><stop offset="100%" stop-color="#f5a623" stop-opacity="1"></stop></radialGradient><radialGradient id="delapouite-cosmic-egg-gradient-16"><stop offset="0%" stop-color="#f8e71c" stop-opacity="1"></stop><stop offset="100%" stop-color="#f5a623" stop-opacity="1"></stop></radialGradient><radialGradient id="delapouite-cosmic-egg-gradient-17"><stop offset="0%" stop-color="#4a4a4a" stop-opacity="1"></stop><stop offset="100%" stop-color="#000000" stop-opacity="1"></stop></radialGradient><radialGradient id="delapouite-cosmic-egg-gradient-18"><stop offset="0%" stop-color="#48baff" stop-opacity="1"></stop><stop offset="100%" stop-color="#4a90e2" stop-opacity="1"></stop></radialGradient><radialGradient id="delapouite-cosmic-egg-gradient-19"><stop offset="0%" stop-color="#48baff" stop-opacity="1"></stop><stop offset="100%" stop-color="#4a90e2" stop-opacity="1"></stop></radialGradient><radialGradient id="delapouite-cosmic-egg-gradient-22"><stop offset="0%" stop-color="#fc88fc" stop-opacity="1"></stop><stop offset="100%" stop-color="#bd10e0" stop-opacity="1"></stop></radialGradient><radialGradient id="delapouite-cosmic-egg-gradient-25"><stop offset="0%" stop-color="#9b9b9b" stop-opacity="1"></stop><stop offset="100%" stop-color="#4a4a4a" stop-opacity="1"></stop></radialGradient><radialGradient id="delapouite-cosmic-egg-gradient-26"><stop offset="0%" stop-color="#9b9b9b" stop-opacity="1"></stop><stop offset="100%" stop-color="#4a4a4a" stop-opacity="1"></stop></radialGradient><radialGradient id="delapouite-cosmic-egg-gradient-27"><stop offset="0%" stop-color="#9b9b9b" stop-opacity="1"></stop><stop offset="100%" stop-color="#4a4a4a" stop-opacity="1"></stop></radialGradient><radialGradient id="delapouite-cosmic-egg-gradient-28"><stop offset="0%" stop-color="#9b9b9b" stop-opacity="1"></stop><stop offset="100%" stop-color="#4a4a4a" stop-opacity="1"></stop></radialGradient><radialGradient id="delapouite-cosmic-egg-gradient-29"><stop offset="0%" stop-color="#9b9b9b" stop-opacity="1"></stop><stop offset="100%" stop-color="#4a4a4a" stop-opacity="1"></stop></radialGradient><radialGradient id="delapouite-cosmic-egg-gradient-30"><stop offset="0%" stop-color="#9b9b9b" stop-opacity="1"></stop><stop offset="100%" stop-color="#4a4a4a" stop-opacity="1"></stop></radialGradient><radialGradient id="delapouite-cosmic-egg-gradient-31"><stop offset="0%" stop-color="#9b9b9b" stop-opacity="1"></stop><stop offset="100%" stop-color="#4a4a4a" stop-opacity="1"></stop></radialGradient><radialGradient id="delapouite-cosmic-egg-gradient-32"><stop offset="0%" stop-color="#9b9b9b" stop-opacity="1"></stop><stop offset="100%" stop-color="#4a4a4a" stop-opacity="1"></stop></radialGradient><radialGradient id="delapouite-cosmic-egg-gradient-33"><stop offset="0%" stop-color="#9b9b9b" stop-opacity="1"></stop><stop offset="100%" stop-color="#4a4a4a" stop-opacity="1"></stop></radialGradient><radialGradient id="delapouite-cosmic-egg-gradient-34"><stop offset="0%" stop-color="#9b9b9b" stop-opacity="1"></stop><stop offset="100%" stop-color="#4a4a4a" stop-opacity="1"></stop></radialGradient><radialGradient id="delapouite-cosmic-egg-gradient-35"><stop offset="0%" stop-color="#9b9b9b" stop-opacity="1"></stop><stop offset="100%" stop-color="#4a4a4a" stop-opacity="1"></stop></radialGradient><radialGradient id="delapouite-cosmic-egg-gradient-36"><stop offset="0%" stop-color="#9b9b9b" stop-opacity="1"></stop><stop offset="100%" stop-color="#4a4a4a" stop-opacity="1"></stop></radialGradient><radialGradient id="delapouite-cosmic-egg-gradient-37"><stop offset="0%" stop-color="#9b9b9b" stop-opacity="1"></stop><stop offset="100%" stop-color="#4a4a4a" stop-opacity="1"></stop></radialGradient></defs><g class="" transform="translate(0,0)" style=""><g><path d="M125.5 18.32C117.9 29.98 121.7 43.86 96.41 45.75C122 47.6 119.6 62.27 116.7 79.64C123.7 68.65 122.5 53.53 146.3 53.27C128.7 44.32 125.5 31.5 125.5 18.32Z" class="" fill="url(#delapouite-cosmic-egg-gradient-2)" stroke="#000000" stroke-opacity="1" stroke-width="2"></path><path d="M414.8 42.18C406.9 58.02 404.1 75.99 372.3 81.93C404.8 80.73 407.8 99.94 406.5 122.2C414.3 105.6 413 78.63 440.4 84.6C416.9 75.96 416.7 58.76 414.8 42.18Z" class="" fill="url(#delapouite-cosmic-egg-gradient-3)" stroke="#000000" stroke-opacity="1" stroke-width="2"></path><path d="M256 48C209.7 48 138.4 123.3 102.4 225.4C109.7 228.5 116.7 232.3 123.4 236.7C128.4 234 133.8 232.7 139.3 232.6C145.4 232.5 151.5 233.9 157.2 236.5C168.5 241.7 178.5 251.5 185.4 264.9C192.3 278.2 194.8 292.7 193 305.8C191.5 316.7 186.9 327 179.1 334.1C184.9 347.2 193.1 360 203.2 371C213.9 382.7 226.7 392.4 241.1 398.7C245.394 380.736 261.43 368.048 279.9 368C279.933 368 279.967 368 280 368C288.45 368.02 296.677 370.716 303.5 375.7C317.3 358.2 329.6 340.8 336.6 322.1C328.262 314.073 324.488 301.223 326.7 288.4C329.742 270.716 343.285 257.554 358.6 257.4C360.18 257.393 361.751 257.527 363.3 257.8C366.834 258.401 370.218 259.72 373.3 261.7C370.7 251.1 366.7 241.1 350.6 237.4C370.7 237.2 371.6 226.6 375.5 213.6C378.5 231.3 378.8 239.6 399.7 242C378.1 248.8 379 253.8 376.3 263.9C385.579 271.759 389.955 285.312 387.6 298.9C387.209 301.146 386.64 303.356 385.9 305.5C394.5 307.7 404.8 308.5 415.4 308C419.9 307.7 424.5 307.2 429 306.4C410.9 165.6 313.8 48 256 48Z" class="selected" fill="url(#delapouite-cosmic-egg-gradient-4)" stroke="#000000" stroke-opacity="1" stroke-width="2"></path><path d="M39.74 73.43C41.76 89.32 36.68 99.23 29.22 107.2C40.61 105.9 48.01 98.16 60.75 114.2C52.06 98.23 64.52 94.99 74.26 85.32C63.7 85.58 50.73 89.27 39.74 73.43Z" class="" fill="url(#delapouite-cosmic-egg-gradient-5)" stroke="#000000" stroke-opacity="1" stroke-width="2"></path><path d="M255.9 80C255.933 80 255.967 80 256 80C300.183 80 336 115.817 336 160C336 204.183 300.183 240 256 240C211.817 240 176 204.183 176 160C176 115.856 211.756 80.055 255.9 80Z" class="" fill="url(#delapouite-cosmic-egg-gradient-6)" stroke="#000000" stroke-opacity="1" stroke-width="2"></path><path d="M256 96L240 136L192 160L240 172L256 224L272 172L320 160L272 136L256 96Z" class="" fill="url(#delapouite-cosmic-egg-gradient-7)" stroke="#000000" stroke-opacity="1" stroke-width="2"></path><path d="M438.9 136.6C441.6 150.2 454 157.5 437.2 176.5C456.8 160 465.3 172.2 475.3 186.7C472.7 173.9 461.3 163.9 478.2 147.1C459.3 153 448.1 146 438.9 136.6Z" class="" fill="url(#delapouite-cosmic-egg-gradient-8)" stroke="#000000" stroke-opacity="1" stroke-width="2"></path><path d="M33.68 157.3C42.87 171.8 65.52 186.3 41.83 207.3C63.25 194.3 76.84 204.9 90.97 213.8C83.55 197.7 73.19 191.7 88.45 163.2C69.08 189.3 50.28 172.2 33.68 157.3Z" class="" fill="url(#delapouite-cosmic-egg-gradient-9)" stroke="#000000" stroke-opacity="1" stroke-width="2"></path><path d="M96.89 242.2C86.35 276.7 80 313.9 80 352C80 394.7 115.7 444.6 168 473C168.678 471.528 169.48 470.124 170.4 468.8C175.946 460.923 185.366 456.36 196.2 456.3C205.099 456.273 214.288 459.288 222.1 464.8C232.811 472.331 239.796 483.724 240.8 495.3C245.8 495.8 250.9 496 256 496C280.8 496 304.6 490.6 326.2 481.6C316.9 477.9 308.9 473 301.8 467.2C294.6 461.4 288.5 454.8 283 447.9C282.002 447.971 281.001 448.004 280 448C261.894 447.977 246.062 435.795 241.4 418.3C221.3 411.1 203.9 398.5 189.9 383.2C178.7 371 169.6 357 163 342.5C154.7 344.3 145.9 343 138.1 339.3C132.6 336.8 127.4 333.2 122.7 328.6C125.3 345.8 132.6 357.4 155.6 356.9C124.7 366.6 128 378.2 122 394.9C118.1 378.7 112.4 363.5 91.46 355.9C113.9 355.9 117.4 341 120.3 326.2C116.3 321.8 112.8 316.7 109.8 311C102.9 297.7 100.4 283.2 102.2 270.1C103.2 262.5 105.8 255.1 109.9 249C105.8 246.4 101.4 244.1 96.89 242.2Z" class="" fill="url(#delapouite-cosmic-egg-gradient-10)" stroke="#000000" stroke-opacity="1" stroke-width="2"></path><path d="M375.9 321.3C369.417 327.43 361.268 330.482 353.2 329.8C344.7 351.7 330.6 371.1 315.6 389.7C318.501 395.363 320.01 401.637 320 408C320.002 421.71 312.983 434.465 301.4 441.8C305.1 446 309 449.9 313.2 453.3C323 461.3 334.5 467.2 350 469.7C399 440.8 432 393.1 432 352C432 342.8 431.6 333.6 430.9 324.5C426.1 325.2 421.2 325.6 416.4 325.9C402.3 326.7 388.2 325.5 375.9 321.3Z" class="" fill="url(#delapouite-cosmic-egg-gradient-11)" stroke="#000000" stroke-opacity="1" stroke-width="2"></path><path d="M353.4 360.5C372 377.9 382.1 369 397 360.5C384.2 379.3 377.3 387.2 394.3 407.6C365.2 393.2 364.6 402 348.8 410C357.1 395.6 367.3 381.6 353.4 360.5Z" class="" fill="url(#delapouite-cosmic-egg-gradient-12)" stroke="#000000" stroke-opacity="1" stroke-width="2"></path><path d="M161.9 380.7C166.5 396.7 169.5 411 194.1 415.6C165.8 421.8 171.7 435.6 168.3 451.6C162.3 430.5 153.9 413.5 129.9 417.4C160.4 406.4 156.6 397.6 161.9 380.7Z" class="" fill="url(#delapouite-cosmic-egg-gradient-13)" stroke="#000000" stroke-opacity="1" stroke-width="2"></path></g></g></svg>