<svg xmlns="http://www.w3.org/2000/svg" viewBox="0 0 512 512" style="height: 512px; width: 512px;"><defs><linearGradient x1="0" x2="0" y1="0" y2="1" id="delapouite-trophy-cup-gradient-1"><stop offset="0%" stop-color="#f5a623" stop-opacity="1"></stop><stop offset="100%" stop-color="#8c5b08" stop-opacity="1"></stop></linearGradient><linearGradient x1="0" x2="1" y1="0" y2="1" id="delapouite-trophy-cup-gradient-2"><stop offset="0%" stop-color="#f8e71c" stop-opacity="1"></stop><stop offset="100%" stop-color="#f5a623" stop-opacity="1"></stop></linearGradient><linearGradient x1="0" x2="1" y1="1" y2="0" id="delapouite-trophy-cup-gradient-3"><stop offset="0%" stop-color="#f5a623" stop-opacity="1"></stop><stop offset="100%" stop-color="#f8e71c" stop-opacity="1"></stop></linearGradient><linearGradient x1="0" x2="1" y1="0" y2="1" id="delapouite-trophy-cup-gradient-4"><stop offset="0%" stop-color="#f8e71c" stop-opacity="1"></stop><stop offset="100%" stop-color="#f5a623" stop-opacity="1"></stop></linearGradient><linearGradient x1="0" x2="0" y1="0" y2="1" id="delapouite-trophy-cup-gradient-5"><stop offset="0%" stop-color="#48baff" stop-opacity="1"></stop><stop offset="100%" stop-color="#4a90e2" stop-opacity="1"></stop></linearGradient><linearGradient x1="0" x2="1" y1="0" y2="1" id="delapouite-trophy-cup-gradient-6"><stop offset="0%" stop-color="#f5a623" stop-opacity="1"></stop><stop offset="100%" stop-color="#f8e71c" stop-opacity="1"></stop></linearGradient><linearGradient x1="0" x2="0" y1="0" y2="1" id="delapouite-trophy-cup-gradient-7"><stop offset="0%" stop-color="#48baff" stop-opacity="1"></stop><stop offset="100%" stop-color="#4a90e2" stop-opacity="1"></stop></linearGradient><linearGradient x1="0" x2="0" y1="0" y2="1" id="delapouite-trophy-cup-gradient-8"><stop offset="0%" stop-color="#8b572a" stop-opacity="1"></stop><stop offset="100%" stop-color="#f5a623" stop-opacity="1"></stop></linearGradient><linearGradient x1="0" x2="1" y1="0" y2="1" id="delapouite-trophy-cup-gradient-9"><stop offset="0%" stop-color="#ffffff" stop-opacity="1"></stop><stop offset="100%" stop-color="#c9c9c9" stop-opacity="1"></stop></linearGradient><linearGradient x1="0" x2="0" y1="0" y2="1" id="delapouite-trophy-cup-gradient-10"><stop offset="0%" stop-color="#f5a623" stop-opacity="1"></stop><stop offset="100%" stop-color="#ffe0af" stop-opacity="1"></stop></linearGradient><linearGradient x1="0" x2="1" y1="0" y2="1" id="delapouite-trophy-cup-gradient-11"><stop offset="0%" stop-color="#f8e71c" stop-opacity="1"></stop><stop offset="100%" stop-color="#f5a623" stop-opacity="1"></stop></linearGradient><linearGradient x1="0" x2="0" y1="0" y2="1" id="delapouite-trophy-cup-gradient-12"><stop offset="0%" stop-color="#ffffff" stop-opacity="1"></stop><stop offset="100%" stop-color="#c9c9c9" stop-opacity="1"></stop></linearGradient><linearGradient id="delapouite-trophy-cup-gradient-13"><stop offset="0%" stop-color="#d0021b" stop-opacity="1"></stop><stop offset="100%" stop-color="#e6001b" stop-opacity="1"></stop></linearGradient><linearGradient x1="0" x2="0" y1="0" y2="1" id="delapouite-trophy-cup-gradient-14"><stop offset="0%" stop-color="#ffffff" stop-opacity="1"></stop><stop offset="100%" stop-color="#c9c9c9" stop-opacity="1"></stop></linearGradient><linearGradient id="delapouite-trophy-cup-gradient-15"><stop offset="0%" stop-color="#d0021b" stop-opacity="1"></stop><stop offset="100%" stop-color="#e6001b" stop-opacity="1"></stop></linearGradient><linearGradient x1="0" x2="0" y1="0" y2="1" id="delapouite-trophy-cup-gradient-16"><stop offset="0%" stop-color="#345f02" stop-opacity="1"></stop><stop offset="100%" stop-color="#6e9d37" stop-opacity="1"></stop></linearGradient><linearGradient x1="0" x2="0" y1="0" y2="1" id="delapouite-trophy-cup-gradient-17"><stop offset="0%" stop-color="#345f02" stop-opacity="1"></stop><stop offset="100%" stop-color="#6e9d37" stop-opacity="1"></stop></linearGradient><linearGradient x1="0" x2="0" y1="0" y2="1" id="delapouite-trophy-cup-gradient-18"><stop offset="0%" stop-color="#345f02" stop-opacity="1"></stop><stop offset="100%" stop-color="#6e9d37" stop-opacity="1"></stop></linearGradient><linearGradient x1="0" x2="0" y1="0" y2="1" id="delapouite-trophy-cup-gradient-19"><stop offset="0%" stop-color="#345f02" stop-opacity="1"></stop><stop offset="100%" stop-color="#6e9d37" stop-opacity="1"></stop></linearGradient><linearGradient x1="0" x2="0" y1="0" y2="1" id="delapouite-trophy-cup-gradient-20"><stop offset="0%" stop-color="#345f02" stop-opacity="1"></stop><stop offset="100%" stop-color="#6e9d37" stop-opacity="1"></stop></linearGradient><radialGradient id="delapouite-trophy-cup-gradient-21"><stop offset="0%" stop-color="#f8e71c" stop-opacity="1"></stop><stop offset="100%" stop-color="#f5a623" stop-opacity="1"></stop></radialGradient><radialGradient id="delapouite-trophy-cup-gradient-22"><stop offset="0%" stop-color="#f8e71c" stop-opacity="1"></stop><stop offset="100%" stop-color="#f5a623" stop-opacity="1"></stop></radialGradient><radialGradient id="delapouite-trophy-cup-gradient-23"><stop offset="0%" stop-color="#f8e71c" stop-opacity="1"></stop><stop offset="100%" stop-color="#f5a623" stop-opacity="1"></stop></radialGradient><radialGradient id="delapouite-trophy-cup-gradient-24"><stop offset="0%" stop-color="#f8e71c" stop-opacity="1"></stop><stop offset="100%" stop-color="#f5a623" stop-opacity="1"></stop></radialGradient><radialGradient id="delapouite-trophy-cup-gradient-25"><stop offset="0%" stop-color="#8b7500" stop-opacity="1"></stop><stop offset="100%" stop-color="#c4a504" stop-opacity="1"></stop></radialGradient><radialGradient id="delapouite-trophy-cup-gradient-26"><stop offset="0%" stop-color="#8b7500" stop-opacity="1"></stop><stop offset="100%" stop-color="#c4a504" stop-opacity="1"></stop></radialGradient><radialGradient id="delapouite-trophy-cup-gradient-27"><stop offset="0%" stop-color="#f8e71c" stop-opacity="1"></stop><stop offset="100%" stop-color="#f5a623" stop-opacity="1"></stop></radialGradient><radialGradient id="delapouite-trophy-cup-gradient-28"><stop offset="0%" stop-color="#f8e71c" stop-opacity="1"></stop><stop offset="100%" stop-color="#f5a623" stop-opacity="1"></stop></radialGradient><radialGradient id="delapouite-trophy-cup-gradient-29"><stop offset="0%" stop-color="#f8e71c" stop-opacity="1"></stop><stop offset="100%" stop-color="#f5a623" stop-opacity="1"></stop></radialGradient><radialGradient id="delapouite-trophy-cup-gradient-30"><stop offset="0%" stop-color="#f8e71c" stop-opacity="1"></stop><stop offset="100%" stop-color="#f5a623" stop-opacity="1"></stop></radialGradient><radialGradient id="delapouite-trophy-cup-gradient-31"><stop offset="0%" stop-color="#8b7500" stop-opacity="1"></stop><stop offset="100%" stop-color="#c4a504" stop-opacity="1"></stop></radialGradient><radialGradient id="delapouite-trophy-cup-gradient-32"><stop offset="0%" stop-color="#f8e71c" stop-opacity="1"></stop><stop offset="100%" stop-color="#f5a623" stop-opacity="1"></stop></radialGradient><radialGradient id="delapouite-trophy-cup-gradient-33"><stop offset="0%" stop-color="#8b7500" stop-opacity="1"></stop><stop offset="100%" stop-color="#c4a504" stop-opacity="1"></stop></radialGradient><radialGradient id="delapouite-trophy-cup-gradient-34"><stop offset="0%" stop-color="#f8e71c" stop-opacity="1"></stop><stop offset="100%" stop-color="#f5a623" stop-opacity="1"></stop></radialGradient><radialGradient id="delapouite-trophy-cup-gradient-35"><stop offset="0%" stop-color="#f8e71c" stop-opacity="1"></stop><stop offset="100%" stop-color="#f5a623" stop-opacity="1"></stop></radialGradient><radialGradient id="delapouite-trophy-cup-gradient-36"><stop offset="0%" stop-color="#f8e71c" stop-opacity="1"></stop><stop offset="100%" stop-color="#f5a623" stop-opacity="1"></stop></radialGradient><radialGradient id="delapouite-trophy-cup-gradient-37"><stop offset="0%" stop-color="#f8e71c" stop-opacity="1"></stop><stop offset="100%" stop-color="#f5a623" stop-opacity="1"></stop></radialGradient><linearGradient x1="0" x2="1" y1="0" y2="1" id="delapouite-trophy-cup-gradient-38"><stop offset="0%" stop-color="#8b7500" stop-opacity="1"></stop><stop offset="100%" stop-color="#c4a504" stop-opacity="1"></stop></linearGradient><linearGradient x1="0" x2="1" y1="0" y2="1" id="delapouite-trophy-cup-gradient-39"><stop offset="0%" stop-color="#8b7500" stop-opacity="1"></stop><stop offset="100%" stop-color="#c4a504" stop-opacity="1"></stop></linearGradient><linearGradient x1="0" x2="1" y1="0" y2="1" id="delapouite-trophy-cup-gradient-40"><stop offset="0%" stop-color="#8b7500" stop-opacity="1"></stop><stop offset="100%" stop-color="#c4a504" stop-opacity="1"></stop></linearGradient><linearGradient x1="0" x2="1" y1="0" y2="1" id="delapouite-trophy-cup-gradient-41"><stop offset="0%" stop-color="#8b7500" stop-opacity="1"></stop><stop offset="100%" stop-color="#c4a504" stop-opacity="1"></stop></linearGradient><linearGradient x1="0" x2="1" y1="0" y2="1" id="delapouite-trophy-cup-gradient-42"><stop offset="0%" stop-color="#8b7500" stop-opacity="1"></stop><stop offset="100%" stop-color="#c4a504" stop-opacity="1"></stop></linearGradient><linearGradient x1="0" x2="1" y1="0" y2="1" id="delapouite-trophy-cup-gradient-43"><stop offset="0%" stop-color="#8b7500" stop-opacity="1"></stop><stop offset="100%" stop-color="#c4a504" stop-opacity="1"></stop></linearGradient><linearGradient x1="0" x2="1" y1="0" y2="1" id="delapouite-trophy-cup-gradient-44"><stop offset="0%" stop-color="#8b7500" stop-opacity="1"></stop><stop offset="100%" stop-color="#c4a504" stop-opacity="1"></stop></linearGradient><linearGradient x1="0" x2="1" y1="0" y2="1" id="delapouite-trophy-cup-gradient-45"><stop offset="0%" stop-color="#8b7500" stop-opacity="1"></stop><stop offset="100%" stop-color="#c4a504" stop-opacity="1"></stop></linearGradient><linearGradient x1="0" x2="1" y1="0" y2="1" id="delapouite-trophy-cup-gradient-46"><stop offset="0%" stop-color="#8b7500" stop-opacity="1"></stop><stop offset="100%" stop-color="#c4a504" stop-opacity="1"></stop></linearGradient></defs><g class="" transform="translate(0,0)" style=""><g><path d="M98.398 21.146C96.836 21.107 95.276 21.282 93.762 21.667C73.272 26.929 60.599 42.297 57.646 60.316C54.694 78.335 59.814 98.662 70.322 118.509C91.017 157.595 133.584 195.589 188.174 204.359C182.564 197.639 177.124 190.113 171.9 181.984C132.892 169.414 101.879 139.64 86.23 110.085C77.024 92.698 73.384 75.594 75.41 63.228C77.437 50.862 83.482 42.89 98.238 39.1C98.303 39.083 98.306 39.066 98.33 39.047C98.265 38.904 98.435 38.967 98.33 39.047C98.352 39.096 98.391 39.157 98.506 39.264C99.033 39.757 100.195 41.504 100.713 44.404C101.749 50.208 100.3 59.997 92.578 70.084L106.871 81.026C117.289 67.416 120.521 52.94 118.431 41.241C117.387 35.391 115.035 30.076 110.803 26.117C107.629 23.148 103.056 21.249 98.398 21.145Z" class="" fill="url(#delapouite-trophy-cup-gradient-2)" stroke="#000000" stroke-opacity="1" stroke-width="2"></path><path d="M413.602 21.146C408.944 21.25 404.372 23.149 401.197 26.118C396.965 30.078 394.613 35.392 393.568 41.242C391.479 52.941 394.711 67.416 405.128 81.027L419.422 70.085C411.7 59.998 410.251 50.209 411.287 44.405C411.805 41.505 412.967 39.758 413.494 39.265C413.567 39.205 413.627 39.132 413.67 39.048C413.565 38.968 413.735 38.905 413.67 39.048C413.694 39.067 413.697 39.084 413.762 39.101C428.518 42.891 434.563 50.861 436.59 63.228C438.616 75.594 434.976 92.698 425.77 110.085C410.121 139.64 379.108 169.415 340.1 181.984C334.877 190.113 329.435 197.639 323.826 204.359C378.416 195.589 420.983 157.595 441.678 118.509C452.186 98.662 457.306 78.335 454.354 60.316C451.401 42.296 438.728 26.929 418.238 21.667C416.724 21.282 415.164 21.107 413.602 21.146Z" class="" fill="url(#delapouite-trophy-cup-gradient-3)" stroke="#000000" stroke-opacity="1" stroke-width="2"></path><path d="M137.436 28.859C139.582 65.392 154.196 111.929 173.973 149.683C184.68 170.125 196.849 188.017 208.734 200.368C220.62 212.72 232 218.858 240 218.858L272 218.858C280 218.858 291.38 212.72 303.266 200.368C315.151 188.017 327.32 170.125 338.027 149.683C357.804 111.928 372.417 65.393 374.564 28.859L137.436 28.859Z" class="" fill="url(#delapouite-trophy-cup-gradient-4)" stroke="#000000" stroke-opacity="1" stroke-width="2"></path><path d="M233 236.859L233 252.859L279 252.859L279 236.859L233 236.859Z" class="" fill="url(#delapouite-trophy-cup-gradient-5)" stroke="#000000" stroke-opacity="1" stroke-width="2"></path><path d="M239.445 270.859C236.987 296.826 226.649 328.732 215.008 346.859L296.992 346.859C285.352 328.732 275.013 296.826 272.555 270.859L239.445 270.859Z" class="" fill="url(#delapouite-trophy-cup-gradient-6)" stroke="#000000" stroke-opacity="1" stroke-width="2"></path><path d="M201 364.859L201 378.859L311 378.859L311 364.859L201 364.859Z" class="selected" fill="url(#delapouite-trophy-cup-gradient-7)" stroke="#000000" stroke-opacity="1" stroke-width="2"></path><path d="M169 396.859L169 490.859L343 490.859L343 396.859L169 396.859Z" class="" fill="url(#delapouite-trophy-cup-gradient-8)" stroke="#000000" stroke-opacity="1" stroke-width="2"></path><path d="M192 419.859L320 419.859L320 467.859L192 467.859L192 419.859Z" class="" fill="url(#delapouite-trophy-cup-gradient-9)" stroke="#000000" stroke-opacity="1" stroke-width="2"></path></g></g><g class="" transform="translate(255,276)" style=""><g transform="translate(252.8, 3.2) scale(-0.9, 0.9) rotate(0, 128, 128)"><circle cx="128" cy="128" r="128" fill="#000000" fill-opacity="1"></circle><circle stroke="#ffffff" stroke-opacity="1" fill="#000000" fill-opacity="1" stroke-width="18" cx="128" cy="128" r="101"></circle><path fill="#ffffff" fill-opacity="1" d="MZ"></path></g></g><g font-family="Arial, Helvetica, sans-serif" font-size="114" font-style="normal" font-weight="bold" text-anchor="middle" text-decoration=" rgba(255, 255, 255, 1)" class="" transform="translate(395,429)" style=""><g transform="translate(0, 0) scale(0.9, 0.9) rotate(0, 0, 0) skewX(0) skewY(0)"><text stroke="rgba(0, 0, 0, 1)" stroke-width="28.5"><tspan x="0" y="0">22</tspan></text><text fill="rgba(255, 255, 255, 1)"><tspan x="0" y="0">22</tspan></text></g></g></svg>