<svg xmlns="http://www.w3.org/2000/svg" viewBox="0 0 512 512" style="height: 512px; width: 512px;"><defs><linearGradient x1="0" x2="1" y1="0" y2="1" id="delapouite-plain-circle-gradient-2"><stop offset="0%" stop-color="#ffffff" stop-opacity="1"></stop><stop offset="100%" stop-color="#a5caf5" stop-opacity="1"></stop></linearGradient><linearGradient x1="0" x2="1" y1="1" y2="0" id="delapouite-plain-circle-gradient-3"><stop offset="0%" stop-color="#4a4a4a" stop-opacity="1"></stop><stop offset="100%" stop-color="#1b1b1b" stop-opacity="1"></stop></linearGradient><linearGradient x1="0" x2="1" y1="1" y2="0" id="delapouite-plain-circle-gradient-4"><stop offset="0%" stop-color="#f8e71c" stop-opacity="1"></stop><stop offset="100%" stop-color="#f5a623" stop-opacity="1"></stop></linearGradient><linearGradient x1="0" x2="1" y1="1" y2="0" id="delapouite-plain-circle-gradient-5"><stop offset="0%" stop-color="#4a4a4a" stop-opacity="1"></stop><stop offset="100%" stop-color="#000000" stop-opacity="1"></stop></linearGradient><linearGradient x1="0" x2="1" y1="1" y2="0" id="delapouite-plain-circle-gradient-7"><stop offset="0%" stop-color="#4a4a4a" stop-opacity="1"></stop><stop offset="100%" stop-color="#000000" stop-opacity="1"></stop></linearGradient><linearGradient x1="0" x2="1" y1="1" y2="0" id="delapouite-plain-circle-gradient-8"><stop offset="0%" stop-color="#4a4a4a" stop-opacity="1"></stop><stop offset="100%" stop-color="#000000" stop-opacity="1"></stop></linearGradient><linearGradient x1="0" x2="1" y1="1" y2="0" id="delapouite-plain-circle-gradient-9"><stop offset="0%" stop-color="#4a4a4a" stop-opacity="1"></stop><stop offset="100%" stop-color="#000000" stop-opacity="1"></stop></linearGradient><linearGradient x1="0" x2="1" y1="1" y2="0" id="delapouite-plain-circle-gradient-10"><stop offset="0%" stop-color="#4a4a4a" stop-opacity="1"></stop><stop offset="100%" stop-color="#000000" stop-opacity="1"></stop></linearGradient></defs><g class="" transform="translate(0,0)" style=""><g><path d="M256 23.05C127.5 23.05 23.05 127.5 23.05 256C23.05 384.5 127.5 488.9 256 488.9C384.5 488.9 488.9 384.5 488.9 256C488.9 127.5 384.5 23.05 256 23.05Z" class="selected" fill="url(#delapouite-plain-circle-gradient-2)" stroke="#000000" stroke-opacity="1" stroke-width="2"></path></g></g></svg>