<svg xmlns="http://www.w3.org/2000/svg" viewBox="0 0 512 512" style="height: 512px; width: 512px;"><defs><radialGradient id="delapouite-stabbed-note-gradient-1"><stop offset="0%" stop-color="#8b572a" stop-opacity="1"></stop><stop offset="100%" stop-color="#b57204" stop-opacity="1"></stop></radialGradient><radialGradient id="delapouite-stabbed-note-gradient-2"><stop offset="0%" stop-color="#d0021b" stop-opacity="1"></stop><stop offset="100%" stop-color="#9e081a" stop-opacity="1"></stop></radialGradient><radialGradient id="delapouite-stabbed-note-gradient-3"><stop offset="0%" stop-color="#7ed321" stop-opacity="1"></stop><stop offset="100%" stop-color="#417505" stop-opacity="1"></stop></radialGradient><radialGradient id="delapouite-stabbed-note-gradient-4"><stop offset="0%" stop-color="#d0021b" stop-opacity="1"></stop><stop offset="100%" stop-color="#9e081a" stop-opacity="1"></stop></radialGradient><radialGradient id="delapouite-stabbed-note-gradient-5"><stop offset="0%" stop-color="#ffe0af" stop-opacity="1"></stop><stop offset="100%" stop-color="#e2c093" stop-opacity="1"></stop></radialGradient><radialGradient id="delapouite-stabbed-note-gradient-6"><stop offset="0%" stop-color="#ffe0af" stop-opacity="1"></stop><stop offset="100%" stop-color="#e2c093" stop-opacity="1"></stop></radialGradient><radialGradient id="delapouite-stabbed-note-gradient-7"><stop offset="0%" stop-color="#c9c9c9" stop-opacity="1"></stop><stop offset="100%" stop-color="#9b9b9b" stop-opacity="1"></stop></radialGradient><radialGradient id="delapouite-stabbed-note-gradient-8"><stop offset="0%" stop-color="#4a4a4a" stop-opacity="1"></stop><stop offset="100%" stop-color="#000000" stop-opacity="1"></stop></radialGradient><radialGradient id="delapouite-stabbed-note-gradient-9"><stop offset="0%" stop-color="#9b9b9b" stop-opacity="1"></stop><stop offset="100%" stop-color="#000000" stop-opacity="1"></stop></radialGradient><radialGradient id="delapouite-stabbed-note-gradient-10"><stop offset="0%" stop-color="#c9c9c9" stop-opacity="1"></stop><stop offset="100%" stop-color="#000000" stop-opacity="1"></stop></radialGradient><radialGradient id="delapouite-stabbed-note-gradient-11"><stop offset="0%" stop-color="#4a4a4a" stop-opacity="1"></stop><stop offset="100%" stop-color="#000000" stop-opacity="1"></stop></radialGradient><radialGradient id="delapouite-stabbed-note-gradient-12"><stop offset="0%" stop-color="#9b9b9b" stop-opacity="1"></stop><stop offset="100%" stop-color="#000000" stop-opacity="1"></stop></radialGradient><radialGradient id="delapouite-stabbed-note-gradient-13"><stop offset="0%" stop-color="#4a4a4a" stop-opacity="1"></stop><stop offset="100%" stop-color="#000000" stop-opacity="1"></stop></radialGradient><radialGradient id="delapouite-stabbed-note-gradient-14"><stop offset="0%" stop-color="#f8e71c" stop-opacity="1"></stop><stop offset="100%" stop-color="#f5a623" stop-opacity="1"></stop></radialGradient><radialGradient id="delapouite-stabbed-note-gradient-15"><stop offset="0%" stop-color="#ffe0af" stop-opacity="1"></stop><stop offset="100%" stop-color="#e2c093" stop-opacity="1"></stop></radialGradient><radialGradient id="delapouite-stabbed-note-gradient-16"><stop offset="0%" stop-color="#ffe0af" stop-opacity="1"></stop><stop offset="100%" stop-color="#e2c093" stop-opacity="1"></stop></radialGradient><radialGradient id="delapouite-stabbed-note-gradient-17"><stop offset="0%" stop-color="#4a4a4a" stop-opacity="1"></stop><stop offset="100%" stop-color="#000000" stop-opacity="1"></stop></radialGradient><radialGradient id="delapouite-stabbed-note-gradient-18"><stop offset="0%" stop-color="#48baff" stop-opacity="1"></stop><stop offset="100%" stop-color="#4a90e2" stop-opacity="1"></stop></radialGradient><radialGradient id="delapouite-stabbed-note-gradient-19"><stop offset="0%" stop-color="#48baff" stop-opacity="1"></stop><stop offset="100%" stop-color="#4a90e2" stop-opacity="1"></stop></radialGradient><radialGradient id="delapouite-stabbed-note-gradient-22"><stop offset="0%" stop-color="#fc88fc" stop-opacity="1"></stop><stop offset="100%" stop-color="#bd10e0" stop-opacity="1"></stop></radialGradient><radialGradient id="delapouite-stabbed-note-gradient-25"><stop offset="0%" stop-color="#9b9b9b" stop-opacity="1"></stop><stop offset="100%" stop-color="#4a4a4a" stop-opacity="1"></stop></radialGradient><radialGradient id="delapouite-stabbed-note-gradient-26"><stop offset="0%" stop-color="#9b9b9b" stop-opacity="1"></stop><stop offset="100%" stop-color="#4a4a4a" stop-opacity="1"></stop></radialGradient><radialGradient id="delapouite-stabbed-note-gradient-27"><stop offset="0%" stop-color="#9b9b9b" stop-opacity="1"></stop><stop offset="100%" stop-color="#4a4a4a" stop-opacity="1"></stop></radialGradient><radialGradient id="delapouite-stabbed-note-gradient-28"><stop offset="0%" stop-color="#9b9b9b" stop-opacity="1"></stop><stop offset="100%" stop-color="#4a4a4a" stop-opacity="1"></stop></radialGradient><radialGradient id="delapouite-stabbed-note-gradient-29"><stop offset="0%" stop-color="#9b9b9b" stop-opacity="1"></stop><stop offset="100%" stop-color="#4a4a4a" stop-opacity="1"></stop></radialGradient><radialGradient id="delapouite-stabbed-note-gradient-30"><stop offset="0%" stop-color="#9b9b9b" stop-opacity="1"></stop><stop offset="100%" stop-color="#4a4a4a" stop-opacity="1"></stop></radialGradient><radialGradient id="delapouite-stabbed-note-gradient-31"><stop offset="0%" stop-color="#9b9b9b" stop-opacity="1"></stop><stop offset="100%" stop-color="#4a4a4a" stop-opacity="1"></stop></radialGradient><radialGradient id="delapouite-stabbed-note-gradient-32"><stop offset="0%" stop-color="#9b9b9b" stop-opacity="1"></stop><stop offset="100%" stop-color="#4a4a4a" stop-opacity="1"></stop></radialGradient><radialGradient id="delapouite-stabbed-note-gradient-33"><stop offset="0%" stop-color="#9b9b9b" stop-opacity="1"></stop><stop offset="100%" stop-color="#4a4a4a" stop-opacity="1"></stop></radialGradient><radialGradient id="delapouite-stabbed-note-gradient-34"><stop offset="0%" stop-color="#9b9b9b" stop-opacity="1"></stop><stop offset="100%" stop-color="#4a4a4a" stop-opacity="1"></stop></radialGradient><radialGradient id="delapouite-stabbed-note-gradient-35"><stop offset="0%" stop-color="#9b9b9b" stop-opacity="1"></stop><stop offset="100%" stop-color="#4a4a4a" stop-opacity="1"></stop></radialGradient><radialGradient id="delapouite-stabbed-note-gradient-36"><stop offset="0%" stop-color="#9b9b9b" stop-opacity="1"></stop><stop offset="100%" stop-color="#4a4a4a" stop-opacity="1"></stop></radialGradient><radialGradient id="delapouite-stabbed-note-gradient-37"><stop offset="0%" stop-color="#9b9b9b" stop-opacity="1"></stop><stop offset="100%" stop-color="#4a4a4a" stop-opacity="1"></stop></radialGradient></defs><g class="" transform="translate(0,-1)" style=""><g><path d="M453.295 17.117C452.749 24.349 454.914 32.595 459.252 39.729C463.59 46.862 469.918 52.576 476.59 55.419C486.245 44.213 471.107 17.445 456.498 16.795C455.408 16.725 454.244 16.932 453.295 17.117Z" class="" fill="url(#delapouite-stabbed-note-gradient-2)" stroke="#000000" stroke-opacity="1" stroke-width="2"></path><path d="M341.748 25.497L329.492 49.61L390.51 149.936L416.137 147.809L429.813 126.032L420.75 111.132L393.41 127.76L355.479 65.389L350.8 57.7L378.14 41.072L368.794 25.704Z" class="selected" fill="url(#delapouite-stabbed-note-gradient-3)" stroke="#000000" stroke-opacity="1" stroke-width="2"></path><path d="M435.725 27.117L375.531 63.727L399.436 103.03L459.629 66.42C453.284 61.816 447.953 55.785 443.875 49.08C439.797 42.376 436.894 34.87 435.725 27.117Z" class="" fill="url(#delapouite-stabbed-note-gradient-4)" stroke="#000000" stroke-opacity="1" stroke-width="2"></path><path d="M310.715 46.828L149.068 49.448C159.471 73.484 156.56 96.645 144.68 115.096C126.022 100.859 100.339 99.722 81.273 97.379C67.213 221.206 75.053 323.346 75.002 439.528C74.998 448.997 73.845 462.648 79.828 472.475C81.715 475.575 84.198 478.403 87.957 480.817C105.665 474.611 129.362 468.377 142.827 458.543C135.876 457.718 128.072 459.495 121.689 459.498C113.231 459.458 102.545 453.388 96.941 440.002C94.022 433.029 90.305 421.809 96.76 410.93C99.598 406.145 106.143 400.628 111.02 400.602C205.671 401.106 302.412 400.282 390.588 400.756C385.065 323.905 380.575 246.66 385.058 168.448L380.912 168.791L366.07 144.387L299.203 185.055L305.984 195.653L290.822 205.352L231.725 112.981L246.885 103.281L255 115.966L323.46 74.329L311.51 54.679L308.904 50.394Z" class="" fill="url(#delapouite-stabbed-note-gradient-5)" stroke="#000000" stroke-opacity="1" stroke-width="2"></path><path d="M130.545 51.211C115.179 59.424 101.443 68.913 89.555 79.918C105.722 81.413 123.295 82.981 138.195 89.868C141.334 76.032 134.948 62.972 130.545 51.211Z" class="" fill="url(#delapouite-stabbed-note-gradient-6)" stroke="#000000" stroke-opacity="1" stroke-width="2"></path><path d="M332.813 89.705L266.168 130.239L273.443 142.201L306.768 121.936L316.119 137.313L282.797 157.58L290.074 169.543L356.717 129.01Z" class="" fill="url(#delapouite-stabbed-note-gradient-7)" stroke="#000000" stroke-opacity="1" stroke-width="2"></path><path d="M201.41 136.278L201.855 154.27C171.333 154.523 143.235 156.299 111.842 156.38L111.842 138.38C141.699 137.717 171.555 137.016 201.41 136.277Z" class="" fill="url(#delapouite-stabbed-note-gradient-8)" stroke="#000000" stroke-opacity="1" stroke-width="2"></path><path d="M346.393 215.258L346.633 233.254L112.287 236.397L112.045 218.401Z" class="" fill="url(#delapouite-stabbed-note-gradient-9)" stroke="#000000" stroke-opacity="1" stroke-width="2"></path><path d="M346.471 255.942L346.879 273.934L223.225 276.744L222.815 258.75Z" class="" fill="url(#delapouite-stabbed-note-gradient-10)" stroke="#000000" stroke-opacity="1" stroke-width="2"></path><path d="M111.293 259.039L201.895 259.039L201.895 277.037L111.293 277.037Z" class="" fill="url(#delapouite-stabbed-note-gradient-11)" stroke="#000000" stroke-opacity="1" stroke-width="2"></path><path d="M346.088 292.276L346.494 310.268L284.336 311.674L283.93 293.68Z" class="" fill="url(#delapouite-stabbed-note-gradient-12)" stroke="#000000" stroke-opacity="1" stroke-width="2"></path><path d="M262.402 293.731L262.74 311.727L112.44 314.535L112.103 296.541Z" class="" fill="url(#delapouite-stabbed-note-gradient-13)" stroke="#000000" stroke-opacity="1" stroke-width="2"></path><path d="M348.348 346.537L348.75 364.532L223.103 367.34L222.701 349.348Z" class="" fill="url(#delapouite-stabbed-note-gradient-14)" stroke="#000000" stroke-opacity="1" stroke-width="2"></path><path d="M152.025 417.327C162.075 426.588 169.95 439.392 167.103 454.045C165.029 464.727 156.681 471.651 147.289 477.151C137.897 482.651 126.514 487.017 114.777 491.065C110.704 492.469 106.625 493.853 102.539 495.219L403.926 487.547C411.698 487.097 418.584 481.887 423.66 474.141C428.742 466.387 431.137 456.324 430.555 450.905C429.972 445.486 425.698 436.228 419.582 429.425C413.466 422.62 406.035 418.601 400.557 418.807L400.359 418.815Z" class="" fill="url(#delapouite-stabbed-note-gradient-15)" stroke="#000000" stroke-opacity="1" stroke-width="2"></path><path d="M112.24 420.114C111.17 421.916 111.774 428.828 113.543 433.053C117.263 441.94 119.571 441.49 121.775 441.5C130.652 443.602 139.122 441.769 147.625 440.475C145.572 436.352 142.342 431.771 137.342 428.362C133.222 425.553 116.667 412.728 112.24 420.114Z" class="" fill="url(#delapouite-stabbed-note-gradient-16)" stroke="#000000" stroke-opacity="1" stroke-width="2"></path></g></g></svg>