<svg xmlns="http://www.w3.org/2000/svg" viewBox="0 0 512 512" style="height: 512px; width: 512px;"><defs><linearGradient x1="0" x2="0" y1="0" y2="1" id="delapouite-secret-book-gradient-1"><stop offset="0%" stop-color="#f5a623" stop-opacity="1"></stop><stop offset="100%" stop-color="#8c5b08" stop-opacity="1"></stop></linearGradient><linearGradient x1="0" x2="1" y1="1" y2="0" id="delapouite-secret-book-gradient-2"><stop offset="0%" stop-color="#b8e986" stop-opacity="1"></stop><stop offset="100%" stop-color="#274900" stop-opacity="1"></stop></linearGradient><linearGradient id="delapouite-secret-book-gradient-3"><stop offset="0%" stop-color="#417505" stop-opacity="1"></stop><stop offset="100%" stop-color="#274900" stop-opacity="1"></stop></linearGradient><linearGradient x1="0" x2="1" y1="1" y2="0" id="delapouite-secret-book-gradient-4"><stop offset="0%" stop-color="#417505" stop-opacity="1"></stop><stop offset="100%" stop-color="#274900" stop-opacity="1"></stop></linearGradient><radialGradient id="delapouite-secret-book-gradient-5"><stop offset="0%" stop-color="#f8e71c" stop-opacity="1"></stop><stop offset="100%" stop-color="#f5a623" stop-opacity="1"></stop></radialGradient><linearGradient id="delapouite-secret-book-gradient-7"><stop offset="0%" stop-color="#b57204" stop-opacity="1"></stop><stop offset="100%" stop-color="#8b572a" stop-opacity="1"></stop></linearGradient><linearGradient x1="0" x2="1" y1="1" y2="0" id="delapouite-secret-book-gradient-8"><stop offset="0%" stop-color="#b57204" stop-opacity="1"></stop><stop offset="100%" stop-color="#8b572a" stop-opacity="1"></stop></linearGradient><linearGradient id="delapouite-secret-book-gradient-9"><stop offset="0%" stop-color="#8b572a" stop-opacity="1"></stop><stop offset="100%" stop-color="#b57204" stop-opacity="1"></stop></linearGradient><linearGradient x1="0" x2="1" y1="0" y2="1" id="delapouite-secret-book-gradient-10"><stop offset="0%" stop-color="#b8e986" stop-opacity="1"></stop><stop offset="100%" stop-color="#274900" stop-opacity="1"></stop></linearGradient><linearGradient id="delapouite-secret-book-gradient-11"><stop offset="0%" stop-color="#417505" stop-opacity="1"></stop><stop offset="100%" stop-color="#274900" stop-opacity="1"></stop></linearGradient><linearGradient id="delapouite-secret-book-gradient-12"><stop offset="0%" stop-color="#417505" stop-opacity="1"></stop><stop offset="100%" stop-color="#274900" stop-opacity="1"></stop></linearGradient><linearGradient id="delapouite-secret-book-gradient-13"><stop offset="0%" stop-color="#e2c093" stop-opacity="1"></stop><stop offset="100%" stop-color="#ffe0af" stop-opacity="1"></stop></linearGradient><radialGradient id="delapouite-secret-book-gradient-14"><stop offset="0%" stop-color="#4a4a4a" stop-opacity="1"></stop><stop offset="100%" stop-color="#000000" stop-opacity="1"></stop></radialGradient><radialGradient id="delapouite-secret-book-gradient-15"><stop offset="0%" stop-color="#4a4a4a" stop-opacity="1"></stop><stop offset="100%" stop-color="#000000" stop-opacity="1"></stop></radialGradient><radialGradient id="delapouite-secret-book-gradient-16"><stop offset="0%" stop-color="#4a4a4a" stop-opacity="1"></stop><stop offset="100%" stop-color="#000000" stop-opacity="1"></stop></radialGradient><radialGradient id="delapouite-secret-book-gradient-17"><stop offset="0%" stop-color="#4a4a4a" stop-opacity="1"></stop><stop offset="100%" stop-color="#000000" stop-opacity="1"></stop></radialGradient><linearGradient x1="0" x2="0" y1="0" y2="1" id="delapouite-secret-book-gradient-18"><stop offset="0%" stop-color="#8b572a" stop-opacity="1"></stop><stop offset="100%" stop-color="#b57204" stop-opacity="1"></stop></linearGradient><linearGradient x1="0" x2="0" y1="0" y2="1" id="delapouite-secret-book-gradient-19"><stop offset="0%" stop-color="#345f02" stop-opacity="1"></stop><stop offset="100%" stop-color="#6e9d37" stop-opacity="1"></stop></linearGradient><linearGradient x1="0" x2="0" y1="0" y2="1" id="delapouite-secret-book-gradient-20"><stop offset="0%" stop-color="#345f02" stop-opacity="1"></stop><stop offset="100%" stop-color="#6e9d37" stop-opacity="1"></stop></linearGradient><radialGradient id="delapouite-secret-book-gradient-21"><stop offset="0%" stop-color="#f8e71c" stop-opacity="1"></stop><stop offset="100%" stop-color="#f5a623" stop-opacity="1"></stop></radialGradient><radialGradient id="delapouite-secret-book-gradient-22"><stop offset="0%" stop-color="#f8e71c" stop-opacity="1"></stop><stop offset="100%" stop-color="#f5a623" stop-opacity="1"></stop></radialGradient><radialGradient id="delapouite-secret-book-gradient-23"><stop offset="0%" stop-color="#f8e71c" stop-opacity="1"></stop><stop offset="100%" stop-color="#f5a623" stop-opacity="1"></stop></radialGradient><radialGradient id="delapouite-secret-book-gradient-24"><stop offset="0%" stop-color="#f8e71c" stop-opacity="1"></stop><stop offset="100%" stop-color="#f5a623" stop-opacity="1"></stop></radialGradient><radialGradient id="delapouite-secret-book-gradient-25"><stop offset="0%" stop-color="#8b7500" stop-opacity="1"></stop><stop offset="100%" stop-color="#c4a504" stop-opacity="1"></stop></radialGradient><radialGradient id="delapouite-secret-book-gradient-26"><stop offset="0%" stop-color="#8b7500" stop-opacity="1"></stop><stop offset="100%" stop-color="#c4a504" stop-opacity="1"></stop></radialGradient><radialGradient id="delapouite-secret-book-gradient-27"><stop offset="0%" stop-color="#f8e71c" stop-opacity="1"></stop><stop offset="100%" stop-color="#f5a623" stop-opacity="1"></stop></radialGradient><radialGradient id="delapouite-secret-book-gradient-28"><stop offset="0%" stop-color="#f8e71c" stop-opacity="1"></stop><stop offset="100%" stop-color="#f5a623" stop-opacity="1"></stop></radialGradient><radialGradient id="delapouite-secret-book-gradient-29"><stop offset="0%" stop-color="#f8e71c" stop-opacity="1"></stop><stop offset="100%" stop-color="#f5a623" stop-opacity="1"></stop></radialGradient><radialGradient id="delapouite-secret-book-gradient-30"><stop offset="0%" stop-color="#f8e71c" stop-opacity="1"></stop><stop offset="100%" stop-color="#f5a623" stop-opacity="1"></stop></radialGradient><radialGradient id="delapouite-secret-book-gradient-31"><stop offset="0%" stop-color="#8b7500" stop-opacity="1"></stop><stop offset="100%" stop-color="#c4a504" stop-opacity="1"></stop></radialGradient><radialGradient id="delapouite-secret-book-gradient-32"><stop offset="0%" stop-color="#f8e71c" stop-opacity="1"></stop><stop offset="100%" stop-color="#f5a623" stop-opacity="1"></stop></radialGradient><radialGradient id="delapouite-secret-book-gradient-33"><stop offset="0%" stop-color="#8b7500" stop-opacity="1"></stop><stop offset="100%" stop-color="#c4a504" stop-opacity="1"></stop></radialGradient><radialGradient id="delapouite-secret-book-gradient-34"><stop offset="0%" stop-color="#f8e71c" stop-opacity="1"></stop><stop offset="100%" stop-color="#f5a623" stop-opacity="1"></stop></radialGradient><radialGradient id="delapouite-secret-book-gradient-35"><stop offset="0%" stop-color="#f8e71c" stop-opacity="1"></stop><stop offset="100%" stop-color="#f5a623" stop-opacity="1"></stop></radialGradient><radialGradient id="delapouite-secret-book-gradient-36"><stop offset="0%" stop-color="#f8e71c" stop-opacity="1"></stop><stop offset="100%" stop-color="#f5a623" stop-opacity="1"></stop></radialGradient><radialGradient id="delapouite-secret-book-gradient-37"><stop offset="0%" stop-color="#f8e71c" stop-opacity="1"></stop><stop offset="100%" stop-color="#f5a623" stop-opacity="1"></stop></radialGradient><linearGradient x1="0" x2="1" y1="0" y2="1" id="delapouite-secret-book-gradient-38"><stop offset="0%" stop-color="#8b7500" stop-opacity="1"></stop><stop offset="100%" stop-color="#c4a504" stop-opacity="1"></stop></linearGradient><linearGradient x1="0" x2="1" y1="0" y2="1" id="delapouite-secret-book-gradient-39"><stop offset="0%" stop-color="#8b7500" stop-opacity="1"></stop><stop offset="100%" stop-color="#c4a504" stop-opacity="1"></stop></linearGradient><linearGradient x1="0" x2="1" y1="0" y2="1" id="delapouite-secret-book-gradient-40"><stop offset="0%" stop-color="#8b7500" stop-opacity="1"></stop><stop offset="100%" stop-color="#c4a504" stop-opacity="1"></stop></linearGradient><linearGradient x1="0" x2="1" y1="0" y2="1" id="delapouite-secret-book-gradient-41"><stop offset="0%" stop-color="#8b7500" stop-opacity="1"></stop><stop offset="100%" stop-color="#c4a504" stop-opacity="1"></stop></linearGradient><linearGradient x1="0" x2="1" y1="0" y2="1" id="delapouite-secret-book-gradient-42"><stop offset="0%" stop-color="#8b7500" stop-opacity="1"></stop><stop offset="100%" stop-color="#c4a504" stop-opacity="1"></stop></linearGradient><linearGradient x1="0" x2="1" y1="0" y2="1" id="delapouite-secret-book-gradient-43"><stop offset="0%" stop-color="#8b7500" stop-opacity="1"></stop><stop offset="100%" stop-color="#c4a504" stop-opacity="1"></stop></linearGradient><linearGradient x1="0" x2="1" y1="0" y2="1" id="delapouite-secret-book-gradient-44"><stop offset="0%" stop-color="#8b7500" stop-opacity="1"></stop><stop offset="100%" stop-color="#c4a504" stop-opacity="1"></stop></linearGradient><linearGradient x1="0" x2="1" y1="0" y2="1" id="delapouite-secret-book-gradient-45"><stop offset="0%" stop-color="#8b7500" stop-opacity="1"></stop><stop offset="100%" stop-color="#c4a504" stop-opacity="1"></stop></linearGradient><linearGradient x1="0" x2="1" y1="0" y2="1" id="delapouite-secret-book-gradient-46"><stop offset="0%" stop-color="#8b7500" stop-opacity="1"></stop><stop offset="100%" stop-color="#c4a504" stop-opacity="1"></stop></linearGradient></defs><g class="" transform="translate(0,0)" style=""><g transform="translate(512, 512) scale(-1, -1) rotate(180, 256, 256) skewX(0) skewY(0)"><path d="M101.1 24.88L135.5 157L223.6 161.8L220.6 144.6L218.7 133.4L342 140.8L346.9 168.6L422.8 172.8L390.3 48.18L101.1 24.88Z" class="" fill="url(#delapouite-secret-book-gradient-2)" stroke="#000000" stroke-opacity="1" stroke-width="2"></path><path d="M82.28 26.48C51.78 38.38 26.58 79.58 32.48 101.8L35.78 113.6C36.38 111.8 37.08 110.1 37.88 108.3C47.78 84.58 64.38 61.48 88.18 49.38L82.28 26.48Z" class="" fill="url(#delapouite-secret-book-gradient-3)" stroke="#000000" stroke-opacity="1" stroke-width="2"></path><path d="M93.08 68.08C76.38 78.08 63.18 96.18 55.08 115.5C49.88 128 47.08 141.1 46.38 152L63.84 215.5C76.64 194.3 94.03 173.2 117.8 163.1L93.08 68.08Z" class="" fill="url(#delapouite-secret-book-gradient-4)" stroke="#000000" stroke-opacity="1" stroke-width="2"></path><path d="M240.3 152.8L260.5 270.2L347.5 274.5L326.8 158L240.3 152.8Z" class="" fill="url(#delapouite-secret-book-gradient-5)" stroke="#000000" stroke-opacity="1" stroke-width="2"></path><path d="M287.1 174C287.893 173.965 288.694 173.965 289.5 174C302.972 174.576 315.169 184.621 316.7 196.4C317.866 205.275 312.604 212.929 303.5 215.6L324.3 253.1L275.6 250.9L286.5 214.8C276.573 211.288 269.198 203.076 268 194.2C266.54 183.266 274.8 174.531 287.1 174Z" class="" fill="#000000" stroke="#000000" stroke-opacity="1" stroke-width="2" fill-opacity="1"></path><path d="M140.3 175.3L155.3 232.9L236.5 236.3L226.7 180.1L140.3 175.3Z" class="" fill="url(#delapouite-secret-book-gradient-7)" stroke="#000000" stroke-opacity="1" stroke-width="2"></path><path d="M122.4 180.9C100.6 191.5 82.88 217.2 70.67 240.3L83.13 285.6C93.4 269.9 107.1 252.8 136.7 235.7L122.4 180.9Z" class="" fill="url(#delapouite-secret-book-gradient-8)" stroke="#000000" stroke-opacity="1" stroke-width="2"></path><path d="M350.2 186.8L359.9 241.5L441.6 245L427.5 191.1L350.2 186.8Z" class="" fill="url(#delapouite-secret-book-gradient-9)" stroke="#000000" stroke-opacity="1" stroke-width="2"></path><path d="M160 251.1L191.2 370.7L480.4 393.9L446.4 263.3L363.1 259.8L369.1 293.7L245.3 287.4L239.6 254.5L160 251.1Z" class="" fill="url(#delapouite-secret-book-gradient-10)" stroke="#000000" stroke-opacity="1" stroke-width="2"></path><path d="M141.4 253.8C109.4 273.2 101.7 289.7 89.61 309.2L111.1 387.3C111.4 386.8 111.7 386.2 112 385.7C122.6 366.4 139.8 348 163.1 337.2L141.4 253.8Z" class="" fill="url(#delapouite-secret-book-gradient-11)" stroke="#000000" stroke-opacity="1" stroke-width="2"></path><path d="M168 355.7C150.3 364.8 136.8 379.4 128.4 394.7C123.9 402.8 121.1 411 119.7 418.4L131.4 460.8L133 461C129.2 433.4 144.4 400.5 174.3 379.9L168 355.7Z" class="" fill="url(#delapouite-secret-book-gradient-12)" stroke="#000000" stroke-opacity="1" stroke-width="2"></path><path d="M194.3 389.7C161.7 407 147.8 442.1 152.5 462.6L442.3 487.1C437 479.3 433.6 469.2 433.7 458.6L411.3 449.6L457.6 442.3L444.1 429.5C449.7 422.5 457.8 416.4 469 411.8L194.3 389.7Z" class="selected" fill="url(#delapouite-secret-book-gradient-13)" stroke="#000000" stroke-opacity="1" stroke-width="2"></path></g></g></svg>