<svg xmlns="http://www.w3.org/2000/svg" viewBox="0 0 512 512" style="height: 512px; width: 512px;"><defs><radialGradient id="gradient-1"><stop offset="0%" stop-color="#ba6f00" stop-opacity="1"></stop><stop offset="100%" stop-color="#825819" stop-opacity="1"></stop></radialGradient></defs><g class="" transform="translate(0,0)" style="touch-action: none;"><path d="M457.03 213.037L416.514 100.24C425 77.232 433.27 68.075 437.527 64.633c3.162-2.563 5.922-3.534 8.185-2.904 4.134 1.168 8.775 7.7 12.278 17.456 11.266 31.347 10.377 87.094-.96 133.85zm-324.287-17.9l312.804 34.84-43.82-122.1L145.558 79.34c2.593 36.102-1.913 79.913-12.817 115.796zM128.98 77.5l-45.06-5.02 37.03 103.123c7.773-32.06 10.625-68.357 8.03-98.102zM101.46 27.19c-3.793 3.1-10.77 10.666-18.25 28.566L402.23 91.3c5.333-13.695 11.37-24.702 17.88-32.495L108.796 24.13c-2.573-.29-5.415 1.51-7.338 3.06zm280.63 283.338l.61 169.352 66.352-53.63-.61-169.35zM366.163 487.9L46.62 452.306 46 278.396l319.553 35.594zM216.726 337.648a9.777 9.777 0 0 0 5.168-9.405c-.248-6.367-5.364-12.092-11.43-12.857h-.125c-6.14-.693-10.904 3.927-10.646 10.335a13.973 13.973 0 0 0 5.767 10.543l-2.17 25.073 17.57 2.005zm219.28-91.983l-307.46-34.25v59.54l242.712 27.037zM58.31 263.13l54.34 6.058v-49.98z" fill="url(#gradient-1)" stroke="#000000" stroke-opacity="1" stroke-width="3" transform="translate(512, 512) scale(-1, -1) rotate(525, 256, 256)"></path></g><g class="" transform="translate(301,299)" style="touch-action: none;"><g transform="translate(6.4, 6.4) scale(0.8, 0.8) rotate(-360, 128, 128)"><circle cx="128" cy="128" r="128" fill="#000000" fill-opacity="1"></circle><circle stroke="#f8e71c" stroke-opacity="1" fill="#000000" fill-opacity="1" stroke-width="18" cx="128" cy="128" r="101"></circle><path fill="#f8e71c" fill-opacity="1" d="M150.094 59.7L139.07 78.695c-7.27-1.615-15.652-1.322-22.142.234l-10.791-19.054L80.33 74.858 91.5 94.554a48.133 48.133 0 0 0-9.938 18.63l-23.52.105-.197 29.834 25.035-.119a49.2 49.2 0 0 0 9.666 15.859L79.5 181.36l25.61 14.852 13.108-22.596a47.62 47.62 0 0 0 18.542.3l13.102 22.58 25.623-15.283c-4.08-7.22-8.161-14.44-12.244-21.66a48.554 48.554 0 0 0 10.252-16.378l24.464-.092.198-29.834-23.235-.156a48.717 48.717 0 0 0-10.387-19.304l11.172-19.24zm-19.705 44.292c12.71 1.043 22.352 12.16 21.787 25.043-.584 13.297-11.839 23.598-25.137 23.015-13.3-.582-23.855-11.836-23.018-25.121.905-14.35 13.161-24.021 26.368-22.937z"></path></g></g></svg>