<svg xmlns="http://www.w3.org/2000/svg" viewBox="0 0 512 512" style="height: 512px; width: 512px;"><defs><radialGradient id="gradient-1"><stop offset="0%" stop-color="#bab8b8" stop-opacity="1"></stop><stop offset="100%" stop-color="#434343" stop-opacity="1"></stop></radialGradient><radialGradient id="gradient-2"><stop offset="0%" stop-color="#f8e71c" stop-opacity="1"></stop><stop offset="100%" stop-color="#f5a623" stop-opacity="1"></stop></radialGradient><radialGradient id="gradient-3"><stop offset="0%" stop-color="#bab8b8" stop-opacity="1"></stop><stop offset="100%" stop-color="#434343" stop-opacity="1"></stop></radialGradient><radialGradient id="gradient-4"><stop offset="0%" stop-color="#bab8b8" stop-opacity="1"></stop><stop offset="100%" stop-color="#434343" stop-opacity="1"></stop></radialGradient><radialGradient id="gradient-5"><stop offset="0%" stop-color="#bab8b8" stop-opacity="1"></stop><stop offset="100%" stop-color="#434343" stop-opacity="1"></stop></radialGradient><radialGradient id="gradient-6"><stop offset="0%" stop-color="#bab8b8" stop-opacity="1"></stop><stop offset="100%" stop-color="#434343" stop-opacity="1"></stop></radialGradient></defs><g class="" transform="translate(0,0)" style="touch-action: none;"><g transform="translate(512, 512) scale(-1, -1) rotate(525, 256, 256)"><path d="M61.39 25.39C93.9 58.33 115.8 96.55 133.3 134.5C138.2 122.5 140.6 112.3 152.2 102.2C199.2 128.7 212.5 145.5 216.6 182.6L283.4 182.6C285.2 146.6 291 126.3 319.9 99.79C335.8 112.2 339.9 126.7 348 140.5C356.5 101.6 385.3 59.22 424.7 38.61C372.2 27.05 316.2 38.18 271.4 56.15C280.7 62.54 294.1 67.38 298.3 75.65C279.3 85.44 258.8 118 247.1 145C233 119.9 203.6 91.56 175.1 77.36C186.6 65.78 198.1 61.57 209.6 54.47C176.6 36.1 117.5 27 61.39 25.39Z" class="" fill="url(#gradient-2)" stroke="#000000" stroke-opacity="1" stroke-width="3"></path><path d="M70.24 200.6L28.99 310.6L137.8 310.6L179 200.6Z" class="selected" fill="url(#gradient-3)" stroke="#000000" stroke-opacity="1" stroke-width="3"></path><path d="M205 200.6L246.2 310.6L483 310.6L441.8 200.6Z" class="" fill="url(#gradient-4)" stroke="#000000" stroke-opacity="1" stroke-width="3"></path><path d="M183 241.2L150.2 328.6L73 328.6L73 486.6L183 486.6Z" class="" fill="url(#gradient-5)" stroke="#000000" stroke-opacity="1" stroke-width="3"></path><path d="M201 241.2L201 486.6L439 486.6L439 328.6L233.8 328.6Z" class="" fill="url(#gradient-6)" stroke="#000000" stroke-opacity="1" stroke-width="3"></path></g></g><g class="" transform="translate(301,299)" style="touch-action: none;"><g transform="translate(6.4, 6.4) scale(0.8, 0.8) rotate(-360, 128, 128)"><circle cx="128" cy="128" r="128" fill="#000000" fill-opacity="1"></circle><circle stroke="#f8e71c" stroke-opacity="1" fill="#000000" fill-opacity="1" stroke-width="18" cx="128" cy="128" r="101"></circle><path fill="#f8e71c" fill-opacity="1" d="M150.094 59.7L139.07 78.695c-7.27-1.615-15.652-1.322-22.142.234l-10.791-19.054L80.33 74.858 91.5 94.554a48.133 48.133 0 0 0-9.938 18.63l-23.52.105-.197 29.834 25.035-.119a49.2 49.2 0 0 0 9.666 15.859L79.5 181.36l25.61 14.852 13.108-22.596a47.62 47.62 0 0 0 18.542.3l13.102 22.58 25.623-15.283c-4.08-7.22-8.161-14.44-12.244-21.66a48.554 48.554 0 0 0 10.252-16.378l24.464-.092.198-29.834-23.235-.156a48.717 48.717 0 0 0-10.387-19.304l11.172-19.24zm-19.705 44.292c12.71 1.043 22.352 12.16 21.787 25.043-.584 13.297-11.839 23.598-25.137 23.015-13.3-.582-23.855-11.836-23.018-25.121.905-14.35 13.161-24.021 26.368-22.937z"></path></g></g></svg>