<svg xmlns="http://www.w3.org/2000/svg" viewBox="0 0 512 512" style="height: 512px; width: 512px;"><defs><radialGradient id="delapouite-passport-gradient-2"><stop offset="0%" stop-color="#eed1a3" stop-opacity="1"></stop><stop offset="100%" stop-color="#e9c691" stop-opacity="1"></stop></radialGradient><radialGradient id="delapouite-passport-gradient-3"><stop offset="0%" stop-color="#eed1a3" stop-opacity="1"></stop><stop offset="100%" stop-color="#e9c691" stop-opacity="1"></stop></radialGradient><radialGradient id="delapouite-passport-gradient-4"><stop offset="0%" stop-color="#ffe0af" stop-opacity="1"></stop><stop offset="100%" stop-color="#e9c691" stop-opacity="1"></stop></radialGradient><radialGradient id="delapouite-passport-gradient-7"><stop offset="0%" stop-color="#d0021b" stop-opacity="1"></stop><stop offset="100%" stop-color="#9a1220" stop-opacity="1"></stop></radialGradient><radialGradient id="delapouite-passport-gradient-8"><stop offset="0%" stop-color="#48baff" stop-opacity="1"></stop><stop offset="100%" stop-color="#4a90e2" stop-opacity="1"></stop></radialGradient><radialGradient id="delapouite-passport-gradient-9"><stop offset="0%" stop-color="#48baff" stop-opacity="1"></stop><stop offset="100%" stop-color="#4a90e2" stop-opacity="1"></stop></radialGradient><radialGradient id="delapouite-passport-gradient-10"><stop offset="0%" stop-color="#48baff" stop-opacity="1"></stop><stop offset="100%" stop-color="#4a90e2" stop-opacity="1"></stop></radialGradient><radialGradient id="delapouite-passport-gradient-11"><stop offset="0%" stop-color="#48baff" stop-opacity="1"></stop><stop offset="100%" stop-color="#4a90e2" stop-opacity="1"></stop></radialGradient><radialGradient id="delapouite-passport-gradient-12"><stop offset="0%" stop-color="#48baff" stop-opacity="1"></stop><stop offset="100%" stop-color="#4a90e2" stop-opacity="1"></stop></radialGradient><radialGradient id="delapouite-passport-gradient-13"><stop offset="0%" stop-color="#48baff" stop-opacity="1"></stop><stop offset="100%" stop-color="#4a90e2" stop-opacity="1"></stop></radialGradient><radialGradient id="delapouite-passport-gradient-14"><stop offset="0%" stop-color="#48baff" stop-opacity="1"></stop><stop offset="100%" stop-color="#4a90e2" stop-opacity="1"></stop></radialGradient><radialGradient id="delapouite-passport-gradient-15"><stop offset="0%" stop-color="#48baff" stop-opacity="1"></stop><stop offset="100%" stop-color="#4a90e2" stop-opacity="1"></stop></radialGradient><radialGradient id="delapouite-passport-gradient-16"><stop offset="0%" stop-color="#48baff" stop-opacity="1"></stop><stop offset="100%" stop-color="#4a90e2" stop-opacity="1"></stop></radialGradient></defs><g class="" transform="translate(0,0)" style=""><g><path d="M139.2 17.98L100.9 251.1L166.6 23.27L166.8 22.52Z" class="" fill="url(#delapouite-passport-gradient-2)"></path><path d="M235.9 33.88L402.4 81.82L405.7 61.8Z" class="" fill="url(#delapouite-passport-gradient-3)"></path><path d="M181.4 36.9L71.17 419.2L330.6 494L440.8 111.6Z" class="" fill="url(#delapouite-passport-gradient-4)"></path><path d="M190.8 87.45L406 149.5L401 166.7L185.8 104.7Z" class="" fill="#f5a623" fill-opacity="1"></path><path d="M214.7 177.6L337.7 213L332.7 230.2L209.7 194.8Z" class="" fill="#f8e71c" fill-opacity="1"></path><path d="M234.2 237.4C243.7 237.4 253.3 238.7 262.9 241.5C318.5 257.5 350.8 315.8 334.7 371.4C318.7 427.1 260.4 459.3 204.8 443.2C149.1 427.2 116.9 368.9 132.9 313.3C146.2 267.2 188.5 237.2 234.2 237.4Z" class="selected" fill="url(#delapouite-passport-gradient-7)"></path><path d="M234.1 255.3C210.3 255.2 187.7 264.9 171.4 281.6L206.8 291.8C214.8 278 225 265.5 236.9 255.3L234.1 255.3Z" class="" fill="url(#delapouite-passport-gradient-8)"></path><path d="M256.7 263C244.2 271.6 233.4 283.4 224.8 297L265.6 308.8C265.5 292.7 262.7 276.9 256.7 263Z" class="" fill="url(#delapouite-passport-gradient-9)"></path><path d="M277.5 267C282.2 282 284.1 298 283.6 314L319 324.2C313.9 300.4 299 279.5 277.5 267Z" class="" fill="url(#delapouite-passport-gradient-10)"></path><path d="M159.6 296.9C155.6 303.4 152.4 310.6 150.2 318.3C148 325.9 146.9 333.6 146.8 341.1L185.7 352.3C186.8 344.7 188.5 337.2 190.6 329.8C192.7 322.4 195.4 315.1 198.5 308.1Z" class="" fill="url(#delapouite-passport-gradient-11)"></path><path d="M216 313.1C212.7 320.1 210 327.4 207.9 334.8C205.8 342.2 204.2 349.8 203.3 357.4L251.7 371.4C254.9 364.4 257.7 357.2 259.8 349.7C261.9 342.3 263.5 334.7 264.4 327.1Z" class="" fill="url(#delapouite-passport-gradient-12)"></path><path d="M282 332.1C280.9 339.7 279.2 347.3 277.1 354.7C275 362.1 272.3 369.4 269.2 376.5L308.1 387.7C312 381.2 315.2 374.1 317.4 366.4C319.6 358.7 320.7 351 320.9 343.3Z" class="" fill="url(#delapouite-passport-gradient-13)"></path><path d="M148.6 360.3C153.6 384.2 168.6 405.3 190.4 417.8C185.6 402.7 183.6 386.7 184.1 370.5Z" class="" fill="url(#delapouite-passport-gradient-14)"></path><path d="M202.1 375.7C202.2 391.9 205 407.6 211 421.6C223.5 412.9 234.3 401.1 243 387.5Z" class="" fill="url(#delapouite-passport-gradient-15)"></path><path d="M260.9 392.7C252.8 406.6 242.6 419.1 230.6 429.3C255.6 430.3 279.4 420.4 296.4 402.9Z" class="" fill="url(#delapouite-passport-gradient-16)"></path></g></g></svg>