<svg xmlns="http://www.w3.org/2000/svg" viewBox="0 0 512 512" style="height: 512px; width: 512px;"><defs><linearGradient x1="0" x2="1" y1="0" y2="1" id="lorc-book-cover-gradient-1"><stop offset="0%" stop-color="#d0021b" stop-opacity="1"></stop><stop offset="100%" stop-color="#fa95a1" stop-opacity="1"></stop></linearGradient><linearGradient x1="0" x2="1" y1="0" y2="1" id="lorc-book-cover-gradient-2"><stop offset="0%" stop-color="#6e9d37" stop-opacity="1"></stop><stop offset="100%" stop-color="#417505" stop-opacity="1"></stop></linearGradient><linearGradient x1="0" x2="0" y1="0" y2="1" id="lorc-book-cover-gradient-3"><stop offset="0%" stop-color="#6e9d37" stop-opacity="1"></stop><stop offset="100%" stop-color="#417505" stop-opacity="1"></stop></linearGradient><linearGradient x1="0" x2="0" y1="0" y2="1" id="lorc-book-cover-gradient-4"><stop offset="0%" stop-color="#6e9d37" stop-opacity="1"></stop><stop offset="100%" stop-color="#345f02" stop-opacity="1"></stop></linearGradient><linearGradient x1="0" x2="0" y1="0" y2="1" id="lorc-book-cover-gradient-8"><stop offset="0%" stop-color="#6e9d37" stop-opacity="1"></stop><stop offset="100%" stop-color="#345f02" stop-opacity="1"></stop></linearGradient><linearGradient x1="0" x2="1" y1="0" y2="1" id="lorc-book-cover-gradient-9"><stop offset="0%" stop-color="#faf6f0" stop-opacity="1"></stop><stop offset="100%" stop-color="#ffe0af" stop-opacity="1"></stop></linearGradient><linearGradient x1="0" x2="0" y1="0" y2="1" id="lorc-book-cover-gradient-10"><stop offset="0%" stop-color="#ffffff" stop-opacity="1"></stop><stop offset="100%" stop-color="#c9c9c9" stop-opacity="1"></stop></linearGradient><linearGradient x1="0" x2="0" y1="0" y2="1" id="lorc-book-cover-gradient-11"><stop offset="0%" stop-color="#ffffff" stop-opacity="1"></stop><stop offset="100%" stop-color="#c9c9c9" stop-opacity="1"></stop></linearGradient><linearGradient x1="0" x2="0" y1="0" y2="1" id="lorc-book-cover-gradient-12"><stop offset="0%" stop-color="#ffffff" stop-opacity="1"></stop><stop offset="100%" stop-color="#c9c9c9" stop-opacity="1"></stop></linearGradient><linearGradient id="lorc-book-cover-gradient-13"><stop offset="0%" stop-color="#d0021b" stop-opacity="1"></stop><stop offset="100%" stop-color="#e6001b" stop-opacity="1"></stop></linearGradient><linearGradient x1="0" x2="0" y1="0" y2="1" id="lorc-book-cover-gradient-14"><stop offset="0%" stop-color="#ffffff" stop-opacity="1"></stop><stop offset="100%" stop-color="#c9c9c9" stop-opacity="1"></stop></linearGradient><linearGradient id="lorc-book-cover-gradient-15"><stop offset="0%" stop-color="#d0021b" stop-opacity="1"></stop><stop offset="100%" stop-color="#e6001b" stop-opacity="1"></stop></linearGradient><linearGradient x1="0" x2="0" y1="0" y2="1" id="lorc-book-cover-gradient-16"><stop offset="0%" stop-color="#345f02" stop-opacity="1"></stop><stop offset="100%" stop-color="#6e9d37" stop-opacity="1"></stop></linearGradient><linearGradient x1="0" x2="0" y1="0" y2="1" id="lorc-book-cover-gradient-17"><stop offset="0%" stop-color="#345f02" stop-opacity="1"></stop><stop offset="100%" stop-color="#6e9d37" stop-opacity="1"></stop></linearGradient><linearGradient x1="0" x2="0" y1="0" y2="1" id="lorc-book-cover-gradient-18"><stop offset="0%" stop-color="#345f02" stop-opacity="1"></stop><stop offset="100%" stop-color="#6e9d37" stop-opacity="1"></stop></linearGradient><linearGradient x1="0" x2="0" y1="0" y2="1" id="lorc-book-cover-gradient-19"><stop offset="0%" stop-color="#345f02" stop-opacity="1"></stop><stop offset="100%" stop-color="#6e9d37" stop-opacity="1"></stop></linearGradient><linearGradient x1="0" x2="0" y1="0" y2="1" id="lorc-book-cover-gradient-20"><stop offset="0%" stop-color="#345f02" stop-opacity="1"></stop><stop offset="100%" stop-color="#6e9d37" stop-opacity="1"></stop></linearGradient><radialGradient id="lorc-book-cover-gradient-21"><stop offset="0%" stop-color="#f8e71c" stop-opacity="1"></stop><stop offset="100%" stop-color="#f5a623" stop-opacity="1"></stop></radialGradient><radialGradient id="lorc-book-cover-gradient-22"><stop offset="0%" stop-color="#f8e71c" stop-opacity="1"></stop><stop offset="100%" stop-color="#f5a623" stop-opacity="1"></stop></radialGradient><radialGradient id="lorc-book-cover-gradient-23"><stop offset="0%" stop-color="#f8e71c" stop-opacity="1"></stop><stop offset="100%" stop-color="#f5a623" stop-opacity="1"></stop></radialGradient><radialGradient id="lorc-book-cover-gradient-24"><stop offset="0%" stop-color="#f8e71c" stop-opacity="1"></stop><stop offset="100%" stop-color="#f5a623" stop-opacity="1"></stop></radialGradient><radialGradient id="lorc-book-cover-gradient-25"><stop offset="0%" stop-color="#8b7500" stop-opacity="1"></stop><stop offset="100%" stop-color="#c4a504" stop-opacity="1"></stop></radialGradient><radialGradient id="lorc-book-cover-gradient-26"><stop offset="0%" stop-color="#8b7500" stop-opacity="1"></stop><stop offset="100%" stop-color="#c4a504" stop-opacity="1"></stop></radialGradient><radialGradient id="lorc-book-cover-gradient-27"><stop offset="0%" stop-color="#f8e71c" stop-opacity="1"></stop><stop offset="100%" stop-color="#f5a623" stop-opacity="1"></stop></radialGradient><radialGradient id="lorc-book-cover-gradient-28"><stop offset="0%" stop-color="#f8e71c" stop-opacity="1"></stop><stop offset="100%" stop-color="#f5a623" stop-opacity="1"></stop></radialGradient><radialGradient id="lorc-book-cover-gradient-29"><stop offset="0%" stop-color="#f8e71c" stop-opacity="1"></stop><stop offset="100%" stop-color="#f5a623" stop-opacity="1"></stop></radialGradient><radialGradient id="lorc-book-cover-gradient-30"><stop offset="0%" stop-color="#f8e71c" stop-opacity="1"></stop><stop offset="100%" stop-color="#f5a623" stop-opacity="1"></stop></radialGradient><radialGradient id="lorc-book-cover-gradient-31"><stop offset="0%" stop-color="#8b7500" stop-opacity="1"></stop><stop offset="100%" stop-color="#c4a504" stop-opacity="1"></stop></radialGradient><radialGradient id="lorc-book-cover-gradient-32"><stop offset="0%" stop-color="#f8e71c" stop-opacity="1"></stop><stop offset="100%" stop-color="#f5a623" stop-opacity="1"></stop></radialGradient><radialGradient id="lorc-book-cover-gradient-33"><stop offset="0%" stop-color="#8b7500" stop-opacity="1"></stop><stop offset="100%" stop-color="#c4a504" stop-opacity="1"></stop></radialGradient><radialGradient id="lorc-book-cover-gradient-34"><stop offset="0%" stop-color="#f8e71c" stop-opacity="1"></stop><stop offset="100%" stop-color="#f5a623" stop-opacity="1"></stop></radialGradient><radialGradient id="lorc-book-cover-gradient-35"><stop offset="0%" stop-color="#f8e71c" stop-opacity="1"></stop><stop offset="100%" stop-color="#f5a623" stop-opacity="1"></stop></radialGradient><radialGradient id="lorc-book-cover-gradient-36"><stop offset="0%" stop-color="#f8e71c" stop-opacity="1"></stop><stop offset="100%" stop-color="#f5a623" stop-opacity="1"></stop></radialGradient><radialGradient id="lorc-book-cover-gradient-37"><stop offset="0%" stop-color="#f8e71c" stop-opacity="1"></stop><stop offset="100%" stop-color="#f5a623" stop-opacity="1"></stop></radialGradient><linearGradient x1="0" x2="1" y1="0" y2="1" id="lorc-book-cover-gradient-38"><stop offset="0%" stop-color="#8b7500" stop-opacity="1"></stop><stop offset="100%" stop-color="#c4a504" stop-opacity="1"></stop></linearGradient><linearGradient x1="0" x2="1" y1="0" y2="1" id="lorc-book-cover-gradient-39"><stop offset="0%" stop-color="#8b7500" stop-opacity="1"></stop><stop offset="100%" stop-color="#c4a504" stop-opacity="1"></stop></linearGradient><linearGradient x1="0" x2="1" y1="0" y2="1" id="lorc-book-cover-gradient-40"><stop offset="0%" stop-color="#8b7500" stop-opacity="1"></stop><stop offset="100%" stop-color="#c4a504" stop-opacity="1"></stop></linearGradient><linearGradient x1="0" x2="1" y1="0" y2="1" id="lorc-book-cover-gradient-41"><stop offset="0%" stop-color="#8b7500" stop-opacity="1"></stop><stop offset="100%" stop-color="#c4a504" stop-opacity="1"></stop></linearGradient><linearGradient x1="0" x2="1" y1="0" y2="1" id="lorc-book-cover-gradient-42"><stop offset="0%" stop-color="#8b7500" stop-opacity="1"></stop><stop offset="100%" stop-color="#c4a504" stop-opacity="1"></stop></linearGradient><linearGradient x1="0" x2="1" y1="0" y2="1" id="lorc-book-cover-gradient-43"><stop offset="0%" stop-color="#8b7500" stop-opacity="1"></stop><stop offset="100%" stop-color="#c4a504" stop-opacity="1"></stop></linearGradient><linearGradient x1="0" x2="1" y1="0" y2="1" id="lorc-book-cover-gradient-44"><stop offset="0%" stop-color="#8b7500" stop-opacity="1"></stop><stop offset="100%" stop-color="#c4a504" stop-opacity="1"></stop></linearGradient><linearGradient x1="0" x2="1" y1="0" y2="1" id="lorc-book-cover-gradient-45"><stop offset="0%" stop-color="#8b7500" stop-opacity="1"></stop><stop offset="100%" stop-color="#c4a504" stop-opacity="1"></stop></linearGradient><linearGradient x1="0" x2="1" y1="0" y2="1" id="lorc-book-cover-gradient-46"><stop offset="0%" stop-color="#8b7500" stop-opacity="1"></stop><stop offset="100%" stop-color="#c4a504" stop-opacity="1"></stop></linearGradient></defs><g class="" transform="translate(0,0)" style=""><g><path d="M102.53 26.063L192.53 371.813L481.75 395.063L391.72 49.343L102.53 26.063Z" class="" fill="url(#lorc-book-cover-gradient-2)" stroke="#000000" stroke-opacity="1" stroke-width="2"></path><path d="M83.562 27.469C53.122 39.363 27.942 80.539 33.875 102.749L37.125 114.562C37.779 112.84 38.47 111.122 39.188 109.405C49.102 85.688 65.734 62.636 89.56 50.5L83.56 27.47Z" class="" fill="url(#lorc-book-cover-gradient-3)" stroke="#000000" stroke-opacity="1" stroke-width="2"></path><path d="M94.44 69.187C77.78 79.203 64.524 97.287 56.44 116.624C51.24 129.064 48.44 142.041 47.69 152.874L47.69 152.904L112.56 388.5C112.865 387.928 113.153 387.352 113.467 386.78C124.052 367.557 141.271 349.157 164.527 338.375L94.438 69.187Z" class="" fill="url(#lorc-book-cover-gradient-4)" stroke="#000000" stroke-opacity="1" stroke-width="2"></path><path d="M154 107.968L393.78 124.156L392.5 142.781L152.75 126.626L154 107.97Z" class="" fill="#f8e71c" stroke="#000000" stroke-opacity="1" stroke-width="2" fill-opacity="1"></path><path d="M200.03 142.375L205.687 151.25L219.875 173.563L258.905 158.313L266.5 155.375L270.47 162.469L286.75 191.593L291.063 199.313L283.625 204.03C273.358 210.554 266.233 216.314 261.875 220.812C258.845 223.942 257.628 226.044 256.969 227.406C258.349 227.709 260.402 227.983 263.593 227.686C281.861 225.996 319.878 207.722 342.593 166.094L348.063 156.064L356.811 163.438L402.811 202.25L414.343 211.97L400.499 217.97L367.219 232.344C372.666 237.269 378.655 238.26 385.655 237.75C395.605 237.026 407.082 231.68 414.78 226.687L424.938 242.344C415.528 248.444 402.071 255.278 387 256.374C371.93 257.472 354.73 251.078 344.406 233.219L339.156 224.124L348.781 219.968L379.221 206.811L353.188 184.811C327.472 225.105 290.508 243.979 265.345 246.311C258.565 246.939 252.4 246.571 246.751 243.623C241.101 240.673 236.767 233.023 237.751 226.217C238.735 219.411 242.589 213.817 248.439 207.777C252.824 203.251 259.051 198.41 266.314 193.341L258.126 178.685L219.5 193.75L212.344 196.53L208.219 190.062L196 170.875C189.692 178.033 186.515 185.403 187 192.281C187.654 201.561 194.854 213.335 217.594 225.971L208.5 242.314C182.812 228.041 169.623 211.298 168.375 193.594C167.127 175.891 177.768 160.581 191.875 149.032L200.031 142.377Z" class="" fill="#f8e71c" stroke="#000000" stroke-opacity="1" stroke-width="2" fill-opacity="1"></path><path d="M194.062 260.563L433.844 276.719L432.594 295.374L192.814 279.186L194.064 260.561Z" class="" fill="#f8e71c" stroke="#000000" stroke-opacity="1" stroke-width="2" fill-opacity="1"></path><path d="M169.312 356.813C151.675 365.885 138.247 380.521 129.844 395.781C125.354 403.934 122.537 412.233 121.124 419.657L132.75 461.813L134.438 461.97C130.614 434.456 145.796 401.587 175.625 381L169.312 356.812Z" class="" fill="url(#lorc-book-cover-gradient-8)" stroke="#000000" stroke-opacity="1" stroke-width="2"></path><path d="M195.532 390.813C163.129 408.093 149.259 443.116 153.875 463.593L443.655 488.125C438.357 480.382 435.03 470.298 435.063 459.812L412.593 450.782L459.219 443.469L445.529 430.405C451.081 423.567 459.069 417.49 469.999 412.875L195.529 390.812Z" class="selected" fill="url(#lorc-book-cover-gradient-9)" stroke="#000000" stroke-opacity="1" stroke-width="2"></path></g></g><g class="" transform="translate(-19,277)" style=""><g transform="translate(252.8, 3.2) scale(-0.9, 0.9) rotate(0, 128, 128)"><circle cx="128" cy="128" r="128" fill="#000000" fill-opacity="1"></circle><circle stroke="#d0021b" stroke-opacity="1" fill="#000000" fill-opacity="1" stroke-width="18" cx="128" cy="128" r="101"></circle><path fill="#d0021b" fill-opacity="1" d="MZ"></path></g></g><g font-family="Arial, Helvetica, sans-serif" font-size="120" font-style="normal" font-weight="bold" text-anchor="middle" text-decoration=" rgba(255, 255, 255, 1)" class="" transform="translate(119,437)" style=""><g transform="translate(0, 0) scale(0.9, 0.9) rotate(0, 0, 0) skewX(0) skewY(0)"><text stroke="rgba(0, 0, 0, 1)" stroke-width="30"><tspan x="0" y="0">$5</tspan></text><text fill="rgba(255, 255, 255, 1)"><tspan x="0" y="0">$5</tspan></text></g></g></svg>