<svg xmlns="http://www.w3.org/2000/svg" viewBox="0 0 512 512" style="height: 512px; width: 512px;"><defs><linearGradient x1="0" x2="1" y1="0" y2="1" id="lorc-drill-gradient-1"><stop offset="0%" stop-color="#d0021b" stop-opacity="1"></stop><stop offset="100%" stop-color="#fa95a1" stop-opacity="1"></stop></linearGradient><linearGradient x1="0" x2="1" y1="0" y2="1" id="lorc-drill-gradient-2"><stop offset="0%" stop-color="#000000" stop-opacity="1"></stop><stop offset="100%" stop-color="#9b9b9b" stop-opacity="1"></stop></linearGradient><linearGradient x1="0" x2="1" y1="0" y2="1" id="lorc-drill-gradient-3"><stop offset="0%" stop-color="#f5a623" stop-opacity="1"></stop><stop offset="100%" stop-color="#f8e71c" stop-opacity="1"></stop></linearGradient><linearGradient x1="0" x2="1" y1="0" y2="1" id="lorc-drill-gradient-4"><stop offset="0%" stop-color="#4a4a4a" stop-opacity="1"></stop><stop offset="100%" stop-color="#9b9b9b" stop-opacity="1"></stop></linearGradient><linearGradient x1="0" x2="1" y1="0" y2="1" id="lorc-drill-gradient-5"><stop offset="0%" stop-color="#4a4a4a" stop-opacity="1"></stop><stop offset="100%" stop-color="#9b9b9b" stop-opacity="1"></stop></linearGradient><linearGradient x1="0" x2="1" y1="0" y2="1" id="lorc-drill-gradient-6"><stop offset="0%" stop-color="#000000" stop-opacity="1"></stop><stop offset="100%" stop-color="#9b9b9b" stop-opacity="1"></stop></linearGradient><linearGradient x1="0" x2="1" y1="0" y2="1" id="lorc-drill-gradient-7"><stop offset="0%" stop-color="#f5a623" stop-opacity="1"></stop><stop offset="100%" stop-color="#f8e71c" stop-opacity="1"></stop></linearGradient><linearGradient x1="0" x2="1" y1="0" y2="1" id="lorc-drill-gradient-8"><stop offset="0%" stop-color="#f5a623" stop-opacity="1"></stop><stop offset="100%" stop-color="#f8e71c" stop-opacity="1"></stop></linearGradient><linearGradient x1="0" x2="1" y1="0" y2="1" id="lorc-drill-gradient-9"><stop offset="0%" stop-color="#4a4a4a" stop-opacity="1"></stop><stop offset="100%" stop-color="#9b9b9b" stop-opacity="1"></stop></linearGradient><linearGradient x1="0" x2="1" y1="0" y2="1" id="lorc-drill-gradient-10"><stop offset="0%" stop-color="#9b9b9b" stop-opacity="1"></stop><stop offset="100%" stop-color="#c9c9c9" stop-opacity="1"></stop></linearGradient><linearGradient x1="0" x2="1" y1="0" y2="1" id="lorc-drill-gradient-11"><stop offset="0%" stop-color="#4a4a4a" stop-opacity="1"></stop><stop offset="100%" stop-color="#9b9b9b" stop-opacity="1"></stop></linearGradient><linearGradient x1="0" x2="0" y1="0" y2="1" id="lorc-drill-gradient-12"><stop offset="0%" stop-color="#ffffff" stop-opacity="1"></stop><stop offset="100%" stop-color="#ffdee2" stop-opacity="1"></stop></linearGradient><linearGradient x1="0" x2="0" y1="0" y2="1" id="lorc-drill-gradient-13"><stop offset="0%" stop-color="#ffffff" stop-opacity="1"></stop><stop offset="100%" stop-color="#ffdee2" stop-opacity="1"></stop></linearGradient><radialGradient id="lorc-drill-gradient-14"><stop offset="0%" stop-color="#f8e71c" stop-opacity="1"></stop><stop offset="100%" stop-color="#f5a623" stop-opacity="1"></stop></radialGradient><radialGradient id="lorc-drill-gradient-15"><stop offset="0%" stop-color="#f8e71c" stop-opacity="1"></stop><stop offset="100%" stop-color="#f5a623" stop-opacity="1"></stop></radialGradient><radialGradient id="lorc-drill-gradient-16"><stop offset="0%" stop-color="#f8e71c" stop-opacity="1"></stop><stop offset="100%" stop-color="#f5a623" stop-opacity="1"></stop></radialGradient><radialGradient id="lorc-drill-gradient-17"><stop offset="0%" stop-color="#f8e71c" stop-opacity="1"></stop><stop offset="100%" stop-color="#f5a623" stop-opacity="1"></stop></radialGradient><radialGradient id="lorc-drill-gradient-18"><stop offset="0%" stop-color="#f8e71c" stop-opacity="1"></stop><stop offset="100%" stop-color="#f5a623" stop-opacity="1"></stop></radialGradient><radialGradient id="lorc-drill-gradient-19"><stop offset="0%" stop-color="#f8e71c" stop-opacity="1"></stop><stop offset="100%" stop-color="#f5a623" stop-opacity="1"></stop></radialGradient><radialGradient id="lorc-drill-gradient-20"><stop offset="0%" stop-color="#f8e71c" stop-opacity="1"></stop><stop offset="100%" stop-color="#f5a623" stop-opacity="1"></stop></radialGradient><radialGradient id="lorc-drill-gradient-21"><stop offset="0%" stop-color="#f8e71c" stop-opacity="1"></stop><stop offset="100%" stop-color="#f5a623" stop-opacity="1"></stop></radialGradient><radialGradient id="lorc-drill-gradient-22"><stop offset="0%" stop-color="#f8e71c" stop-opacity="1"></stop><stop offset="100%" stop-color="#f5a623" stop-opacity="1"></stop></radialGradient><radialGradient id="lorc-drill-gradient-23"><stop offset="0%" stop-color="#f8e71c" stop-opacity="1"></stop><stop offset="100%" stop-color="#f5a623" stop-opacity="1"></stop></radialGradient><radialGradient id="lorc-drill-gradient-24"><stop offset="0%" stop-color="#f8e71c" stop-opacity="1"></stop><stop offset="100%" stop-color="#f5a623" stop-opacity="1"></stop></radialGradient><radialGradient id="lorc-drill-gradient-25"><stop offset="0%" stop-color="#8b7500" stop-opacity="1"></stop><stop offset="100%" stop-color="#c4a504" stop-opacity="1"></stop></radialGradient><radialGradient id="lorc-drill-gradient-26"><stop offset="0%" stop-color="#8b7500" stop-opacity="1"></stop><stop offset="100%" stop-color="#c4a504" stop-opacity="1"></stop></radialGradient><radialGradient id="lorc-drill-gradient-27"><stop offset="0%" stop-color="#f8e71c" stop-opacity="1"></stop><stop offset="100%" stop-color="#f5a623" stop-opacity="1"></stop></radialGradient><radialGradient id="lorc-drill-gradient-28"><stop offset="0%" stop-color="#f8e71c" stop-opacity="1"></stop><stop offset="100%" stop-color="#f5a623" stop-opacity="1"></stop></radialGradient><radialGradient id="lorc-drill-gradient-29"><stop offset="0%" stop-color="#f8e71c" stop-opacity="1"></stop><stop offset="100%" stop-color="#f5a623" stop-opacity="1"></stop></radialGradient><radialGradient id="lorc-drill-gradient-30"><stop offset="0%" stop-color="#f8e71c" stop-opacity="1"></stop><stop offset="100%" stop-color="#f5a623" stop-opacity="1"></stop></radialGradient><radialGradient id="lorc-drill-gradient-31"><stop offset="0%" stop-color="#8b7500" stop-opacity="1"></stop><stop offset="100%" stop-color="#c4a504" stop-opacity="1"></stop></radialGradient><radialGradient id="lorc-drill-gradient-32"><stop offset="0%" stop-color="#f8e71c" stop-opacity="1"></stop><stop offset="100%" stop-color="#f5a623" stop-opacity="1"></stop></radialGradient><radialGradient id="lorc-drill-gradient-33"><stop offset="0%" stop-color="#8b7500" stop-opacity="1"></stop><stop offset="100%" stop-color="#c4a504" stop-opacity="1"></stop></radialGradient><radialGradient id="lorc-drill-gradient-34"><stop offset="0%" stop-color="#f8e71c" stop-opacity="1"></stop><stop offset="100%" stop-color="#f5a623" stop-opacity="1"></stop></radialGradient><radialGradient id="lorc-drill-gradient-35"><stop offset="0%" stop-color="#f8e71c" stop-opacity="1"></stop><stop offset="100%" stop-color="#f5a623" stop-opacity="1"></stop></radialGradient><radialGradient id="lorc-drill-gradient-36"><stop offset="0%" stop-color="#f8e71c" stop-opacity="1"></stop><stop offset="100%" stop-color="#f5a623" stop-opacity="1"></stop></radialGradient><radialGradient id="lorc-drill-gradient-37"><stop offset="0%" stop-color="#f8e71c" stop-opacity="1"></stop><stop offset="100%" stop-color="#f5a623" stop-opacity="1"></stop></radialGradient><linearGradient x1="0" x2="1" y1="0" y2="1" id="lorc-drill-gradient-38"><stop offset="0%" stop-color="#8b7500" stop-opacity="1"></stop><stop offset="100%" stop-color="#c4a504" stop-opacity="1"></stop></linearGradient><linearGradient x1="0" x2="1" y1="0" y2="1" id="lorc-drill-gradient-39"><stop offset="0%" stop-color="#8b7500" stop-opacity="1"></stop><stop offset="100%" stop-color="#c4a504" stop-opacity="1"></stop></linearGradient><linearGradient x1="0" x2="1" y1="0" y2="1" id="lorc-drill-gradient-40"><stop offset="0%" stop-color="#8b7500" stop-opacity="1"></stop><stop offset="100%" stop-color="#c4a504" stop-opacity="1"></stop></linearGradient><linearGradient x1="0" x2="1" y1="0" y2="1" id="lorc-drill-gradient-41"><stop offset="0%" stop-color="#8b7500" stop-opacity="1"></stop><stop offset="100%" stop-color="#c4a504" stop-opacity="1"></stop></linearGradient><linearGradient x1="0" x2="1" y1="0" y2="1" id="lorc-drill-gradient-42"><stop offset="0%" stop-color="#8b7500" stop-opacity="1"></stop><stop offset="100%" stop-color="#c4a504" stop-opacity="1"></stop></linearGradient><linearGradient x1="0" x2="1" y1="0" y2="1" id="lorc-drill-gradient-43"><stop offset="0%" stop-color="#8b7500" stop-opacity="1"></stop><stop offset="100%" stop-color="#c4a504" stop-opacity="1"></stop></linearGradient><linearGradient x1="0" x2="1" y1="0" y2="1" id="lorc-drill-gradient-44"><stop offset="0%" stop-color="#8b7500" stop-opacity="1"></stop><stop offset="100%" stop-color="#c4a504" stop-opacity="1"></stop></linearGradient><linearGradient x1="0" x2="1" y1="0" y2="1" id="lorc-drill-gradient-45"><stop offset="0%" stop-color="#8b7500" stop-opacity="1"></stop><stop offset="100%" stop-color="#c4a504" stop-opacity="1"></stop></linearGradient><linearGradient x1="0" x2="1" y1="0" y2="1" id="lorc-drill-gradient-46"><stop offset="0%" stop-color="#8b7500" stop-opacity="1"></stop><stop offset="100%" stop-color="#c4a504" stop-opacity="1"></stop></linearGradient></defs><g class="" transform="translate(0,0)" style=""><g><path d="M190.72 17.688C189.484 17.688 188.245 17.688 187 17.718C185.816 17.748 184.63 17.814 183.437 17.875C182.522 17.922 181.607 17.968 180.687 18.031C179.143 18.135 177.591 18.258 176.031 18.407C136.251 22.227 92.026 40.787 62.438 72.345C61.524 73.32 60.631 74.315 59.751 75.315C59.121 76.03 58.491 76.742 57.876 77.47C57.523 77.888 57.192 78.328 56.846 78.75C56.306 79.403 55.776 80.057 55.251 80.72C55.183 80.805 55.101 80.882 55.031 80.97C54.259 81.95 53.495 82.937 52.751 83.938C51.844 85.158 50.957 86.38 50.095 87.625C49.915 87.885 49.741 88.145 49.563 88.405C48.76 89.582 47.983 90.772 47.22 91.969C47.153 92.069 47.096 92.179 47.03 92.279C46.17 93.635 45.312 94.995 44.5 96.374C44.496 96.382 44.504 96.398 44.5 96.404C43.72 97.729 42.953 99.061 42.22 100.404C42.008 100.79 41.8 101.174 41.594 101.561C41.196 102.305 40.822 103.061 40.437 103.811C40.087 104.496 39.747 105.185 39.407 105.874C39.359 105.971 39.297 106.059 39.25 106.154C38.705 107.264 38.173 108.379 37.656 109.499C37.076 110.759 36.513 112.009 35.969 113.279C35.546 114.264 35.149 115.259 34.749 116.249C34.291 117.381 33.836 118.515 33.405 119.655C32.975 120.797 32.559 121.945 32.155 123.093C32.151 123.105 32.128 123.111 32.125 123.123C31.725 124.26 31.372 125.388 30.999 126.53C30.619 127.695 30.259 128.862 29.905 130.03C29.595 131.062 29.258 132.09 28.968 133.125C28.83 133.613 28.724 134.105 28.592 134.595C28.162 136.185 27.755 137.778 27.372 139.375C27.236 139.947 27.097 140.521 26.967 141.095C26.917 141.302 26.857 141.51 26.81 141.719C24.01 154.192 22.685 166.766 22.653 178.874C22.623 190.737 23.776 202.294 26.185 212.968C26.208 213.071 26.223 213.175 26.247 213.278C26.354 213.748 26.479 214.218 26.591 214.685C26.781 215.479 26.979 216.278 27.184 217.06C27.534 218.39 27.92 219.702 28.309 220.998C28.332 221.071 28.349 221.144 28.372 221.218C28.752 222.472 29.14 223.712 29.56 224.936C29.944 226.056 30.36 227.156 30.778 228.248C30.878 228.508 30.96 228.772 31.06 229.028C31.44 230 31.84 230.958 32.248 231.904C32.496 232.479 32.74 233.058 32.998 233.624C33.295 234.274 33.594 234.924 33.904 235.56C33.991 235.74 34.098 235.914 34.186 236.092C34.731 237.192 35.288 238.282 35.873 239.342C36.488 240.456 37.119 241.525 37.779 242.592C38.293 243.42 38.834 244.232 39.374 245.029C39.526 245.254 39.658 245.496 39.812 245.719C40.036 246.041 40.27 246.369 40.499 246.687C40.985 247.362 41.492 248.037 41.999 248.687C42.247 249.005 42.496 249.312 42.749 249.624C43.021 249.96 43.284 250.294 43.562 250.624C43.762 250.862 43.982 251.078 44.186 251.312C44.626 251.816 45.076 252.324 45.53 252.812L46.03 253.342C46.516 253.852 47 254.355 47.5 254.842C48.042 255.372 48.595 255.87 49.156 256.374C49.222 256.434 49.276 256.502 49.344 256.562C49.634 256.819 49.924 257.06 50.219 257.312C50.437 257.498 50.652 257.692 50.874 257.874C51.276 258.206 51.681 258.524 52.094 258.844C52.56 259.206 53.02 259.558 53.499 259.904C53.692 260.044 53.899 260.174 54.093 260.312C54.561 260.642 55.02 260.997 55.499 261.312C55.607 261.382 55.734 261.429 55.843 261.499C56.543 261.951 57.243 262.393 57.968 262.812L58.092 262.905L58.217 262.968L157.747 316.028C146.014 301.324 136.31 286.32 128.622 271.123L51.25 227.187C45.163 214.609 41.295 197.661 41.344 178.937C41.364 170.63 42.101 162.047 43.594 153.469L107.312 198.093C106.832 192.337 106.646 186.573 106.719 180.813C107.342 131.458 128.269 82.961 167.312 38.405C170.855 37.808 174.357 37.331 177.812 36.999C183.6 36.443 189.232 36.279 194.592 36.469C149.11 82.369 126.029 131.743 125.405 181.029C125.272 191.539 126.162 202.095 128.093 212.655L229.813 283.875C229.033 277.203 228.667 270.525 228.749 263.843C229.355 214.593 253.237 166.398 297.374 123.623L263.124 59.373C260.704 51.125 256.314 44.086 250.624 38.28C249.926 37.57 249.204 36.862 248.468 36.187C247.093 34.931 245.683 33.747 244.186 32.625C244.061 32.532 243.936 32.435 243.811 32.345C243.101 31.818 242.359 31.308 241.623 30.813C241.517 30.741 241.417 30.663 241.31 30.593C240.548 30.087 239.786 29.599 238.998 29.125C238.914 29.075 238.832 29.019 238.748 28.969C237.932 28.482 237.088 28.012 236.248 27.562C236.188 27.529 236.122 27.5 236.06 27.468C235.19 27.004 234.3 26.578 233.404 26.154C233.371 26.138 233.344 26.108 233.31 26.092C232.38 25.652 231.452 25.242 230.498 24.842C229.338 24.356 228.161 23.9 226.968 23.467C226.716 23.375 226.468 23.273 226.218 23.185C226.146 23.16 226.068 23.147 225.998 23.122C225.338 22.892 224.668 22.65 223.998 22.434C223.894 22.401 223.79 22.374 223.685 22.341C222.137 21.848 220.565 21.409 218.967 20.997C218.381 20.847 217.777 20.699 217.185 20.559C216.965 20.507 216.749 20.454 216.528 20.403C215.978 20.277 215.431 20.146 214.873 20.028C214.615 19.975 214.35 19.925 214.093 19.873C213.566 19.767 213.028 19.659 212.498 19.56C205.561 18.276 198.264 17.684 190.718 17.685Z" class="selected" fill="url(#lorc-drill-gradient-2)" stroke="#000000" stroke-opacity="1" stroke-width="2"></path><path d="M365.625 113.312L402.563 270.594L489.625 451.624L478.062 359.25L492.906 234.72L465.844 289.063L436 131.03L436.75 261.53L365.625 113.313Z" class="" fill="url(#lorc-drill-gradient-3)" stroke="#000000" stroke-opacity="1" stroke-width="2"></path><path d="M306.531 140.844C267.611 179.924 247.955 222.057 247.439 264.064C247.296 275.674 248.611 287.354 251.439 299.031L329.564 353.781C329.441 351.329 329.379 348.861 329.407 346.407C329.772 314.352 342.937 282.943 367.187 254.595L306.532 140.845Z" class="" fill="url(#lorc-drill-gradient-4)" stroke="#000000" stroke-opacity="1" stroke-width="2"></path><path d="M376.657 272.406C357.827 296.319 348.38 321.52 348.095 346.626C348.013 353.779 348.695 360.959 350.125 368.156L410.845 410.686C411.591 394.416 416.502 378.413 425.157 363.376L376.657 272.406Z" class="" fill="url(#lorc-drill-gradient-5)" stroke="#000000" stroke-opacity="1" stroke-width="2"></path><path d="M161.377 289.719C174.057 308.029 190.169 326.113 209.907 343.811L268.437 375.031C259.16 362.716 251.5 350.161 245.47 337.437L161.375 289.717Z" class="" fill="url(#lorc-drill-gradient-6)" stroke="#000000" stroke-opacity="1" stroke-width="2"></path><path d="M54.655 318L101.312 372.094L173.186 386.094L54.657 318Z" class="" fill="url(#lorc-drill-gradient-7)" stroke="#000000" stroke-opacity="1" stroke-width="2"></path><path d="M147.935 343.5L296.249 443.22L147.936 428.22L292.686 464.437L239.811 484.281L354.811 479.221L456.718 491.971L147.936 343.5Z" class="" fill="url(#lorc-drill-gradient-8)" stroke="#000000" stroke-opacity="1" stroke-width="2"></path><path d="M277.343 355.53C288.06 371.18 301.751 386.628 318.563 401.75L351.186 419.125C345.026 409.321 340.179 399.313 336.624 389.187L277.344 355.531Z" class="" fill="url(#lorc-drill-gradient-9)" stroke="#000000" stroke-opacity="1" stroke-width="2"></path><path d="M435.937 383.594C431.707 393.704 429.537 404.012 429.437 414.314C429.243 433.984 436.452 454.008 452.467 473.124L468.905 481.874L495.968 496.312L481.56 469.219L435.935 383.593Z" class="" fill="url(#lorc-drill-gradient-10)" stroke="#000000" stroke-opacity="1" stroke-width="2"></path><path d="M364.312 404.906C371.589 417.416 381.392 429.803 393.905 441.906L419.53 455.562C416.14 447.879 413.742 440.048 412.313 432.156L364.313 404.906Z" class="" fill="url(#lorc-drill-gradient-11)" stroke="#000000" stroke-opacity="1" stroke-width="2"></path></g></g></svg>