<svg xmlns="http://www.w3.org/2000/svg" viewBox="0 0 512 512" style="height: 512px; width: 512px;"><defs><radialGradient id="gradient-1"><stop offset="0%" stop-color="#bab8b8" stop-opacity="1"></stop><stop offset="100%" stop-color="#434343" stop-opacity="1"></stop></radialGradient><radialGradient id="gradient-2"><stop offset="0%" stop-color="#7ed321" stop-opacity="1"></stop><stop offset="100%" stop-color="#b8e986" stop-opacity="1"></stop></radialGradient><radialGradient id="gradient-3"><stop offset="0%" stop-color="#7ed321" stop-opacity="1"></stop><stop offset="100%" stop-color="#b8e986" stop-opacity="1"></stop></radialGradient><radialGradient id="gradient-4"><stop offset="0%" stop-color="#7ed321" stop-opacity="1"></stop><stop offset="100%" stop-color="#b8e986" stop-opacity="1"></stop></radialGradient><radialGradient id="gradient-5"><stop offset="0%" stop-color="#716969" stop-opacity="1"></stop><stop offset="100%" stop-color="#434343" stop-opacity="1"></stop></radialGradient><radialGradient id="gradient-6"><stop offset="0%" stop-color="#6a6868" stop-opacity="1"></stop><stop offset="100%" stop-color="#434343" stop-opacity="1"></stop></radialGradient><radialGradient id="gradient-7"><stop offset="0%" stop-color="#bab8b8" stop-opacity="1"></stop><stop offset="100%" stop-color="#857f7f" stop-opacity="1"></stop></radialGradient><radialGradient id="gradient-8"><stop offset="0%" stop-color="#b57204" stop-opacity="1"></stop><stop offset="100%" stop-color="#8b572a" stop-opacity="1"></stop></radialGradient><radialGradient id="gradient-9"><stop offset="0%" stop-color="#b57204" stop-opacity="1"></stop><stop offset="100%" stop-color="#8b572a" stop-opacity="1"></stop></radialGradient><radialGradient id="gradient-10"><stop offset="0%" stop-color="#48baff" stop-opacity="1"></stop><stop offset="100%" stop-color="#4a90e2" stop-opacity="1"></stop></radialGradient></defs><g class="" transform="translate(0,0)" style="touch-action: none;"><g transform="translate(0, 512) scale(1, -1) rotate(525, 256, 256)"><path d="M200.4 27.39L180.9 183L223.7 183L272.8 36.43L200.4 27.39Z" class="" fill="url(#gradient-2)" stroke="#000000" stroke-opacity="1" stroke-width="3"></path><path d="M292.1 35.39L242.7 183L392.4 183.1L426.7 80.49L292.1 35.39Z" class="" fill="url(#gradient-3)" stroke="#000000" stroke-opacity="1" stroke-width="3"></path><path d="M180 46.03L108.1 53.87L122.2 183L162.9 183L180 46.03Z" class="" fill="url(#gradient-4)" stroke="#000000" stroke-opacity="1" stroke-width="3"></path><path d="M64 153C52.5 153 44.82 161.8 42.73 170.2C41.69 174.4 42.28 177.8 43.46 179.7C44.63 181.5 46.25 183 52 183L104.1 183L100.8 153L64 153Z" class="" fill="url(#gradient-5)" stroke="#000000" stroke-opacity="1" stroke-width="3"></path><path d="M421.4 153L411.4 183L458.9 183C456.3 178 455.2 172.7 455.9 167.4C456.6 162.2 458.6 157.5 461.2 153L421.4 153Z" class="" fill="url(#gradient-6)" stroke="#000000" stroke-opacity="1" stroke-width="3"></path><path d="M41 201L41 447.9C41 453 43.79 459 48.37 463.6C52.96 468.2 59 471 64 471L448 471.1C453 471.1 459 468.3 463.6 463.7C468.2 459.1 471 453.1 471 448L471 377L384 377C340 377 340 295 384 295L471 295L471 201.1L41 201Z" class="selected" fill="url(#gradient-7)" stroke="#000000" stroke-opacity="1" stroke-width="3"></path><path d="M384 313C364 313 364 359 384 359L406.3 359C397.3 355.2 391 346.3 391 336C391 325.7 397.3 316.8 406.3 313L384 313Z" class="" fill="url(#gradient-8)" stroke="#000000" stroke-opacity="1" stroke-width="3"></path><path d="M425.7 313C434.7 316.8 441 325.7 441 336C441 346.3 434.7 355.2 425.7 359L487 359L487 313L425.7 313Z" class="" fill="url(#gradient-9)" stroke="#000000" stroke-opacity="1" stroke-width="3"></path><path d="M416 329C412 329 409 332 409 336C409 340 412 343 416 343C420 343 423 340 423 336C423 332 420 329 416 329Z" class="" fill="url(#gradient-10)" stroke="#000000" stroke-opacity="1" stroke-width="3"></path></g></g><g class="" transform="translate(301,299)" style="touch-action: none;"><g transform="translate(6.4, 6.4) scale(0.8, 0.8) rotate(-360, 128, 128)"><circle cx="128" cy="128" r="128" fill="#000000" fill-opacity="1"></circle><circle stroke="#7ed321" stroke-opacity="1" fill="#000000" fill-opacity="1" stroke-width="18" cx="128" cy="128" r="101"></circle><path fill="#7ed321" fill-opacity="1" d="MZ"></path></g></g><g font-family="Arial, Helvetica, sans-serif" font-size="112" font-style="normal" font-weight="normal" text-anchor="middle" class="" transform="translate(413,449)" style="touch-action: none;"><text stroke="rgba(0, 0, 0, 0.005)" stroke-width="28"><tspan x="0" y="0">20</tspan></text><text fill="rgba(126, 211, 33, 1)"><tspan x="0" y="0">20</tspan></text></g></svg>