<svg xmlns="http://www.w3.org/2000/svg" viewBox="0 0 512 512" style="height: 512px; width: 512px;"><defs><linearGradient x1="0" x2="0" y1="0" y2="1" id="lorc-glass-shot-gradient-1"><stop offset="0%" stop-color="#f5a623" stop-opacity="1"></stop><stop offset="100%" stop-color="#8c5b08" stop-opacity="1"></stop></linearGradient><linearGradient x1="0" x2="0" y1="0" y2="1" id="lorc-glass-shot-gradient-2"><stop offset="0%" stop-color="#84cefc" stop-opacity="1"></stop><stop offset="100%" stop-color="#d9efff" stop-opacity="1"></stop></linearGradient><radialGradient id="lorc-glass-shot-gradient-3"><stop offset="0%" stop-color="#660000" stop-opacity="1"></stop><stop offset="100%" stop-color="#910101" stop-opacity="1"></stop></radialGradient><radialGradient id="lorc-glass-shot-gradient-4"><stop offset="0%" stop-color="#660000" stop-opacity="1"></stop><stop offset="100%" stop-color="#910101" stop-opacity="1"></stop></radialGradient><radialGradient id="lorc-glass-shot-gradient-5"><stop offset="0%" stop-color="#910101" stop-opacity="1"></stop><stop offset="100%" stop-color="#660000" stop-opacity="1"></stop></radialGradient><linearGradient id="lorc-glass-shot-gradient-6"><stop offset="0%" stop-color="#f8e71c" stop-opacity="1"></stop><stop offset="100%" stop-color="#b57204" stop-opacity="1"></stop></linearGradient><linearGradient x1="0" x2="1" y1="0" y2="1" id="lorc-glass-shot-gradient-7"><stop offset="0%" stop-color="#f8e71c" stop-opacity="1"></stop><stop offset="100%" stop-color="#8b572a" stop-opacity="1"></stop></linearGradient><radialGradient id="lorc-glass-shot-gradient-8"><stop offset="0%" stop-color="#f8e71c" stop-opacity="1"></stop><stop offset="100%" stop-color="#f5a623" stop-opacity="1"></stop></radialGradient><linearGradient x1="0" x2="0" y1="0" y2="1" id="lorc-glass-shot-gradient-9"><stop offset="0%" stop-color="#ff7b32" stop-opacity="1"></stop><stop offset="100%" stop-color="#b87365" stop-opacity="1"></stop></linearGradient><radialGradient id="lorc-glass-shot-gradient-10"><stop offset="0%" stop-color="#4a4a4a" stop-opacity="1"></stop><stop offset="100%" stop-color="#000000" stop-opacity="1"></stop></radialGradient><radialGradient id="lorc-glass-shot-gradient-11"><stop offset="0%" stop-color="#4a4a4a" stop-opacity="1"></stop><stop offset="100%" stop-color="#000000" stop-opacity="1"></stop></radialGradient><radialGradient id="lorc-glass-shot-gradient-12"><stop offset="0%" stop-color="#4a4a4a" stop-opacity="1"></stop><stop offset="100%" stop-color="#000000" stop-opacity="1"></stop></radialGradient><radialGradient id="lorc-glass-shot-gradient-13"><stop offset="0%" stop-color="#4a4a4a" stop-opacity="1"></stop><stop offset="100%" stop-color="#000000" stop-opacity="1"></stop></radialGradient><radialGradient id="lorc-glass-shot-gradient-14"><stop offset="0%" stop-color="#4a4a4a" stop-opacity="1"></stop><stop offset="100%" stop-color="#000000" stop-opacity="1"></stop></radialGradient><radialGradient id="lorc-glass-shot-gradient-15"><stop offset="0%" stop-color="#4a4a4a" stop-opacity="1"></stop><stop offset="100%" stop-color="#000000" stop-opacity="1"></stop></radialGradient><radialGradient id="lorc-glass-shot-gradient-16"><stop offset="0%" stop-color="#4a4a4a" stop-opacity="1"></stop><stop offset="100%" stop-color="#000000" stop-opacity="1"></stop></radialGradient><radialGradient id="lorc-glass-shot-gradient-17"><stop offset="0%" stop-color="#4a4a4a" stop-opacity="1"></stop><stop offset="100%" stop-color="#000000" stop-opacity="1"></stop></radialGradient><linearGradient x1="0" x2="0" y1="0" y2="1" id="lorc-glass-shot-gradient-18"><stop offset="0%" stop-color="#8b572a" stop-opacity="1"></stop><stop offset="100%" stop-color="#b57204" stop-opacity="1"></stop></linearGradient><linearGradient x1="0" x2="0" y1="0" y2="1" id="lorc-glass-shot-gradient-19"><stop offset="0%" stop-color="#345f02" stop-opacity="1"></stop><stop offset="100%" stop-color="#6e9d37" stop-opacity="1"></stop></linearGradient><linearGradient x1="0" x2="0" y1="0" y2="1" id="lorc-glass-shot-gradient-20"><stop offset="0%" stop-color="#345f02" stop-opacity="1"></stop><stop offset="100%" stop-color="#6e9d37" stop-opacity="1"></stop></linearGradient><radialGradient id="lorc-glass-shot-gradient-21"><stop offset="0%" stop-color="#f8e71c" stop-opacity="1"></stop><stop offset="100%" stop-color="#f5a623" stop-opacity="1"></stop></radialGradient><radialGradient id="lorc-glass-shot-gradient-22"><stop offset="0%" stop-color="#f8e71c" stop-opacity="1"></stop><stop offset="100%" stop-color="#f5a623" stop-opacity="1"></stop></radialGradient><radialGradient id="lorc-glass-shot-gradient-23"><stop offset="0%" stop-color="#f8e71c" stop-opacity="1"></stop><stop offset="100%" stop-color="#f5a623" stop-opacity="1"></stop></radialGradient><radialGradient id="lorc-glass-shot-gradient-24"><stop offset="0%" stop-color="#f8e71c" stop-opacity="1"></stop><stop offset="100%" stop-color="#f5a623" stop-opacity="1"></stop></radialGradient><radialGradient id="lorc-glass-shot-gradient-25"><stop offset="0%" stop-color="#8b7500" stop-opacity="1"></stop><stop offset="100%" stop-color="#c4a504" stop-opacity="1"></stop></radialGradient><radialGradient id="lorc-glass-shot-gradient-26"><stop offset="0%" stop-color="#8b7500" stop-opacity="1"></stop><stop offset="100%" stop-color="#c4a504" stop-opacity="1"></stop></radialGradient><radialGradient id="lorc-glass-shot-gradient-27"><stop offset="0%" stop-color="#f8e71c" stop-opacity="1"></stop><stop offset="100%" stop-color="#f5a623" stop-opacity="1"></stop></radialGradient><radialGradient id="lorc-glass-shot-gradient-28"><stop offset="0%" stop-color="#f8e71c" stop-opacity="1"></stop><stop offset="100%" stop-color="#f5a623" stop-opacity="1"></stop></radialGradient><radialGradient id="lorc-glass-shot-gradient-29"><stop offset="0%" stop-color="#f8e71c" stop-opacity="1"></stop><stop offset="100%" stop-color="#f5a623" stop-opacity="1"></stop></radialGradient><radialGradient id="lorc-glass-shot-gradient-30"><stop offset="0%" stop-color="#f8e71c" stop-opacity="1"></stop><stop offset="100%" stop-color="#f5a623" stop-opacity="1"></stop></radialGradient><radialGradient id="lorc-glass-shot-gradient-31"><stop offset="0%" stop-color="#8b7500" stop-opacity="1"></stop><stop offset="100%" stop-color="#c4a504" stop-opacity="1"></stop></radialGradient><radialGradient id="lorc-glass-shot-gradient-32"><stop offset="0%" stop-color="#f8e71c" stop-opacity="1"></stop><stop offset="100%" stop-color="#f5a623" stop-opacity="1"></stop></radialGradient><radialGradient id="lorc-glass-shot-gradient-33"><stop offset="0%" stop-color="#8b7500" stop-opacity="1"></stop><stop offset="100%" stop-color="#c4a504" stop-opacity="1"></stop></radialGradient><radialGradient id="lorc-glass-shot-gradient-34"><stop offset="0%" stop-color="#f8e71c" stop-opacity="1"></stop><stop offset="100%" stop-color="#f5a623" stop-opacity="1"></stop></radialGradient><radialGradient id="lorc-glass-shot-gradient-35"><stop offset="0%" stop-color="#f8e71c" stop-opacity="1"></stop><stop offset="100%" stop-color="#f5a623" stop-opacity="1"></stop></radialGradient><radialGradient id="lorc-glass-shot-gradient-36"><stop offset="0%" stop-color="#f8e71c" stop-opacity="1"></stop><stop offset="100%" stop-color="#f5a623" stop-opacity="1"></stop></radialGradient><radialGradient id="lorc-glass-shot-gradient-37"><stop offset="0%" stop-color="#f8e71c" stop-opacity="1"></stop><stop offset="100%" stop-color="#f5a623" stop-opacity="1"></stop></radialGradient><linearGradient x1="0" x2="1" y1="0" y2="1" id="lorc-glass-shot-gradient-38"><stop offset="0%" stop-color="#8b7500" stop-opacity="1"></stop><stop offset="100%" stop-color="#c4a504" stop-opacity="1"></stop></linearGradient><linearGradient x1="0" x2="1" y1="0" y2="1" id="lorc-glass-shot-gradient-39"><stop offset="0%" stop-color="#8b7500" stop-opacity="1"></stop><stop offset="100%" stop-color="#c4a504" stop-opacity="1"></stop></linearGradient><linearGradient x1="0" x2="1" y1="0" y2="1" id="lorc-glass-shot-gradient-40"><stop offset="0%" stop-color="#8b7500" stop-opacity="1"></stop><stop offset="100%" stop-color="#c4a504" stop-opacity="1"></stop></linearGradient><linearGradient x1="0" x2="1" y1="0" y2="1" id="lorc-glass-shot-gradient-41"><stop offset="0%" stop-color="#8b7500" stop-opacity="1"></stop><stop offset="100%" stop-color="#c4a504" stop-opacity="1"></stop></linearGradient><linearGradient x1="0" x2="1" y1="0" y2="1" id="lorc-glass-shot-gradient-42"><stop offset="0%" stop-color="#8b7500" stop-opacity="1"></stop><stop offset="100%" stop-color="#c4a504" stop-opacity="1"></stop></linearGradient><linearGradient x1="0" x2="1" y1="0" y2="1" id="lorc-glass-shot-gradient-43"><stop offset="0%" stop-color="#8b7500" stop-opacity="1"></stop><stop offset="100%" stop-color="#c4a504" stop-opacity="1"></stop></linearGradient><linearGradient x1="0" x2="1" y1="0" y2="1" id="lorc-glass-shot-gradient-44"><stop offset="0%" stop-color="#8b7500" stop-opacity="1"></stop><stop offset="100%" stop-color="#c4a504" stop-opacity="1"></stop></linearGradient><linearGradient x1="0" x2="1" y1="0" y2="1" id="lorc-glass-shot-gradient-45"><stop offset="0%" stop-color="#8b7500" stop-opacity="1"></stop><stop offset="100%" stop-color="#c4a504" stop-opacity="1"></stop></linearGradient><linearGradient x1="0" x2="1" y1="0" y2="1" id="lorc-glass-shot-gradient-46"><stop offset="0%" stop-color="#8b7500" stop-opacity="1"></stop><stop offset="100%" stop-color="#c4a504" stop-opacity="1"></stop></linearGradient></defs><g class="" transform="translate(0,1)" style=""><g><path d="M256.53 27.375C208.14 27.375 164.343 33.182 131.875 42.905C115.641 47.768 102.227 53.548 92.187 60.655C82.147 67.765 74.687 77.058 74.687 88.405C74.687 89.577 74.784 90.717 74.937 91.845L74.75 91.845L75.75 102.095L108.625 441.687L108.655 441.687C109.191 450.989 115.777 457.795 123.719 462.907C131.842 468.135 142.407 472.292 155.155 475.844C180.652 482.947 214.835 487.25 252.593 487.25C290.353 487.25 324.513 482.946 350.03 475.844C362.79 472.294 373.387 468.126 381.53 462.906C389.464 457.821 396.024 451.108 396.688 441.876L396.718 441.876L435.968 102.281L436.438 98.188C437.682 95.123 438.375 91.861 438.375 88.408C438.375 77.058 430.915 67.766 420.875 60.658C410.835 53.548 397.422 47.768 381.187 42.908C348.719 33.183 304.922 27.376 256.531 27.376Z" class="" fill="url(#lorc-glass-shot-gradient-2)" stroke="#000000" stroke-opacity="1" stroke-width="2"></path><path d="M256.53 46.063C303.41 46.063 345.878 51.838 375.844 60.813C390.827 65.3 402.674 70.653 410.094 75.906C417.514 81.16 419.688 85.488 419.688 88.406C419.688 91.324 417.513 95.622 410.094 100.876C402.674 106.128 390.827 111.481 375.844 115.969C345.878 124.942 303.41 130.719 256.531 130.719C209.653 130.719 167.217 124.942 137.251 115.969C122.268 111.479 110.421 106.127 103.001 100.874C95.581 95.621 93.376 91.324 93.376 88.404C93.376 85.487 95.582 81.159 103.001 75.904C110.421 70.652 122.268 65.299 137.251 60.811C167.217 51.837 209.653 46.061 256.531 46.061Z" class="" fill="url(#lorc-glass-shot-gradient-3)" stroke="#000000" stroke-opacity="1" stroke-width="2"></path><path d="M96.126 118.75C105.636 124.675 117.689 129.626 131.876 133.875C164.344 143.599 208.141 149.405 256.532 149.405C290.642 149.405 322.442 146.515 349.627 141.405L345.627 217.655C320.097 212.931 288.499 210.155 254.283 210.155C185.359 210.155 127.043 221.475 107.597 237.095L96.124 118.75Z" class="selected" fill="url(#lorc-glass-shot-gradient-4)" stroke="#000000" stroke-opacity="1" stroke-width="2"></path><path d="M415.156 119.844L401.532 237.564C397.252 233.964 390.902 230.604 382.846 227.531L392.033 130.345C400.791 127.222 408.553 123.752 415.159 119.845Z" class="" fill="url(#lorc-glass-shot-gradient-5)" stroke="#000000" stroke-opacity="1" stroke-width="2"></path><path d="M398.751 261.564L389.221 344.062C385.261 353.102 378.476 361.046 369.563 367.875L378.72 271C387.042 268.13 393.836 264.953 398.75 261.562Z" class="" fill="url(#lorc-glass-shot-gradient-6)" stroke="#000000" stroke-opacity="1" stroke-width="2"></path><path d="M109.971 261.656C131.477 276.36 187.971 286.876 254.281 286.876C287.071 286.876 317.431 284.279 342.376 279.906L336.876 385.094C262.896 412.199 139.718 399.334 117.782 342.469L109.972 261.655Z" class="" fill="url(#lorc-glass-shot-gradient-7)" stroke="#000000" stroke-opacity="1" stroke-width="2"></path></g></g></svg>