<svg xmlns="http://www.w3.org/2000/svg" viewBox="0 0 512 512" style="height: 512px; width: 512px;"><defs><radialGradient id="lorc-black-hand-shield-gradient-2"><stop offset="0%" stop-color="#9013fe" stop-opacity="1"></stop><stop offset="100%" stop-color="#bd10e0" stop-opacity="1"></stop></radialGradient><radialGradient id="lorc-black-hand-shield-gradient-3"><stop offset="0%" stop-color="#f8e71c" stop-opacity="1"></stop><stop offset="100%" stop-color="#f5a623" stop-opacity="1"></stop></radialGradient></defs><g class="" transform="translate(1,1)" style=""><g><path d="M51.67 24.377C51.67 240.137 96.102 453.695 260.88 499.007C442.274 460.307 470.326 240.731 470.326 24.377L51.67 24.377Z" class="selected" fill="url(#lorc-black-hand-shield-gradient-2)" stroke="#000000" stroke-opacity="1" stroke-width="2"></path><path d="M276.482 44.79C277.93 44.808 279.398 44.92 280.857 45.13L280.927 45.14C287.187 46.06 293.037 48.984 296.379 51.91L275.18 180.922L292.787 186.568L352.07 66.25C356.34 65.94 362.48 67.082 368.12 70.113C374.112 73.333 378.86 78.246 381.115 82.771L324.985 199.011L340.203 209.491L416.867 128.245C420.967 129.405 426.207 132.589 430.517 137.44C435.14 142.64 438.177 149.202 439.047 154.322L337.624 263.916L337.759 263.773C323.412 278.637 321.576 302.529 324.907 331.975C328.08 360.022 336.747 394.132 348.681 432.255C323.525 456.858 293.265 472.905 262.961 479.371C234.221 469.196 212.508 459.893 190.321 440.144C210.543 387.366 215.067 338.541 213.478 299.507C219.762 302.497 225.976 304.96 232.168 306.704C247.271 310.957 262.945 310.597 276.621 302.312L266.934 286.324C258.186 291.624 249.144 292.064 237.234 288.711C225.324 285.356 211.244 277.809 195.748 267.978C166.872 249.658 133.065 223.75 94.525 204.671C98.932 196.645 103.66 192.621 108.508 190.711C114.736 188.255 122.694 188.799 132.674 192.271C147.872 197.561 166.167 209.481 184.884 221.079L200.891 211.939L200.137 208.431C199.524 208.051 198.919 207.686 198.307 207.304L167.284 65.877C170.587 61.911 176.564 57.741 183.27 55.559C189.477 53.539 195.693 53.414 199.865 54.446L225.58 171.106L243.94 170.563L263.53 47.556C266.588 45.989 270.61 44.934 275.043 44.8C275.52 44.786 276 44.783 276.483 44.79Z" class="" fill="url(#lorc-black-hand-shield-gradient-3)" stroke="#000000" stroke-opacity="1" stroke-width="2"></path></g></g></svg>