<svg xmlns="http://www.w3.org/2000/svg" viewBox="0 0 512 512" style="height: 512px; width: 512px;"><defs><radialGradient id="gradient-2"><stop offset="0%" stop-color="#ffe0af" stop-opacity="1"></stop><stop offset="100%" stop-color="#d8bc90" stop-opacity="1"></stop></radialGradient><radialGradient id="gradient-3"><stop offset="0%" stop-color="#ffe0af" stop-opacity="1"></stop><stop offset="100%" stop-color="#b69e79" stop-opacity="1"></stop></radialGradient><radialGradient id="gradient-4"><stop offset="0%" stop-color="#48baff" stop-opacity="1"></stop><stop offset="100%" stop-color="#0072f7" stop-opacity="1"></stop></radialGradient><radialGradient id="gradient-5"><stop offset="0%" stop-color="#000000" stop-opacity="1"></stop><stop offset="100%" stop-color="#d0021b" stop-opacity="1"></stop></radialGradient><radialGradient id="gradient-6"><stop offset="0%" stop-color="#ffe0af" stop-opacity="1"></stop><stop offset="100%" stop-color="#b69e79" stop-opacity="1"></stop></radialGradient><radialGradient id="gradient-7"><stop offset="0%" stop-color="#ff7b00" stop-opacity="1"></stop><stop offset="100%" stop-color="#b87333" stop-opacity="1"></stop></radialGradient><radialGradient id="gradient-8"><stop offset="0%" stop-color="#ff7b00" stop-opacity="1"></stop><stop offset="100%" stop-color="#b87333" stop-opacity="1"></stop></radialGradient><radialGradient id="gradient-9"><stop offset="0%" stop-color="#ff7b00" stop-opacity="1"></stop><stop offset="100%" stop-color="#b87333" stop-opacity="1"></stop></radialGradient><radialGradient id="gradient-10"><stop offset="0%" stop-color="#ff7b00" stop-opacity="1"></stop><stop offset="100%" stop-color="#b87333" stop-opacity="1"></stop></radialGradient><radialGradient id="gradient-11"><stop offset="0%" stop-color="#ff7b00" stop-opacity="1"></stop><stop offset="100%" stop-color="#b87333" stop-opacity="1"></stop></radialGradient><radialGradient id="gradient-12"><stop offset="0%" stop-color="#ff7b00" stop-opacity="1"></stop><stop offset="100%" stop-color="#b87333" stop-opacity="1"></stop></radialGradient><radialGradient id="gradient-13"><stop offset="0%" stop-color="#ff7b00" stop-opacity="1"></stop><stop offset="100%" stop-color="#b87333" stop-opacity="1"></stop></radialGradient><radialGradient id="gradient-14"><stop offset="0%" stop-color="#ff7b00" stop-opacity="1"></stop><stop offset="100%" stop-color="#b87333" stop-opacity="1"></stop></radialGradient><radialGradient id="gradient-15"><stop offset="0%" stop-color="#ff7b00" stop-opacity="1"></stop><stop offset="100%" stop-color="#b87333" stop-opacity="1"></stop></radialGradient><radialGradient id="gradient-16"><stop offset="0%" stop-color="#ff7b00" stop-opacity="1"></stop><stop offset="100%" stop-color="#b87333" stop-opacity="1"></stop></radialGradient><radialGradient id="gradient-17"><stop offset="0%" stop-color="#ff7b00" stop-opacity="1"></stop><stop offset="100%" stop-color="#b87333" stop-opacity="1"></stop></radialGradient><radialGradient id="gradient-18"><stop offset="0%" stop-color="#ff7b00" stop-opacity="1"></stop><stop offset="100%" stop-color="#b87333" stop-opacity="1"></stop></radialGradient><radialGradient id="gradient-19"><stop offset="0%" stop-color="#ff7b00" stop-opacity="1"></stop><stop offset="100%" stop-color="#b87333" stop-opacity="1"></stop></radialGradient><radialGradient id="gradient-20"><stop offset="0%" stop-color="#f8e71c" stop-opacity="1"></stop><stop offset="100%" stop-color="#f5a623" stop-opacity="1"></stop></radialGradient><radialGradient id="gradient-21"><stop offset="0%" stop-color="#f8e71c" stop-opacity="1"></stop><stop offset="100%" stop-color="#f5a623" stop-opacity="1"></stop></radialGradient><radialGradient id="gradient-22"><stop offset="0%" stop-color="#f8e71c" stop-opacity="1"></stop><stop offset="100%" stop-color="#f5a623" stop-opacity="1"></stop></radialGradient><radialGradient id="gradient-23"><stop offset="0%" stop-color="#f8e71c" stop-opacity="1"></stop><stop offset="100%" stop-color="#f5a623" stop-opacity="1"></stop></radialGradient><radialGradient id="gradient-24"><stop offset="0%" stop-color="#f8e71c" stop-opacity="1"></stop><stop offset="100%" stop-color="#f5a623" stop-opacity="1"></stop></radialGradient><radialGradient id="gradient-25"><stop offset="0%" stop-color="#f8e71c" stop-opacity="1"></stop><stop offset="100%" stop-color="#f5a623" stop-opacity="1"></stop></radialGradient><radialGradient id="gradient-26"><stop offset="0%" stop-color="#f8e71c" stop-opacity="1"></stop><stop offset="100%" stop-color="#f5a623" stop-opacity="1"></stop></radialGradient><radialGradient id="gradient-27"><stop offset="0%" stop-color="#f8e71c" stop-opacity="1"></stop><stop offset="100%" stop-color="#f5a623" stop-opacity="1"></stop></radialGradient><radialGradient id="gradient-28"><stop offset="0%" stop-color="#f8e71c" stop-opacity="1"></stop><stop offset="100%" stop-color="#f5a623" stop-opacity="1"></stop></radialGradient><radialGradient id="gradient-29"><stop offset="0%" stop-color="#f8e71c" stop-opacity="1"></stop><stop offset="100%" stop-color="#f5a623" stop-opacity="1"></stop></radialGradient><radialGradient id="gradient-30"><stop offset="0%" stop-color="#f8e71c" stop-opacity="1"></stop><stop offset="100%" stop-color="#f5a623" stop-opacity="1"></stop></radialGradient><radialGradient id="gradient-31"><stop offset="0%" stop-color="#f8e71c" stop-opacity="1"></stop><stop offset="100%" stop-color="#f5a623" stop-opacity="1"></stop></radialGradient><radialGradient id="gradient-32"><stop offset="0%" stop-color="#f8e71c" stop-opacity="1"></stop><stop offset="100%" stop-color="#f5a623" stop-opacity="1"></stop></radialGradient><radialGradient id="gradient-33"><stop offset="0%" stop-color="#7ed321" stop-opacity="1"></stop><stop offset="100%" stop-color="#417505" stop-opacity="1"></stop></radialGradient><radialGradient id="gradient-34"><stop offset="0%" stop-color="#f8e71c" stop-opacity="1"></stop><stop offset="100%" stop-color="#f5a623" stop-opacity="1"></stop></radialGradient><radialGradient id="gradient-35"><stop offset="0%" stop-color="#f8e71c" stop-opacity="1"></stop><stop offset="100%" stop-color="#f5a623" stop-opacity="1"></stop></radialGradient><radialGradient id="gradient-36"><stop offset="0%" stop-color="#f8e71c" stop-opacity="1"></stop><stop offset="100%" stop-color="#f5a623" stop-opacity="1"></stop></radialGradient></defs><g class="" transform="translate(0,2)" style="touch-action: none;"><g><path d="M311.9 47.95C294.3 47.95 277.3 48.65 261.2 50.38L244.6 93.5L239.7 53.46C237.2 53.92 234.7 54.4 232.2 54.93C223.1 56.87 217.1 62.15 211.9 69.8C206.7 77.45 203 87.3 199.8 96.4C191 121.5 184 148 178.4 175C184.4 180.1 190.4 185.3 196.3 190.4L227 172.8L260.8 198.9L312.7 179.2L373.7 203.7L366.9 220.4L312.5 198.6L257.8 219.3L225.6 194.4L210.7 202.9C230.3 220.2 249.3 237.3 267.2 254.1L281.2 247.7L315.1 263.8L346.3 250.7L370.5 274L358.1 287L342.3 271.9L314.7 283.6L281.7 267.8C288.6 274.5 295.3 281 301.8 287.5L303.5 289.3L323 365.6L315.2 359.9L262.2 360.3L224.1 342.5L181.7 357.1L175.9 340.1L225.1 323.1L266.2 342.3L290.9 342.1L220.2 290.4C200.5 295 180.8 293.2 162.1 286.7C157.9 331.1 156.2 372.4 155.1 405.4C154.7 416.1 157.8 428.4 162.6 437.9C167.5 447.4 174.3 453.3 177.6 454C182.8 455.2 196.6 457.2 215.3 459.1L227.7 420.1L246.8 461.8C263.5 463 281.8 463.8 300.3 464C328.5 464.3 357.4 463.1 382.3 459.3C398.1 457 411.9 453.3 423 448.9C411.2 443.8 401.4 438.3 393.9 432.3C382.8 423.4 375.7 413 376.6 401.4L376.6 401.6C382 305.2 387.4 212.8 406.9 115.6L407 115.2L407.1 114.8C412.4 96.9 425 74.94 443.2 58.97C429.3 56.91 414.6 54.97 399.5 53.31L377.2 78.61L375 50.91C356 49.27 336.6 48.2 317.6 47.99L311.9 47.99Z" class="" fill="url(#gradient-2)" stroke="#000000" stroke-opacity="1" stroke-width="3"></path><path d="M460.4 68.39C455.7 72.08 451.2 76.42 447.1 81.12C459.2 89.3 468.5 104.5 468.9 118.1C469.2 125.9 467 133 461.2 139.5C455.4 145.9 445.6 151.9 429.6 155.3L433.4 172.9C452 168.9 465.7 161.4 474.6 151.5C483.6 141.6 487.3 129.3 486.9 117.5C486.3 98.2 475.8 79.91 460.4 68.39Z" class="" fill="url(#gradient-3)" stroke="#000000" stroke-opacity="1" stroke-width="3"></path><path d="M25.44 71.91C25.2 73.52 25.06 75.34 25.06 77.53C25.16 85.22 27.09 95.7 30.89 107.7C34.3 118.4 39.16 130.2 45.24 142.5C55.87 137.2 65.83 131.5 73.65 124.4C69.23 136.9 63.5 149.1 55.05 160.9C59.19 168.1 63.68 175.3 68.5 182.4C79.14 177.1 89.22 169.4 98.02 156.3C94.72 172.3 89.55 186.9 79.75 198.1C86.28 206.6 93.25 214.9 100.5 222.6C109.2 213.3 116.1 201.6 121.2 187.7C125 206.2 123.8 223 115.5 237.1C123.5 244.3 131.8 250.8 140.3 256.2C146.4 242.2 149.2 225.6 148.8 206.5C158 230.2 160.1 249.4 158.4 266C178.6 275.2 199.2 278 219.7 272.1L223.9 270.8L293.2 321.4L287.3 298.6C214.3 225.8 111.9 141.9 25.44 71.91Z" class="" fill="url(#gradient-4)" stroke="#000000" stroke-opacity="1" stroke-width="3"></path><path d="M312.8 123.9L346 137.7L377.3 127.8L382.7 145L345.2 156.9L311.6 142.9L282.8 151L278 133.6Z" class="selected" fill="url(#gradient-5)" stroke="#000000" stroke-opacity="1" stroke-width="3"></path><path d="M420.1 360.1C419.4 360.1 418.8 360.2 418.1 360.2C414.6 360.3 410.9 360.7 407 361.5L410.4 379.1C422.6 376.8 430.4 378.7 434.9 381.6C439.3 384.5 441.2 388.4 441.3 394.1C441.4 403.4 434.3 417.1 418 426.6C423.4 429.5 429.9 432.5 437.3 435.3C451.7 423.7 459.4 408.5 459.3 393.9C459.2 383.2 454.1 372.7 444.7 366.5C438 362.2 429.7 360 420.1 360.1Z" class="" fill="url(#gradient-6)" stroke="#000000" stroke-opacity="1" stroke-width="3"></path></g></g></svg>