<svg xmlns="http://www.w3.org/2000/svg" viewBox="0 0 512 512" style="height: 512px; width: 512px;"><defs><linearGradient x1="0" x2="1" y1="0" y2="1" id="lorc-bandage-roll-gradient-1"><stop offset="0%" stop-color="#d0021b" stop-opacity="1"></stop><stop offset="100%" stop-color="#fa95a1" stop-opacity="1"></stop></linearGradient><linearGradient x1="0" x2="1" y1="1" y2="0" id="lorc-bandage-roll-gradient-2"><stop offset="0%" stop-color="#ffe0af" stop-opacity="1"></stop><stop offset="100%" stop-color="#b87812" stop-opacity="1"></stop></linearGradient><radialGradient id="lorc-bandage-roll-gradient-3"><stop offset="0%" stop-color="#d0021b" stop-opacity="1"></stop><stop offset="100%" stop-color="#290106" stop-opacity="1"></stop></radialGradient><radialGradient id="lorc-bandage-roll-gradient-4"><stop offset="0%" stop-color="#f8c9f8" stop-opacity="1"></stop><stop offset="100%" stop-color="#fc88fc" stop-opacity="1"></stop></radialGradient><radialGradient id="lorc-bandage-roll-gradient-5"><stop offset="0%" stop-color="#9b9b9b" stop-opacity="1"></stop><stop offset="100%" stop-color="#4a4a4a" stop-opacity="1"></stop></radialGradient><radialGradient id="lorc-bandage-roll-gradient-6"><stop offset="0%" stop-color="#9b9b9b" stop-opacity="1"></stop><stop offset="100%" stop-color="#4a4a4a" stop-opacity="1"></stop></radialGradient><radialGradient id="lorc-bandage-roll-gradient-7"><stop offset="0%" stop-color="#d0021b" stop-opacity="1"></stop><stop offset="100%" stop-color="#9e0214" stop-opacity="1"></stop></radialGradient><radialGradient id="lorc-bandage-roll-gradient-8"><stop offset="0%" stop-color="#d0021b" stop-opacity="1"></stop><stop offset="100%" stop-color="#9e0214" stop-opacity="1"></stop></radialGradient><linearGradient x1="0" x2="0" y1="0" y2="1" id="lorc-bandage-roll-gradient-9"><stop offset="0%" stop-color="#ffffff" stop-opacity="1"></stop><stop offset="100%" stop-color="#ffdee2" stop-opacity="1"></stop></linearGradient><linearGradient x1="0" x2="0" y1="0" y2="1" id="lorc-bandage-roll-gradient-10"><stop offset="0%" stop-color="#ffffff" stop-opacity="1"></stop><stop offset="100%" stop-color="#ffdee2" stop-opacity="1"></stop></linearGradient><linearGradient x1="0" x2="0" y1="0" y2="1" id="lorc-bandage-roll-gradient-11"><stop offset="0%" stop-color="#ffffff" stop-opacity="1"></stop><stop offset="100%" stop-color="#ffdee2" stop-opacity="1"></stop></linearGradient><linearGradient x1="0" x2="0" y1="0" y2="1" id="lorc-bandage-roll-gradient-12"><stop offset="0%" stop-color="#ffffff" stop-opacity="1"></stop><stop offset="100%" stop-color="#ffdee2" stop-opacity="1"></stop></linearGradient><linearGradient x1="0" x2="0" y1="0" y2="1" id="lorc-bandage-roll-gradient-13"><stop offset="0%" stop-color="#ffffff" stop-opacity="1"></stop><stop offset="100%" stop-color="#ffdee2" stop-opacity="1"></stop></linearGradient><radialGradient id="lorc-bandage-roll-gradient-14"><stop offset="0%" stop-color="#f8e71c" stop-opacity="1"></stop><stop offset="100%" stop-color="#f5a623" stop-opacity="1"></stop></radialGradient><radialGradient id="lorc-bandage-roll-gradient-15"><stop offset="0%" stop-color="#f8e71c" stop-opacity="1"></stop><stop offset="100%" stop-color="#f5a623" stop-opacity="1"></stop></radialGradient><radialGradient id="lorc-bandage-roll-gradient-16"><stop offset="0%" stop-color="#f8e71c" stop-opacity="1"></stop><stop offset="100%" stop-color="#f5a623" stop-opacity="1"></stop></radialGradient><radialGradient id="lorc-bandage-roll-gradient-17"><stop offset="0%" stop-color="#f8e71c" stop-opacity="1"></stop><stop offset="100%" stop-color="#f5a623" stop-opacity="1"></stop></radialGradient><radialGradient id="lorc-bandage-roll-gradient-18"><stop offset="0%" stop-color="#f8e71c" stop-opacity="1"></stop><stop offset="100%" stop-color="#f5a623" stop-opacity="1"></stop></radialGradient><radialGradient id="lorc-bandage-roll-gradient-19"><stop offset="0%" stop-color="#f8e71c" stop-opacity="1"></stop><stop offset="100%" stop-color="#f5a623" stop-opacity="1"></stop></radialGradient><radialGradient id="lorc-bandage-roll-gradient-20"><stop offset="0%" stop-color="#f8e71c" stop-opacity="1"></stop><stop offset="100%" stop-color="#f5a623" stop-opacity="1"></stop></radialGradient><radialGradient id="lorc-bandage-roll-gradient-21"><stop offset="0%" stop-color="#f8e71c" stop-opacity="1"></stop><stop offset="100%" stop-color="#f5a623" stop-opacity="1"></stop></radialGradient><radialGradient id="lorc-bandage-roll-gradient-22"><stop offset="0%" stop-color="#f8e71c" stop-opacity="1"></stop><stop offset="100%" stop-color="#f5a623" stop-opacity="1"></stop></radialGradient><radialGradient id="lorc-bandage-roll-gradient-23"><stop offset="0%" stop-color="#f8e71c" stop-opacity="1"></stop><stop offset="100%" stop-color="#f5a623" stop-opacity="1"></stop></radialGradient><radialGradient id="lorc-bandage-roll-gradient-24"><stop offset="0%" stop-color="#f8e71c" stop-opacity="1"></stop><stop offset="100%" stop-color="#f5a623" stop-opacity="1"></stop></radialGradient><radialGradient id="lorc-bandage-roll-gradient-25"><stop offset="0%" stop-color="#8b7500" stop-opacity="1"></stop><stop offset="100%" stop-color="#c4a504" stop-opacity="1"></stop></radialGradient><radialGradient id="lorc-bandage-roll-gradient-26"><stop offset="0%" stop-color="#8b7500" stop-opacity="1"></stop><stop offset="100%" stop-color="#c4a504" stop-opacity="1"></stop></radialGradient><radialGradient id="lorc-bandage-roll-gradient-27"><stop offset="0%" stop-color="#f8e71c" stop-opacity="1"></stop><stop offset="100%" stop-color="#f5a623" stop-opacity="1"></stop></radialGradient><radialGradient id="lorc-bandage-roll-gradient-28"><stop offset="0%" stop-color="#f8e71c" stop-opacity="1"></stop><stop offset="100%" stop-color="#f5a623" stop-opacity="1"></stop></radialGradient><radialGradient id="lorc-bandage-roll-gradient-29"><stop offset="0%" stop-color="#f8e71c" stop-opacity="1"></stop><stop offset="100%" stop-color="#f5a623" stop-opacity="1"></stop></radialGradient><radialGradient id="lorc-bandage-roll-gradient-30"><stop offset="0%" stop-color="#f8e71c" stop-opacity="1"></stop><stop offset="100%" stop-color="#f5a623" stop-opacity="1"></stop></radialGradient><radialGradient id="lorc-bandage-roll-gradient-31"><stop offset="0%" stop-color="#8b7500" stop-opacity="1"></stop><stop offset="100%" stop-color="#c4a504" stop-opacity="1"></stop></radialGradient><radialGradient id="lorc-bandage-roll-gradient-32"><stop offset="0%" stop-color="#f8e71c" stop-opacity="1"></stop><stop offset="100%" stop-color="#f5a623" stop-opacity="1"></stop></radialGradient><radialGradient id="lorc-bandage-roll-gradient-33"><stop offset="0%" stop-color="#8b7500" stop-opacity="1"></stop><stop offset="100%" stop-color="#c4a504" stop-opacity="1"></stop></radialGradient><radialGradient id="lorc-bandage-roll-gradient-34"><stop offset="0%" stop-color="#f8e71c" stop-opacity="1"></stop><stop offset="100%" stop-color="#f5a623" stop-opacity="1"></stop></radialGradient><radialGradient id="lorc-bandage-roll-gradient-35"><stop offset="0%" stop-color="#f8e71c" stop-opacity="1"></stop><stop offset="100%" stop-color="#f5a623" stop-opacity="1"></stop></radialGradient><radialGradient id="lorc-bandage-roll-gradient-36"><stop offset="0%" stop-color="#f8e71c" stop-opacity="1"></stop><stop offset="100%" stop-color="#f5a623" stop-opacity="1"></stop></radialGradient><radialGradient id="lorc-bandage-roll-gradient-37"><stop offset="0%" stop-color="#f8e71c" stop-opacity="1"></stop><stop offset="100%" stop-color="#f5a623" stop-opacity="1"></stop></radialGradient><linearGradient x1="0" x2="1" y1="0" y2="1" id="lorc-bandage-roll-gradient-38"><stop offset="0%" stop-color="#8b7500" stop-opacity="1"></stop><stop offset="100%" stop-color="#c4a504" stop-opacity="1"></stop></linearGradient><linearGradient x1="0" x2="1" y1="0" y2="1" id="lorc-bandage-roll-gradient-39"><stop offset="0%" stop-color="#8b7500" stop-opacity="1"></stop><stop offset="100%" stop-color="#c4a504" stop-opacity="1"></stop></linearGradient><linearGradient x1="0" x2="1" y1="0" y2="1" id="lorc-bandage-roll-gradient-40"><stop offset="0%" stop-color="#8b7500" stop-opacity="1"></stop><stop offset="100%" stop-color="#c4a504" stop-opacity="1"></stop></linearGradient><linearGradient x1="0" x2="1" y1="0" y2="1" id="lorc-bandage-roll-gradient-41"><stop offset="0%" stop-color="#8b7500" stop-opacity="1"></stop><stop offset="100%" stop-color="#c4a504" stop-opacity="1"></stop></linearGradient><linearGradient x1="0" x2="1" y1="0" y2="1" id="lorc-bandage-roll-gradient-42"><stop offset="0%" stop-color="#8b7500" stop-opacity="1"></stop><stop offset="100%" stop-color="#c4a504" stop-opacity="1"></stop></linearGradient><linearGradient x1="0" x2="1" y1="0" y2="1" id="lorc-bandage-roll-gradient-43"><stop offset="0%" stop-color="#8b7500" stop-opacity="1"></stop><stop offset="100%" stop-color="#c4a504" stop-opacity="1"></stop></linearGradient><linearGradient x1="0" x2="1" y1="0" y2="1" id="lorc-bandage-roll-gradient-44"><stop offset="0%" stop-color="#8b7500" stop-opacity="1"></stop><stop offset="100%" stop-color="#c4a504" stop-opacity="1"></stop></linearGradient><linearGradient x1="0" x2="1" y1="0" y2="1" id="lorc-bandage-roll-gradient-45"><stop offset="0%" stop-color="#8b7500" stop-opacity="1"></stop><stop offset="100%" stop-color="#c4a504" stop-opacity="1"></stop></linearGradient><linearGradient x1="0" x2="1" y1="0" y2="1" id="lorc-bandage-roll-gradient-46"><stop offset="0%" stop-color="#8b7500" stop-opacity="1"></stop><stop offset="100%" stop-color="#c4a504" stop-opacity="1"></stop></linearGradient></defs><g class="" transform="translate(0,0)" style=""><g><path d="M127.188 18.313C118.966 18.313 110.688 22.163 102.156 30.75C93.623 39.337 85.316 52.525 78.281 69.25C64.215 102.7 55.188 150.076 55.188 202.406C55.188 254.736 64.215 302.112 78.282 335.562C85.317 352.288 93.625 365.476 102.158 374.062C110.691 382.649 118.968 386.532 127.188 386.532L127.188 386.438L221.564 386.125C202.774 338.729 195.499 286.668 198.002 232.875C201.102 166.247 178.7 108.619 158.032 88.845C152.154 83.217 147.08 81.405 142.377 81.531C137.674 81.657 132.51 83.871 126.814 89.501C115.424 100.758 103.86 125.557 98.502 161.721C94.422 189.261 94.782 220.328 99.032 246.595C103.286 272.862 112.237 294.195 120.846 301.845C123.881 304.542 125.916 305.015 127.783 304.875C129.653 304.735 132.133 303.738 135.223 300.532C141.16 294.369 147.809 280.262 150.973 259.532C150.939 259.565 150.911 259.596 150.878 259.627C152.235 253.525 153.034 246.391 153.034 238.721C153.034 216.481 146.452 198.439 138.348 198.439C130.631 198.439 124.341 214.803 123.754 235.564C122.229 228.539 121.348 220.58 121.348 212.126C121.348 183.844 130.986 160.906 142.878 160.906C145.958 160.906 148.886 162.451 151.535 165.22C151.559 165.238 151.577 165.262 151.599 165.28C161.833 174.07 166.144 188.464 168.974 204.97C171.894 222.006 172.284 241.532 169.848 259.53C166.521 284.12 159.414 302.337 148.66 313.5C143.283 319.08 136.59 322.94 129.16 323.5C121.73 324.06 114.327 321.04 108.44 315.812C93.168 302.242 85.19 277.955 80.598 249.594C76.006 221.232 75.638 188.687 80.035 159C85.762 120.36 97.41 92.248 113.661 76.187C121.787 68.157 131.541 63.119 141.911 62.844C152.281 62.568 162.419 67.187 170.941 75.344C199.001 102.194 219.967 162.714 216.661 233.75C213.668 298.078 225.061 358.71 253.911 411.313C263.509 428.19 275.073 444.107 288.567 458.75C288.662 458.853 288.754 458.96 288.849 459.063L321.879 495.938L335.786 483.438L327.256 473.938L340.85 461.875L326.037 445.219C332.05 443.199 338.389 441.607 344.977 440.249C346.072 441.414 347.401 442.899 349.037 444.687C352.577 448.553 357.097 453.541 361.507 458.467C370.327 468.321 378.787 477.905 378.787 477.905L392.787 465.53C392.787 465.53 384.281 455.94 375.413 446.03C372.85 443.167 370.309 440.357 367.883 437.656C368.018 437.732 368.088 437.766 368.226 437.844C374.192 441.179 381.871 445.494 389.443 449.781C404.588 458.354 419.318 466.751 419.318 466.751L428.162 451.221C441.172 458.594 454.382 466.095 454.382 466.095L463.662 449.845C463.662 449.845 448.9 441.435 433.725 432.845C428.871 430.098 424.575 427.675 420.099 425.157C424.604 423.631 429.016 421.897 433.319 419.877L485.536 421.72L486.162 403.03L456.97 402C407.254 391.53 369.935 327.65 368.28 256.437C370.69 239.36 372 221.22 372 202.407C372 151.223 362.31 104.973 347.125 71.875C331.982 38.865 311.927 20.321 292.75 18.937L127.187 18.407L127.187 18.312Z" class="selected" fill="url(#lorc-bandage-roll-gradient-2)" stroke="#000000" stroke-opacity="1" stroke-width="2"></path></g></g></svg>